<svg width="300" height="300" viewBox="0 0 300 300" fill="none" xmlns="http://www.w3.org/2000/svg">
<rect width="300" height="300" fill="#3A7DCE"/>
<path d="M78.7887 143.159C77.1252 139.84 77.1252 139.84 77.1252 136.521C76.2933 136.521 76.1373 136.677 75.6563 136.547C75.1752 136.417 74.9934 139.607 73.4334 138.984C73.1736 138.673 74.5514 136.366 73.0566 135.407C72.5756 135.095 73.1736 133.203 72.9655 132.373C72.9655 132.373 71.068 133.358 69.6381 129.884C68.9359 128.976 67.9742 130.714 67.9742 130.714C67.9742 130.714 68.39 131.777 67.6364 132.036C66.5705 131.258 65.7903 131.666 64.4387 130.597C63.0868 129.527 64.7248 128.303 62.151 127.395C63.8149 123.247 63.8149 124.076 67.9742 122.418C65.4784 120.758 65.4784 120.758 63.8149 118.269C61.319 117.439 60.4871 116.61 57.9913 114.951C54.6639 110.802 53 102.506 53 96.6987C55.1059 94.754 57.9913 103.336 62.151 105.824C62.151 105.824 65.8121 107.113 67.9742 108.314C70.8117 109.889 71.7466 111.8 74.6294 113.291C77.3662 114.707 78.7891 113.292 82.1165 115.78C85.4438 118.269 87.1077 121.588 89.6036 122.418C92.3071 122.418 92.0743 121.353 93.6948 120.768C96.8847 119.617 98.7543 119.198 102.056 118.425C105.924 117.519 105.409 119.099 112.064 116.61C118.72 114.121 113.202 115.018 114 114.052C114.526 113.416 114.909 113.131 115.392 112.462C117.151 110.029 117.723 108.072 117.527 105.076C117.46 104.058 116.804 103.495 117.056 102.506C117.292 101.581 118.083 101.401 118.538 100.561C119.445 98.889 119.146 96.8493 119.44 95.7736C119.734 94.6984 118.309 95.0667 118.711 93.5842C119.112 92.1012 121.742 92.2342 121.844 90.5278C121.896 89.6637 121.215 88.4022 121.215 88.4022C121.215 88.4022 120.424 85.1998 121.215 83.4242C122.518 80.5032 126.041 81.8794 128.703 80.1057C131.757 78.07 130.366 73.4685 135.358 73.4685C136.06 71.9389 133.537 70.6425 134.526 70.1499C136.19 69.9425 137.463 70.0463 139.414 72.5612C140.03 73.3581 140.141 71.3944 140.765 71.187C141.389 70.9796 142.882 70.9764 143.104 69.9944C143.339 68.9832 142.858 65.9159 144.509 66.0018C145.942 66.0763 145.453 68.0695 146.38 69.1647C150.135 73.5982 157.819 70.0722 161.146 70.9796C163.642 71.6278 165.259 69.2221 167.698 70.0721C169.932 70.8509 171.129 70.5129 172.065 74.2722C173.386 76.3007 174.474 74.7451 176.017 75.05C181.126 76.0597 184.774 74.758 189.093 77.6686C190.7 78.7517 191.807 81.0883 192.769 81.0033C194.332 80.7408 194.223 80.1582 195.254 80.1057C198.674 79.9314 194.51 88.5591 197.932 88.4538C198.499 88.4363 198.838 88.4032 199.359 88.1783C200.418 87.721 200.227 86.3987 201.285 85.939C202.642 85.3499 203.565 86.3056 205.009 86.6253C208.428 87.3825 210.451 87.7029 213.569 89.2965C214.893 89.9731 215.174 91.5458 216.826 91.2678C218.191 92.1823 217.2 92.9102 218.002 93.4577C219.284 94.334 220.211 91.7205 221.875 92.5502C223.539 93.3799 224.969 94.667 226.035 96.6987C227.69 99.8547 225.203 100.847 226.035 105.824C226.45 107.484 228.439 111.645 228.439 111.645C228.439 111.645 231.562 117.183 230.688 120.732C230.249 122.514 228.53 124.906 228.53 124.906C228.53 124.906 225.85 130.555 226.866 134.032C228.77 140.542 240.062 133.167 243.504 139.01C245.721 142.773 245.154 145.859 244.388 150.159C243.761 153.675 239.458 155.394 240.957 158.636C241.973 160.833 244.569 160.288 246 162.24C249.306 166.752 246.625 171.702 243.504 176.344C241.185 179.793 236.612 179.078 235.185 182.981C233.832 186.684 238.985 189.624 236.849 192.937C235.58 194.904 233.522 193.767 231.858 196.256C230.194 198.745 230.194 191.278 229.362 195.426C228.53 199.574 232.605 203.074 229.362 204.552C227.884 205.226 225.925 203.098 225.203 204.552C224.557 205.85 226.779 206.423 226.866 207.87C227.077 211.362 222.135 211.085 218.547 211.189C217.612 213.237 221.024 214.219 220.835 216.452C220.576 219.517 215.22 221.974 215.22 221.974C215.22 221.974 216.81 222.719 216.884 223.634C216.99 224.969 215.22 222.804 213.556 222.804C212.724 223.012 208.752 226.025 208.752 226.025C208.752 226.025 205.981 227.887 203.993 228.608C202.849 229.023 202.245 228.628 200.985 229.416C199.726 230.206 198.435 233.58 197.802 232.086C197.382 231.095 199.004 230.432 198.582 229.441C197.932 227.917 196.069 230.089 194.422 230.271C194.222 230.293 193.91 230.322 193.91 230.322C192.918 230.243 193.684 228.579 192.882 227.989C191.32 226.841 190.977 231.518 189.07 231.169C188.347 231.037 188.13 230.361 187.398 230.307C185.822 230.192 186.493 233.099 184.979 233.55C183.395 234.02 182.653 231.684 181.061 231.956C172.871 234.834 174.514 231.099 170.297 231.101C169.062 231.101 168.313 231.547 167.135 231.175C166.156 230.865 165.922 229.709 164.933 229.736C162.954 229.791 163.234 230.906 161.978 231.101C158.776 231.597 155.765 227.911 155.245 226.252C154.822 224.522 157.554 224.53 158.438 223.358C159.114 221.666 157.732 221.024 160.474 219.392C164.047 216.982 162.155 216.383 162.619 214.261C163.083 212.138 163.132 210.849 162.81 208.7C162.338 205.543 162.671 201.078 159.483 201.233C157.344 201.337 157.819 203.981 155.375 204.863C150.384 206.522 141.571 200.663 140.037 200.663C138.634 200.689 132.133 202.198 132.378 198.965C131.406 202.108 127.611 199.704 127.611 199.704C124.283 199.704 125.557 202.271 123.321 202.167C122.307 201.83 112.064 201.233 112.064 201.233V202.893L105.409 199.574L99.5861 197.915C94.5948 196.256 97.0907 192.107 88.7716 194.596V189.618H84.6123C86.2758 179.663 84.6123 184.641 83.7804 175.515L80.4526 176.344C77.1252 171.859 85.0798 172.714 77.9572 169.707C77.9572 169.707 78.0868 164.755 76.2933 166.388C75.9292 166.596 77.1252 168.877 77.1252 168.877C70.47 168.048 68.8062 166.388 68.8062 159.751C68.8062 159.751 74.2916 160.529 73.7974 159.751C73.0176 158.507 72.0038 150.418 72.1857 149.873C72.1077 148.784 77.2812 146.037 76.2801 143.417C76.9171 143.184 78.7887 143.159 78.7887 143.159Z" fill="white"/>
<path d="M249.735 168.259C249.493 168.804 249.536 169.348 249.786 169.736C250.236 169.062 249.856 168.751 249.735 168.259Z" stroke="white" stroke-width="2.5" stroke-linejoin="round"/>
<path d="M52.0262 107.56C52.0262 107.56 50.7566 107.405 51.0417 108.519C51.4565 107.664 52.0005 107.612 52.0262 107.56Z" stroke="white" stroke-width="2.5" stroke-linejoin="round"/>
<path d="M51.3259 103.553C50.6265 103.579 49.7712 103.449 50.0563 104.563C50.471 103.708 51.3001 103.605 51.3259 103.553Z" stroke="white" stroke-width="2.5" stroke-linejoin="round"/>
<path d="M60.1028 119.398C60.1028 119.398 61.1912 119.32 60.9061 120.434C60.4914 119.579 60.129 119.45 60.1028 119.398Z" stroke="white" stroke-width="2.5" stroke-linejoin="round"/>
</svg>
