<svg width="300" height="300" viewBox="0 0 300 300" fill="none" xmlns="http://www.w3.org/2000/svg">
<rect width="300" height="300" fill="#3A7DCE"/>
<path d="M77.3997 143.229C78.112 143.166 78.412 142.416 78.101 141.772C77.3302 140.176 77.1683 139.559 77.1343 138C77.1165 137.184 76.4436 136.761 75.6563 136.547V136.547C75.2643 136.441 75.071 138.539 74.1691 138.983C73.7225 139.203 73.396 138.728 73.5223 138.247C73.7443 137.401 74.0992 136.076 73.0566 135.407V135.407C71.731 134.547 71.256 132.532 70.3531 131.235C70.1662 130.966 69.9805 130.644 69.8007 130.256C69.6877 130.013 69.5769 129.723 69.3208 129.643C68.9928 129.541 68.6491 129.821 68.391 130.121C68.0909 130.469 68.0558 130.772 68.0856 131.231V131.231C68.1184 131.735 67.4021 131.832 66.9296 131.653C66.1775 131.368 65.4766 131.418 64.4387 130.597C63.9744 130.23 63.8628 129.844 63.8121 129.459C63.6064 127.899 62.5065 126.098 63.371 124.782C63.4146 124.716 63.4585 124.653 63.5027 124.593C64.7748 122.882 65.6809 121.007 64.4745 119.249V119.249C64.1419 118.764 63.5087 118.176 62.9617 117.961C61.2033 117.268 60.2943 116.505 58.379 115.211C58.1232 115.038 57.8909 114.83 57.7077 114.582C54.8057 110.647 53.2452 103.521 53.0267 98.0102C52.9935 97.1737 53.4719 96.1744 54.2091 96.5711C56.1308 97.6054 58.6088 103.477 61.8967 105.664C62.064 105.775 62.2447 105.857 62.4335 105.926C63.3325 106.253 66.1733 107.314 67.9742 108.314C70.8117 109.889 71.7466 111.8 74.6294 113.291C77.3662 114.707 78.7891 113.292 82.1165 115.78C85.2396 118.116 86.8972 121.184 89.1529 122.237C89.4443 122.374 89.7682 122.423 90.0893 122.405C92.2848 122.283 92.1784 121.315 93.6948 120.768C96.8847 119.617 98.7543 119.198 102.056 118.425C105.924 117.519 105.409 119.099 112.064 116.61C118.72 114.121 113.202 115.018 114 114.052C114.526 113.416 114.909 113.131 115.392 112.462C117.151 110.029 117.723 108.072 117.527 105.076C117.46 104.058 116.804 103.495 117.056 102.506C117.292 101.581 118.083 101.401 118.538 100.561C119.445 98.889 119.146 96.8493 119.44 95.7736C119.734 94.6984 118.309 95.0667 118.711 93.5842C119.112 92.1012 121.742 92.2342 121.844 90.5278C121.879 89.944 121.58 89.1789 121.382 88.7439C121.277 88.5137 121.184 88.2796 121.135 88.0317C120.956 87.1378 120.588 84.8323 121.215 83.4242C122.518 80.5032 126.041 81.8794 128.703 80.1057C131.287 78.3833 130.689 74.8242 133.467 73.7694C134.563 73.3532 135.666 72.6415 135.01 71.6698C134.713 71.2294 134.373 70.851 134.305 70.5613C134.228 70.2311 134.697 70.1229 135.036 70.0975C136.463 69.9905 137.667 70.309 139.414 72.5612C140.03 73.3581 140.141 71.3944 140.765 71.187C141.389 70.9796 142.882 70.9764 143.104 69.9944C143.339 68.9832 142.858 65.9159 144.509 66.0018C145.942 66.0763 145.453 68.0695 146.38 69.1647C150.135 73.5982 157.819 70.0722 161.146 70.9796C163.642 71.6278 165.259 69.2221 167.698 70.0721C169.83 70.8153 171.018 70.5415 171.935 73.7818C172.026 74.1033 172.149 74.4251 172.366 74.6792C173.556 76.0724 174.593 74.7685 176.017 75.05C181.126 76.0597 184.774 74.758 189.093 77.6686C190.7 78.7517 191.807 81.0883 192.769 81.0033C194.332 80.7408 194.223 80.1582 195.254 80.1057C198.674 79.9314 194.51 88.5591 197.932 88.4538C198.499 88.4363 198.838 88.4032 199.359 88.1783C200.418 87.721 200.227 86.3987 201.285 85.939C202.642 85.3499 203.565 86.3056 205.009 86.6253C208.428 87.3825 210.451 87.7029 213.569 89.2965C214.506 89.7751 214.92 90.7019 215.667 91.1051C216.341 91.469 217.366 91.4277 217.573 92.1653C217.715 92.6729 217.483 93.1032 218.002 93.4577C219.284 94.334 220.211 91.7205 221.875 92.5502C223.539 93.3799 224.969 94.667 226.035 96.6987C227.69 99.8547 225.203 100.847 226.035 105.824C226.414 107.34 228.106 110.941 228.397 111.555C228.426 111.616 228.454 111.671 228.486 111.731C228.874 112.443 231.498 117.442 230.688 120.732C230.33 122.188 229.116 124.051 228.684 124.684C228.583 124.833 228.491 124.988 228.418 125.153C227.921 126.276 225.976 130.987 226.866 134.032C228.77 140.542 240.062 133.167 243.504 139.01C245.721 142.773 245.154 145.859 244.388 150.159C243.761 153.675 239.458 155.394 240.957 158.636C241.973 160.833 244.569 160.288 246 162.24C249.306 166.752 246.625 171.702 243.504 176.344C241.185 179.793 236.612 179.078 235.185 182.981C233.832 186.684 238.985 189.624 236.849 192.937C235.58 194.904 233.522 193.767 231.858 196.256C230.194 198.745 230.194 191.278 229.362 195.426C228.53 199.574 232.605 203.074 229.362 204.552C227.884 205.226 225.925 203.098 225.203 204.552C224.557 205.85 226.779 206.423 226.866 207.87C227.042 210.783 223.632 211.073 220.414 211.15C219.271 211.177 218.12 212.002 218.756 212.952C219.472 214.022 220.962 214.956 220.835 216.452C220.687 218.208 218.866 219.764 217.337 220.773C216.534 221.303 216.807 222.675 216.884 223.634V223.634C216.982 224.871 215.469 223.102 213.923 222.837C213.681 222.795 213.436 222.834 213.218 222.945C212.074 223.532 209.285 225.624 208.819 225.975C208.773 226.01 208.729 226.041 208.681 226.073C208.233 226.369 205.792 227.955 203.993 228.608C202.849 229.023 202.245 228.628 200.985 229.416C199.726 230.206 198.435 233.58 197.802 232.086C197.382 231.095 199.004 230.432 198.582 229.441C197.932 227.917 196.069 230.089 194.422 230.271C194.346 230.279 194.253 230.289 194.167 230.297C193.996 230.314 193.813 230.336 193.662 230.254C193.055 229.922 193.604 228.52 192.882 227.989C191.32 226.841 190.977 231.518 189.07 231.169C188.347 231.037 188.13 230.361 187.398 230.307C185.822 230.192 186.493 233.099 184.979 233.55C183.482 233.995 182.736 231.93 181.314 231.934C181.145 231.934 180.974 231.987 180.814 232.041C172.904 234.758 174.471 231.099 170.297 231.101C169.062 231.101 168.313 231.547 167.135 231.175C166.156 230.865 165.922 229.709 164.933 229.736C162.954 229.791 163.234 230.906 161.978 231.101C158.776 231.597 155.765 227.911 155.245 226.252C154.86 224.676 157.091 224.542 158.16 223.646C158.364 223.475 158.497 223.234 158.563 222.975C158.921 221.558 157.949 220.895 160.474 219.392C164.047 216.982 162.155 216.383 162.619 214.261C163.083 212.138 163.132 210.849 162.81 208.7C162.338 205.543 162.671 201.078 159.483 201.233C157.344 201.337 157.819 203.981 155.375 204.863C150.384 206.522 141.571 200.663 140.037 200.663C139.488 200.673 138.158 200.91 136.758 201.002C136.017 201.05 128.254 200.101 127.622 199.711V199.711C127.522 199.649 127.545 199.703 127.428 199.706C124.548 199.793 125.37 201.934 123.735 202.152C123.463 202.188 123.193 202.126 122.922 202.083C121.123 201.797 114.783 201.398 112.719 201.272C112.363 201.251 112.064 201.534 112.064 201.891V201.891C112.064 202.351 111.58 202.651 111.168 202.446L105.658 199.698C105.493 199.616 105.32 199.548 105.142 199.498L99.5861 197.915C95.2558 196.475 96.561 193.162 91.5501 193.935C90.1442 194.152 88.7716 193.165 88.7716 191.743V191.526C88.7716 190.472 87.9178 189.618 86.8645 189.618V189.618C85.6857 189.618 84.7943 188.553 84.9668 187.387C85.8961 181.103 84.8078 183.279 84.026 177.685C83.8673 176.549 82.7763 175.765 81.6635 176.042V176.042C80.9303 176.225 80.1106 175.966 79.8152 175.271C78.5887 172.383 83.0818 172.39 79.8158 170.583C78.7356 169.985 78.0217 168.886 77.8366 167.666C77.6716 166.578 77.2889 165.595 76.4081 166.291C76.3312 166.351 76.2893 166.352 76.247 166.44V166.44C75.7838 167.41 75.6619 168.694 74.6112 168.468C71.111 167.716 69.5687 166.352 69.0372 163.198C68.7341 161.399 70.4217 160.017 72.2448 160.087C73.2313 160.125 73.9957 160.063 73.7974 159.751C73.1224 158.674 72.2721 152.469 72.1737 150.467C72.1543 150.072 72.181 149.652 72.4198 149.337C73.2685 148.219 76.1375 146.326 76.3908 144.384C76.4607 143.848 76.8613 143.276 77.3997 143.229V143.229Z" fill="white"/>
<path d="M249.735 168.259C249.493 168.804 249.536 169.348 249.786 169.736C250.236 169.062 249.856 168.751 249.735 168.259Z" stroke="white" stroke-width="2.5" stroke-linejoin="round"/>
<path d="M52.0262 107.56C52.0262 107.56 50.7566 107.405 51.0417 108.519C51.4565 107.664 52.0005 107.612 52.0262 107.56Z" stroke="white" stroke-width="2.5" stroke-linejoin="round"/>
<path d="M51.3259 103.553C50.6265 103.579 49.7712 103.449 50.0563 104.563C50.471 103.708 51.3001 103.605 51.3259 103.553Z" stroke="white" stroke-width="2.5" stroke-linejoin="round"/>
<path d="M60.1028 119.398C60.1028 119.398 61.1912 119.32 60.9061 120.434C60.4914 119.579 60.129 119.45 60.1028 119.398Z" stroke="white" stroke-width="2.5" stroke-linejoin="round"/>
</svg>
