<svg width="300" height="300" viewBox="0 0 300 300" fill="none" xmlns="http://www.w3.org/2000/svg">
<rect width="300" height="300" fill="#003EBA"/>
<circle cx="150" cy="150" r="104" fill="white" fill-opacity="0.04"/>
<circle cx="149.5" cy="150.5" r="145.5" fill="white" fill-opacity="0.04"/>
<mask id="mask0_126_34" style="mask-type:alpha" maskUnits="userSpaceOnUse" x="61" y="61" width="178" height="178">
<circle cx="150" cy="150" r="89" fill="#3661F6"/>
</mask>
<g mask="url(#mask0_126_34)">
<circle cx="150" cy="150" r="89" fill="#3661F6"/>
<rect x="158" y="178" width="134" height="30" rx="15" fill="#55E864"/>
<rect x="-26" y="185" width="134" height="27" rx="13.5" fill="#55E864"/>
<rect x="-16" y="128" width="134" height="22" rx="11" fill="#55E864"/>
<rect x="162" y="90" width="134" height="25" rx="12.5" fill="#55E864"/>
<rect x="197" y="104" width="134" height="27" rx="13.5" fill="#55E864"/>
<rect x="192" y="76" width="78" height="27" rx="13.5" fill="white"/>
<rect x="25" y="119" width="78" height="17" rx="8.5" fill="white"/>
<rect x="187" y="170" width="78" height="27" rx="13.5" fill="white"/>
<rect x="86" y="178" width="62" height="11" rx="5.5" fill="white"/>
<rect x="90" y="173" width="44" height="11" rx="5.5" fill="white"/>
</g>
</svg>
