<svg width="300" height="300" viewBox="0 0 300 300" fill="none" xmlns="http://www.w3.org/2000/svg">
<rect width="300" height="300" fill="#003EBA"/>
<path d="M148.034 45.5369C148.498 44.1089 150.519 44.1089 150.983 45.5369L154.439 56.173C154.646 56.8117 155.241 57.2441 155.913 57.2441H167.096C168.598 57.2441 169.222 59.1655 168.007 60.048L158.96 66.6215C158.416 67.0162 158.189 67.7158 158.397 68.3545L161.853 78.9906C162.317 80.4186 160.682 81.6061 159.467 80.7235L150.42 74.15C149.876 73.7553 149.141 73.7553 148.598 74.15L139.55 80.7235C138.335 81.6061 136.701 80.4186 137.165 78.9906L140.621 68.3545C140.828 67.7158 140.601 67.0162 140.058 66.6215L131.01 60.048C129.795 59.1655 130.419 57.2441 131.921 57.2441H143.104C143.776 57.2441 144.371 56.8117 144.579 56.173L148.034 45.5369Z" fill="#FFB84F"/>
<path d="M148.034 215.537C148.498 214.109 150.519 214.109 150.983 215.537L154.439 226.173C154.646 226.812 155.241 227.244 155.913 227.244H167.096C168.598 227.244 169.222 229.165 168.007 230.048L158.96 236.622C158.416 237.016 158.189 237.716 158.397 238.354L161.853 248.991C162.317 250.419 160.682 251.606 159.467 250.724L150.42 244.15C149.876 243.755 149.141 243.755 148.598 244.15L139.55 250.724C138.335 251.606 136.701 250.419 137.165 248.991L140.621 238.354C140.828 237.716 140.601 237.016 140.058 236.622L131.01 230.048C129.795 229.165 130.419 227.244 131.921 227.244H143.104C143.776 227.244 144.371 226.812 144.579 226.173L148.034 215.537Z" fill="#FFB84F"/>
<path d="M63.0345 130.537C63.4985 129.109 65.5188 129.109 65.9828 130.537L69.4386 141.173C69.6461 141.812 70.2413 142.244 70.9128 142.244H82.0962C83.5978 142.244 84.2221 144.165 83.0073 145.048L73.9597 151.622C73.4164 152.016 73.1891 152.716 73.3966 153.354L76.8525 163.991C77.3165 165.419 75.6821 166.606 74.4673 165.724L65.4197 159.15C64.8764 158.755 64.1408 158.755 63.5976 159.15L54.5499 165.724C53.3352 166.606 51.7007 165.419 52.1647 163.991L55.6206 153.354C55.8281 152.716 55.6008 152.016 55.0575 151.622L46.0099 145.048C44.7952 144.165 45.4195 142.244 46.921 142.244H58.1045C58.776 142.244 59.3711 141.812 59.5786 141.173L63.0345 130.537Z" fill="#FFB84F"/>
<path d="M233.034 130.537C233.498 129.109 235.519 129.109 235.983 130.537L239.439 141.173C239.646 141.812 240.241 142.244 240.913 142.244H252.096C253.598 142.244 254.222 144.165 253.007 145.048L243.96 151.622C243.416 152.016 243.189 152.716 243.397 153.354L246.853 163.991C247.317 165.419 245.682 166.606 244.467 165.724L235.42 159.15C234.876 158.755 234.141 158.755 233.598 159.15L224.55 165.724C223.335 166.606 221.701 165.419 222.165 163.991L225.621 153.354C225.828 152.716 225.601 152.016 225.058 151.622L216.01 145.048C214.795 144.165 215.419 142.244 216.921 142.244H228.104C228.776 142.244 229.371 141.812 229.579 141.173L233.034 130.537Z" fill="#FFB84F"/>
<path d="M190.034 57.5369C190.498 56.1089 192.519 56.1089 192.983 57.5369L196.439 68.173C196.646 68.8117 197.241 69.2441 197.913 69.2441H209.096C210.598 69.2441 211.222 71.1655 210.007 72.048L200.96 78.6215C200.416 79.0162 200.189 79.7158 200.397 80.3545L203.853 90.9906C204.317 92.4186 202.682 93.6061 201.467 92.7235L192.42 86.15C191.876 85.7553 191.141 85.7553 190.598 86.15L181.55 92.7235C180.335 93.6061 178.701 92.4186 179.165 90.9906L182.621 80.3545C182.828 79.7158 182.601 79.0162 182.058 78.6215L173.01 72.048C171.795 71.1655 172.419 69.2441 173.921 69.2441H185.104C185.776 69.2441 186.371 68.8117 186.579 68.173L190.034 57.5369Z" fill="#FFB84F"/>
<path d="M106.034 57.5369C106.498 56.1089 108.519 56.1089 108.983 57.5369L112.439 68.173C112.646 68.8117 113.241 69.2441 113.913 69.2441H125.096C126.598 69.2441 127.222 71.1655 126.007 72.048L116.96 78.6215C116.416 79.0162 116.189 79.7158 116.397 80.3545L119.853 90.9906C120.317 92.4186 118.682 93.6061 117.467 92.7235L108.42 86.15C107.876 85.7553 107.141 85.7553 106.598 86.15L97.5499 92.7235C96.3352 93.6061 94.7007 92.4186 95.1647 90.9906L98.6206 80.3545C98.8281 79.7158 98.6008 79.0162 98.0575 78.6215L89.0099 72.048C87.7952 71.1655 88.4195 69.2441 89.921 69.2441H101.104C101.776 69.2441 102.371 68.8117 102.579 68.173L106.034 57.5369Z" fill="#FFB84F"/>
<path d="M190.034 203.537C190.498 202.109 192.519 202.109 192.983 203.537L196.439 214.173C196.646 214.812 197.241 215.244 197.913 215.244H209.096C210.598 215.244 211.222 217.165 210.007 218.048L200.96 224.622C200.416 225.016 200.189 225.716 200.397 226.354L203.853 236.991C204.317 238.419 202.682 239.606 201.467 238.724L192.42 232.15C191.876 231.755 191.141 231.755 190.598 232.15L181.55 238.724C180.335 239.606 178.701 238.419 179.165 236.991L182.621 226.354C182.828 225.716 182.601 225.016 182.058 224.622L173.01 218.048C171.795 217.165 172.419 215.244 173.921 215.244H185.104C185.776 215.244 186.371 214.812 186.579 214.173L190.034 203.537Z" fill="#FFB84F"/>
<path d="M107.034 203.537C107.498 202.109 109.519 202.109 109.983 203.537L113.439 214.173C113.646 214.812 114.241 215.244 114.913 215.244H126.096C127.598 215.244 128.222 217.165 127.007 218.048L117.96 224.622C117.416 225.016 117.189 225.716 117.397 226.354L120.853 236.991C121.317 238.419 119.682 239.606 118.467 238.724L109.42 232.15C108.876 231.755 108.141 231.755 107.598 232.15L98.5499 238.724C97.3352 239.606 95.7007 238.419 96.1647 236.991L99.6206 226.354C99.8281 225.716 99.6008 225.016 99.0575 224.622L90.0099 218.048C88.7952 217.165 89.4195 215.244 90.921 215.244H102.104C102.776 215.244 103.371 214.812 103.579 214.173L107.034 203.537Z" fill="#FFB84F"/>
<path d="M75.0345 172.537C75.4985 171.109 77.5188 171.109 77.9828 172.537L81.4386 183.173C81.6461 183.812 82.2413 184.244 82.9128 184.244H94.0962C95.5978 184.244 96.2221 186.165 95.0073 187.048L85.9597 193.622C85.4164 194.016 85.1891 194.716 85.3966 195.354L88.8525 205.991C89.3165 207.419 87.6821 208.606 86.4673 207.724L77.4197 201.15C76.8764 200.755 76.1408 200.755 75.5976 201.15L66.5499 207.724C65.3352 208.606 63.7007 207.419 64.1647 205.991L67.6206 195.354C67.8281 194.716 67.6008 194.016 67.0575 193.622L58.0099 187.048C56.7952 186.165 57.4195 184.244 58.921 184.244H70.1045C70.776 184.244 71.3711 183.812 71.5786 183.173L75.0345 172.537Z" fill="#FFB84F"/>
<path d="M221.034 172.537C221.498 171.109 223.519 171.109 223.983 172.537L227.439 183.173C227.646 183.812 228.241 184.244 228.913 184.244H240.096C241.598 184.244 242.222 186.165 241.007 187.048L231.96 193.622C231.416 194.016 231.189 194.716 231.397 195.354L234.853 205.991C235.317 207.419 233.682 208.606 232.467 207.724L223.42 201.15C222.876 200.755 222.141 200.755 221.598 201.15L212.55 207.724C211.335 208.606 209.701 207.419 210.165 205.991L213.621 195.354C213.828 194.716 213.601 194.016 213.058 193.622L204.01 187.048C202.795 186.165 203.419 184.244 204.921 184.244H216.104C216.776 184.244 217.371 183.812 217.579 183.173L221.034 172.537Z" fill="#FFB84F"/>
<path d="M75.0345 88.5369C75.4985 87.1089 77.5188 87.1089 77.9828 88.5369L81.4386 99.173C81.6461 99.8117 82.2413 100.244 82.9128 100.244H94.0962C95.5978 100.244 96.2221 102.165 95.0073 103.048L85.9597 109.622C85.4164 110.016 85.1891 110.716 85.3966 111.354L88.8525 121.991C89.3165 123.419 87.6821 124.606 86.4673 123.724L77.4197 117.15C76.8764 116.755 76.1408 116.755 75.5976 117.15L66.5499 123.724C65.3352 124.606 63.7007 123.419 64.1647 121.991L67.6206 111.354C67.8281 110.716 67.6008 110.016 67.0575 109.622L58.0099 103.048C56.7952 102.165 57.4195 100.244 58.921 100.244H70.1045C70.776 100.244 71.3711 99.8117 71.5786 99.173L75.0345 88.5369Z" fill="#FFB84F"/>
<path d="M221.034 88.5369C221.498 87.1089 223.519 87.1089 223.983 88.5369L227.439 99.173C227.646 99.8117 228.241 100.244 228.913 100.244H240.096C241.598 100.244 242.222 102.165 241.007 103.048L231.96 109.622C231.416 110.016 231.189 110.716 231.397 111.354L234.853 121.991C235.317 123.419 233.682 124.606 232.467 123.724L223.42 117.15C222.876 116.755 222.141 116.755 221.598 117.15L212.55 123.724C211.335 124.606 209.701 123.419 210.165 121.991L213.621 111.354C213.828 110.716 213.601 110.016 213.058 109.622L204.01 103.048C202.795 102.165 203.419 100.244 204.921 100.244H216.104C216.776 100.244 217.371 99.8117 217.579 99.173L221.034 88.5369Z" fill="#FFB84F"/>
</svg>
