<svg width="300" height="300" viewBox="0 0 300 300" fill="none" xmlns="http://www.w3.org/2000/svg">
<rect width="300" height="300" fill="#003EBA"/>
<path d="M146.655 49.7811C147.554 47.0172 151.464 47.0172 152.362 49.7812L154.113 55.1711C154.515 56.4072 155.667 57.2441 156.966 57.2441H162.634C165.54 57.2441 166.748 60.9629 164.397 62.6711L159.812 66.0023C158.761 66.7662 158.321 68.1203 158.722 69.3564L160.473 74.7463C161.372 77.5103 158.208 79.8087 155.857 78.1004L151.272 74.7693C150.221 74.0053 148.797 74.0053 147.745 74.7693L143.16 78.1004C140.809 79.8087 137.646 77.5103 138.544 74.7463L140.295 69.3564C140.697 68.1203 140.257 66.7662 139.205 66.0023L134.62 62.6711C132.269 60.9629 133.477 57.2441 136.384 57.2441H142.051C143.351 57.2441 144.503 56.4072 144.904 55.1711L146.655 49.7811Z" fill="#FFB84F"/>
<path d="M146.655 219.781C147.554 217.017 151.464 217.017 152.362 219.781L154.113 225.171C154.515 226.407 155.667 227.244 156.966 227.244H162.634C165.54 227.244 166.748 230.963 164.397 232.671L159.812 236.002C158.761 236.766 158.321 238.12 158.722 239.356L160.473 244.746C161.372 247.51 158.208 249.809 155.857 248.1L151.272 244.769C150.221 244.005 148.797 244.005 147.745 244.769L143.16 248.1C140.809 249.809 137.646 247.51 138.544 244.746L140.295 239.356C140.697 238.12 140.257 236.766 139.205 236.002L134.62 232.671C132.269 230.963 133.477 227.244 136.384 227.244H142.051C143.351 227.244 144.503 226.407 144.904 225.171L146.655 219.781Z" fill="#FFB84F"/>
<path d="M61.6555 134.781C62.5535 132.017 66.4637 132.017 67.3618 134.781L69.1131 140.171C69.5147 141.407 70.6666 142.244 71.9663 142.244H77.6336C80.5398 142.244 81.7481 145.963 79.397 147.671L74.812 151.002C73.7605 151.766 73.3205 153.12 73.7222 154.356L75.4735 159.746C76.3715 162.51 73.2081 164.809 70.8569 163.1L66.272 159.769C65.2205 159.005 63.7967 159.005 62.7453 159.769L58.1603 163.1C55.8092 164.809 52.6457 162.51 53.5438 159.746L55.2951 154.356C55.6967 153.12 55.2567 151.766 54.2053 151.002L49.6203 147.671C47.2691 145.963 48.4775 142.244 51.3836 142.244H57.051C58.3507 142.244 59.5025 141.407 59.9041 140.171L61.6555 134.781Z" fill="#FFB84F"/>
<path d="M231.655 134.781C232.554 132.017 236.464 132.017 237.362 134.781L239.113 140.171C239.515 141.407 240.667 142.244 241.966 142.244H247.634C250.54 142.244 251.748 145.963 249.397 147.671L244.812 151.002C243.761 151.766 243.321 153.12 243.722 154.356L245.473 159.746C246.372 162.51 243.208 164.809 240.857 163.1L236.272 159.769C235.221 159.005 233.797 159.005 232.745 159.769L228.16 163.1C225.809 164.809 222.646 162.51 223.544 159.746L225.295 154.356C225.697 153.12 225.257 151.766 224.205 151.002L219.62 147.671C217.269 145.963 218.477 142.244 221.384 142.244H227.051C228.351 142.244 229.503 141.407 229.904 140.171L231.655 134.781Z" fill="#FFB84F"/>
<path d="M188.655 61.7811C189.554 59.0172 193.464 59.0172 194.362 61.7812L196.113 67.1711C196.515 68.4072 197.667 69.2441 198.966 69.2441H204.634C207.54 69.2441 208.748 72.9629 206.397 74.6711L201.812 78.0023C200.761 78.7662 200.321 80.1203 200.722 81.3564L202.473 86.7463C203.372 89.5103 200.208 91.8087 197.857 90.1004L193.272 86.7693C192.221 86.0053 190.797 86.0053 189.745 86.7693L185.16 90.1004C182.809 91.8087 179.646 89.5103 180.544 86.7463L182.295 81.3564C182.697 80.1203 182.257 78.7662 181.205 78.0023L176.62 74.6711C174.269 72.9629 175.477 69.2441 178.384 69.2441H184.051C185.351 69.2441 186.503 68.4072 186.904 67.1711L188.655 61.7811Z" fill="#FFB84F"/>
<path d="M104.655 61.7811C105.554 59.0172 109.464 59.0172 110.362 61.7812L112.113 67.1711C112.515 68.4072 113.667 69.2441 114.966 69.2441H120.634C123.54 69.2441 124.748 72.9629 122.397 74.6711L117.812 78.0023C116.761 78.7662 116.321 80.1203 116.722 81.3564L118.473 86.7463C119.372 89.5103 116.208 91.8087 113.857 90.1004L109.272 86.7693C108.221 86.0053 106.797 86.0053 105.745 86.7693L101.16 90.1004C98.8092 91.8087 95.6457 89.5103 96.5438 86.7463L98.2951 81.3564C98.6967 80.1203 98.2567 78.7662 97.2053 78.0023L92.6203 74.6711C90.2691 72.9629 91.4775 69.2441 94.3836 69.2441H100.051C101.351 69.2441 102.503 68.4072 102.904 67.1711L104.655 61.7811Z" fill="#FFB84F"/>
<path d="M188.655 207.781C189.554 205.017 193.464 205.017 194.362 207.781L196.113 213.171C196.515 214.407 197.667 215.244 198.966 215.244H204.634C207.54 215.244 208.748 218.963 206.397 220.671L201.812 224.002C200.761 224.766 200.321 226.12 200.722 227.356L202.473 232.746C203.372 235.51 200.208 237.809 197.857 236.1L193.272 232.769C192.221 232.005 190.797 232.005 189.745 232.769L185.16 236.1C182.809 237.809 179.646 235.51 180.544 232.746L182.295 227.356C182.697 226.12 182.257 224.766 181.205 224.002L176.62 220.671C174.269 218.963 175.477 215.244 178.384 215.244H184.051C185.351 215.244 186.503 214.407 186.904 213.171L188.655 207.781Z" fill="#FFB84F"/>
<path d="M105.655 207.781C106.554 205.017 110.464 205.017 111.362 207.781L113.113 213.171C113.515 214.407 114.667 215.244 115.966 215.244H121.634C124.54 215.244 125.748 218.963 123.397 220.671L118.812 224.002C117.761 224.766 117.321 226.12 117.722 227.356L119.473 232.746C120.372 235.51 117.208 237.809 114.857 236.1L110.272 232.769C109.221 232.005 107.797 232.005 106.745 232.769L102.16 236.1C99.8092 237.809 96.6457 235.51 97.5438 232.746L99.2951 227.356C99.6967 226.12 99.2567 224.766 98.2053 224.002L93.6203 220.671C91.2691 218.963 92.4775 215.244 95.3836 215.244H101.051C102.351 215.244 103.503 214.407 103.904 213.171L105.655 207.781Z" fill="#FFB84F"/>
<path d="M73.6555 176.781C74.5535 174.017 78.4637 174.017 79.3618 176.781L81.1131 182.171C81.5147 183.407 82.6666 184.244 83.9663 184.244H89.6336C92.5398 184.244 93.7481 187.963 91.397 189.671L86.812 193.002C85.7605 193.766 85.3205 195.12 85.7222 196.356L87.4735 201.746C88.3715 204.51 85.2081 206.809 82.8569 205.1L78.272 201.769C77.2205 201.005 75.7967 201.005 74.7453 201.769L70.1603 205.1C67.8092 206.809 64.6457 204.51 65.5438 201.746L67.2951 196.356C67.6967 195.12 67.2567 193.766 66.2053 193.002L61.6203 189.671C59.2691 187.963 60.4775 184.244 63.3836 184.244H69.051C70.3507 184.244 71.5025 183.407 71.9041 182.171L73.6555 176.781Z" fill="#FFB84F"/>
<path d="M219.655 176.781C220.554 174.017 224.464 174.017 225.362 176.781L227.113 182.171C227.515 183.407 228.667 184.244 229.966 184.244H235.634C238.54 184.244 239.748 187.963 237.397 189.671L232.812 193.002C231.761 193.766 231.321 195.12 231.722 196.356L233.473 201.746C234.372 204.51 231.208 206.809 228.857 205.1L224.272 201.769C223.221 201.005 221.797 201.005 220.745 201.769L216.16 205.1C213.809 206.809 210.646 204.51 211.544 201.746L213.295 196.356C213.697 195.12 213.257 193.766 212.205 193.002L207.62 189.671C205.269 187.963 206.477 184.244 209.384 184.244H215.051C216.351 184.244 217.503 183.407 217.904 182.171L219.655 176.781Z" fill="#FFB84F"/>
<path d="M73.6555 92.7811C74.5535 90.0172 78.4637 90.0172 79.3618 92.7812L81.1131 98.1711C81.5147 99.4072 82.6666 100.244 83.9663 100.244H89.6336C92.5398 100.244 93.7481 103.963 91.397 105.671L86.812 109.002C85.7605 109.766 85.3205 111.12 85.7222 112.356L87.4735 117.746C88.3715 120.51 85.2081 122.809 82.8569 121.1L78.272 117.769C77.2205 117.005 75.7967 117.005 74.7453 117.769L70.1603 121.1C67.8092 122.809 64.6457 120.51 65.5438 117.746L67.2951 112.356C67.6967 111.12 67.2567 109.766 66.2053 109.002L61.6203 105.671C59.2691 103.963 60.4775 100.244 63.3836 100.244H69.051C70.3507 100.244 71.5025 99.4072 71.9041 98.1711L73.6555 92.7811Z" fill="#FFB84F"/>
<path d="M219.655 92.7811C220.554 90.0172 224.464 90.0172 225.362 92.7812L227.113 98.1711C227.515 99.4072 228.667 100.244 229.966 100.244H235.634C238.54 100.244 239.748 103.963 237.397 105.671L232.812 109.002C231.761 109.766 231.321 111.12 231.722 112.356L233.473 117.746C234.372 120.51 231.208 122.809 228.857 121.1L224.272 117.769C223.221 117.005 221.797 117.005 220.745 117.769L216.16 121.1C213.809 122.809 210.646 120.51 211.544 117.746L213.295 112.356C213.697 111.12 213.257 109.766 212.205 109.002L207.62 105.671C205.269 103.963 206.477 100.244 209.384 100.244H215.051C216.351 100.244 217.503 99.4072 217.904 98.1711L219.655 92.7811Z" fill="#FFB84F"/>
</svg>
