<svg width="300" height="300" viewBox="0 0 300 300" fill="none" xmlns="http://www.w3.org/2000/svg">
<g clip-path="url(#clip0_113_567)">
<rect width="300" height="300" fill="#003EBA"/>
<rect x="300" y="300" width="300" height="300" transform="rotate(-180 300 300)" fill="#003EBA"/>
<path d="M147.147 57.7811C148.045 55.0172 151.955 55.0172 152.853 57.7812L154.604 63.1711C155.006 64.4072 156.158 65.2441 157.457 65.2441H163.125C166.031 65.2441 167.239 68.9629 164.888 70.6711L160.303 74.0023C159.252 74.7662 158.812 76.1203 159.213 77.3564L160.965 82.7463C161.863 85.5103 158.699 87.8087 156.348 86.1004L151.763 82.7693C150.712 82.0053 149.288 82.0053 148.236 82.7693L143.652 86.1004C141.3 87.8087 138.137 85.5103 139.035 82.7463L140.786 77.3564C141.188 76.1203 140.748 74.7662 139.696 74.0023L135.111 70.6711C132.76 68.9629 133.969 65.2441 136.875 65.2441H142.542C143.842 65.2441 144.994 64.4072 145.395 63.1711L147.147 57.7811Z" fill="#FFB84F"/>
<path d="M147.147 212.764C148.045 210 151.955 210 152.853 212.764L154.604 218.154C155.006 219.39 156.158 220.226 157.457 220.226H163.125C166.031 220.226 167.239 223.945 164.888 225.654L160.303 228.985C159.252 229.749 158.812 231.103 159.213 232.339L160.965 237.729C161.863 240.493 158.699 242.791 156.348 241.083L151.763 237.752C150.712 236.988 149.288 236.988 148.236 237.752L143.652 241.083C141.3 242.791 138.137 240.493 139.035 237.729L140.786 232.339C141.188 231.103 140.748 229.749 139.696 228.985L135.111 225.654C132.76 223.945 133.969 220.226 136.875 220.226H142.542C143.842 220.226 144.994 219.39 145.395 218.154L147.147 212.764Z" fill="#FFB84F"/>
<path d="M242.219 147.147C244.983 148.045 244.983 151.955 242.219 152.853L236.829 154.604C235.593 155.006 234.756 156.158 234.756 157.457L234.756 163.125C234.756 166.031 231.037 167.239 229.329 164.888L225.998 160.303C225.234 159.252 223.88 158.812 222.644 159.213L217.254 160.965C214.49 161.863 212.191 158.699 213.9 156.348L217.231 151.763C217.995 150.712 217.995 149.288 217.231 148.236L213.9 143.652C212.191 141.3 214.49 138.137 217.254 139.035L222.644 140.786C223.88 141.188 225.234 140.748 225.998 139.696L229.329 135.111C231.037 132.76 234.756 133.969 234.756 136.875L234.756 142.542C234.756 143.842 235.593 144.994 236.829 145.395L242.219 147.147Z" fill="#FFB84F"/>
<path d="M87.2359 147.147C89.9999 148.045 89.9999 151.955 87.2359 152.853L81.846 154.604C80.6099 155.006 79.773 156.158 79.773 157.457L79.773 163.125C79.773 166.031 76.0542 167.239 74.346 164.888L71.0148 160.303C70.2509 159.252 68.8968 158.812 67.6607 159.213L62.2707 160.965C59.5068 161.863 57.2084 158.699 58.9166 156.348L62.2478 151.763C63.0118 150.712 63.0118 149.288 62.2478 148.236L58.9166 143.652C57.2084 141.3 59.5068 138.137 62.2707 139.035L67.6607 140.786C68.8968 141.188 70.2509 140.748 71.0148 139.696L74.346 135.111C76.0542 132.76 79.773 133.969 79.773 136.875L79.773 142.542C79.773 143.842 80.6099 144.994 81.846 145.395L87.2359 147.147Z" fill="#FFB84F"/>
<path d="M213.191 82.7738C215.781 81.4544 218.546 84.2194 217.226 86.8088L214.653 91.8584C214.063 93.0165 214.286 94.4227 215.205 95.3417L219.213 99.3491C221.267 101.404 219.492 104.888 216.622 104.434L211.024 103.547C209.741 103.344 208.472 103.99 207.882 105.148L205.309 110.198C203.99 112.787 200.128 112.175 199.673 109.305L198.786 103.707C198.583 102.424 197.576 101.417 196.293 101.214L190.695 100.327C187.825 99.8725 187.213 96.0104 189.802 94.691L194.852 92.1181C196.01 91.5281 196.656 90.2595 196.453 88.9758L195.567 83.3782C195.112 80.5078 198.596 78.7326 200.651 80.7876L204.658 84.795C205.577 85.714 206.984 85.9368 208.142 85.3467L213.191 82.7738Z" fill="#FFB84F"/>
<path d="M103.601 192.364C106.191 191.044 108.956 193.809 107.636 196.399L105.064 201.448C104.474 202.606 104.696 204.013 105.615 204.932L109.623 208.939C111.678 210.994 109.902 214.478 107.032 214.023L101.434 213.137C100.151 212.933 98.8822 213.58 98.2922 214.738L95.7192 219.788C94.3999 222.377 90.5378 221.765 90.0832 218.895L89.1966 213.297C88.9933 212.014 87.9865 211.007 86.7028 210.804L81.1053 209.917C78.2349 209.462 77.6232 205.6 80.2126 204.281L85.2622 201.708C86.4202 201.118 87.0666 199.849 86.8633 198.566L85.9768 192.968C85.5221 190.098 89.0062 188.322 91.0611 190.377L95.0686 194.385C95.9876 195.304 97.3938 195.527 98.5518 194.937L103.601 192.364Z" fill="#FFB84F"/>
<path d="M217.226 213.191C218.546 215.781 215.781 218.546 213.191 217.226L208.142 214.653C206.984 214.063 205.577 214.286 204.658 215.205L200.651 219.213C198.596 221.267 195.112 219.492 195.566 216.622L196.453 211.024C196.656 209.741 196.01 208.472 194.852 207.882L189.802 205.309C187.213 203.99 187.825 200.128 190.695 199.673L196.293 198.786C197.576 198.583 198.583 197.576 198.786 196.293L199.673 190.695C200.128 187.825 203.99 187.213 205.309 189.802L207.882 194.852C208.472 196.01 209.741 196.656 211.024 196.453L216.622 195.567C219.492 195.112 221.267 198.596 219.212 200.651L215.205 204.658C214.286 205.577 214.063 206.984 214.653 208.142L217.226 213.191Z" fill="#FFB84F"/>
<path d="M107.637 103.601C108.956 106.191 106.191 108.956 103.602 107.636L98.5522 105.064C97.3942 104.474 95.9879 104.696 95.0689 105.615L91.0615 109.623C89.0065 111.678 85.5225 109.902 85.9771 107.032L86.8637 101.434C87.067 100.151 86.4206 98.8822 85.2626 98.2922L80.213 95.7192C77.6235 94.3999 78.2352 90.5378 81.1056 90.0832L86.7032 89.1966C87.9869 88.9933 88.9936 87.9865 89.197 86.7028L90.0835 81.1053C90.5381 78.2349 94.4002 77.6232 95.7196 80.2126L98.2925 85.2622C98.8826 86.4202 100.151 87.0666 101.435 86.8633L107.032 85.9768C109.903 85.5221 111.678 89.0062 109.623 91.0611L105.616 95.0686C104.697 95.9876 104.474 97.3938 105.064 98.5518L107.637 103.601Z" fill="#FFB84F"/>
</g>
<defs>
<clipPath id="clip0_113_567">
<rect width="300" height="300" fill="white"/>
</clipPath>
</defs>
</svg>
