<svg width="300" height="300" viewBox="0 0 300 300" fill="none" xmlns="http://www.w3.org/2000/svg">
<g clip-path="url(#clip0_113:567)">
<rect width="300" height="300" fill="#003EBA"/>
<rect x="300" y="300" width="300" height="300" transform="rotate(-180 300 300)" fill="#003EBA"/>
<path d="M148.526 53.5369C148.99 52.1089 151.01 52.1089 151.474 53.5369L154.93 64.173C155.137 64.8117 155.732 65.2441 156.404 65.2441H167.587C169.089 65.2441 169.713 67.1655 168.499 68.048L159.451 74.6215C158.908 75.0162 158.68 75.7158 158.888 76.3545L162.344 86.9906C162.808 88.4186 161.173 89.6061 159.959 88.7235L150.911 82.15C150.368 81.7553 149.632 81.7553 149.089 82.15L140.041 88.7235C138.826 89.6061 137.192 88.4186 137.656 86.9906L141.112 76.3545C141.319 75.7158 141.092 75.0162 140.549 74.6215L131.501 68.048C130.286 67.1655 130.911 65.2441 132.412 65.2441H143.596C144.267 65.2441 144.862 64.8117 145.07 64.173L148.526 53.5369Z" fill="#FFB84F"/>
<path d="M148.526 208.519C148.99 207.091 151.01 207.091 151.474 208.519L154.93 219.155C155.137 219.794 155.732 220.226 156.404 220.226H167.587C169.089 220.226 169.713 222.148 168.499 223.03L159.451 229.604C158.908 229.999 158.68 230.698 158.888 231.337L162.344 241.973C162.808 243.401 161.173 244.589 159.959 243.706L150.911 237.132C150.368 236.738 149.632 236.738 149.089 237.132L140.041 243.706C138.826 244.589 137.192 243.401 137.656 241.973L141.112 231.337C141.319 230.698 141.092 229.999 140.549 229.604L131.501 223.03C130.286 222.148 130.911 220.226 132.412 220.226H143.596C144.267 220.226 144.862 219.794 145.07 219.155L148.526 208.519Z" fill="#FFB84F"/>
<path d="M246.463 148.526C247.891 148.99 247.891 151.01 246.463 151.474L235.827 154.93C235.188 155.137 234.756 155.732 234.756 156.404L234.756 167.587C234.756 169.089 232.835 169.713 231.952 168.499L225.378 159.451C224.984 158.908 224.284 158.68 223.646 158.888L213.009 162.344C211.581 162.808 210.394 161.173 211.276 159.959L217.85 150.911C218.245 150.368 218.245 149.632 217.85 149.089L211.276 140.041C210.394 138.826 211.581 137.192 213.009 137.656L223.646 141.112C224.284 141.319 224.984 141.092 225.378 140.549L231.952 131.501C232.835 130.286 234.756 130.911 234.756 132.412L234.756 143.596C234.756 144.267 235.188 144.862 235.827 145.07L246.463 148.526Z" fill="#FFB84F"/>
<path d="M91.4802 148.526C92.9082 148.99 92.9082 151.01 91.4802 151.474L80.8441 154.93C80.2054 155.137 79.773 155.732 79.773 156.404L79.773 167.587C79.773 169.089 77.8516 169.713 76.9691 168.499L70.3956 159.451C70.0009 158.908 69.3013 158.68 68.6626 158.888L58.0265 162.344C56.5985 162.808 55.411 161.173 56.2936 159.959L62.867 150.911C63.2617 150.368 63.2617 149.632 62.867 149.089L56.2936 140.041C55.411 138.826 56.5985 137.192 58.0265 137.656L68.6626 141.112C69.3013 141.319 70.0009 141.092 70.3956 140.549L76.9691 131.501C77.8516 130.286 79.773 130.911 79.773 132.412L79.773 143.596C79.773 144.267 80.2054 144.862 80.8441 145.07L91.4802 148.526Z" fill="#FFB84F"/>
<path d="M217.168 80.7478C218.505 80.0661 219.934 81.4947 219.252 82.8326L214.175 92.7971C213.87 93.3954 213.985 94.122 214.46 94.5968L222.368 102.505C223.43 103.566 222.513 105.367 221.03 105.132L209.984 103.382C209.321 103.277 208.665 103.611 208.36 104.209L203.283 114.174C202.601 115.512 200.606 115.196 200.371 113.713L198.622 102.667C198.517 102.004 197.996 101.484 197.333 101.378L186.287 99.629C184.804 99.3941 184.488 97.3987 185.826 96.717L195.791 91.6398C196.389 91.335 196.723 90.6795 196.618 90.0163L194.868 78.9705C194.634 77.4875 196.434 76.5703 197.495 77.632L205.403 85.54C205.878 86.0148 206.605 86.1298 207.203 85.825L217.168 80.7478Z" fill="#FFB84F"/>
<path d="M107.578 190.338C108.916 189.656 110.344 191.085 109.662 192.422L104.585 202.387C104.28 202.985 104.395 203.712 104.87 204.187L112.778 212.095C113.84 213.156 112.923 214.956 111.44 214.721L100.394 212.972C99.7307 212.867 99.0753 213.201 98.7704 213.799L93.6932 223.764C93.0116 225.102 91.0162 224.786 90.7813 223.303L89.0318 212.257C88.9267 211.594 88.4066 211.073 87.7433 210.968L76.6976 209.219C75.2145 208.984 74.8985 206.989 76.2364 206.307L86.2009 201.23C86.7992 200.925 87.1332 200.269 87.0281 199.606L85.2786 188.56C85.0438 187.077 86.8438 186.16 87.9056 187.222L95.8135 195.13C96.2883 195.605 97.0149 195.72 97.6132 195.415L107.578 190.338Z" fill="#FFB84F"/>
<path d="M219.252 217.168C219.934 218.505 218.505 219.934 217.167 219.252L207.203 214.175C206.605 213.87 205.878 213.985 205.403 214.46L197.495 222.368C196.434 223.43 194.633 222.513 194.868 221.03L196.618 209.984C196.723 209.321 196.389 208.665 195.791 208.36L185.826 203.283C184.488 202.601 184.804 200.606 186.287 200.371L197.333 198.622C197.996 198.517 198.516 197.996 198.622 197.333L200.371 186.287C200.606 184.804 202.601 184.488 203.283 185.826L208.36 195.791C208.665 196.389 209.32 196.723 209.984 196.618L221.029 194.868C222.512 194.634 223.43 196.434 222.368 197.495L214.46 205.403C213.985 205.878 213.87 206.605 214.175 207.203L219.252 217.168Z" fill="#FFB84F"/>
<path d="M109.663 107.578C110.345 108.916 108.916 110.344 107.578 109.662L97.6136 104.585C97.0152 104.28 96.2887 104.395 95.8139 104.87L87.9059 112.778C86.8442 113.84 85.0441 112.923 85.279 111.44L87.0285 100.394C87.1335 99.7307 86.7996 99.0753 86.2013 98.7704L76.2367 93.6932C74.8989 93.0116 75.2149 91.0162 76.6979 90.7813L87.7437 89.0318C88.4069 88.9267 88.9271 88.4066 89.0322 87.7433L90.7816 76.6976C91.0165 75.2145 93.0119 74.8985 93.6936 76.2364L98.7708 86.2009C99.0757 86.7992 99.7311 87.1332 100.394 87.0281L111.44 85.2786C112.923 85.0438 113.84 86.8438 112.779 87.9056L104.871 95.8135C104.396 96.2883 104.281 97.0149 104.586 97.6132L109.663 107.578Z" fill="#FFB84F"/>
</g>
<defs>
<clipPath id="clip0_113:567">
<rect width="300" height="300" fill="white"/>
</clipPath>
</defs>
</svg>
