<svg width="300" height="300" viewBox="0 0 300 300" fill="none" xmlns="http://www.w3.org/2000/svg">
<rect width="300" height="300" fill="#003EBA"/>
<path d="M147.147 42.7811C148.045 40.0172 151.955 40.0172 152.853 42.7812L153.878 45.9345C154.279 47.1706 155.431 48.0075 156.731 48.0075H160.046C162.953 48.0075 164.161 51.7263 161.81 53.4345L159.127 55.3835C158.076 56.1474 157.636 57.5015 158.038 58.7376L159.062 61.891C159.96 64.6549 156.797 66.9533 154.446 65.2451L151.763 63.2961C150.712 62.5322 149.288 62.5322 148.237 63.2961L145.554 65.2451C143.203 66.9533 140.039 64.6549 140.938 61.891L141.962 58.7376C142.364 57.5015 141.924 56.1474 140.872 55.3835L138.19 53.4345C135.839 51.7263 137.047 48.0075 139.953 48.0075H143.269C144.569 48.0075 145.72 47.1706 146.122 45.9345L147.147 42.7811Z" fill="#FFB84F"/>
<path d="M147.147 42.7811C148.045 40.0172 151.955 40.0172 152.853 42.7812L153.878 45.9345C154.279 47.1706 155.431 48.0075 156.731 48.0075H160.046C162.953 48.0075 164.161 51.7263 161.81 53.4345L159.127 55.3835C158.076 56.1474 157.636 57.5015 158.038 58.7376L159.062 61.891C159.96 64.6549 156.797 66.9533 154.446 65.2451L151.763 63.2961C150.712 62.5322 149.288 62.5322 148.237 63.2961L145.554 65.2451C143.203 66.9533 140.039 64.6549 140.938 61.891L141.962 58.7376C142.364 57.5015 141.924 56.1474 140.872 55.3835L138.19 53.4345C135.839 51.7263 137.047 48.0075 139.953 48.0075H143.269C144.569 48.0075 145.72 47.1706 146.122 45.9345L147.147 42.7811Z" stroke="#FFB84F"/>
<path d="M147.147 234.237C148.045 231.473 151.955 231.473 152.853 234.237L153.878 237.391C154.279 238.627 155.431 239.464 156.731 239.464H160.046C162.953 239.464 164.161 243.182 161.81 244.891L159.127 246.84C158.076 247.603 157.636 248.958 158.038 250.194L159.062 253.347C159.96 256.111 156.797 258.409 154.446 256.701L151.763 254.752C150.712 253.988 149.288 253.988 148.237 254.752L145.554 256.701C143.203 258.409 140.039 256.111 140.938 253.347L141.962 250.194C142.364 248.958 141.924 247.603 140.872 246.84L138.19 244.891C135.839 243.182 137.047 239.464 139.953 239.464H143.269C144.569 239.464 145.72 238.627 146.122 237.391L147.147 234.237Z" fill="#FFB84F"/>
<path d="M147.147 234.237C148.045 231.473 151.955 231.473 152.853 234.237L153.878 237.391C154.279 238.627 155.431 239.464 156.731 239.464H160.046C162.953 239.464 164.161 243.182 161.81 244.891L159.127 246.84C158.076 247.603 157.636 248.958 158.038 250.194L159.062 253.347C159.96 256.111 156.797 258.409 154.446 256.701L151.763 254.752C150.712 253.988 149.288 253.988 148.237 254.752L145.554 256.701C143.203 258.409 140.039 256.111 140.938 253.347L141.962 250.194C142.364 248.958 141.924 247.603 140.872 246.84L138.19 244.891C135.839 243.182 137.047 239.464 139.953 239.464H143.269C144.569 239.464 145.72 238.627 146.122 237.391L147.147 234.237Z" stroke="#FFB84F"/>
<path d="M147.147 42.7811C148.045 40.0172 151.955 40.0172 152.853 42.7812L153.878 45.9345C154.279 47.1706 155.431 48.0075 156.731 48.0075H160.046C162.953 48.0075 164.161 51.7263 161.81 53.4345L159.127 55.3835C158.076 56.1474 157.636 57.5015 158.038 58.7376L159.062 61.891C159.96 64.6549 156.797 66.9533 154.446 65.2451L151.763 63.2961C150.712 62.5322 149.288 62.5322 148.237 63.2961L145.554 65.2451C143.203 66.9533 140.039 64.6549 140.938 61.891L141.962 58.7376C142.364 57.5015 141.924 56.1474 140.872 55.3835L138.19 53.4345C135.839 51.7263 137.047 48.0075 139.953 48.0075H143.269C144.569 48.0075 145.72 47.1706 146.122 45.9345L147.147 42.7811Z" fill="#FFB84F"/>
<path d="M147.147 42.7811C148.045 40.0172 151.955 40.0172 152.853 42.7812L153.878 45.9345C154.279 47.1706 155.431 48.0075 156.731 48.0075H160.046C162.953 48.0075 164.161 51.7263 161.81 53.4345L159.127 55.3835C158.076 56.1474 157.636 57.5015 158.038 58.7376L159.062 61.891C159.96 64.6549 156.797 66.9533 154.446 65.2451L151.763 63.2961C150.712 62.5322 149.288 62.5322 148.237 63.2961L145.554 65.2451C143.203 66.9533 140.039 64.6549 140.938 61.891L141.962 58.7376C142.364 57.5015 141.924 56.1474 140.872 55.3835L138.19 53.4345C135.839 51.7263 137.047 48.0075 139.953 48.0075H143.269C144.569 48.0075 145.72 47.1706 146.122 45.9345L147.147 42.7811Z" stroke="#FFB84F"/>
<path d="M51.4187 138.51C52.3167 135.746 56.227 135.746 57.125 138.51L58.1496 141.663C58.5512 142.899 59.7031 143.736 61.0028 143.736H64.3185C67.2246 143.736 68.4329 147.455 66.0818 149.163L63.3994 151.112C62.3479 151.876 61.9079 153.23 62.3096 154.466L63.3342 157.619C64.2322 160.383 61.0688 162.682 58.7176 160.974L56.0352 159.025C54.9837 158.261 53.5599 158.261 52.5085 159.025L49.826 160.974C47.4749 162.682 44.3115 160.383 45.2095 157.619L46.2341 154.466C46.6357 153.23 46.1958 151.876 45.1443 151.112L42.4619 149.163C40.1107 147.455 41.3191 143.736 44.2252 143.736H47.5409C48.8406 143.736 49.9924 142.899 50.3941 141.663L51.4187 138.51Z" fill="#FFB84F"/>
<path d="M51.4187 138.51C52.3167 135.746 56.227 135.746 57.125 138.51L58.1496 141.663C58.5512 142.899 59.7031 143.736 61.0028 143.736H64.3185C67.2246 143.736 68.4329 147.455 66.0818 149.163L63.3994 151.112C62.3479 151.876 61.9079 153.23 62.3096 154.466L63.3342 157.619C64.2322 160.383 61.0688 162.682 58.7176 160.974L56.0352 159.025C54.9837 158.261 53.5599 158.261 52.5085 159.025L49.826 160.974C47.4749 162.682 44.3115 160.383 45.2095 157.619L46.2341 154.466C46.6357 153.23 46.1958 151.876 45.1443 151.112L42.4619 149.163C40.1107 147.455 41.3191 143.736 44.2252 143.736H47.5409C48.8406 143.736 49.9924 142.899 50.3941 141.663L51.4187 138.51Z" stroke="#FFB84F"/>
<path d="M242.875 138.51C243.773 135.746 247.683 135.746 248.581 138.51L249.606 141.663C250.007 142.899 251.159 143.736 252.459 143.736H255.775C258.681 143.736 259.889 147.455 257.538 149.163L254.855 151.112C253.804 151.876 253.364 153.23 253.766 154.466L254.79 157.619C255.688 160.383 252.525 162.682 250.174 160.974L247.491 159.025C246.44 158.261 245.016 158.261 243.965 159.025L241.282 160.974C238.931 162.682 235.768 160.383 236.666 157.619L237.69 154.466C238.092 153.23 237.652 151.876 236.6 151.112L233.918 149.163C231.567 147.455 232.775 143.736 235.681 143.736H238.997C240.297 143.736 241.449 142.899 241.85 141.663L242.875 138.51Z" fill="#FFB84F"/>
<path d="M242.875 138.51C243.773 135.746 247.683 135.746 248.581 138.51L249.606 141.663C250.007 142.899 251.159 143.736 252.459 143.736H255.775C258.681 143.736 259.889 147.455 257.538 149.163L254.855 151.112C253.804 151.876 253.364 153.23 253.766 154.466L254.79 157.619C255.688 160.383 252.525 162.682 250.174 160.974L247.491 159.025C246.44 158.261 245.016 158.261 243.965 159.025L241.282 160.974C238.931 162.682 235.768 160.383 236.666 157.619L237.69 154.466C238.092 153.23 237.652 151.876 236.6 151.112L233.918 149.163C231.567 147.455 232.775 143.736 235.681 143.736H238.997C240.297 143.736 241.449 142.899 241.85 141.663L242.875 138.51Z" stroke="#FFB84F"/>
<path d="M99.8459 55.1698C100.744 52.4059 104.654 52.4059 105.552 55.1698L106.577 58.3232C106.978 59.5593 108.13 60.3962 109.43 60.3962H112.746C115.652 60.3962 116.86 64.115 114.509 65.8232L111.827 67.7721C110.775 68.5361 110.335 69.8902 110.737 71.1262L111.761 74.2796C112.659 77.0436 109.496 79.3419 107.145 77.6337L104.462 75.6848C103.411 74.9209 101.987 74.9209 100.936 75.6848L98.2533 77.6337C95.9022 79.3419 92.7387 77.0436 93.6368 74.2796L94.6614 71.1262C95.063 69.8902 94.623 68.5361 93.5716 67.7721L90.8891 65.8232C88.538 64.115 89.7463 60.3962 92.6525 60.3962H95.9681C97.2678 60.3962 98.4197 59.5593 98.8213 58.3232L99.8459 55.1698Z" fill="#FFB84F"/>
<path d="M99.8459 55.1698C100.744 52.4059 104.654 52.4059 105.552 55.1698L106.577 58.3232C106.978 59.5593 108.13 60.3962 109.43 60.3962H112.746C115.652 60.3962 116.86 64.115 114.509 65.8232L111.827 67.7721C110.775 68.5361 110.335 69.8902 110.737 71.1262L111.761 74.2796C112.659 77.0436 109.496 79.3419 107.145 77.6337L104.462 75.6848C103.411 74.9209 101.987 74.9209 100.936 75.6848L98.2533 77.6337C95.9022 79.3419 92.7387 77.0436 93.6368 74.2796L94.6614 71.1262C95.063 69.8902 94.623 68.5361 93.5716 67.7721L90.8891 65.8232C88.538 64.115 89.7463 60.3962 92.6525 60.3962H95.9681C97.2678 60.3962 98.4197 59.5593 98.8213 58.3232L99.8459 55.1698Z" stroke="#FFB84F"/>
<path d="M99.8459 219.597C100.744 216.833 104.654 216.833 105.552 219.597L106.577 222.75C106.978 223.986 108.13 224.823 109.43 224.823H112.746C115.652 224.823 116.86 228.542 114.509 230.25L111.827 232.199C110.775 232.963 110.335 234.317 110.737 235.553L111.761 238.706C112.659 241.47 109.496 243.769 107.145 242.06L104.462 240.112C103.411 239.348 101.987 239.348 100.936 240.112L98.2533 242.06C95.9022 243.769 92.7387 241.47 93.6368 238.706L94.6614 235.553C95.063 234.317 94.623 232.963 93.5716 232.199L90.8891 230.25C88.538 228.542 89.7463 224.823 92.6525 224.823H95.9681C97.2678 224.823 98.4197 223.986 98.8213 222.75L99.8459 219.597Z" fill="#FFB84F"/>
<path d="M99.8459 219.597C100.744 216.833 104.654 216.833 105.552 219.597L106.577 222.75C106.978 223.986 108.13 224.823 109.43 224.823H112.746C115.652 224.823 116.86 228.542 114.509 230.25L111.827 232.199C110.775 232.963 110.335 234.317 110.737 235.553L111.761 238.706C112.659 241.47 109.496 243.769 107.145 242.06L104.462 240.112C103.411 239.348 101.987 239.348 100.936 240.112L98.2533 242.06C95.9022 243.769 92.7387 241.47 93.6368 238.706L94.6614 235.553C95.063 234.317 94.623 232.963 93.5716 232.199L90.8891 230.25C88.538 228.542 89.7463 224.823 92.6525 224.823H95.9681C97.2678 224.823 98.4197 223.986 98.8213 222.75L99.8459 219.597Z" stroke="#FFB84F"/>
<path d="M194.448 219.597C195.346 216.833 199.256 216.833 200.154 219.597L201.179 222.75C201.581 223.986 202.732 224.823 204.032 224.823H207.348C210.254 224.823 211.462 228.542 209.111 230.25L206.429 232.199C205.377 232.963 204.937 234.317 205.339 235.553L206.363 238.706C207.262 241.47 204.098 243.769 201.747 242.06L199.064 240.112C198.013 239.348 196.589 239.348 195.538 240.112L192.855 242.06C190.504 243.769 187.341 241.47 188.239 238.706L189.263 235.553C189.665 234.317 189.225 232.963 188.174 232.199L185.491 230.25C183.14 228.542 184.348 224.823 187.255 224.823H190.57C191.87 224.823 193.022 223.986 193.423 222.75L194.448 219.597Z" fill="#FFB84F"/>
<path d="M194.448 219.597C195.346 216.833 199.256 216.833 200.154 219.597L201.179 222.75C201.581 223.986 202.732 224.823 204.032 224.823H207.348C210.254 224.823 211.462 228.542 209.111 230.25L206.429 232.199C205.377 232.963 204.937 234.317 205.339 235.553L206.363 238.706C207.262 241.47 204.098 243.769 201.747 242.06L199.064 240.112C198.013 239.348 196.589 239.348 195.538 240.112L192.855 242.06C190.504 243.769 187.341 241.47 188.239 238.706L189.263 235.553C189.665 234.317 189.225 232.963 188.174 232.199L185.491 230.25C183.14 228.542 184.348 224.823 187.255 224.823H190.57C191.87 224.823 193.022 223.986 193.423 222.75L194.448 219.597Z" stroke="#FFB84F"/>
<path d="M229.36 185.81C230.258 183.047 234.168 183.047 235.066 185.81L236.091 188.964C236.493 190.2 237.645 191.037 238.944 191.037H242.26C245.166 191.037 246.374 194.756 244.023 196.464L241.341 198.413C240.289 199.177 239.849 200.531 240.251 201.767L241.276 204.92C242.174 207.684 239.01 209.983 236.659 208.274L233.977 206.325C232.925 205.562 231.501 205.562 230.45 206.325L227.767 208.274C225.416 209.983 222.253 207.684 223.151 204.92L224.176 201.767C224.577 200.531 224.137 199.177 223.086 198.413L220.403 196.464C218.052 194.756 219.26 191.037 222.167 191.037H225.482C226.782 191.037 227.934 190.2 228.335 188.964L229.36 185.81Z" fill="#FFB84F"/>
<path d="M229.36 185.81C230.258 183.047 234.168 183.047 235.066 185.81L236.091 188.964C236.493 190.2 237.645 191.037 238.944 191.037H242.26C245.166 191.037 246.374 194.756 244.023 196.464L241.341 198.413C240.289 199.177 239.849 200.531 240.251 201.767L241.276 204.92C242.174 207.684 239.01 209.983 236.659 208.274L233.977 206.325C232.925 205.562 231.501 205.562 230.45 206.325L227.767 208.274C225.416 209.983 222.253 207.684 223.151 204.92L224.176 201.767C224.577 200.531 224.137 199.177 223.086 198.413L220.403 196.464C218.052 194.756 219.26 191.037 222.167 191.037H225.482C226.782 191.037 227.934 190.2 228.335 188.964L229.36 185.81Z" stroke="#FFB84F"/>
<path d="M64.9333 91.2079C65.8314 88.444 69.7416 88.444 70.6397 91.2079L71.6643 94.3613C72.0659 95.5974 73.2177 96.4343 74.5174 96.4343H77.8331C80.7393 96.4343 81.9476 100.153 79.5965 101.861L76.914 103.81C75.8626 104.574 75.4226 105.928 75.8242 107.164L76.8488 110.318C77.7469 113.082 74.5834 115.38 72.2323 113.672L69.5498 111.723C68.4984 110.959 67.0746 110.959 66.0231 111.723L63.3407 113.672C60.9896 115.38 57.8261 113.082 58.7242 110.318L59.7488 107.164C60.1504 105.928 59.7104 104.574 58.659 103.81L55.9765 101.861C53.6254 100.153 54.8337 96.4343 57.7399 96.4343H61.0555C62.3552 96.4343 63.5071 95.5974 63.9087 94.3613L64.9333 91.2079Z" fill="#FFB84F"/>
<path d="M64.9333 91.2079C65.8314 88.444 69.7416 88.444 70.6397 91.2079L71.6643 94.3613C72.0659 95.5974 73.2177 96.4343 74.5174 96.4343H77.8331C80.7393 96.4343 81.9476 100.153 79.5965 101.861L76.914 103.81C75.8626 104.574 75.4226 105.928 75.8242 107.164L76.8488 110.318C77.7469 113.082 74.5834 115.38 72.2323 113.672L69.5498 111.723C68.4984 110.959 67.0746 110.959 66.0231 111.723L63.3407 113.672C60.9896 115.38 57.8261 113.082 58.7242 110.318L59.7488 107.164C60.1504 105.928 59.7104 104.574 58.659 103.81L55.9765 101.861C53.6254 100.153 54.8337 96.4343 57.7399 96.4343H61.0555C62.3552 96.4343 63.5071 95.5974 63.9087 94.3613L64.9333 91.2079Z" stroke="#FFB84F"/>
<path d="M64.9333 185.81C65.8314 183.047 69.7416 183.047 70.6397 185.81L71.6643 188.964C72.0659 190.2 73.2177 191.037 74.5174 191.037H77.8331C80.7393 191.037 81.9476 194.756 79.5965 196.464L76.914 198.413C75.8626 199.177 75.4226 200.531 75.8242 201.767L76.8488 204.92C77.7469 207.684 74.5834 209.983 72.2323 208.274L69.5498 206.325C68.4984 205.562 67.0746 205.562 66.0231 206.325L63.3407 208.274C60.9896 209.983 57.8261 207.684 58.7242 204.92L59.7488 201.767C60.1504 200.531 59.7104 199.177 58.659 198.413L55.9765 196.464C53.6254 194.756 54.8337 191.037 57.7399 191.037H61.0555C62.3552 191.037 63.5071 190.2 63.9087 188.964L64.9333 185.81Z" fill="#FFB84F"/>
<path d="M64.9333 185.81C65.8314 183.047 69.7416 183.047 70.6397 185.81L71.6643 188.964C72.0659 190.2 73.2177 191.037 74.5174 191.037H77.8331C80.7393 191.037 81.9476 194.756 79.5965 196.464L76.914 198.413C75.8626 199.177 75.4226 200.531 75.8242 201.767L76.8488 204.92C77.7469 207.684 74.5834 209.983 72.2323 208.274L69.5498 206.325C68.4984 205.562 67.0746 205.562 66.0231 206.325L63.3407 208.274C60.9896 209.983 57.8261 207.684 58.7242 204.92L59.7488 201.767C60.1504 200.531 59.7104 199.177 58.659 198.413L55.9765 196.464C53.6254 194.756 54.8337 191.037 57.7399 191.037H61.0555C62.3552 191.037 63.5071 190.2 63.9087 188.964L64.9333 185.81Z" stroke="#FFB84F"/>
<path d="M229.36 91.2079C230.258 88.444 234.168 88.444 235.066 91.2079L236.091 94.3613C236.493 95.5974 237.645 96.4343 238.944 96.4343H242.26C245.166 96.4343 246.374 100.153 244.023 101.861L241.341 103.81C240.289 104.574 239.849 105.928 240.251 107.164L241.276 110.318C242.174 113.082 239.01 115.38 236.659 113.672L233.977 111.723C232.925 110.959 231.501 110.959 230.45 111.723L227.767 113.672C225.416 115.38 222.253 113.082 223.151 110.318L224.176 107.164C224.577 105.928 224.137 104.574 223.086 103.81L220.403 101.861C218.052 100.153 219.26 96.4343 222.167 96.4343H225.482C226.782 96.4343 227.934 95.5974 228.335 94.3613L229.36 91.2079Z" fill="#FFB84F"/>
<path d="M229.36 91.2079C230.258 88.444 234.168 88.444 235.066 91.2079L236.091 94.3613C236.493 95.5974 237.645 96.4343 238.944 96.4343H242.26C245.166 96.4343 246.374 100.153 244.023 101.861L241.341 103.81C240.289 104.574 239.849 105.928 240.251 107.164L241.276 110.318C242.174 113.082 239.01 115.38 236.659 113.672L233.977 111.723C232.925 110.959 231.501 110.959 230.45 111.723L227.767 113.672C225.416 115.38 222.253 113.082 223.151 110.318L224.176 107.164C224.577 105.928 224.137 104.574 223.086 103.81L220.403 101.861C218.052 100.153 219.26 96.4343 222.167 96.4343H225.482C226.782 96.4343 227.934 95.5974 228.335 94.3613L229.36 91.2079Z" stroke="#FFB84F"/>
<path d="M194.448 55.1698C195.346 52.4059 199.256 52.4059 200.154 55.1698L201.179 58.3232C201.581 59.5593 202.732 60.3962 204.032 60.3962H207.348C210.254 60.3962 211.462 64.115 209.111 65.8232L206.429 67.7721C205.377 68.5361 204.937 69.8902 205.339 71.1262L206.363 74.2796C207.262 77.0436 204.098 79.3419 201.747 77.6337L199.064 75.6848C198.013 74.9209 196.589 74.9209 195.538 75.6848L192.855 77.6337C190.504 79.3419 187.341 77.0436 188.239 74.2796L189.263 71.1262C189.665 69.8902 189.225 68.5361 188.174 67.7721L185.491 65.8232C183.14 64.115 184.348 60.3962 187.255 60.3962H190.57C191.87 60.3962 193.022 59.5593 193.423 58.3232L194.448 55.1698Z" fill="#FFB84F"/>
<path d="M194.448 55.1698C195.346 52.4059 199.256 52.4059 200.154 55.1698L201.179 58.3232C201.581 59.5593 202.732 60.3962 204.032 60.3962H207.348C210.254 60.3962 211.462 64.115 209.111 65.8232L206.429 67.7721C205.377 68.5361 204.937 69.8902 205.339 71.1262L206.363 74.2796C207.262 77.0436 204.098 79.3419 201.747 77.6337L199.064 75.6848C198.013 74.9209 196.589 74.9209 195.538 75.6848L192.855 77.6337C190.504 79.3419 187.341 77.0436 188.239 74.2796L189.263 71.1262C189.665 69.8902 189.225 68.5361 188.174 67.7721L185.491 65.8232C183.14 64.115 184.348 60.3962 187.255 60.3962H190.57C191.87 60.3962 193.022 59.5593 193.423 58.3232L194.448 55.1698Z" stroke="#FFB84F"/>
</svg>
