<svg width="300" height="300" viewBox="0 0 300 300" fill="none" xmlns="http://www.w3.org/2000/svg">
<g clip-path="url(#clip0)">
<rect width="300" height="300" fill="white"/>
<rect x="300" y="300" width="300" height="300" transform="rotate(-180 300 300)" fill="#003EBA"/>
<path d="M149.049 51.927C149.348 51.0057 150.652 51.0057 150.951 51.9271L155.054 64.5531C155.187 64.9651 155.571 65.2441 156.005 65.2441H169.28C170.249 65.2441 170.652 66.4837 169.868 67.0531L159.128 74.8564C158.777 75.111 158.631 75.5624 158.765 75.9744L162.867 88.6004C163.166 89.5218 162.112 90.2879 161.328 89.7185L150.588 81.9152C150.237 81.6605 149.763 81.6605 149.412 81.9152L138.672 89.7185C137.888 90.2879 136.834 89.5218 137.133 88.6004L141.236 75.9744C141.369 75.5624 141.223 75.111 140.872 74.8564L130.132 67.0531C129.348 66.4837 129.751 65.2441 130.72 65.2441H143.996C144.429 65.2441 144.813 64.9651 144.947 64.5531L149.049 51.927Z" fill="#FFB84F"/>
<path d="M149.049 206.909C149.348 205.988 150.652 205.988 150.951 206.909L155.054 219.535C155.187 219.948 155.571 220.226 156.005 220.226H169.28C170.249 220.226 170.652 221.466 169.868 222.035L159.128 229.839C158.777 230.093 158.631 230.545 158.765 230.957L162.867 243.583C163.166 244.504 162.112 245.27 161.328 244.701L150.588 236.898C150.237 236.643 149.763 236.643 149.412 236.898L138.672 244.701C137.888 245.27 136.834 244.504 137.133 243.583L141.236 230.957C141.369 230.545 141.223 230.093 140.872 229.839L130.132 222.035C129.348 221.466 129.751 220.226 130.72 220.226H143.996C144.429 220.226 144.813 219.948 144.947 219.535L149.049 206.909Z" fill="#FFB84F"/>
<path d="M248.073 149.049C248.994 149.348 248.994 150.652 248.073 150.951L235.447 155.053C235.035 155.187 234.756 155.571 234.756 156.004L234.756 169.28C234.756 170.249 233.516 170.652 232.947 169.868L225.144 159.128C224.889 158.777 224.438 158.63 224.026 158.764L211.4 162.867C210.478 163.166 209.712 162.112 210.282 161.328L218.085 150.588C218.339 150.237 218.339 149.763 218.085 149.412L210.282 138.672C209.712 137.888 210.478 136.834 211.4 137.133L224.026 141.235C224.438 141.369 224.889 141.223 225.144 140.872L232.947 130.132C233.516 129.348 234.756 129.751 234.756 130.719L234.756 143.995C234.756 144.429 235.035 144.812 235.447 144.946L248.073 149.049Z" fill="#FFB84F"/>
<path d="M93.0903 149.049C94.0116 149.348 94.0116 150.652 93.0903 150.951L80.4643 155.053C80.0522 155.187 79.7733 155.571 79.7733 156.004L79.7733 169.28C79.7733 170.249 78.5337 170.652 77.9643 169.868L70.1609 159.128C69.9063 158.777 69.4549 158.63 69.0429 158.764L56.4169 162.867C55.4956 163.166 54.7295 162.112 55.2989 161.328L63.1022 150.588C63.3568 150.237 63.3568 149.763 63.1022 149.412L55.2989 138.672C54.7295 137.888 55.4956 136.834 56.4169 137.133L69.0429 141.235C69.4549 141.369 69.9063 141.223 70.1609 140.872L77.9643 130.132C78.5337 129.348 79.7733 129.751 79.7733 130.719L79.7733 143.995C79.7733 144.429 80.0522 144.812 80.4643 144.946L93.0903 149.049Z" fill="#FFB84F"/>
<path d="M218.676 79.9793C219.539 79.5395 220.46 80.4612 220.021 81.3243L213.993 93.1531C213.797 93.5391 213.871 94.0079 214.177 94.3142L223.565 103.702C224.25 104.387 223.658 105.548 222.701 105.396L209.589 103.32C209.161 103.252 208.738 103.467 208.541 103.853L202.514 115.682C202.075 116.545 200.787 116.341 200.636 115.385L198.559 102.272C198.491 101.844 198.156 101.509 197.728 101.441L184.615 99.3642C183.658 99.2127 183.455 97.9253 184.318 97.4855L196.147 91.4584C196.533 91.2618 196.748 90.8389 196.68 90.411L194.603 77.2986C194.452 76.3419 195.613 75.7501 196.298 76.4351L205.686 85.8225C205.992 86.1288 206.461 86.2031 206.847 86.0064L218.676 79.9793Z" fill="#FFB84F"/>
<path d="M109.086 189.569C109.949 189.129 110.871 190.051 110.431 190.914L104.404 202.743C104.207 203.129 104.282 203.598 104.588 203.904L113.975 213.291C114.66 213.976 114.069 215.138 113.112 214.986L99.9995 212.909C99.5716 212.842 99.1488 213.057 98.9521 213.443L92.925 225.272C92.4852 226.135 91.1978 225.931 91.0463 224.974L88.9695 211.862C88.9017 211.434 88.5662 211.099 88.1383 211.031L75.0259 208.954C74.0691 208.803 73.8652 207.515 74.7284 207.075L86.5572 201.048C86.9432 200.852 87.1586 200.429 87.0909 200.001L85.0141 186.888C84.8625 185.932 86.0239 185.34 86.7089 186.025L96.0963 195.412C96.4026 195.719 96.8714 195.793 97.2574 195.596L109.086 189.569Z" fill="#FFB84F"/>
<path d="M220.02 218.676C220.46 219.539 219.539 220.461 218.675 220.021L206.847 213.994C206.461 213.797 205.992 213.871 205.686 214.178L196.298 223.565C195.613 224.25 194.452 223.658 194.603 222.701L196.68 209.589C196.748 209.161 196.532 208.738 196.146 208.542L184.318 202.515C183.454 202.075 183.658 200.787 184.615 200.636L197.728 198.559C198.155 198.491 198.491 198.156 198.559 197.728L200.636 184.616C200.787 183.659 202.074 183.455 202.514 184.318L208.541 196.147C208.738 196.533 209.161 196.748 209.589 196.68L222.701 194.604C223.658 194.452 224.25 195.613 223.565 196.298L214.177 205.686C213.871 205.992 213.797 206.461 213.993 206.847L220.02 218.676Z" fill="#FFB84F"/>
<path d="M110.431 109.086C110.871 109.949 109.949 110.871 109.086 110.431L97.2575 104.404C96.8715 104.207 96.4027 104.281 96.0964 104.588L86.709 113.975C86.024 114.66 84.8627 114.068 85.0142 113.112L87.091 99.9993C87.1588 99.5714 86.9433 99.1485 86.5573 98.9518L74.7285 92.9248C73.8654 92.485 74.0693 91.1976 75.0261 91.0461L88.1384 88.9693C88.5663 88.9015 88.9019 88.5659 88.9696 88.138L91.0464 75.0257C91.198 74.0689 92.4853 73.865 92.9251 74.7281L98.9522 86.5569C99.1489 86.9429 99.5718 87.1584 99.9997 87.0906L113.112 85.0138C114.069 84.8623 114.661 86.0236 113.976 86.7086L104.588 96.096C104.282 96.4024 104.208 96.8711 104.404 97.2571L110.431 109.086Z" fill="#FFB84F"/>
</g>
<defs>
<clipPath id="clip0">
<rect width="300" height="300" fill="white"/>
</clipPath>
</defs>
</svg>
