<svg width="300" height="300" viewBox="0 0 300 300" fill="none" xmlns="http://www.w3.org/2000/svg">
<g clip-path="url(#clip0)">
<rect width="300" height="300" fill="white"/>
<rect width="300" height="300" fill="#FF4A4A"/>
<path d="M96.2221 23.8647L98.5 16.8541L100.778 23.8647C101.113 24.8948 102.072 25.5922 103.156 25.5922L110.527 25.5922L104.563 29.925C103.687 30.5616 103.32 31.6901 103.655 32.7201L105.933 39.7307L99.9695 35.3979C99.0932 34.7613 97.9068 34.7613 97.0305 35.3979L91.0669 39.7307L93.3448 32.7201C93.6795 31.69 93.3129 30.5616 92.4366 29.925L91.555 31.1385L92.4366 29.925L86.473 25.5922L93.8445 25.5922C94.9275 25.5922 95.8874 24.8948 96.2221 23.8647Z" stroke="#FFB84F" stroke-width="3"/>
<path d="M87.5574 53.8799L76.4639 64.449L82.3733 70.3644L87.4861 65.2227C97.4501 75.3395 105.191 83.2069 114.81 92.9786C117.473 95.7399 122.11 91.9788 119.138 88.789C108.972 78.8745 101.933 71.7213 91.3385 61.3307L97.6166 55.0106L87.5574 53.8799Z" fill="#FFB84F" stroke="#FFB84F" stroke-width="1.6" stroke-linecap="round" stroke-linejoin="round"/>
<path d="M88.2681 83.7193C108.113 102.156 140.276 68.9248 99.1715 44.8467C129.753 78.8632 100.396 89.2895 89.7663 78.7917L89.2312 78.3514C88.7913 78.8394 88.3632 79.3273 87.9233 79.8153C87.1029 79.0417 85.8187 78.8036 85.4263 80.1367C83.8093 80.0296 82.8581 80.9222 82.43 82.6004C79.4218 84.6 76.1639 86.3496 74.2852 89.4799C73.2151 92.8006 75.3315 94.2408 77.7215 93.967C81.6453 92.3364 82.8581 88.8015 84.9626 85.8974C86.4489 85.4213 87.7093 84.7904 87.9352 83.4336" fill="#FFB84F"/>
<path d="M88.2681 83.7193C108.113 102.156 140.276 68.9248 99.1715 44.8467C129.753 78.8632 100.396 89.2895 89.7663 78.7917L89.2312 78.3514C88.7913 78.8394 88.3632 79.3273 87.9233 79.8153C87.1029 79.0417 85.8187 78.8036 85.4263 80.1367C83.8093 80.0296 82.8581 80.9222 82.43 82.6004C79.4218 84.6 76.1639 86.3496 74.2852 89.4799C73.2151 92.8006 75.3315 94.2408 77.7215 93.967C81.6453 92.3364 82.8581 88.8015 84.9626 85.8974C86.4489 85.4213 87.7093 84.7904 87.9352 83.4336" stroke="#FFB84F" stroke-width="1.6" stroke-linecap="round" stroke-linejoin="round"/>
<rect y="218" width="300" height="81.9999" fill="#3B9644"/>
<rect x="51" width="300" height="51" transform="rotate(90 51 0)" fill="white"/>
<rect x="6" width="300" height="2.99999" transform="rotate(90 6 0)" fill="#FF4A4A"/>
<rect x="48" width="300" height="2.99999" transform="rotate(90 48 0)" fill="#FF4A4A"/>
<path d="M18.0143 14.762C18.2039 13.6535 19.7961 13.6535 19.9857 14.762L25.7283 48.3314C25.8328 48.9422 25.3623 49.5 24.7426 49.5H13.2574C12.6377 49.5 12.1672 48.9422 12.2717 48.3314L18.0143 14.762Z" fill="#FF4A4A"/>
<path d="M19.9857 82.238C19.796 83.3465 18.2039 83.3465 18.0143 82.238L12.2717 48.6686C12.1672 48.0578 12.6377 47.5 13.2574 47.5L24.7426 47.5C25.3623 47.5 25.8328 48.0578 25.7283 48.6686L19.9857 82.238Z" fill="#FF4A4A"/>
<path d="M32.0143 14.762C32.2039 13.6535 33.7961 13.6535 33.9857 14.762L39.7283 48.3314C39.8328 48.9422 39.3623 49.5 38.7426 49.5H27.2574C26.6377 49.5 26.1672 48.9422 26.2717 48.3314L32.0143 14.762Z" fill="#FF4A4A"/>
<path d="M33.9857 82.238C33.796 83.3465 32.2039 83.3465 32.0143 82.238L26.2717 48.6686C26.1672 48.0578 26.6377 47.5 27.2574 47.5L38.7426 47.5C39.3623 47.5 39.8328 48.0578 39.7283 48.6686L33.9857 82.238Z" fill="#FF4A4A"/>
<path d="M18.0143 81.762C18.2039 80.6535 19.7961 80.6535 19.9857 81.762L25.7283 115.331C25.8328 115.942 25.3623 116.5 24.7426 116.5H13.2574C12.6377 116.5 12.1672 115.942 12.2717 115.331L18.0143 81.762Z" fill="#FF4A4A"/>
<path d="M19.9857 149.238C19.796 150.347 18.2039 150.347 18.0143 149.238L12.2717 115.669C12.1672 115.058 12.6377 114.5 13.2574 114.5L24.7426 114.5C25.3623 114.5 25.8328 115.058 25.7283 115.669L19.9857 149.238Z" fill="#FF4A4A"/>
<path d="M32.0143 81.762C32.2039 80.6535 33.7961 80.6535 33.9857 81.762L39.7283 115.331C39.8328 115.942 39.3623 116.5 38.7426 116.5H27.2574C26.6377 116.5 26.1672 115.942 26.2717 115.331L32.0143 81.762Z" fill="#FF4A4A"/>
<path d="M33.9857 149.238C33.796 150.347 32.2039 150.347 32.0143 149.238L26.2717 115.669C26.1672 115.058 26.6377 114.5 27.2574 114.5L38.7426 114.5C39.3623 114.5 39.8328 115.058 39.7283 115.669L33.9857 149.238Z" fill="#FF4A4A"/>
<path d="M18.0143 149.762C18.2039 148.653 19.7961 148.653 19.9857 149.762L25.7283 183.331C25.8328 183.942 25.3623 184.5 24.7426 184.5H13.2574C12.6377 184.5 12.1672 183.942 12.2717 183.331L18.0143 149.762Z" fill="#FF4A4A"/>
<path d="M19.9857 217.238C19.796 218.347 18.2039 218.347 18.0143 217.238L12.2717 183.669C12.1672 183.058 12.6377 182.5 13.2574 182.5L24.7426 182.5C25.3623 182.5 25.8328 183.058 25.7283 183.669L19.9857 217.238Z" fill="#FF4A4A"/>
<path d="M32.0143 149.762C32.2039 148.653 33.7961 148.653 33.9857 149.762L39.7283 183.331C39.8328 183.942 39.3623 184.5 38.7426 184.5H27.2574C26.6377 184.5 26.1672 183.942 26.2717 183.331L32.0143 149.762Z" fill="#FF4A4A"/>
<path d="M33.9857 217.238C33.796 218.347 32.2039 218.347 32.0143 217.238L26.2717 183.669C26.1672 183.058 26.6377 182.5 27.2574 182.5L38.7426 182.5C39.3623 182.5 39.8328 183.058 39.7283 183.669L33.9857 217.238Z" fill="#FF4A4A"/>
<path d="M18.0143 216.762C18.2039 215.653 19.7961 215.653 19.9857 216.762L25.7283 250.331C25.8328 250.942 25.3623 251.5 24.7426 251.5H13.2574C12.6377 251.5 12.1672 250.942 12.2717 250.331L18.0143 216.762Z" fill="#FF4A4A"/>
<path d="M19.9857 284.238C19.796 285.347 18.2039 285.347 18.0143 284.238L12.2717 250.669C12.1672 250.058 12.6377 249.5 13.2574 249.5L24.7426 249.5C25.3623 249.5 25.8328 250.058 25.7283 250.669L19.9857 284.238Z" fill="#FF4A4A"/>
<path d="M32.0143 216.762C32.2039 215.653 33.7961 215.653 33.9857 216.762L39.7283 250.331C39.8328 250.942 39.3623 251.5 38.7426 251.5H27.2574C26.6377 251.5 26.1672 250.942 26.2717 250.331L32.0143 216.762Z" fill="#FF4A4A"/>
<path d="M33.9857 284.238C33.796 285.347 32.2039 285.347 32.0143 284.238L26.2717 250.669C26.1672 250.058 26.6377 249.5 27.2574 249.5L38.7426 249.5C39.3623 249.5 39.8328 250.058 39.7283 250.669L33.9857 284.238Z" fill="#FF4A4A"/>
</g>
<defs>
<clipPath id="clip0">
<rect width="300" height="300" fill="white"/>
</clipPath>
</defs>
</svg>
