<svg width="300" height="300" viewBox="0 0 300 300" fill="none" xmlns="http://www.w3.org/2000/svg">
<g clip-path="url(#clip0_118:452)">
<rect width="300" height="300" fill="#FF4A4A"/>
<rect width="300" height="300" fill="#FF4A4A"/>
<rect x="20" y="25" width="100" height="100" rx="50" fill="#59AFFF"/>
<rect x="102" y="52" width="198" height="45.9999" fill="#59AFFF"/>
<rect width="42" height="46" transform="matrix(-1 -4.07973e-07 -3.14722e-07 1 42 52)" fill="#59AFFF"/>
<rect x="66" y="21" width="8" height="108" fill="#FF4A4A"/>
<rect x="120" y="71" width="8" height="100" transform="rotate(90 120 71)" fill="#FF4A4A"/>
<rect x="105.355" y="33.9883" width="8" height="108" transform="rotate(45 105.355 33.9883)" fill="#FF4A4A"/>
<rect x="111.012" y="110.355" width="8" height="108" transform="rotate(135 111.012 110.355)" fill="#FF4A4A"/>
<rect x="30" y="35" width="80" height="80" rx="40" fill="#59AFFF"/>
<path d="M70.0798 44.9271C70.3791 44.0057 71.6825 44.0057 71.9819 44.9271L73.5375 49.7146C73.6713 50.1266 74.0553 50.4056 74.4885 50.4056L79.5224 50.4056C80.4911 50.4056 80.8939 51.6452 80.1102 52.2146L76.0377 55.1734C75.6872 55.4281 75.5405 55.8794 75.6744 56.2915L77.23 61.079C77.5293 62.0003 76.4749 62.7664 75.6911 62.197L71.6186 59.2382C71.2681 58.9835 70.7935 58.9835 70.4431 59.2382L66.3705 62.197C65.5868 62.7664 64.5324 62.0003 64.8317 61.079L66.3873 56.2915C66.5211 55.8794 66.3745 55.4281 66.024 55.1734L61.9515 52.2146C61.1678 51.6452 61.5705 50.4056 62.5393 50.4056L67.5732 50.4056C68.0064 50.4056 68.3904 50.1266 68.5242 49.7146L70.0798 44.9271Z" fill="#FF4A4A"/>
<path d="M63.468 70.7148C63.3504 70.7016 63.233 70.7411 63.1474 70.8227L55.436 78.1695C55.358 78.2439 55.3133 78.3465 55.3119 78.4542C55.3106 78.5619 55.3528 78.6656 55.4289 78.7419L59.5367 82.8538C59.6119 82.929 59.7138 82.9712 59.8202 82.9711C59.9265 82.9709 60.0284 82.9285 60.1033 82.8531L63.3724 79.5656C68.0019 84.2662 71.9501 88.2776 76.0842 92.4778C78.0131 94.4376 79.9826 96.4386 82.0806 98.5699C83.1836 99.7119 84.6996 99.4888 85.6058 98.6851C86.0615 98.281 86.3868 97.7141 86.4364 97.0695C86.4866 96.4168 86.2507 95.7308 85.6682 95.1057C85.6639 95.101 85.6594 95.0965 85.6548 95.092C81.8397 91.3713 78.6636 88.2155 75.3894 84.9622C72.6737 82.2638 69.8904 79.4984 66.6191 76.2878L70.6994 72.1802C70.8075 72.0713 70.8439 71.9102 70.7929 71.7655C70.742 71.6208 70.6128 71.5179 70.4603 71.5008L63.468 70.7148Z" fill="#FF4A4A" stroke="#FF4A4A" stroke-width="0.8" stroke-linecap="round" stroke-linejoin="round"/>
<mask id="path-13-outside-1_118:452" maskUnits="userSpaceOnUse" x="53" y="63.833" width="34" height="36" fill="black">
<rect fill="white" x="53" y="63.833" width="34" height="36"/>
<path d="M63.9181 91.8542C77.7126 104.67 100.07 81.5703 71.4972 64.833C92.7552 88.4786 72.3485 95.7262 64.9595 88.429L64.5876 88.1229C64.2817 88.4621 63.9842 88.8013 63.6784 89.1405C63.1081 88.6027 62.2155 88.4372 61.9427 89.3639C60.8186 89.2894 60.1574 89.9099 59.8599 91.0765C57.7688 92.4664 55.5041 93.6826 54.1983 95.8586C53.4544 98.1669 54.9256 99.1679 56.5869 98.9777C59.3144 97.8442 60.1574 95.387 61.6204 93.3682C62.6535 93.0373 63.5296 92.5988 63.6867 91.6556"/>
</mask>
<path d="M63.9181 91.8542C77.7126 104.67 100.07 81.5703 71.4972 64.833C92.7552 88.4786 72.3485 95.7262 64.9595 88.429L64.5876 88.1229C64.2817 88.4621 63.9842 88.8013 63.6784 89.1405C63.1081 88.6027 62.2155 88.4372 61.9427 89.3639C60.8186 89.2894 60.1574 89.9099 59.8599 91.0765C57.7688 92.4664 55.5041 93.6826 54.1983 95.8586C53.4544 98.1669 54.9256 99.1679 56.5869 98.9777C59.3144 97.8442 60.1574 95.387 61.6204 93.3682C62.6535 93.0373 63.5296 92.5988 63.6867 91.6556" fill="#FF4A4A"/>
<path d="M64.4626 91.2681C64.1389 90.9674 63.6327 90.986 63.332 91.3097C63.0313 91.6334 63.0499 92.1396 63.3736 92.4403L64.4626 91.2681ZM71.4972 64.833L71.9016 64.1427C71.5613 63.9434 71.1265 64.0218 70.8773 64.3274C70.628 64.633 70.6387 65.0746 70.9023 65.3679L71.4972 64.833ZM64.9595 88.429L65.5216 87.8598C65.5045 87.8428 65.4865 87.8266 65.4679 87.8113L64.9595 88.429ZM64.5876 88.1229L65.0959 87.5052C64.7656 87.2333 64.2798 87.2694 63.9934 87.5872L64.5876 88.1229ZM63.6784 89.1405L63.1295 89.7225C63.2862 89.8702 63.4957 89.9486 63.7108 89.9398C63.9259 89.9311 64.1284 89.8361 64.2726 89.6762L63.6784 89.1405ZM61.9427 89.3639L61.8898 90.1621C62.2635 90.1869 62.6044 89.9491 62.7101 89.5898L61.9427 89.3639ZM59.8599 91.0765L60.3027 91.7427C60.4677 91.6331 60.5861 91.4661 60.6351 91.2742L59.8599 91.0765ZM54.1983 95.8586L53.5123 95.4469C53.4809 95.4992 53.4555 95.555 53.4368 95.6132L54.1983 95.8586ZM56.5869 98.9777L56.6779 99.7725C56.7522 99.764 56.8249 99.7451 56.8939 99.7164L56.5869 98.9777ZM61.6204 93.3682L61.3763 92.6064C61.214 92.6584 61.0726 92.7608 60.9726 92.8988L61.6204 93.3682ZM64.4758 91.787C64.5484 91.3512 64.2539 90.9391 63.818 90.8665C63.3822 90.7939 62.9701 91.0884 62.8975 91.5242L64.4758 91.787ZM63.3736 92.4403C70.6812 99.2293 80.3059 96.4933 84.2822 89.8361C86.2807 86.4901 86.8485 82.1738 85.051 77.6243C83.2592 73.0896 79.1461 68.3864 71.9016 64.1427L71.0929 65.5233C78.1347 69.6483 81.9416 74.1089 83.5629 78.2123C85.1783 82.3008 84.652 86.0967 82.9085 89.0157C79.4007 94.8887 70.9495 97.2947 64.4626 91.2681L63.3736 92.4403ZM70.9023 65.3679C76.1706 71.2279 78.7892 75.9995 79.7063 79.7133C80.6173 83.4018 79.8487 86.0138 78.3685 87.7082C76.8658 89.4284 74.5241 90.3246 72.0807 90.3458C69.6377 90.367 67.1937 89.5111 65.5216 87.8598L64.3974 88.9982C66.4198 90.9955 69.2976 91.97 72.0946 91.9457C74.8914 91.9215 77.7081 90.8962 79.5735 88.7609C81.4614 86.5998 82.2704 83.4224 81.2597 79.3297C80.2552 75.2624 77.4528 70.2609 72.0922 64.2982L70.9023 65.3679ZM65.4679 87.8113L65.0959 87.5052L64.0792 88.7405L64.4511 89.0467L65.4679 87.8113ZM63.9934 87.5872C63.8384 87.7591 63.6857 87.9307 63.5352 88.1C63.3841 88.27 63.235 88.4375 63.0842 88.6048L64.2726 89.6762C64.4276 89.5042 64.5802 89.3326 64.7308 89.1633C64.8819 88.9934 65.0309 88.8258 65.1817 88.6585L63.9934 87.5872ZM64.2272 88.5585C63.8439 88.197 63.2848 87.8899 62.6813 87.9032C62.3626 87.9102 62.0301 88.0093 61.7443 88.2415C61.4618 88.471 61.2787 88.7866 61.1753 89.138L62.7101 89.5898C62.7431 89.4779 62.7738 89.4666 62.7532 89.4833C62.7293 89.5028 62.7068 89.503 62.7166 89.5028C62.7349 89.5024 62.7887 89.5077 62.8731 89.5461C62.9554 89.5837 63.0458 89.6436 63.1295 89.7225L64.2272 88.5585ZM61.9956 88.5656C61.2664 88.5173 60.6032 88.6947 60.0731 89.1453C59.5605 89.5812 59.2577 90.2007 59.0847 90.8788L60.6351 91.2742C60.7597 90.7857 60.9361 90.5117 61.1096 90.3643C61.2656 90.2316 61.495 90.136 61.8898 90.1621L61.9956 88.5656ZM59.417 90.4102C57.4247 91.7346 54.9372 93.0727 53.5123 95.4469L54.8842 96.2702C56.0711 94.2926 58.1129 93.1983 60.3027 91.7427L59.417 90.4102ZM53.4368 95.6132C53.0076 96.9451 53.1634 98.1084 53.9068 98.902C54.6175 99.6606 55.6884 99.8858 56.6779 99.7725L56.4958 98.1828C55.8241 98.2598 55.3288 98.0796 55.0745 97.8081C54.8529 97.5717 54.6451 97.0803 54.9597 96.1039L53.4368 95.6132ZM56.8939 99.7164C58.4375 99.0749 59.4368 98.0572 60.2244 96.976C60.6131 96.4425 60.9567 95.8842 61.2816 95.3563C61.6119 94.8195 61.9232 94.3137 62.2682 93.8377L60.9726 92.8988C60.5861 93.4321 60.2434 93.9905 59.9189 94.5177C59.5891 95.0537 59.2772 95.559 58.9312 96.0339C58.2497 96.9693 57.4638 97.7469 56.2799 98.2389L56.8939 99.7164ZM61.8644 94.1301C62.8658 93.8093 64.232 93.2512 64.4758 91.787L62.8975 91.5242C62.8272 91.9464 62.4413 92.2652 61.3763 92.6064L61.8644 94.1301Z" fill="#FF4A4A" mask="url(#path-13-outside-1_118:452)"/>
</g>
<defs>
<clipPath id="clip0_118:452">
<rect width="300" height="300" fill="white"/>
</clipPath>
</defs>
</svg>
