<svg width="300" height="300" viewBox="0 0 300 300" fill="none" xmlns="http://www.w3.org/2000/svg">
<g clip-path="url(#clip0)">
<rect width="300" height="300" fill="#FF4A4A"/>
<rect width="300" height="300" fill="#FF4A4A"/>
<path d="M96.2221 23.8647L98.5 16.8541L100.778 23.8647C101.113 24.8948 102.072 25.5922 103.156 25.5922L110.527 25.5922L104.563 29.925C103.687 30.5616 103.32 31.6901 103.655 32.7201L105.933 39.7307L99.9695 35.3979C99.0932 34.7613 97.9068 34.7613 97.0305 35.3979L91.0669 39.7307L93.3448 32.7201C93.6795 31.69 93.3129 30.5616 92.4366 29.925L91.555 31.1385L92.4366 29.925L86.473 25.5922L93.8445 25.5922C94.9275 25.5922 95.8874 24.8948 96.2221 23.8647Z" stroke="#FFB84F" stroke-width="3"/>
<path d="M87.5574 53.8799L76.4639 64.449L82.3733 70.3644L87.4861 65.2227C97.4501 75.3395 105.191 83.2069 114.81 92.9786C117.473 95.7399 122.11 91.9788 119.138 88.789C108.972 78.8745 101.933 71.7213 91.3385 61.3307L97.6166 55.0106L87.5574 53.8799Z" fill="#FFB84F" stroke="#FFB84F" stroke-width="1.6" stroke-linecap="round" stroke-linejoin="round"/>
<path d="M88.2681 83.7193C108.113 102.156 140.276 68.9248 99.1715 44.8467C129.753 78.8632 100.396 89.2895 89.7663 78.7917L89.2312 78.3514C88.7913 78.8394 88.3632 79.3273 87.9233 79.8153C87.1029 79.0417 85.8187 78.8036 85.4263 80.1367C83.8093 80.0296 82.8581 80.9222 82.43 82.6004C79.4218 84.6 76.1639 86.3496 74.2852 89.4799C73.2151 92.8006 75.3315 94.2408 77.7215 93.967C81.6453 92.3364 82.8581 88.8015 84.9626 85.8974C86.4489 85.4213 87.7093 84.7904 87.9352 83.4336" fill="#FFB84F"/>
<path d="M88.2681 83.7193C108.113 102.156 140.276 68.9248 99.1715 44.8467C129.753 78.8632 100.396 89.2895 89.7663 78.7917L89.2312 78.3514C88.7913 78.8394 88.3632 79.3273 87.9233 79.8153C87.1029 79.0417 85.8187 78.8036 85.4263 80.1367C83.8093 80.0296 82.8581 80.9222 82.43 82.6004C79.4218 84.6 76.1639 86.3496 74.2852 89.4799C73.2151 92.8006 75.3315 94.2408 77.7215 93.967C81.6453 92.3364 82.8581 88.8015 84.9626 85.8974C86.4489 85.4213 87.7093 84.7904 87.9352 83.4336" stroke="#FFB84F" stroke-width="1.6" stroke-linecap="round" stroke-linejoin="round"/>
<rect y="218" width="300" height="51.9999" fill="#59AFFF"/>
</g>
<defs>
<clipPath id="clip0">
<rect width="300" height="300" fill="white"/>
</clipPath>
</defs>
</svg>
