<svg width="300" height="300" viewBox="0 0 300 300" fill="none" xmlns="http://www.w3.org/2000/svg">
<g clip-path="url(#clip0)">
<rect width="300" height="300" fill="#FF4A4A"/>
<path d="M46.2221 23.8647L48.5 16.8541L50.7779 23.8647C51.1126 24.8948 52.0725 25.5922 53.1555 25.5922L60.527 25.5922L54.5634 29.925C53.6871 30.5616 53.3205 31.6901 53.6552 32.7201L55.9331 39.7307L49.9695 35.3979C49.0932 34.7613 47.9068 34.7613 47.0305 35.3979L41.0669 39.7307L43.3448 32.7201C43.6795 31.69 43.3129 30.5616 42.4366 29.925L41.555 31.1385L42.4366 29.925L36.473 25.5922L43.8445 25.5922C44.9275 25.5922 45.8874 24.8948 46.2221 23.8647Z" stroke="#FFB84F" stroke-width="3"/>
<path d="M37.5574 53.8799L26.4639 64.449L32.3733 70.3644L37.4861 65.2227C47.4501 75.3395 55.1907 83.2069 64.8099 92.9786C67.4733 95.7399 72.1105 91.9788 69.1379 88.789C58.9718 78.8745 51.9327 71.7213 41.3385 61.3307L47.6166 55.0106L37.5574 53.8799Z" fill="#FFB84F" stroke="#FFB84F" stroke-width="1.6" stroke-linecap="round" stroke-linejoin="round"/>
<path d="M38.2681 83.7193C58.1129 102.156 90.276 68.9248 49.1715 44.8467C79.7531 78.8632 50.3961 89.2895 39.7663 78.7917L39.2312 78.3514C38.7913 78.8394 38.3632 79.3273 37.9233 79.8153C37.1029 79.0417 35.8187 78.8036 35.4263 80.1367C33.8093 80.0296 32.8581 80.9222 32.43 82.6004C29.4218 84.6 26.1639 86.3496 24.2852 89.4799C23.2151 92.8006 25.3315 94.2408 27.7215 93.967C31.6453 92.3364 32.8581 88.8015 34.9626 85.8974C36.4489 85.4213 37.7093 84.7904 37.9352 83.4336" fill="#FFB84F"/>
<path d="M38.2681 83.7193C58.1129 102.156 90.276 68.9248 49.1715 44.8467C79.7531 78.8632 50.3961 89.2895 39.7663 78.7917L39.2312 78.3514C38.7913 78.8394 38.3632 79.3273 37.9233 79.8153C37.1029 79.0417 35.8187 78.8036 35.4263 80.1367C33.8093 80.0296 32.8581 80.9222 32.43 82.6004C29.4218 84.6 26.1639 86.3496 24.2852 89.4799C23.2151 92.8006 25.3315 94.2408 27.7215 93.967C31.6453 92.3364 32.8581 88.8015 34.9626 85.8974C36.4489 85.4213 37.7093 84.7904 37.9352 83.4336" stroke="#FFB84F" stroke-width="1.6" stroke-linecap="round" stroke-linejoin="round"/>
<path d="M-1.5 175.5L86 188L173.5 175.5L272 188L303 183V274H-3L-1.5 175.5Z" fill="white"/>
<path d="M-49 181C-49 181 -21.4612 175 -3.5 175C14.4612 175 42 181 42 181" stroke="white" stroke-width="5" stroke-linecap="round"/>
<path d="M132 181C132 181 104.764 188 87 188C69.2362 188 42 181 42 181" stroke="white" stroke-width="5" stroke-linecap="round"/>
<path d="M132 181C132 181 159.539 175 177.5 175C195.461 175 223 181 223 181" stroke="white" stroke-width="5" stroke-linecap="round"/>
<path d="M313 181C313 181 285.764 188 268 188C250.236 188 223 181 223 181" stroke="white" stroke-width="5" stroke-linecap="round"/>
<path d="M-1.5 183.5L86 196L173.5 183.5L272 196L303 191V282H-3L-1.5 183.5Z" fill="#3661F6"/>
<path d="M-49 189C-49 189 -21.4612 183 -3.5 183C14.4612 183 42 189 42 189" stroke="#3661F6" stroke-width="5" stroke-linecap="round"/>
<path d="M132 189C132 189 104.764 196 87 196C69.2362 196 42 189 42 189" stroke="#3661F6" stroke-width="5" stroke-linecap="round"/>
<path d="M132 189C132 189 159.539 183 177.5 183C195.461 183 223 189 223 189" stroke="#3661F6" stroke-width="5" stroke-linecap="round"/>
<path d="M313 189C313 189 285.764 196 268 196C250.236 196 223 189 223 189" stroke="#3661F6" stroke-width="5" stroke-linecap="round"/>
<path d="M-1.5 195.5L86 208L173.5 195.5L272 208L303 203V294H-3L-1.5 195.5Z" fill="white"/>
<path d="M-49 201C-49 201 -21.4612 195 -3.5 195C14.4612 195 42 201 42 201" stroke="white" stroke-width="5" stroke-linecap="round"/>
<path d="M132 201C132 201 104.764 208 87 208C69.2362 208 42 201 42 201" stroke="white" stroke-width="5" stroke-linecap="round"/>
<path d="M132 201C132 201 159.539 195 177.5 195C195.461 195 223 201 223 201" stroke="white" stroke-width="5" stroke-linecap="round"/>
<path d="M313 201C313 201 285.764 208 268 208C250.236 208 223 201 223 201" stroke="white" stroke-width="5" stroke-linecap="round"/>
<path d="M-1.5 212.5L86 225L173.5 212.5L272 225L303 220V311H-3L-1.5 212.5Z" fill="#3661F6"/>
<path d="M-49 218C-49 218 -21.4612 212 -3.5 212C14.4612 212 42 218 42 218" stroke="#3661F6" stroke-width="5" stroke-linecap="round"/>
<path d="M132 218C132 218 104.764 225 87 225C69.2362 225 42 218 42 218" stroke="#3661F6" stroke-width="5" stroke-linecap="round"/>
<path d="M132 218C132 218 159.539 212 177.5 212C195.461 212 223 218 223 218" stroke="#3661F6" stroke-width="5" stroke-linecap="round"/>
<path d="M313 218C313 218 285.764 225 268 225C250.236 225 223 218 223 218" stroke="#3661F6" stroke-width="5" stroke-linecap="round"/>
</g>
<defs>
<clipPath id="clip0">
<rect width="300" height="300" fill="white"/>
</clipPath>
</defs>
</svg>
