<svg width="300" height="300" viewBox="0 0 300 300" fill="none" xmlns="http://www.w3.org/2000/svg">
<g clip-path="url(#clip0)">
<rect width="300" height="300" fill="white"/>
<rect width="300" height="300" fill="#FF4A4A"/>
<path d="M46.2221 23.8647L48.5 16.8541L50.7779 23.8647C51.1126 24.8948 52.0725 25.5922 53.1555 25.5922L60.527 25.5922L54.5634 29.925C53.6871 30.5616 53.3205 31.6901 53.6552 32.7201L55.9331 39.7307L49.9695 35.3979C49.0932 34.7613 47.9068 34.7613 47.0305 35.3979L41.0669 39.7307L43.3448 32.7201C43.6795 31.69 43.3129 30.5616 42.4366 29.925L41.555 31.1385L42.4366 29.925L36.473 25.5922L43.8445 25.5922C44.9275 25.5922 45.8874 24.8948 46.2221 23.8647Z" stroke="#FFB84F" stroke-width="3"/>
<path d="M37.6021 53.4824C37.4846 53.4692 37.3672 53.5087 37.2815 53.5903L26.188 64.1594C26.11 64.2337 26.0652 64.3364 26.0639 64.4441C26.0626 64.5518 26.1047 64.6555 26.1809 64.7317L32.0903 70.6471C32.1655 70.7223 32.2675 70.7645 32.3738 70.7644C32.4801 70.7643 32.582 70.7219 32.6569 70.6465L37.4847 65.7913C44.1983 72.608 49.9118 78.4129 55.896 84.4928C58.6713 87.3125 61.5048 90.1913 64.5233 93.2577C66.0323 94.8207 68.1048 94.5215 69.3528 93.4147C69.9793 92.8591 70.4216 92.0841 70.489 91.2083C70.5571 90.3245 70.2396 89.3845 69.4305 88.5163C69.4262 88.5117 69.4217 88.5071 69.4172 88.5027C63.9295 83.1508 59.3585 78.609 54.6469 73.9275C50.7048 70.0106 46.6642 65.9958 41.906 61.327L47.9004 55.2925C48.0085 55.1836 48.0448 55.0225 47.9939 54.8778C47.943 54.7331 47.8137 54.6302 47.6613 54.6131L37.6021 53.4824Z" fill="#FFB84F" stroke="#FFB84F" stroke-width="0.8" stroke-linecap="round" stroke-linejoin="round"/>
<mask id="path-5-outside-1" maskUnits="userSpaceOnUse" x="23" y="43.8467" width="47" height="51" fill="black">
<rect fill="white" x="23" y="43.8467" width="47" height="51"/>
<path d="M38.2681 83.7193C58.1129 102.156 90.276 68.9248 49.1715 44.8467C79.7531 78.8632 50.3961 89.2895 39.7663 78.7917L39.2312 78.3514C38.7913 78.8394 38.3632 79.3273 37.9233 79.8153C37.1029 79.0417 35.8187 78.8036 35.4263 80.1367C33.8093 80.0296 32.8581 80.9222 32.43 82.6004C29.4218 84.6 26.1639 86.3496 24.2852 89.4799C23.2151 92.8006 25.3315 94.2408 27.7215 93.967C31.6453 92.3364 32.8581 88.8015 34.9626 85.8974C36.4489 85.4213 37.7093 84.7905 37.9352 83.4336"/>
</mask>
<path d="M38.2681 83.7193C58.1129 102.156 90.276 68.9248 49.1715 44.8467C79.7531 78.8632 50.3961 89.2895 39.7663 78.7917L39.2312 78.3514C38.7913 78.8394 38.3632 79.3273 37.9233 79.8153C37.1029 79.0417 35.8187 78.8036 35.4263 80.1367C33.8093 80.0296 32.8581 80.9222 32.43 82.6004C29.4218 84.6 26.1639 86.3496 24.2852 89.4799C23.2151 92.8006 25.3315 94.2408 27.7215 93.967C31.6453 92.3364 32.8581 88.8015 34.9626 85.8974C36.4489 85.4213 37.7093 84.7905 37.9352 83.4336" fill="#FFB84F"/>
<path d="M38.8126 83.1332C38.4889 82.8324 37.9827 82.8511 37.682 83.1747C37.3813 83.4984 37.3999 84.0046 37.7236 84.3054L38.8126 83.1332ZM49.1715 44.8467L49.5758 44.1564C49.2355 43.9571 48.8008 44.0354 48.5515 44.341C48.3023 44.6466 48.3129 45.0883 48.5765 45.3815L49.1715 44.8467ZM39.7663 78.7917L40.3284 78.2225C40.3112 78.2056 40.2933 78.1894 40.2747 78.1741L39.7663 78.7917ZM39.2312 78.3514L39.7396 77.7337C39.4093 77.4618 38.9235 77.4979 38.637 77.8157L39.2312 78.3514ZM37.9233 79.8153L37.3744 80.3974C37.5311 80.5451 37.7406 80.6234 37.9557 80.6147C38.1708 80.6059 38.3733 80.5109 38.5175 80.351L37.9233 79.8153ZM35.4263 80.1367L35.3735 80.9349C35.7472 80.9597 36.088 80.7219 36.1938 80.3626L35.4263 80.1367ZM32.43 82.6004L32.8729 83.2667C33.0378 83.157 33.1562 82.9901 33.2052 82.7982L32.43 82.6004ZM24.2852 89.4799L23.5993 89.0682C23.5678 89.1206 23.5425 89.1764 23.5238 89.2345L24.2852 89.4799ZM27.7215 93.967L27.8125 94.7618C27.8868 94.7533 27.9595 94.7345 28.0285 94.7058L27.7215 93.967ZM34.9626 85.8974L34.7186 85.1355C34.5563 85.1875 34.4148 85.2899 34.3148 85.4279L34.9626 85.8974ZM38.7243 83.565C38.7969 83.1292 38.5024 82.717 38.0666 82.6445C37.6307 82.5719 37.2186 82.8664 37.146 83.3022L38.7243 83.565ZM37.7236 84.3054C48.0563 93.9048 61.6451 90.0412 67.2626 80.6362C70.0818 75.9162 70.8895 69.8209 68.3435 63.3771C65.8033 56.9481 59.9533 50.2353 49.5758 44.1564L48.7671 45.537C58.9419 51.4971 64.4857 57.9675 66.8554 63.9651C69.2193 69.9479 68.4531 75.5228 65.889 79.8157C60.7398 88.4366 48.3247 91.9702 38.8126 83.1332L37.7236 84.3054ZM48.5765 45.3815C56.1758 53.8343 59.9831 60.7491 61.3217 66.1693C62.654 71.5642 61.5395 75.4458 59.3207 77.9857C57.0794 80.5514 53.6064 81.869 50.0139 81.9002C46.4217 81.9314 42.8107 80.674 40.3284 78.2225L39.2041 79.361C42.0368 82.1584 46.0816 83.5344 50.0278 83.5001C53.9737 83.4658 57.9217 82.0192 60.5257 79.0384C63.1522 76.0318 64.3072 71.5849 62.875 65.7857C61.4491 60.012 57.458 52.8673 49.7664 44.3118L48.5765 45.3815ZM40.2747 78.1741L39.7396 77.7337L38.7228 78.9691L39.2579 79.4094L40.2747 78.1741ZM38.637 77.8157C38.415 78.062 38.1962 78.308 37.9795 78.5517C37.7622 78.796 37.547 79.038 37.3291 79.2797L38.5175 80.351C38.7396 80.1047 38.9583 79.8587 39.175 79.615C39.3923 79.3707 39.6075 79.1287 39.8254 78.887L38.637 77.8157ZM38.4721 79.2333C37.9637 78.7539 37.2442 78.3697 36.4967 78.3862C36.1059 78.3948 35.7054 78.5155 35.3622 78.7944C35.0223 79.0706 34.7922 79.4578 34.6589 79.9108L36.1938 80.3626C36.2566 80.1491 36.3343 80.0662 36.3711 80.0362C36.4046 80.009 36.4501 79.9876 36.5319 79.9858C36.7297 79.9815 37.0624 80.1031 37.3744 80.3974L38.4721 79.2333ZM35.4792 79.3384C34.5035 79.2738 33.6445 79.511 32.9641 80.0896C32.3011 80.6533 31.893 81.4688 31.6548 82.4027L33.2052 82.7982C33.395 82.0539 33.6767 81.5839 34.0005 81.3085C34.3069 81.048 34.7321 80.8925 35.3735 80.9349L35.4792 79.3384ZM31.9872 81.9342C29.0776 83.8682 25.5969 85.7397 23.5993 89.0682L24.9712 89.8916C26.7308 86.9596 29.7659 85.3319 32.8729 83.2667L31.9872 81.9342ZM23.5238 89.2345C22.9314 91.0727 23.1669 92.5989 24.122 93.6183C25.0443 94.6028 26.4586 94.9169 27.8125 94.7618L27.6304 93.1722C26.5944 93.2909 25.7556 93.0218 25.2897 92.5245C24.8565 92.0621 24.5689 91.2079 25.0466 89.7253L23.5238 89.2345ZM28.0285 94.7058C30.1702 93.8157 31.561 92.4043 32.6709 90.8808C33.2206 90.1263 33.708 89.3347 34.1764 88.5734C34.6503 87.8034 35.105 87.0642 35.6104 86.3668L34.3148 85.4279C33.7679 86.1826 33.2818 86.9743 32.8138 87.7348C32.3403 88.5041 31.8847 89.2427 31.3776 89.9387C30.374 91.3164 29.1965 92.4877 27.4145 93.2283L28.0285 94.7058ZM35.2067 86.6592C36.6612 86.1933 38.4117 85.4428 38.7243 83.565L37.146 83.3022C37.0069 84.1381 36.2366 84.6492 34.7186 85.1355L35.2067 86.6592Z" fill="#FFB84F" mask="url(#path-5-outside-1)"/>
<rect y="121" width="300" height="57.9999" fill="white"/>
<rect y="124" width="300" height="51.9999" fill="#59AFFF"/>
</g>
<defs>
<clipPath id="clip0">
<rect width="300" height="300" fill="white"/>
</clipPath>
</defs>
</svg>
