<svg width="300" height="300" viewBox="0 0 300 300" fill="none" xmlns="http://www.w3.org/2000/svg">
<g clip-path="url(#clip0_118:621)">
<rect width="300" height="300" fill="white"/>
<rect width="300" height="300" fill="#FF4A4A"/>
<path d="M96.2221 23.8647L98.5 16.8541L100.778 23.8647C101.113 24.8948 102.072 25.5922 103.156 25.5922L110.527 25.5922L104.563 29.925C103.687 30.5616 103.32 31.6901 103.655 32.7201L105.933 39.7307L99.9695 35.3979C99.0932 34.7613 97.9068 34.7613 97.0305 35.3979L91.0669 39.7307L93.3448 32.7201C93.6795 31.69 93.3129 30.5616 92.4366 29.925L91.555 31.1385L92.4366 29.925L86.473 25.5922L93.8445 25.5922C94.9275 25.5922 95.8874 24.8948 96.2221 23.8647Z" stroke="#FFB84F" stroke-width="3"/>
<path d="M87.6021 53.4824C87.4846 53.4692 87.3672 53.5087 87.2815 53.5903L76.188 64.1594C76.11 64.2337 76.0652 64.3364 76.0639 64.4441C76.0626 64.5518 76.1047 64.6555 76.1809 64.7317L82.0903 70.6471C82.1655 70.7223 82.2675 70.7645 82.3738 70.7644C82.4801 70.7643 82.582 70.7219 82.6569 70.6465L87.4847 65.7913C94.1983 72.608 99.9118 78.4129 105.896 84.4928C108.671 87.3125 111.505 90.1913 114.523 93.2577C116.032 94.8207 118.105 94.5215 119.353 93.4147C119.979 92.8591 120.422 92.0841 120.489 91.2083C120.557 90.3245 120.24 89.3845 119.431 88.5163C119.426 88.5117 119.422 88.5071 119.417 88.5027C113.93 83.1508 109.359 78.609 104.647 73.9275C100.705 70.0106 96.6642 65.9958 91.906 61.327L97.9004 55.2925C98.0085 55.1836 98.0448 55.0225 97.9939 54.8778C97.943 54.7331 97.8137 54.6302 97.6613 54.6131L87.6021 53.4824Z" fill="#FFB84F" stroke="#FFB84F" stroke-width="0.8" stroke-linecap="round" stroke-linejoin="round"/>
<mask id="path-5-outside-1_118:621" maskUnits="userSpaceOnUse" x="73" y="43.8467" width="47" height="51" fill="black">
<rect fill="white" x="73" y="43.8467" width="47" height="51"/>
<path d="M88.2681 83.7193C108.113 102.156 140.276 68.9248 99.1715 44.8467C129.753 78.8632 100.396 89.2895 89.7663 78.7917L89.2312 78.3514C88.7913 78.8394 88.3632 79.3273 87.9233 79.8153C87.1029 79.0417 85.8187 78.8036 85.4263 80.1367C83.8093 80.0296 82.8581 80.9222 82.43 82.6004C79.4218 84.6 76.1639 86.3496 74.2852 89.4799C73.2151 92.8006 75.3315 94.2408 77.7215 93.967C81.6453 92.3364 82.8581 88.8015 84.9626 85.8974C86.4489 85.4213 87.7093 84.7905 87.9352 83.4336"/>
</mask>
<path d="M88.2681 83.7193C108.113 102.156 140.276 68.9248 99.1715 44.8467C129.753 78.8632 100.396 89.2895 89.7663 78.7917L89.2312 78.3514C88.7913 78.8394 88.3632 79.3273 87.9233 79.8153C87.1029 79.0417 85.8187 78.8036 85.4263 80.1367C83.8093 80.0296 82.8581 80.9222 82.43 82.6004C79.4218 84.6 76.1639 86.3496 74.2852 89.4799C73.2151 92.8006 75.3315 94.2408 77.7215 93.967C81.6453 92.3364 82.8581 88.8015 84.9626 85.8974C86.4489 85.4213 87.7093 84.7905 87.9352 83.4336" fill="#FFB84F"/>
<path d="M88.8126 83.1332C88.4889 82.8324 87.9827 82.8511 87.682 83.1747C87.3813 83.4984 87.3999 84.0046 87.7236 84.3054L88.8126 83.1332ZM99.1715 44.8467L99.5758 44.1564C99.2355 43.9571 98.8008 44.0354 98.5515 44.341C98.3023 44.6466 98.3129 45.0883 98.5765 45.3815L99.1715 44.8467ZM89.7663 78.7917L90.3284 78.2225C90.3112 78.2056 90.2933 78.1894 90.2747 78.1741L89.7663 78.7917ZM89.2312 78.3514L89.7396 77.7337C89.4093 77.4618 88.9235 77.4979 88.637 77.8157L89.2312 78.3514ZM87.9233 79.8153L87.3744 80.3974C87.5311 80.5451 87.7406 80.6234 87.9557 80.6147C88.1708 80.6059 88.3733 80.5109 88.5175 80.351L87.9233 79.8153ZM85.4263 80.1367L85.3735 80.9349C85.7472 80.9597 86.088 80.7219 86.1938 80.3626L85.4263 80.1367ZM82.43 82.6004L82.8729 83.2667C83.0378 83.157 83.1562 82.9901 83.2052 82.7982L82.43 82.6004ZM74.2852 89.4799L73.5993 89.0682C73.5678 89.1206 73.5425 89.1764 73.5238 89.2345L74.2852 89.4799ZM77.7215 93.967L77.8125 94.7618C77.8868 94.7533 77.9595 94.7345 78.0285 94.7058L77.7215 93.967ZM84.9626 85.8974L84.7186 85.1355C84.5563 85.1875 84.4148 85.2899 84.3148 85.4279L84.9626 85.8974ZM88.7243 83.565C88.7969 83.1292 88.5024 82.717 88.0666 82.6445C87.6307 82.5719 87.2186 82.8664 87.146 83.3022L88.7243 83.565ZM87.7236 84.3054C98.0563 93.9048 111.645 90.0412 117.263 80.6362C120.082 75.9162 120.89 69.8209 118.343 63.3771C115.803 56.9481 109.953 50.2353 99.5758 44.1564L98.7671 45.537C108.942 51.4971 114.486 57.9675 116.855 63.9651C119.219 69.9479 118.453 75.5228 115.889 79.8157C110.74 88.4366 98.3247 91.9702 88.8126 83.1332L87.7236 84.3054ZM98.5765 45.3815C106.176 53.8343 109.983 60.7491 111.322 66.1693C112.654 71.5642 111.54 75.4458 109.321 77.9857C107.079 80.5514 103.606 81.869 100.014 81.9002C96.4217 81.9314 92.8107 80.674 90.3284 78.2225L89.2041 79.361C92.0368 82.1584 96.0816 83.5344 100.028 83.5001C103.974 83.4658 107.922 82.0192 110.526 79.0384C113.152 76.0318 114.307 71.5849 112.875 65.7857C111.449 60.012 107.458 52.8673 99.7664 44.3118L98.5765 45.3815ZM90.2747 78.1741L89.7396 77.7337L88.7228 78.9691L89.2579 79.4094L90.2747 78.1741ZM88.637 77.8157C88.415 78.062 88.1962 78.308 87.9795 78.5517C87.7622 78.796 87.547 79.038 87.3291 79.2797L88.5175 80.351C88.7396 80.1047 88.9583 79.8587 89.175 79.615C89.3923 79.3707 89.6075 79.1287 89.8254 78.887L88.637 77.8157ZM88.4721 79.2333C87.9637 78.7539 87.2442 78.3697 86.4967 78.3862C86.1059 78.3948 85.7054 78.5155 85.3622 78.7944C85.0223 79.0706 84.7922 79.4578 84.6589 79.9108L86.1938 80.3626C86.2566 80.1491 86.3343 80.0662 86.3711 80.0362C86.4046 80.009 86.4501 79.9876 86.5319 79.9858C86.7297 79.9815 87.0624 80.1031 87.3744 80.3974L88.4721 79.2333ZM85.4792 79.3384C84.5035 79.2738 83.6445 79.511 82.9641 80.0896C82.3011 80.6533 81.893 81.4688 81.6548 82.4027L83.2052 82.7982C83.395 82.0539 83.6767 81.5839 84.0005 81.3085C84.3069 81.048 84.7321 80.8925 85.3735 80.9349L85.4792 79.3384ZM81.9872 81.9342C79.0776 83.8682 75.5969 85.7397 73.5993 89.0682L74.9712 89.8916C76.7308 86.9596 79.7659 85.3319 82.8729 83.2667L81.9872 81.9342ZM73.5238 89.2345C72.9314 91.0727 73.1669 92.5989 74.122 93.6183C75.0443 94.6028 76.4586 94.9169 77.8125 94.7618L77.6304 93.1722C76.5944 93.2909 75.7556 93.0218 75.2897 92.5245C74.8565 92.0621 74.5689 91.2079 75.0466 89.7253L73.5238 89.2345ZM78.0285 94.7058C80.1702 93.8157 81.561 92.4043 82.6709 90.8808C83.2206 90.1263 83.708 89.3347 84.1764 88.5734C84.6503 87.8034 85.105 87.0642 85.6104 86.3668L84.3148 85.4279C83.7679 86.1826 83.2818 86.9743 82.8138 87.7348C82.3403 88.5041 81.8847 89.2427 81.3776 89.9387C80.374 91.3164 79.1965 92.4877 77.4145 93.2283L78.0285 94.7058ZM85.2067 86.6592C86.6612 86.1933 88.4117 85.4428 88.7243 83.565L87.146 83.3022C87.0069 84.1381 86.2366 84.6492 84.7186 85.1355L85.2067 86.6592Z" fill="#FFB84F" mask="url(#path-5-outside-1_118:621)"/>
<rect y="218" width="300" height="81.9999" fill="#59AFFF"/>
</g>
<defs>
<clipPath id="clip0_118:621">
<rect width="300" height="300" fill="white"/>
</clipPath>
</defs>
</svg>
