<svg width="300" height="300" viewBox="0 0 300 300" fill="none" xmlns="http://www.w3.org/2000/svg">
<g clip-path="url(#clip0_118_14)">
<rect width="300" height="300" fill="white"/>
<rect x="500" y="300" width="500" height="300" transform="rotate(-180 500 300)" fill="white"/>
<rect x="300" y="142" width="300" height="142" transform="rotate(-180 300 142)" fill="#161616"/>
<path d="M148.014 80.6666C148.294 78.3155 151.706 78.3155 151.986 80.6666L155.086 106.683C155.315 108.606 157.869 109.114 158.816 107.425L171.636 84.5754C172.795 82.5104 175.947 83.8159 175.306 86.0953L168.214 111.318C167.69 113.182 169.855 114.628 171.376 113.431L191.965 97.2265C193.826 95.7621 196.238 98.1744 194.774 100.035L178.569 120.624C177.372 122.145 178.818 124.31 180.682 123.786L205.905 116.694C208.184 116.053 209.49 119.205 207.425 120.364L184.575 133.184C182.886 134.131 183.394 136.685 185.317 136.914L211.333 140.014C213.685 140.294 213.685 143.706 211.333 143.986L185.317 147.086C183.394 147.315 182.886 149.869 184.575 150.816L207.425 163.636C209.49 164.795 208.184 167.947 205.905 167.306L180.682 160.214C178.818 159.69 177.372 161.855 178.569 163.376L194.774 183.965C196.238 185.826 193.826 188.238 191.965 186.774L171.376 170.569C169.855 169.372 167.69 170.818 168.214 172.682L175.306 197.905C175.947 200.184 172.795 201.49 171.636 199.425L158.816 176.575C157.869 174.886 155.315 175.394 155.086 177.317L151.986 203.333C151.706 205.685 148.294 205.685 148.014 203.333L144.914 177.317C144.685 175.394 142.131 174.886 141.184 176.575L128.364 199.425C127.205 201.49 124.053 200.184 124.694 197.905L131.786 172.682C132.31 170.818 130.145 169.372 128.624 170.569L108.035 186.774C106.174 188.238 103.762 185.826 105.226 183.965L121.431 163.376C122.628 161.855 121.182 159.69 119.318 160.214L94.0953 167.306C91.816 167.947 90.5104 164.795 92.5753 163.636L115.425 150.816C117.114 149.869 116.606 147.315 114.683 147.086L88.6666 143.986C86.3155 143.706 86.3155 140.294 88.6666 140.014L114.683 136.914C116.606 136.685 117.114 134.131 115.425 133.184L92.5754 120.364C90.5104 119.205 91.8159 116.053 94.0953 116.694L119.318 123.786C121.182 124.31 122.628 122.145 121.431 120.624L105.226 100.035C103.762 98.1744 106.174 95.7621 108.035 97.2265L128.624 113.431C130.145 114.628 132.31 113.182 131.786 111.318L124.694 86.0953C124.053 83.816 127.205 82.5104 128.364 84.5753L141.184 107.425C142.131 109.114 144.685 108.606 144.914 106.683L148.014 80.6666Z" fill="#FFB84F"/>
<rect x="300" y="329" width="300" height="133" transform="rotate(-180 300 329)" fill="white"/>
<rect x="300" y="196" width="300" height="54" transform="rotate(-180 300 196)" fill="#3661F6"/>
<path d="M150 300L-0.000148748 300L0.000154961 0.000265073L150 300Z" fill="#EF4B4B"/>
<path d="M150 300.403L300 300.404L300 0.403585L150 300.403Z" fill="#EF4B4B"/>
</g>
<defs>
<clipPath id="clip0_118_14">
<rect width="300" height="300" fill="white"/>
</clipPath>
</defs>
</svg>
