<svg width="300" height="300" viewBox="0 0 300 300" fill="none" xmlns="http://www.w3.org/2000/svg">
<g clip-path="url(#clip0_118_14)">
<rect width="300" height="300" fill="white"/>
<rect x="500" y="300" width="500" height="300" transform="rotate(-180 500 300)" fill="white"/>
<rect x="300" y="142" width="300" height="142" transform="rotate(-180 300 142)" fill="#161616"/>
<path d="M146.641 85.3732C147.243 81.5437 152.757 81.5437 153.359 85.3732L155.412 98.4362C155.903 101.561 160.022 102.381 161.671 99.6813L168.567 88.3983C170.589 85.0906 175.683 87.2007 174.773 90.969L171.671 103.823C170.929 106.899 174.421 109.232 176.978 107.369L187.666 99.5838C190.8 97.3015 194.699 101.2 192.416 104.334L184.631 115.022C182.768 117.579 185.102 121.071 188.177 120.329L201.031 117.227C204.799 116.317 206.909 121.411 203.602 123.433L192.319 130.329C189.619 131.978 190.439 136.097 193.564 136.588L206.627 138.641C210.456 139.243 210.456 144.757 206.627 145.359L193.564 147.412C190.439 147.903 189.619 152.022 192.319 153.671L203.602 160.567C206.909 162.589 204.799 167.683 201.031 166.773L188.177 163.671C185.101 162.929 182.768 166.421 184.631 168.978L192.416 179.666C194.699 182.8 190.8 186.699 187.666 184.416L176.978 176.631C174.421 174.768 170.929 177.102 171.671 180.177L174.773 193.031C175.683 196.799 170.589 198.909 168.567 195.602L161.671 184.319C160.022 181.619 155.903 182.439 155.412 185.564L153.359 198.627C152.757 202.456 147.243 202.456 146.641 198.627L144.588 185.564C144.097 182.439 139.978 181.619 138.329 184.319L131.433 195.602C129.411 198.909 124.317 196.799 125.227 193.031L128.329 180.177C129.071 177.101 125.579 174.768 123.022 176.631L112.334 184.416C109.2 186.699 105.301 182.8 107.584 179.666L115.369 168.978C117.232 166.421 114.899 162.929 111.823 163.671L98.969 166.773C95.2007 167.683 93.0906 162.589 96.3983 160.567L107.681 153.671C110.381 152.022 109.561 147.903 106.436 147.412L93.3732 145.359C89.5437 144.757 89.5437 139.243 93.3732 138.641L106.436 136.588C109.561 136.097 110.381 131.978 107.681 130.329L96.3983 123.433C93.0906 121.411 95.2007 116.317 98.969 117.227L111.823 120.329C114.899 121.071 117.232 117.579 115.369 115.022L107.584 104.334C105.301 101.2 109.2 97.3015 112.334 99.5838L123.022 107.369C125.579 109.232 129.071 106.899 128.329 103.823L125.227 90.969C124.317 87.2007 129.411 85.0906 131.433 88.3983L138.329 99.6813C139.978 102.381 144.097 101.561 144.588 98.4362L146.641 85.3732Z" fill="#FFB84F"/>
<rect x="300" y="329" width="300" height="133" transform="rotate(-180 300 329)" fill="white"/>
<rect x="300" y="196" width="300" height="54" transform="rotate(-180 300 196)" fill="#3661F6"/>
<path d="M150 300L-0.000148748 300L0.000154961 0.000265073L150 300Z" fill="#EF4B4B"/>
<path d="M150 300.403L300 300.404L300 0.403585L150 300.403Z" fill="#EF4B4B"/>
<rect x="105" y="265" width="100" height="35" fill="#EF4B4B"/>
<path d="M141.986 283.971L125.511 251.023C122.299 244.597 127.539 237.183 134.669 238.066L165.815 241.927C171.995 242.694 175.548 249.353 172.743 254.912L158.071 284C154.737 290.608 145.296 290.592 141.986 283.971Z" fill="white"/>
</g>
<defs>
<clipPath id="clip0_118_14">
<rect width="300" height="300" fill="white"/>
</clipPath>
</defs>
</svg>
