<svg width="300" height="300" viewBox="0 0 300 300" fill="none" xmlns="http://www.w3.org/2000/svg">
<g clip-path="url(#clip0)">
<rect width="300" height="300" fill="white"/>
<rect x="500" y="300" width="500" height="300" transform="rotate(-180 500 300)" fill="white"/>
<rect x="300" y="142" width="300" height="142" transform="rotate(-180 300 142)" fill="#161616"/>
<path d="M149.007 72.3333C149.147 71.1577 150.853 71.1577 150.993 72.3333L155.449 109.731C155.564 110.692 156.841 110.946 157.314 110.102L175.743 77.2564C176.322 76.2239 177.898 76.8767 177.578 78.0164L167.383 114.273C167.121 115.205 168.204 115.928 168.964 115.329L198.56 92.0361C199.49 91.3039 200.696 92.51 199.964 93.4404L176.671 123.036C176.072 123.796 176.795 124.879 177.727 124.617L213.984 114.422C215.123 114.102 215.776 115.678 214.744 116.257L181.898 134.686C181.054 135.159 181.308 136.436 182.269 136.551L219.667 141.007C220.842 141.147 220.842 142.853 219.667 142.993L182.269 147.449C181.308 147.564 181.054 148.841 181.898 149.314L214.744 167.743C215.776 168.322 215.123 169.898 213.984 169.578L177.727 159.383C176.795 159.121 176.072 160.204 176.671 160.964L199.964 190.56C200.696 191.49 199.49 192.696 198.56 191.964L168.964 168.671C168.204 168.072 167.121 168.795 167.383 169.727L177.578 205.984C177.898 207.123 176.322 207.776 175.743 206.744L157.314 173.898C156.841 173.054 155.564 173.308 155.449 174.269L150.993 211.667C150.853 212.842 149.147 212.842 149.007 211.667L144.551 174.269C144.436 173.308 143.159 173.054 142.686 173.898L124.257 206.744C123.678 207.776 122.102 207.123 122.422 205.984L132.617 169.727C132.879 168.795 131.796 168.072 131.036 168.671L101.44 191.964C100.51 192.696 99.3039 191.49 100.036 190.56L123.329 160.964C123.928 160.204 123.205 159.121 122.273 159.383L86.0164 169.578C84.8767 169.898 84.2239 168.322 85.2564 167.743L118.102 149.314C118.946 148.841 118.692 147.564 117.731 147.449L80.3333 142.993C79.1577 142.853 79.1577 141.147 80.3333 141.007L117.731 136.551C118.692 136.436 118.946 135.159 118.102 134.686L85.2564 116.257C84.2239 115.678 84.8767 114.102 86.0164 114.422L122.273 124.617C123.205 124.879 123.928 123.796 123.329 123.036L100.036 93.4404C99.3039 92.5101 100.51 91.3039 101.44 92.0361L131.036 115.329C131.796 115.928 132.879 115.205 132.617 114.273L122.422 78.0164C122.102 76.8767 123.678 76.2239 124.257 77.2564L142.686 110.102C143.159 110.946 144.436 110.692 144.551 109.731L149.007 72.3333Z" fill="#FFB84F"/>
<rect x="300" y="329" width="300" height="133" transform="rotate(-180 300 329)" fill="white"/>
<rect x="300" y="196" width="300" height="54" transform="rotate(-180 300 196)" fill="#3661F6"/>
<path d="M150 300L-0.000148748 300L0.000154961 0.000265073L150 300Z" fill="#EF4B4B"/>
<path d="M150 300.403L300 300.404L300 0.403585L150 300.403Z" fill="#EF4B4B"/>
</g>
<defs>
<clipPath id="clip0">
<rect width="300" height="300" fill="white"/>
</clipPath>
</defs>
</svg>
