<svg width="300" height="300" viewBox="0 0 300 300" fill="none" xmlns="http://www.w3.org/2000/svg">
<g clip-path="url(#clip0_118_1544)">
<rect width="300" height="300" fill="#EF4B4B"/>
<rect width="300" height="300" fill="#EF4B4B"/>
<path fill-rule="evenodd" clip-rule="evenodd" d="M161.089 227.916C158.4 225.594 155.141 220.893 155.187 216.361C155.428 212.981 157.755 211.018 159.258 215.143C161.384 219.696 165.942 227.226 172.224 222.809C174.949 220.817 174.926 217.891 171.243 218.18C171.191 218.185 171.136 218.186 171.083 218.182C166.506 217.843 163.678 215.312 161.613 208.865C161.592 208.8 161.578 208.73 161.571 208.663C161.233 205.162 162.73 205.273 164.811 207.57C167.512 210.658 172.888 215.324 178.82 212.823C182.098 211.454 183.036 208.638 178.145 207.92C178.094 207.913 178.04 207.91 177.989 207.91C173.31 207.944 169.483 204.908 165.673 200.29C163.593 197.746 166.613 195.177 168.478 197.254C168.513 197.293 168.55 197.331 168.59 197.366C170.245 198.796 172.537 201.353 174.505 201.71C176.784 202.155 179.605 201.94 182.73 200.318C182.792 200.285 182.852 200.245 182.906 200.199C186.192 197.412 185.107 195.399 181.07 194.914C181.016 194.907 180.96 194.905 180.905 194.908C177.75 195.083 175.997 196.253 171.895 193.528C164.457 188.521 158.544 181.831 157.621 173.783C157.014 168.49 159.871 166.887 162.246 167.497C168.708 169.152 172.934 181.178 177.405 187.785C178.835 189.645 180.151 189.718 181.098 189.173C181.142 189.147 181.184 189.116 181.223 189.083C182.865 187.68 184.208 186.501 185.815 184.981C186.046 184.761 186.361 184.663 186.675 184.72C188.792 185.11 197.306 186.714 203.672 188.47C204.593 188.724 204.618 189.975 203.718 190.293L198.944 191.983C198.676 192.078 198.38 192.049 198.119 191.933C195.379 190.716 192.289 192.174 191.899 194.62C191.848 194.945 191.692 195.252 191.434 195.456C189.938 196.636 189.475 197.926 189.621 199.24C189.721 200.146 190.8 200.006 191.254 199.215C191.631 198.558 192.205 198.035 193.16 197.853C193.327 197.821 193.5 197.85 193.661 197.907C196.526 198.938 199.722 197.509 200.3 195.415C200.41 195.018 200.644 194.642 201.028 194.492L209.357 191.231C209.637 191.122 209.951 191.144 210.213 191.291L218.794 196.13C219.109 196.308 219.295 196.643 219.335 197.001C219.674 200.03 222.683 201.048 225.912 200.315C226.183 200.254 226.471 200.289 226.696 200.451C227.392 200.953 227.975 201.59 228.453 202.311C228.982 203.109 230.308 203.075 230.327 202.117C230.35 200.997 230.023 200.069 229.326 199.304C229.064 199.016 228.94 198.623 228.969 198.235C229.214 195.018 224.921 192.179 221.306 193.82C220.979 193.968 220.598 193.978 220.287 193.8L217.045 191.946C216.168 191.444 216.504 190.106 217.514 190.078L225.055 189.868C225.424 189.857 225.76 190.062 226.006 190.338C227.622 192.152 231.586 192.194 233.125 190.198C233.288 189.987 233.499 189.808 233.758 189.747C234.299 189.619 234.836 189.557 235.51 189.732C236.424 189.969 237.411 189.245 236.833 188.498C236.148 187.613 235.262 187.141 234.171 187.021C233.813 186.982 233.488 186.789 233.259 186.511C231.403 184.255 226.677 184.237 225.293 186.681C225.074 187.068 224.707 187.383 224.263 187.395L216.119 187.621C215.13 187.648 214.706 186.377 215.513 185.805L219.528 182.958C219.849 182.73 220.271 182.722 220.636 182.868C223.198 183.89 226.416 182.296 227.238 179.739C227.284 179.598 227.35 179.462 227.45 179.352C228.068 178.673 228.78 178.217 229.769 178.125C230.68 178.04 231.382 177.076 230.589 176.619C229.497 175.989 228.099 176.006 226.2 176.797C225.857 176.939 225.465 176.893 225.142 176.71C222.411 175.163 219.182 177.165 218.974 179.217C218.931 179.639 218.792 180.079 218.441 180.317L209.797 186.174C209.549 186.342 209.242 186.391 208.955 186.307C203.485 184.698 194.984 182.478 191.426 181.558C190.686 181.366 190.427 180.451 190.964 179.907C192.054 178.801 193.149 177.72 194.231 176.572C194.284 176.517 194.331 176.456 194.364 176.386C194.793 175.474 193.982 174.452 192.871 174.233C181.585 171.913 175.124 167.382 171.208 155.864C169.571 151.041 173.111 149.6 174.328 152.55C176.011 156.653 177.868 161.138 182.936 164.611C184.683 165.828 189.886 164.834 186.809 161.927C183.642 159.329 182.268 158.202 180.71 151.95C180.69 151.872 180.679 151.788 180.681 151.707C180.763 148.608 183.926 147.235 185.752 150.149C185.794 150.216 185.827 150.291 185.85 150.367C187.784 156.618 188.004 159.337 191.544 163.393C194.243 166.481 197.762 168.556 199.509 168.509C202.636 168.466 205.784 165.118 201.68 162.665C201.637 162.64 201.589 162.616 201.543 162.598C195.421 160.144 193.178 156.8 192.273 153.609C191.285 148.058 192.351 145.352 195.683 148.012C195.726 148.046 195.766 148.084 195.803 148.126C200.617 153.572 209.73 163.634 214.512 168.329C219.87 172.416 226.014 172.564 230.917 168.446C230.955 168.414 230.992 168.377 231.025 168.339C233.775 165.132 232.763 161.708 228.387 162.446C218.452 163.281 210.929 158.368 202.675 145.089C201.07 142.114 200.622 137.85 204.102 140.92C204.153 140.964 204.201 141.016 204.241 141.07C208.352 146.579 214.319 151.255 219.87 153.274C225.468 155.277 230.091 154.171 231.883 152.417C234.044 150.265 233.476 144.844 229.737 146.151C226.66 147.233 222.324 147.503 217.811 145.767C213.316 144.016 208.648 140.257 203.694 133.887C203.649 133.829 203.61 133.765 203.579 133.698C201.947 130.147 202.498 127.178 205.834 128.925C205.895 128.957 205.954 128.997 206.006 129.041C214.161 135.909 224.644 141.451 230.002 138.104C233.964 135.647 234.031 129.336 229.008 129.742C218.894 131.115 215.067 128.885 205.352 120.344C203.141 118.697 203.294 114.526 206.812 117.188C214.978 122.44 226.13 124.49 230.512 121.741C234.436 119.294 233.88 111.837 227.316 114.404C227.265 114.424 227.213 114.45 227.166 114.479C221.873 117.659 216.009 117.532 204.312 109.208C201.348 106.752 203.559 103.549 205.992 104.925C215.442 110.289 229.207 112.588 232.79 101.679C234.183 97.5107 231.662 95.0758 227.966 97.9609C219.845 105.444 210.639 101.769 205.486 98.0044C204.01 97.138 201.302 92.7524 206.059 93.5662C218.322 96.3522 230.451 93.943 232.724 85.3356C232.739 85.2782 232.759 85.2216 232.783 85.167C233.982 82.3368 231.462 77.489 227.014 81.6205C221.133 87.4102 214.898 87.6348 207.069 87.5937C207.002 87.5933 206.933 87.5862 206.868 87.5714C203.002 86.6942 202.947 82.45 206.175 81.7327C206.245 81.7173 206.317 81.7114 206.389 81.7126C212.569 81.8128 218.657 79.1228 223.541 76.3898C228.344 73.641 232.326 69.7862 233.589 64.444C234.362 59.6666 229.737 54.5948 226.95 59.6666C222.921 66.9232 214.102 73.772 204.225 75.2426C203.834 75.3009 203.453 75.1098 203.239 74.7769C202.586 73.7614 201.441 72.3056 200.085 72.8302C197.109 73.9797 193.563 75.5176 189.912 77.2449C182.042 80.9673 178.762 82.7613 179.707 89.1928C180.693 95.904 175.499 100.145 171.208 98.9737C167.466 97.9705 165.402 94.6038 166.073 88.7644C166.61 84.1115 171.3 78.4833 176.585 75.532C180.006 73.6248 185.171 72.5816 191.389 71.2056C193.515 70.7885 195.055 70.1427 196.036 69.3847C196.735 68.8437 196.028 68.1994 195.19 68.4838C194.046 68.8723 192.481 69.1942 190.593 69.0651C189.404 68.9805 188.453 68.6306 187.779 68.1727C187.217 67.791 187.519 67.0843 188.199 67.0756C189.638 67.057 191.503 67.2394 193.225 67.2394C196.321 67.2148 203.479 66.529 205.464 62.2414C205.493 62.178 205.515 62.1086 205.528 62.0399C206.058 59.2475 204.18 58.764 202.431 60.5892C200.528 62.5865 199.744 64.3818 195.926 65.0523C194.033 65.3841 192.139 65.7593 189.885 65.4966C189.146 65.4105 188.863 64.5458 189.404 64.0348C191.024 62.5039 193.103 61.2575 194.929 61.5581C195.139 61.5929 195.369 61.6721 195.608 61.7953C196.425 62.2167 197.659 61.8873 197.432 60.9958C196.928 59.0146 195.035 57.5331 189.875 58.19C189.236 58.2714 188.627 57.7185 188.228 57.2131C186.993 55.6518 183.161 54.9634 180.68 55.0015C178.969 55.0447 175.495 56.0435 172.957 57.244C172.913 57.2649 172.868 57.2825 172.821 57.2968C169.53 58.3087 166.267 59.0918 162.618 59.5256C161.73 59.6312 161.37 60.7555 162.079 61.3011C162.977 61.9922 163.643 62.4299 164.609 63.095C165.267 63.5486 165.139 64.565 164.426 64.9267C162.012 66.1509 160.014 67.8657 158.635 69.3941C158.086 70.0029 158.557 70.9149 159.377 70.9255C159.805 70.931 160.266 70.9424 160.723 70.9633C161.654 71.006 161.69 71.8508 160.804 72.1394C158.243 72.9734 156.534 73.7599 154.891 75.0966C154.265 75.6063 154.572 76.5769 155.36 76.7562C155.783 76.8527 156.16 76.9525 156.404 77.0451C157.026 77.2689 156.864 77.6755 156.361 78.0578C155.421 78.7725 151.924 82.7686 150.165 84.6196C149.799 85.0054 149.202 85.0054 148.835 84.6196C147.076 82.7686 143.58 78.7725 142.64 78.0578C142.137 77.6755 141.975 77.2689 142.597 77.0451C142.841 76.9526 143.217 76.8529 143.641 76.7564C144.428 76.5771 144.736 75.6063 144.109 75.0966C142.467 73.7599 140.758 72.9734 138.197 72.1394C137.311 71.8508 137.347 71.006 138.278 70.9633C138.734 70.9424 139.196 70.931 139.623 70.9255C140.443 70.9149 140.914 70.0026 140.365 69.3938C138.986 67.8655 136.988 66.1509 134.575 64.9268C133.861 64.5651 133.734 63.5486 134.392 63.095C135.358 62.4298 136.024 61.9921 136.922 61.3008C137.631 60.7551 137.271 59.6309 136.383 59.5254C132.734 59.0918 129.47 58.3086 126.179 57.2964C126.132 57.2821 126.087 57.2644 126.043 57.2436C123.506 56.0435 120.032 55.0447 118.321 55.0015C115.84 54.9634 112.008 55.6518 110.773 57.2127C110.373 57.7181 109.765 58.271 109.126 58.1897C103.966 57.5329 102.073 59.0145 101.569 60.9958C101.342 61.8873 102.575 62.2166 103.393 61.7954C103.632 61.6723 103.862 61.5932 104.072 61.5585C105.898 61.2576 107.977 62.5038 109.597 64.0347C110.137 64.5458 109.855 65.4105 109.115 65.4967C106.862 65.7593 104.968 65.3842 103.075 65.0527C99.2569 64.3822 98.4731 62.5865 96.5697 60.5897C94.8205 58.764 92.9426 59.2475 93.4726 62.0403C93.4856 62.109 93.5076 62.1784 93.537 62.2419C95.5217 66.529 102.679 67.2148 105.776 67.2394C107.498 67.2394 109.364 67.0567 110.803 67.0754C111.482 67.0842 111.785 67.7906 111.223 68.1723C110.549 68.6305 109.598 68.9804 108.408 69.0651C106.52 69.1942 104.955 68.8723 103.811 68.484C102.973 68.1996 102.266 68.8439 102.965 69.3849C103.946 70.1427 105.485 70.7883 107.612 71.2056C113.83 72.5816 118.995 73.6253 122.416 75.5324C127.701 78.4833 132.391 84.1115 132.928 88.7644C133.598 94.6034 131.534 97.9705 127.792 98.9737C123.502 100.145 118.307 95.904 119.294 89.1928C120.239 82.7613 116.959 80.9673 109.089 77.2449C105.438 75.5176 101.892 73.9793 98.9155 72.8298C97.5594 72.3055 96.4147 73.7617 95.7616 74.777C95.5475 75.1099 95.1672 75.3009 94.7757 75.2426C84.8992 73.772 76.0799 66.9233 72.0507 59.6666C69.2635 54.5948 64.638 59.6666 65.4122 64.444C66.6747 69.7866 70.6571 73.641 75.4597 76.3898C80.3442 79.1228 86.4314 81.8128 92.6123 81.7126C92.6834 81.7114 92.7562 81.7173 92.8256 81.7327C96.0534 82.45 95.9984 86.6942 92.1327 87.5714C92.0676 87.5862 91.9988 87.5933 91.9321 87.5937C84.1028 87.6348 77.868 87.4102 71.9865 81.6205C67.5381 77.489 65.0187 82.3368 66.2183 85.167C66.2415 85.2216 66.2616 85.2782 66.2768 85.3356C68.5496 93.9426 80.679 96.3522 92.9418 93.5662C97.698 92.752 94.9907 97.1384 93.5144 98.0049C88.3617 101.769 79.1558 105.444 71.0352 97.9613C67.3396 95.0758 64.8172 97.5107 66.2113 101.679C69.7942 112.588 83.5588 110.289 93.0087 104.925C95.4423 103.549 97.653 106.752 94.6891 109.208C82.992 117.532 77.1285 117.659 71.8349 114.479C71.7879 114.45 71.7356 114.424 71.6846 114.404C65.1213 111.837 64.565 119.294 68.4893 121.741C72.8708 124.49 84.0226 122.44 92.1886 117.188C95.7076 114.526 95.8598 118.697 93.6487 120.344C83.9338 128.885 80.107 131.115 69.9926 129.742C64.9698 129.336 65.0371 135.646 68.9986 138.104C74.357 141.45 84.8391 135.909 92.994 129.041C93.0463 128.997 93.1053 128.957 93.1659 128.925C96.5029 127.178 97.0537 130.147 95.4219 133.698C95.3913 133.765 95.3518 133.829 95.3067 133.887C90.3529 140.257 85.6845 144.016 81.1894 145.767C76.6767 147.503 72.3406 147.233 69.2639 146.151C65.525 144.844 64.9566 150.265 67.1171 152.417C68.9107 154.171 73.5327 155.277 79.1313 153.274C84.6814 151.255 90.6485 146.579 94.7603 141.07C94.8003 141.016 94.8483 140.964 94.8984 140.92C98.3782 137.85 97.9304 142.114 96.3262 145.089C88.0719 158.368 80.5494 163.281 70.6143 162.446C66.2375 161.708 65.2261 165.132 67.9756 168.339C68.0082 168.377 68.045 168.414 68.0833 168.446C72.9866 172.564 79.131 172.416 84.4886 168.329C89.2707 163.634 98.3834 153.572 103.198 148.126C103.234 148.084 103.274 148.046 103.318 148.012C106.65 145.352 107.715 148.058 106.728 153.609C105.822 156.8 103.58 160.144 97.4584 162.598C97.4119 162.616 97.3638 162.64 97.3208 162.665C93.216 165.119 96.364 168.465 99.4916 168.508C101.239 168.556 104.758 166.481 107.457 163.393C110.996 159.337 111.217 156.618 113.151 150.367C113.174 150.291 113.207 150.216 113.249 150.149C115.075 147.235 118.238 148.608 118.319 151.706C118.322 151.787 118.311 151.871 118.291 151.95C116.733 158.202 115.358 159.329 112.192 161.927C109.115 164.834 114.318 165.828 116.065 164.611C121.133 161.138 122.989 156.653 124.672 152.55C125.889 149.6 129.43 151.041 127.792 155.864C123.877 167.381 117.416 171.913 106.13 174.233C105.019 174.452 104.208 175.474 104.637 176.386C104.669 176.455 104.717 176.517 104.769 176.572C105.852 177.72 106.947 178.801 108.037 179.907C108.574 180.451 108.315 181.366 107.575 181.558C104.017 182.478 95.5152 184.698 90.0457 186.307C89.7582 186.391 89.4511 186.342 89.203 186.174L80.5596 180.317C80.2083 180.079 80.0689 179.639 80.0262 179.217C79.8181 177.164 76.5894 175.163 73.8579 176.709C73.535 176.892 73.1431 176.939 72.8004 176.796C70.9016 176.006 69.5031 175.989 68.4117 176.619C67.6188 177.076 68.3206 178.04 69.2319 178.125C70.2202 178.217 70.9319 178.673 71.5499 179.352C71.6499 179.462 71.7167 179.597 71.7622 179.739C72.5849 182.296 75.802 183.89 78.3638 182.868C78.7295 182.722 79.1512 182.73 79.4724 182.957L83.4883 185.806C84.2948 186.378 83.8704 187.648 82.882 187.621L74.7374 187.395C74.2936 187.383 73.9265 187.068 73.7077 186.681C72.3237 184.238 67.5969 184.255 65.741 186.511C65.5123 186.789 65.1871 186.982 64.8291 187.021C63.7388 187.141 62.8522 187.613 62.1667 188.499C61.5888 189.246 62.5754 189.969 63.4897 189.732C64.1642 189.557 64.7014 189.619 65.2422 189.747C65.5014 189.808 65.7128 189.987 65.8754 190.198C67.4143 192.194 71.3781 192.152 72.9937 190.338C73.2398 190.062 73.5755 189.857 73.9454 189.868L81.4867 190.078C82.4968 190.106 82.8324 191.444 81.9552 191.946L78.7136 193.8C78.4023 193.978 78.0214 193.968 77.6948 193.82C74.0795 192.179 69.787 195.018 70.0312 198.235C70.0607 198.623 69.9367 199.016 69.6744 199.304C68.977 200.068 68.6501 200.996 68.6729 202.117C68.6923 203.075 70.018 203.109 70.5478 202.31C71.0257 201.59 71.6089 200.952 72.3048 200.451C72.5298 200.289 72.8181 200.253 73.0885 200.315C76.3174 201.048 79.3267 200.03 79.6657 197.001C79.7059 196.642 79.8919 196.307 80.2062 196.13L88.7875 191.291C89.0492 191.144 89.3634 191.122 89.6432 191.231L97.9731 194.492C98.3564 194.642 98.5911 195.018 98.7006 195.415C99.2785 197.509 102.475 198.938 105.34 197.907C105.5 197.85 105.673 197.821 105.841 197.853C106.796 198.035 107.369 198.558 107.746 199.215C108.2 200.006 109.28 200.146 109.38 199.241C109.525 197.926 109.063 196.636 107.566 195.456C107.308 195.252 107.153 194.945 107.101 194.62C106.711 192.174 103.622 190.716 100.881 191.933C100.62 192.049 100.325 192.078 100.056 191.983L95.2829 190.293C94.382 189.975 94.4069 188.724 95.3282 188.47C101.694 186.714 110.209 185.11 112.326 184.721C112.64 184.663 112.955 184.762 113.186 184.981C114.792 186.5 116.135 187.68 117.778 189.083C117.817 189.116 117.858 189.147 117.903 189.173C118.85 189.718 120.166 189.645 121.596 187.785C126.066 181.178 130.293 169.152 136.754 167.497C139.13 166.887 141.987 168.49 141.38 173.783C140.456 181.831 134.543 188.521 127.106 193.528C123.004 196.253 121.251 195.083 118.096 194.908C118.041 194.905 117.985 194.907 117.931 194.914C113.894 195.399 112.809 197.412 116.095 200.199C116.148 200.245 116.209 200.285 116.271 200.318C119.396 201.94 122.217 202.155 124.496 201.71C126.464 201.353 128.756 198.796 130.41 197.366C130.45 197.331 130.488 197.293 130.523 197.254C132.388 195.177 135.408 197.746 133.327 200.29C129.518 204.908 125.691 207.944 121.011 207.91C120.96 207.91 120.906 207.913 120.855 207.92C115.965 208.638 116.902 211.454 120.181 212.823C126.112 215.324 131.488 210.658 134.19 207.57C136.271 205.273 137.768 205.162 137.43 208.663C137.423 208.73 137.409 208.8 137.388 208.865C135.323 215.312 132.495 217.843 127.918 218.182C127.865 218.186 127.81 218.185 127.757 218.18C124.075 217.891 124.052 220.817 126.777 222.809C133.059 227.226 137.617 219.696 139.743 215.143C141.246 211.019 143.572 212.981 143.814 216.361C143.859 220.893 140.6 225.594 137.912 227.916C135.588 229.924 145.949 241.235 148.794 244.257C149.182 244.669 149.818 244.669 150.206 244.258C153.051 241.235 163.413 229.924 161.089 227.916ZM180.22 60.7408C177.998 60.7408 176.625 61.5158 176.625 62.4563C176.625 63.4116 177.998 64.1902 180.22 64.1902C182.429 64.1902 183.832 63.3411 183.832 62.3845C183.832 61.444 182.428 60.7408 180.22 60.7408ZM118.781 60.7408C121.003 60.7408 122.376 61.5158 122.376 62.4563C122.376 63.4116 121.003 64.1902 118.781 64.1902C116.572 64.1902 115.169 63.3411 115.169 62.3845C115.169 61.444 116.572 60.7408 118.781 60.7408Z" fill="#2B2B2B" stroke="#2B2B2B" stroke-width="4" stroke-linejoin="round"/>
</g>
<defs>
<clipPath id="clip0_118_1544">
<rect width="300" height="300" fill="white"/>
</clipPath>
</defs>
</svg>
