<svg width="300" height="300" viewBox="0 0 300 300" fill="none" xmlns="http://www.w3.org/2000/svg">
<g clip-path="url(#clip0_118_23)">
<rect width="300" height="300" fill="white"/>
<rect x="300" y="100" width="300" height="100" transform="rotate(-180 300 100)" fill="#3661F6"/>
<rect x="300" y="300" width="300" height="100" transform="rotate(-180 300 300)" fill="#3661F6"/>
<path d="M161.015 119.926C163.238 117.318 167.471 119.406 166.754 122.757L163.918 136.01C163.488 138.021 164.982 139.932 167.038 139.999L180.583 140.44C184.008 140.552 185.015 145.164 181.948 146.692L169.818 152.738C167.978 153.656 167.415 156.015 168.645 157.664L176.745 168.53C178.793 171.277 175.815 174.939 172.708 173.495L160.418 167.781C158.553 166.914 156.358 167.946 155.835 169.935L152.39 183.043C151.519 186.357 146.8 186.312 145.992 182.982L142.796 169.811C142.311 167.812 140.136 166.739 138.255 167.571L125.859 173.05C122.725 174.435 119.818 170.717 121.917 168.009L130.222 157.299C131.483 155.674 130.965 153.304 129.143 152.352L117.13 146.077C114.093 144.49 115.187 139.899 118.613 139.852L132.165 139.668C134.221 139.64 135.751 137.758 135.359 135.739L132.776 122.434C132.123 119.071 136.394 117.063 138.567 119.713L147.161 130.193C148.465 131.783 150.89 131.806 152.224 130.241L161.015 119.926Z" fill="#DAA75B"/>
<path d="M146.301 117.986C147.14 114.664 151.86 114.664 152.699 117.986L156.02 131.126C156.524 133.12 158.709 134.173 160.582 133.323L172.925 127.727C176.046 126.312 178.989 130.002 176.915 132.729L168.712 143.518C167.467 145.155 168.007 147.52 169.839 148.455L181.911 154.616C184.962 156.173 183.912 160.775 180.487 160.854L166.937 161.167C164.881 161.215 163.369 163.111 163.78 165.126L166.49 178.406C167.175 181.763 162.922 183.811 160.725 181.182L152.032 170.784C150.713 169.206 148.287 169.206 146.968 170.784L138.275 181.182C136.078 183.811 131.825 181.763 132.51 178.406L135.22 165.126C135.631 163.111 134.119 161.215 132.063 161.167L118.513 160.854C115.088 160.775 114.038 156.173 117.09 154.616L129.161 148.455C130.993 147.52 131.533 145.155 130.288 143.518L122.085 132.729C120.011 130.002 122.954 126.312 126.075 127.727L138.418 133.323C140.291 134.173 142.476 133.12 142.98 131.126L146.301 117.986Z" fill="#F0F359"/>
</g>
<defs>
<clipPath id="clip0_118_23">
<rect width="300" height="300" fill="white"/>
</clipPath>
</defs>
</svg>
