<svg width="300" height="300" viewBox="0 0 300 300" fill="none" xmlns="http://www.w3.org/2000/svg">
<g clip-path="url(#clip0_118_23)">
<rect width="300" height="300" fill="white"/>
<rect x="300" y="100" width="300" height="100" transform="rotate(-180 300 100)" fill="#3661F6"/>
<rect x="300" y="300" width="300" height="100" transform="rotate(-180 300 300)" fill="#3661F6"/>
<path d="M161.785 119.022C163.806 116.652 167.654 118.55 167.002 121.596L163.843 136.361C163.452 138.189 164.81 139.926 166.679 139.987L181.77 140.479C184.883 140.581 185.798 144.773 183.011 146.163L169.497 152.898C167.824 153.732 167.313 155.877 168.43 157.376L177.455 169.482C179.316 171.979 176.609 175.309 173.785 173.995L160.093 167.63C158.397 166.842 156.402 167.779 155.927 169.588L152.089 184.191C151.297 187.204 147.006 187.163 146.272 184.136L142.712 169.462C142.271 167.645 140.294 166.67 138.584 167.426L124.773 173.53C121.924 174.789 119.281 171.409 121.19 168.948L130.442 157.016C131.588 155.538 131.118 153.384 129.461 152.518L116.078 145.527C113.317 144.085 114.311 139.911 117.426 139.868L132.524 139.663C134.393 139.637 135.784 137.926 135.428 136.091L132.549 121.269C131.956 118.211 135.839 116.386 137.814 118.795L147.388 130.47C148.574 131.916 150.779 131.937 151.991 130.514L161.785 119.022Z" fill="#DAA75B"/>
<path d="M146.591 116.835C147.355 113.815 151.645 113.815 152.409 116.835L156.108 131.474C156.566 133.287 158.552 134.244 160.255 133.472L174.007 127.236C176.844 125.95 179.519 129.305 177.634 131.784L168.495 143.804C167.363 145.292 167.854 147.442 169.519 148.292L182.968 155.155C185.742 156.571 184.788 160.755 181.674 160.827L166.578 161.176C164.709 161.219 163.335 162.943 163.708 164.775L166.727 179.569C167.35 182.621 163.484 184.483 161.486 182.093L151.802 170.509C150.602 169.074 148.398 169.074 147.198 170.509L137.514 182.093C135.516 184.483 131.65 182.621 132.273 179.569L135.292 164.775C135.666 162.943 134.291 161.219 132.422 161.176L117.326 160.827C114.212 160.755 113.258 156.571 116.032 155.155L129.481 148.292C131.146 147.442 131.637 145.292 130.505 143.804L121.366 131.784C119.481 129.305 122.156 125.95 124.993 127.236L138.745 133.472C140.448 134.244 142.434 133.287 142.892 131.474L146.591 116.835Z" fill="#F0F359"/>
</g>
<defs>
<clipPath id="clip0_118_23">
<rect width="300" height="300" fill="white"/>
</clipPath>
</defs>
</svg>
