<svg width="300" height="300" viewBox="0 0 300 300" fill="none" xmlns="http://www.w3.org/2000/svg">
<g clip-path="url(#clip0)">
<rect width="300" height="300" fill="white"/>
<rect x="300" y="100" width="300" height="100" transform="rotate(-180 300 100)" fill="#3661F6"/>
<rect x="300" y="300" width="300" height="100" transform="rotate(-180 300 300)" fill="#3661F6"/>
<path d="M166.919 112.998C167.593 112.208 168.875 112.841 168.658 113.856L163.342 138.7C163.212 139.31 163.665 139.889 164.288 139.909L189.681 140.737C190.718 140.771 191.023 142.168 190.094 142.632L167.356 153.966C166.798 154.244 166.628 154.959 167 155.458L182.185 175.828C182.806 176.66 181.903 177.77 180.962 177.332L157.923 166.621C157.358 166.359 156.693 166.671 156.535 167.274L150.077 191.846C149.813 192.85 148.383 192.836 148.138 191.827L142.148 167.137C142.001 166.532 141.342 166.206 140.772 166.458L117.534 176.73C116.584 177.15 115.703 176.023 116.34 175.202L131.908 155.125C132.29 154.633 132.134 153.914 131.581 153.626L109.062 141.862C108.142 141.381 108.473 139.99 109.512 139.976L134.916 139.63C135.539 139.622 136.003 139.051 135.884 138.44L131.041 113.499C130.843 112.48 132.137 111.871 132.796 112.674L148.905 132.32C149.3 132.802 150.035 132.809 150.44 132.335L166.919 112.998Z" fill="#DAA75B"/>
<path d="M148.53 109.162C148.785 108.155 150.215 108.155 150.47 109.162L156.694 133.794C156.846 134.398 157.509 134.717 158.076 134.459L181.215 123.968C182.161 123.539 183.053 124.657 182.424 125.484L167.047 145.708C166.67 146.204 166.833 146.921 167.388 147.204L190.018 158.753C190.943 159.225 190.624 160.62 189.586 160.644L164.187 161.231C163.564 161.245 163.105 161.82 163.23 162.431L168.31 187.324C168.517 188.341 167.229 188.962 166.563 188.165L150.267 168.673C149.867 168.195 149.133 168.195 148.733 168.673L132.437 188.165C131.771 188.962 130.483 188.341 130.69 187.324L135.77 162.431C135.895 161.82 135.436 161.245 134.813 161.231L109.414 160.644C108.376 160.62 108.057 159.225 108.982 158.753L131.612 147.204C132.167 146.921 132.33 146.204 131.953 145.708L116.576 125.484C115.947 124.657 116.839 123.539 117.785 123.968L140.924 134.459C141.491 134.717 142.154 134.398 142.306 133.794L148.53 109.162Z" fill="#F0F359"/>
</g>
<defs>
<clipPath id="clip0">
<rect width="300" height="300" fill="white"/>
</clipPath>
</defs>
</svg>
