<svg width="300" height="300" viewBox="0 0 300 300" fill="none" xmlns="http://www.w3.org/2000/svg">
<g clip-path="url(#clip0_118_53)">
<rect width="300" height="300" fill="#003EBA"/>
<rect x="300" y="300" width="300" height="300" transform="rotate(-180 300 300)" fill="#003EBA"/>
<mask id="mask0_118_53" style="mask-type:alpha" maskUnits="userSpaceOnUse" x="0" y="0" width="137" height="83">
<rect x="137" y="82.2002" width="137" height="82.2" transform="rotate(-180 137 82.2002)" fill="#3662D5"/>
</mask>
<g mask="url(#mask0_118_53)">
<rect x="137" y="82.2002" width="137" height="82.2" transform="rotate(-180 137 82.2002)" fill="#3662D5"/>
<rect x="-15.5999" y="80.1401" width="235.649" height="16.5549" transform="rotate(-30 -15.5999 80.1401)" fill="white"/>
<rect width="235.649" height="16.5549" transform="matrix(-0.866025 -0.5 -0.5 0.866025 182.215 97.5483)" fill="white"/>
<rect x="-0.478109" y="0.128109" width="94.0374" height="7.94375" transform="matrix(-0.866025 -0.5 -0.5 0.866025 152.982 80.927)" fill="#EF4B4B" stroke="white" stroke-width="0.7"/>
<rect x="-2.9519" y="0.790958" width="90.4155" height="4.32188" transform="matrix(-0.866025 -0.5 -0.5 0.866025 61.2522 38.6007)" fill="#EF4B4B" stroke="white" stroke-width="4.32188"/>
<rect x="-0.478109" y="0.128109" width="94.0374" height="7.94375" transform="matrix(-0.866025 -0.5 -0.5 0.866025 65.5369 39.7488)" fill="#EF4B4B" stroke="white" stroke-width="0.7"/>
<rect x="57.7442" y="38.4548" width="94.0374" height="7.94375" transform="rotate(-30 57.7442 38.4548)" fill="#EF4B4B" stroke="white" stroke-width="0.7"/>
<rect x="-20.3459" y="92.4328" width="114.437" height="7.94375" transform="rotate(-30 -20.3459 92.4328)" fill="#EF4B4B" stroke="white" stroke-width="0.7"/>
<rect x="-1.5" y="1.5" width="232.649" height="13.5549" transform="matrix(-1 8.74228e-08 8.74228e-08 1 191.001 32.8799)" fill="#EF4B4B" stroke="white" stroke-width="3"/>
<rect x="-4.11" y="-4.11" width="73.98" height="8.22" transform="matrix(1.19249e-08 -1 -1 -1.19249e-08 68.5 27.1262)" fill="#EF4B4B" stroke="white" stroke-width="8.22"/>
<rect x="-4.11" y="-4.11" width="73.98" height="8.22" transform="matrix(1.19249e-08 -1 -1 -1.19249e-08 68.5 121.108)" fill="#EF4B4B" stroke="white" stroke-width="8.22"/>
<rect width="95" height="11" transform="matrix(1.19249e-08 -1 -1 -1.19249e-08 74 93)" fill="#EF4B4B"/>
</g>
<path d="M66.5614 160.796C67.1485 158.197 70.8515 158.197 71.4386 160.796L74.5054 174.372C74.8858 176.057 76.8187 176.857 78.2788 175.935L90.0476 168.504C92.3004 167.081 94.9189 169.7 93.4963 171.952L86.0645 183.721C85.1425 185.181 85.9432 187.114 87.6275 187.495L101.204 190.561C103.803 191.148 103.803 194.852 101.204 195.439L87.6275 198.505C85.9432 198.886 85.1425 200.819 86.0645 202.279L93.4963 214.048C94.9188 216.3 92.3004 218.919 90.0476 217.496L78.2788 210.065C76.8187 209.143 74.8858 209.943 74.5054 211.628L71.4386 225.204C70.8515 227.803 67.1485 227.803 66.5614 225.204L63.4946 211.628C63.1142 209.943 61.1813 209.143 59.7212 210.065L47.9524 217.496C45.6996 218.919 43.0811 216.3 44.5037 214.048L51.9355 202.279C52.8575 200.819 52.0568 198.886 50.3725 198.505L36.7956 195.439C34.1967 194.852 34.1967 191.148 36.7956 190.561L50.3725 187.495C52.0568 187.114 52.8575 185.181 51.9355 183.721L44.5037 171.952C43.0812 169.7 45.6996 167.081 47.9524 168.504L59.7212 175.935C61.1813 176.857 63.1142 176.057 63.4946 174.372L66.5614 160.796Z" fill="white"/>
<path d="M217.546 30.7552C217.927 29.2452 220.073 29.2452 220.454 30.7552L221.212 33.7542C221.441 34.6605 222.434 35.1389 223.286 34.7528L226.103 33.4755C227.521 32.8323 228.859 34.5097 227.916 35.7495L226.044 38.2118C225.478 38.9559 225.724 40.0308 226.556 40.4557L229.312 41.8618C230.699 42.5699 230.221 44.6615 228.664 44.6975L225.572 44.769C224.637 44.7906 223.95 45.6525 224.137 46.5685L224.755 49.5992C225.067 51.1252 223.134 52.0561 222.135 50.8612L220.151 48.488C219.551 47.7708 218.449 47.7708 217.849 48.488L215.865 50.8612C214.866 52.0561 212.933 51.1252 213.245 49.5992L213.863 46.5685C214.05 45.6525 213.363 44.7906 212.428 44.769L209.336 44.6975C207.779 44.6615 207.301 42.5699 208.688 41.8618L211.444 40.4557C212.276 40.0308 212.522 38.9559 211.956 38.2118L210.084 35.7495C209.141 34.5097 210.479 32.8323 211.897 33.4755L214.714 34.7528C215.566 35.1389 216.559 34.6605 216.788 33.7542L217.546 30.7552Z" fill="white"/>
<path d="M176.046 96.7553C176.427 95.2452 178.573 95.2452 178.954 96.7552L179.298 98.1145C179.527 99.0209 180.52 99.4992 181.371 99.1132L182.648 98.5342C184.067 97.8911 185.405 99.5684 184.462 100.808L183.613 101.924C183.047 102.668 183.293 103.743 184.125 104.168L185.374 104.806C186.761 105.514 186.284 107.605 184.727 107.641L183.325 107.674C182.391 107.695 181.703 108.557 181.89 109.473L182.171 110.847C182.482 112.373 180.549 113.304 179.55 112.109L178.651 111.033C178.051 110.316 176.949 110.316 176.349 111.033L175.45 112.109C174.451 113.304 172.518 112.373 172.829 110.847L173.11 109.473C173.297 108.557 172.609 107.695 171.675 107.674L170.273 107.641C168.716 107.605 168.239 105.514 169.626 104.806L170.875 104.168C171.707 103.743 171.953 102.668 171.387 101.924L170.538 100.808C169.595 99.5684 170.933 97.8911 172.352 98.5342L173.629 99.1132C174.48 99.4992 175.473 99.0209 175.702 98.1145L176.046 96.7553Z" fill="white"/>
<path d="M217.046 148.755C217.427 147.245 219.573 147.245 219.954 148.755L220.298 150.115C220.527 151.021 221.52 151.499 222.371 151.113L223.648 150.534C225.067 149.891 226.405 151.568 225.462 152.808L224.613 153.924C224.047 154.668 224.293 155.743 225.125 156.168L226.374 156.806C227.761 157.514 227.284 159.605 225.727 159.641L224.325 159.674C223.391 159.695 222.703 160.557 222.89 161.473L223.171 162.847C223.482 164.373 221.549 165.304 220.55 164.109L219.651 163.033C219.051 162.316 217.949 162.316 217.349 163.033L216.45 164.109C215.451 165.304 213.518 164.373 213.829 162.847L214.11 161.473C214.297 160.557 213.609 159.695 212.675 159.674L211.273 159.641C209.716 159.605 209.239 157.514 210.626 156.806L211.875 156.168C212.707 155.743 212.953 154.668 212.387 153.924L211.538 152.808C210.595 151.568 211.933 149.891 213.352 150.534L214.629 151.113C215.48 151.499 216.473 151.021 216.702 150.115L217.046 148.755Z" fill="white"/>
<path d="M233.549 113.927C233.848 113.006 235.152 113.006 235.451 113.927L235.959 115.491C236.093 115.903 236.477 116.182 236.91 116.182H238.555C239.524 116.182 239.927 117.422 239.143 117.991L237.812 118.958C237.462 119.213 237.315 119.664 237.449 120.076L237.957 121.641C238.257 122.562 237.202 123.328 236.418 122.759L235.088 121.792C234.737 121.537 234.263 121.537 233.912 121.792L232.582 122.759C231.798 123.328 230.743 122.562 231.043 121.641L231.551 120.076C231.685 119.664 231.538 119.213 231.188 118.958L229.857 117.991C229.073 117.422 229.476 116.182 230.445 116.182H232.09C232.523 116.182 232.907 115.903 233.041 115.491L233.549 113.927Z" fill="white"/>
<path d="M253.046 80.7553C253.427 79.2452 255.573 79.2452 255.954 80.7552L256.795 84.0821C257.024 84.9885 258.017 85.4668 258.869 85.0808L261.994 83.6637C263.412 83.0206 264.75 84.698 263.807 85.9378L261.73 88.6693C261.165 89.4134 261.41 90.4883 262.243 90.9132L265.299 92.4731C266.686 93.1811 266.209 95.2728 264.652 95.3088L261.221 95.388C260.287 95.4096 259.599 96.2716 259.786 97.1875L260.472 100.55C260.784 102.076 258.851 103.007 257.852 101.812L255.651 99.179C255.051 98.4618 253.949 98.4618 253.349 99.179L251.148 101.812C250.149 103.007 248.216 102.076 248.528 100.55L249.214 97.1875C249.401 96.2716 248.713 95.4096 247.779 95.388L244.348 95.3088C242.791 95.2728 242.314 93.1811 243.701 92.4731L246.757 90.9132C247.59 90.4883 247.835 89.4134 247.27 88.6693L245.193 85.9378C244.25 84.698 245.588 83.0206 247.006 83.6637L250.131 85.0808C250.983 85.4668 251.976 84.9885 252.205 84.0821L253.046 80.7553Z" fill="white"/>
</g>
<defs>
<clipPath id="clip0_118_53">
<rect width="300" height="300" fill="white"/>
</clipPath>
</defs>
</svg>
