<svg width="300" height="300" viewBox="0 0 300 300" fill="none" xmlns="http://www.w3.org/2000/svg">
<g clip-path="url(#clip0_118_2)">
<rect width="300" height="300" fill="#EB5757"/>
<path fill-rule="evenodd" clip-rule="evenodd" d="M167.211 116.639C168.249 117.269 167.15 118.907 165.992 118.54C162.84 117.54 159.483 117 156 117C137.775 117 123 131.775 123 150C123 168.225 137.775 183 156 183C159.483 183 162.84 182.46 165.992 181.46C167.15 181.093 168.249 182.731 167.211 183.361C161.317 186.94 154.399 189 147 189C125.461 189 108 171.539 108 150C108 128.461 125.461 111 147 111C154.399 111 161.317 113.06 167.211 116.639Z" fill="white"/>
<path d="M171.053 141.3C171.455 139.827 173.545 139.827 173.947 141.3L174.212 142.269C174.47 143.215 175.551 143.663 176.403 143.177L177.275 142.679C178.601 141.921 180.079 143.399 179.321 144.725L178.823 145.597C178.337 146.449 178.785 147.53 179.731 147.788L180.7 148.053C182.173 148.455 182.173 150.545 180.7 150.947L179.731 151.212C178.785 151.47 178.337 152.551 178.823 153.403L179.321 154.275C180.079 155.601 178.601 157.079 177.275 156.321L176.403 155.823C175.551 155.337 174.47 155.785 174.212 156.731L173.947 157.7C173.545 159.173 171.455 159.173 171.053 157.7L170.788 156.731C170.53 155.785 169.449 155.337 168.597 155.823L167.725 156.321C166.399 157.079 164.921 155.601 165.679 154.275L166.177 153.403C166.663 152.551 166.215 151.47 165.269 151.212L164.3 150.947C162.827 150.545 162.827 148.455 164.3 148.053L165.269 147.788C166.215 147.53 166.663 146.449 166.177 145.597L165.679 144.725C164.921 143.399 166.399 141.921 167.725 142.679L168.597 143.177C169.449 143.663 170.53 143.215 170.788 142.269L171.053 141.3Z" fill="white"/>
<rect x="300" y="300" width="300" height="100" transform="rotate(-180 300 300)" fill="#4DBB58"/>
<rect x="300" y="99" width="300" height="100" transform="rotate(-180 300 99)" fill="#59AFFF"/>
</g>
<defs>
<clipPath id="clip0_118_2">
<rect width="300" height="300" fill="white"/>
</clipPath>
</defs>
</svg>
