<svg width="300" height="300" viewBox="0 0 300 300" fill="none" xmlns="http://www.w3.org/2000/svg">
<g clip-path="url(#clip0)">
<rect width="300" height="300" fill="#EB5757"/>
<circle cx="147" cy="150" r="39" fill="white"/>
<circle cx="156" cy="150" r="33" fill="#EB5757"/>
<path d="M172.018 137.767C172.152 137.276 172.848 137.276 172.982 137.767L174.552 143.514C174.638 143.83 174.998 143.979 175.282 143.817L180.456 140.862C180.898 140.61 181.39 141.102 181.138 141.544L178.183 146.718C178.021 147.002 178.17 147.362 178.486 147.448L184.233 149.018C184.724 149.152 184.724 149.848 184.233 149.982L178.486 151.552C178.17 151.638 178.021 151.998 178.183 152.282L181.138 157.456C181.39 157.898 180.898 158.39 180.456 158.138L175.282 155.183C174.998 155.021 174.638 155.17 174.552 155.486L172.982 161.233C172.848 161.724 172.152 161.724 172.018 161.233L170.448 155.486C170.362 155.17 170.002 155.021 169.718 155.183L164.544 158.138C164.102 158.39 163.61 157.898 163.862 157.456L166.817 152.282C166.979 151.998 166.83 151.638 166.514 151.552L160.767 149.982C160.276 149.848 160.276 149.152 160.767 149.018L166.514 147.448C166.83 147.362 166.979 147.002 166.817 146.718L163.862 141.544C163.61 141.102 164.102 140.61 164.544 140.862L169.718 143.817C170.002 143.979 170.362 143.83 170.448 143.514L172.018 137.767Z" fill="white"/>
<rect x="300" y="300" width="300" height="100" transform="rotate(-180 300 300)" fill="#4DBB58"/>
<rect x="300" y="99" width="300" height="100" transform="rotate(-180 300 99)" fill="#59AFFF"/>
</g>
<defs>
<clipPath id="clip0">
<rect width="300" height="300" fill="white"/>
</clipPath>
</defs>
</svg>
