<svg width="300" height="300" viewBox="0 0 300 300" fill="none" xmlns="http://www.w3.org/2000/svg">
<g clip-path="url(#clip0_118_65)">
<rect width="300" height="300" fill="#003EBA"/>
<rect x="300" y="300" width="300" height="300" transform="rotate(-180 300 300)" fill="#003EBA"/>
<path d="M130.385 135.049C131.208 132.516 134.792 132.516 135.615 135.049L137.546 140.992C137.915 142.125 138.97 142.893 140.162 142.893H146.411C149.075 142.893 150.182 146.302 148.027 147.867L142.972 151.54C142.008 152.241 141.604 153.482 141.973 154.615L143.904 160.558C144.727 163.092 141.827 165.198 139.672 163.633L134.616 159.96C133.653 159.259 132.347 159.259 131.384 159.96L126.328 163.633C124.173 165.198 121.273 163.092 122.096 160.558L124.027 154.615C124.396 153.482 123.992 152.241 123.028 151.54L117.973 147.867C115.818 146.302 116.925 142.893 119.589 142.893H125.838C127.03 142.893 128.085 142.125 128.454 140.992L130.385 135.049Z" fill="white"/>
<path d="M162.385 185.049C163.208 182.516 166.792 182.516 167.615 185.049L169.546 190.992C169.915 192.125 170.97 192.893 172.162 192.893H178.411C181.075 192.893 182.182 196.302 180.027 197.867L174.972 201.54C174.008 202.241 173.604 203.482 173.973 204.615L175.904 210.558C176.727 213.092 173.827 215.198 171.672 213.633L166.616 209.96C165.653 209.259 164.347 209.259 163.384 209.96L158.328 213.633C156.173 215.198 153.273 213.092 154.096 210.558L156.027 204.615C156.396 203.482 155.992 202.241 155.028 201.54L149.973 197.867C147.818 196.302 148.925 192.893 151.589 192.893H157.838C159.03 192.893 160.085 192.125 160.454 190.992L162.385 185.049Z" fill="white"/>
<path d="M194.385 235.049C195.208 232.516 198.792 232.516 199.615 235.049L201.546 240.992C201.915 242.125 202.97 242.893 204.162 242.893H210.411C213.075 242.893 214.182 246.302 212.027 247.867L206.972 251.54C206.008 252.241 205.604 253.482 205.973 254.615L207.904 260.558C208.727 263.092 205.827 265.198 203.672 263.633L198.616 259.96C197.653 259.259 196.347 259.259 195.384 259.96L190.328 263.633C188.173 265.198 185.273 263.092 186.096 260.558L188.027 254.615C188.396 253.482 187.992 252.241 187.028 251.54L181.973 247.867C179.818 246.302 180.925 242.893 183.589 242.893H189.838C191.03 242.893 192.085 242.125 192.454 240.992L194.385 235.049Z" fill="white"/>
<path d="M226.385 285.049C227.208 282.516 230.792 282.516 231.615 285.049L233.546 290.992C233.915 292.125 234.97 292.893 236.162 292.893H242.411C245.075 292.893 246.182 296.302 244.027 297.867L238.972 301.54C238.008 302.241 237.604 303.482 237.973 304.615L239.904 310.558C240.727 313.092 237.827 315.198 235.672 313.633L230.616 309.96C229.653 309.259 228.347 309.259 227.384 309.96L222.328 313.633C220.173 315.198 217.273 313.092 218.096 310.558L220.027 304.615C220.396 303.482 219.992 302.241 219.028 301.54L213.973 297.867C211.818 296.302 212.925 292.893 215.589 292.893H221.838C223.03 292.893 224.085 292.125 224.454 290.992L226.385 285.049Z" fill="white"/>
<path d="M34.3846 -14.9506C35.2078 -17.4842 38.7922 -17.4842 39.6154 -14.9506L41.5464 -9.0076C41.9146 -7.87453 42.9704 -7.10739 44.1618 -7.10739H50.4107C53.0747 -7.10739 54.1823 -3.69845 52.0271 -2.13259L46.9716 1.54039C46.0078 2.24066 45.6045 3.48192 45.9727 4.61499L47.9037 10.558C48.7269 13.0916 45.8271 15.1984 43.6718 13.6326L38.6164 9.95961C37.6526 9.25934 36.3474 9.25934 35.3836 9.95961L30.3282 13.6326C28.1729 15.1984 25.2731 13.0916 26.0963 10.558L28.0273 4.61499C28.3955 3.48192 27.9922 2.24066 27.0284 1.54039L21.9729 -2.13259C19.8177 -3.69845 20.9253 -7.10739 23.5893 -7.10739H29.8382C31.0296 -7.10739 32.0854 -7.87453 32.4536 -9.00759L34.3846 -14.9506Z" fill="white"/>
<path d="M66.3846 35.0494C67.2078 32.5158 70.7922 32.5158 71.6154 35.0494L73.5464 40.9924C73.9146 42.1255 74.9704 42.8926 76.1618 42.8926H82.4107C85.0747 42.8926 86.1823 46.3016 84.0271 47.8674L78.9716 51.5404C78.0078 52.2407 77.6045 53.4819 77.9727 54.615L79.9037 60.558C80.7269 63.0916 77.8271 65.1984 75.6718 63.6326L70.6164 59.9596C69.6526 59.2593 68.3474 59.2593 67.3836 59.9596L62.3282 63.6326C60.1729 65.1984 57.2731 63.0916 58.0963 60.558L60.0273 54.615C60.3955 53.4819 59.9922 52.2407 59.0284 51.5404L53.9729 47.8674C51.8177 46.3016 52.9253 42.8926 55.5893 42.8926H61.8382C63.0296 42.8926 64.0854 42.1255 64.4536 40.9924L66.3846 35.0494Z" fill="white"/>
<path d="M98.3846 85.0494C99.2078 82.5158 102.792 82.5158 103.615 85.0494L105.546 90.9924C105.915 92.1255 106.97 92.8926 108.162 92.8926H114.411C117.075 92.8926 118.182 96.3016 116.027 97.8674L110.972 101.54C110.008 102.241 109.604 103.482 109.973 104.615L111.904 110.558C112.727 113.092 109.827 115.198 107.672 113.633L102.616 109.96C101.653 109.259 100.347 109.259 99.3836 109.96L94.3282 113.633C92.1729 115.198 89.2731 113.092 90.0963 110.558L92.0273 104.615C92.3955 103.482 91.9922 102.241 91.0284 101.54L85.9729 97.8674C83.8177 96.3016 84.9253 92.8926 87.5893 92.8926H93.8382C95.0296 92.8926 96.0854 92.1255 96.4536 90.9924L98.3846 85.0494Z" fill="white"/>
<path d="M79.5 0H279V300L79.5 0Z" fill="#FFB84F"/>
</g>
<defs>
<clipPath id="clip0_118_65">
<rect width="300" height="300" fill="white"/>
</clipPath>
</defs>
</svg>
