<svg width="300" height="300" viewBox="0 0 300 300" fill="none" xmlns="http://www.w3.org/2000/svg">
<g clip-path="url(#clip0_118_65)">
<rect width="300" height="300" fill="#003EBA"/>
<rect x="300" y="300" width="300" height="300" transform="rotate(-180 300 300)" fill="#003EBA"/>
<path d="M130.147 135.781C131.045 133.017 134.955 133.017 135.853 135.781L137.49 140.82C137.892 142.056 139.044 142.893 140.343 142.893H145.641C148.547 142.893 149.756 146.611 147.405 148.32L143.119 151.434C142.067 152.198 141.627 153.552 142.029 154.788L143.666 159.826C144.564 162.59 141.401 164.889 139.049 163.18L134.763 160.066C133.712 159.302 132.288 159.302 131.237 160.066L126.951 163.18C124.599 164.889 121.436 162.59 122.334 159.826L123.971 154.788C124.373 153.552 123.933 152.198 122.881 151.434L118.595 148.32C116.244 146.611 117.453 142.893 120.359 142.893H125.657C126.956 142.893 128.108 142.056 128.51 140.82L130.147 135.781Z" fill="white"/>
<path d="M162.147 185.781C163.045 183.017 166.955 183.017 167.853 185.781L169.49 190.82C169.892 192.056 171.044 192.893 172.343 192.893H177.641C180.547 192.893 181.756 196.611 179.405 198.32L175.119 201.434C174.067 202.198 173.627 203.552 174.029 204.788L175.666 209.826C176.564 212.59 173.401 214.889 171.049 213.18L166.763 210.066C165.712 209.302 164.288 209.302 163.237 210.066L158.951 213.18C156.599 214.889 153.436 212.59 154.334 209.826L155.971 204.788C156.373 203.552 155.933 202.198 154.881 201.434L150.595 198.32C148.244 196.611 149.453 192.893 152.359 192.893H157.657C158.956 192.893 160.108 192.056 160.51 190.82L162.147 185.781Z" fill="white"/>
<path d="M194.147 235.781C195.045 233.017 198.955 233.017 199.853 235.781L201.49 240.82C201.892 242.056 203.044 242.893 204.343 242.893H209.641C212.547 242.893 213.756 246.611 211.405 248.32L207.119 251.434C206.067 252.198 205.627 253.552 206.029 254.788L207.666 259.826C208.564 262.59 205.401 264.889 203.049 263.18L198.763 260.066C197.712 259.302 196.288 259.302 195.237 260.066L190.951 263.18C188.599 264.889 185.436 262.59 186.334 259.826L187.971 254.788C188.373 253.552 187.933 252.198 186.881 251.434L182.595 248.32C180.244 246.611 181.453 242.893 184.359 242.893H189.657C190.956 242.893 192.108 242.056 192.51 240.82L194.147 235.781Z" fill="white"/>
<path d="M226.147 285.781C227.045 283.017 230.955 283.017 231.853 285.781L233.49 290.82C233.892 292.056 235.044 292.893 236.343 292.893H241.641C244.547 292.893 245.756 296.611 243.405 298.32L239.119 301.434C238.067 302.198 237.627 303.552 238.029 304.788L239.666 309.826C240.564 312.59 237.401 314.889 235.049 313.18L230.763 310.066C229.712 309.302 228.288 309.302 227.237 310.066L222.951 313.18C220.599 314.889 217.436 312.59 218.334 309.826L219.971 304.788C220.373 303.552 219.933 302.198 218.881 301.434L214.595 298.32C212.244 296.611 213.453 292.893 216.359 292.893H221.657C222.956 292.893 224.108 292.056 224.51 290.82L226.147 285.781Z" fill="white"/>
<path d="M34.1468 -14.2188C35.0449 -16.9828 38.9551 -16.9828 39.8532 -14.2188L41.4903 -9.18034C41.8919 -7.94427 43.0438 -7.10739 44.3434 -7.10739H49.6413C52.5474 -7.10739 53.7557 -3.38855 51.4046 -1.68034L47.1186 1.43363C46.0671 2.19756 45.6272 3.55166 46.0288 4.78773L47.6659 9.82624C48.5639 12.5902 45.4005 14.8885 43.0494 13.1803L38.7634 10.0664C37.7119 9.30244 36.2881 9.30244 35.2366 10.0664L30.9506 13.1803C28.5995 14.8885 25.4361 12.5902 26.3341 9.82624L27.9712 4.78773C28.3728 3.55166 27.9329 2.19756 26.8814 1.43363L22.5954 -1.68034C20.2443 -3.38854 21.4526 -7.10739 24.3587 -7.10739H29.6565C30.9562 -7.10739 32.1081 -7.94427 32.5097 -9.18034L34.1468 -14.2188Z" fill="white"/>
<path d="M66.1468 35.7812C67.0449 33.0172 70.9551 33.0172 71.8532 35.7812L73.4903 40.8197C73.8919 42.0557 75.0438 42.8926 76.3434 42.8926H81.6413C84.5474 42.8926 85.7557 46.6115 83.4046 48.3197L79.1186 51.4336C78.0671 52.1976 77.6272 53.5517 78.0288 54.7877L79.6659 59.8262C80.5639 62.5902 77.4005 64.8885 75.0494 63.1803L70.7634 60.0664C69.7119 59.3024 68.2881 59.3024 67.2366 60.0664L62.9506 63.1803C60.5995 64.8885 57.4361 62.5902 58.3341 59.8262L59.9712 54.7877C60.3728 53.5517 59.9329 52.1976 58.8814 51.4336L54.5954 48.3197C52.2443 46.6115 53.4526 42.8926 56.3587 42.8926H61.6565C62.9562 42.8926 64.1081 42.0557 64.5097 40.8197L66.1468 35.7812Z" fill="white"/>
<path d="M98.1468 85.7812C99.0449 83.0172 102.955 83.0172 103.853 85.7812L105.49 90.8197C105.892 92.0557 107.044 92.8926 108.343 92.8926H113.641C116.547 92.8926 117.756 96.6115 115.405 98.3197L111.119 101.434C110.067 102.198 109.627 103.552 110.029 104.788L111.666 109.826C112.564 112.59 109.401 114.889 107.049 113.18L102.763 110.066C101.712 109.302 100.288 109.302 99.2366 110.066L94.9506 113.18C92.5995 114.889 89.4361 112.59 90.3341 109.826L91.9712 104.788C92.3728 103.552 91.9329 102.198 90.8814 101.434L86.5954 98.3197C84.2443 96.6115 85.4526 92.8926 88.3587 92.8926H93.6565C94.9562 92.8926 96.1081 92.0557 96.5097 90.8197L98.1468 85.7812Z" fill="white"/>
<path d="M79.5 0H279V300L79.5 0Z" fill="#FFB84F"/>
</g>
<defs>
<clipPath id="clip0_118_65">
<rect width="300" height="300" fill="white"/>
</clipPath>
</defs>
</svg>
