<svg width="300" height="300" viewBox="0 0 300 300" fill="none" xmlns="http://www.w3.org/2000/svg">
<g clip-path="url(#clip0_118_101)">
<rect width="300" height="300" fill="white"/>
<rect x="100" y="300" width="100" height="300" transform="rotate(-180 100 300)" fill="#003EBA"/>
<rect x="300" y="300" width="100" height="300" transform="rotate(-180 300 300)" fill="#003EBA"/>
<path d="M200 300L100 300L100 -8.74228e-06L200 0L200 300Z" fill="#FFB84F"/>
<rect x="143" y="121" width="14" height="90" rx="4" fill="#3C3C3C"/>
<path d="M181.241 164.473C183.37 164.632 185 166.408 185 168.543V168.543C185 170.943 182.95 172.834 180.557 172.658C173.575 172.145 159.82 171.235 150 171.235C140.18 171.235 126.425 172.145 119.443 172.658C117.05 172.834 115 170.943 115 168.543V168.543C115 166.408 116.63 164.632 118.759 164.473C125.491 163.972 139.848 163 150 163C160.152 163 174.509 163.972 181.241 164.473Z" fill="#3C3C3C"/>
<path d="M144.15 99.5384C146.373 95.1599 152.628 95.1598 154.85 99.5384L166.323 122.137C168.529 126.482 164.898 131.573 160.047 131.109C156.489 130.769 152.674 130.5 149.5 130.5C146.326 130.5 142.512 130.769 138.953 131.109C134.102 131.573 130.472 126.482 132.678 122.137L144.15 99.5384Z" fill="#3C3C3C"/>
<rect x="109.488" y="128.302" width="7.73793" height="44.9933" rx="3.86897" transform="rotate(-6.25386 109.488 128.302)" fill="#3C3C3C"/>
<path d="M108.353 117.702C109.508 114.639 113.653 114.185 115.444 116.925L121.646 126.414C123.424 129.134 121.386 132.769 118.139 132.857C116.572 132.899 114.99 132.982 113.632 133.13C112.273 133.279 110.711 133.541 109.173 133.839C105.983 134.457 103.207 131.349 104.353 128.309L108.353 117.702Z" fill="#3C3C3C"/>
<rect width="7.73793" height="44.9933" rx="3.86897" transform="matrix(-0.994049 -0.108934 -0.108934 0.994049 189.606 128.302)" fill="#3C3C3C"/>
<path d="M190.741 117.702C189.586 114.639 185.441 114.185 183.65 116.925L177.448 126.414C175.67 129.134 177.708 132.769 180.956 132.857C182.522 132.899 184.104 132.982 185.462 133.13C186.821 133.279 188.383 133.541 189.922 133.839C193.111 134.457 195.888 131.349 194.741 128.309L190.741 117.702Z" fill="#3C3C3C"/>
</g>
<defs>
<clipPath id="clip0_118_101">
<rect width="300" height="300" fill="white"/>
</clipPath>
</defs>
</svg>
