<svg width="300" height="300" viewBox="0 0 300 300" fill="none" xmlns="http://www.w3.org/2000/svg">
<g clip-path="url(#clip0_118_132)">
<rect width="300" height="300" fill="#EF4B4B"/>
<rect y="300" width="150" height="300" transform="rotate(-90 0 300)" fill="#3B9644"/>
<path d="M143.343 114.489C145.438 108.04 154.562 108.04 156.657 114.489L161.001 127.858C161.938 130.742 164.626 132.695 167.659 132.695H181.715C188.496 132.695 191.316 141.372 185.83 145.358L174.458 153.621C172.004 155.403 170.978 158.563 171.915 161.447L176.259 174.816C178.354 181.265 170.973 186.628 165.487 182.642L154.114 174.379C151.661 172.597 148.339 172.597 145.886 174.379L134.513 182.642C129.027 186.628 121.646 181.265 123.741 174.816L128.085 161.447C129.022 158.563 127.996 155.403 125.542 153.621L114.17 145.358C108.684 141.372 111.504 132.695 118.285 132.695H132.341C135.374 132.695 138.062 130.742 138.999 127.858L143.343 114.489Z" fill="#FFB84F"/>
</g>
<defs>
<clipPath id="clip0_118_132">
<rect width="300" height="300" fill="white"/>
</clipPath>
</defs>
</svg>
