<svg width="300" height="300" viewBox="0 0 300 300" fill="none" xmlns="http://www.w3.org/2000/svg">
<g clip-path="url(#clip0_118_132)">
<rect width="300" height="300" fill="#EF4B4B"/>
<rect y="300" width="150" height="300" transform="rotate(-90 0 300)" fill="#3B9644"/>
<path d="M142.392 117.416C144.786 110.046 155.214 110.046 157.608 117.416L160.777 127.167C161.848 130.463 164.919 132.695 168.385 132.695H178.638C186.388 132.695 189.61 142.612 183.34 147.167L175.045 153.193C172.242 155.231 171.068 158.842 172.139 162.138L175.308 171.889C177.702 179.259 169.267 185.388 162.997 180.833L154.702 174.807C151.898 172.769 148.102 172.769 145.298 174.807L137.003 180.833C130.733 185.388 122.298 179.259 124.692 171.889L127.861 162.138C128.932 158.842 127.758 155.231 124.955 153.193L116.66 147.167C110.39 142.612 113.613 132.695 121.362 132.695H131.615C135.081 132.695 138.152 130.463 139.223 127.167L142.392 117.416Z" fill="#FFB84F"/>
</g>
<defs>
<clipPath id="clip0_118_132">
<rect width="300" height="300" fill="white"/>
</clipPath>
</defs>
</svg>
