<svg width="300" height="300" viewBox="0 0 300 300" fill="none" xmlns="http://www.w3.org/2000/svg">
<g clip-path="url(#clip0)">
<rect width="300" height="300" fill="#EF4B4B"/>
<rect y="300" width="150" height="300" transform="rotate(-90 0 300)" fill="#3B9644"/>
<path d="M147.598 104.854C148.197 103.011 150.803 103.011 151.402 104.854L160.613 133.204C160.881 134.028 161.649 134.586 162.516 134.586H192.324C194.262 134.586 195.067 137.065 193.5 138.204L169.384 155.725C168.683 156.234 168.39 157.137 168.658 157.961L177.869 186.31C178.468 188.153 176.359 189.685 174.791 188.546L150.676 171.025C149.975 170.516 149.025 170.516 148.324 171.025L124.209 188.546C122.641 189.685 120.532 188.153 121.131 186.31L130.342 157.961C130.61 157.137 130.317 156.234 129.616 155.725L105.5 138.204C103.933 137.065 104.739 134.586 106.676 134.586H136.484C137.351 134.586 138.119 134.028 138.387 133.204L147.598 104.854Z" fill="#FFB84F"/>
</g>
<defs>
<clipPath id="clip0">
<rect width="300" height="300" fill="white"/>
</clipPath>
</defs>
</svg>
