<svg width="300" height="300" viewBox="0 0 300 300" fill="none" xmlns="http://www.w3.org/2000/svg">
<g clip-path="url(#clip0)">
<rect width="300" height="300" fill="white"/>
<rect width="300" height="300" fill="#EF4B4B"/>
<rect width="43" height="300" fill="white"/>
<path d="M133.399 23.5341C134.387 23.7991 134.387 25.2009 133.399 25.4659L43.0091 49.71C42.3739 49.8804 41.75 49.4018 41.75 48.7442L41.75 0.255809C41.75 -0.401822 42.3739 -0.880418 43.0091 -0.710051L133.399 23.5341Z" fill="white"/>
<path d="M133.585 74.0375C134.557 74.3114 134.557 75.6886 133.585 75.9625L43.0213 101.488C42.3832 101.668 41.75 101.189 41.75 100.526L41.75 49.474C41.75 48.8111 42.3833 48.3317 43.0213 48.5115L133.585 74.0375Z" fill="white"/>
<path d="M133.463 124.035C134.446 124.303 134.446 125.697 133.463 125.965L43.0132 150.636C42.377 150.81 41.75 150.331 41.75 149.671L41.75 100.329C41.75 99.6691 42.377 99.1903 43.0132 99.3638L133.463 124.035Z" fill="white"/>
<path d="M133.463 174.035C134.446 174.303 134.446 175.697 133.463 175.965L43.0132 200.636C42.377 200.81 41.75 200.331 41.75 199.671L41.75 150.329C41.75 149.669 42.377 149.19 43.0132 149.364L133.463 174.035Z" fill="white"/>
<path d="M133.525 223.536C134.502 223.807 134.502 225.193 133.525 225.464L43.0172 250.562C42.3801 250.739 41.75 250.26 41.75 249.599L41.75 199.401C41.75 198.74 42.3801 198.261 43.0172 198.438L133.525 223.536Z" fill="white"/>
<path d="M133.399 274.534C134.387 274.799 134.387 276.201 133.399 276.466L43.0091 300.71C42.3739 300.88 41.75 300.402 41.75 299.744L41.75 251.256C41.75 250.598 42.3739 250.12 43.0091 250.29L133.399 274.534Z" fill="white"/>
</g>
<defs>
<clipPath id="clip0">
<rect width="300" height="300" fill="white"/>
</clipPath>
</defs>
</svg>
