<svg width="300" height="300" viewBox="0 0 300 300" fill="none" xmlns="http://www.w3.org/2000/svg">
<g clip-path="url(#clip0_118_1530)">
<rect width="300" height="300" fill="#EF4B4B"/>
<rect width="300" height="300" fill="#EF4B4B"/>
<rect width="46.4" height="300" fill="white"/>
<path d="M120.795 21.1536C125.241 22.346 125.241 28.654 120.795 29.8464L47.4158 49.5281C44.5575 50.2947 41.75 48.1411 41.75 45.1817L41.75 5.81829C41.75 2.85895 44.5575 0.705258 47.4158 1.47191L120.795 21.1536Z" fill="white"/>
<path d="M121.633 70.6688C126.005 71.9011 126.005 78.0989 121.633 79.3312L47.4708 100.234C44.5996 101.044 41.75 98.8861 41.75 95.9031L41.75 54.0969C41.75 51.1139 44.5996 48.9564 47.4708 49.7656L121.633 70.6688Z" fill="white"/>
<path d="M121.084 120.659C125.505 121.865 125.505 128.135 121.084 129.341L47.4342 149.43C44.5715 150.211 41.75 148.056 41.75 145.089L41.75 104.911C41.75 101.944 44.5715 99.7888 47.4342 100.57L121.084 120.659Z" fill="white"/>
<path d="M121.084 170.659C125.505 171.865 125.505 178.135 121.084 179.341L47.4342 199.43C44.5715 200.211 41.75 198.056 41.75 195.089L41.75 154.911C41.75 151.944 44.5715 149.789 47.4342 150.57L121.084 170.659Z" fill="white"/>
<path d="M121.363 220.164C125.759 221.383 125.759 227.617 121.363 228.836L47.4525 249.332C44.5856 250.127 41.75 247.971 41.75 244.996L41.75 204.004C41.75 201.029 44.5856 198.873 47.4525 199.668L121.363 220.164Z" fill="white"/>
<path d="M120.795 270.154C125.241 271.346 125.241 277.654 120.795 278.846L47.4158 298.528C44.5575 299.295 41.75 297.141 41.75 294.182L41.75 254.818C41.75 251.859 44.5575 249.705 47.4158 250.472L120.795 270.154Z" fill="white"/>
</g>
<defs>
<clipPath id="clip0_118_1530">
<rect width="300" height="300" fill="white"/>
</clipPath>
</defs>
</svg>
