<svg width="300" height="300" viewBox="0 0 300 300" fill="none" xmlns="http://www.w3.org/2000/svg">
<g clip-path="url(#clip0_118_135)">
<rect width="300" height="300" fill="white"/>
<rect x="22" y="300.25" width="181.373" height="181.373" transform="rotate(-45 22 300.25)" fill="#EF4B4B"/>
<rect x="22" y="0.25" width="181.373" height="181.373" transform="rotate(-45 22 0.25)" fill="#EF4B4B"/>
<rect x="-128" y="150.25" width="181.373" height="181.373" transform="rotate(-45 -128 150.25)" fill="#3B9644"/>
<rect x="172" y="150.25" width="181.373" height="181.373" transform="rotate(-45 172 150.25)" fill="#3B9644"/>
<rect x="81" y="81" width="138" height="138" rx="69" fill="white"/>
<path d="M151.307 104.381L152.952 107.302C153.757 108.734 155.28 109.613 156.922 109.595L160.275 109.558C161.444 109.545 162.178 110.816 161.582 111.822L159.874 114.707C159.037 116.121 159.037 117.879 159.874 119.293L161.582 122.178C162.178 123.184 161.444 124.455 160.275 124.442L156.922 124.405C155.28 124.387 153.758 125.266 152.952 126.698L151.307 129.619C150.734 130.638 149.266 130.638 148.693 129.619L147.048 126.698C146.242 125.266 144.72 124.387 143.078 124.405L139.725 124.442C138.556 124.455 137.822 123.184 138.418 122.178L140.126 119.293C140.963 117.879 140.963 116.121 140.126 114.707L138.418 111.822C137.822 110.816 138.556 109.545 139.725 109.558L143.078 109.595C144.72 109.613 146.242 108.734 147.048 107.302L148.693 104.381C149.266 103.362 150.734 103.362 151.307 104.381Z" fill="#EF4B4B" stroke="#3B9644" stroke-width="3"/>
<path d="M184.307 159.381L185.952 162.302C186.757 163.734 188.28 164.613 189.922 164.595L193.275 164.558C194.444 164.545 195.178 165.816 194.582 166.822L192.874 169.707C192.037 171.121 192.037 172.879 192.874 174.293L194.582 177.178C195.178 178.184 194.444 179.455 193.275 179.442L189.922 179.405C188.28 179.387 186.758 180.266 185.952 181.698L184.307 184.619C183.734 185.638 182.266 185.638 181.693 184.619L180.048 181.698C179.242 180.266 177.72 179.387 176.078 179.405L172.725 179.442C171.556 179.455 170.822 178.184 171.418 177.178L173.126 174.293C173.963 172.879 173.963 171.121 173.126 169.707L171.418 166.822C170.822 165.816 171.556 164.545 172.725 164.558L176.078 164.595C177.72 164.613 179.242 163.734 180.048 162.302L181.693 159.381C182.266 158.362 183.734 158.362 184.307 159.381Z" fill="#EF4B4B" stroke="#3B9644" stroke-width="3"/>
<path d="M118.307 160.381L119.952 163.302C120.757 164.734 122.28 165.613 123.922 165.595L127.275 165.558C128.444 165.545 129.178 166.816 128.582 167.822L126.874 170.707C126.037 172.121 126.037 173.879 126.874 175.293L128.582 178.178C129.178 179.184 128.444 180.455 127.275 180.442L123.922 180.405C122.28 180.387 120.758 181.266 119.952 182.698L118.307 185.619C117.734 186.638 116.266 186.638 115.693 185.619L114.048 182.698C113.242 181.266 111.72 180.387 110.078 180.405L106.725 180.442C105.556 180.455 104.822 179.184 105.418 178.178L107.126 175.293C107.963 173.879 107.963 172.121 107.126 170.707L105.418 167.822C104.822 166.816 105.556 165.545 106.725 165.558L110.078 165.595C111.72 165.613 113.242 164.734 114.048 163.302L115.693 160.381C116.266 159.362 117.734 159.362 118.307 160.381Z" fill="#EF4B4B" stroke="#3B9644" stroke-width="3"/>
</g>
<defs>
<clipPath id="clip0_118_135">
<rect width="300" height="300" fill="white"/>
</clipPath>
</defs>
</svg>
