<svg width="300" height="300" viewBox="0 0 300 300" fill="none" xmlns="http://www.w3.org/2000/svg">
<g clip-path="url(#clip0)">
<rect width="300" height="300" fill="white"/>
<rect x="22" y="300.25" width="181.373" height="181.373" transform="rotate(-45 22 300.25)" fill="#EF4B4B"/>
<rect x="22" y="0.25" width="181.373" height="181.373" transform="rotate(-45 22 0.25)" fill="#EF4B4B"/>
<rect x="-128" y="150.25" width="181.373" height="181.373" transform="rotate(-45 -128 150.25)" fill="#3B9644"/>
<rect x="172" y="150.25" width="181.373" height="181.373" transform="rotate(-45 172 150.25)" fill="#3B9644"/>
<rect x="81" y="81" width="138" height="138" rx="69" fill="white"/>
<path d="M150 102.058L153.823 108.85L154.258 109.624L155.146 109.614L162.94 109.529L158.969 116.236L158.517 117L158.969 117.764L162.94 124.471L155.146 124.386L154.258 124.376L153.823 125.15L150 131.942L146.177 125.15L145.742 124.376L144.854 124.386L137.06 124.471L141.031 117.764L141.483 117L141.031 116.236L137.06 109.529L144.854 109.614L145.742 109.624L146.177 108.85L150 102.058Z" fill="#EF4B4B" stroke="#3B9644" stroke-width="3"/>
<path d="M183 157.058L186.823 163.85L187.258 164.624L188.146 164.614L195.94 164.529L191.969 171.236L191.517 172L191.969 172.764L195.94 179.471L188.146 179.386L187.258 179.376L186.823 180.15L183 186.942L179.177 180.15L178.742 179.376L177.854 179.386L170.06 179.471L174.031 172.764L174.483 172L174.031 171.236L170.06 164.529L177.854 164.614L178.742 164.624L179.177 163.85L183 157.058Z" fill="#EF4B4B" stroke="#3B9644" stroke-width="3"/>
<path d="M117 158.058L120.823 164.85L121.258 165.624L122.146 165.614L129.94 165.529L125.969 172.236L125.517 173L125.969 173.764L129.94 180.471L122.146 180.386L121.258 180.376L120.823 181.15L117 187.942L113.177 181.15L112.742 180.376L111.854 180.386L104.06 180.471L108.031 173.764L108.483 173L108.031 172.236L104.06 165.529L111.854 165.614L112.742 165.624L113.177 164.85L117 158.058Z" fill="#EF4B4B" stroke="#3B9644" stroke-width="3"/>
</g>
<defs>
<clipPath id="clip0">
<rect width="300" height="300" fill="white"/>
</clipPath>
</defs>
</svg>
