<svg width="300" height="300" viewBox="0 0 300 300" fill="none" xmlns="http://www.w3.org/2000/svg">
<g clip-path="url(#clip0_118_135)">
<rect width="300" height="300" fill="white"/>
<path fill-rule="evenodd" clip-rule="evenodd" d="M155.907 -193.093C152.783 -196.217 147.717 -196.217 144.593 -193.093L-7.71821 -40.7819C-10.8424 -37.6577 -10.8424 -32.5923 -7.71821 -29.4681L108.791 87.0415C111.432 89.682 115.527 90.0984 118.858 88.4108C128.214 83.6709 138.795 81 150 81C161.322 81 172.007 83.7269 181.434 88.5597C184.771 90.2704 188.887 89.8625 191.539 87.2109L308.218 -29.4681C311.342 -32.5923 311.342 -37.6577 308.218 -40.7819L155.907 -193.093ZM109.123 213.127C111.753 210.497 115.826 210.072 119.152 211.737C128.435 216.385 138.912 219 150 219C161.205 219 171.786 216.329 181.142 211.589C184.473 209.902 188.568 210.318 191.208 212.958L310.718 332.468C313.842 335.592 313.842 340.658 310.718 343.782L155.907 498.593C152.783 501.717 147.717 501.717 144.593 498.593L-10.2181 343.782C-13.3423 340.658 -13.3423 335.592 -10.2181 332.468L109.123 213.127Z" fill="#EF4B4B"/>
<path fill-rule="evenodd" clip-rule="evenodd" d="M-39.9682 -18.2181C-43.0924 -21.3423 -48.1577 -21.3423 -51.2819 -18.2181L-214.093 144.593C-217.217 147.717 -217.217 152.783 -214.093 155.907L-51.2819 318.718C-48.1577 321.842 -43.0924 321.842 -39.9682 318.718L87.2109 191.539C89.8625 188.887 90.2703 184.771 88.5596 181.434C83.7268 172.007 81 161.322 81 150C81 138.795 83.6709 128.214 88.4107 118.858C90.0984 115.527 89.682 111.432 87.0415 108.792L-39.9682 -18.2181ZM212.959 191.208C210.318 188.568 209.902 184.473 211.589 181.142C216.329 171.786 219 161.205 219 150C219 138.912 216.385 128.435 211.737 119.151C210.072 115.826 210.497 111.753 213.127 109.123L328.468 -6.2183C331.592 -9.3425 336.658 -9.34251 339.782 -6.21831L490.593 144.593C493.717 147.717 493.717 152.782 490.593 155.907L339.782 306.718C336.658 309.842 331.592 309.842 328.468 306.718L212.959 191.208Z" fill="#3B9644"/>
<path d="M146.514 105.193C148.044 102.476 151.956 102.476 153.486 105.193L153.968 106.051C154.685 107.323 156.038 108.105 157.498 108.089L158.482 108.078C161.6 108.044 163.556 111.432 161.968 114.115L161.466 114.962C160.722 116.219 160.722 117.781 161.466 119.038L161.968 119.885C163.556 122.568 161.6 125.956 158.482 125.922L157.498 125.911C156.038 125.895 154.685 126.677 153.968 127.949L153.486 128.807C151.956 131.524 148.044 131.524 146.514 128.807L146.032 127.949C145.315 126.677 143.962 125.895 142.502 125.911L141.518 125.922C138.4 125.956 136.444 122.568 138.032 119.885L138.534 119.038C139.278 117.781 139.278 116.219 138.534 114.962L138.032 114.115C136.444 111.432 138.4 108.044 141.518 108.078L142.502 108.089C143.962 108.105 145.315 107.323 146.032 106.051L146.514 105.193Z" fill="#EF4B4B" stroke="#3B9644" stroke-width="3"/>
<path d="M179.514 160.193C181.044 157.476 184.956 157.476 186.486 160.193L186.968 161.051C187.685 162.323 189.038 163.105 190.498 163.089L191.482 163.078C194.6 163.044 196.556 166.432 194.968 169.115L194.466 169.962C193.722 171.219 193.722 172.781 194.466 174.038L194.968 174.885C196.556 177.568 194.6 180.956 191.482 180.922L190.498 180.911C189.038 180.895 187.685 181.677 186.968 182.949L186.486 183.807C184.956 186.524 181.044 186.524 179.514 183.807L179.032 182.949C178.315 181.677 176.962 180.895 175.502 180.911L174.518 180.922C171.4 180.956 169.444 177.568 171.032 174.885L171.534 174.038C172.278 172.781 172.278 171.219 171.534 169.962L171.032 169.115C169.444 166.432 171.4 163.044 174.518 163.078L175.502 163.089C176.962 163.105 178.315 162.323 179.032 161.051L179.514 160.193Z" fill="#EF4B4B" stroke="#3B9644" stroke-width="3"/>
<path d="M113.514 161.193C115.044 158.476 118.956 158.476 120.486 161.193L120.968 162.051C121.685 163.323 123.038 164.105 124.498 164.089L125.482 164.078C128.6 164.044 130.556 167.432 128.968 170.115L128.466 170.962C127.722 172.219 127.722 173.781 128.466 175.038L128.968 175.885C130.556 178.568 128.6 181.956 125.482 181.922L124.498 181.911C123.038 181.895 121.685 182.677 120.968 183.949L120.486 184.807C118.956 187.524 115.044 187.524 113.514 184.807L113.032 183.949C112.315 182.677 110.962 181.895 109.502 181.911L108.518 181.922C105.4 181.956 103.444 178.568 105.032 175.885L105.534 175.038C106.278 173.781 106.278 172.219 105.534 170.962L105.032 170.115C103.444 167.432 105.4 164.044 108.518 164.078L109.502 164.089C110.962 164.105 112.315 163.323 113.032 162.051L113.514 161.193Z" fill="#EF4B4B" stroke="#3B9644" stroke-width="3"/>
</g>
<defs>
<clipPath id="clip0_118_135">
<rect width="300" height="300" fill="white"/>
</clipPath>
</defs>
</svg>
