<svg width="300" height="300" viewBox="0 0 300 300" fill="none" xmlns="http://www.w3.org/2000/svg">
<g clip-path="url(#clip0_118_1591)">
<rect width="300" height="300" fill="white"/>
<rect x="87" y="87" width="128" height="128" fill="#EF4B4B"/>
<path d="M80 85C80 82.7909 81.7909 81 84 81H215C217.209 81 219 82.7909 219 85V216C219 218.209 217.209 220 215 220H84C81.7909 220 80 218.209 80 216V85ZM149.5 209.285C150.917 209.285 152.044 208.098 151.971 206.683L150.803 184.294C150.784 183.883 150.858 183.473 151.018 183.095C151.179 182.716 151.422 182.378 151.73 182.105C152.039 181.833 152.404 181.633 152.8 181.521C153.196 181.409 153.612 181.387 154.018 181.456L172.083 184.632C175.113 185.165 177.585 182.221 176.537 179.329L175.534 176.563C175.397 176.194 175.38 175.792 175.484 175.413C175.588 175.033 175.808 174.696 176.113 174.449L198.391 156.408C200.687 154.548 200.244 150.926 197.566 149.675L197.223 149.515C196.809 149.319 196.48 148.979 196.299 148.558C196.117 148.136 196.096 147.664 196.239 147.228L199.483 137.251C200.435 134.323 197.861 131.462 194.849 132.101L185.93 133.994C185.504 134.082 185.062 134.021 184.676 133.821C184.291 133.62 183.987 133.293 183.816 132.893L183.184 131.409C182.052 128.744 178.551 128.128 176.577 130.247L168.526 138.888C168.246 139.183 167.877 139.38 167.476 139.448C167.075 139.517 166.662 139.453 166.3 139.267C165.938 139.081 165.646 138.783 165.467 138.417C165.289 138.051 165.234 137.637 165.311 137.237L169.548 115.39C170.201 112.022 166.589 109.449 163.619 111.165L161.749 112.246C161.527 112.376 161.28 112.46 161.025 112.491C160.769 112.522 160.509 112.5 160.262 112.427C160.015 112.353 159.786 112.23 159.588 112.065C159.391 111.899 159.229 111.695 159.114 111.464L153.064 99.5835C151.581 96.6702 147.419 96.6702 145.936 99.5835L139.886 111.464C139.771 111.695 139.609 111.899 139.412 112.065C139.214 112.23 138.985 112.353 138.738 112.427C138.491 112.5 138.231 112.522 137.975 112.491C137.72 112.46 137.473 112.376 137.251 112.246L135.381 111.165C132.411 109.449 128.799 112.022 129.452 115.39L133.689 137.237C133.766 137.637 133.711 138.051 133.533 138.417C133.354 138.783 133.062 139.081 132.7 139.267C132.338 139.453 131.925 139.517 131.524 139.448C131.123 139.38 130.754 139.183 130.474 138.888L122.423 130.247C120.449 128.128 116.948 128.744 115.816 131.409L115.184 132.893C115.013 133.293 114.709 133.62 114.324 133.821C113.938 134.021 113.496 134.082 113.07 133.994L104.151 132.101C101.139 131.462 98.565 134.323 99.5171 137.251L102.761 147.228C102.904 147.664 102.883 148.136 102.701 148.558C102.52 148.979 102.191 149.319 101.777 149.515L101.434 149.675C98.7563 150.926 98.3125 154.548 100.609 156.408L122.887 174.449C123.192 174.696 123.412 175.033 123.516 175.413C123.62 175.792 123.603 176.194 123.466 176.563L122.463 179.329C121.415 182.221 123.887 185.165 126.917 184.632L144.983 181.456C145.388 181.387 145.804 181.409 146.2 181.521C146.596 181.633 146.961 181.833 147.27 182.105C147.578 182.378 147.821 182.716 147.982 183.095C148.142 183.473 148.216 183.883 148.197 184.294L147.029 206.683C146.956 208.098 148.083 209.285 149.5 209.285V209.285Z" fill="white" stroke="white" stroke-width="0.3" stroke-linecap="round" stroke-linejoin="round"/>
<rect x="220" width="80" height="300" fill="#EF4B4B"/>
<rect width="80" height="300" fill="#EF4B4B"/>
</g>
<defs>
<clipPath id="clip0_118_1591">
<rect width="300" height="300" fill="white"/>
</clipPath>
</defs>
</svg>
