<svg width="300" height="300" viewBox="0 0 300 300" fill="none" xmlns="http://www.w3.org/2000/svg">
<g clip-path="url(#clip0)">
<rect width="300" height="300" fill="white"/>
<rect x="309.869" y="-25.0811" width="485.991" height="227.066" transform="rotate(135 309.869 -25.0811)" fill="#3661F6"/>
<rect x="473.208" y="153.56" width="485.991" height="227.066" transform="rotate(135 473.208 153.56)" fill="#3661F6"/>
<rect x="352.585" y="-3.13281" width="513.753" height="73" transform="rotate(135 352.585 -3.13281)" fill="#EF4B4B" stroke="#FFB84F" stroke-width="10"/>
<path d="M61.5338 28.2029C61.6988 27.7771 62.3012 27.7771 62.4662 28.2029L71.7406 52.1322C71.8116 52.3152 71.9831 52.4398 72.1791 52.4507L97.8031 53.8767C98.259 53.902 98.4452 54.4749 98.0913 54.7634L78.1991 70.9785C78.047 71.1025 77.9815 71.3041 78.0317 71.4939L84.5938 96.3045C84.7105 96.7459 84.2232 97.1 83.8394 96.8525L62.271 82.9447C62.106 82.8383 61.894 82.8383 61.729 82.9447L40.1606 96.8525C39.7768 97.1 39.2895 96.7459 39.4062 96.3045L45.9683 71.4939C46.0185 71.3041 45.953 71.1025 45.8009 70.9785L25.9087 54.7634C25.5548 54.4749 25.741 53.902 26.1969 53.8767L51.8209 52.4507C52.0169 52.4398 52.1884 52.3152 52.2594 52.1322L61.5338 28.2029Z" fill="#FFB84F"/>
</g>
<defs>
<clipPath id="clip0">
<rect width="300" height="300" fill="white"/>
</clipPath>
</defs>
</svg>
