<svg width="300" height="300" viewBox="0 0 300 300" fill="none" xmlns="http://www.w3.org/2000/svg">
<g clip-path="url(#clip0_118_1496)">
<rect width="300" height="300" fill="white"/>
<rect x="309.869" y="-25.0811" width="485.991" height="227.066" transform="rotate(135 309.869 -25.0811)" fill="#3661F6"/>
<rect x="473.208" y="153.56" width="485.991" height="227.066" transform="rotate(135 473.208 153.56)" fill="#3661F6"/>
<rect x="352.585" y="-3.13281" width="513.753" height="73" transform="rotate(135 352.585 -3.13281)" fill="#EF4B4B" stroke="#FFB84F" stroke-width="10"/>
<path d="M57.3379 39.0288C58.988 34.7714 65.012 34.7714 66.6621 39.0288L70.692 49.4266C71.4014 51.2569 73.1163 52.5029 75.0763 52.6119L86.2105 53.2315C90.7694 53.4852 92.631 59.2144 89.0918 62.0993L80.4483 69.1451C78.9267 70.3854 78.2717 72.4014 78.7736 74.2991L81.625 85.0799C82.7925 89.4941 77.919 93.0349 74.0816 90.5605L64.7096 84.5172C63.0598 83.4534 60.9402 83.4534 59.2904 84.5172L49.9184 90.5605C46.081 93.0349 41.2075 89.4941 42.375 85.0798L45.2264 74.2991C45.7283 72.4014 45.0733 70.3854 43.5517 69.1451L34.9082 62.0994C31.369 59.2144 33.2306 53.4852 37.7895 53.2315L48.9237 52.6119C50.8837 52.5029 52.5986 51.2569 53.308 49.4266L57.3379 39.0288Z" fill="#FFB84F"/>
</g>
<defs>
<clipPath id="clip0_118_1496">
<rect width="300" height="300" fill="white"/>
</clipPath>
</defs>
</svg>
