<svg width="300" height="300" viewBox="0 0 300 300" fill="none" xmlns="http://www.w3.org/2000/svg">
<g clip-path="url(#clip0_118_855)">
<rect width="300" height="300" fill="white"/>
<rect x="500" y="75" width="500" height="75" transform="rotate(-180 500 75)" fill="#3661F7"/>
<rect x="500" y="75" width="500" height="75" transform="rotate(-180 500 75)" fill="#3661F7"/>
<rect x="300" y="150" width="300" height="75" transform="rotate(-180 300 150)" fill="white"/>
<rect x="300" y="225" width="300" height="75" transform="rotate(-180 300 225)" fill="#3B9644"/>
<rect x="300" y="75" width="300" height="75" transform="rotate(-180 300 75)" fill="#003EBA"/>
<rect x="300" y="300" width="300" height="75" transform="rotate(-180 300 300)" fill="#FFB84F"/>
<rect x="121" y="300" width="300" height="59" transform="rotate(-90 121 300)" fill="#EF4B4B"/>
<path d="M40.2235 21.4357C41.6766 16.7398 48.3234 16.7398 49.7765 21.4357L50.6456 24.2441C51.2936 26.3381 53.23 27.766 55.4221 27.766H58.7339C63.5182 27.766 65.5704 33.8394 61.7665 36.7413L58.6742 39.1003C57.0067 40.3724 56.3103 42.55 56.9303 44.5537L58.0114 48.0471C59.4503 52.697 54.0721 56.4527 50.2022 53.5005L48.0326 51.8454C46.2417 50.4792 43.7583 50.4792 41.9674 51.8454L39.7978 53.5005C35.9279 56.4527 30.5498 52.697 31.9886 48.0471L33.0697 44.5537C33.6897 42.55 32.9933 40.3724 31.3258 39.1003L28.2335 36.7413C24.4296 33.8394 26.4818 27.766 31.2661 27.766H34.5779C36.77 27.766 38.7064 26.3381 39.3544 24.244L40.2235 21.4357Z" fill="#FFB84F"/>
</g>
<defs>
<clipPath id="clip0_118_855">
<rect width="300" height="300" fill="white"/>
</clipPath>
</defs>
</svg>
