<svg width="300" height="300" viewBox="0 0 300 300" fill="none" xmlns="http://www.w3.org/2000/svg">
<g clip-path="url(#clip0_118_855)">
<rect width="300" height="300" fill="white"/>
<rect x="500" y="75" width="500" height="75" transform="rotate(-180 500 75)" fill="#3661F7"/>
<rect x="500" y="75" width="500" height="75" transform="rotate(-180 500 75)" fill="#3661F7"/>
<rect x="300" y="150" width="300" height="75" transform="rotate(-180 300 150)" fill="white"/>
<rect x="300" y="225" width="300" height="75" transform="rotate(-180 300 225)" fill="#3B9644"/>
<rect x="300" y="75" width="300" height="75" transform="rotate(-180 300 75)" fill="#003EBA"/>
<rect x="300" y="300" width="300" height="75" transform="rotate(-180 300 300)" fill="#FFB84F"/>
<rect x="121" y="300" width="300" height="59" transform="rotate(-90 121 300)" fill="#EF4B4B"/>
<path d="M42.1341 15.2614C43.006 12.4439 46.994 12.4439 47.8659 15.2614L51.0815 25.6528C51.4703 26.9093 52.6322 27.766 53.9474 27.766H64.653C67.5236 27.766 68.7549 31.41 66.4726 33.1511L57.5638 39.9474C56.5633 40.7107 56.1454 42.0173 56.5175 43.2194L59.8603 54.0219C60.7236 56.8118 57.4967 59.0652 55.1747 57.2939L46.8196 50.92C45.745 50.1003 44.255 50.1003 43.1804 50.92L34.8253 57.2939C32.5033 59.0652 29.2764 56.8118 30.1398 54.0219L33.4825 43.2194C33.8546 42.0172 33.4367 40.7107 32.4362 39.9474L23.5274 33.1512C21.2451 31.41 22.4764 27.766 25.347 27.766H36.0526C37.3678 27.766 38.5297 26.9093 38.9185 25.6528L42.1341 15.2614Z" fill="#FFB84F"/>
</g>
<defs>
<clipPath id="clip0_118_855">
<rect width="300" height="300" fill="white"/>
</clipPath>
</defs>
</svg>
