<svg width="300" height="300" viewBox="0 0 300 300" fill="none" xmlns="http://www.w3.org/2000/svg">
<g clip-path="url(#clip0_118_181)">
<rect width="300" height="300" fill="#003EBA"/>
<rect x="300" y="300" width="300" height="300" transform="rotate(-180 300 300)" fill="#003EBA"/>
<mask id="mask0_118_181" style="mask-type:alpha" maskUnits="userSpaceOnUse" x="0" y="0" width="137" height="83">
<rect x="137" y="82.2002" width="137" height="82.2" transform="rotate(-180 137 82.2002)" fill="#3662D5"/>
</mask>
<g mask="url(#mask0_118_181)">
<rect x="137" y="82.2002" width="137" height="82.2" transform="rotate(-180 137 82.2002)" fill="#3662D5"/>
<rect x="-15.5999" y="80.1401" width="235.649" height="16.5549" transform="rotate(-30 -15.5999 80.1401)" fill="white"/>
<rect width="235.649" height="16.5549" transform="matrix(-0.866025 -0.5 -0.5 0.866025 182.215 97.5483)" fill="white"/>
<rect x="-0.478109" y="0.128109" width="94.0374" height="7.94375" transform="matrix(-0.866025 -0.5 -0.5 0.866025 152.982 80.927)" fill="#EF4B4B" stroke="white" stroke-width="0.7"/>
<rect x="-2.9519" y="0.790958" width="90.4155" height="4.32188" transform="matrix(-0.866025 -0.5 -0.5 0.866025 61.2522 38.6007)" fill="#EF4B4B" stroke="white" stroke-width="4.32188"/>
<rect x="-0.478109" y="0.128109" width="94.0374" height="7.94375" transform="matrix(-0.866025 -0.5 -0.5 0.866025 65.5369 39.7488)" fill="#EF4B4B" stroke="white" stroke-width="0.7"/>
<rect x="57.7442" y="38.4548" width="94.0374" height="7.94375" transform="rotate(-30 57.7442 38.4548)" fill="#EF4B4B" stroke="white" stroke-width="0.7"/>
<rect x="-20.3459" y="92.4328" width="114.437" height="7.94375" transform="rotate(-30 -20.3459 92.4328)" fill="#EF4B4B" stroke="white" stroke-width="0.7"/>
<rect x="-1.5" y="1.5" width="232.649" height="13.5549" transform="matrix(-1 8.74228e-08 8.74228e-08 1 191.001 32.8799)" fill="#EF4B4B" stroke="white" stroke-width="3"/>
<rect x="-4.11" y="-4.11" width="73.98" height="8.22" transform="matrix(1.19249e-08 -1 -1 -1.19249e-08 68.5 27.1262)" fill="#EF4B4B" stroke="white" stroke-width="8.22"/>
<rect x="-4.11" y="-4.11" width="73.98" height="8.22" transform="matrix(1.19249e-08 -1 -1 -1.19249e-08 68.5 121.108)" fill="#EF4B4B" stroke="white" stroke-width="8.22"/>
<rect width="95" height="11" transform="matrix(1.19249e-08 -1 -1 -1.19249e-08 74 93)" fill="#EF4B4B"/>
</g>
<path d="M193.115 103.065C193.714 101.222 196.321 101.222 196.919 103.065L198.566 108.133C198.834 108.957 199.602 109.515 200.468 109.515L205.796 109.515C207.734 109.515 208.539 111.994 206.972 113.133L202.661 116.265C201.96 116.774 201.667 117.677 201.935 118.501L203.581 123.568C204.18 125.411 202.071 126.943 200.504 125.804L196.193 122.672C195.492 122.163 194.543 122.163 193.842 122.672L189.531 125.804C187.963 126.943 185.855 125.411 186.453 123.568L188.1 118.501C188.368 117.677 188.074 116.774 187.373 116.265L183.062 113.133C181.495 111.994 182.301 109.515 184.238 109.515L189.566 109.515C190.433 109.515 191.201 108.957 191.469 108.133L193.115 103.065Z" fill="white"/>
<path d="M131.115 165.065C131.714 163.222 134.321 163.222 134.919 165.065L136.566 170.133C136.834 170.957 137.602 171.515 138.468 171.515L143.796 171.515C145.734 171.515 146.539 173.994 144.972 175.133L140.661 178.265C139.96 178.774 139.667 179.677 139.935 180.501L141.581 185.568C142.18 187.411 140.071 188.943 138.504 187.804L134.193 184.672C133.492 184.163 132.543 184.163 131.842 184.672L127.531 187.804C125.963 188.943 123.855 187.411 124.453 185.568L126.1 180.501C126.368 179.677 126.074 178.774 125.373 178.265L121.062 175.133C119.495 173.994 120.301 171.515 122.238 171.515L127.566 171.515C128.433 171.515 129.201 170.957 129.469 170.133L131.115 165.065Z" fill="white"/>
<path d="M255.115 165.065C255.714 163.222 258.321 163.222 258.919 165.065L260.566 170.133C260.834 170.957 261.602 171.515 262.468 171.515L267.796 171.515C269.734 171.515 270.539 173.994 268.972 175.133L264.661 178.265C263.96 178.774 263.667 179.677 263.935 180.501L265.581 185.568C266.18 187.411 264.071 188.943 262.504 187.804L258.193 184.672C257.492 184.163 256.543 184.163 255.842 184.672L251.531 187.804C249.963 188.943 247.855 187.411 248.453 185.568L250.1 180.501C250.368 179.677 250.074 178.774 249.373 178.265L245.062 175.133C243.495 173.994 244.301 171.515 246.238 171.515L251.566 171.515C252.433 171.515 253.201 170.957 253.469 170.133L255.115 165.065Z" fill="white"/>
<path d="M193.115 227.065C193.714 225.222 196.321 225.222 196.919 227.065L198.566 232.133C198.834 232.957 199.602 233.515 200.468 233.515L205.796 233.515C207.734 233.515 208.539 235.994 206.972 237.133L202.661 240.265C201.96 240.774 201.667 241.677 201.935 242.501L203.581 247.568C204.18 249.411 202.071 250.943 200.504 249.804L196.193 246.672C195.492 246.163 194.543 246.163 193.842 246.672L189.531 249.804C187.963 250.943 185.855 249.411 186.453 247.568L188.1 242.501C188.368 241.677 188.074 240.774 187.373 240.265L183.062 237.133C181.495 235.994 182.301 233.515 184.238 233.515L189.566 233.515C190.433 233.515 191.201 232.957 191.469 232.133L193.115 227.065Z" fill="white"/>
<path d="M230.346 112.022C231.786 110.725 234.043 112.029 233.64 113.924L232.533 119.136C232.352 119.983 232.739 120.85 233.489 121.284L238.103 123.948C239.781 124.917 239.239 127.466 237.313 127.669L232.013 128.226C231.152 128.317 230.446 128.952 230.266 129.799L229.158 135.011C228.755 136.906 226.163 137.179 225.375 135.409L223.208 130.541C222.855 129.75 222.033 129.275 221.171 129.365L215.872 129.922C213.945 130.125 212.885 127.744 214.325 126.447L218.285 122.882C218.929 122.302 219.126 121.374 218.774 120.582L216.606 115.714C215.818 113.944 217.755 112.2 219.433 113.169L224.048 115.833C224.798 116.266 225.742 116.167 226.386 115.587L230.346 112.022Z" fill="white"/>
<path d="M145.652 134.715C147.092 133.419 149.35 134.722 148.947 136.617L147.839 141.829C147.659 142.677 148.045 143.544 148.795 143.977L153.41 146.641C155.088 147.61 154.546 150.16 152.619 150.362L147.32 150.919C146.458 151.01 145.753 151.645 145.572 152.493L144.465 157.704C144.062 159.6 141.469 159.872 140.681 158.102L138.514 153.234C138.162 152.443 137.34 151.968 136.478 152.059L131.179 152.616C129.252 152.818 128.192 150.437 129.631 149.14L133.591 145.575C134.235 144.995 134.432 144.067 134.08 143.275L131.913 138.408C131.125 136.638 133.062 134.893 134.74 135.862L139.354 138.526C140.105 138.959 141.049 138.86 141.693 138.281L145.652 134.715Z" fill="white"/>
<path d="M253.04 196.715C254.479 195.419 256.737 196.722 256.334 198.617L255.226 203.829C255.046 204.677 255.432 205.544 256.183 205.977L260.797 208.641C262.475 209.61 261.933 212.16 260.006 212.362L254.707 212.919C253.845 213.01 253.14 213.645 252.96 214.493L251.852 219.704C251.449 221.6 248.856 221.872 248.068 220.102L245.901 215.234C245.549 214.443 244.727 213.968 243.865 214.059L238.566 214.616C236.639 214.818 235.579 212.437 237.019 211.14L240.978 207.575C241.622 206.995 241.82 206.067 241.467 205.275L239.3 200.408C238.512 198.638 240.449 196.893 242.127 197.862L246.741 200.526C247.492 200.959 248.436 200.86 249.08 200.281L253.04 196.715Z" fill="white"/>
<path d="M168.346 219.409C169.786 218.113 172.043 219.416 171.64 221.311L170.533 226.523C170.352 227.371 170.739 228.238 171.489 228.671L176.103 231.335C177.781 232.304 177.239 234.854 175.313 235.056L170.013 235.613C169.152 235.704 168.446 236.339 168.266 237.186L167.158 242.398C166.755 244.293 164.163 244.566 163.375 242.796L161.208 237.928C160.855 237.137 160.033 236.662 159.171 236.753L153.872 237.31C151.945 237.512 150.885 235.131 152.325 233.834L156.285 230.269C156.929 229.689 157.126 228.761 156.774 227.969L154.606 223.101C153.818 221.332 155.755 219.587 157.433 220.556L162.048 223.22C162.798 223.653 163.742 223.554 164.386 222.974L168.346 219.409Z" fill="white"/>
<path d="M258.11 138.394C260.005 137.991 261.309 140.248 260.012 141.688L256.447 145.648C255.867 146.292 255.768 147.236 256.201 147.986L258.865 152.601C259.834 154.279 258.09 156.216 256.32 155.428L251.452 153.261C250.661 152.908 249.732 153.105 249.152 153.749L245.587 157.709C244.291 159.149 241.909 158.089 242.112 156.162L242.669 150.863C242.759 150.001 242.285 149.179 241.493 148.826L236.625 146.659C234.855 145.871 235.128 143.279 237.023 142.876L242.235 141.768C243.082 141.588 243.718 140.882 243.808 140.021L244.365 134.722C244.568 132.795 247.117 132.253 248.086 133.931L250.75 138.545C251.184 139.296 252.051 139.682 252.898 139.501L258.11 138.394Z" fill="white"/>
<path d="M173.417 115.7C175.312 115.297 176.615 117.555 175.319 118.995L171.753 122.955C171.174 123.598 171.074 124.542 171.508 125.293L174.172 129.907C175.14 131.585 173.396 133.522 171.626 132.734L166.758 130.567C165.967 130.215 165.038 130.412 164.459 131.056L160.893 135.016C159.597 136.456 157.215 135.395 157.418 133.468L157.975 128.169C158.066 127.308 157.591 126.486 156.799 126.133L151.932 123.966C150.162 123.178 150.434 120.585 152.329 120.182L157.541 119.075C158.389 118.895 159.024 118.189 159.114 117.327L159.671 112.028C159.874 110.101 162.424 109.559 163.393 111.237L166.057 115.852C166.49 116.602 167.357 116.988 168.205 116.808L173.417 115.7Z" fill="white"/>
<path d="M235.417 223.087C237.312 222.685 238.615 224.942 237.319 226.382L233.753 230.342C233.174 230.986 233.074 231.93 233.508 232.68L236.172 237.295C237.14 238.972 235.396 240.91 233.626 240.122L228.758 237.954C227.967 237.602 227.038 237.799 226.459 238.443L222.893 242.403C221.597 243.843 219.215 242.783 219.418 240.856L219.975 235.556C220.066 234.695 219.591 233.873 218.799 233.52L213.932 231.353C212.162 230.565 212.434 227.973 214.329 227.57L219.541 226.462C220.389 226.282 221.024 225.576 221.114 224.715L221.671 219.415C221.874 217.489 224.424 216.947 225.393 218.624L228.057 223.239C228.49 223.989 229.357 224.375 230.205 224.195L235.417 223.087Z" fill="white"/>
<path d="M150.723 200.394C152.618 199.991 153.921 202.248 152.625 203.688L149.06 207.648C148.48 208.292 148.381 209.236 148.814 209.986L151.478 214.601C152.447 216.279 150.703 218.216 148.933 217.428L144.065 215.261C143.273 214.908 142.345 215.105 141.765 215.749L138.2 219.709C136.903 221.149 134.522 220.089 134.724 218.162L135.281 212.863C135.372 212.001 134.897 211.179 134.106 210.826L129.238 208.659C127.468 207.871 127.741 205.279 129.636 204.876L134.848 203.768C135.695 203.588 136.33 202.882 136.421 202.021L136.978 196.722C137.18 194.795 139.73 194.253 140.699 195.931L143.363 200.545C143.796 201.296 144.664 201.682 145.511 201.501L150.723 200.394Z" fill="white"/>
</g>
<defs>
<clipPath id="clip0_118_181">
<rect width="300" height="300" fill="white"/>
</clipPath>
</defs>
</svg>
