<svg width="300" height="300" viewBox="0 0 300 300" fill="none" xmlns="http://www.w3.org/2000/svg">
<g clip-path="url(#clip0_114_717)">
<rect width="300" height="300" fill="white"/>
<rect x="300" y="300" width="300" height="300" transform="rotate(-180 300 300)" fill="white"/>
<rect x="300" y="300" width="300" height="150" transform="rotate(-180 300 300)" fill="#FF4A4A"/>
<rect x="150" y="150" width="150" height="150" transform="rotate(-180 150 150)" fill="#4A72FF"/>
<path d="M70.2447 44.6353C71.7415 40.0287 78.2585 40.0287 79.7553 44.6353L83.9806 57.6393C84.6499 59.6994 86.5697 61.0942 88.7358 61.0942H102.409C107.253 61.0942 109.267 67.2923 105.348 70.1393L94.2861 78.1763C92.5337 79.4495 91.8004 81.7063 92.4698 83.7664L96.695 96.7705C98.1918 101.377 92.9194 105.208 89.0008 102.361L77.9389 94.3237C76.1865 93.0505 73.8135 93.0505 72.0611 94.3237L60.9992 102.361C57.0806 105.208 51.8082 101.377 53.3049 96.7705L57.5302 83.7664C58.1996 81.7063 57.4663 79.4495 55.7139 78.1763L44.652 70.1393C40.7334 67.2923 42.7473 61.0942 47.5909 61.0942H61.2642C63.4303 61.0942 65.3501 59.6994 66.0194 57.6393L70.2447 44.6353Z" fill="white"/>
</g>
<defs>
<clipPath id="clip0_114_717">
<rect width="300" height="300" fill="white"/>
</clipPath>
</defs>
</svg>
