<svg width="300" height="300" viewBox="0 0 300 300" fill="none" xmlns="http://www.w3.org/2000/svg">
<g clip-path="url(#clip0)">
<rect width="300" height="300" fill="white"/>
<rect x="300" y="300" width="300" height="300" transform="rotate(-180 300 300)" fill="white"/>
<rect x="300" y="300" width="300" height="150" transform="rotate(-180 300 300)" fill="#FF4A4A"/>
<rect x="150" y="150" width="150" height="150" transform="rotate(-180 150 150)" fill="#4A72FF"/>
<path d="M73.0979 35.8541C73.6966 34.0115 76.3034 34.0115 76.9021 35.8541L84.6541 59.7123C84.9219 60.5363 85.6898 61.0942 86.5562 61.0942H111.642C113.58 61.0942 114.385 63.5735 112.818 64.7123L92.5228 79.4574C91.8218 79.9667 91.5285 80.8695 91.7962 81.6935L99.5482 105.552C100.147 107.394 98.038 108.927 96.4705 107.788L76.1756 93.0426C75.4746 92.5333 74.5254 92.5333 73.8244 93.0426L53.5295 107.788C51.962 108.927 49.8531 107.394 50.4518 105.552L58.2038 81.6935C58.4715 80.8695 58.1782 79.9667 57.4772 79.4574L37.1823 64.7123C35.6148 63.5735 36.4204 61.0942 38.3578 61.0942H63.4438C64.3102 61.0942 65.0781 60.5363 65.3459 59.7123L73.0979 35.8541Z" fill="white"/>
</g>
<defs>
<clipPath id="clip0">
<rect width="300" height="300" fill="white"/>
</clipPath>
</defs>
</svg>
