<svg width="300" height="300" viewBox="0 0 300 300" fill="none" xmlns="http://www.w3.org/2000/svg">
<g clip-path="url(#clip0)">
<rect width="300" height="300" fill="white"/>
<rect width="100" height="300" fill="#3B9644"/>
<rect x="200" width="100" height="300" fill="#FFB84F"/>
<rect x="100" width="100" height="300" fill="#EF4B4B"/>
<path d="M149.598 104.854C150.197 103.011 152.803 103.011 153.402 104.854L162.613 133.204C162.881 134.028 163.649 134.586 164.516 134.586H194.324C196.261 134.586 197.067 137.065 195.5 138.204L171.384 155.725C170.683 156.234 170.39 157.137 170.658 157.961L179.869 186.31C180.468 188.153 178.359 189.685 176.791 188.546L152.676 171.025C151.975 170.516 151.025 170.516 150.324 171.025L126.209 188.546C124.641 189.685 122.532 188.153 123.131 186.31L132.342 157.961C132.61 157.137 132.317 156.234 131.616 155.725L107.5 138.204C105.933 137.065 106.739 134.586 108.676 134.586H138.484C139.351 134.586 140.119 134.028 140.387 133.204L149.598 104.854Z" fill="#FFB84F"/>
</g>
<defs>
<clipPath id="clip0">
<rect width="300" height="300" fill="white"/>
</clipPath>
</defs>
</svg>
