<svg width="300" height="300" viewBox="0 0 300 300" fill="none" xmlns="http://www.w3.org/2000/svg">
<g clip-path="url(#clip0_118_1478)">
<rect width="300" height="300" fill="white"/>
<rect width="100" height="300" fill="#3B9644"/>
<rect x="200" width="100" height="300" fill="#FFB84F"/>
<rect x="100" width="100" height="300" fill="#EF4B4B"/>
<path d="M145.245 114.635C146.741 110.029 153.259 110.029 154.755 114.635L160.103 131.094C160.773 133.154 162.692 134.549 164.858 134.549H182.164C187.008 134.549 189.022 140.747 185.103 143.594L171.102 153.766C169.35 155.04 168.617 157.297 169.286 159.357L174.634 175.816C176.131 180.422 170.858 184.253 166.94 181.406L152.939 171.234C151.186 169.96 148.814 169.96 147.061 171.234L133.06 181.406C129.142 184.253 123.869 180.422 125.366 175.816L130.714 159.357C131.383 157.296 130.65 155.04 128.898 153.766L114.897 143.594C110.978 140.747 112.992 134.549 117.836 134.549H135.142C137.308 134.549 139.227 133.154 139.897 131.094L145.245 114.635Z" fill="#FFB84F"/>
</g>
<defs>
<clipPath id="clip0_118_1478">
<rect width="300" height="300" fill="white"/>
</clipPath>
</defs>
</svg>
