<svg width="300" height="300" viewBox="0 0 300 300" fill="none" xmlns="http://www.w3.org/2000/svg">
<g clip-path="url(#clip0_118_1478)">
<rect width="300" height="300" fill="white"/>
<rect width="100" height="300" fill="#3B9644"/>
<rect x="200" width="100" height="300" fill="#FFB84F"/>
<rect x="100" width="100" height="300" fill="#EF4B4B"/>
<path d="M143.343 120.489C145.438 114.04 154.562 114.04 156.657 120.489L159.654 129.712C160.591 132.596 163.279 134.549 166.311 134.549H176.009C182.79 134.549 185.61 143.226 180.124 147.212L172.278 152.912C169.825 154.695 168.798 157.854 169.735 160.739L172.732 169.962C174.827 176.411 167.446 181.774 161.96 177.788L154.114 172.088C151.661 170.305 148.339 170.305 145.886 172.088L138.04 177.788C132.554 181.774 125.173 176.411 127.268 169.961L130.265 160.739C131.202 157.854 130.175 154.695 127.722 152.912L119.876 147.212C114.39 143.226 117.21 134.549 123.991 134.549H133.689C136.721 134.549 139.409 132.596 140.346 129.712L143.343 120.489Z" fill="#FFB84F"/>
</g>
<defs>
<clipPath id="clip0_118_1478">
<rect width="300" height="300" fill="white"/>
</clipPath>
</defs>
</svg>
