<svg width="300" height="300" viewBox="0 0 300 300" fill="none" xmlns="http://www.w3.org/2000/svg">
<g clip-path="url(#clip0)">
<rect width="300" height="300" fill="white"/>
<rect width="100" height="300" fill="#3B9644"/>
<rect x="200" width="100" height="300" fill="#FFB84F"/>
<rect x="100" width="100" height="300" fill="#EF4B4B"/>
<path d="M148.098 105.854C148.697 104.011 151.303 104.011 151.902 105.854L160.777 133.167C161.044 133.991 161.812 134.549 162.679 134.549H191.397C193.335 134.549 194.14 137.028 192.573 138.167L169.339 155.048C168.638 155.557 168.345 156.46 168.613 157.284L177.487 184.597C178.086 186.439 175.977 187.972 174.409 186.833L151.176 169.952C150.475 169.443 149.525 169.443 148.824 169.952L125.591 186.833C124.023 187.972 121.914 186.439 122.513 184.597L131.387 157.284C131.655 156.46 131.362 155.557 130.661 155.048L107.427 138.167C105.86 137.028 106.665 134.549 108.603 134.549H137.321C138.188 134.549 138.956 133.991 139.223 133.167L148.098 105.854Z" fill="#FFB84F"/>
</g>
<defs>
<clipPath id="clip0">
<rect width="300" height="300" fill="white"/>
</clipPath>
</defs>
</svg>
