<svg width="300" height="300" viewBox="0 0 300 300" fill="none" xmlns="http://www.w3.org/2000/svg">
<g clip-path="url(#clip0_113_658)">
<rect width="300" height="300" fill="#EF4B4B"/>
<rect x="500" y="300" width="500" height="300" transform="rotate(-180 500 300)" fill="#EF4B4B"/>
<path d="M62.7447 78.6353C64.2415 74.0287 70.7585 74.0287 72.2553 78.6353L74.1232 84.384C74.7925 86.4441 76.7123 87.8389 78.8784 87.8389H84.923C89.7667 87.8389 91.7805 94.037 87.862 96.884L82.9718 100.437C81.2193 101.71 80.4861 103.967 81.1554 106.027L83.0233 111.776C84.5201 116.382 79.2477 120.213 75.3291 117.366L70.4389 113.813C68.6865 112.54 66.3135 112.54 64.5611 113.813L59.6709 117.366C55.7523 120.213 50.4799 116.382 51.9767 111.776L53.8446 106.027C54.5139 103.967 53.7807 101.71 52.0282 100.437L47.138 96.884C43.2195 94.037 45.2334 87.8389 50.077 87.8389H56.1216C58.2877 87.8389 60.2075 86.4441 60.8768 84.384L62.7447 78.6353Z" fill="#FFB84F"/>
<path d="M146.598 107.854C147.197 106.011 149.803 106.011 150.402 107.854L151.531 111.328C151.799 112.152 152.567 112.71 153.433 112.71H157.086C159.023 112.71 159.829 115.189 158.262 116.328L155.306 118.475C154.605 118.985 154.312 119.887 154.58 120.711L155.709 124.186C156.307 126.028 154.198 127.561 152.631 126.422L149.676 124.275C148.975 123.765 148.025 123.765 147.324 124.275L144.369 126.422C142.802 127.561 140.693 126.028 141.291 124.186L142.42 120.711C142.688 119.887 142.395 118.985 141.694 118.475L138.738 116.328C137.171 115.189 137.977 112.71 139.914 112.71H143.567C144.433 112.71 145.201 112.152 145.469 111.328L146.598 107.854Z" fill="#FFB84F"/>
<path d="M144.65 70.1587C144.751 68.2239 147.269 67.5492 148.324 69.1741L150.314 72.2377C150.786 72.9644 151.672 73.3045 152.509 73.0803L156.037 72.1348C157.909 71.6334 159.329 73.8196 158.109 75.3253L155.81 78.1642C155.265 78.8375 155.215 79.7854 155.687 80.5121L157.677 83.5757C158.732 85.2006 157.092 87.2265 155.283 86.5322L151.872 85.2231C151.064 84.9126 150.147 85.1582 149.601 85.8316L147.303 88.6705C146.083 90.1762 143.65 89.242 143.751 87.3072L143.942 83.6592C143.988 82.7939 143.471 81.9979 142.662 81.6874L139.251 80.3783C137.443 79.684 137.579 77.0807 139.45 76.5793L142.979 75.6338C143.816 75.4095 144.413 74.6719 144.459 73.8066L144.65 70.1587Z" fill="#FFB84F"/>
<path d="M108.703 44.7709C108.3 42.8757 110.558 41.5723 111.998 42.8687L114.712 45.3131C115.356 45.8928 116.3 45.992 117.051 45.5588L120.214 43.7323C121.892 42.7636 123.829 44.5079 123.041 46.2779L121.556 49.615C121.203 50.4065 121.4 51.335 122.044 51.9148L124.759 54.3591C126.199 55.6555 125.139 58.0369 123.212 57.8344L119.579 57.4526C118.717 57.362 117.895 57.8366 117.543 58.6281L116.057 61.9653C115.269 63.7352 112.676 63.4627 112.273 61.5676L111.514 57.9945C111.334 57.147 110.628 56.5118 109.767 56.4213L106.134 56.0394C104.207 55.8369 103.665 53.2871 105.343 52.3183L108.506 50.4919C109.257 50.0586 109.643 49.1915 109.463 48.344L108.703 44.7709Z" fill="#FFB84F"/>
<path d="M115.643 140.174C116.698 138.549 119.216 139.224 119.317 141.159L119.509 144.807C119.554 145.672 120.151 146.41 120.988 146.634L124.517 147.579C126.388 148.081 126.525 150.684 124.716 151.378L121.305 152.687C120.497 152.998 119.98 153.794 120.025 154.659L120.216 158.307C120.318 160.242 117.884 161.176 116.665 159.67L114.366 156.832C113.82 156.158 112.904 155.913 112.095 156.223L108.684 157.532C106.876 158.226 105.235 156.201 106.29 154.576L108.28 151.512C108.752 150.785 108.702 149.837 108.157 149.164L105.858 146.325C104.639 144.82 106.058 142.633 107.93 143.135L111.458 144.08C112.295 144.304 113.181 143.964 113.653 143.238L115.643 140.174Z" fill="#FFB84F"/>
</g>
<defs>
<clipPath id="clip0_113_658">
<rect width="300" height="300" fill="white"/>
</clipPath>
</defs>
</svg>
