<svg width="300" height="300" viewBox="0 0 300 300" fill="none" xmlns="http://www.w3.org/2000/svg">
<g clip-path="url(#clip0_113_658)">
<rect width="300" height="300" fill="#EF4B4B"/>
<rect x="500" y="300" width="500" height="300" transform="rotate(-180 500 300)" fill="#EF4B4B"/>
<path d="M63.6958 75.7082C64.8932 72.023 70.1068 72.023 71.3042 75.7082L74.3477 85.075C74.8832 86.7231 76.419 87.8389 78.1519 87.8389H88.0007C91.8756 87.8389 93.4867 92.7974 90.3519 95.075L82.384 100.864C80.982 101.883 80.3954 103.688 80.9309 105.336L83.9744 114.703C85.1718 118.388 80.9539 121.453 77.819 119.175L69.8511 113.386C68.4492 112.367 66.5508 112.367 65.1489 113.386L57.181 119.175C54.0461 121.453 49.8282 118.388 51.0256 114.703L54.0691 105.336C54.6046 103.688 54.0179 101.883 52.616 100.864L44.6481 95.075C41.5133 92.7974 43.1244 87.8389 46.9993 87.8389H56.8481C58.581 87.8389 60.1168 86.7231 60.6523 85.075L63.6958 75.7082Z" fill="#FFB84F"/>
<path d="M146.598 107.854C147.197 106.011 149.803 106.011 150.402 107.854L151.531 111.328C151.799 112.152 152.567 112.71 153.433 112.71H157.086C159.023 112.71 159.829 115.189 158.262 116.328L155.306 118.475C154.605 118.985 154.312 119.887 154.58 120.711L155.709 124.186C156.307 126.028 154.198 127.561 152.631 126.422L149.676 124.275C148.975 123.765 148.025 123.765 147.324 124.275L144.369 126.422C142.802 127.561 140.693 126.028 141.291 124.186L142.42 120.711C142.688 119.887 142.395 118.985 141.694 118.475L138.738 116.328C137.171 115.189 137.977 112.71 139.914 112.71H143.567C144.433 112.71 145.201 112.152 145.469 111.328L146.598 107.854Z" fill="#FFB84F"/>
<path d="M144.65 70.1587C144.751 68.2239 147.269 67.5492 148.324 69.1741L150.314 72.2377C150.786 72.9644 151.672 73.3045 152.509 73.0803L156.037 72.1348C157.909 71.6334 159.329 73.8196 158.109 75.3253L155.81 78.1642C155.265 78.8375 155.215 79.7854 155.687 80.5121L157.677 83.5757C158.732 85.2006 157.092 87.2265 155.283 86.5322L151.872 85.2231C151.064 84.9126 150.147 85.1582 149.601 85.8316L147.303 88.6705C146.083 90.1762 143.65 89.242 143.751 87.3072L143.942 83.6592C143.988 82.7939 143.471 81.9979 142.662 81.6874L139.251 80.3783C137.443 79.684 137.579 77.0807 139.45 76.5793L142.979 75.6338C143.816 75.4095 144.413 74.6719 144.459 73.8066L144.65 70.1587Z" fill="#FFB84F"/>
<path d="M108.703 44.7709C108.3 42.8757 110.558 41.5723 111.998 42.8687L114.712 45.3131C115.356 45.8928 116.3 45.992 117.051 45.5588L120.214 43.7323C121.892 42.7636 123.829 44.5079 123.041 46.2779L121.556 49.615C121.203 50.4065 121.4 51.335 122.044 51.9148L124.759 54.3591C126.199 55.6555 125.139 58.0369 123.212 57.8344L119.579 57.4526C118.717 57.362 117.895 57.8366 117.543 58.6281L116.057 61.9653C115.269 63.7352 112.676 63.4627 112.273 61.5676L111.514 57.9945C111.334 57.147 110.628 56.5118 109.767 56.4213L106.134 56.0394C104.207 55.8369 103.665 53.2871 105.343 52.3183L108.506 50.4919C109.257 50.0586 109.643 49.1915 109.463 48.344L108.703 44.7709Z" fill="#FFB84F"/>
<path d="M115.643 140.174C116.698 138.549 119.216 139.224 119.317 141.159L119.509 144.807C119.554 145.672 120.151 146.41 120.988 146.634L124.517 147.579C126.388 148.081 126.525 150.684 124.716 151.378L121.305 152.687C120.497 152.998 119.98 153.794 120.025 154.659L120.216 158.307C120.318 160.242 117.884 161.176 116.665 159.67L114.366 156.832C113.82 156.158 112.904 155.913 112.095 156.223L108.684 157.532C106.876 158.226 105.235 156.201 106.29 154.576L108.28 151.512C108.752 150.785 108.702 149.837 108.157 149.164L105.858 146.325C104.639 144.82 106.058 142.633 107.93 143.135L111.458 144.08C112.295 144.304 113.181 143.964 113.653 143.238L115.643 140.174Z" fill="#FFB84F"/>
</g>
<defs>
<clipPath id="clip0_113_658">
<rect width="300" height="300" fill="white"/>
</clipPath>
</defs>
</svg>
