<svg width="300" height="300" viewBox="0 0 300 300" fill="none" xmlns="http://www.w3.org/2000/svg">
<g clip-path="url(#clip0_118_1449)">
<rect width="300" height="300" fill="white"/>
<circle cx="120.326" cy="150.326" r="70.326" fill="#EB5757"/>
<ellipse cx="145.28" cy="150.326" rx="56.2608" ry="55.8071" fill="white"/>
<path d="M176.667 134.501C177.395 131.389 181.571 130.801 183.13 133.591L186.032 138.785C186.703 139.985 188.013 140.681 189.382 140.565L195.311 140.065C198.496 139.796 200.345 143.586 198.173 145.931L194.13 150.296C193.197 151.304 192.939 152.765 193.472 154.032L195.78 159.516C197.02 162.462 193.988 165.392 191.086 164.051L185.685 161.555C184.438 160.978 182.969 161.185 181.929 162.083L177.427 165.973C175.008 168.063 171.285 166.084 171.663 162.91L172.368 157.002C172.531 155.638 171.88 154.304 170.704 153.593L165.614 150.513C162.879 148.859 163.61 144.706 166.746 144.085L172.582 142.93C173.93 142.663 174.998 141.632 175.311 140.294L176.667 134.501Z" fill="#EB5757"/>
<path d="M0 253L300 253L300 277L-7.55329e-06 277L0 253Z" fill="#EB5757"/>
<path d="M0 24L300 24.0001L300 48L-7.55329e-06 47.9999L0 24Z" fill="#EB5757"/>
</g>
<defs>
<clipPath id="clip0_118_1449">
<rect width="300" height="300" fill="white"/>
</clipPath>
</defs>
</svg>
