<svg width="300" height="300" viewBox="0 0 300 300" fill="none" xmlns="http://www.w3.org/2000/svg">
<g clip-path="url(#clip0_118_250)">
<rect width="300" height="300" fill="white"/>
<rect x="300" y="300" width="300" height="60" transform="rotate(-180 300 300)" fill="#003EBA"/>
<rect x="300" y="180" width="300" height="60" transform="rotate(-180 300 180)" fill="#003EBA"/>
<rect x="300" y="60" width="300" height="60" transform="rotate(-180 300 60)" fill="#003EBA"/>
<path d="M-115.474 354.419C-121.446 358.85 -129.762 358.238 -135.02 352.98L-327.393 160.606C-333.251 154.748 -333.251 145.251 -327.393 139.393L-135.02 -52.9805C-129.762 -58.2383 -121.446 -58.8506 -115.474 -54.4196L143.767 137.954C151.849 143.952 151.849 156.049 143.767 162.046L-115.474 354.419Z" fill="#FF4A4A"/>
<path d="M49.7447 122.635C51.2415 118.029 57.7585 118.029 59.2553 122.635L62.9193 133.912C63.5886 135.972 65.5084 137.367 67.6746 137.367H79.5315C84.3751 137.367 86.389 143.565 82.4704 146.412L72.878 153.381C71.1255 154.654 70.3922 156.911 71.0616 158.971L74.7256 170.248C76.2224 174.855 70.9499 178.685 67.0314 175.838L57.4389 168.869C55.6865 167.596 53.3135 167.596 51.5611 168.869L41.9686 175.838C38.05 178.685 32.7776 174.855 34.2744 170.248L37.9384 158.971C38.6078 156.911 37.8745 154.654 36.122 153.381L26.5296 146.412C22.611 143.565 24.6249 137.367 29.4685 137.367H41.3254C43.4916 137.367 45.4114 135.972 46.0807 133.912L49.7447 122.635Z" fill="white"/>
</g>
<defs>
<clipPath id="clip0_118_250">
<rect width="300" height="300" fill="white"/>
</clipPath>
</defs>
</svg>
