<svg width="300" height="300" viewBox="0 0 300 300" fill="none" xmlns="http://www.w3.org/2000/svg">
<g clip-path="url(#clip0)">
<rect width="300" height="300" fill="white"/>
<rect x="300" y="300" width="300" height="60" transform="rotate(-180 300 300)" fill="#003EBA"/>
<rect x="300" y="180" width="300" height="60" transform="rotate(-180 300 180)" fill="#003EBA"/>
<rect x="300" y="60" width="300" height="60" transform="rotate(-180 300 60)" fill="#003EBA"/>
<path d="M-124.482 361.103C-125.278 361.694 -126.387 361.613 -127.088 360.912L-336.586 151.414C-337.367 150.633 -337.367 149.367 -336.586 148.586L-127.088 -60.912C-126.387 -61.6131 -125.278 -61.6947 -124.482 -61.1039L157.836 148.394C158.913 149.194 158.913 150.807 157.836 151.606L-124.482 361.103Z" fill="#FF4A4A"/>
<path d="M52.5979 113.854C53.1966 112.011 55.8034 112.011 56.4021 113.854L63.5928 135.985C63.8606 136.809 64.6285 137.367 65.4949 137.367H88.7645C90.702 137.367 91.5075 139.846 89.9401 140.985L71.1146 154.662C70.4136 155.172 70.1203 156.074 70.3881 156.898L77.5788 179.029C78.1775 180.872 76.0685 182.404 74.5011 181.265L55.6756 167.588C54.9746 167.078 54.0254 167.078 53.3244 167.588L34.4989 181.265C32.9315 182.404 30.8225 180.872 31.4212 179.029L38.6119 156.898C38.8797 156.074 38.5864 155.172 37.8854 154.662L19.0599 140.985C17.4925 139.846 18.298 137.367 20.2355 137.367H43.5051C44.3715 137.367 45.1394 136.809 45.4072 135.985L52.5979 113.854Z" fill="white"/>
</g>
<defs>
<clipPath id="clip0">
<rect width="300" height="300" fill="white"/>
</clipPath>
</defs>
</svg>
