<svg width="300" height="300" viewBox="0 0 300 300" fill="none" xmlns="http://www.w3.org/2000/svg">
<g clip-path="url(#clip0_118_250)">
<rect width="300" height="300" fill="white"/>
<rect x="300" y="300" width="300" height="60" transform="rotate(-180 300 300)" fill="#003EBA"/>
<rect x="300" y="180" width="300" height="60" transform="rotate(-180 300 180)" fill="#003EBA"/>
<rect x="300" y="60" width="300" height="60" transform="rotate(-180 300 60)" fill="#003EBA"/>
<path d="M-121.711 359.047C-124.099 360.819 -127.425 360.574 -129.529 358.471L-333.757 154.242C-336.101 151.899 -336.101 148.1 -333.757 145.757L-129.529 -58.4715C-127.426 -60.5747 -124.099 -60.8196 -121.711 -59.0472L153.507 145.182C156.74 147.581 156.74 152.42 153.507 154.818L-121.711 359.047Z" fill="#FF4A4A"/>
<path d="M49.7447 122.635C51.2415 118.029 57.7585 118.029 59.2553 122.635L62.9193 133.912C63.5886 135.972 65.5084 137.367 67.6746 137.367H79.5315C84.3751 137.367 86.389 143.565 82.4704 146.412L72.878 153.381C71.1255 154.654 70.3922 156.911 71.0616 158.971L74.7256 170.248C76.2224 174.855 70.9499 178.685 67.0314 175.838L57.4389 168.869C55.6865 167.596 53.3135 167.596 51.5611 168.869L41.9686 175.838C38.05 178.685 32.7776 174.855 34.2744 170.248L37.9384 158.971C38.6078 156.911 37.8745 154.654 36.122 153.381L26.5296 146.412C22.611 143.565 24.6249 137.367 29.4685 137.367H41.3254C43.4916 137.367 45.4114 135.972 46.0807 133.912L49.7447 122.635Z" fill="white"/>
</g>
<defs>
<clipPath id="clip0_118_250">
<rect width="300" height="300" fill="white"/>
</clipPath>
</defs>
</svg>
