<svg width="300" height="300" viewBox="0 0 300 300" fill="none" xmlns="http://www.w3.org/2000/svg">
<g clip-path="url(#clip0)">
<rect width="300" height="300" fill="#3661F6"/>
<rect x="300" y="300" width="300" height="300" transform="rotate(-180 300 300)" fill="#3661F6"/>
<rect x="300" y="189" width="300" height="25" transform="rotate(-180 300 189)" fill="white"/>
<rect x="300" y="214" width="300" height="25" transform="rotate(-180 300 214)" fill="#EF4B4B"/>
<rect x="300" y="239" width="300" height="25" transform="rotate(-180 300 239)" fill="white"/>
<path d="M103.049 132.927C103.348 132.006 104.652 132.006 104.951 132.927L107.486 140.728C107.62 141.14 108.004 141.419 108.437 141.419L116.639 141.419C117.608 141.419 118.011 142.659 117.227 143.228L110.591 148.049C110.241 148.304 110.094 148.755 110.228 149.167L112.763 156.969C113.062 157.89 112.007 158.656 111.224 158.087L104.588 153.265C104.237 153.011 103.763 153.011 103.412 153.265L96.7762 158.087C95.9925 158.656 94.938 157.89 95.2374 156.969L97.7721 149.167C97.906 148.755 97.7593 148.304 97.4088 148.049L90.7729 143.228C89.9891 142.659 90.3919 141.419 91.3606 141.419L99.5632 141.419C99.9964 141.419 100.38 141.14 100.514 140.728L103.049 132.927Z" fill="#FFB84F"/>
<path d="M103.049 241.876C103.348 240.954 104.652 240.954 104.951 241.876L107.486 249.677C107.62 250.089 108.004 250.368 108.437 250.368L116.639 250.368C117.608 250.368 118.011 251.607 117.227 252.177L110.591 256.998C110.241 257.253 110.094 257.704 110.228 258.116L112.763 265.917C113.062 266.838 112.007 267.604 111.224 267.035L104.588 262.214C104.237 261.959 103.763 261.959 103.412 262.214L96.7762 267.035C95.9925 267.604 94.938 266.838 95.2374 265.917L97.7721 258.116C97.906 257.704 97.7593 257.253 97.4088 256.998L90.7729 252.177C89.9891 251.607 90.3919 250.368 91.3606 250.368L99.5632 250.368C99.9964 250.368 100.38 250.089 100.514 249.677L103.049 241.876Z" fill="#FFB84F"/>
<path d="M172.073 200.049C172.994 200.348 172.994 201.652 172.073 201.951L164.272 204.486C163.86 204.62 163.581 205.004 163.581 205.437L163.581 213.639C163.581 214.608 162.341 215.011 161.772 214.227L156.951 207.591C156.696 207.241 156.245 207.094 155.833 207.228L148.031 209.763C147.11 210.062 146.344 209.007 146.913 208.224L151.735 201.588C151.989 201.237 151.989 200.763 151.735 200.412L146.913 193.776C146.344 192.993 147.11 191.938 148.031 192.237L155.833 194.772C156.245 194.906 156.696 194.759 156.951 194.409L161.772 187.773C162.341 186.989 163.581 187.392 163.581 188.361L163.581 196.563C163.581 196.996 163.86 197.38 164.272 197.514L172.073 200.049Z" fill="#FFB84F"/>
<path d="M63.1247 200.049C64.046 200.348 64.046 201.652 63.1247 201.951L55.3237 204.486C54.9116 204.62 54.6327 205.004 54.6327 205.437L54.6327 213.639C54.6327 214.608 53.3931 215.011 52.8236 214.227L48.0023 207.591C47.7477 207.241 47.2963 207.094 46.8843 207.228L39.0832 209.763C38.1619 210.062 37.3958 209.007 37.9652 208.224L42.7865 201.588C43.0412 201.237 43.0412 200.763 42.7865 200.412L37.9652 193.776C37.3958 192.993 38.1619 191.938 39.0832 192.237L46.8843 194.772C47.2963 194.906 47.7477 194.759 48.0023 194.409L52.8237 187.773C53.3931 186.989 54.6327 187.392 54.6327 188.361L54.6327 196.563C54.6327 196.996 54.9116 197.38 55.3237 197.514L63.1247 200.049Z" fill="#FFB84F"/>
<path d="M151.462 152.193C152.325 151.753 153.247 152.675 152.807 153.538L149.083 160.846C148.887 161.232 148.961 161.701 149.267 162.007L155.067 167.807C155.752 168.492 155.161 169.654 154.204 169.502L146.102 168.219C145.674 168.151 145.252 168.367 145.055 168.753L141.331 176.061C140.891 176.924 139.604 176.72 139.452 175.764L138.169 167.662C138.101 167.234 137.766 166.899 137.338 166.831L129.236 165.548C128.28 165.396 128.076 164.109 128.939 163.669L136.247 159.945C136.633 159.748 136.849 159.326 136.781 158.898L135.498 150.796C135.346 149.839 136.508 149.248 137.193 149.933L142.993 155.733C143.299 156.039 143.768 156.113 144.154 155.917L151.462 152.193Z" fill="#FFB84F"/>
<path d="M74.4243 229.231C75.2874 228.791 76.2091 229.713 75.7693 230.576L72.0454 237.884C71.8487 238.27 71.923 238.739 72.2293 239.045L78.0294 244.845C78.7143 245.53 78.1226 246.692 77.1658 246.54L69.0643 245.257C68.6364 245.189 68.2135 245.405 68.0168 245.791L64.293 253.099C63.8532 253.962 62.5658 253.758 62.4143 252.802L61.1311 244.7C61.0634 244.272 60.7278 243.937 60.2999 243.869L52.1983 242.586C51.2416 242.434 51.0377 241.147 51.9008 240.707L59.2093 236.983C59.5953 236.786 59.8108 236.364 59.743 235.936L58.4598 227.834C58.3083 226.877 59.4696 226.286 60.1546 226.971L65.9547 232.771C66.261 233.077 66.7298 233.151 67.1158 232.955L74.4243 229.231Z" fill="#FFB84F"/>
<path d="M152.807 248.463C153.247 249.326 152.325 250.247 151.462 249.808L144.154 246.084C143.768 245.887 143.299 245.961 142.993 246.268L137.193 252.068C136.508 252.753 135.346 252.161 135.498 251.204L136.781 243.103C136.849 242.675 136.633 242.252 136.247 242.055L128.939 238.331C128.076 237.892 128.28 236.604 129.236 236.453L137.338 235.169C137.766 235.102 138.101 234.766 138.169 234.338L139.452 226.237C139.604 225.28 140.891 225.076 141.331 225.939L145.055 233.248C145.252 233.634 145.674 233.849 146.102 233.781L154.204 232.498C155.161 232.347 155.752 233.508 155.067 234.193L149.267 239.993C148.961 240.299 148.887 240.768 149.083 241.154L152.807 248.463Z" fill="#FFB84F"/>
<path d="M75.7695 171.424C76.2093 172.287 75.2876 173.209 74.4245 172.769L67.116 169.045C66.73 168.848 66.2613 168.923 65.9549 169.229L60.1549 175.029C59.4699 175.714 58.3085 175.122 58.4601 174.166L59.7432 166.064C59.811 165.636 59.5955 165.213 59.2095 165.017L51.901 161.293C51.0379 160.853 51.2418 159.566 52.1986 159.414L60.3001 158.131C60.728 158.063 61.0636 157.728 61.1314 157.3L62.4145 149.198C62.5661 148.241 63.8534 148.037 64.2932 148.901L68.0171 156.209C68.2138 156.595 68.6366 156.811 69.0645 156.743L77.1661 155.46C78.1229 155.308 78.7146 156.469 78.0296 157.154L72.2295 162.954C71.9232 163.261 71.849 163.73 72.0456 164.116L75.7695 171.424Z" fill="#FFB84F"/>
</g>
<defs>
<clipPath id="clip0">
<rect width="300" height="300" fill="white"/>
</clipPath>
</defs>
</svg>
