<svg width="300" height="300" viewBox="0 0 300 300" fill="none" xmlns="http://www.w3.org/2000/svg">
<g clip-path="url(#clip0_121_51)">
<rect width="300" height="300" fill="#3661F6"/>
<rect x="300" y="300" width="300" height="300" transform="rotate(-180 300 300)" fill="#3661F6"/>
<rect x="300" y="189" width="300" height="25" transform="rotate(-180 300 189)" fill="white"/>
<rect x="300" y="214" width="300" height="25" transform="rotate(-180 300 214)" fill="#EF4B4B"/>
<rect x="300" y="239" width="300" height="25" transform="rotate(-180 300 239)" fill="white"/>
<path d="M101.622 137.318C102.371 135.014 105.629 135.014 106.378 137.318L107.149 139.692C107.484 140.722 108.444 141.419 109.527 141.419L112.023 141.419C114.445 141.419 115.452 144.518 113.492 145.942L111.473 147.409C110.597 148.045 110.23 149.174 110.565 150.204L111.336 152.578C112.084 154.881 109.448 156.797 107.489 155.373L105.469 153.906C104.593 153.269 103.407 153.269 102.531 153.906L100.511 155.373C98.5518 156.797 95.9156 154.881 96.664 152.578L97.4353 150.204C97.77 149.174 97.4034 148.045 96.5271 147.409L94.5077 145.942C92.5484 144.518 93.5554 141.419 95.9772 141.419L98.4733 141.419C99.5564 141.419 100.516 140.722 100.851 139.692L101.622 137.318Z" fill="#FFB84F"/>
<path d="M101.622 246.266C102.371 243.963 105.629 243.963 106.378 246.266L107.149 248.64C107.484 249.67 108.444 250.368 109.527 250.368L112.023 250.368C114.445 250.368 115.452 253.467 113.492 254.89L111.473 256.357C110.597 256.994 110.23 258.122 110.565 259.152L111.336 261.526C112.084 263.83 109.448 265.745 107.489 264.322L105.469 262.854C104.593 262.218 103.407 262.218 102.531 262.854L100.511 264.322C98.5518 265.745 95.9156 263.83 96.664 261.526L97.4353 259.152C97.77 258.122 97.4034 256.994 96.5271 256.357L94.5077 254.89C92.5484 253.467 93.5554 250.368 95.9772 250.368L98.4733 250.368C99.5564 250.368 100.516 249.67 100.851 248.64L101.622 246.266Z" fill="#FFB84F"/>
<path d="M167.682 198.622C169.986 199.371 169.986 202.629 167.682 203.378L165.308 204.149C164.278 204.484 163.581 205.444 163.581 206.527L163.581 209.023C163.581 211.445 160.482 212.452 159.058 210.492L157.591 208.473C156.955 207.597 155.826 207.23 154.796 207.565L152.422 208.336C150.119 209.084 148.203 206.448 149.627 204.489L151.094 202.469C151.731 201.593 151.731 200.407 151.094 199.531L149.627 197.511C148.203 195.552 150.119 192.916 152.422 193.664L154.796 194.435C155.826 194.77 156.955 194.403 157.591 193.527L159.058 191.508C160.482 189.548 163.581 190.555 163.581 192.977L163.581 195.473C163.581 196.556 164.278 197.516 165.308 197.851L167.682 198.622Z" fill="#FFB84F"/>
<path d="M58.7341 198.622C61.0374 199.371 61.0374 202.629 58.7341 203.378L56.3601 204.149C55.3301 204.484 54.6327 205.444 54.6327 206.527L54.6327 209.023C54.6327 211.445 51.5336 212.452 50.1101 210.492L48.6429 208.473C48.0063 207.597 46.8779 207.23 45.8478 207.565L43.4738 208.336C41.1705 209.084 39.2552 206.448 40.6787 204.489L42.1459 202.469C42.7826 201.593 42.7826 200.407 42.1459 199.531L40.6787 197.511C39.2552 195.552 41.1705 192.916 43.4738 193.664L45.8478 194.435C46.8779 194.77 48.0063 194.403 48.6429 193.527L50.1101 191.508C51.5336 189.548 54.6327 190.555 54.6327 192.977L54.6327 195.473C54.6327 196.556 55.3301 197.516 56.3601 197.851L58.7341 198.622Z" fill="#FFB84F"/>
<path d="M147.349 154.289C149.507 153.189 151.811 155.493 150.711 157.651L149.578 159.875C149.087 160.84 149.272 162.012 150.038 162.778L151.803 164.543C153.516 166.255 152.036 169.159 149.644 168.78L147.179 168.389C146.109 168.22 145.052 168.759 144.56 169.724L143.427 171.948C142.327 174.106 139.109 173.596 138.73 171.204L138.34 168.738C138.17 167.669 137.331 166.83 136.262 166.66L133.796 166.27C131.404 165.891 130.894 162.673 133.052 161.573L135.276 160.44C136.241 159.948 136.78 158.891 136.611 157.821L136.22 155.356C135.841 152.964 138.745 151.484 140.457 153.197L142.222 154.962C142.988 155.728 144.16 155.913 145.125 155.422L147.349 154.289Z" fill="#FFB84F"/>
<path d="M70.3109 231.327C72.4688 230.227 74.7729 232.531 73.6734 234.689L72.5402 236.913C72.0485 237.878 72.2341 239.05 72.9999 239.816L74.765 241.581C76.4775 243.293 74.9981 246.197 72.6061 245.818L70.1407 245.428C69.071 245.258 68.0138 245.797 67.5221 246.762L66.3888 248.986C65.2894 251.144 62.071 250.634 61.6921 248.242L61.3016 245.777C61.1322 244.707 60.2932 243.868 59.2235 243.698L56.758 243.308C54.366 242.929 53.8563 239.711 56.0141 238.611L58.2383 237.478C59.2033 236.986 59.7419 235.929 59.5725 234.859L59.182 232.394C58.8032 230.002 61.7065 228.523 63.419 230.235L65.1841 232C65.9499 232.766 67.1218 232.952 68.0868 232.46L70.3109 231.327Z" fill="#FFB84F"/>
<path d="M150.711 244.349C151.811 246.507 149.507 248.811 147.349 247.712L145.125 246.578C144.16 246.087 142.988 246.272 142.222 247.038L140.457 248.803C138.745 250.516 135.841 249.036 136.22 246.644L136.611 244.179C136.78 243.109 136.241 242.052 135.276 241.56L133.052 240.427C130.894 239.328 131.404 236.109 133.796 235.73L136.262 235.34C137.331 235.171 138.17 234.332 138.34 233.262L138.73 230.796C139.109 228.404 142.327 227.895 143.427 230.052L144.56 232.277C145.052 233.242 146.109 233.78 147.179 233.611L149.644 233.22C152.036 232.841 153.516 235.745 151.803 237.457L150.038 239.222C149.272 239.988 149.087 241.16 149.578 242.125L150.711 244.349Z" fill="#FFB84F"/>
<path d="M73.6736 167.311C74.7731 169.469 72.469 171.773 70.3112 170.673L68.087 169.54C67.122 169.048 65.9501 169.234 65.1843 170L63.4192 171.765C61.7068 173.477 58.8034 171.998 59.1823 169.606L59.5727 167.14C59.7422 166.071 59.2035 165.014 58.2385 164.522L56.0144 163.389C53.8565 162.289 54.3663 159.071 56.7583 158.692L59.2237 158.301C60.2935 158.132 61.1324 157.293 61.3019 156.223L61.6923 153.758C62.0712 151.366 65.2896 150.856 66.3891 153.014L67.5223 155.238C68.014 156.203 69.0712 156.742 70.1409 156.572L72.6064 156.182C74.9984 155.803 76.4777 158.706 74.7652 160.419L73.0002 162.184C72.2343 162.95 72.0487 164.122 72.5404 165.087L73.6736 167.311Z" fill="#FFB84F"/>
</g>
<defs>
<clipPath id="clip0_121_51">
<rect width="300" height="300" fill="white"/>
</clipPath>
</defs>
</svg>
