<svg width="300" height="300" viewBox="0 0 300 300" fill="none" xmlns="http://www.w3.org/2000/svg">
<rect width="300" height="300" fill="white"/>
<path d="M156.542 231.82C156.489 231.797 156.441 231.763 156.401 231.72L156.35 231.672C156.124 231.461 155.91 231.238 155.707 231.004C155.165 230.389 154.439 229.488 153.8 228.692C152.533 227.113 151.486 225.753 151.289 225.496V225.496C151.079 225.223 150.789 225.022 150.46 224.921L147.807 224.103L146.595 223.537C146.05 223.283 145.903 222.575 146.303 222.126V222.126C146.56 221.837 146.973 221.745 147.328 221.897L150.78 223.374C150.904 223.428 151.033 223.468 151.165 223.495L153.695 224.014C153.978 224.072 154.246 224.191 154.478 224.362L159.962 228.395C159.964 228.397 159.964 228.401 159.962 228.403V228.403C159.95 228.412 159.112 229.109 158.28 229.867C157.909 230.204 157.44 230.639 157.11 230.998C156.974 231.144 156.847 231.299 156.732 231.462C156.662 231.578 156.599 231.697 156.542 231.82M134.849 225.305C132 225.279 129.208 224.498 126.759 223.041C126.758 223.041 126.758 223.041 126.757 223.041V223.041C126.756 223.041 126.755 223.04 126.755 223.038V223.038C126.755 223.038 126.755 223.037 126.756 223.037C127.054 222.54 127.452 222.111 127.926 221.777C128.715 221.197 130.139 220.504 132.44 220.496H132.488C134.36 220.496 136.52 220.933 138.939 221.8C140.446 222.339 140.502 224.293 138.963 224.735C137.632 225.117 136.247 225.311 134.849 225.305ZM122.906 222.655C122.905 222.656 122.904 222.657 122.903 222.657C122.416 222.666 121.949 222.469 121.615 222.115C121.327 221.78 121.129 221.377 121.038 220.944C120.957 220.595 120.908 220.241 120.891 219.884C120.871 219.482 121.129 219.1 121.53 219.085V219.085H121.576C122.597 219.085 123.402 219.971 123.747 220.849C123.914 221.195 123.964 221.585 123.891 221.96C123.873 222.051 123.841 222.141 123.789 222.218C123.596 222.507 123.262 222.676 122.909 222.654C122.907 222.654 122.906 222.654 122.906 222.655V222.655ZM143.919 220.219C143.92 220.22 143.919 220.221 143.919 220.22C136.862 219.212 133.87 216.66 132.603 214.697C131.801 213.505 131.423 212.079 131.532 210.646V210.645C131.532 210.643 131.534 210.64 131.537 210.64V210.64C131.537 210.64 131.537 210.64 131.538 210.64C131.892 210.559 132.255 210.519 132.618 210.521C134.496 210.521 139.3 211.466 143.924 220.218V220.218C143.925 220.22 143.923 220.222 143.921 220.221L143.919 220.219V220.219ZM129.452 218.822C126.436 218.822 124.14 218.301 122.627 217.277C121.984 216.865 121.466 216.284 121.128 215.599V215.599C120.911 215.141 121.213 214.636 121.698 214.49C122.459 214.262 123.248 214.132 124.045 214.105C124.2 214.098 124.357 214.093 124.522 214.093C126.853 214.093 130.398 214.853 134.139 218.477L134.139 218.478C134.14 218.479 134.14 218.481 134.138 218.481V218.481C132.584 218.695 131.017 218.809 129.449 218.822L129.452 218.822ZM114.849 218.265C114.848 218.262 114.846 218.261 114.844 218.261C111.664 218.26 107.297 217.288 104.574 214.565V214.565C104.572 214.564 104.573 214.562 104.575 214.562H104.578C104.579 214.562 104.579 214.562 104.579 214.562C106.65 214.073 108.765 213.792 110.892 213.723C111.09 213.718 111.291 213.716 111.492 213.716C114.474 213.716 116.756 214.294 118.276 215.434C118.643 215.654 118.928 215.984 119.093 216.375C119.145 216.499 119.176 216.634 119.16 216.768C119.126 217.041 118.972 217.29 118.733 217.44C118.048 217.957 116.824 218.233 115.095 218.26L114.855 218.268C114.852 218.268 114.85 218.267 114.849 218.265V218.265ZM104.541 212.972C104.542 212.973 104.541 212.974 104.54 212.974C104.151 212.974 103.782 212.8 103.534 212.499C103.305 212.198 103.15 211.846 103.083 211.473C102.98 210.983 102.94 210.48 102.965 209.979V209.979C102.965 209.975 102.968 209.971 102.972 209.969C103.125 209.899 103.292 209.862 103.46 209.86C103.859 209.875 104.236 210.043 104.513 210.331C104.821 210.633 105.055 211 105.199 211.407C105.343 211.745 105.369 212.123 105.273 212.478C105.154 212.777 104.864 212.973 104.542 212.97C104.542 212.97 104.541 212.971 104.541 212.972V212.972ZM128.347 212.435C128.346 212.436 128.346 212.437 128.344 212.437C127.858 212.446 127.39 212.249 127.057 211.895C126.769 211.56 126.57 211.157 126.479 210.724C126.398 210.376 126.349 210.021 126.331 209.664C126.312 209.262 126.569 208.88 126.971 208.865V208.865H127.017C128.038 208.865 128.843 209.751 129.188 210.629C129.358 210.981 129.407 211.378 129.328 211.758C129.311 211.838 129.284 211.915 129.24 211.983C129.05 212.281 128.709 212.457 128.349 212.434C128.348 212.434 128.347 212.434 128.347 212.435V212.435ZM116.75 211.958C116.751 211.958 116.75 211.957 116.75 211.957C110.35 211.731 107.031 209.912 105.37 208.426C104.66 207.803 104.075 207.051 103.646 206.21C103.487 205.897 103.365 205.568 103.279 205.228C103.278 205.223 103.28 205.217 103.285 205.215V205.215C103.798 205.06 104.33 204.98 104.865 204.98H105.015C107.173 204.98 111.567 205.886 116.748 211.955C116.749 211.956 116.749 211.956 116.749 211.956V211.958C116.749 211.958 116.75 211.959 116.75 211.958V211.958ZM123.702 211.31C123.702 211.31 123.701 211.31 123.701 211.31C118.552 210.526 115.635 208.316 114.095 206.599C113.509 205.97 113.009 205.268 112.608 204.513C112.206 203.757 112.704 202.866 113.561 202.854V202.854C113.629 202.854 113.701 202.851 113.774 202.851C113.847 202.851 113.922 202.851 113.999 202.854C116.588 202.911 121.292 204.084 123.7 211.307C123.7 211.307 123.701 211.307 123.701 211.307V211.307C123.703 211.307 123.703 211.309 123.702 211.31L123.702 211.31ZM97.2646 208.836C97.2651 208.837 97.2649 208.838 97.2642 208.838C95.626 208.843 93.993 208.647 92.4023 208.255C89.7063 207.581 88.5497 206.552 88.0543 205.806C87.8408 205.498 87.6981 205.146 87.635 204.776C87.6133 204.636 87.6085 204.494 87.6212 204.353C87.6219 204.345 87.6273 204.338 87.635 204.335V204.335C89.0275 203.99 90.4559 203.808 91.8907 203.795C91.9879 203.795 92.0859 203.793 92.1855 203.793C93.3548 203.79 94.5216 203.904 95.6685 204.13C98.2698 204.674 100.588 206.138 102.197 208.253C102.197 208.254 102.197 208.254 102.197 208.255V208.255C102.197 208.256 102.196 208.258 102.194 208.258H102.192C102.192 208.258 102.192 208.258 102.191 208.258C100.579 208.652 98.9246 208.846 97.265 208.835C97.2643 208.835 97.264 208.836 97.2646 208.836V208.836ZM109.22 204.495C109.219 204.494 109.219 204.494 109.218 204.494C108.733 204.507 108.265 204.315 107.929 203.965C107.64 203.626 107.441 203.219 107.352 202.783C107.271 202.438 107.222 202.088 107.205 201.735C107.185 201.334 107.442 200.952 107.844 200.937V200.937H107.89C108.909 200.937 109.715 201.823 110.061 202.701C110.245 203.086 110.28 203.525 110.16 203.935C109.995 204.3 109.621 204.523 109.222 204.496C109.221 204.496 109.22 204.496 109.22 204.495V204.495ZM100.231 203.262C100.231 203.262 100.231 203.262 100.231 203.262C98.5195 202.777 96.8827 202.062 95.3643 201.137C93.1106 199.749 90.3539 197.296 90.0155 193.484C90.0152 193.481 90.0174 193.479 90.0202 193.479V193.479C90.0205 193.479 90.0209 193.479 90.0212 193.479C90.1923 193.442 90.3658 193.421 90.5405 193.416C90.5811 193.416 90.6287 193.414 90.6763 193.414C91.3498 193.414 92.7285 193.603 94.3963 194.871C96.5181 196.489 98.4774 199.309 100.23 203.263C100.23 203.264 100.231 203.263 100.231 203.262V203.262ZM106.101 203.047C106.1 203.046 106.1 203.046 106.099 203.046C104.703 202.411 103.406 201.578 102.249 200.572C99.5655 198.263 97.4134 195.407 95.9333 192.201C95.6471 191.581 95.9423 190.826 96.6242 190.792V190.792C96.6649 190.789 96.7056 190.788 96.7487 190.788C96.8097 190.788 96.8727 190.788 96.937 190.792C97.9175 190.819 99.4109 191.227 101.067 193.013C102.968 195.066 104.666 198.439 106.11 203.039L106.11 203.041C106.112 203.046 106.107 203.05 106.103 203.048V203.048C106.102 203.048 106.101 203.048 106.101 203.047V203.047ZM90.8931 202.603C90.8932 202.603 90.8931 202.603 90.893 202.603C88.9327 202.603 88.2617 201.539 88.0641 201.082C87.8672 200.605 87.79 200.088 87.8388 199.574V199.574C87.8388 199.569 87.842 199.565 87.8467 199.564C88.1634 199.486 88.4885 199.444 88.8148 199.438H88.882C90.1639 199.407 91.3844 199.987 92.1697 201.001C92.2734 201.155 92.5914 201.689 92.3283 202.107C92.1169 202.437 91.6371 202.603 90.8931 202.603C90.893 202.603 90.893 202.603 90.8931 202.603V202.603ZM86.5485 197.124C86.5489 197.124 86.5488 197.124 86.5484 197.124C85.0303 197.128 83.5147 196.998 82.0189 196.737C80.2726 196.42 79.2827 194.935 78.7601 193.745C78.4093 192.934 78.1636 192.081 78.0288 191.207C78.0284 191.204 78.0303 191.202 78.0329 191.202V191.202C83.4347 191.361 85.9859 192.939 87.1746 194.235C87.9103 195 88.3693 195.99 88.4781 197.046C88.4783 197.048 88.4768 197.05 88.4748 197.05V197.05C88.4667 197.05 87.7069 197.123 86.5487 197.123C86.5483 197.123 86.5482 197.124 86.5485 197.124V197.124ZM92.1743 191.504C92.1745 191.504 92.1746 191.504 92.1745 191.504C92.1631 191.49 91.5482 190.728 90.9411 189.784C90.3013 188.79 89.7096 187.751 89.7096 186.903C89.7096 186.083 89.5168 184.355 89.4017 183.398C89.258 182.2 89.1127 181.172 89.0972 181.06C89.0969 181.058 89.0988 181.057 89.1013 181.057V181.057C89.1017 181.057 89.1019 181.057 89.1024 181.057C89.2452 181.109 92.4808 182.326 92.4808 185.364C92.4808 188.405 92.1807 191.47 92.1778 191.501V191.504C92.1778 191.504 92.1772 191.505 92.1764 191.505H92.1748C92.1744 191.505 92.1741 191.504 92.1743 191.504V191.504ZM87.9726 191.216C87.9728 191.215 87.9727 191.215 87.9724 191.215C87.9386 191.215 87.9051 191.212 87.8717 191.206C86.9135 191.047 85.2282 190.314 83.3684 189.247C81.3015 188.062 79.6231 186.792 78.6426 185.672C77.7478 184.65 77.2191 183.046 77.0646 180.903C77.009 180.113 77.0067 179.321 77.0571 178.531C77.0781 178.202 77.3051 177.905 77.6348 177.908V177.908C78.3522 177.92 79.118 178.243 80.1518 178.955C81.0941 179.626 81.9771 180.376 82.7913 181.198C83.8251 182.225 84.8024 183.307 85.7195 184.439V184.439C85.7281 184.45 85.7355 184.461 85.7423 184.473C85.8871 184.734 86.7826 186.356 87.4841 187.936C87.8441 188.683 88.1202 189.466 88.3073 190.273C88.3781 190.509 88.3781 190.761 88.3073 190.997C88.2772 191.074 88.2219 191.138 88.1507 191.18C88.0945 191.204 88.0338 191.216 87.9728 191.216C87.9724 191.216 87.9723 191.216 87.9726 191.216V191.216Z" fill="#3B9644"/>
<path d="M145.811 231.663C145.855 231.749 145.963 231.791 146.028 231.72V231.72L146.079 231.672C146.305 231.461 146.52 231.238 146.723 231.004C147.264 230.389 147.991 229.488 148.63 228.692C149.897 227.113 150.944 225.753 151.141 225.496V225.496C151.351 225.223 151.64 225.022 151.969 224.921L154.622 224.103L155.835 223.537C156.38 223.283 156.526 222.575 156.127 222.126V222.126C155.87 221.837 155.457 221.745 155.101 221.897L151.65 223.374C151.526 223.428 151.397 223.468 151.265 223.495L148.734 224.014C148.451 224.072 148.184 224.191 147.951 224.362L142.468 228.395C142.466 228.397 142.465 228.401 142.468 228.403V228.403C142.48 228.412 143.317 229.109 144.15 229.867C144.521 230.204 144.989 230.639 145.32 230.998C145.456 231.144 145.583 231.299 145.698 231.462C145.738 231.528 145.775 231.595 145.811 231.663ZM167.58 225.305C170.43 225.279 173.222 224.498 175.671 223.041C175.671 223.041 175.672 223.041 175.672 223.041V223.041C175.674 223.041 175.675 223.04 175.675 223.038V223.038C175.675 223.038 175.674 223.037 175.674 223.037C175.376 222.54 174.978 222.111 174.504 221.777C173.715 221.197 172.291 220.504 169.99 220.496H169.942C168.07 220.496 165.909 220.933 163.491 221.8C161.984 222.339 161.928 224.293 163.466 224.735C164.798 225.117 166.183 225.311 167.58 225.305ZM179.524 222.655C179.525 222.656 179.526 222.657 179.527 222.657C180.014 222.666 180.481 222.469 180.814 222.115C181.103 221.78 181.301 221.377 181.392 220.944C181.473 220.595 181.522 220.241 181.539 219.884C181.559 219.482 181.301 219.1 180.899 219.085V219.085H180.854C179.833 219.085 179.028 219.971 178.683 220.849C178.515 221.195 178.466 221.585 178.539 221.96C178.557 222.051 178.589 222.141 178.641 222.218C178.833 222.507 179.168 222.676 179.521 222.654C179.522 222.654 179.524 222.654 179.524 222.655V222.655ZM158.511 220.219C158.51 220.22 158.51 220.221 158.511 220.22C165.568 219.212 168.56 216.66 169.827 214.697C170.629 213.505 171.006 212.079 170.898 210.646V210.645C170.898 210.643 170.896 210.64 170.893 210.64V210.64C170.893 210.64 170.892 210.64 170.892 210.64C170.538 210.559 170.175 210.519 169.812 210.521C167.933 210.521 163.13 211.466 158.505 220.218V220.218C158.505 220.22 158.506 220.222 158.508 220.221L158.511 220.219V220.219ZM172.977 218.822C175.993 218.822 178.29 218.301 179.802 217.277C180.446 216.865 180.964 216.284 181.302 215.599V215.599C181.519 215.141 181.217 214.636 180.731 214.49C179.97 214.262 179.182 214.132 178.385 214.105C178.229 214.098 178.072 214.093 177.908 214.093C175.577 214.093 172.032 214.853 168.291 218.477L168.29 218.478C168.289 218.479 168.29 218.481 168.292 218.481V218.481C169.846 218.695 171.412 218.809 172.981 218.822L172.977 218.822ZM187.58 218.265C187.581 218.262 187.583 218.261 187.586 218.261C190.766 218.26 195.132 217.288 197.856 214.565V214.565C197.857 214.564 197.856 214.562 197.855 214.562H197.851C197.851 214.562 197.851 214.562 197.85 214.562C195.779 214.073 193.665 213.792 191.538 213.723C191.339 213.718 191.139 213.716 190.938 213.716C187.956 213.716 185.674 214.294 184.153 215.434C183.787 215.654 183.502 215.984 183.337 216.375C183.284 216.499 183.254 216.634 183.27 216.768C183.304 217.041 183.458 217.29 183.697 217.44C184.381 217.957 185.605 218.233 187.335 218.26L187.575 218.268C187.577 218.268 187.58 218.267 187.58 218.265V218.265ZM197.888 212.972C197.888 212.973 197.888 212.974 197.889 212.974C198.279 212.974 198.648 212.8 198.896 212.499C199.125 212.198 199.28 211.846 199.346 211.473C199.45 210.983 199.49 210.48 199.465 209.979V209.979C199.465 209.975 199.462 209.971 199.458 209.969C199.304 209.899 199.138 209.862 198.97 209.86C198.571 209.875 198.193 210.043 197.917 210.331C197.609 210.633 197.374 211 197.23 211.407C197.086 211.745 197.06 212.123 197.157 212.478C197.276 212.777 197.565 212.973 197.887 212.97C197.888 212.97 197.889 212.971 197.888 212.972V212.972ZM174.083 212.435C174.083 212.436 174.084 212.437 174.085 212.437C174.572 212.446 175.039 212.249 175.373 211.895C175.661 211.56 175.86 211.157 175.951 210.724C176.032 210.376 176.081 210.021 176.098 209.664C176.118 209.262 175.86 208.88 175.459 208.865V208.865H175.413C174.392 208.865 173.587 209.751 173.242 210.629C173.072 210.981 173.023 211.378 173.102 211.758C173.118 211.838 173.146 211.915 173.19 211.983C173.38 212.281 173.721 212.457 174.08 212.434C174.082 212.434 174.083 212.434 174.083 212.435V212.435ZM185.68 211.958C185.679 211.958 185.679 211.957 185.68 211.957C192.079 211.731 195.399 209.912 197.059 208.426C197.77 207.803 198.355 207.051 198.784 206.21C198.942 205.897 199.065 205.568 199.151 205.228C199.152 205.223 199.15 205.217 199.145 205.215V205.215C198.632 205.06 198.1 204.98 197.565 204.98H197.415C195.257 204.98 190.863 205.886 185.681 211.955C185.681 211.956 185.681 211.956 185.681 211.956V211.958C185.681 211.958 185.68 211.959 185.68 211.958V211.958ZM178.728 211.31C178.728 211.31 178.728 211.31 178.729 211.31C183.877 210.526 186.794 208.316 188.335 206.599C188.921 205.97 189.42 205.268 189.822 204.513C190.224 203.757 189.725 202.866 188.869 202.854V202.854C188.8 202.854 188.729 202.851 188.656 202.851C188.583 202.851 188.507 202.851 188.431 202.854C185.841 202.911 181.138 204.084 178.73 211.307C178.729 211.307 178.729 211.307 178.728 211.307V211.307C178.727 211.307 178.727 211.309 178.727 211.31L178.728 211.31ZM205.165 208.836C205.165 208.837 205.165 208.838 205.165 208.838C206.804 208.843 208.437 208.647 210.027 208.255C212.723 207.581 213.88 206.552 214.375 205.806C214.589 205.498 214.732 205.146 214.795 204.776C214.816 204.636 214.821 204.494 214.809 204.353C214.808 204.345 214.802 204.338 214.795 204.335V204.335C213.402 203.99 211.974 203.808 210.539 203.795C210.442 203.795 210.344 203.793 210.244 203.793C209.075 203.79 207.908 203.904 206.761 204.13C204.16 204.674 201.842 206.138 200.233 208.253C200.233 208.254 200.232 208.254 200.232 208.255V208.255C200.232 208.256 200.234 208.258 200.235 208.258H200.237C200.238 208.258 200.238 208.258 200.238 208.258C201.85 208.652 203.505 208.846 205.165 208.835C205.165 208.835 205.166 208.836 205.165 208.836V208.836ZM193.21 204.495C193.21 204.494 193.211 204.494 193.212 204.494C193.696 204.507 194.164 204.315 194.501 203.965C194.79 203.626 194.989 203.219 195.078 202.783C195.159 202.438 195.208 202.088 195.225 201.735C195.245 201.334 194.987 200.952 194.586 200.937V200.937H194.54C193.521 200.937 192.715 201.823 192.369 202.701C192.184 203.086 192.149 203.525 192.27 203.935C192.435 204.3 192.809 204.523 193.208 204.496C193.209 204.496 193.209 204.496 193.21 204.495V204.495ZM202.198 203.262C202.198 203.262 202.199 203.262 202.199 203.262C203.91 202.777 205.547 202.062 207.065 201.137C209.319 199.749 212.076 197.296 212.414 193.484C212.414 193.481 212.412 193.479 212.409 193.479V193.479C212.409 193.479 212.409 193.479 212.408 193.479C212.237 193.442 212.064 193.421 211.889 193.416C211.849 193.416 211.801 193.414 211.753 193.414C211.08 193.414 209.701 193.603 208.033 194.871C205.912 196.489 203.952 199.309 202.2 203.263C202.2 203.264 202.198 203.263 202.198 203.262V203.262ZM196.329 203.047C196.33 203.046 196.33 203.046 196.331 203.046C197.727 202.411 199.024 201.578 200.181 200.572C202.864 198.263 205.016 195.407 206.496 192.201C206.783 191.581 206.487 190.826 205.805 190.792V190.792C205.765 190.789 205.724 190.788 205.681 190.788C205.62 190.788 205.557 190.788 205.493 190.792C204.512 190.819 203.019 191.227 201.363 193.013C199.461 195.066 197.764 198.439 196.32 203.039L196.319 203.041C196.318 203.046 196.322 203.05 196.327 203.048V203.048C196.328 203.048 196.329 203.048 196.329 203.047V203.047ZM211.536 202.603C213.497 202.603 214.168 201.539 214.366 201.082C214.562 200.605 214.64 200.088 214.591 199.574V199.574C214.591 199.569 214.588 199.565 214.583 199.564C214.266 199.486 213.941 199.444 213.615 199.438H213.548C212.266 199.407 211.045 199.987 210.26 201.001C210.156 201.155 209.838 201.689 210.101 202.107C210.313 202.437 210.792 202.603 211.536 202.603ZM215.881 197.124C215.881 197.124 215.881 197.124 215.881 197.124C217.399 197.128 218.915 196.998 220.411 196.737C222.157 196.42 223.147 194.935 223.67 193.745C224.02 192.934 224.266 192.081 224.401 191.207C224.401 191.204 224.399 191.202 224.397 191.202V191.202C218.995 191.361 216.444 192.939 215.255 194.235C214.519 195 214.06 195.99 213.952 197.046C213.951 197.048 213.953 197.05 213.955 197.05V197.05C213.963 197.05 214.723 197.123 215.881 197.123C215.881 197.123 215.881 197.124 215.881 197.124V197.124ZM210.255 191.504C210.255 191.504 210.255 191.504 210.255 191.504C210.267 191.49 210.881 190.728 211.489 189.784C212.128 188.79 212.72 187.751 212.72 186.903C212.72 186.083 212.913 184.355 213.028 183.398C213.172 182.2 213.317 181.172 213.332 181.06C213.333 181.058 213.331 181.057 213.328 181.057V181.057C213.328 181.057 213.328 181.057 213.327 181.057C213.185 181.109 209.949 182.326 209.949 185.364C209.949 188.405 210.249 191.47 210.252 191.501V191.504C210.252 191.504 210.253 191.505 210.253 191.505H210.255C210.255 191.505 210.256 191.504 210.255 191.504V191.504ZM214.457 191.216C214.457 191.215 214.457 191.215 214.457 191.215C214.491 191.215 214.525 191.212 214.558 191.206C215.516 191.047 217.201 190.314 219.061 189.247C221.128 188.062 222.807 186.792 223.787 185.672C224.682 184.65 225.211 183.046 225.365 180.903C225.421 180.113 225.423 179.321 225.373 178.531C225.352 178.202 225.125 177.905 224.795 177.908V177.908C224.078 177.92 223.312 178.243 222.278 178.955C221.336 179.626 220.453 180.376 219.638 181.198C218.605 182.225 217.627 183.307 216.71 184.439V184.439C216.702 184.45 216.694 184.461 216.687 184.473C216.543 184.734 215.647 186.356 214.946 187.936C214.586 188.683 214.309 189.466 214.122 190.273C214.052 190.509 214.052 190.761 214.122 190.997C214.152 191.074 214.208 191.138 214.279 191.18C214.335 191.204 214.396 191.216 214.457 191.216C214.457 191.216 214.457 191.216 214.457 191.216V191.216Z" fill="#3B9644"/>
<path d="M263.92 68.0095C263.922 68.011 263.921 68.0135 263.919 68.0142L262.966 68.3941V68.3941C262.718 68.4927 262.453 68.5362 262.187 68.5216L262.054 68.5142C261.644 68.4917 261.236 68.5729 260.866 68.7504L260.591 68.8823C260.426 68.9618 260.266 69.0537 260.115 69.1573L258.415 70.319V70.319C258.359 70.3593 258.296 70.3889 258.229 70.4064L257.919 70.4873C257.719 70.5393 257.509 70.5232 257.32 70.4417L257.118 70.3545C257.007 70.3068 256.881 70.308 256.772 70.3579V70.3579C256.642 70.4167 256.551 70.536 256.527 70.6761L256.471 71.0151C256.447 71.1587 256.394 71.296 256.315 71.4185L256.199 71.5979C256.116 71.7272 256.009 71.8391 255.883 71.9275V71.9275C255.717 72.0443 255.523 72.1165 255.321 72.1371L254.568 72.2142C254.253 72.2464 253.946 72.3376 253.664 72.4829L253.633 72.4991C253.093 72.7777 252.468 72.8449 251.881 72.6878L251.629 72.6203C251.289 72.5293 250.929 72.5494 250.601 72.6778V72.6778C250.416 72.7502 250.246 72.8553 250.099 72.988L248.91 74.0587C248.74 74.2112 248.549 74.3383 248.343 74.4359L248.072 74.5646C247.895 74.6483 247.7 74.6863 247.504 74.6751V74.6751L246.599 74.6285C246.451 74.6209 246.302 74.6406 246.161 74.6868V74.6868C245.988 74.7436 245.829 74.839 245.698 74.9659L245.62 75.0416C245.339 75.3131 244.972 75.4783 244.582 75.5086L244.097 75.5463C243.927 75.5596 243.763 75.6179 243.622 75.7154V75.7154C243.487 75.8085 243.379 75.9343 243.306 76.0809L242.913 76.8729C242.811 77.0785 242.677 77.2671 242.517 77.4319L242.194 77.7651C242.097 77.8651 241.973 77.9339 241.837 77.9628V77.9628C241.708 77.9902 241.573 77.9805 241.449 77.935L241.285 77.8745C241.227 77.8533 241.165 77.8477 241.104 77.8584V77.8584C240.96 77.8837 240.848 77.9964 240.822 78.1403L240.758 78.5014C240.729 78.6632 240.655 78.8145 240.544 78.9362V78.9362C240.445 79.046 240.318 79.1298 240.178 79.178L239.866 79.2856C239.617 79.3713 239.386 79.5015 239.183 79.6699L238.933 79.8785C238.823 79.9698 238.704 80.0488 238.577 80.114V80.114C238.287 80.2631 237.965 80.337 237.639 80.3288L237.288 80.3201V80.3201C237.16 80.3201 237.034 80.3525 236.922 80.4142L236.629 80.576C236.378 80.7146 236.101 80.7991 235.816 80.8241L235.572 80.8455C234.983 80.8971 234.43 81.1474 234.002 81.5552V81.5552V81.5552C233.905 81.6447 233.8 81.7242 233.687 81.7924L233.548 81.8761L233.044 82.177V82.177C232.965 82.2252 232.872 82.2429 232.781 82.2268L232.506 82.1778C232.379 82.1553 232.248 82.1684 232.128 82.2159L231.825 82.3359C231.694 82.3878 231.545 82.3401 231.468 82.2219V82.2219C231.381 82.0882 231.204 82.0473 231.067 82.1294L230.922 82.2163C230.855 82.2567 230.779 82.2797 230.7 82.2831L230.482 82.2925C230.276 82.3013 230.071 82.2625 229.883 82.1789L229.356 81.9444L228.858 81.7227C228.779 81.6874 228.691 81.6753 228.605 81.6877V81.6877C228.413 81.7155 228.258 81.8617 228.22 82.0525L228.126 82.5231V82.5231C228.116 82.5783 228.093 82.6302 228.059 82.6751L227.851 82.9529C227.708 83.1426 227.53 83.3033 227.327 83.4263L226.917 83.675C226.804 83.7432 226.705 83.8316 226.625 83.9356V83.9356L225.614 85.2403L224.525 86.3852C223.975 86.9641 223.33 87.4448 222.617 87.8065L222.55 87.8409C222.23 88.0031 221.897 88.1371 221.554 88.2414L221.313 88.3147C220.701 88.5009 220.132 88.8056 219.637 89.2116V89.2116C219.351 89.4462 219.04 89.6476 218.708 89.8119L216.116 91.0967L211.707 93.2923C211.394 93.4478 211.071 93.5794 210.739 93.6858V93.6858C210.407 93.7922 210.067 93.8732 209.723 93.9281L209.613 93.9457C209.078 94.0311 208.552 94.1684 208.044 94.3557L206.255 95.0144L204.002 95.694L203.877 95.7322L203.43 95.8673L200.918 96.6272C200.479 96.7599 200.019 96.8035 199.563 96.7554L199.236 96.7208C198.933 96.6888 198.626 96.7262 198.34 96.8302V96.8302C198.05 96.9354 197.74 96.9725 197.434 96.9385L195.62 96.7372L194.478 96.7597C194.182 96.7656 193.889 96.7987 193.6 96.8588V96.8588C193.222 96.9374 192.855 97.0615 192.507 97.2284L191.145 97.8816L188.642 99.0844C188.191 99.3014 187.774 99.5834 187.404 99.9215V99.9215C187.076 100.222 186.71 100.478 186.316 100.684L185.379 101.172C185.308 101.209 185.234 101.24 185.158 101.264L184.04 101.618C183.701 101.725 183.357 101.471 183.358 101.116L183.359 101.035C183.359 101.031 183.358 101.028 183.357 101.025V101.025C183.352 101.008 183.334 100.999 183.318 101.005L182.682 101.206V101.206C182.362 101.307 182.036 101.383 181.704 101.434L180.946 101.551C180.746 101.582 180.545 101.597 180.343 101.597H179.954C179.839 101.597 179.725 101.581 179.615 101.549L179.326 101.465C179.272 101.449 179.215 101.451 179.162 101.469V101.469L177.143 102.133C176.372 102.386 175.575 102.553 174.767 102.631L173.169 102.786C172.682 102.833 172.202 102.932 171.736 103.081L171.315 103.216C170.883 103.355 170.431 103.422 169.976 103.415L169.896 103.413C169.525 103.408 169.156 103.458 168.8 103.564V103.564C168.606 103.622 168.406 103.663 168.205 103.688L167.477 103.777C167.083 103.825 166.684 103.797 166.3 103.695V103.695V103.695C166.213 103.671 166.123 103.661 166.033 103.665L162.083 103.837C161.622 103.857 161.16 103.841 160.702 103.789L159.606 103.665C159.341 103.635 159.073 103.65 158.813 103.709V103.709C158.388 103.806 157.944 103.783 157.531 103.644L156.889 103.429C156.573 103.322 156.247 103.249 155.916 103.211L154.482 103.045C154.071 102.997 153.665 102.913 153.269 102.795V102.795L152.376 102.53C152.089 102.445 151.78 102.481 151.52 102.631L151.509 102.637C151.385 102.709 151.246 102.754 151.103 102.769V102.769C150.947 102.786 150.79 102.767 150.642 102.713L149.952 102.463C149.839 102.422 149.721 102.4 149.601 102.397V102.397C149.462 102.393 149.324 102.416 149.194 102.463L148.792 102.609C148.599 102.679 148.39 102.69 148.192 102.639V102.639C148.053 102.603 147.923 102.538 147.811 102.449L147.769 102.416C147.594 102.276 147.386 102.186 147.166 102.153L146.725 102.087C146.499 102.054 146.287 101.958 146.112 101.811V101.811C145.847 101.588 145.5 101.487 145.156 101.533L142.945 101.826C142.238 101.919 141.519 101.864 140.835 101.663V101.663L137.546 100.704C137.42 100.668 137.29 100.653 137.159 100.659V100.659C136.927 100.671 136.703 100.752 136.517 100.891L136.337 101.026C136.187 101.137 136.022 101.227 135.847 101.291L135.075 101.572L134.688 101.673C134.347 101.761 133.998 101.812 133.646 101.823V101.823C133.185 101.839 132.724 101.787 132.277 101.67L132.098 101.623C131.718 101.523 131.349 101.387 130.996 101.216L130.258 100.858C130.127 100.794 129.989 100.745 129.847 100.712V100.712C129.63 100.66 129.405 100.645 129.182 100.667L128.309 100.755V100.755C128.067 100.777 127.825 100.728 127.611 100.613L125.716 99.5963L122.852 97.8068L121.002 96.9162C120.94 96.8865 120.874 96.8658 120.807 96.8548L120.445 96.7962C120.294 96.7716 120.147 96.8647 120.106 97.0126V97.0126C120.09 97.0696 120.091 97.13 120.109 97.1865L120.352 97.9533C120.413 98.1431 120.454 98.3384 120.475 98.5364L120.514 98.8966C120.548 99.2097 120.559 99.5249 120.548 99.8396L120.528 100.409L120.516 100.79C120.511 100.965 120.535 101.14 120.587 101.307V101.307C120.655 101.523 120.768 101.721 120.919 101.889L121.065 102.05C121.28 102.289 121.451 102.571 121.563 102.872V102.872C121.642 103.083 121.695 103.306 121.717 103.53L121.897 105.342L121.895 107.522L121.554 111L121.439 111.529L121.032 113.33L120.66 114.985L119.318 119.087C119.252 119.288 119.155 119.478 119.03 119.65V119.65C118.892 119.84 118.723 120.005 118.529 120.137L117.849 120.601L115.646 122.1L114.023 123.036V123.036C113.683 123.177 113.322 123.263 112.955 123.29L112.192 123.348L112.125 123.345C111.629 123.32 111.145 123.185 110.708 122.948V122.948C110.47 122.819 110.216 122.72 109.954 122.652V122.652C109.553 122.549 109.173 122.372 108.837 122.13L108.722 122.047C108.267 121.72 107.748 121.492 107.199 121.379V121.379C106.781 121.292 106.379 121.139 106.009 120.925L105.135 120.42C105.022 120.355 104.922 120.27 104.839 120.17V120.17C104.652 119.946 104.384 119.805 104.093 119.778L103.823 119.753C103.724 119.743 103.627 119.724 103.532 119.696L102.465 119.376C102.465 119.376 102.464 119.375 102.464 119.375V119.375C102.464 119.374 102.464 119.373 102.463 119.373L102.02 119.241V119.241C101.816 119.181 101.605 119.148 101.393 119.143L101.116 119.135C100.49 119.119 99.8738 118.975 99.305 118.712L99.0901 118.613C98.8489 118.502 98.5974 118.414 98.3391 118.352L98.2454 118.329C98.0618 118.285 97.8744 118.258 97.6857 118.248V118.248C97.1917 118.223 96.699 118.319 96.2505 118.528L95.8492 118.714L95.7455 118.763C95.461 118.895 95.1345 118.904 94.8428 118.789L94.7506 118.752C94.6551 118.714 94.5524 118.698 94.4498 118.704V118.704C94.2316 118.718 94.0323 118.833 93.9116 119.015L93.5339 119.586V119.586C93.4883 119.671 93.4181 119.741 93.3324 119.787L93.2502 119.83C93.1332 119.892 93.0025 119.924 92.8702 119.922L92.5839 119.918V119.918C92.3324 119.911 92.0825 119.96 91.8519 120.06L91.7888 120.088L91.2324 120.329L90.7411 120.544L90.5041 120.646C90.5023 120.647 90.5003 120.646 90.4989 120.645V120.645C90.4978 120.644 90.4962 120.643 90.4946 120.644L90.3495 120.673L90.0871 120.718V120.718C89.8774 120.759 89.6602 120.721 89.4758 120.614L89.1884 120.446L89.0075 120.339C88.9253 120.291 88.8356 120.256 88.7421 120.237L88.5318 120.194C88.43 120.173 88.3242 120.196 88.24 120.257V120.257C88.1494 120.323 88.093 120.425 88.0866 120.537L88.0578 121.035C88.0478 121.208 88.0064 121.377 87.9357 121.534L87.9271 121.554C87.8376 121.753 87.7067 121.931 87.5429 122.076L86.9938 122.562L86.6214 122.89C86.3305 123.146 86.0731 123.438 85.8555 123.758V123.758C85.6977 123.991 85.5616 124.237 85.4489 124.495L84.5303 126.591C84.2596 127.209 83.9326 127.801 83.5534 128.359L83.188 128.897L82.8972 129.218L82.5563 129.593C82.1287 130.063 81.6613 130.495 81.1591 130.885L81.0451 130.973L80.0991 131.707C79.3993 132.249 78.6214 132.683 77.792 132.992V132.992C77.3637 133.153 76.9235 133.279 76.4754 133.37L76.2938 133.408C75.7768 133.513 75.2507 133.568 74.723 133.57V133.57L73.7612 133.442C73.3998 133.394 73.043 133.316 72.6945 133.209V133.209C72.145 133.04 71.6199 132.8 71.1325 132.496L70.3823 132.027L68.7555 130.718L66.6759 128.664C66.492 128.482 66.2872 128.323 66.0656 128.19V128.19L65.9961 128.144L65.4207 127.776C65.3119 127.706 65.1849 127.671 65.0559 127.674L65.0241 127.675C64.8241 127.68 64.6405 127.787 64.5367 127.958V127.958C64.5042 128.011 64.4805 128.07 64.4664 128.131L64.3697 128.552L64.27 129.008L64.0157 131.447C64.0053 131.547 64.0067 131.648 64.0199 131.747V131.747V131.747C64.1131 132.447 64.3768 133.114 64.7878 133.689L65.4397 134.6C65.7797 135.075 66.0646 135.587 66.2888 136.127L66.4358 136.48C66.481 136.589 66.5339 136.694 66.5943 136.795V136.795L66.9636 137.415L67.2446 137.888V137.888C67.2633 137.92 67.2786 137.954 67.2903 137.989L67.7033 139.225C67.819 139.571 67.8053 139.947 67.6648 140.284L67.5489 140.562C67.4869 140.711 67.4793 140.876 67.5276 141.03L67.5381 141.063C67.6174 141.316 67.5313 141.591 67.3222 141.754V141.754C67.1965 141.851 67.1121 141.992 67.0859 142.149L67.0802 142.184C67.0464 142.386 67.1 142.593 67.2278 142.753L68.4573 144.294C68.5744 144.441 68.6689 144.604 68.7378 144.779V144.779C68.8974 145.183 68.9126 145.63 68.7808 146.045L68.743 146.164C68.6441 146.475 68.4783 146.761 68.2574 147.001L67.9681 147.316V147.316C67.8582 147.433 67.8094 147.594 67.8361 147.753L67.8452 147.807C67.8687 147.946 67.9386 148.073 68.0436 148.168L68.6209 148.687L69.2133 149.214C69.65 149.603 69.9909 150.088 70.2095 150.63L70.4655 151.265C70.5191 151.398 70.6031 151.516 70.7109 151.611L70.8191 151.706C70.9686 151.837 71.1712 151.89 71.3657 151.849L71.418 151.838C71.5645 151.806 71.7173 151.841 71.8363 151.932V151.932C71.9282 152.002 72.041 152.039 72.1565 152.037L72.203 152.036C72.3785 152.033 72.5477 152.101 72.6718 152.225L72.8291 152.383C72.9216 152.475 73.029 152.552 73.1467 152.609L73.2869 152.677L73.5401 152.803C73.7043 152.885 73.8477 153.003 73.9594 153.148V153.148C74.1076 153.341 74.1941 153.575 74.2075 153.818L74.2457 154.509C74.265 154.858 74.3372 155.202 74.4598 155.529L74.6396 156.008C74.8885 156.672 75.0196 157.374 75.0272 158.083V158.083V158.083C75.0298 158.183 75.0576 158.281 75.1078 158.367L75.349 158.781C75.4441 158.945 75.5141 159.121 75.5567 159.305V159.305C75.6099 159.535 75.6196 159.773 75.5851 160.006L75.4526 160.905C75.4155 161.157 75.5065 161.41 75.6953 161.581V161.581C75.8749 161.743 76.1209 161.811 76.3581 161.762L76.4563 161.742C76.5633 161.72 76.6735 161.718 76.7814 161.735V161.735C76.9439 161.761 77.0965 161.83 77.223 161.935L77.4788 162.148C77.6195 162.265 77.7421 162.403 77.8426 162.556L78.1984 163.098C78.3774 163.37 78.6982 163.515 79.0209 163.467V163.467C79.1866 163.443 79.3557 163.469 79.5065 163.542L79.6132 163.593C79.7186 163.644 79.8162 163.71 79.9029 163.788L81.7191 165.43C82.0194 165.701 82.3548 165.931 82.7162 166.114V166.114L82.7463 166.131L83.0352 166.276C83.1032 166.31 83.1653 166.355 83.2189 166.409V166.409C83.4555 166.647 83.8275 166.685 84.1072 166.499L84.3106 166.364C84.3567 166.334 84.4095 166.315 84.4646 166.309V166.309L84.8518 166.275C85.1322 166.25 85.4125 166.323 85.6456 166.481V166.481L85.8349 166.609C86.1618 166.83 86.5485 166.945 86.943 166.94V166.94C87.1435 166.938 87.3432 166.966 87.5349 167.025L89.2156 167.54V167.54C89.7868 167.687 90.3322 167.919 90.833 168.231L91.8103 168.838L92.5469 169.293L92.9828 169.648V169.648C93.3671 169.961 93.793 170.219 94.2484 170.415L94.2786 170.428C94.5717 170.554 94.875 170.655 95.1853 170.729L95.7114 170.855L96.249 170.983L96.6407 171.133C96.649 171.137 96.6584 171.132 96.6617 171.124L96.6652 171.116C96.6656 171.115 96.6666 171.114 96.6677 171.114V171.114C96.6696 171.114 96.6709 171.116 96.6702 171.118L96.6658 171.129C96.6636 171.135 96.6665 171.141 96.6722 171.143L98.8108 171.962L99.9748 172.234L101.052 172.63L101.668 172.854C101.779 172.895 101.896 172.916 102.013 172.918V172.918C102.269 172.922 102.518 172.834 102.714 172.669L102.841 172.562C103.09 172.353 103.399 172.23 103.723 172.212L103.764 172.209C103.928 172.2 104.093 172.215 104.252 172.255L104.342 172.277C104.556 172.33 104.778 172.339 104.995 172.302V172.302C105.199 172.268 105.395 172.195 105.572 172.086L106.183 171.71C106.27 171.656 106.345 171.584 106.402 171.499V171.499C106.474 171.392 106.574 171.306 106.69 171.251L106.962 171.121C107.139 171.037 107.328 170.982 107.522 170.958L109.374 170.728C109.553 170.706 109.736 170.723 109.908 170.779V170.779C110.195 170.872 110.506 170.857 110.782 170.737L111.555 170.401C111.951 170.228 112.394 170.198 112.809 170.313V170.313C113.182 170.417 113.579 170.403 113.944 170.273V170.273C114.279 170.155 114.642 170.132 114.988 170.209L116.342 170.51C116.65 170.578 116.94 170.707 117.198 170.888L117.242 170.919C117.369 171.008 117.484 171.112 117.586 171.228L118.075 171.788C118.111 171.829 118.162 171.853 118.216 171.856V171.856L118.556 171.862C118.751 171.866 118.869 172.079 118.768 172.246V172.246C118.709 172.344 118.723 172.469 118.802 172.552L119.588 173.376C119.659 173.451 119.723 173.532 119.78 173.618L120.514 174.727C120.585 174.835 120.643 174.952 120.684 175.075V175.075L121.215 176.634C121.31 176.912 121.445 177.174 121.616 177.413V177.413C121.777 177.639 121.907 177.886 122 178.148L122.158 178.589C122.192 178.683 122.211 178.783 122.214 178.884L122.215 178.93C122.222 179.206 122.097 179.469 121.877 179.636V179.636C121.75 179.733 121.652 179.865 121.595 180.015L121.592 180.022L121.586 180.04C121.57 180.085 121.572 180.134 121.59 180.178V180.178C121.634 180.284 121.76 180.329 121.86 180.274L121.878 180.264L122.026 180.182C122.187 180.093 122.362 180.033 122.544 180.005V180.005C122.678 179.984 122.815 179.981 122.95 179.995L123.586 180.063V180.063C123.949 180.101 124.314 180.035 124.641 179.873L125.017 179.686V179.686C125.385 179.503 125.815 179.491 126.193 179.654L126.237 179.673C126.43 179.756 126.638 179.798 126.848 179.795L127.084 179.793C127.394 179.789 127.702 179.853 127.985 179.979V179.979L129.022 180.448C129.143 180.503 129.273 180.538 129.406 180.55L129.681 180.576C129.775 180.585 129.87 180.561 129.95 180.509V180.509C130.02 180.463 130.074 180.398 130.106 180.321L130.131 180.263C130.178 180.151 130.191 180.027 130.169 179.907L130.164 179.879C130.14 179.751 130.083 179.633 129.998 179.535L129.66 179.148L128.631 177.953L128.474 177.725C128.298 177.469 128.156 177.191 128.05 176.898V176.898C127.943 176.6 127.874 176.29 127.847 175.975L127.789 175.313L127.745 174.837C127.727 174.644 127.731 174.449 127.755 174.256L127.814 173.794C127.835 173.627 127.9 173.468 128.003 173.334L128.017 173.316C128.087 173.226 128.137 173.122 128.165 173.011L128.326 172.38C128.326 172.379 128.327 172.379 128.328 172.379V172.379C128.329 172.379 128.33 172.378 128.33 172.377L128.371 172.212C128.378 172.184 128.391 172.157 128.409 172.134L128.686 171.766C128.863 171.531 129.081 171.329 129.328 171.17L130.001 170.737C130.312 170.538 130.607 170.313 130.882 170.067L131.57 169.451C131.92 169.138 132.292 168.851 132.684 168.592L133.206 168.248C133.323 168.171 133.446 168.104 133.574 168.049L134.661 167.578C134.69 167.566 134.711 167.54 134.718 167.509V167.509C134.731 167.45 134.794 167.416 134.85 167.439L134.855 167.441C134.878 167.45 134.903 167.45 134.926 167.443L138.209 166.326C138.245 166.314 138.281 166.306 138.318 166.302V166.302L138.498 166.271C139.376 166.118 140.269 166.072 141.158 166.135L149.877 166.749C149.928 166.752 149.98 166.746 150.029 166.732L150.328 166.641C150.33 166.641 150.33 166.64 150.33 166.639V166.639C150.33 166.638 150.33 166.638 150.33 166.638L150.583 165.929C150.639 165.772 150.73 165.63 150.85 165.515V165.515V165.515C150.93 165.439 151.024 165.377 151.125 165.333L151.887 164.997C152.019 164.939 152.159 164.899 152.302 164.879V164.879C152.503 164.85 152.709 164.86 152.907 164.909L154.053 165.192V165.192C154.434 165.286 154.836 165.232 155.177 165.04L155.297 164.973C155.491 164.864 155.711 164.809 155.934 164.813V164.813C156.152 164.816 156.367 164.763 156.558 164.659L157.23 164.292C157.509 164.14 157.824 164.064 158.142 164.072L158.294 164.075C158.44 164.079 158.584 164.053 158.719 163.999V163.999C158.8 163.967 158.875 163.925 158.945 163.875L159.665 163.357C160.226 162.954 160.852 162.651 161.515 162.461L161.667 162.418C161.97 162.331 162.264 162.212 162.542 162.064V162.064L162.69 161.983L163.752 161.422C164.144 161.215 164.518 160.975 164.87 160.705L165.054 160.563C165.278 160.391 165.515 160.239 165.764 160.106L165.785 160.095C166.124 159.915 166.483 159.775 166.855 159.68L166.911 159.665C167.161 159.601 167.416 159.559 167.674 159.541L169.356 159.423C169.685 159.399 169.983 159.217 170.152 158.934V158.934C170.311 158.67 170.581 158.492 170.886 158.452L171.033 158.432C171.346 158.39 171.635 158.237 171.845 158L171.95 157.882C172.11 157.701 172.31 157.559 172.533 157.469V157.469C172.816 157.354 173.058 157.16 173.232 156.91L173.519 156.497L173.774 156.128C173.911 155.932 174.089 155.767 174.297 155.647V155.647C174.515 155.521 174.76 155.447 175.012 155.431L176.18 155.358C176.528 155.336 176.877 155.346 177.223 155.389L178.985 155.607C179.099 155.622 179.215 155.597 179.314 155.537V155.537C179.425 155.47 179.506 155.362 179.541 155.237L179.921 153.883C179.999 153.604 180.177 153.363 180.422 153.207V153.207C180.555 153.121 180.67 153.01 180.76 152.88L181.72 151.481C182.026 151.034 182.192 150.505 182.195 149.963V149.963V149.696C182.195 149.412 182.232 149.13 182.303 148.855V148.855C182.402 148.474 182.433 148.079 182.395 147.688L182.343 147.161C182.3 146.718 182.304 146.27 182.354 145.827L182.366 145.727C182.445 145.036 182.623 144.361 182.894 143.721L183.162 143.088C183.359 142.625 183.634 142.199 183.976 141.829V141.829C184.202 141.584 184.456 141.366 184.732 141.18L185.427 140.71C185.608 140.587 185.801 140.481 186.001 140.394L186.316 140.257C186.373 140.232 186.434 140.214 186.496 140.203L187.398 140.052C187.399 140.052 187.399 140.052 187.399 140.052V140.052C187.399 140.052 187.399 140.052 187.399 140.052L187.545 140.027V140.027C187.714 139.998 187.885 139.982 188.056 139.98L190.033 139.953C190.81 139.942 191.692 139.908 192.47 139.919V139.919C192.505 139.92 192.494 139.919 192.529 139.919L192.626 139.917C193.287 139.908 193.947 139.962 194.597 140.078L196.514 140.418V140.418C196.651 140.442 196.786 140.475 196.918 140.518L197.001 140.545C197.46 140.694 197.891 140.922 198.272 141.219L198.824 141.648L200.018 142.815V142.815C200.167 142.958 200.34 143.073 200.53 143.153L201.015 143.358V143.358C201.168 143.424 201.337 143.446 201.501 143.419L201.66 143.394C201.811 143.37 201.957 143.322 202.093 143.251L202.428 143.077C202.674 142.948 202.905 142.793 203.117 142.614L203.239 142.511C203.402 142.373 203.579 142.252 203.767 142.149L204.385 141.811C204.408 141.799 204.428 141.781 204.443 141.76V141.76L204.967 140.97C204.969 140.968 204.97 140.967 204.971 140.965L204.983 140.954C204.984 140.952 204.986 140.952 204.989 140.952L204.994 140.953C204.995 140.954 204.996 140.953 204.996 140.952V140.952C204.996 140.95 204.996 140.95 204.994 140.95H204.993C204.991 140.95 204.989 140.947 204.991 140.945L205.165 140.681C205.185 140.651 205.213 140.627 205.247 140.614L206.403 140.164C206.801 140.009 207.221 139.917 207.648 139.893L208.86 139.823C209.038 139.813 209.213 139.763 209.37 139.678V139.678V139.678C209.458 139.631 209.536 139.568 209.601 139.492L209.82 139.235C209.976 139.052 210.203 138.946 210.443 138.944V138.944C210.542 138.943 210.639 138.96 210.731 138.993L211.451 139.254C211.723 139.352 212.017 139.374 212.3 139.318L212.357 139.307C212.621 139.254 212.895 139.279 213.145 139.379V139.379C213.36 139.466 213.594 139.496 213.825 139.469L214.026 139.445L214.247 139.419C214.777 139.357 215.311 139.493 215.747 139.8L215.895 139.903C216.088 140.04 216.312 140.126 216.547 140.156V140.156C216.742 140.18 216.93 140.243 217.099 140.342L219.039 141.477C219.108 141.518 219.184 141.545 219.263 141.558V141.558L219.325 141.569V141.569C219.411 141.584 219.5 141.578 219.585 141.553L219.729 141.51L220.136 141.392V141.392C220.168 141.383 220.203 141.395 220.223 141.422L220.241 141.448L220.414 141.692C220.471 141.772 220.557 141.824 220.653 141.838V141.838C220.782 141.857 220.91 141.803 220.987 141.7L221.101 141.547C221.212 141.4 221.218 141.199 221.117 141.044V141.044V141.044C221.076 140.984 221.013 140.943 220.942 140.928L220.662 140.871C220.388 140.815 220.151 140.646 220.009 140.404L219.734 139.933C219.591 139.69 219.625 139.381 219.817 139.174V139.174C220.034 138.94 220.046 138.582 219.844 138.334L219.093 137.413L218.91 137.189L218.848 137.094L218.467 136.515L217.5 135.041C216.862 134.068 216.074 133.203 215.165 132.478L214.023 131.566L213.142 130.861L213.136 130.857L212.828 130.613L211.486 129.248L210.709 128.216C210.588 128.055 210.485 127.883 210.401 127.701V127.701L210.203 127.269L210.02 126.868C209.763 126.309 209.374 125.821 208.887 125.445V125.445C208.714 125.311 208.553 125.163 208.406 125.002L207.812 124.353L207.771 124.301L206.087 122.013L205.931 121.796C205.852 121.686 205.75 121.594 205.633 121.526V121.526C205.489 121.443 205.325 121.399 205.159 121.398L204.688 121.394C204.614 121.394 204.543 121.364 204.491 121.312V121.312L204.473 121.293C204.457 121.276 204.457 121.25 204.473 121.233V121.233L204.758 120.95C204.835 120.873 204.931 120.818 205.037 120.792L205.064 120.785C205.229 120.744 205.365 120.628 205.433 120.473V120.473C205.488 120.346 205.494 120.204 205.449 120.074L204.69 117.878C204.671 117.823 204.659 117.766 204.656 117.709V117.709V117.709C204.613 117.183 204.643 116.653 204.743 116.135L205.29 113.315V113.315C205.35 113.023 205.446 112.741 205.577 112.474L206.357 110.888C206.498 110.601 206.699 110.348 206.946 110.145V110.145C207.185 109.949 207.381 109.706 207.521 109.43L208.114 108.265L208.568 107.601C208.726 107.37 208.906 107.155 209.106 106.96L209.37 106.704C209.434 106.642 209.505 106.587 209.582 106.542V106.542L209.909 106.344C210.48 105.998 211.116 105.772 211.777 105.678V105.678V105.678C212.406 105.59 213.047 105.641 213.654 105.828L213.702 105.843C214.164 105.985 214.646 106.053 215.13 106.044L215.986 106.027L216.295 105.994L216.476 105.974C216.835 105.933 217.188 105.858 217.532 105.75L217.975 105.61C218.124 105.563 218.266 105.498 218.399 105.416L218.484 105.364C218.664 105.253 218.818 105.103 218.934 104.925V104.925C219.009 104.809 219.068 104.683 219.108 104.55L219.653 102.722L219.741 102.43C219.811 102.195 219.905 101.968 220.02 101.751V101.751C220.153 101.502 220.314 101.268 220.499 101.054L222.378 98.8915L224.009 97.3826L227.677 94.6931L229.473 93.6199L230.389 93.072L236.674 90.2786C237.93 89.7203 239.07 88.9315 240.036 87.9532L240.702 87.2782L241.033 86.9433C241.549 86.4201 242.117 85.9501 242.728 85.5403L242.91 85.4182C243.482 85.0343 244.092 84.7093 244.729 84.4481L244.782 84.4263C245.633 84.0779 246.43 83.6115 247.151 83.041L247.832 82.5025C247.969 82.3935 248.094 82.2691 248.203 82.1316V82.1316C248.379 81.9098 248.513 81.6571 248.597 81.3866L248.939 80.2871C248.985 80.1383 249.106 80.0248 249.257 79.9882V79.9882C249.389 79.9563 249.499 79.866 249.556 79.7429L249.873 79.0536V79.0536C249.949 78.889 250.067 78.7472 250.215 78.6427L251.433 77.784C251.544 77.706 251.661 77.6365 251.782 77.5761V77.5761L257.768 74.5767C257.945 74.488 258.145 74.4549 258.342 74.4818L258.435 74.4947C258.75 74.5379 259.062 74.3978 259.238 74.1339V74.1339C259.366 73.9438 259.566 73.8147 259.791 73.7768L261.258 73.5307L261.428 73.5018C261.538 73.4832 261.644 73.4484 261.743 73.3987V73.3987C261.938 73.3014 262.099 73.15 262.209 72.9627L262.358 72.7098C262.4 72.6372 262.423 72.5546 262.423 72.4704V72.4704L262.465 71.0795C262.472 70.8547 262.553 70.6385 262.697 70.4653V70.4653C262.806 70.3325 262.881 70.1739 262.912 70.0045L263.016 69.4434C263.055 69.2291 263.144 69.0271 263.276 68.8532V68.8532L263.422 68.6601C263.463 68.6059 263.513 68.5584 263.568 68.5193L263.973 68.2351C263.989 68.2239 263.995 68.2032 263.987 68.1852L263.916 68.0127C263.915 68.0098 263.918 68.0074 263.92 68.0095V68.0095Z" fill="#FFB84F"/>
</svg>
