<svg width="300" height="300" viewBox="0 0 300 300" fill="none" xmlns="http://www.w3.org/2000/svg">
<g clip-path="url(#clip0)">
<rect width="300" height="300" fill="white"/>
<rect x="500" y="300" width="500" height="300" transform="rotate(-180 500 300)" fill="white"/>
<rect x="300" y="300" width="300" height="150" transform="rotate(-180 300 300)" fill="#3B9644"/>
<rect x="300" y="150" width="300" height="150" transform="rotate(-180 300 150)" fill="#59AFFF"/>
<path d="M-125.868 362.132L-338 150L-125.868 -62.1323L160 150L-125.868 362.132Z" fill="white"/>
<path d="M66.5676 120.406C66.8976 119.554 68.1024 119.554 68.4324 120.406L75.4813 138.593C75.6232 138.959 75.9661 139.208 76.3581 139.23L95.8332 140.314C96.745 140.364 97.1173 141.51 96.4095 142.087L81.2908 154.411C80.9865 154.659 80.8555 155.062 80.9559 155.442L85.9433 174.299C86.1768 175.182 85.2021 175.89 84.4346 175.395L68.0419 164.824C67.712 164.612 67.288 164.612 66.9581 164.824L50.5654 175.395C49.7979 175.89 48.8232 175.182 49.0567 174.299L54.0441 155.442C54.1445 155.062 54.0135 154.659 53.7092 154.411L38.5905 142.087C37.8827 141.51 38.255 140.364 39.1668 140.314L58.6419 139.23C59.0339 139.208 59.3768 138.959 59.5187 138.593L66.5676 120.406Z" fill="#FF4A4A"/>
</g>
<defs>
<clipPath id="clip0">
<rect width="300" height="300" fill="white"/>
</clipPath>
</defs>
</svg>
