<svg width="300" height="300" viewBox="0 0 300 300" fill="none" xmlns="http://www.w3.org/2000/svg">
<g clip-path="url(#clip0_118_1598)">
<rect width="300" height="300" fill="white"/>
<rect x="500" y="300" width="500" height="300" transform="rotate(-180 500 300)" fill="white"/>
<rect x="300" y="300" width="300" height="150" transform="rotate(-180 300 300)" fill="#3B9644"/>
<rect x="300" y="150" width="300" height="150" transform="rotate(-180 300 150)" fill="#59AFFF"/>
<path d="M-125.868 362.132L-338 150L-125.868 -62.1323L160 150L-125.868 362.132Z" fill="white"/>
<path d="M62.8379 130.029C64.488 125.771 70.512 125.771 72.1621 130.029L74.5492 136.188C75.2586 138.018 76.9734 139.264 78.9334 139.373L85.5286 139.74C90.0876 139.994 91.9491 145.723 88.4099 148.608L83.29 152.781C81.7685 154.022 81.1135 156.038 81.6154 157.935L83.3044 164.321C84.4719 168.735 79.5984 172.276 75.761 169.802L70.2096 166.222C68.5598 165.158 66.4402 165.158 64.7904 166.222L59.239 169.802C55.4016 172.276 50.5281 168.735 51.6956 164.321L53.3846 157.935C53.8865 156.038 53.2315 154.022 51.71 152.781L46.5901 148.608C43.0509 145.723 44.9124 139.994 49.4714 139.74L56.0666 139.373C58.0266 139.264 59.7414 138.018 60.4508 136.188L62.8379 130.029Z" fill="#FF4A4A"/>
</g>
<defs>
<clipPath id="clip0_118_1598">
<rect width="300" height="300" fill="white"/>
</clipPath>
</defs>
</svg>
