<svg width="300" height="300" viewBox="0 0 300 300" fill="none" xmlns="http://www.w3.org/2000/svg">
<g clip-path="url(#clip0_118_156)">
<rect width="300" height="300" fill="white"/>
<rect x="173" y="-76" width="203" height="204" fill="#EF4B4B"/>
<rect x="-77" y="173" width="204" height="204" fill="#EF4B4B"/>
<rect x="376" y="377" width="203" height="204" transform="rotate(-180 376 377)" fill="#3661F6"/>
<rect x="127" y="128" width="204" height="204" transform="rotate(-180 127 128)" fill="#3661F6"/>
<rect x="151" y="134" width="13" height="16" rx="1" fill="#EF4B4B"/>
<path d="M135 154C135 153.448 135.448 153 136 153H148C148.552 153 149 153.448 149 154V168C149 168.552 148.552 169 148 169H138C136.343 169 135 167.657 135 166V154Z" fill="#EF4B4B"/>
<path d="M164 166C164 167.657 162.657 169 161 169L152 169C151.448 169 151 168.552 151 168L151 154C151 153.448 151.448 153 152 153L163 153C163.552 153 164 153.448 164 154L164 166Z" fill="#3661F6"/>
<rect x="149" y="150" width="14" height="16" rx="1" transform="rotate(-180 149 150)" fill="#3661F6"/>
<path d="M125.077 136.049C125.145 135.447 125.655 135 126.261 135H128.643C129.364 135 129.924 135.628 129.843 136.344C129.518 139.229 128.8 146.146 128.8 151C128.8 155.854 129.518 162.771 129.843 165.656C129.924 166.372 129.364 167 128.643 167H126.261C125.655 167 125.145 166.553 125.077 165.951C124.77 163.271 124 156.029 124 151C124 145.971 124.77 138.729 125.077 136.049Z" fill="#4DBB58"/>
<path d="M174.923 136.049C174.855 135.447 174.345 135 173.739 135H171.357C170.636 135 170.076 135.628 170.157 136.344C170.482 139.229 171.2 146.146 171.2 151C171.2 155.854 170.482 162.771 170.157 165.656C170.076 166.372 170.636 167 171.357 167H173.739C174.345 167 174.855 166.553 174.923 165.951C175.23 163.271 176 156.029 176 151C176 145.971 175.23 138.729 174.923 136.049Z" fill="#4DBB58"/>
<path d="M136.065 175.889C135.456 175.95 135 176.463 135 177.076L135 178.661C135 179.376 135.616 179.934 136.327 179.863C139.071 179.588 145.486 179 150 179C154.514 179 160.929 179.588 163.673 179.863C164.384 179.934 165 179.376 165 178.661L165 177.076C165 176.463 164.544 175.95 163.935 175.889C161.359 175.628 154.664 175 150 175C145.336 175 138.641 175.628 136.065 175.889Z" fill="#EF4B4B"/>
<path d="M136.065 124.889C135.456 124.95 135 125.463 135 126.076L135 127.661C135 128.376 135.616 128.934 136.327 128.863C139.071 128.588 145.486 128 150 128C154.514 128 160.929 128.588 163.673 128.863C164.384 128.934 165 128.376 165 127.661L165 126.076C165 125.463 164.544 124.95 163.935 124.889C161.359 124.628 154.664 124 150 124C145.336 124 138.641 124.628 136.065 124.889Z" fill="#3661F6"/>
</g>
<defs>
<clipPath id="clip0_118_156">
<rect width="300" height="300" fill="white"/>
</clipPath>
</defs>
</svg>
