<svg width="300" height="300" viewBox="0 0 300 300" fill="none" xmlns="http://www.w3.org/2000/svg">
<g clip-path="url(#clip0)">
<rect width="300" height="300" fill="white"/>
<rect x="165" width="135" height="135" fill="#EF4B4B"/>
<rect y="165" width="135" height="135" fill="#EF4B4B"/>
<rect x="300" y="300" width="135" height="135" transform="rotate(-180 300 300)" fill="#3661F6"/>
<rect x="135" y="135" width="135" height="135" transform="rotate(-180 135 135)" fill="#3661F6"/>
<rect x="151" y="139" width="9" height="11" fill="#EF4B4B"/>
<path d="M140 152H149V163H143C141.343 163 140 161.657 140 160V152Z" fill="#EF4B4B"/>
<path d="M160 160C160 161.657 158.657 163 157 163L151 163L151 152L160 152L160 160Z" fill="#3661F6"/>
<rect x="149" y="150" width="9" height="11" transform="rotate(-180 149 150)" fill="#3661F6"/>
<path d="M133.8 140H137C137 140 136.2 146.381 136.2 150.5C136.2 154.619 137 161 137 161H133.8C133.8 161 133 154.619 133 150.5C133 146.381 133.8 140 133.8 140Z" fill="#4DBB58"/>
<path d="M166.2 140H163C163 140 163.8 146.381 163.8 150.5C163.8 154.619 163 161 163 161H166.2C166.2 161 167 154.619 167 150.5C167 146.381 166.2 140 166.2 140Z" fill="#4DBB58"/>
<path d="M139.5 166.8L139.5 170C139.5 170 145.881 169.2 150 169.2C154.119 169.2 160.5 170 160.5 170L160.5 166.8C160.5 166.8 154.119 166 150 166C145.881 166 139.5 166.8 139.5 166.8Z" fill="#EF4B4B"/>
<path d="M139.5 132.8L139.5 136C139.5 136 145.881 135.2 150 135.2C154.119 135.2 160.5 136 160.5 136L160.5 132.8C160.5 132.8 154.119 132 150 132C145.881 132 139.5 132.8 139.5 132.8Z" fill="#3661F6"/>
</g>
<defs>
<clipPath id="clip0">
<rect width="300" height="300" fill="white"/>
</clipPath>
</defs>
</svg>
