<svg width="300" height="300" viewBox="0 0 300 300" fill="none" xmlns="http://www.w3.org/2000/svg">
<rect width="300" height="300" fill="white"/>
<rect width="150" height="300" fill="#3B9644"/>
<path fill-rule="evenodd" clip-rule="evenodd" d="M172.212 78.4925C174.39 79.3618 173.147 82.6153 170.815 82.3748C168.411 82.127 165.971 82 163.5 82C125.117 82 94.0005 112.668 94.0005 150.5C94.0005 188.332 125.117 219 163.5 219C165.971 219 168.411 218.873 170.814 218.625C173.147 218.385 174.39 221.638 172.212 222.508C163.332 226.051 153.644 228 143.5 228C100.698 228 66 193.302 66 150.5C66 107.698 100.698 73 143.5 73C153.644 73 163.332 74.9488 172.212 78.4925Z" fill="#EB5757"/>
<path d="M176.217 118.182C179.991 113.023 188.137 115.205 188.826 121.561L190.033 132.695C190.329 135.427 192.196 137.733 194.807 138.591L205.447 142.086C211.52 144.081 211.962 152.503 206.13 155.122L195.914 159.71C193.407 160.836 191.791 163.325 191.782 166.073L191.746 177.272C191.725 183.664 183.852 186.687 179.559 181.95L172.039 173.652C170.193 171.615 167.327 170.847 164.71 171.688L154.048 175.114C147.962 177.07 142.655 170.516 145.833 164.97L151.401 155.253C152.768 152.868 152.612 149.905 151.004 147.676L144.451 138.595C140.71 133.411 145.303 126.338 151.56 127.647L162.522 129.94C165.212 130.503 167.983 129.439 169.605 127.221L176.217 118.182Z" fill="#EB5757"/>
</svg>
