<svg width="300" height="300" viewBox="0 0 300 300" fill="none" xmlns="http://www.w3.org/2000/svg">
<rect width="300" height="300" fill="white"/>
<rect width="150" height="300" fill="#3B9644"/>
<circle cx="143.5" cy="150.5" r="77.5" fill="#EB5757"/>
<mask id="mask0_117_2" style="mask-type:alpha" maskUnits="userSpaceOnUse" x="94" y="82" width="140" height="137">
<ellipse cx="163.5" cy="150.5" rx="69.5" ry="68.5" fill="#3B9644"/>
</mask>
<g mask="url(#mask0_117_2)">
<ellipse cx="163.5" cy="150.5" rx="69.5" ry="68.5" fill="#3B9644"/>
<rect x="150" y="56" width="88" height="207" fill="white"/>
</g>
<path d="M177.74 116.1C180.975 111.677 187.958 113.548 188.548 118.996L190.102 133.336C190.356 135.678 191.957 137.654 194.195 138.39L207.898 142.891C213.104 144.601 213.482 151.82 208.484 154.065L195.326 159.974C193.177 160.939 191.792 163.073 191.784 165.428L191.738 179.852C191.72 185.331 184.971 187.922 181.292 183.862L171.606 173.174C170.024 171.429 167.567 170.77 165.324 171.491L151.592 175.904C146.375 177.58 141.826 171.962 144.55 167.208L151.722 154.693C152.893 152.65 152.76 150.109 151.381 148.199L142.941 136.503C139.735 132.059 143.672 125.997 149.035 127.119L163.153 130.072C165.459 130.554 167.834 129.643 169.225 127.742L177.74 116.1Z" fill="#EB5757"/>
</svg>
