<svg width="300" height="300" viewBox="0 0 300 300" fill="none" xmlns="http://www.w3.org/2000/svg">
<g clip-path="url(#clip0_1322_867)">
<rect width="300" height="300" fill="#FFB84F"/>
<rect x="300" y="100" width="300" height="100" transform="rotate(-180 300 100)" fill="#3B9644"/>
<rect x="300" y="300" width="300" height="100" transform="rotate(-180 300 300)" fill="#EF4B4B"/>
<circle cx="150" cy="150" r="75" fill="#3661F6"/>
<path d="M152.06 100.486C151.355 98.3155 148.284 98.3155 147.579 100.486V100.486C147.425 100.959 147.425 101.469 147.579 101.942L156.283 128.731C156.913 130.67 155.468 132.658 153.43 132.658H145.649C144.628 132.658 143.724 133.316 143.408 134.286V134.286C142.914 135.808 144.048 137.37 145.649 137.37H185.32C185.817 137.37 186.302 137.213 186.704 136.92V136.92C188.551 135.579 187.602 132.658 185.32 132.658H164.693C163.393 132.658 162.241 131.822 161.84 130.585L152.06 100.486Z" fill="#FCDD09"/>
<path d="M166 127L183.053 104.389Z" fill="black"/>
<path d="M166 127L183.053 104.389" stroke="#FCDD09" stroke-width="6.66667" stroke-linecap="round"/>
<path d="M197.726 136.92C199.572 135.579 198.623 132.658 196.341 132.658V132.658C195.844 132.658 195.359 132.816 194.957 133.108L172.168 149.665C170.519 150.863 168.181 150.103 167.552 148.165L165.147 140.765C164.832 139.794 163.927 139.137 162.907 139.137V139.137C161.306 139.137 160.171 140.699 160.666 142.221L172.925 179.95C173.079 180.423 173.378 180.835 173.781 181.128V181.128C175.627 182.469 178.111 180.664 177.406 178.494L171.032 158.877C170.63 157.641 171.07 156.286 172.122 155.523L197.726 136.92Z" fill="#FCDD09"/>
<path d="M176 159L203.592 167.602Z" fill="black"/>
<path d="M176 159L203.592 167.602" stroke="#FCDD09" stroke-width="6.66667" stroke-linecap="round"/>
<path d="M177.187 191.61C179.033 192.952 181.517 191.147 180.812 188.976V188.976C180.658 188.503 180.359 188.091 179.956 187.798L157.168 171.242C155.519 170.044 155.519 167.585 157.168 166.387L163.463 161.814C164.289 161.214 164.634 160.151 164.319 159.18V159.18C163.824 157.658 161.988 157.061 160.693 158.002L128.599 181.32C128.197 181.612 127.897 182.025 127.743 182.498V182.498C127.038 184.668 129.522 186.473 131.369 185.132L148.056 173.008C149.107 172.244 150.531 172.244 151.583 173.008L177.187 191.61Z" fill="#FCDD09"/>
<path d="M150 178L149.819 206.67Z" fill="black"/>
<path d="M150 178L149.819 206.67" stroke="#FCDD09" stroke-width="6.66667" stroke-linecap="round"/>
<path d="M118.827 188.976C118.121 191.147 120.606 192.951 122.452 191.61V191.61C122.854 191.318 123.154 190.905 123.308 190.432L132.012 163.643C132.642 161.704 134.98 160.945 136.629 162.143L142.924 166.716C143.749 167.316 144.867 167.316 145.693 166.716V166.716C146.988 165.776 146.988 163.845 145.693 162.905L113.599 139.587C113.196 139.294 112.712 139.137 112.214 139.137V139.137C109.932 139.137 108.983 142.057 110.829 143.399L127.517 155.523C128.568 156.286 129.008 157.641 128.606 158.877L118.827 188.976Z" fill="#FCDD09"/>
<path d="M123 159L96.0466 167.602Z" fill="black"/>
<path d="M123 159L96.0466 167.602" stroke="#FCDD09" stroke-width="6.66667" stroke-linecap="round"/>
<path d="M103.297 132.658C101.015 132.658 100.066 135.579 101.913 136.92V136.92C102.315 137.212 102.8 137.37 103.297 137.37L131.465 137.37C133.503 137.37 134.948 139.359 134.319 141.297L131.914 148.697C131.599 149.668 131.944 150.731 132.77 151.331V151.331C134.065 152.272 135.901 151.675 136.395 150.153L148.654 112.424C148.808 111.951 148.808 111.442 148.654 110.968V110.968C147.949 108.798 144.878 108.798 144.173 110.968L137.799 130.585C137.397 131.821 136.245 132.658 134.946 132.658L103.297 132.658Z" fill="#FCDD09"/>
<path d="M133 127L116.586 104.388Z" fill="black"/>
<path d="M133 127L116.586 104.388" stroke="#FCDD09" stroke-width="6.66667" stroke-linecap="round"/>
</g>
<defs>
<clipPath id="clip0_1322_867">
<rect width="300" height="300" fill="white"/>
</clipPath>
</defs>
</svg>
