<svg width="300" height="300" viewBox="0 0 300 300" fill="none" xmlns="http://www.w3.org/2000/svg">
<g clip-path="url(#clip0_118_1194)">
<rect width="300" height="300" fill="white"/>
<rect width="300" height="300" fill="#59AFFF"/>
<path d="M145.689 54.9698C146.872 51.2547 152.128 51.2547 153.311 54.9698L154.113 57.4882C154.642 59.1477 156.183 60.2746 157.925 60.2746H160.689C164.544 60.2746 166.168 65.1918 163.071 67.4878L160.697 69.2482C159.323 70.2666 158.749 72.0456 159.268 73.6751L160.142 76.4198C161.32 80.1193 157.067 83.159 153.948 80.8467L151.882 79.3153C150.467 78.2663 148.533 78.2663 147.118 79.3153L145.052 80.8467C141.933 83.159 137.68 80.1193 138.858 76.4198L139.732 73.6751C140.251 72.0456 139.677 70.2666 138.303 69.2482L135.929 67.4878C132.832 65.1918 134.456 60.2746 138.311 60.2746H141.075C142.817 60.2746 144.358 59.1477 144.887 57.4882L145.689 54.9698Z" fill="white"/>
<path d="M151.286 218.054C153.84 215.14 158.631 217.198 158.276 221.057L158.019 223.863C157.86 225.588 158.831 227.22 160.423 227.904L163.012 229.016C166.572 230.546 166.095 235.737 162.315 236.593L159.567 237.214C157.877 237.597 156.626 239.024 156.467 240.75L156.209 243.555C155.855 247.414 150.77 248.565 148.789 245.235L147.348 242.813C146.462 241.324 144.718 240.575 143.028 240.957L140.28 241.579C136.5 242.434 133.834 237.954 136.389 235.04L138.247 232.922C139.389 231.619 139.563 229.729 138.677 228.24L137.237 225.818C135.255 222.488 138.693 218.568 142.253 220.098L144.842 221.21C146.434 221.894 148.285 221.475 149.428 220.172L151.286 218.054Z" fill="white"/>
<path d="M61.1384 137.944C61.4613 134.082 66.5368 132.89 68.5452 136.204L70.0055 138.614C70.9037 140.095 72.654 140.831 74.341 140.434L77.0838 139.79C80.856 138.904 83.5583 143.363 81.0273 146.297L79.187 148.43C78.0551 149.742 77.8969 151.634 78.7951 153.116L80.2554 155.526C82.2638 158.839 78.8584 162.787 75.2858 161.287L72.6881 160.196C71.0904 159.525 69.2423 159.959 68.1104 161.271L66.2701 163.404C63.7391 166.339 58.9322 164.32 59.2552 160.458L59.49 157.651C59.6345 155.924 58.6505 154.3 57.0528 153.629L54.4551 152.538C50.8825 151.038 51.3171 145.842 55.0893 144.956L57.8321 144.312C59.5191 143.916 60.7591 142.478 60.9035 140.752L61.1384 137.944Z" fill="white"/>
<path d="M231.791 136.567C233.867 133.295 238.917 134.591 239.16 138.459L239.337 141.271C239.446 143 240.656 144.463 242.335 144.894L245.064 145.594C248.817 146.558 249.145 151.761 245.542 153.188L242.922 154.225C241.311 154.863 240.294 156.466 240.403 158.195L240.58 161.007C240.823 164.874 235.976 166.794 233.506 163.808L231.71 161.637C230.605 160.302 228.766 159.83 227.155 160.468L224.536 161.505C220.933 162.932 217.609 158.915 219.686 155.643L221.195 153.264C222.124 151.801 222.004 149.906 220.9 148.571L219.104 146.4C216.634 143.415 219.427 139.013 223.18 139.976L225.909 140.677C227.588 141.108 229.353 140.409 230.281 138.946L231.791 136.567Z" fill="white"/>
</g>
<defs>
<clipPath id="clip0_118_1194">
<rect width="300" height="300" fill="white"/>
</clipPath>
</defs>
</svg>
