<svg width="300" height="300" viewBox="0 0 300 300" fill="none" xmlns="http://www.w3.org/2000/svg">
<g clip-path="url(#clip0)">
<rect width="300" height="300" fill="white"/>
<rect width="300" height="300" fill="#59AFFF"/>
<path d="M148.547 45.9924C148.843 45.0637 150.157 45.0637 150.453 45.9924L154.779 59.578C154.911 59.9929 155.296 60.2746 155.732 60.2746H169.773C170.737 60.2746 171.143 61.5039 170.368 62.0779L158.974 70.5252C158.631 70.7798 158.487 71.2245 158.617 71.6319L162.961 85.274C163.255 86.1989 162.192 86.9588 161.413 86.3807L150.096 77.9907C149.742 77.7284 149.258 77.7284 148.904 77.9907L137.587 86.3807C136.808 86.9588 135.745 86.1989 136.039 85.274L140.383 71.6319C140.513 71.2245 140.369 70.7798 140.026 70.5252L128.632 62.0779C127.857 61.5039 128.263 60.2746 129.227 60.2746H143.268C143.704 60.2746 144.089 59.9929 144.221 59.578L148.547 45.9924Z" fill="white"/>
<path d="M157.373 211.112C158.012 210.384 159.21 210.898 159.121 211.863L157.819 226.033C157.779 226.465 158.022 226.873 158.42 227.044L171.495 232.661C172.385 233.043 172.266 234.341 171.321 234.555L157.442 237.695C157.019 237.791 156.706 238.148 156.667 238.579L155.365 252.75C155.276 253.714 154.005 254.002 153.509 253.17L146.233 240.94C146.012 240.568 145.576 240.381 145.153 240.476L131.274 243.617C130.329 243.831 129.663 242.711 130.302 241.982L139.684 231.283C139.97 230.958 140.013 230.485 139.792 230.113L132.516 217.883C132.02 217.051 132.88 216.071 133.77 216.453L146.844 222.07C147.242 222.241 147.705 222.137 147.991 221.811L157.373 211.112Z" fill="white"/>
<path d="M61.908 128.743C61.9887 127.778 63.2576 127.48 63.7597 128.308L71.1353 140.478C71.3598 140.848 71.7974 141.032 72.2191 140.933L86.0722 137.679C87.0153 137.457 87.6908 138.572 87.0581 139.305L77.7634 150.081C77.4804 150.409 77.4408 150.882 77.6654 151.252L85.041 163.422C85.5431 164.25 84.6917 165.237 83.7985 164.862L70.6785 159.352C70.2791 159.184 69.817 159.293 69.5341 159.621L60.2393 170.396C59.6066 171.129 58.4049 170.625 58.4856 169.659L59.6717 155.479C59.7078 155.047 59.4618 154.641 59.0624 154.473L45.9424 148.963C45.0492 148.588 45.1579 147.289 46.1009 147.068L59.954 143.814C60.3758 143.715 60.6857 143.355 60.7219 142.924L61.908 128.743Z" fill="white"/>
<path d="M236.738 128.771C237.257 127.953 238.52 128.277 238.58 129.244L239.474 143.446C239.502 143.878 239.804 144.244 240.224 144.352L254.007 147.89C254.945 148.131 255.027 149.432 254.126 149.788L240.896 155.027C240.493 155.187 240.239 155.588 240.266 156.02L241.16 170.222C241.221 171.189 240.009 171.669 239.391 170.922L230.32 159.958C230.044 159.624 229.585 159.506 229.182 159.666L215.951 164.905C215.05 165.261 214.22 164.257 214.739 163.439L222.363 151.424C222.595 151.058 222.565 150.584 222.289 150.251L213.218 139.286C212.601 138.54 213.299 137.439 214.237 137.68L228.021 141.219C228.44 141.327 228.881 141.152 229.114 140.786L236.738 128.771Z" fill="white"/>
</g>
<defs>
<clipPath id="clip0">
<rect width="300" height="300" fill="white"/>
</clipPath>
</defs>
</svg>
