<svg width="300" height="300" viewBox="0 0 300 300" fill="none" xmlns="http://www.w3.org/2000/svg">
<g clip-path="url(#clip0_118_1667)">
<rect width="300" height="300" fill="white"/>
<rect x="300" y="200" width="300" height="100" transform="rotate(-180 300 200)" fill="#FFB84F"/>
<rect x="300" y="100" width="300" height="100" transform="rotate(-180 300 100)" fill="#EF4B4B"/>
<rect x="300" y="300" width="300" height="100" transform="rotate(-180 300 300)" fill="#3B9644"/>
<path d="M143.794 116.562C145.59 111.034 153.41 111.034 155.206 116.562L159.715 130.44C160.519 132.912 162.822 134.586 165.422 134.586H180.013C185.826 134.586 188.242 142.023 183.54 145.44L171.735 154.016C169.632 155.544 168.752 158.253 169.556 160.725L174.065 174.602C175.861 180.13 169.534 184.727 164.832 181.31L153.027 172.734C150.924 171.206 148.076 171.206 145.973 172.734L134.168 181.31C129.466 184.727 123.139 180.13 124.935 174.602L129.444 160.725C130.248 158.253 129.368 155.544 127.265 154.016L115.46 145.44C110.758 142.023 113.174 134.586 118.987 134.586H133.578C136.178 134.586 138.481 132.912 139.285 130.44L143.794 116.562Z" fill="#252525"/>
</g>
<defs>
<clipPath id="clip0_118_1667">
<rect width="300" height="300" fill="white"/>
</clipPath>
</defs>
</svg>
