<svg width="300" height="300" viewBox="0 0 300 300" fill="none" xmlns="http://www.w3.org/2000/svg">
<g clip-path="url(#clip0)">
<rect width="300" height="300" fill="white"/>
<rect x="300" y="200" width="300" height="100" transform="rotate(-180 300 200)" fill="#FFB84F"/>
<rect x="300" y="100" width="300" height="100" transform="rotate(-180 300 100)" fill="#EF4B4B"/>
<rect x="300" y="300" width="300" height="100" transform="rotate(-180 300 300)" fill="#3B9644"/>
<path d="M146.647 107.781C147.545 105.017 151.455 105.017 152.353 107.781L160.389 132.513C160.791 133.749 161.942 134.586 163.242 134.586H189.246C192.153 134.586 193.361 138.304 191.01 140.013L169.972 155.298C168.92 156.062 168.48 157.416 168.882 158.652L176.918 183.383C177.816 186.147 174.652 188.446 172.301 186.737L151.263 171.452C150.212 170.688 148.788 170.688 147.737 171.452L126.699 186.737C124.348 188.446 121.184 186.147 122.082 183.383L130.118 158.652C130.52 157.416 130.08 156.062 129.028 155.298L107.99 140.013C105.639 138.304 106.847 134.586 109.754 134.586H135.758C137.058 134.586 138.209 133.749 138.611 132.513L146.647 107.781Z" fill="#252525"/>
</g>
<defs>
<clipPath id="clip0">
<rect width="300" height="300" fill="white"/>
</clipPath>
</defs>
</svg>
