<svg width="99" height="87" viewBox="0 0 99 87" fill="none" xmlns="http://www.w3.org/2000/svg">
<path d="M40.5936 35.5993C40.6377 36.5461 41.9652 36.7755 42.8389 36.4081V36.4081C43.5955 36.09 44.4351 36.0269 45.2307 36.2283C46.0264 36.4298 46.7348 36.8849 47.2488 37.5248C47.7628 38.1646 48.0544 38.9545 48.0796 39.7748V53.4664C48.0796 54.2509 48.7156 54.8869 49.5001 54.8869V54.8869C50.2847 54.8869 50.9206 54.2509 50.9206 53.4664V39.7748C50.9458 38.9545 51.2375 38.1646 51.7515 37.5248C52.2655 36.8849 52.9739 36.4298 53.7695 36.2283C54.5651 36.0269 55.4047 36.09 56.1613 36.4081V36.4081C57.035 36.7755 58.3625 36.5461 58.4066 35.5993C58.434 35.0099 58.403 34.4173 58.3128 33.8302C58.0983 32.4349 57.5556 31.1105 56.7294 29.966C55.9031 28.8214 54.8169 27.8893 53.5601 27.2465C52.3032 26.6037 50.9118 26.2686 49.5001 26.2686C48.0885 26.2686 46.697 26.6037 45.4402 27.2465C44.1833 27.8893 43.0971 28.8214 42.2709 29.966C41.4446 31.1105 40.9019 32.4349 40.6875 33.8302C40.5972 34.4173 40.5662 35.0099 40.5936 35.5993Z" fill="#F8C300"/>
<path d="M43.062 34.0475C44.3022 33.794 45.5906 33.9362 46.7457 34.4541C47.9007 34.9719 48.864 35.8393 49.4997 36.9339C50.1355 35.8393 51.0988 34.9719 52.2538 34.4541C53.4089 33.9362 54.6973 33.794 55.9375 34.0475C55.7238 32.4919 54.9541 31.0662 53.7706 30.0342C52.5871 29.0022 51.07 28.4336 49.4997 28.4336C47.9295 28.4336 46.4124 29.0022 45.2289 30.0342C44.0454 31.0662 43.2757 32.4919 43.062 34.0475Z" fill="white"/>
<path d="M49.4273 54.634C49.1813 53.5783 46.6937 53.4803 46.0756 54.3709C45.9851 54.5014 45.8917 54.6302 45.7955 54.7572C44.4956 56.4733 42.7397 57.7895 40.7279 58.5558C38.716 59.322 36.5294 59.5073 34.4173 59.0907C33.2709 58.8646 32.1715 58.466 31.1548 57.9133C29.9163 57.2401 28.1988 57.6221 27.3741 58.7654C26.8914 59.4345 26.3391 60.054 25.7249 60.6127C24.3837 61.8326 22.7825 62.731 21.0424 63.2398C19.3024 63.7486 17.4693 63.8545 15.6822 63.5493C15.3577 63.4939 15.0362 63.4252 14.7185 63.3435C13.0509 62.9147 11.1936 64.2086 12.1984 65.6069C15.4595 70.1455 23.1291 69.5346 27.1216 65.0398C28.4057 63.5941 32.073 62.9377 33.7568 63.888C39.3393 67.0386 46.7443 63.6331 49.4097 55.1265C49.4594 54.9679 49.4651 54.7959 49.4273 54.634V54.634Z" fill="#F8C300"/>
<path d="M49.5722 54.634C49.8183 53.5783 52.3058 53.4803 52.9239 54.3709C53.0145 54.5014 53.1079 54.6302 53.2041 54.7572C54.5039 56.4733 56.2598 57.7895 58.2716 58.5558C60.2835 59.322 62.4701 59.5073 64.5822 59.0907C65.7286 58.8646 66.828 58.466 67.8447 57.9133C69.0832 57.2401 70.8007 57.6221 71.6254 58.7654C72.1081 59.4345 72.6604 60.054 73.2747 60.6127C74.6158 61.8326 76.2171 62.731 77.9571 63.2398C79.6971 63.7486 81.5302 63.8545 83.3173 63.5493C83.6418 63.4939 83.9633 63.4252 84.281 63.3435C85.9486 62.9147 87.8059 64.2086 86.8011 65.6069C83.54 70.1455 75.8704 69.5346 71.8779 65.0398C70.5938 63.5941 66.9266 62.9377 65.2427 63.888C59.6602 67.0386 52.2552 63.6331 49.5898 55.1265C49.5401 54.9679 49.5344 54.7959 49.5722 54.634V54.634Z" fill="#F8C300"/>
<path d="M35.3321 67.9597C36.3494 68.0476 36.7566 69.122 36.1723 69.9593C34.0408 73.0144 30.7663 73.6269 27.6231 71.4647C26.7836 70.8873 26.3628 70.0035 27.2708 69.5413V69.5413C28.1081 69.1153 29.3103 67.9601 29.4967 67.0394C29.5749 66.6529 29.6962 66.2664 29.8499 65.9005C30.2368 64.9799 31.3944 64.8316 32.0729 65.5643C32.2999 65.8095 32.5182 66.0767 32.7142 66.3617C33.3003 67.214 34.2603 67.8733 35.2913 67.9563C35.305 67.9574 35.3186 67.9586 35.3321 67.9597Z" fill="#F8C300"/>
<path d="M53.4404 67.1213C54.4298 67.3736 54.6566 68.5 53.9438 69.231C51.3433 71.8983 48.0128 71.9695 45.2635 69.3244C44.5293 68.618 44.258 67.6775 45.2292 67.3694V67.3694C46.1246 67.0853 47.4988 66.1413 47.8326 65.2632C47.9728 64.8946 48.1553 64.533 48.3666 64.197C48.8982 63.3517 50.0645 63.3938 50.6147 64.2272C50.7987 64.506 50.9706 64.8053 51.1175 65.1183C51.5571 66.0547 52.3969 66.8615 53.4007 67.1113C53.414 67.1146 53.4272 67.1179 53.4404 67.1213Z" fill="#F8C300"/>
<path d="M71.4428 69.2426C72.3779 69.6526 72.4183 70.8009 71.596 71.4061C68.596 73.6144 65.2983 73.1424 63.0164 70.085C62.4069 69.2685 62.2923 68.2963 63.3007 68.1505V68.1505C64.2304 68.016 65.7401 67.3083 66.2124 66.4963C66.4107 66.1554 66.6497 65.8283 66.9128 65.5312C67.575 64.7837 68.7188 65.0152 69.126 65.9271C69.2622 66.2321 69.383 66.5553 69.477 66.8881C69.7583 67.8836 70.4555 68.8164 71.4053 69.2263C71.4179 69.2317 71.4304 69.2371 71.4428 69.2426Z" fill="#F8C300"/>
<path d="M20.1826 79.4895C39.3128 73.7952 59.6873 73.7952 78.8174 79.4895" stroke="#F8C300" stroke-width="13.7143" stroke-linecap="round"/>
<path d="M45.3018 7.39191C44.3614 6.70863 44.8447 5.22109 46.0072 5.22109H52.9932C54.1556 5.22109 54.639 6.70863 53.6985 7.39191L48.0467 11.4982C47.1063 12.1815 45.8409 11.2621 46.2001 10.1565L48.3589 3.51246C48.7181 2.40689 50.2822 2.40689 50.6414 3.51246L52.8002 10.1565C53.1595 11.2621 51.8941 12.1815 50.9536 11.4982L45.3018 7.39191Z" fill="#F8C300"/>
<path d="M24.1446 13.0609C23.2042 12.3776 23.6875 10.89 24.85 10.89H31.8359C32.9984 10.89 33.4817 12.3776 32.5413 13.0609L26.8895 17.1671C25.949 17.8504 24.6837 16.931 25.0429 15.8255L27.2017 9.1814C27.5609 8.07583 29.125 8.07583 29.4842 9.18141L31.643 15.8255C32.0022 16.9311 30.7369 17.8504 29.7964 17.1671L24.1446 13.0609Z" fill="#F8C300"/>
<path d="M8.65682 28.5491C7.71636 27.8659 8.1997 26.3783 9.36217 26.3783H16.3482C17.5106 26.3783 17.994 27.8659 17.0535 28.5491L11.4017 32.6554C10.4613 33.3387 9.19588 32.4193 9.5551 31.3138L11.7139 24.6697C12.0731 23.5641 13.6372 23.5641 13.9964 24.6697L16.1552 31.3138C16.5144 32.4193 15.2491 33.3387 14.3086 32.6554L8.65682 28.5491Z" fill="#F8C300"/>
<path d="M2.98788 49.7059C2.04742 49.0226 2.53075 47.5351 3.69322 47.5351H10.6792C11.8417 47.5351 12.325 49.0226 11.3846 49.7059L5.73277 53.8121C4.79231 54.4954 3.52694 53.5761 3.88616 52.4705L6.04495 45.8264C6.40417 44.7209 7.96826 44.7209 8.32748 45.8264L10.4863 52.4705C10.8455 53.5761 9.58012 54.4954 8.63966 53.8121L2.98788 49.7059Z" fill="#F8C300"/>
<path d="M74.8554 13.0609C75.7958 12.3776 75.3125 10.89 74.15 10.89H67.1641C66.0016 10.89 65.5183 12.3776 66.4587 13.0609L72.1105 17.1671C73.051 17.8504 74.3163 16.931 73.9571 15.8255L71.7983 9.1814C71.4391 8.07583 69.875 8.07583 69.5158 9.18141L67.357 15.8255C66.9978 16.9311 68.2631 17.8504 69.2036 17.1671L74.8554 13.0609Z" fill="#F8C300"/>
<path d="M90.3432 28.5491C91.2836 27.8659 90.8003 26.3783 89.6378 26.3783H82.6518C81.4894 26.3783 81.006 27.8659 81.9465 28.5491L87.5983 32.6554C88.5387 33.3387 89.8041 32.4193 89.4449 31.3138L87.2861 24.6697C86.9269 23.5641 85.3628 23.5641 85.0036 24.6697L82.8448 31.3138C82.4856 32.4193 83.7509 33.3387 84.6914 32.6554L90.3432 28.5491Z" fill="#F8C300"/>
<path d="M96.0121 49.7059C96.9526 49.0226 96.4692 47.5351 95.3068 47.5351H88.3208C87.1583 47.5351 86.675 49.0226 87.6154 49.7059L93.2672 53.8121C94.2077 54.4954 95.4731 53.5761 95.1138 52.4705L92.9551 45.8264C92.5958 44.7209 91.0317 44.7209 90.6725 45.8264L88.5137 52.4705C88.1545 53.5761 89.4199 54.4954 90.3603 53.8121L96.0121 49.7059Z" fill="#F8C300"/>
</svg>
