<svg width="300" height="300" viewBox="0 0 300 300" fill="none" xmlns="http://www.w3.org/2000/svg">
<g clip-path="url(#clip0_1322_150)">
<rect width="300" height="300" fill="#4B51EF"/>
<rect x="292.5" y="292.5" width="285" height="285" transform="rotate(-180 292.5 292.5)" stroke="#EF4B4B" stroke-width="15"/>
<path d="M154.987 202.822C175.044 193.7 189 173.483 189 150C189 126.517 175.044 106.3 154.987 97.1779C151.819 95.7369 148.181 95.7369 145.013 97.1779C124.956 106.3 111 126.517 111 150C111 173.483 124.956 193.7 145.013 202.822C148.181 204.263 151.819 204.263 154.987 202.822Z" fill="#D9D9D9" stroke="#EF4B4B" stroke-width="6"/>
<mask id="mask0_1322_150" style="mask-type:alpha" maskUnits="userSpaceOnUse" x="114" y="99" width="72" height="102">
<path d="M146.255 200.091C148.634 201.173 151.366 201.173 153.745 200.091C172.771 191.438 186 172.264 186 150C186 127.736 172.771 108.562 153.745 99.9087C151.366 98.8266 148.634 98.8266 146.255 99.9087C127.229 108.562 114 127.736 114 150C114 172.264 127.229 191.438 146.255 200.091Z" fill="#D9D9D9"/>
</mask>
<g mask="url(#mask0_1322_150)">
<rect x="100" y="95" width="100" height="80" fill="#59AFFF"/>
<rect x="100" y="162" width="100" height="80" fill="#4B51EF"/>
<path d="M120 185.5C120 185.5 142.201 189.219 156 186.5C175.296 182.697 200 162 200 162V242H100L120 185.5Z" fill="#FFB84F"/>
</g>
</g>
<defs>
<clipPath id="clip0_1322_150">
<rect width="300" height="300" fill="white"/>
</clipPath>
</defs>
</svg>
