<svg width="300" height="300" viewBox="0 0 300 300" fill="none" xmlns="http://www.w3.org/2000/svg">
<g clip-path="url(#clip0_118_1672)">
<rect width="300" height="300" fill="#FFB84F"/>
<rect y="300" width="150" height="300" transform="rotate(-90 0 300)" fill="#3B9644"/>
<rect y="300" width="300" height="93" transform="rotate(-90 0 300)" fill="#EF4B4B"/>
<path d="M41.3643 127.806C42.9808 122.831 50.0192 122.831 51.6357 127.806L53.9314 134.872C54.6543 137.096 56.7277 138.603 59.0671 138.603L66.4962 138.603C71.7273 138.603 73.9023 145.297 69.6702 148.372L63.66 152.738C61.7674 154.113 60.9754 156.551 61.6983 158.776L63.994 165.841C65.6105 170.816 59.9163 174.953 55.6843 171.878L49.674 167.512C47.7814 166.137 45.2186 166.137 43.326 167.512L37.3157 171.878C33.0837 174.953 27.3895 170.816 29.006 165.841L31.3017 158.776C32.0246 156.551 31.2326 154.113 29.34 152.738L23.3298 148.372C19.0977 145.297 21.2727 138.603 26.5038 138.603L33.9329 138.603C36.2723 138.603 38.3457 137.096 39.0686 134.872L41.3643 127.806Z" fill="#252525"/>
</g>
<defs>
<clipPath id="clip0_118_1672">
<rect width="300" height="300" fill="white"/>
</clipPath>
</defs>
</svg>
