<svg width="300" height="300" viewBox="0 0 300 300" fill="none" xmlns="http://www.w3.org/2000/svg">
<g clip-path="url(#clip0)">
<rect width="300" height="300" fill="#FFB84F"/>
<rect y="300" width="150" height="300" transform="rotate(-90 0 300)" fill="#3B9644"/>
<rect y="300" width="300" height="93" transform="rotate(-90 0 300)" fill="#EF4B4B"/>
<path d="M43.6468 120.781C44.5449 118.017 48.4551 118.017 49.3532 120.781L54.4702 136.53C54.8719 137.766 56.0237 138.603 57.3234 138.603L73.8826 138.603C76.7888 138.603 77.9971 142.322 75.646 144.03L62.2493 153.763C61.1978 154.527 60.7579 155.881 61.1595 157.117L66.2766 172.866C67.1746 175.63 64.0112 177.928 61.66 176.22L48.2634 166.487C47.2119 165.723 45.7881 165.723 44.7366 166.487L31.34 176.22C28.9888 177.928 25.8254 175.63 26.7234 172.866L31.8405 157.117C32.2421 155.881 31.8022 154.527 30.7507 153.763L17.354 144.03C15.0029 142.322 16.2112 138.603 19.1174 138.603L35.6766 138.603C36.9763 138.603 38.1281 137.766 38.5298 136.53L43.6468 120.781Z" fill="#252525"/>
</g>
<defs>
<clipPath id="clip0">
<rect width="300" height="300" fill="white"/>
</clipPath>
</defs>
</svg>
