<svg width="300" height="300" viewBox="0 0 300 300" fill="none" xmlns="http://www.w3.org/2000/svg">
<g clip-path="url(#clip0_118_1676)">
<rect width="300" height="300" fill="white"/>
<rect x="300" y="300" width="300" height="300" transform="rotate(-180 300 300)" fill="#3B9644"/>
<path d="M-335.172 161.314L-135.725 360.76C-130.465 366.021 -122.273 366.962 -115.957 363.031L204.528 163.584C214.589 157.323 214.589 142.678 204.528 136.416L-115.958 -63.0313C-122.273 -66.9619 -130.465 -66.021 -135.725 -60.7608L-335.172 138.686C-341.42 144.934 -341.42 155.065 -335.172 161.314Z" fill="#FFB84F" stroke="white" stroke-width="12"/>
<path d="M-131.9 346.2L-320.322 157.778C-324.618 153.482 -324.618 146.517 -320.322 142.222L-131.9 -46.2004C-128.045 -50.0561 -121.946 -50.5051 -117.567 -47.2557L136.349 141.167C142.276 145.565 142.276 154.436 136.349 158.834L-117.567 347.255C-121.946 350.505 -128.045 350.056 -131.9 346.2Z" fill="#FF4A4A" stroke="black" stroke-width="14"/>
</g>
<defs>
<clipPath id="clip0_118_1676">
<rect width="300" height="300" fill="white"/>
</clipPath>
</defs>
</svg>
