<svg width="300" height="300" viewBox="0 0 300 300" fill="none" xmlns="http://www.w3.org/2000/svg">
<rect width="300" height="300" fill="#EF4B4B"/>
<path fill-rule="evenodd" clip-rule="evenodd" d="M151.713 146.88C151.713 146.88 165.278 117.734 182.283 115.201C195.546 113.225 205.879 116.679 214.567 126.893C218.654 131.697 219.847 136.249 221.875 141.295C220.173 140.33 218.538 139.585 216.741 139.493C213.488 139.243 210.955 140.944 208.624 143.306C205.976 146.208 202.981 148.371 198.757 150.068C192.871 152.635 186.192 151.829 181.152 148.107C177.866 145.778 175.954 142.425 172.371 140.307C169.431 138.716 166.761 138.007 162.709 138.686C155.263 140.887 154.854 143.224 151.713 146.88Z" fill="white" stroke="white" stroke-width="0.6" stroke-linecap="round" stroke-linejoin="round"/>
<path fill-rule="evenodd" clip-rule="evenodd" d="M149.75 149C149.75 149 125.635 127.423 128.216 110.332C130.23 96.993 136.661 88.114 149.051 82.7787C154.898 80.2609 159.644 80.463 165.114 80C163.679 81.3507 162.476 82.7013 161.855 84.3993C160.652 87.448 161.545 90.3809 163.135 93.3136C165.153 96.7096 166.355 100.221 166.743 104.775C167.48 111.181 164.726 117.356 159.643 121.099C156.423 123.569 152.621 124.418 149.516 127.235C147.111 129.589 145.637 131.943 145.094 136.033C145.016 143.829 147.15 144.91 149.75 149Z" fill="white" stroke="white" stroke-width="0.6" stroke-linecap="round" stroke-linejoin="round"/>
<path fill-rule="evenodd" clip-rule="evenodd" d="M153.56 148.824C153.56 148.824 185.505 152.43 193.308 167.75C199.393 179.699 199.4 190.594 192.474 202.076C189.217 207.477 185.279 210.054 181.139 213.58C181.513 211.659 181.7 209.872 181.217 208.139C180.421 204.975 178.003 203.113 175.023 201.653C171.431 200.064 168.428 197.911 165.478 194.445C161.174 189.679 159.818 183.09 161.746 177.129C162.911 173.273 165.483 170.395 166.353 166.324C166.928 163.031 166.753 160.275 164.822 156.648C160.37 150.287 158.024 150.641 153.56 148.824Z" fill="white" stroke="white" stroke-width="0.6" stroke-linecap="round" stroke-linejoin="round"/>
<path fill-rule="evenodd" clip-rule="evenodd" d="M150.042 151.042C150.042 151.042 122 166.763 106.722 158.879C94.8059 152.73 88.4399 143.888 87.3603 130.522C86.8526 124.236 88.5452 119.845 89.8483 114.565C90.6656 116.344 91.5571 117.904 92.9612 119.029C95.4541 121.132 98.5043 121.233 101.776 120.679C105.621 119.872 109.315 119.867 113.734 120.959C120.01 122.316 124.959 126.874 126.873 132.839C128.178 136.651 127.769 140.489 129.439 144.302C130.895 147.311 132.646 149.447 136.331 151.264C143.659 153.83 145.357 152.173 150.042 151.042Z" fill="white" stroke="white" stroke-width="0.6" stroke-linecap="round" stroke-linejoin="round"/>
<path fill-rule="evenodd" clip-rule="evenodd" d="M152.979 151.559C152.979 151.559 158.489 183.231 145.977 195.022C136.219 204.218 125.764 207.285 112.799 203.862C106.7 202.252 103.121 199.197 98.5742 196.213C100.523 196.033 102.291 195.711 103.819 194.76C106.631 193.108 107.74 190.265 108.304 186.994C108.82 183.1 110.043 179.614 112.541 175.809C115.907 170.34 121.85 167.188 128.112 167.364C132.141 167.4 135.625 169.06 139.776 168.752C143.098 168.379 145.695 167.437 148.633 164.565C153.488 158.506 152.489 156.354 152.979 151.559Z" fill="white" stroke="white" stroke-width="0.6" stroke-linecap="round" stroke-linejoin="round"/>
</svg>
