<svg width="300" height="300" viewBox="0 0 300 300" fill="none" xmlns="http://www.w3.org/2000/svg">
<rect width="300" height="300" fill="#EF4B4B"/>
<path fill-rule="evenodd" clip-rule="evenodd" d="M162.657 139.686C160.494 140.325 157.426 137.565 158.684 135.692C164.272 127.376 172.713 117.619 182.232 116.201C195.495 114.225 205.828 117.679 214.516 127.893C217.179 131.023 218.613 134.046 219.85 137.169C220.52 138.859 218.504 140.586 216.689 140.493V140.493C213.437 140.243 210.903 141.944 208.572 144.306C205.924 147.208 202.929 149.371 198.706 151.068C192.82 153.635 186.141 152.829 181.101 149.107C177.815 146.778 175.903 143.425 172.319 141.307C169.379 139.716 166.71 139.007 162.657 139.686V139.686Z" fill="white" stroke="white" stroke-width="0.6" stroke-linecap="round" stroke-linejoin="round"/>
<path fill-rule="evenodd" clip-rule="evenodd" d="M145.042 137.033C145.02 139.305 141.462 141.453 140.025 139.693C133.649 131.885 126.719 120.905 128.164 111.332C130.179 97.993 136.609 89.114 149 83.7787C152.817 82.1352 156.164 81.6506 159.55 81.3835C161.368 81.24 162.43 83.6861 161.804 85.3993V85.3993C160.601 88.448 161.494 91.3809 163.084 94.3136C165.102 97.7096 166.304 101.221 166.692 105.775C167.429 112.181 164.675 118.356 159.592 122.099C156.371 124.569 152.57 125.418 149.465 128.235C147.06 130.589 145.586 132.943 145.042 137.033V137.033Z" fill="white" stroke="white" stroke-width="0.6" stroke-linecap="round" stroke-linejoin="round"/>
<path fill-rule="evenodd" clip-rule="evenodd" d="M164.771 157.648C163.477 155.799 165.12 152.014 167.296 152.612C176.955 155.269 188.889 160.174 193.256 168.75C199.342 180.699 199.349 191.594 192.423 203.076C190.3 206.595 187.889 208.915 185.321 211.08C183.932 212.252 181.654 210.889 181.166 209.139V209.139C180.37 205.975 177.952 204.113 174.972 202.653C171.379 201.064 168.377 198.911 165.427 195.445C161.123 190.679 159.766 184.09 161.694 178.129C162.86 174.273 165.432 171.395 166.302 167.324C166.877 164.031 166.701 161.275 164.771 157.648V157.648Z" fill="white" stroke="white" stroke-width="0.6" stroke-linecap="round" stroke-linejoin="round"/>
<path fill-rule="evenodd" clip-rule="evenodd" d="M136.28 152.264C138.41 153.01 139.285 157.043 137.17 157.827C127.776 161.309 115.223 164.292 106.671 159.879C94.7546 153.73 88.3886 144.888 87.3091 131.522C86.9782 127.426 87.5815 124.135 88.4025 120.878C88.8468 119.116 91.4917 118.892 92.91 120.029V120.029C95.4028 122.132 98.453 122.233 101.725 121.679C105.57 120.872 109.264 120.867 113.683 121.959C119.959 123.316 124.907 127.874 126.821 133.839C128.127 137.651 127.718 141.489 129.388 145.302C130.843 148.311 132.595 150.447 136.28 152.264V152.264Z" fill="white" stroke="white" stroke-width="0.6" stroke-linecap="round" stroke-linejoin="round"/>
<path fill-rule="evenodd" clip-rule="evenodd" d="M148.582 165.565C149.993 163.804 154.087 164.318 154.124 166.574C154.287 176.591 152.93 189.422 145.926 196.022C136.167 205.218 125.712 208.285 112.747 204.862C108.774 203.813 105.87 202.151 103.071 200.294C101.557 199.289 102.224 196.721 103.768 195.76V195.76C106.58 194.108 107.688 191.265 108.253 187.994C108.769 184.1 109.992 180.614 112.49 176.809C115.855 171.34 121.799 168.188 128.061 168.364C132.089 168.4 135.574 170.06 139.725 169.752C143.047 169.379 145.643 168.437 148.582 165.565V165.565Z" fill="white" stroke="white" stroke-width="0.6" stroke-linecap="round" stroke-linejoin="round"/>
</svg>
