<svg width="300" height="300" viewBox="0 0 300 300" fill="none" xmlns="http://www.w3.org/2000/svg">
<g clip-path="url(#clip0_118_1681)">
<rect width="300" height="300" fill="white"/>
<rect x="300" y="100" width="300" height="100" transform="rotate(-180 300 100)" fill="#003EBA"/>
<rect x="326.5" y="192.5" width="341" height="85" transform="rotate(-180 326.5 192.5)" fill="white" stroke="white" stroke-width="15"/>
<rect x="300" y="300" width="300" height="100" transform="rotate(-180 300 300)" fill="#003EBA"/>
<path d="M146.862 138.659C147.849 135.619 152.151 135.619 153.138 138.659L153.974 141.23C154.416 142.59 155.683 143.511 157.112 143.511H159.816C163.013 143.511 164.342 147.601 161.756 149.48L159.568 151.069C158.412 151.91 157.928 153.399 158.37 154.759L159.205 157.33C160.193 160.37 156.713 162.899 154.127 161.02L151.94 159.431C150.783 158.59 149.217 158.59 148.06 159.431L145.873 161.02C143.287 162.899 139.807 160.37 140.795 157.33L141.63 154.759C142.072 153.399 141.588 151.91 140.432 151.069L138.244 149.48C135.658 147.601 136.987 143.511 140.184 143.511H142.888C144.317 143.511 145.584 142.59 146.026 141.23L146.862 138.659Z" fill="#003EBA"/>
<path d="M231.862 116.659C232.849 113.619 237.151 113.619 238.138 116.659L238.974 119.23C239.416 120.59 240.683 121.511 242.112 121.511H244.816C248.013 121.511 249.342 125.601 246.756 127.48L244.568 129.069C243.412 129.91 242.928 131.399 243.37 132.759L244.205 135.33C245.193 138.37 241.713 140.899 239.127 139.02L236.94 137.431C235.783 136.59 234.217 136.59 233.06 137.431L230.873 139.02C228.287 140.899 224.807 138.37 225.795 135.33L226.63 132.759C227.072 131.399 226.588 129.91 225.432 129.069L223.244 127.48C220.658 125.601 221.987 121.511 225.184 121.511H227.888C229.317 121.511 230.584 120.59 231.026 119.23L231.862 116.659Z" fill="#003EBA"/>
<path d="M231.862 161.659C232.849 158.619 237.151 158.619 238.138 161.659L238.974 164.23C239.416 165.59 240.683 166.511 242.112 166.511H244.816C248.013 166.511 249.342 170.601 246.756 172.48L244.568 174.069C243.412 174.91 242.928 176.399 243.37 177.759L244.205 180.33C245.193 183.37 241.713 185.899 239.127 184.02L236.94 182.431C235.783 181.59 234.217 181.59 233.06 182.431L230.873 184.02C228.287 185.899 224.807 183.37 225.795 180.33L226.63 177.759C227.072 176.399 226.588 174.91 225.432 174.069L223.244 172.48C220.658 170.601 221.987 166.511 225.184 166.511H227.888C229.317 166.511 230.584 165.59 231.026 164.23L231.862 161.659Z" fill="#003EBA"/>
<path d="M61.8615 116.659C62.8494 113.619 67.1506 113.619 68.1385 116.659L68.9739 119.23C69.4157 120.59 70.6827 121.511 72.1124 121.511H74.8158C78.0126 121.511 79.3418 125.601 76.7555 127.48L74.5684 129.069C73.4118 129.91 72.9278 131.399 73.3696 132.759L74.205 135.33C75.1929 138.37 71.7131 140.899 69.1268 139.02L66.9397 137.431C65.7831 136.59 64.2169 136.59 63.0603 137.431L60.8732 139.02C58.2869 140.899 54.8071 138.37 55.795 135.33L56.6304 132.759C57.0722 131.399 56.5882 129.91 55.4316 129.069L53.2445 127.48C50.6582 125.601 51.9874 121.511 55.1842 121.511H57.8876C59.3173 121.511 60.5843 120.59 61.0261 119.23L61.8615 116.659Z" fill="#003EBA"/>
<path d="M61.8615 161.659C62.8494 158.619 67.1506 158.619 68.1385 161.659L68.9739 164.23C69.4157 165.59 70.6827 166.511 72.1124 166.511H74.8158C78.0126 166.511 79.3418 170.601 76.7555 172.48L74.5684 174.069C73.4118 174.91 72.9278 176.399 73.3696 177.759L74.205 180.33C75.1929 183.37 71.7131 185.899 69.1268 184.02L66.9397 182.431C65.7831 181.59 64.2169 181.59 63.0603 182.431L60.8732 184.02C58.2869 185.899 54.8071 183.37 55.795 180.33L56.6304 177.759C57.0722 176.399 56.5882 174.91 55.4316 174.069L53.2445 172.48C50.6582 170.601 51.9874 166.511 55.1842 166.511H57.8876C59.3173 166.511 60.5843 165.59 61.0261 164.23L61.8615 161.659Z" fill="#003EBA"/>
</g>
<defs>
<clipPath id="clip0_118_1681">
<rect width="300" height="300" fill="white"/>
</clipPath>
</defs>
</svg>
