<svg width="300" height="300" viewBox="0 0 300 300" fill="none" xmlns="http://www.w3.org/2000/svg">
<g clip-path="url(#clip0)">
<rect width="300" height="300" fill="white"/>
<rect x="300" y="100" width="300" height="100" transform="rotate(-180 300 100)" fill="#003EBA"/>
<rect x="326.5" y="192.5" width="341" height="85" transform="rotate(-180 326.5 192.5)" fill="white" stroke="white" stroke-width="15"/>
<rect x="300" y="300" width="300" height="100" transform="rotate(-180 300 300)" fill="#003EBA"/>
<path d="M148.098 134.854C148.697 133.011 151.303 133.011 151.902 134.854L154.266 142.129C154.534 142.953 155.301 143.511 156.168 143.511H163.817C165.754 143.511 166.56 145.99 164.992 147.129L158.804 151.625C158.103 152.134 157.81 153.037 158.078 153.861L160.441 161.135C161.04 162.978 158.931 164.51 157.364 163.371L151.176 158.875C150.475 158.366 149.525 158.366 148.824 158.875L142.636 163.371C141.069 164.51 138.96 162.978 139.559 161.135L141.922 153.861C142.19 153.037 141.897 152.134 141.196 151.625L135.008 147.129C133.44 145.99 134.246 143.511 136.183 143.511H143.832C144.699 143.511 145.466 142.953 145.734 142.129L148.098 134.854Z" fill="#003EBA"/>
<path d="M233.098 112.854C233.697 111.011 236.303 111.011 236.902 112.854L239.266 120.129C239.534 120.953 240.301 121.511 241.168 121.511H248.817C250.754 121.511 251.56 123.99 249.992 125.129L243.804 129.625C243.103 130.134 242.81 131.037 243.078 131.861L245.441 139.135C246.04 140.978 243.931 142.51 242.364 141.371L236.176 136.875C235.475 136.366 234.525 136.366 233.824 136.875L227.636 141.371C226.069 142.51 223.96 140.978 224.559 139.135L226.922 131.861C227.19 131.037 226.897 130.134 226.196 129.625L220.008 125.129C218.44 123.99 219.246 121.511 221.183 121.511H228.832C229.699 121.511 230.466 120.953 230.734 120.129L233.098 112.854Z" fill="#003EBA"/>
<path d="M233.098 157.854C233.697 156.011 236.303 156.011 236.902 157.854L239.266 165.129C239.534 165.953 240.301 166.511 241.168 166.511H248.817C250.754 166.511 251.56 168.99 249.992 170.129L243.804 174.625C243.103 175.134 242.81 176.037 243.078 176.861L245.441 184.135C246.04 185.978 243.931 187.51 242.364 186.371L236.176 181.875C235.475 181.366 234.525 181.366 233.824 181.875L227.636 186.371C226.069 187.51 223.96 185.978 224.559 184.135L226.922 176.861C227.19 176.037 226.897 175.134 226.196 174.625L220.008 170.129C218.44 168.99 219.246 166.511 221.183 166.511H228.832C229.699 166.511 230.466 165.953 230.734 165.129L233.098 157.854Z" fill="#003EBA"/>
<path d="M63.0979 112.854C63.6966 111.011 66.3034 111.011 66.9021 112.854L69.2658 120.129C69.5335 120.953 70.3014 121.511 71.1679 121.511H78.8168C80.7543 121.511 81.5598 123.99 79.9924 125.129L73.8043 129.625C73.1033 130.134 72.81 131.037 73.0777 131.861L75.4414 139.135C76.0401 140.978 73.9311 142.51 72.3637 141.371L66.1756 136.875C65.4746 136.366 64.5254 136.366 63.8244 136.875L57.6363 141.371C56.0689 142.51 53.9599 140.978 54.5586 139.135L56.9223 131.861C57.19 131.037 56.8967 130.134 56.1957 129.625L50.0076 125.129C48.4402 123.99 49.2457 121.511 51.1832 121.511H58.8321C59.6986 121.511 60.4665 120.953 60.7342 120.129L63.0979 112.854Z" fill="#003EBA"/>
<path d="M63.0979 157.854C63.6966 156.011 66.3034 156.011 66.9021 157.854L69.2658 165.129C69.5335 165.953 70.3014 166.511 71.1679 166.511H78.8168C80.7543 166.511 81.5598 168.99 79.9924 170.129L73.8043 174.625C73.1033 175.134 72.81 176.037 73.0777 176.861L75.4414 184.135C76.0401 185.978 73.9311 187.51 72.3637 186.371L66.1756 181.875C65.4746 181.366 64.5254 181.366 63.8244 181.875L57.6363 186.371C56.0689 187.51 53.9599 185.978 54.5586 184.135L56.9223 176.861C57.19 176.037 56.8967 175.134 56.1957 174.625L50.0076 170.129C48.4402 168.99 49.2457 166.511 51.1832 166.511H58.8321C59.6986 166.511 60.4665 165.953 60.7342 165.129L63.0979 157.854Z" fill="#003EBA"/>
</g>
<defs>
<clipPath id="clip0">
<rect width="300" height="300" fill="white"/>
</clipPath>
</defs>
</svg>
