<svg width="300" height="300" viewBox="0 0 300 300" fill="none" xmlns="http://www.w3.org/2000/svg">
<g clip-path="url(#clip0_118_1690)">
<rect width="300" height="300" fill="white"/>
<path d="M300 299.5L-3.05176e-05 299.5L-1.74042e-05 149.5L300 149.5L300 299.5Z" fill="#EF4B4B"/>
<path d="M300 150L-3.05176e-05 150L-1.74042e-05 -2.62268e-05L300 0L300 150Z" fill="#003EBA"/>
<path d="M206 174C206 180.075 201.075 185 195 185L106 185C99.9249 185 95 180.075 95 174L95 126C95 119.925 99.9249 115 106 115L195 115C201.075 115 206 119.925 206 126L206 174Z" fill="white"/>
</g>
<defs>
<clipPath id="clip0_118_1690">
<rect width="300" height="300" fill="white"/>
</clipPath>
</defs>
</svg>
