<svg width="300" height="300" viewBox="0 0 300 300" fill="none" xmlns="http://www.w3.org/2000/svg">
<g clip-path="url(#clip0_113_561)">
<rect width="300" height="300" fill="white"/>
<rect x="300" y="200" width="300" height="100" transform="rotate(-180 300 200)" fill="white"/>
<rect x="300" y="100" width="300" height="100" transform="rotate(-180 300 100)" fill="#FFAE4F"/>
<rect x="300" y="300" width="300" height="100" transform="rotate(-180 300 300)" fill="#4DBB58"/>
<path d="M147.075 119.797C147.786 116.688 152.214 116.688 152.925 119.797L155.347 130.395C155.806 132.405 158.11 133.363 159.86 132.271L169.138 126.48C171.85 124.787 174.976 127.946 173.255 130.641L167.481 139.678C166.36 141.432 167.323 143.767 169.355 144.221L179.886 146.572C183.014 147.271 183.014 151.729 179.886 152.428L169.355 154.779C167.323 155.233 166.36 157.568 167.481 159.322L173.255 168.359C174.976 171.054 171.85 174.213 169.138 172.52L159.86 166.729C158.11 165.637 155.806 166.595 155.347 168.605L152.925 179.203C152.214 182.312 147.786 182.312 147.075 179.203L144.653 168.605C144.194 166.595 141.89 165.637 140.14 166.729L130.862 172.52C128.15 174.213 125.024 171.054 126.745 168.359L132.519 159.322C133.64 157.568 132.677 155.233 130.645 154.779L120.114 152.428C116.986 151.729 116.986 147.271 120.114 146.572L130.645 144.221C132.677 143.767 133.64 141.432 132.519 139.678L126.745 130.641C125.024 127.946 128.15 124.787 130.862 126.48L140.14 132.271C141.89 133.363 144.194 132.405 144.653 130.395L147.075 119.797Z" fill="#3661F6"/>
<circle cx="150" cy="150" r="39.5" stroke="#3661F6" stroke-width="11"/>
</g>
<defs>
<clipPath id="clip0_113_561">
<rect width="300" height="300" fill="white"/>
</clipPath>
</defs>
</svg>
