<svg width="300" height="300" viewBox="0 0 300 300" fill="none" xmlns="http://www.w3.org/2000/svg">
<g clip-path="url(#clip0)">
<rect width="300" height="300" fill="white"/>
<rect x="300" y="200" width="300" height="100" transform="rotate(-180 300 200)" fill="white"/>
<rect x="300" y="100" width="300" height="100" transform="rotate(-180 300 100)" fill="#FAB838"/>
<rect x="300" y="300" width="300" height="100" transform="rotate(-180 300 300)" fill="#4DBB58"/>
<path d="M149.025 109.266C149.262 108.229 150.738 108.229 150.975 109.266L155.972 131.133C156.126 131.803 156.894 132.123 157.477 131.759L176.65 119.792C177.554 119.228 178.596 120.281 178.022 121.179L165.943 140.084C165.569 140.669 165.891 141.448 166.568 141.599L188.629 146.524C189.671 146.757 189.671 148.243 188.629 148.476L166.568 153.401C165.891 153.552 165.569 154.331 165.943 154.916L178.022 173.821C178.596 174.719 177.554 175.772 176.65 175.208L157.477 163.241C156.894 162.877 156.126 163.197 155.972 163.867L150.975 185.734C150.738 186.771 149.262 186.771 149.025 185.734L144.028 163.867C143.874 163.197 143.106 162.877 142.523 163.241L123.35 175.208C122.446 175.772 121.404 174.719 121.978 173.821L134.057 154.916C134.431 154.331 134.109 153.552 133.432 153.401L111.371 148.476C110.329 148.243 110.329 146.757 111.371 146.524L133.432 141.599C134.109 141.448 134.431 140.669 134.057 140.084L121.978 121.179C121.404 120.281 122.446 119.228 123.35 119.792L142.523 131.759C143.106 132.123 143.874 131.803 144.028 131.133L149.025 109.266Z" fill="#1E1ADC"/>
<circle cx="150" cy="148" r="39.5" stroke="#1E1ADC" stroke-width="11"/>
</g>
<defs>
<clipPath id="clip0">
<rect width="300" height="300" fill="white"/>
</clipPath>
</defs>
</svg>
