<svg width="300" height="300" viewBox="0 0 300 300" fill="none" xmlns="http://www.w3.org/2000/svg">
<g clip-path="url(#clip0_1322_227)">
<rect width="300" height="300" fill="white"/>
<rect width="300" height="100" fill="#FF4A4A"/>
<rect y="100" width="300" height="100" fill="white"/>
<path d="M146.576 165.93C146.576 170.901 142.546 174.93 137.576 174.93H64.402C61.575 174.93 59.2976 177.197 57.6958 179.526V179.526C56.7302 180.931 55.4171 182.135 53.8491 183.056C52.2812 183.977 50.4968 184.59 48.6221 184.854V184.854C46.727 185.12 46.3347 182.844 47.8646 181.695C54.2215 176.918 53.4127 171.393 48.2194 161.748C47.4673 160.351 48.2614 158.57 49.723 157.954V157.954C51.9624 157.009 55.5308 159.62 57.6116 160.876C60.4274 162.576 65.5865 162.432 70.2421 162.375C71.239 162.363 72.0622 161.203 72.0594 160.206V160.206C72.0543 158.399 72.9027 153.727 74.3254 152.614V152.614C75.52 151.678 78.3508 151.577 78.3508 153.094V157.745C78.3508 159.923 80.1165 161.689 82.2946 161.689H129.941C134.651 161.689 138.47 157.87 138.47 153.16V153.16C138.47 152.684 138.28 152.227 137.942 151.891C137.604 151.554 137.146 151.365 136.668 151.365C136.191 151.365 135.732 151.554 135.395 151.891C135.057 152.227 134.867 152.684 134.867 153.16V158.098C134.867 158.455 134.725 158.797 134.471 159.05C134.218 159.302 133.874 159.444 133.516 159.444H93.2511C90.1204 159.444 87.5826 156.906 87.5826 153.776V153.776C87.5826 152.235 88.2096 150.761 89.3193 149.692L119.029 121.084C120.038 120.113 122.975 120.807 123.789 121.947C124.015 122.264 124.252 122.577 124.492 122.875C125.158 123.704 124.452 125.209 123.699 125.959V125.959L111.525 137.687C105.695 143.303 109.671 153.16 117.766 153.16H118.499C123.062 153.16 127.143 148.253 131.194 146.153V146.153C134.663 144.354 139.228 144.49 142.628 146.416C144.791 147.641 146.576 149.446 146.576 153.16V165.93ZM162.105 174.93C157.135 174.93 153.105 170.901 153.105 165.93V125.332C153.105 122.098 156.263 120.227 159.182 121.618V121.618C161.062 122.514 162.319 124.363 161.086 126.041C160.77 126.471 160.536 126.907 160.536 127.44V159.53C160.536 161.185 162.4 162.849 163.977 162.345V162.345C166.467 161.549 168.524 162.51 169.354 164.989C169.819 166.377 170.335 167.737 170.788 169.053C171.885 172.233 169.346 174.93 165.982 174.93H162.105ZM212.639 138.633C212.639 137.599 213.097 136.618 213.89 135.955V135.955C216.163 134.055 219.619 135.671 219.619 138.633V159.212C219.619 160.58 220.728 161.689 222.096 161.689V161.689C223.464 161.689 224.573 160.58 224.573 159.212V128.038C224.573 127.375 224.858 126.753 225.374 126.337V126.337C227.173 124.888 231.553 126.646 231.553 128.956V165.93C231.553 170.901 227.523 174.93 222.553 174.93H196.158C191.382 174.93 187.262 171.192 187.497 166.421C187.814 159.99 189.573 154.823 195.65 154.22C198.038 153.982 200.255 152.284 200.255 149.884V149.884C200.255 149.818 200.249 149.76 200.238 149.708C199.955 148.395 199.23 148.174 200.263 147.315V147.315C203.21 144.859 207.685 146.955 207.685 150.792V159.212C207.685 160.58 208.794 161.689 210.162 161.689V161.689C211.53 161.689 212.639 160.58 212.639 159.212V138.633ZM210.342 121.381C209.487 121.426 208.181 116.758 208.496 115.86C208.811 114.827 209.982 114.827 210.477 115.321C211.288 116.084 211.198 121.336 210.342 121.381ZM202.191 127.71C199.714 126.273 200.12 125.69 202.281 126.318C205.204 127.196 206.998 126.811 208.933 125.292C209.999 124.456 211.432 124.177 212.639 124.792V124.792C215.296 126.139 216.917 125.555 217.863 122.323C218.133 121.336 218.943 121.605 219.169 122.727C220.024 127.216 216.602 128.607 213.134 127.351C211.243 126.722 210.928 126.722 209.982 127.44C207.91 129.056 204.938 129.326 202.191 127.71ZM247.082 174.93C242.112 174.93 238.082 170.901 238.082 165.93V125.332C238.082 122.098 241.24 120.227 244.16 121.618V121.618C246.039 122.514 247.296 124.363 246.063 126.041C245.747 126.471 245.513 126.907 245.513 127.44V159.53C245.513 161.185 247.377 162.849 248.954 162.345V162.345C251.444 161.549 253.501 162.51 254.331 164.989C254.796 166.377 255.312 167.737 255.766 169.053C256.862 172.233 254.323 174.93 250.959 174.93H247.082ZM67.3628 181.214C67.3628 180.512 67.6427 179.838 68.141 179.341C68.6393 178.845 69.3151 178.566 70.0197 178.566C70.7244 178.566 71.4002 178.845 71.8985 179.341C72.3967 179.838 72.6767 180.512 72.6767 181.214C72.6767 181.916 72.3967 182.59 71.8985 183.087C71.4002 183.583 70.7244 183.862 70.0197 183.862C69.3151 183.862 68.6393 183.583 68.141 183.087C67.6427 182.59 67.3628 181.916 67.3628 181.214ZM196.202 160.566C196.202 160.971 196.415 161.359 196.795 161.646C197.175 161.932 197.691 162.093 198.228 162.093C198.766 162.093 199.281 161.932 199.661 161.646C200.041 161.359 200.255 160.971 200.255 160.566C200.255 160.162 200.041 159.774 199.661 159.487C199.281 159.201 198.766 159.04 198.228 159.04C197.691 159.04 197.175 159.201 196.795 159.487C196.415 159.774 196.202 160.162 196.202 160.566Z" fill="#017B3D"/>
<rect y="200" width="300" height="100" fill="#252525"/>
</g>
<defs>
<clipPath id="clip0_1322_227">
<rect width="300" height="300" fill="white"/>
</clipPath>
</defs>
</svg>
