<svg width="300" height="300" viewBox="0 0 300 300" fill="none" xmlns="http://www.w3.org/2000/svg">
<g clip-path="url(#clip0_1322_262)">
<rect width="300" height="300" fill="white"/>
<rect width="300" height="100" fill="#3B9644"/>
<rect y="200" width="300" height="100" fill="#FF4A4A"/>
<path d="M137.833 184.794C136.011 185.209 135.844 187.77 137.713 187.796C142.859 187.869 148.01 186.958 152.874 185.071C161.511 181.723 168.714 175.506 173.26 167.479C177.805 159.452 179.411 150.109 177.806 141.038C176.9 135.916 175.001 131.059 172.254 126.719C171.255 125.142 169.156 126.625 169.749 128.395C171.043 132.257 171.794 136.298 171.963 140.403C172.298 148.509 170.354 156.548 166.35 163.619C162.347 170.69 156.44 176.515 149.293 180.441C145.679 182.426 141.82 183.886 137.833 184.794Z" fill="#FF4A4A"/>
<path d="M181.406 171.506C180.616 173.062 182.277 174.692 183.546 173.494C186.437 170.763 188.832 167.528 190.599 163.928C193.533 157.952 194.604 151.242 193.674 144.657C192.744 138.073 189.857 131.914 185.381 126.97C182.688 123.995 179.495 121.542 175.963 119.708C174.414 118.903 173.264 120.926 174.452 122.206C176.561 124.477 178.427 126.968 180.014 129.643C182.954 134.596 184.881 140.076 185.685 145.77C186.489 151.464 186.154 157.26 184.699 162.825C183.913 165.834 182.807 168.743 181.406 171.506Z" fill="#FF4A4A"/>
<path d="M150 193L147.8 149.294L150 114.886C151.14 116.467 152.607 117.784 154.299 118.749C154.835 119.054 155.194 119.609 155.194 120.226V144.906L153.444 187.833C153.431 188.15 153.324 188.456 153.136 188.712L150 193Z" fill="#FF4A4A"/>
<path d="M149.12 112.145L150 112.965C150.895 114.23 152.226 115.123 153.741 115.477C155.256 115.83 156.848 115.619 158.217 114.883C159.585 114.147 160.634 112.938 161.163 111.485C161.274 111.182 161.36 110.874 161.422 110.562C161.629 109.521 160.16 109.405 159.4 110.146V110.146C158.527 110.999 157.412 111.566 156.204 111.771C154.997 111.976 153.755 111.809 152.646 111.293C152.375 111.167 152.116 111.021 151.869 110.858" fill="#FF4A4A"/>
<path d="M162.167 184.794C163.989 185.209 164.156 187.77 162.287 187.796C157.141 187.869 151.99 186.958 147.126 185.071C138.489 181.723 131.286 175.506 126.74 167.479C122.195 159.452 120.589 150.109 122.194 141.038C123.1 135.916 124.999 131.059 127.746 126.719C128.745 125.142 130.844 126.625 130.251 128.395C128.957 132.257 128.206 136.298 128.037 140.403C127.702 148.509 129.646 156.548 133.65 163.619C137.653 170.69 143.56 176.515 150.707 180.441C154.321 182.426 158.18 183.886 162.167 184.794Z" fill="#FF4A4A"/>
<path d="M118.594 171.506C119.384 173.062 117.723 174.692 116.454 173.494C113.563 170.763 111.168 167.528 109.401 163.928C106.467 157.952 105.396 151.242 106.326 144.657C107.256 138.073 110.143 131.914 114.619 126.97C117.312 123.995 120.505 121.542 124.037 119.708C125.586 118.903 126.736 120.926 125.548 122.206C123.439 124.477 121.573 126.968 119.986 129.643C117.046 134.596 115.119 140.076 114.315 145.77C113.511 151.464 113.846 157.26 115.301 162.825C116.088 165.834 117.193 168.743 118.594 171.506Z" fill="#FF4A4A"/>
<path d="M150 193L152.2 149.294L150 114.886C148.86 116.467 147.393 117.784 145.701 118.749C145.166 119.054 144.806 119.609 144.806 120.226V144.906L146.556 187.833C146.569 188.15 146.676 188.456 146.864 188.712L150 193Z" fill="#FF4A4A"/>
<path d="M150.88 112.145L150 112.965C149.105 114.23 147.774 115.123 146.259 115.477C144.744 115.83 143.152 115.619 141.783 114.883C140.415 114.147 139.366 112.938 138.837 111.485C138.726 111.182 138.64 110.874 138.578 110.562C138.371 109.521 139.84 109.405 140.6 110.146V110.146C141.473 110.999 142.588 111.566 143.796 111.771C145.003 111.976 146.245 111.809 147.354 111.293C147.624 111.167 147.884 111.021 148.131 110.858" fill="#FF4A4A"/>
<path d="M-2 200H32.7143M36.5714 200H71.2858" stroke="white" stroke-width="9.6"/>
<path d="M-2 209.643H48.1429M-0.0714276 227V222.357C-0.0714276 219.596 2.16715 217.357 4.92857 217.357H11.5C13.6303 217.357 15.3572 219.084 15.3572 221.214V221.214C15.3572 223.345 17.0841 225.072 19.2143 225.072H26.9286C29.0588 225.072 30.7857 223.345 30.7857 221.214V221.214C30.7857 219.084 29.0588 217.357 26.9286 217.357H21.1429M5.71429 225.072H9.57143M48.1429 225.072H42.3572C40.2269 225.072 38.5 223.345 38.5 221.214V221.214C38.5 219.084 40.2269 217.357 42.3572 217.357H53.9286M53.9286 207.714V220.072C53.9286 222.833 56.1672 225.072 58.9286 225.072H64.3572C67.1186 225.072 69.3572 222.833 69.3572 220.072V207.714M61.6429 207.714V225.072" stroke="white" stroke-width="4.8"/>
<path d="M75.1428 200H109.857M113.714 200H148.429" stroke="white" stroke-width="9.6"/>
<path d="M75.1426 209.643H125.285M77.0712 227V222.357C77.0712 219.596 79.3097 217.357 82.0712 217.357H88.6426C90.7728 217.357 92.4997 219.084 92.4997 221.214V221.214C92.4997 223.345 94.2266 225.072 96.3569 225.072H104.071C106.201 225.072 107.928 223.345 107.928 221.214V221.214C107.928 219.084 106.201 217.357 104.071 217.357H98.2854M82.8569 225.072H86.714M125.285 225.072H119.5C117.37 225.072 115.643 223.345 115.643 221.214V221.214C115.643 219.084 117.37 217.357 119.5 217.357H131.071M131.071 207.714V220.072C131.071 222.833 133.31 225.072 136.071 225.072H141.5C144.261 225.072 146.5 222.833 146.5 220.072V207.714M138.785 207.714V225.072" stroke="white" stroke-width="4.8"/>
<path d="M152.286 200H187M190.857 200H225.571" stroke="white" stroke-width="9.6"/>
<path d="M152.286 209.643H202.429M154.214 227V222.357C154.214 219.596 156.453 217.357 159.214 217.357H165.786C167.916 217.357 169.643 219.084 169.643 221.214V221.214C169.643 223.345 171.37 225.072 173.5 225.072H181.214C183.345 225.072 185.072 223.345 185.072 221.214V221.214C185.072 219.084 183.345 217.357 181.214 217.357H175.429M160 225.072H163.857M202.429 225.072H196.643C194.513 225.072 192.786 223.345 192.786 221.214V221.214C192.786 219.084 194.513 217.357 196.643 217.357H208.214M208.214 207.714V220.072C208.214 222.833 210.453 225.072 213.214 225.072H218.643C221.404 225.072 223.643 222.833 223.643 220.072V207.714M215.929 207.714V225.072" stroke="white" stroke-width="4.8"/>
<path d="M229.428 200H264.143M268 200H302.714" stroke="white" stroke-width="9.6"/>
<path d="M229.428 209.643H279.571M231.357 227V222.357C231.357 219.596 233.596 217.357 236.357 217.357H242.928C245.059 217.357 246.786 219.084 246.786 221.214V221.214C246.786 223.345 248.513 225.072 250.643 225.072H258.357C260.487 225.072 262.214 223.345 262.214 221.214V221.214C262.214 219.084 260.487 217.357 258.357 217.357H252.571M237.143 225.072H241M279.571 225.072H273.786C271.655 225.072 269.928 223.345 269.928 221.214V221.214C269.928 219.084 271.655 217.357 273.786 217.357H285.357M285.357 207.714V220.072C285.357 222.833 287.596 225.072 290.357 225.072H295.786C298.547 225.072 300.786 222.833 300.786 220.072V207.714M293.071 207.714V225.072" stroke="white" stroke-width="4.8"/>
<path d="M-2 100H32.7143M36.5714 100H71.2858" stroke="white" stroke-width="9.6"/>
<path d="M-2 90.3571H48.1429M-0.0714276 72.9999V77.6428C-0.0714276 80.4042 2.16715 82.6428 4.92857 82.6428H11.5C13.6303 82.6428 15.3572 80.9159 15.3572 78.7856V78.7856C15.3572 76.6554 17.0841 74.9285 19.2143 74.9285H26.9286C29.0588 74.9285 30.7857 76.6554 30.7857 78.7856V78.7856C30.7857 80.9159 29.0588 82.6428 26.9286 82.6428H21.1429M5.71429 74.9285H9.57143M48.1429 74.9285H42.3572C40.2269 74.9285 38.5 76.6554 38.5 78.7856V78.7856C38.5 80.9159 40.2269 82.6428 42.3572 82.6428H53.9286M53.9286 92.2856V79.9285C53.9286 77.1671 56.1672 74.9285 58.9286 74.9285H64.3572C67.1186 74.9285 69.3572 77.1671 69.3572 79.9285V92.2856M61.6429 92.2856V74.9285" stroke="white" stroke-width="4.8"/>
<path d="M75.1428 100H109.857M113.714 100H148.429" stroke="white" stroke-width="9.6"/>
<path d="M75.1426 90.3571H125.285M77.0712 72.9999V77.6428C77.0712 80.4042 79.3097 82.6428 82.0712 82.6428H88.6426C90.7728 82.6428 92.4997 80.9159 92.4997 78.7856V78.7856C92.4997 76.6554 94.2266 74.9285 96.3569 74.9285H104.071C106.201 74.9285 107.928 76.6554 107.928 78.7856V78.7856C107.928 80.9159 106.201 82.6428 104.071 82.6428H98.2854M82.8569 74.9285H86.714M125.285 74.9285H119.5C117.37 74.9285 115.643 76.6554 115.643 78.7856V78.7856C115.643 80.9159 117.37 82.6428 119.5 82.6428H131.071M131.071 92.2856V79.9285C131.071 77.1671 133.31 74.9285 136.071 74.9285H141.5C144.261 74.9285 146.5 77.1671 146.5 79.9285V92.2856M138.785 92.2856V74.9285" stroke="white" stroke-width="4.8"/>
<path d="M152.286 100H187M190.857 100H225.571" stroke="white" stroke-width="9.6"/>
<path d="M152.286 90.3571H202.429M154.214 72.9999V77.6428C154.214 80.4042 156.453 82.6428 159.214 82.6428H165.786C167.916 82.6428 169.643 80.9159 169.643 78.7856V78.7856C169.643 76.6554 171.37 74.9285 173.5 74.9285H181.214C183.345 74.9285 185.072 76.6554 185.072 78.7856V78.7856C185.072 80.9159 183.345 82.6428 181.214 82.6428H175.429M160 74.9285H163.857M202.429 74.9285H196.643C194.513 74.9285 192.786 76.6554 192.786 78.7856V78.7856C192.786 80.9159 194.513 82.6428 196.643 82.6428H208.214M208.214 92.2856V79.9285C208.214 77.1671 210.453 74.9285 213.214 74.9285H218.643C221.404 74.9285 223.643 77.1671 223.643 79.9285V92.2856M215.929 92.2856V74.9285" stroke="white" stroke-width="4.8"/>
<path d="M229.428 100H264.143M268 100H302.714" stroke="white" stroke-width="9.6"/>
<path d="M229.428 90.3571H279.571M231.357 72.9999V77.6428C231.357 80.4042 233.596 82.6428 236.357 82.6428H242.928C245.059 82.6428 246.786 80.9159 246.786 78.7856V78.7856C246.786 76.6554 248.513 74.9285 250.643 74.9285H258.357C260.487 74.9285 262.214 76.6554 262.214 78.7856V78.7856C262.214 80.9159 260.487 82.6428 258.357 82.6428H252.571M237.143 74.9285H241M279.571 74.9285H273.786C271.655 74.9285 269.928 76.6554 269.928 78.7856V78.7856C269.928 80.9159 271.655 82.6428 273.786 82.6428H285.357M285.357 92.2856V79.9285C285.357 77.1671 287.596 74.9285 290.357 74.9285H295.786C298.547 74.9285 300.786 77.1671 300.786 79.9285V92.2856M293.071 92.2856V74.9285" stroke="white" stroke-width="4.8"/>
</g>
<defs>
<clipPath id="clip0_1322_262">
<rect width="300" height="300" fill="white"/>
</clipPath>
</defs>
</svg>
