<svg width="300" height="300" viewBox="0 0 300 300" fill="none" xmlns="http://www.w3.org/2000/svg">
<g clip-path="url(#clip0_1322_123)">
<rect width="300" height="300" fill="#EF4B4B"/>
<rect x="300" y="300" width="300" height="300" transform="rotate(-180 300 300)" fill="#4B51EF"/>
<mask id="path-3-inside-1_1322_123" fill="white">
<path fill-rule="evenodd" clip-rule="evenodd" d="M72 183L72 363H138V183L446 183V117L138 117V-40L72 -40L72 117L-54 117L-54 183L72 183Z"/>
</mask>
<path fill-rule="evenodd" clip-rule="evenodd" d="M72 183L72 363H138V183L446 183V117L138 117V-40L72 -40L72 117L-54 117L-54 183L72 183Z" fill="#EF4B4B"/>
<path d="M72 363L58 363L58 377H72V363ZM72 183L86 183L86 169L72 169L72 183ZM138 363V377H152V363H138ZM138 183L138 169L124 169V183H138ZM446 183L446 197L460 197V183H446ZM446 117H460V103L446 103L446 117ZM138 117H124V131L138 131L138 117ZM138 -40H152V-54L138 -54L138 -40ZM72 -40L72 -54L58 -54L58 -40L72 -40ZM72 117L72 131L86 131L86 117L72 117ZM-54 117L-54 103L-68 103L-68 117L-54 117ZM-54 183L-68 183L-68 197L-54 197L-54 183ZM86 363L86 183L58 183L58 363L86 363ZM138 349H72V377H138V349ZM124 183V363H152V183H124ZM446 169L138 169L138 197L446 197L446 169ZM432 117V183H460V117H432ZM138 131L446 131L446 103L138 103L138 131ZM124 -40V117H152V-40H124ZM72 -26L138 -26L138 -54L72 -54L72 -26ZM86 117L86 -40L58 -40L58 117L86 117ZM-54 131L72 131L72 103L-54 103L-54 131ZM-40 183L-40 117L-68 117L-68 183L-40 183ZM72 169L-54 169L-54 197L72 197L72 169Z" fill="white" mask="url(#path-3-inside-1_1322_123)"/>
</g>
<defs>
<clipPath id="clip0_1322_123">
<rect width="300" height="300" fill="white"/>
</clipPath>
</defs>
</svg>
