<svg width="300" height="300" viewBox="0 0 300 300" fill="none" xmlns="http://www.w3.org/2000/svg">
<g clip-path="url(#clip0_118_1578)">
<rect width="300" height="300" fill="white"/>
<rect x="500" y="300" width="500" height="300" transform="rotate(-180 500 300)" fill="white"/>
<rect x="500" y="300" width="500" height="100" transform="rotate(-180 500 300)" fill="#3B9644"/>
<rect x="500" y="200" width="500" height="100" transform="rotate(-180 500 200)" fill="white"/>
<rect x="500" y="100" width="500" height="100" transform="rotate(-180 500 100)" fill="#252525"/>
<path d="M-115.474 354.419C-121.446 358.85 -129.762 358.238 -135.02 352.98L-327.393 160.606C-333.251 154.748 -333.251 145.251 -327.393 139.393L-135.02 -52.9805C-129.762 -58.2383 -121.446 -58.8506 -115.474 -54.4196L143.767 137.954C151.849 143.952 151.849 156.049 143.767 162.046L-115.474 354.419Z" fill="#FF4A4A"/>
<path d="M61.0868 131.282C61.6623 129.392 64.3377 129.392 64.9132 131.282L67.0317 138.238C67.3724 139.356 68.5955 139.945 69.6823 139.514L76.4415 136.834C78.2778 136.105 79.9459 138.197 78.8273 139.825L74.7098 145.819C74.0478 146.782 74.3499 148.106 75.3644 148.687L81.6745 152.3C83.3888 153.282 82.7935 155.89 80.8231 156.03L73.5701 156.548C72.404 156.631 71.5575 157.693 71.7359 158.848L72.8452 166.034C73.1466 167.987 70.7362 169.147 69.3977 167.695L64.4709 162.347C63.6788 161.487 62.3212 161.487 61.5291 162.347L56.6023 167.695C55.2638 169.147 52.8534 167.987 53.1548 166.034L54.2641 158.848C54.4425 157.693 53.596 156.631 52.4299 156.548L45.1769 156.03C43.2065 155.89 42.6112 153.282 44.3255 152.3L50.6356 148.687C51.6501 148.106 51.9522 146.782 51.2902 145.819L47.1727 139.825C46.0541 138.197 47.7222 136.105 49.5585 136.834L56.3177 139.514C57.4045 139.945 58.6276 139.356 58.9683 138.238L61.0868 131.282Z" fill="white"/>
</g>
<defs>
<clipPath id="clip0_118_1578">
<rect width="300" height="300" fill="white"/>
</clipPath>
</defs>
</svg>
