<svg width="300" height="300" viewBox="0 0 300 300" fill="none" xmlns="http://www.w3.org/2000/svg">
<g clip-path="url(#clip0)">
<rect width="300" height="300" fill="white"/>
<rect x="500" y="300" width="500" height="300" transform="rotate(-180 500 300)" fill="white"/>
<rect x="500" y="300" width="500" height="100" transform="rotate(-180 500 300)" fill="#3B9644"/>
<rect x="500" y="200" width="500" height="100" transform="rotate(-180 500 200)" fill="white"/>
<rect x="500" y="100" width="500" height="100" transform="rotate(-180 500 100)" fill="#252525"/>
<path d="M-125.868 362.132L-338 150L-125.868 -62.1323L160 150L-125.868 362.132Z" fill="#FF4A4A"/>
<path d="M59.5434 133.141C59.8312 132.196 61.1688 132.196 61.4566 133.141L64.0084 141.52C64.1787 142.079 64.7903 142.373 65.3337 142.158L73.4754 138.929C74.3936 138.565 75.2276 139.611 74.6683 140.425L69.7086 147.644C69.3776 148.126 69.5287 148.787 70.036 149.078L77.6367 153.43C78.4938 153.921 78.1962 155.225 77.211 155.295L68.4746 155.919C67.8915 155.96 67.4683 156.491 67.5574 157.069L68.8937 165.725C69.0444 166.701 67.8392 167.281 67.1699 166.555L61.2355 160.113C60.8394 159.683 60.1606 159.683 59.7645 160.113L53.8301 166.555C53.1608 167.281 51.9556 166.701 52.1063 165.725L53.4426 157.069C53.5317 156.491 53.1085 155.96 52.5254 155.919L43.789 155.295C42.8038 155.225 42.5062 153.921 43.3633 153.43L50.964 149.078C51.4713 148.787 51.6224 148.126 51.2914 147.644L46.3317 140.425C45.7724 139.611 46.6064 138.565 47.5246 138.929L55.6663 142.158C56.2097 142.373 56.8213 142.079 56.9916 141.52L59.5434 133.141Z" fill="white"/>
</g>
<defs>
<clipPath id="clip0">
<rect width="300" height="300" fill="white"/>
</clipPath>
</defs>
</svg>
