<svg width="300" height="300" viewBox="0 0 300 300" fill="none" xmlns="http://www.w3.org/2000/svg">
<g clip-path="url(#clip0_1322_819)">
<rect width="300" height="300" fill="white"/>
<rect x="300" y="100" width="300" height="100" transform="rotate(-180 300 100)" fill="#252525"/>
<rect x="300" y="300" width="300" height="100" transform="rotate(-180 300 300)" fill="#3B9644"/>
<rect x="341.5" y="207.5" width="371" height="115" transform="rotate(-180 341.5 207.5)" fill="#EF4B4B" stroke="white" stroke-width="15"/>
<path d="M105.365 226.673C104.951 227.39 105.209 228.315 105.926 228.729V228.729C106.643 229.143 107.573 228.904 107.987 228.187L177.651 107.526C177.85 107.182 178.18 106.936 178.556 106.805C182.32 105.494 184.48 101.754 186.64 98.0126C187.993 95.6686 192.975 87.0394 195.892 75.5003C196.241 74.1198 194.664 73.2093 193.643 74.2018C185.108 82.4973 180.126 91.1266 178.773 93.4705C176.613 97.2115 174.453 100.952 175.2 104.868C175.275 105.259 175.227 105.667 175.028 106.012L105.365 226.673Z" fill="#3B9644" stroke="#252525" stroke-width="6.75"/>
<path d="M105.365 226.673C104.951 227.39 105.209 228.315 105.926 228.729V228.729C106.643 229.143 107.573 228.904 107.987 228.187L177.651 107.526C177.85 107.182 178.18 106.936 178.556 106.805C182.32 105.494 184.48 101.754 186.64 98.0126C187.993 95.6686 192.975 87.0394 195.892 75.5003C196.241 74.1198 194.664 73.2093 193.643 74.2018C185.108 82.4973 180.126 91.1266 178.773 93.4705C176.613 97.2115 174.453 100.952 175.2 104.868C175.275 105.259 175.227 105.667 175.028 106.012L105.365 226.673Z" fill="white"/>
<path d="M190.403 226.673C190.817 227.39 190.559 228.315 189.842 228.729V228.729C189.124 229.143 188.195 228.904 187.781 228.187L118.117 107.526C117.918 107.182 117.588 106.936 117.212 106.805C113.448 105.494 111.288 101.754 109.128 98.0126C107.775 95.6686 102.793 87.0394 99.8758 75.5003C99.5268 74.1198 101.104 73.2093 102.125 74.2018C110.66 82.4973 115.642 91.1266 116.995 93.4705C119.155 97.2115 121.315 100.952 120.568 104.868C120.493 105.259 120.54 105.667 120.739 106.012L190.403 226.673Z" fill="#3B9644" stroke="#252525" stroke-width="6.75"/>
<path d="M190.403 226.673C190.817 227.39 190.559 228.315 189.842 228.729V228.729C189.124 229.143 188.195 228.904 187.781 228.187L118.117 107.526C117.918 107.182 117.588 106.936 117.212 106.805C113.448 105.494 111.288 101.754 109.128 98.0126C107.775 95.6686 102.793 87.0394 99.8758 75.5003C99.5268 74.1198 101.104 73.2093 102.125 74.2018C110.66 82.4973 115.642 91.1266 116.995 93.4705C119.155 97.2115 121.315 100.952 120.568 104.868C120.493 105.259 120.54 105.667 120.739 106.012L190.403 226.673Z" fill="white"/>
<mask id="mask0_1322_819" style="mask-type:alpha" maskUnits="userSpaceOnUse" x="107" y="68" width="83" height="164">
<path fill-rule="evenodd" clip-rule="evenodd" d="M137.777 226.449C143.618 232.531 153.22 232.531 159.061 226.449C178.122 206.601 189.838 179.645 189.838 149.954C189.838 120.262 178.122 93.3066 159.061 73.4585C153.22 67.3768 143.618 67.3768 137.777 73.4585C118.716 93.3066 107 120.262 107 149.954C107 179.645 118.716 206.601 137.777 226.449Z" fill="#EF4B4B"/>
</mask>
<g mask="url(#mask0_1322_819)">
<rect x="100" y="61" width="97" height="179" fill="#EF4B4B"/>
<ellipse cx="148" cy="150" rx="11" ry="13" fill="white"/>
<path fill-rule="evenodd" clip-rule="evenodd" d="M151 229.079C151 229.95 151.974 230.345 152.469 229.629C156.317 224.069 159 211.55 159 196.998C159 182.445 156.317 169.926 152.469 164.366C151.974 163.65 151 164.045 151 164.916V229.079ZM145 229.079C145 229.95 144.026 230.345 143.531 229.629C139.683 224.069 137 211.55 137 196.998C137 182.445 139.683 169.926 143.531 164.366C144.026 163.65 145 164.045 145 164.916V229.079Z" fill="white"/>
<path fill-rule="evenodd" clip-rule="evenodd" d="M151 135.084C151 135.954 151.974 136.349 152.469 135.634C156.317 130.074 159 117.555 159 103.002C159 88.4496 156.317 75.9306 152.469 70.3708C151.974 69.6551 151 70.05 151 70.9204V135.084ZM145 135.084C145 135.954 144.026 136.349 143.531 135.634C139.683 130.074 137 117.555 137 103.002C137 88.4496 139.683 75.9306 143.531 70.3708C144.026 69.6551 145 70.05 145 70.9204V135.084Z" fill="white"/>
<path fill-rule="evenodd" clip-rule="evenodd" d="M196.777 226.552C202.618 232.633 212.22 232.633 218.061 226.552C237.122 206.704 248.838 179.748 248.838 150.056C248.838 120.365 237.122 93.4094 218.061 73.5613C212.22 67.4796 202.618 67.4796 196.777 73.5613C177.716 93.4094 166 120.365 166 150.056C166 179.748 177.716 206.704 196.777 226.552Z" fill="#252525"/>
<path fill-rule="evenodd" clip-rule="evenodd" d="M78.7773 226.552C84.6179 232.633 94.22 232.633 100.061 226.552C119.122 206.704 130.838 179.748 130.838 150.056C130.838 120.365 119.122 93.4094 100.061 73.5613C94.22 67.4796 84.6179 67.4796 78.7773 73.5613C59.716 93.4094 48 120.365 48 150.056C48 179.748 59.716 206.704 78.7773 226.552Z" fill="#252525"/>
</g>
</g>
<defs>
<clipPath id="clip0_1322_819">
<rect width="300" height="300" fill="white"/>
</clipPath>
</defs>
</svg>
