<svg width="300" height="300" viewBox="0 0 300 300" fill="none" xmlns="http://www.w3.org/2000/svg">
<g clip-path="url(#clip0_118_1471)">
<rect width="300" height="300" fill="white"/>
<rect x="300" y="150" width="300" height="75" transform="rotate(-180 300 150)" fill="white"/>
<rect x="300" y="225" width="300" height="75" transform="rotate(-180 300 225)" fill="#EF4B4B"/>
<rect x="300" y="75" width="300" height="75" transform="rotate(-180 300 75)" fill="#FFB84F"/>
<rect x="300" y="300" width="300" height="75" transform="rotate(-180 300 300)" fill="#3661F6"/>
<path d="M-125.868 362.132L-338 150L-125.868 -62.1323L160 150L-125.868 362.132Z" fill="#3B9644"/>
<path fill-rule="evenodd" clip-rule="evenodd" d="M73.46 198.814C75.5854 198.74 75.7995 195.779 73.8594 194.908C56.875 187.283 45 169.822 45 149.5C45 129.828 56.1278 112.836 72.2461 104.853C73.757 104.105 73.4417 101.776 71.7557 101.776V101.776C44.9515 101.776 23.2224 123.505 23.2224 150.31C23.2224 177.114 44.9515 198.843 71.7557 198.843C72.3261 198.843 72.8943 198.833 73.46 198.814Z" fill="white"/>
<path d="M79.1685 112.098C79.5876 110.808 81.4124 110.808 81.8315 112.098L82.5431 114.288C82.7305 114.865 83.268 115.255 83.8746 115.255H86.1773C87.5335 115.255 88.0974 116.991 87.0002 117.788L85.1372 119.141C84.6466 119.498 84.4412 120.13 84.6287 120.707L85.3403 122.897C85.7594 124.187 84.2831 125.259 83.1859 124.462L81.3229 123.109C80.8322 122.752 80.1678 122.752 79.6771 123.109L77.8141 124.462C76.7169 125.259 75.2406 124.187 75.6597 122.897L76.3713 120.707C76.5588 120.13 76.3534 119.498 75.8628 119.141L73.9998 117.788C72.9026 116.991 73.4665 115.255 74.8227 115.255H77.1254C77.732 115.255 78.2695 114.865 78.4569 114.288L79.1685 112.098Z" fill="white"/>
<path d="M79.1685 175.098C79.5876 173.808 81.4124 173.808 81.8315 175.098L82.5431 177.288C82.7305 177.865 83.268 178.255 83.8746 178.255H86.1773C87.5335 178.255 88.0974 179.991 87.0002 180.788L85.1372 182.141C84.6466 182.498 84.4412 183.13 84.6287 183.707L85.3403 185.897C85.7594 187.187 84.2831 188.259 83.1859 187.462L81.3229 186.109C80.8322 185.752 80.1678 185.752 79.6771 186.109L77.8141 187.462C76.7169 188.259 75.2406 187.187 75.6597 185.897L76.3713 183.707C76.5588 183.13 76.3534 182.498 75.8628 182.141L73.9998 180.788C72.9026 179.991 73.4665 178.255 74.8227 178.255H77.1254C77.732 178.255 78.2695 177.865 78.4569 177.288L79.1685 175.098Z" fill="white"/>
<path d="M79.1685 133.098C79.5876 131.808 81.4124 131.808 81.8315 133.098L82.5431 135.288C82.7305 135.865 83.268 136.255 83.8746 136.255H86.1773C87.5335 136.255 88.0974 137.991 87.0002 138.788L85.1372 140.141C84.6466 140.498 84.4412 141.13 84.6287 141.707L85.3403 143.897C85.7594 145.187 84.2831 146.259 83.1859 145.462L81.3229 144.109C80.8322 143.752 80.1678 143.752 79.6771 144.109L77.8141 145.462C76.7169 146.259 75.2406 145.187 75.6597 143.897L76.3713 141.707C76.5588 141.13 76.3534 140.498 75.8628 140.141L73.9998 138.788C72.9026 137.991 73.4665 136.255 74.8227 136.255H77.1254C77.732 136.255 78.2695 135.865 78.4569 135.288L79.1685 133.098Z" fill="white"/>
<path d="M79.1685 154.098C79.5876 152.808 81.4124 152.808 81.8315 154.098L82.5431 156.288C82.7305 156.865 83.268 157.255 83.8746 157.255H86.1773C87.5335 157.255 88.0974 158.991 87.0002 159.788L85.1372 161.141C84.6466 161.498 84.4412 162.13 84.6287 162.707L85.3403 164.897C85.7594 166.187 84.2831 167.259 83.1859 166.462L81.3229 165.109C80.8322 164.752 80.1678 164.752 79.6771 165.109L77.8141 166.462C76.7169 167.259 75.2406 166.187 75.6597 164.897L76.3713 162.707C76.5588 162.13 76.3534 161.498 75.8628 161.141L73.9998 159.788C72.9026 158.991 73.4665 157.255 74.8227 157.255H77.1254C77.732 157.255 78.2695 156.865 78.4569 156.288L79.1685 154.098Z" fill="white"/>
</g>
<defs>
<clipPath id="clip0_118_1471">
<rect width="300" height="300" fill="white"/>
</clipPath>
</defs>
</svg>
