<svg width="300" height="300" viewBox="0 0 300 300" fill="none" xmlns="http://www.w3.org/2000/svg">
<g clip-path="url(#clip0_118_1105)">
<rect width="300" height="300" fill="white"/>
<rect x="309.869" y="-25.0811" width="485.991" height="227.066" transform="rotate(135 309.869 -25.0811)" fill="#3B9644"/>
<rect x="473.208" y="153.56" width="485.991" height="227.066" transform="rotate(135 473.208 153.56)" fill="#EF4B4B"/>
<rect x="328.27" y="27.5474" width="425.315" height="82" transform="rotate(135 328.27 27.5474)" fill="#242424" stroke="#FFB84F"/>
<path d="M173.883 97.2546C172.408 93.9128 175.816 90.5051 179.158 91.98L185.592 94.8197C187.029 95.4539 188.703 95.1886 189.874 94.1415L195.115 89.4526C197.838 87.0172 202.132 89.2051 201.762 92.8391L201.049 99.8357C200.89 101.398 201.66 102.909 203.017 103.699L209.097 107.235C212.254 109.071 211.5 113.831 207.93 114.602L201.055 116.087C199.52 116.418 198.321 117.617 197.99 119.152L196.505 126.026C195.734 129.597 190.974 130.351 189.138 127.193L185.602 121.114C184.812 119.757 183.301 118.987 181.739 119.146L174.742 119.858C171.108 120.229 168.92 115.935 171.356 113.212L176.045 107.971C177.092 106.8 177.357 105.125 176.723 103.689L173.883 97.2546Z" fill="white"/>
<path d="M93.2731 177.865C91.7982 174.523 95.2059 171.115 98.5477 172.59L104.982 175.43C106.418 176.064 108.093 175.799 109.264 174.752L114.505 170.063C117.228 167.628 121.522 169.815 121.152 173.449L120.439 180.446C120.28 182.008 121.05 183.519 122.407 184.309L128.486 187.845C131.644 189.682 130.89 194.441 127.32 195.212L120.445 196.697C118.91 197.028 117.711 198.227 117.38 199.762L115.895 206.637C115.124 210.207 110.364 210.961 108.528 207.804L104.992 201.725C104.202 200.367 102.691 199.597 101.129 199.756L94.1322 200.469C90.4981 200.839 88.3103 196.545 90.7457 193.822L95.4346 188.581C96.4817 187.41 96.7469 185.736 96.1128 184.299L93.2731 177.865Z" fill="white"/>
</g>
<defs>
<clipPath id="clip0_118_1105">
<rect width="300" height="300" fill="white"/>
</clipPath>
</defs>
</svg>
