<svg width="300" height="300" viewBox="0 0 300 300" fill="none" xmlns="http://www.w3.org/2000/svg">
<g clip-path="url(#clip0)">
<rect width="300" height="300" fill="white"/>
<rect x="309.869" y="-25.0811" width="485.991" height="227.066" transform="rotate(135 309.869 -25.0811)" fill="#3B9644"/>
<rect x="473.208" y="153.56" width="485.991" height="227.066" transform="rotate(135 473.208 153.56)" fill="#EF4B4B"/>
<rect x="328.27" y="27.5474" width="425.315" height="82" transform="rotate(135 328.27 27.5474)" fill="#242424" stroke="#FFB84F"/>
<path d="M170.237 88.993C170.053 88.5753 170.479 88.1493 170.896 88.3337L187.657 95.731C187.836 95.8103 188.045 95.7771 188.192 95.6463L201.846 83.4318C202.186 83.1273 202.723 83.4008 202.677 83.8551L200.821 102.081C200.801 102.276 200.897 102.465 201.067 102.564L216.903 111.775C217.297 112.005 217.203 112.6 216.757 112.696L198.849 116.563C198.657 116.604 198.508 116.754 198.466 116.946L194.599 134.853C194.503 135.3 193.908 135.394 193.678 134.999L184.467 119.163C184.368 118.994 184.179 118.897 183.984 118.917L165.758 120.773C165.304 120.82 165.031 120.283 165.335 119.943L177.55 106.289C177.68 106.142 177.714 105.933 177.634 105.753L170.237 88.993Z" fill="white"/>
<path d="M89.6268 169.603C89.4424 169.186 89.8684 168.76 90.2861 168.944L107.046 176.341C107.226 176.421 107.435 176.387 107.582 176.257L121.236 164.042C121.576 163.738 122.113 164.011 122.066 164.465L120.21 182.691C120.19 182.887 120.287 183.075 120.456 183.174L136.292 192.385C136.687 192.615 136.593 193.21 136.147 193.306L118.239 197.173C118.047 197.215 117.897 197.365 117.856 197.556L113.989 215.464C113.893 215.91 113.298 216.004 113.068 215.61L103.857 199.774C103.758 199.604 103.569 199.508 103.374 199.528L85.1482 201.384C84.6939 201.43 84.4204 200.893 84.7249 200.553L96.9393 186.899C97.0702 186.753 97.1034 186.543 97.0241 186.364L89.6268 169.603Z" fill="white"/>
</g>
<defs>
<clipPath id="clip0">
<rect width="300" height="300" fill="white"/>
</clipPath>
</defs>
</svg>
