<svg width="300" height="300" viewBox="0 0 300 300" fill="none" xmlns="http://www.w3.org/2000/svg">
<g clip-path="url(#clip0_118_1105)">
<rect width="300" height="300" fill="white"/>
<rect x="309.869" y="-25.0811" width="485.991" height="227.066" transform="rotate(135 309.869 -25.0811)" fill="#3B9644"/>
<rect x="473.208" y="153.56" width="485.991" height="227.066" transform="rotate(135 473.208 153.56)" fill="#EF4B4B"/>
<rect x="328.27" y="27.5474" width="425.315" height="82" transform="rotate(135 328.27 27.5474)" fill="#242424" stroke="#FFB84F"/>
<path d="M172.841 94.8941C171.735 92.3878 174.291 89.832 176.797 90.9382L186.182 95.0801C187.259 95.5557 188.515 95.3567 189.393 94.5715L197.038 87.7324C199.08 85.9058 202.301 87.5467 202.023 90.2722L200.984 100.477C200.865 101.649 201.442 102.782 202.46 103.374L211.327 108.532C213.695 109.909 213.13 113.479 210.452 114.057L200.425 116.223C199.274 116.471 198.374 117.371 198.126 118.522L195.961 128.548C195.382 131.226 191.813 131.792 190.435 129.424L185.278 120.557C184.685 119.539 183.552 118.961 182.38 119.081L172.175 120.12C169.45 120.397 167.809 117.177 169.636 115.135L176.475 107.49C177.26 106.612 177.459 105.356 176.983 104.278L172.841 94.8941Z" fill="white"/>
<path d="M92.2313 175.504C91.1251 172.998 93.6809 170.442 96.1872 171.549L105.572 175.69C106.649 176.166 107.905 175.967 108.783 175.182L116.428 168.343C118.47 166.516 121.691 168.157 121.413 170.883L120.374 181.088C120.254 182.259 120.832 183.392 121.85 183.985L130.717 189.142C133.085 190.52 132.519 194.09 129.842 194.668L119.815 196.833C118.664 197.082 117.764 197.981 117.516 199.132L115.351 209.159C114.772 211.837 111.202 212.402 109.825 210.034L104.667 201.167C104.075 200.149 102.942 199.572 101.77 199.691L91.5653 200.73C88.8398 201.008 87.1989 197.787 89.0255 195.745L95.8645 188.1C96.6498 187.223 96.8488 185.966 96.3732 184.889L92.2313 175.504Z" fill="white"/>
</g>
<defs>
<clipPath id="clip0_118_1105">
<rect width="300" height="300" fill="white"/>
</clipPath>
</defs>
</svg>
