<svg width="300" height="300" viewBox="0 0 300 300" fill="none" xmlns="http://www.w3.org/2000/svg">
<g clip-path="url(#clip0_113_924)">
<rect width="300" height="300" fill="#3661F6"/>
<rect x="500" y="300" width="500" height="300" transform="rotate(-180 500 300)" fill="#EF4B4B"/>
<rect x="500" y="55" width="500" height="55" transform="rotate(-180 500 55)" fill="#3661F6"/>
<rect x="500" y="55" width="500" height="11" transform="rotate(-180 500 55)" fill="white"/>
<rect y="245" width="500" height="55" fill="#3661F6"/>
<rect y="245" width="500" height="11" fill="white"/>
<circle cx="105" cy="150" r="63" fill="white"/>
<path d="M97.3915 110.416C99.7864 103.046 110.214 103.046 112.608 110.416L117.348 125.004C118.419 128.3 121.491 130.532 124.957 130.532H140.295C148.045 130.532 151.267 140.449 144.997 145.004L132.588 154.02C129.784 156.057 128.611 159.668 129.682 162.964L134.422 177.552C136.817 184.922 128.381 191.051 122.111 186.496L109.702 177.48C106.898 175.443 103.102 175.443 100.298 177.48L87.8887 186.496C81.619 191.051 73.1832 184.922 75.578 177.552L80.3178 162.964C81.3888 159.668 80.2155 156.057 77.4116 154.02L65.0026 145.004C58.7329 140.449 61.9551 130.532 69.7049 130.532H85.0433C88.5091 130.532 91.5807 128.3 92.6517 125.004L97.3915 110.416Z" fill="#EF4B4B"/>
</g>
<defs>
<clipPath id="clip0_113_924">
<rect width="300" height="300" fill="white"/>
</clipPath>
</defs>
</svg>
