<svg width="300" height="300" viewBox="0 0 300 300" fill="none" xmlns="http://www.w3.org/2000/svg">
<g clip-path="url(#clip0_113_924)">
<rect width="300" height="300" fill="#3661F6"/>
<rect x="500" y="300" width="500" height="300" transform="rotate(-180 500 300)" fill="#EF4B4B"/>
<rect x="500" y="55" width="500" height="55" transform="rotate(-180 500 55)" fill="#3661F6"/>
<rect x="500" y="55" width="500" height="11" transform="rotate(-180 500 55)" fill="white"/>
<rect y="245" width="500" height="55" fill="#3661F6"/>
<rect y="245" width="500" height="11" fill="white"/>
<circle cx="105" cy="150" r="63" fill="white"/>
<path d="M98.3426 107.489C100.438 101.04 109.562 101.04 111.657 107.489L117.573 125.695C118.51 128.579 121.198 130.532 124.23 130.532H143.373C150.154 130.532 152.973 139.209 147.487 143.195L132.001 154.447C129.547 156.229 128.521 159.389 129.458 162.273L135.373 180.479C137.469 186.928 130.087 192.291 124.601 188.305L109.114 177.053C106.661 175.271 103.339 175.271 100.886 177.053L85.3988 188.305C79.9128 192.291 72.5315 186.928 74.6269 180.479L80.5423 162.273C81.4794 159.389 80.4528 156.229 77.9994 154.447L62.5127 143.195C57.0267 139.209 59.8462 130.532 66.6272 130.532H85.7698C88.8024 130.532 91.4901 128.579 92.4272 125.695L98.3426 107.489Z" fill="#EF4B4B"/>
</g>
<defs>
<clipPath id="clip0_113_924">
<rect width="300" height="300" fill="white"/>
</clipPath>
</defs>
</svg>
