<svg width="300" height="300" viewBox="0 0 300 300" fill="none" xmlns="http://www.w3.org/2000/svg">
<g clip-path="url(#clip0_126_71)">
<rect width="300" height="300" fill="white"/>
<rect x="300" y="300" width="300" height="100" transform="rotate(-180 300 300)" fill="#4DBB58"/>
<rect x="300" y="100" width="300" height="100" transform="rotate(-180 300 100)" fill="#EF4B4B"/>
<path d="M146.52 89.7343C146.963 85.561 153.037 85.561 153.48 89.7343L154.884 102.934C155.255 106.427 159.965 107.257 161.508 104.102L167.342 92.1784C169.186 88.4086 174.893 90.4858 173.883 94.5591L170.687 107.443C169.841 110.852 173.983 113.243 176.512 110.806L186.072 101.597C189.094 98.6849 193.747 102.589 191.404 106.071L183.995 117.085C182.034 119.999 185.108 123.662 188.318 122.238L200.451 116.853C204.287 115.151 207.324 120.41 203.932 122.881L193.202 130.697C190.363 132.764 191.999 137.258 195.503 137.017L208.746 136.107C212.933 135.82 213.987 141.801 209.954 142.962L197.199 146.637C193.824 147.609 193.824 152.391 197.199 153.363L209.955 157.038C213.987 158.199 212.933 164.18 208.746 163.893L195.503 162.983C191.999 162.742 190.363 167.236 193.202 169.303L203.932 177.119C207.324 179.59 204.287 184.849 200.451 183.147L188.318 177.762C185.108 176.338 182.034 180.001 183.995 182.915L191.404 193.929C193.747 197.411 189.094 201.315 186.072 198.403L176.512 189.194C173.983 186.757 169.841 189.148 170.687 192.557L173.883 205.441C174.893 209.514 169.186 211.591 167.342 207.822L161.508 195.898C159.965 192.743 155.255 193.573 154.884 197.066L153.48 210.266C153.037 214.439 146.963 214.439 146.52 210.266L145.116 197.066C144.745 193.573 140.035 192.743 138.492 195.898L132.658 207.822C130.814 211.591 125.107 209.514 126.117 205.441L129.313 192.557C130.159 189.148 126.017 186.757 123.488 189.194L113.928 198.403C110.906 201.315 106.253 197.411 108.596 193.929L116.005 182.915C117.966 180.001 114.892 176.338 111.682 177.762L99.5486 183.147C95.7125 184.849 92.6759 179.59 96.0682 177.119L106.798 169.303C109.637 167.236 108.001 162.742 104.497 162.983L91.2542 163.893C87.0673 164.18 86.0127 158.199 90.0455 157.038L102.801 153.363C106.176 152.391 106.176 147.609 102.801 146.637L90.0455 142.962C86.0127 141.801 87.0673 135.82 91.2542 136.107L104.497 137.017C108.001 137.258 109.637 132.764 106.798 130.697L96.0682 122.881C92.6759 120.41 95.7126 115.151 99.5486 116.853L111.682 122.238C114.892 123.662 117.966 119.999 116.005 117.085L108.596 106.071C106.253 102.589 110.906 98.685 113.928 101.597L123.488 110.806C126.017 113.243 130.159 110.852 129.313 107.443L126.117 94.5591C125.107 90.4858 130.814 88.4086 132.658 92.1784L138.492 104.102C140.035 107.257 144.745 106.427 145.116 102.934L146.52 89.7343Z" fill="#FFB84F"/>
</g>
<defs>
<clipPath id="clip0_126_71">
<rect width="300" height="300" fill="white"/>
</clipPath>
</defs>
</svg>
