<svg width="300" height="300" viewBox="0 0 300 300" fill="none" xmlns="http://www.w3.org/2000/svg">
<g clip-path="url(#clip0_1322_807)">
<rect width="300" height="300" fill="white"/>
<rect y="225" width="300" height="74.9999" fill="#FF4A4A"/>
<rect width="300" height="74.9999" fill="#FF4A4A"/>
<path d="M149.33 90.9963C148.54 89.4708 146.223 89.3843 145.2 90.7649C142.383 94.5674 138.532 97.5742 134.811 100.456C134.383 100.83 133.615 101.392 133.213 101.992C132.645 102.84 134.116 102.907 135.119 103.096C136.355 103.329 137.448 104.483 136.124 105.482C134.356 107.139 131.921 107.745 129.958 109.113C128.438 109.94 126.899 110.798 125.615 111.968C125.256 112.294 124.994 112.788 125.191 113.232C125.714 114.412 127.871 113.688 128.938 114.362C129.019 114.413 129.09 114.48 129.15 114.554C130.416 116.11 128.589 118.541 126.727 118.288C126.505 118.257 126.282 118.213 126.059 118.237C123.725 118.488 122.085 120.557 121.145 122.577C121.103 122.668 121.056 122.757 120.999 122.84C118.97 125.849 115.225 126.77 112.235 128.516C110.5 129.528 108.817 130.648 107.203 131.829C105.183 133.211 106.827 135.908 108.95 135.435C109.083 135.406 109.216 135.377 109.35 135.358C111.66 135.039 113.759 133.278 116.165 133.805C118.41 134.595 119.04 137.532 118.275 139.583C117.708 141.224 116.335 142.381 115.235 143.663C113.449 145.475 111.113 146.651 108.65 147.212C106.27 148.012 104.13 149.471 102.569 151.442C100.893 153.131 99.2236 154.845 97.3345 156.298C97.0332 156.53 96.7658 156.833 96.7376 157.212C96.6317 158.636 98.245 159.754 99.6155 159.715C102.878 159.509 105.138 156.837 107.916 155.463C110.173 154.448 112.821 156.811 112.402 159.166C112.384 159.267 112.368 159.37 112.356 159.472C112.095 161.71 109.961 162.86 108.06 163.564C102.435 166.394 97.5386 170.479 93.1845 174.994C93.0415 175.142 92.9283 175.316 92.815 175.488C91.8616 176.936 89.7544 176.643 88.4422 177.625C88.2746 177.751 88.1414 177.921 88.0747 178.119C87.586 179.573 89.608 180.327 90.8449 180.169C96.5019 179.488 101.781 177.094 106.781 174.461C108.641 173.571 110.387 172.399 112.321 171.69C114.091 171.252 116.541 171.991 116.965 173.945C116.987 174.047 116.995 174.153 116.99 174.257C116.886 176.343 114.788 177.515 113.118 178.347C108.018 181.03 102.438 182.553 96.9787 184.308C96.6032 184.429 96.1965 184.402 95.8038 184.439C94.0178 184.607 92.9248 187.732 95.0165 188.342C97.4665 189.183 100.072 188.509 102.578 188.399C110.328 187.21 117.107 183.012 124.351 180.298C127.363 179.315 130.918 180.686 132.404 183.511C133.898 186.03 133.761 189.342 132.186 191.788C129.696 197.12 125.912 202.021 120.831 205.086C117.762 206.608 114.199 207.225 111.499 209.425C111.289 209.597 111.042 209.72 110.809 209.86C109.193 210.835 112.076 213.432 112.871 211.652C112.989 211.387 113.086 211.107 113.275 210.887C114.828 209.088 117.34 208.532 119.63 208.452C123.282 208.054 127.161 207.379 129.999 204.848C132.543 202.87 135.05 200.142 138.505 200.099C140.414 200.326 142.302 201.862 144.241 200.925C145.938 200.147 148.599 200.603 149.042 202.691C149.81 205.006 152.109 206.126 154.046 207.349C154.256 207.482 154.434 207.658 154.589 207.853C155.409 208.885 157.166 210.623 157.86 209.358C158.021 209.064 157.981 208.709 157.937 208.377C157.735 206.828 158.388 204.907 160.183 205.219C160.318 205.243 160.454 205.265 160.59 205.274C162.352 205.393 164.041 206.013 165.801 206.147C165.896 206.154 165.992 206.166 166.086 206.187C168.527 206.74 170.564 208.431 171.959 210.464C172.904 211.77 174.934 213.981 176.506 212.518C176.621 212.41 176.714 212.277 176.775 212.131C177.491 210.427 175.822 209.008 174.374 208.344C174.285 208.302 174.197 208.257 174.113 208.205C171.929 206.825 170.05 205.012 168.129 203.294C165.244 200.597 162.753 197.166 162.295 193.137C161.674 189.12 162.001 185.022 162.524 181.015C163.184 178.436 166.479 177.027 168.783 178.398C172.024 179.879 175.244 181.998 178.961 181.768C184.331 181.884 189.85 180.854 195.098 182.412C200.145 184.004 203.771 188.236 208.656 190.137C208.773 190.183 208.885 190.24 208.998 190.295C210.083 190.818 211.391 190.179 211.779 189.046C212.236 188.054 211.97 186.804 211.107 186.142C210.972 186.038 210.833 185.935 210.712 185.815C205.048 180.195 197.407 177.376 190.869 172.986C190.675 172.855 190.457 172.767 190.242 172.673C188.49 171.906 188.216 168.98 189.892 167.973C189.986 167.917 190.08 167.861 190.17 167.8C192.664 166.101 196.102 166.902 198.333 168.707C198.422 168.779 198.514 168.846 198.614 168.903C200.401 169.93 202.394 170.703 204.469 170.774C204.673 170.781 204.879 170.755 205.063 170.668C206.844 169.83 206.005 167.124 204.291 166.566C204.041 166.485 203.784 166.414 203.558 166.279C200.007 164.158 197.402 160.828 194.272 158.172C192.412 156.595 190.376 154.999 187.876 154.693C186.825 154.502 185.755 154.425 184.687 154.443C184.08 154.452 183.405 154.236 183.299 153.639C183.07 152.348 184.471 150.94 185.839 151.084C187.562 151.2 189.274 151.328 190.995 151.088C192.711 150.963 194.425 150.79 196.144 150.746C196.551 150.735 196.942 150.888 197.336 150.986C198.908 151.376 201.129 149.865 200.145 148.294C200.076 148.183 199.984 148.087 199.882 148.006C198.354 146.792 196.217 146.879 194.442 146.211C191.22 145.156 187.939 144.293 184.615 143.625C182.366 143.491 182.563 140.617 184.431 140.127C184.556 140.094 184.681 140.061 184.806 140.027C186.066 139.681 187.179 140.623 188.403 140.775C190.365 141.197 192.385 141.236 194.359 141.583C194.806 141.662 195.309 141.644 195.598 141.294C196.485 140.221 195.394 138.298 194.035 137.968C193.874 137.928 193.709 137.898 193.552 137.84C189.688 136.405 186.332 133.897 183.05 131.455C179.352 128.671 175.998 125.452 172.255 122.732C170.897 121.89 168.671 121.648 168.314 119.781C168.188 118.063 170.208 117.281 171.639 117.682C173.671 118.283 175.563 119.328 177.633 119.841C179.107 120.093 180.623 120.512 182.061 120.434C182.349 120.419 182.636 120.325 182.852 120.133C184.088 119.032 181.572 118.314 180.617 117.912C177.968 116.481 175.614 114.575 173.229 112.757C171.214 111.036 174.939 110.275 176.219 110.938C178.361 111.835 178.605 108.711 177.004 107.925C175.118 107.122 173.496 105.789 171.785 104.626C168.695 102.424 165.195 100.68 161.396 100.196C157.136 99.7675 153.16 97.3155 150.9 93.6688C150.321 92.8102 149.806 91.9141 149.33 90.9963ZM133.333 110.9C133.436 110.911 133.542 110.922 133.645 110.934C135.666 111.179 135.293 114.943 133.185 114.685C131.135 114.552 131.21 110.684 133.333 110.9ZM153.921 113.047C154.103 113.041 154.288 113.031 154.47 113.03C156.367 113.011 156.69 116.584 154.651 116.759C152.509 117.143 151.666 113.125 153.921 113.047ZM147.747 113.651C147.999 113.587 148.268 113.577 148.506 113.681C150.183 114.42 149.805 117.546 147.93 117.786C147.795 117.804 147.659 117.815 147.527 117.849C146.09 118.217 144.562 119.085 143.106 118.569C142.888 118.492 142.694 118.352 142.571 118.156C141.711 116.781 143.465 114.949 144.84 114.526C145.837 114.324 146.764 113.899 147.747 113.651ZM161.781 113.582C161.986 113.572 162.193 113.609 162.371 113.71C164.059 114.663 163.372 117.862 161.395 117.981C161.292 117.987 161.187 117.993 161.084 117.998C159.111 118.09 158.237 114.766 160.129 113.962C160.661 113.774 161.215 113.61 161.781 113.582ZM137.529 118.081C138.145 117.832 138.887 118.021 139.132 118.639C139.71 120.098 138.897 122.032 137.433 122.662C137.331 122.706 137.23 122.749 137.134 122.806C135.873 123.551 134.233 125.021 132.853 124.041C132.653 123.899 132.507 123.688 132.446 123.45C132.026 121.817 133.865 120.569 134.977 119.633C135.761 119.023 136.605 118.454 137.529 118.081ZM155.202 126.422C155.769 126.166 156.472 126.047 156.835 126.552C157.881 128.006 156.846 130.749 154.887 130.686C154.789 130.683 154.691 130.666 154.598 130.634C152.838 130.031 153.048 126.993 154.811 126.541C154.943 126.507 155.078 126.478 155.202 126.422V126.422ZM148.223 126.501C148.793 126.457 149.46 126.408 149.781 126.881C150.678 128.205 149.278 130.636 147.513 130.215C145.427 129.969 145.406 126.393 147.581 126.507C147.709 126.514 147.838 126.523 147.966 126.517C148.052 126.513 148.137 126.508 148.223 126.501ZM163.907 128.303C164.052 128.287 164.196 128.258 164.339 128.225C166.482 127.743 168.923 129.853 168.412 132.066C168.382 132.197 168.329 132.322 168.256 132.436C167.255 134.006 165.084 134.269 163.397 133.741C163.195 133.678 162.986 133.638 162.778 133.596C160.918 133.216 159.776 130.394 161.499 129.161C162.192 128.637 163.052 128.397 163.907 128.303ZM130.013 128.79C130.555 128.723 131.132 128.653 131.677 128.671C133.143 128.718 134.331 130.859 133.306 132.059C133.189 132.197 133.065 132.33 132.95 132.469C131.807 133.851 129.313 134.344 128.182 132.71C127.335 131.27 128.391 128.99 130.013 128.79ZM122.265 130.317C124.264 130.591 125.605 132.327 126.405 134.063C126.494 134.256 126.552 134.466 126.538 134.678C126.412 136.602 123.652 137.628 122.212 136.389C122.067 136.264 121.923 136.137 121.767 136.027C120.268 134.973 119.04 133.018 119.816 131.192C119.825 131.172 119.835 131.152 119.848 131.133C120.375 130.386 121.397 130.08 122.265 130.317C122.265 130.317 122.265 130.317 122.265 130.317V130.317ZM173.497 138.393C173.612 138.376 173.727 138.355 173.841 138.336C175.997 137.959 177.512 141.321 175.777 142.677C175.701 142.737 175.623 142.797 175.547 142.858C173.719 144.312 170.377 142.184 171.297 139.896C171.736 139.082 172.588 138.524 173.497 138.393ZM144.489 142.557C146.411 142.802 145.788 146.138 144.011 146.026C142.103 145.672 142.54 142.369 144.489 142.557ZM134.626 144.453C134.695 144.367 134.781 144.294 134.878 144.24C136.376 143.404 138.177 145.814 137.129 147.078C137.063 147.158 136.981 147.225 136.891 147.276C135.398 148.119 133.588 145.75 134.626 144.453ZM150.242 144.657C150.242 144.657 150.242 144.657 150.243 144.657C151.903 145.668 152.947 147.476 153.287 149.367C153.35 149.717 153.306 150.091 153.079 150.363C151.964 151.702 149.298 151.234 148.797 149.509C148.759 149.378 148.722 149.246 148.678 149.117C148.134 147.511 148.758 145.532 150.242 144.658C150.242 144.658 150.242 144.657 150.242 144.657V144.657ZM155.653 147.873C155.653 147.873 155.653 147.873 155.653 147.873C157.945 147.297 157.189 151.978 155.323 150.585C155.24 150.523 155.163 150.447 155.105 150.361C154.586 149.582 154.936 148.412 155.652 147.874C155.652 147.873 155.653 147.873 155.653 147.873V147.873ZM121.391 151.289C121.576 151.286 121.76 151.256 121.941 151.218C123.472 150.89 125.506 151.411 125.91 153.091C126.09 154.766 124.251 155.637 122.903 156.052C120.888 156.675 118.914 157.67 116.771 157.681C116.466 157.683 116.164 157.596 115.917 157.415C114.822 156.613 114.225 155.354 113.752 154.08C113.477 153.339 113.678 152.464 114.397 152.137C115.961 151.426 117.886 151.662 119.558 151.345C120.168 151.313 120.78 151.296 121.391 151.289ZM173.87 158.984C174.205 158.946 174.539 158.862 174.871 158.806C176.685 158.499 178.353 161.258 176.833 162.606C174.934 164.795 171.423 165.35 168.942 163.88C168.507 163.622 168.223 163.147 168.295 162.646C168.537 160.944 170.347 159.745 171.979 159.481C172.603 159.305 173.224 159.059 173.87 158.984ZM185.336 161.44C185.446 161.397 185.562 161.364 185.68 161.354C187.782 161.163 189.388 164.075 188.038 165.724C187.961 165.818 187.883 165.913 187.811 166.012C186.321 168.063 183.101 168.651 181.043 167.153C180.809 166.983 180.632 166.741 180.564 166.46C180.134 164.693 181.66 162.949 183.277 162.384C183.972 162.088 184.632 161.714 185.336 161.44ZM129.387 164.805C129.521 164.77 129.663 164.781 129.801 164.777C131.464 164.731 132.971 166.106 133.278 167.714C133.396 168.33 133.676 168.957 133.746 169.581C133.911 171.033 131.883 172.685 130.646 171.419C129.369 169.87 129.331 167.788 128.869 165.917C128.836 165.784 128.807 165.646 128.831 165.51C128.886 165.199 129.09 164.883 129.387 164.805ZM145.574 165.988C145.574 165.988 145.574 165.988 145.574 165.988C147.726 165.056 150.51 167.634 149.339 169.816C148.502 171.593 145.239 170.997 145.347 168.939C145.342 167.954 145.262 166.944 145.574 165.988C145.574 165.988 145.574 165.988 145.574 165.988V165.988ZM137.794 168.694C137.671 167.904 138.344 167.196 139.097 167.463C140.343 167.906 141.263 169.332 141.076 170.644C140.989 171.256 140.356 171.644 139.771 171.446C138.672 171.074 137.982 169.893 137.794 168.694Z" fill="#00A651"/>
</g>
<defs>
<clipPath id="clip0_1322_807">
<rect width="300" height="300" fill="white"/>
</clipPath>
</defs>
</svg>
