<svg width="300" height="300" viewBox="0 0 300 300" fill="none" xmlns="http://www.w3.org/2000/svg">
<g clip-path="url(#clip0_1322_449)">
<rect width="300" height="300" fill="white"/>
<rect x="300" y="300" width="300" height="300" transform="rotate(-180 300 300)" fill="#FFAE4F"/>
<rect x="18" y="282" width="264" height="52" transform="rotate(-90 18 282)" fill="#3B9644"/>
<rect x="70" y="282" width="264" height="52" transform="rotate(-90 70 282)" fill="#FF8310"/>
<rect x="140" y="282" width="264" height="142" transform="rotate(-90 140 282)" fill="#A61743"/>
<path d="M184.718 193.648L185.757 193.063L186.202 193.649C186.795 194.431 188.434 194.422 189.521 193.631L190.353 193.027L191.049 193.631C191.965 194.426 193.675 194.427 194.766 193.634C195.531 193.079 195.637 193.068 196.143 193.49C196.444 193.742 197.328 194.029 198.107 194.128C199.509 194.305 199.53 194.296 200.351 193.094C201.038 192.088 201.146 191.681 200.982 190.706C200.86 189.939 200.773 189.167 200.722 188.392C200.659 187.259 200.666 187.252 202.357 186.678C203.291 186.36 204.372 185.935 204.76 185.732C205.435 185.378 207.297 183.243 207.297 182.822C207.297 182.711 206.57 182.54 205.681 182.443C202.144 182.056 201.545 180.203 203.844 176.761C207.593 171.149 209.856 165.683 209.871 162.201C209.878 160.644 209.969 160.122 210.174 160.46C211.011 161.843 209.511 167.643 207.237 171.808L206.322 173.485L207.195 173.288C207.676 173.181 210.5 172.018 213.472 170.705C221.605 167.11 224.399 166.406 229.663 166.622C234.073 166.804 235.951 167.644 239.065 170.831C240.714 172.519 242.303 173.727 245.21 175.502C251.403 179.284 251.661 179.611 251.955 184.059C252.254 188.566 252.105 188.811 248.612 189.564C245.626 190.207 243.754 191.565 243.252 193.452C242.984 194.46 243.548 194.489 245.053 193.545L246.157 192.853L246.648 193.545C247.292 194.454 248.663 194.458 249.802 193.553L250.662 192.87L251.541 193.553C252.907 194.615 254.723 194.358 255.236 193.029C255.334 192.774 255.597 192.856 256.13 193.307C257.127 194.153 259.685 194.517 259.962 193.851C260.067 193.598 259.867 192.971 259.516 192.458C258.028 190.281 257.563 189.243 257.543 188.057C257.516 186.409 258.02 185.614 259.942 184.273C262.276 182.644 262.998 180.543 261.223 180.543C260.127 180.543 259.021 179.598 258.317 178.058C256.885 174.926 257.165 171.416 259.315 165.576C261.499 159.644 261.741 158.55 261.75 154.583C261.757 151.375 261.674 150.82 260.926 149.062C260.469 147.986 259.541 146.385 258.864 145.504L257.633 143.901L259.213 142.624C264.038 138.725 263.051 132.342 257.243 129.883C255.467 129.131 255.023 129.065 251.909 129.085C250.042 129.097 247.194 129.337 245.58 129.618C243.936 129.904 241.152 130.134 239.242 130.142C236.208 130.154 235.693 130.081 234.524 129.474C233.305 128.841 233.096 128.54 232.857 127.077C232.808 126.776 232.593 126.476 232.378 126.41C231.964 126.282 230.049 127.904 229.766 128.622C229.626 128.976 229.512 128.952 229.103 128.479C228.831 128.165 228.451 127.444 228.259 126.877C227.776 125.45 228.369 124.38 230.088 123.578L231.422 122.956L230.636 122.48C229.013 121.497 226.253 122.169 225.254 123.791C224.972 124.249 224.664 124.625 224.57 124.626C224.476 124.627 223.939 124.19 223.377 123.654C221.281 121.656 222.002 118.7 224.805 117.797C226.3 117.316 227.623 117.683 227.898 118.656C228.318 120.141 229.624 118.189 229.39 116.426C229.234 115.255 229.258 115.214 230.089 115.214C231.245 115.214 233.705 116.694 234.465 117.847C235.349 119.186 235.285 121.295 234.312 122.867L233.549 124.101L234.547 123.906C236.012 123.62 237.435 122.732 238.155 121.656C238.916 120.518 238.998 118.302 238.323 117.107C237.669 115.948 237.744 115.764 238.711 116.156C240.355 116.822 241.234 117.556 241.894 118.815C242.488 119.948 242.521 120.23 242.199 121.41C242.001 122.138 241.559 123.096 241.218 123.538C240.687 124.228 240.669 124.343 241.092 124.343C241.88 124.343 243.525 123.615 244.11 123.008C244.405 122.702 244.836 121.947 245.067 121.331L245.486 120.21L245.969 121.064C246.651 122.272 247.977 123.359 249.594 124.035C251.332 124.762 252.057 124.803 251.147 124.123C250.534 123.664 249.404 120.429 249.746 120.113C249.948 119.927 252.309 121.699 255.004 124.06C257.554 126.293 259.156 127.025 261.498 127.025C264.49 127.025 266.232 124.484 264.887 122.081C264.103 120.681 262.357 120.486 261.336 121.686C260.866 122.237 260.737 122.676 260.875 123.255C261.043 123.964 260.978 124.058 260.316 124.058C259.446 124.058 257.732 122.973 254.688 120.494C250.045 116.714 244.405 113.511 240.332 112.341C237.718 111.59 232.134 111.297 229.477 111.771C226.601 112.284 223.2 113.89 221.347 115.609C218.063 118.655 218.011 122.708 221.208 126.399L222.124 127.456L221.504 128.396C220.602 129.763 220.679 131.603 221.695 132.958C222.143 133.555 222.594 134.043 222.698 134.042C222.803 134.042 222.917 133.658 222.952 133.19C223.042 132.004 223.564 131.21 224.459 130.895C225.265 130.612 225.786 130.746 229.478 132.184C233.361 133.696 239.748 133.8 246.539 132.461C249.868 131.805 253.794 131.844 255.521 132.55C258.687 133.844 259.421 137.211 257.094 139.766C256.086 140.873 255.115 141.323 251.853 142.197C249.37 142.862 248.782 142.905 243.14 142.851C238.32 142.804 236.587 142.894 234.62 143.295C232.484 143.73 231.17 143.774 224.895 143.62L217.639 143.441L218.444 144.091C218.887 144.449 219.512 144.889 219.833 145.069C220.38 145.375 220.362 145.416 219.549 145.71C219.071 145.883 218.01 146.025 217.191 146.025H215.703L215.502 147.259C215.392 147.938 215.401 148.731 215.521 149.02C215.699 149.448 215.632 149.509 215.171 149.346C214.858 149.235 213.986 149.016 213.233 148.86C212.481 148.705 211.468 148.387 210.982 148.155C210.165 147.765 210.075 147.775 209.774 148.295C209.506 148.758 206.984 150.589 206.614 150.589C206.554 150.589 206.477 150.236 206.443 149.805C206.408 149.373 206.045 148.25 205.635 147.308C205.224 146.367 204.796 145.34 204.683 145.026C204.512 144.553 204.435 144.528 204.229 144.883C204.092 145.119 203.892 145.761 203.785 146.31C203.678 146.859 203.298 147.751 202.941 148.292L202.292 149.276L201.878 148.435C201.433 147.532 200.695 146.595 200.428 146.595C200.337 146.595 200.184 146.884 200.086 147.237C199.882 147.974 198.132 150.018 197.704 150.018C197.547 150.018 197.418 149.441 197.418 148.735C197.418 148.028 197.279 147.451 197.109 147.451C196.939 147.451 196.8 147.633 196.8 147.857C196.8 148.4 195.305 150.018 194.804 150.018C194.585 150.018 194.233 150.211 194.022 150.446C193.47 151.06 193.02 150.974 193.251 150.299C193.36 149.983 193.289 149.244 193.094 148.658L192.634 147.273C192.56 147.051 192.024 147.11 190.89 147.464C189.058 148.038 188.444 147.936 189.386 147.216C189.731 146.953 190.255 146.041 190.551 145.19C190.846 144.338 191.283 143.583 191.521 143.511C191.854 143.411 191.836 143.535 191.444 144.053C191.164 144.422 190.933 144.921 190.932 145.16C190.931 145.4 190.72 145.968 190.464 146.423C190.207 146.878 190.046 147.295 190.105 147.35C190.164 147.405 190.861 147.146 191.654 146.776L193.095 146.102L193.101 146.705C193.104 147.036 193.278 147.912 193.487 148.649L193.867 149.991L194.848 149.551C195.851 149.101 196.8 147.499 196.8 146.256C196.8 145.642 197.161 145.736 197.308 146.389C197.352 146.58 197.578 147.3 197.811 147.987L198.236 149.236L198.907 148.447C199.276 148.013 199.74 147.162 199.936 146.556C200.278 145.503 200.813 145.05 200.813 145.815C200.813 146.366 202.354 148.341 202.651 148.172C202.795 148.09 203.081 147.348 203.287 146.524C203.715 144.81 204.406 143.644 204.845 143.895C205.011 143.989 205.075 144.172 204.988 144.301C204.902 144.431 205.256 145.545 205.777 146.778L206.938 149.536C207.128 149.993 207.299 149.926 208.415 148.965C209.109 148.367 209.739 147.698 209.815 147.478C209.929 147.145 210.084 147.157 210.733 147.55C211.641 148.1 214.692 148.985 214.927 148.767C215.016 148.685 215.106 147.904 215.128 147.03L215.169 145.44L216.046 145.618C216.529 145.716 217.544 145.71 218.301 145.604L219.679 145.413L218.451 144.592C217.776 144.14 217.093 143.555 216.934 143.292C216.764 143.012 216.163 142.774 215.483 142.718C213.643 142.565 210.383 140.781 210.383 139.927C210.383 139.767 210.835 140.039 211.387 140.533C212.611 141.628 214.312 142.315 215.797 142.315H216.909L216.221 141.422C215.826 140.91 215.472 139.938 215.389 139.138C215.256 137.863 215.118 137.66 213.754 136.734C212.934 136.178 211.919 135.345 211.498 134.883L210.732 134.042L210.341 135.04C210.126 135.589 209.864 136.039 209.758 136.039C209.651 136.039 209.238 135.718 208.84 135.325C208.441 134.933 208.034 134.614 207.937 134.615C207.839 134.617 207.486 135.146 207.152 135.79L206.544 136.96L206.075 136.285C205.817 135.914 205.207 135.257 204.72 134.826C204.233 134.394 203.977 134.041 204.151 134.041C204.325 134.041 204.926 134.491 205.487 135.04L206.506 136.039L206.921 135.307C207.168 134.873 207.26 134.206 207.148 133.667C206.986 132.88 207.009 132.835 207.318 133.328C207.514 133.642 208.111 134.243 208.643 134.665L209.612 135.431L210.28 134.237C210.945 133.049 210.95 133.046 211.252 133.756C211.657 134.705 214.585 137.048 217.078 138.416C217.463 138.627 217.301 137.902 216.591 136.234C216.403 135.792 216.249 134.996 216.249 134.464C216.249 133.676 216.016 133.325 214.982 132.557C213.49 131.449 213.007 130.661 212.726 128.874C212.612 128.149 212.351 127.344 212.146 127.084C211.842 126.698 211.791 126.914 211.873 128.258C211.927 129.164 211.807 130.29 211.604 130.761L211.236 131.617L210.951 130.903C210.795 130.511 210.102 129.829 209.413 129.387C208.723 128.946 208.239 128.511 208.337 128.42C208.435 128.329 209.145 128.732 209.914 129.314C211.086 130.201 211.343 130.297 211.506 129.907C211.697 129.447 211.506 127.45 211.137 126.054C210.953 125.357 210.969 125.36 211.851 126.22C212.501 126.854 212.86 127.611 213.139 128.93C213.493 130.607 213.671 130.886 215.26 132.247C216.214 133.065 217.044 133.687 217.105 133.631C217.166 133.575 217.286 131.461 217.372 128.932C217.538 124.084 217.351 122.931 216.154 121.433L215.539 120.663L216.506 119.646C217.767 118.319 218.346 117.255 218.597 115.804L218.801 114.624L217.71 115.631C216.817 116.457 216.391 116.639 215.356 116.639C214.332 116.639 213.932 116.472 213.241 115.754C212.413 114.893 210.945 114.065 209.534 113.661C209.013 113.512 208.839 113.577 208.839 113.921C208.839 114.174 208.551 114.901 208.199 115.539L207.56 116.698L206.219 115.405C205.396 114.612 204.42 113.994 203.694 113.808C201.839 113.332 201.739 113.38 201.739 114.728C201.739 116.774 200.844 117.155 199.233 115.795C198.004 114.759 196.986 114.533 194.657 114.783L192.859 114.976L193.182 115.768C193.453 116.43 193.392 116.708 192.812 117.46C191.873 118.679 190.652 119.207 188.772 119.207C187.906 119.207 186.822 119.382 186.364 119.595C185.905 119.809 184.766 120.055 183.832 120.143C182.898 120.23 181.903 120.385 181.62 120.488C181.178 120.65 181.129 120.517 181.272 119.535C181.49 118.033 180.414 116.925 178.738 116.925C176.563 116.925 175.56 118.823 176.412 121.326C176.596 121.882 176.755 122.445 176.888 123.015C176.99 123.479 177.97 124.709 179.17 125.88C180.326 127.01 181.419 128.184 181.599 128.491C181.778 128.798 182.371 129.29 182.917 129.585L183.909 130.122L183.778 129.086C183.634 127.948 183.888 127.77 184.509 128.573C184.731 128.86 185.294 129.324 185.761 129.604C186.497 130.045 186.61 130.054 186.61 129.671C186.61 129.428 186.76 128.867 186.944 128.426L187.277 127.623L187.855 128.715C188.173 129.316 189.207 130.682 190.153 131.75C191.989 133.824 193.107 136.14 192.53 136.673C192.296 136.89 191.663 136.873 190.351 136.616C189.334 136.416 188.077 136.311 187.557 136.382C186.494 136.526 186.41 136.392 187.064 135.593C187.753 134.751 187.644 134.612 186.289 134.612C184.721 134.612 180.829 133.878 179.334 133.302C177.882 132.741 177.547 132.88 177.119 134.225L176.336 136.661L175.903 137.998L177.475 137.85C178.339 137.769 179.451 137.584 179.945 137.44C180.44 137.295 180.889 137.218 180.944 137.269C180.999 137.319 180.779 137.841 180.454 138.429L179.865 139.497L180.845 139.302C181.384 139.195 182.195 138.933 182.647 138.719C183.434 138.348 183.497 138.375 184.118 139.347C184.881 140.542 185.491 140.493 185.626 139.225C185.766 137.915 186.208 138.109 187.039 139.845C187.838 141.515 188.67 142.104 188.83 141.115C188.883 140.786 189.313 140.251 189.786 139.926C190.743 139.268 191.464 139.466 191.878 140.498C192.306 141.567 191.351 142.669 188.575 144.311C183.013 147.601 179.78 152.099 178.858 157.833C178.025 163.005 180.625 168.349 185.841 172.188C188.337 174.025 192.302 175.964 192.05 175.224C190.98 172.082 191.015 166.088 192.11 165.077C192.274 164.925 192.217 165.55 191.984 166.467C191.115 169.88 191.492 172.599 193.72 178.973C195.735 184.738 195.456 187.202 192.605 188.83C191.689 189.353 191.099 189.44 188.637 189.411C185.965 189.379 185.673 189.431 184.816 190.098C183.984 190.745 182.906 192.868 182.906 193.859C182.906 194.395 183.516 194.324 184.717 193.648L184.718 193.648ZM228.089 193.532L229.21 192.829L229.97 193.532C230.967 194.453 232.134 194.432 233.092 193.477C233.51 193.06 233.885 192.771 233.926 192.835C234.066 193.063 234.204 193.292 234.341 193.522C234.577 193.919 235.064 194.119 235.943 194.179C237.002 194.252 237.287 194.152 237.707 193.559L238.209 192.851L239.312 193.543C242.333 195.437 243.942 193.45 242.593 189.493C241.906 187.481 242.284 186.35 244.496 183.789C245.429 182.709 246.193 181.556 246.194 181.227C246.194 180.703 246.021 180.633 244.78 180.657C243.591 180.68 243.244 180.555 242.619 179.884C241.601 178.791 241.662 177.54 242.799 176.151L243.707 175.042L242.095 173.975C241.209 173.388 239.611 172 238.543 170.889C236.146 168.396 233.789 167.214 230.681 166.945L228.598 166.765L228.601 168.305C228.605 170.286 229.558 172.192 232.159 175.42C235.116 179.091 235.323 179.659 235.443 184.457L235.544 188.514L234.688 189.306C233.915 190.022 233.566 190.114 231.071 190.254C228.695 190.388 228.196 190.507 227.499 191.11C226.573 191.91 226.296 192.346 226.01 193.451C225.843 194.095 225.911 194.235 226.387 194.235C226.706 194.235 227.472 193.919 228.088 193.533L228.089 193.532ZM165 181.794C165 181.281 165.235 181.144 166.39 180.984L167.78 180.791L166.853 180.07C165.752 179.214 165.65 178.545 166.621 178.543C167.588 178.543 169.225 177.563 169.474 176.839C169.59 176.502 169.517 176.052 169.31 175.82C168.768 175.217 167.748 175.308 167.559 175.977C167.356 176.696 167.015 176.698 166.243 175.984C165.081 174.91 165.055 172.688 166.189 171.394C166.723 170.784 166.718 170.744 166.037 170.114C165.304 169.437 164.781 168.096 165.125 167.778C165.235 167.677 165.814 167.758 166.412 167.957C167.262 168.241 167.598 168.246 167.948 167.977C169.009 167.164 167.859 166.118 166.158 166.348C165.473 166.441 165.19 166.348 165.092 166.002C165.018 165.739 164.419 165.396 163.744 165.229C162.538 164.932 162.53 164.936 162.53 165.746C162.53 166.634 162.01 166.802 161.023 166.232C160.22 165.769 159.442 166.129 159.442 166.962C159.442 167.74 160.244 168.123 161.68 168.033C162.782 167.964 162.823 168.763 161.777 169.913L161.024 170.739L161.62 171.575C162.504 172.813 162.429 174.868 161.464 175.889L160.708 176.69L160.212 176.048C159.523 175.156 158.579 175.216 158.321 176.168C158.152 176.791 158.292 177.076 159.092 177.737C159.629 178.181 160.414 178.544 160.836 178.544C161.88 178.544 161.84 179.345 160.754 180.154L159.905 180.788L161.217 180.986C161.939 181.096 162.529 181.301 162.529 181.443C162.529 181.987 162.869 183.638 163.731 183.68C164.5 183.716 164.981 182.575 164.999 181.795L165 181.794ZM181.604 175.82C182.796 175.361 185.376 173.23 185.376 172.703C185.376 172.538 184.664 171.773 183.794 171.005C181.962 169.388 179.97 166.665 179.454 165.073C179.185 164.243 177.884 162.822 174.22 159.355L169.345 154.741L167.94 155.089C167.167 155.28 166.225 155.441 165.845 155.446C165.191 155.456 165.203 155.493 166.072 156.149L166.99 156.842L168.277 156.146C169.523 155.47 169.568 155.466 169.722 156.01C169.812 156.328 169.618 156.879 169.273 157.284C168.939 157.677 168.748 158.122 168.85 158.274C168.951 158.426 168.63 158.743 168.136 158.979C167.221 159.416 166.585 160.857 167.308 160.857C167.958 160.857 169.391 159.131 169.226 158.548C169.141 158.249 169.182 157.941 169.317 157.865C169.875 157.546 169.84 158.9 169.273 159.567C168.938 159.959 168.748 160.405 168.849 160.557C168.951 160.708 168.63 161.025 168.136 161.262C167.226 161.696 166.585 163.139 167.301 163.139C168.003 163.139 169.412 161.491 169.238 160.874C169.146 160.551 169.182 160.224 169.316 160.147C169.692 159.932 169.895 161.002 169.578 161.526C169.408 161.806 169.409 162.19 169.582 162.493C169.894 163.044 169.577 164.101 169.002 164.429C168.755 164.57 168.922 164.847 169.52 165.287C170.386 165.925 170.403 165.992 170.403 168.807C170.403 171.159 170.5 171.766 170.943 172.176C171.44 172.635 171.483 172.637 171.483 172.196C171.483 171.715 172.349 171.127 173.058 171.127C173.266 171.127 174.572 172.206 175.958 173.526C177.353 174.853 178.813 175.982 179.226 176.054L180.215 176.223C180.348 176.244 180.973 176.063 181.604 175.82L181.604 175.82ZM166.698 164.44C166.698 163.682 165.095 162.872 163.178 162.662C161.63 162.493 161.604 162.502 161.604 163.257C161.604 163.882 161.848 164.127 162.916 164.581C164.633 165.311 166.698 165.234 166.698 164.44H166.698ZM168.456 164.37C169.238 163.678 169.608 162.854 169.138 162.854C168.597 162.854 167.161 164.112 167.161 164.586C167.161 165.325 167.427 165.281 168.456 164.37ZM166.789 162.128C166.855 161.7 166.584 161.414 165.771 161.056C164.017 160.283 161.921 159.925 161.416 160.312C160.486 161.026 161.105 161.983 162.608 162.156C163.214 162.225 164.034 162.405 164.432 162.556C165.587 162.993 166.686 162.794 166.789 162.127V162.128ZM166.789 159.836C166.883 159.226 166.483 159.007 163.218 157.886C160.78 157.049 159.701 157.444 160.48 158.888C160.751 159.391 161.207 159.621 162.229 159.77C162.988 159.881 164.027 160.098 164.536 160.252C165.897 160.665 166.683 160.52 166.789 159.837V159.836ZM168.425 157.689C168.917 157.202 169.32 156.627 169.32 156.411C169.32 155.712 167.375 156.949 167.126 157.806C166.829 158.834 167.311 158.79 168.425 157.689ZM166.789 157.545C166.897 156.85 165.711 156.222 163.381 155.739C161.671 155.385 160.917 155.586 161.045 156.361C161.115 156.785 161.685 157.094 163.3 157.586C165.885 158.373 166.663 158.364 166.789 157.545V157.545ZM169.068 154.309C172.055 153.012 172.313 149.742 169.497 148.883C168.328 148.526 167.582 148.719 167.134 149.491C166.791 150.083 167.021 151.159 167.489 151.159C167.648 151.159 167.777 151.358 167.777 151.601C167.777 152.737 163.218 153.251 161.348 152.327C160.692 152.002 160.405 151.159 160.952 151.159C161.361 151.159 161.643 150.3 161.434 149.692C161.15 148.864 160.295 148.577 159.054 148.893C156.255 149.608 156.334 152.817 159.184 154.178C161.521 155.295 166.643 155.363 169.069 154.309L169.068 154.309ZM167.211 151.795C167.384 151.635 167.309 151.389 167.019 151.167C166.384 150.68 166.418 149.956 167.114 149.127C167.637 148.505 167.702 147.573 167.882 138.176C168.193 121.983 169.427 109.803 171.053 106.882C171.701 105.718 171.61 105.714 169.937 106.825C167.781 108.256 166.14 110.119 164.685 112.787C161.94 117.823 160.985 124.6 160.985 139.064C160.985 147.277 161.043 148.351 161.522 149.124C161.978 149.857 162.002 150.128 161.682 150.911C161.474 151.418 161.381 151.904 161.473 151.989C162.086 152.555 166.552 152.405 167.211 151.796L167.211 151.795ZM192.3 136.353C192.393 136.213 192.187 135.507 191.841 134.784C191.301 133.656 191.084 133.469 190.315 133.469C187.906 133.469 184.035 132.419 180.043 130.683C177.738 129.681 176.942 129.45 176.666 129.706C175.96 130.357 177.132 131.904 178.948 132.717C180.558 133.439 185.06 134.325 187.113 134.325C188.304 134.325 188.333 134.377 187.654 135.334L187.156 136.037L188.503 136.071C189.245 136.089 190.268 136.202 190.777 136.322C192.1 136.633 192.113 136.633 192.3 136.353H192.3Z" fill="#FFBE29" stroke="#252525" stroke-width="5.73113"/>
<path d="M206.369 143.651C206.369 143.232 205.109 142.098 203.832 141.367C202.83 140.793 202.664 140.776 202.662 141.244C202.659 141.954 202.011 143.74 201.757 143.74C201.613 143.74 201.401 143.391 201.285 142.965C201.169 142.538 200.683 141.698 200.205 141.097L199.336 140.004L198.659 141.017C198.028 141.96 196.935 142.884 196.45 142.884C196.334 142.884 196.312 142.387 196.4 141.78C196.496 141.12 196.422 140.597 196.216 140.479C196.027 140.371 195.872 140.409 195.872 140.563C195.872 140.918 194.354 142.599 194.033 142.599C193.9 142.599 193.715 142.117 193.621 141.529L193.265 139.461C193.164 138.911 193.38 139.284 193.746 140.288L194.411 142.114L195.14 141.001C195.541 140.389 195.869 139.721 195.87 139.515C195.871 139.31 196.007 139.219 196.172 139.313C196.337 139.407 196.566 140.143 196.682 140.948L196.892 142.412L197.694 141.553C198.135 141.081 198.652 140.45 198.843 140.149C199.183 139.613 199.202 139.614 199.879 140.174C200.258 140.488 200.841 141.238 201.175 141.842C201.508 142.445 201.825 142.895 201.88 142.84C201.934 142.786 202.056 142.164 202.151 141.458L202.339 140.116C202.387 139.941 204.756 141.443 205.632 142.204C206.196 142.693 206.731 143.025 206.821 142.941C206.912 142.857 206.986 142.136 206.986 141.338C206.986 140.101 206.852 139.769 206.076 139.093C205.185 138.316 205.16 138.311 204.831 138.88C204.403 139.618 203.899 139.629 203.899 138.9C203.899 138.368 202.214 136.322 201.776 136.322C201.662 136.322 201.308 136.772 200.988 137.321C200.668 137.87 200.323 138.319 200.223 138.318C199.791 138.316 197.416 135.732 197.417 135.266C197.417 134.895 197.577 134.989 197.993 135.609C198.31 136.08 198.942 136.782 199.398 137.171C200.321 137.957 200.657 137.765 201.013 136.251C201.115 135.819 201.291 135.466 201.405 135.466C201.8 135.466 203.867 137.609 204.158 138.319L204.45 139.032L204.671 138.248C204.941 137.288 205.24 137.253 205.671 138.128C205.852 138.494 206.742 139.254 207.65 139.818L209.302 140.842L209.633 139.812C209.816 139.245 210.057 138.919 210.17 139.088C210.338 139.34 209.909 141.047 209.585 141.415C209.536 141.47 209.001 141.165 208.396 140.739L207.295 139.963L207.291 141.352C207.288 142.116 207.203 143.03 207.1 143.383C206.9 144.073 206.369 144.267 206.369 143.65V143.651ZM198.136 132.578C196.174 130.979 195.876 130.613 195.919 129.855L195.965 129.049L196.093 129.828C196.168 130.283 196.691 130.964 197.35 131.466L198.478 132.325L199.171 131.543C199.552 131.113 199.869 130.6 199.875 130.404C199.891 129.893 199.986 129.936 201.314 131.061C202.495 132.06 202.513 132.065 202.689 131.417C202.786 131.056 202.752 130.377 202.611 129.907C202.226 128.616 202.301 128.421 202.886 129.2C203.177 129.588 203.645 130.136 203.926 130.418C204.416 130.91 204.446 130.904 204.628 130.276C204.732 129.915 204.82 129.255 204.822 128.808L204.826 127.997L205.891 129.174C206.885 130.274 206.976 130.314 207.28 129.79C207.459 129.482 207.607 128.74 207.609 128.141C207.613 127.367 207.696 127.172 207.898 127.467C208.235 127.958 208.001 129.297 207.379 130.438L206.933 131.257L206.347 130.367C205.598 129.229 205.349 129.247 204.868 130.476C204.414 131.636 204.119 131.725 203.676 130.832C203.39 130.255 203.335 130.325 203.132 131.539L202.906 132.887L201.552 131.862L200.198 130.837L199.589 131.512C199.255 131.883 198.976 132.348 198.97 132.544C198.958 132.969 198.632 132.982 198.136 132.578H198.136ZM215.593 126.622C214.879 125.995 214.387 125.395 214.499 125.291C214.612 125.187 214.739 125.157 214.782 125.225C214.825 125.293 215.408 125.892 216.079 126.556C217.625 128.086 217.307 128.129 215.593 126.622ZM192.34 124.278C191.69 123.42 191.735 122.852 192.526 121.923C193.098 121.252 193.359 121.161 194.357 121.284C194.997 121.364 196.375 121.916 197.418 122.511C198.624 123.198 199.871 123.659 200.836 123.774C201.672 123.873 202.356 123.91 202.356 123.857C202.356 123.803 202.009 123.251 201.585 122.63C200.577 121.154 200.611 120.996 201.748 121.88C202.915 122.787 204.311 123.053 207.431 122.96L208.955 122.915L208.071 122.062C206.834 120.869 207.215 120.762 208.581 121.919C209.862 123.004 209.781 123.08 207.086 123.342C205.94 123.454 204.708 123.373 203.684 123.119C202.152 122.739 202.093 122.745 202.383 123.246C202.55 123.535 202.821 123.771 202.985 123.771C203.149 123.771 203.283 123.917 203.283 124.096C203.283 124.646 199.974 124.162 198.393 123.381C194.78 121.597 194.326 121.442 193.466 121.707C192.987 121.854 192.509 122.284 192.344 122.716C191.793 124.155 193.885 125.274 194.748 124.001C194.998 123.633 194.94 123.38 194.5 122.932C193.898 122.317 193.955 122.229 194.767 122.518C195.344 122.722 195.422 124.074 194.885 124.57C194.271 125.137 192.869 124.976 192.34 124.278ZM206.569 120.723C206.117 120.306 206.471 120.203 208.497 120.167C211.002 120.121 212.523 119.714 214.319 118.608C215.757 117.722 216.147 117.896 214.782 118.815C213.536 119.653 211.594 120.297 209.718 120.494C208.81 120.59 207.775 120.722 207.418 120.788C207.061 120.854 206.679 120.825 206.569 120.723V120.723Z" fill="black" stroke="#252525" stroke-width="5.73113"/>
<path d="M184.718 193.648C184.718 193.648 184.718 193.648 184.719 193.648L185.116 193.424C185.483 193.217 185.947 193.313 186.202 193.649V193.649C186.795 194.431 188.434 194.422 189.521 193.631L189.607 193.569C190.043 193.252 190.641 193.278 191.049 193.631V193.631C191.965 194.426 193.675 194.427 194.766 193.634C195.531 193.079 195.637 193.068 196.143 193.49C196.444 193.742 197.328 194.029 198.107 194.128C199.509 194.305 199.53 194.296 200.351 193.094C201.038 192.088 201.146 191.681 200.982 190.706C200.86 189.939 200.773 189.167 200.722 188.392C200.659 187.259 200.666 187.252 202.357 186.678C203.291 186.36 204.372 185.935 204.76 185.732C205.435 185.378 207.297 183.243 207.297 182.822C207.297 182.711 206.57 182.54 205.681 182.443C202.144 182.056 201.545 180.203 203.844 176.761C207.593 171.149 209.856 165.683 209.871 162.201C209.878 160.644 209.969 160.122 210.174 160.46C211.011 161.843 209.511 167.643 207.237 171.808L206.751 172.699C206.584 173.005 206.855 173.365 207.195 173.288V173.288C207.676 173.181 210.5 172.018 213.472 170.705C221.605 167.11 224.399 166.406 229.663 166.622C234.073 166.804 235.951 167.644 239.065 170.831C240.714 172.519 242.303 173.727 245.21 175.502C251.403 179.284 251.661 179.611 251.955 184.059C252.254 188.566 252.105 188.811 248.612 189.564C245.626 190.207 243.754 191.565 243.252 193.452C242.984 194.46 243.548 194.489 245.053 193.545L245.438 193.304C245.842 193.051 246.372 193.157 246.648 193.545V193.545C247.292 194.454 248.663 194.458 249.802 193.553V193.553C250.306 193.152 251.02 193.148 251.529 193.544L251.541 193.553C252.907 194.615 254.723 194.358 255.236 193.029C255.334 192.774 255.597 192.856 256.13 193.307C257.127 194.153 259.685 194.517 259.962 193.851C260.067 193.598 259.867 192.971 259.516 192.458C258.028 190.281 257.563 189.243 257.543 188.057C257.516 186.409 258.02 185.614 259.942 184.273C262.276 182.644 262.998 180.543 261.223 180.543C260.127 180.543 259.021 179.598 258.317 178.058C256.885 174.926 257.165 171.416 259.315 165.576C261.499 159.644 261.741 158.55 261.75 154.583C261.757 151.375 261.674 150.82 260.926 149.062C260.469 147.986 259.541 146.385 258.864 145.504V145.504C258.179 144.612 258.339 143.331 259.213 142.624V142.624C264.038 138.725 263.051 132.342 257.243 129.883C255.467 129.131 255.023 129.065 251.909 129.085C250.042 129.097 247.194 129.337 245.58 129.618C243.936 129.904 241.152 130.134 239.242 130.142C236.208 130.154 235.693 130.081 234.524 129.474C233.305 128.841 233.096 128.54 232.857 127.077C232.808 126.776 232.593 126.476 232.378 126.41C231.964 126.282 230.049 127.904 229.766 128.622C229.626 128.976 229.512 128.952 229.103 128.479C228.831 128.165 228.451 127.444 228.259 126.877C227.776 125.45 228.369 124.38 230.088 123.578L230.589 123.345C230.945 123.179 230.972 122.683 230.636 122.48V122.48C229.013 121.497 226.253 122.169 225.254 123.791C224.972 124.249 224.664 124.625 224.57 124.626C224.476 124.627 223.939 124.19 223.377 123.654C221.281 121.656 222.002 118.7 224.805 117.797C226.3 117.316 227.623 117.683 227.898 118.656C228.318 120.141 229.624 118.189 229.39 116.426C229.234 115.255 229.258 115.214 230.089 115.214C231.245 115.214 233.705 116.694 234.465 117.847C235.349 119.186 235.285 121.295 234.312 122.867L234.084 123.236C233.88 123.566 234.167 123.98 234.547 123.906V123.906C236.012 123.62 237.435 122.732 238.155 121.656C238.916 120.518 238.998 118.302 238.323 117.107C237.669 115.948 237.744 115.764 238.711 116.156C240.355 116.822 241.234 117.556 241.894 118.815C242.488 119.948 242.521 120.23 242.199 121.41C242.001 122.138 241.559 123.096 241.218 123.538C240.687 124.228 240.669 124.343 241.092 124.343C241.88 124.343 243.525 123.615 244.11 123.008C244.405 122.702 244.836 121.947 245.067 121.331L245.142 121.129C245.279 120.765 245.778 120.726 245.969 121.064V121.064C246.651 122.272 247.977 123.359 249.594 124.035C251.332 124.762 252.057 124.803 251.147 124.123C250.534 123.664 249.404 120.429 249.746 120.113C249.948 119.927 252.309 121.699 255.004 124.06C257.554 126.293 259.156 127.025 261.498 127.025C264.49 127.025 266.232 124.484 264.887 122.081C264.103 120.681 262.357 120.486 261.336 121.686C260.866 122.237 260.737 122.676 260.875 123.255C261.043 123.964 260.978 124.058 260.316 124.058C259.446 124.058 257.732 122.973 254.688 120.494C250.045 116.714 244.405 113.511 240.332 112.341C237.718 111.59 232.134 111.297 229.477 111.771C226.601 112.284 223.2 113.89 221.347 115.609C218.063 118.655 218.011 122.708 221.208 126.399L221.387 126.605C221.823 127.109 221.87 127.84 221.504 128.396V128.396C220.602 129.763 220.679 131.603 221.695 132.958C222.143 133.555 222.594 134.043 222.698 134.042C222.803 134.042 222.917 133.658 222.952 133.19C223.042 132.004 223.564 131.21 224.459 130.895C225.265 130.612 225.786 130.746 229.478 132.184C233.361 133.696 239.748 133.8 246.539 132.461C249.868 131.805 253.794 131.844 255.521 132.55C258.687 133.844 259.421 137.211 257.094 139.766C256.086 140.873 255.115 141.323 251.853 142.197C249.37 142.862 248.782 142.905 243.14 142.851C238.32 142.804 236.587 142.894 234.62 143.295C232.484 143.73 231.17 143.774 224.895 143.62L218.673 143.467C218.338 143.458 218.183 143.88 218.444 144.091V144.091C218.887 144.449 219.512 144.889 219.833 145.069C220.38 145.375 220.362 145.416 219.549 145.71C219.071 145.883 218.01 146.025 217.191 146.025H216.953C216.232 146.025 215.618 146.548 215.502 147.259V147.259C215.392 147.938 215.401 148.731 215.521 149.02C215.699 149.448 215.632 149.509 215.171 149.346C214.858 149.235 213.986 149.016 213.233 148.86C212.481 148.705 211.468 148.387 210.982 148.155C210.165 147.765 210.075 147.775 209.774 148.295C209.506 148.758 206.984 150.589 206.614 150.589C206.554 150.589 206.477 150.236 206.443 149.805C206.408 149.373 206.045 148.25 205.635 147.308C205.224 146.367 204.796 145.34 204.683 145.026C204.512 144.553 204.435 144.528 204.229 144.883C204.092 145.119 203.892 145.761 203.785 146.31C203.678 146.859 203.298 147.751 202.941 148.292L202.808 148.494C202.58 148.84 202.061 148.808 201.878 148.435V148.435C201.433 147.532 200.695 146.595 200.428 146.595C200.337 146.595 200.184 146.884 200.086 147.237C199.882 147.974 198.132 150.018 197.704 150.018C197.547 150.018 197.418 149.441 197.418 148.735C197.418 148.028 197.279 147.451 197.109 147.451C196.939 147.451 196.8 147.633 196.8 147.857C196.8 148.4 195.305 150.018 194.804 150.018C194.585 150.018 194.233 150.211 194.022 150.446C193.47 151.06 193.02 150.974 193.251 150.299C193.36 149.983 193.289 149.244 193.094 148.658L192.634 147.273C192.56 147.051 192.024 147.11 190.89 147.464C189.058 148.038 188.444 147.936 189.386 147.216C189.731 146.953 190.255 146.041 190.551 145.19C190.846 144.338 191.283 143.583 191.521 143.511C191.854 143.411 191.836 143.535 191.444 144.053C191.164 144.422 190.933 144.921 190.932 145.16C190.931 145.4 190.72 145.968 190.464 146.423C190.207 146.878 190.046 147.295 190.105 147.35C190.164 147.405 190.861 147.146 191.654 146.776L192.549 146.357C192.805 146.238 193.098 146.422 193.101 146.705V146.705C193.104 147.036 193.278 147.912 193.487 148.649L193.574 148.956C193.729 149.502 194.331 149.783 194.848 149.551V149.551C195.851 149.101 196.8 147.499 196.8 146.256C196.8 145.642 197.161 145.736 197.308 146.389C197.352 146.58 197.578 147.3 197.811 147.987L197.902 148.255C198.049 148.687 198.611 148.795 198.907 148.447V148.447C199.276 148.013 199.74 147.162 199.936 146.556C200.278 145.503 200.813 145.05 200.813 145.815C200.813 146.366 202.354 148.341 202.651 148.172C202.795 148.09 203.081 147.348 203.287 146.524C203.715 144.81 204.406 143.644 204.845 143.895C205.011 143.989 205.075 144.172 204.988 144.301C204.902 144.431 205.256 145.545 205.777 146.778L206.938 149.536C207.128 149.993 207.299 149.926 208.415 148.965C209.109 148.367 209.739 147.698 209.815 147.478C209.929 147.145 210.084 147.157 210.733 147.55C211.641 148.1 214.692 148.985 214.927 148.767C215.016 148.685 215.106 147.904 215.128 147.03L215.146 146.335C215.158 145.868 215.588 145.525 216.046 145.618V145.618C216.529 145.716 217.544 145.71 218.301 145.604V145.604C218.783 145.538 218.928 144.91 218.523 144.64L218.451 144.592C217.776 144.14 217.093 143.555 216.934 143.292C216.764 143.012 216.163 142.774 215.483 142.718C213.643 142.565 210.383 140.781 210.383 139.927C210.383 139.767 210.835 140.039 211.387 140.533C212.611 141.628 214.312 142.315 215.797 142.315V142.315C216.251 142.315 216.507 141.794 216.23 141.434L216.221 141.422C215.826 140.91 215.472 139.938 215.389 139.138C215.256 137.863 215.118 137.66 213.754 136.734C212.934 136.178 211.919 135.345 211.498 134.883L211.454 134.835C211.121 134.469 210.521 134.58 210.341 135.04V135.04C210.126 135.589 209.864 136.039 209.758 136.039C209.651 136.039 209.238 135.718 208.84 135.325C208.441 134.933 208.034 134.614 207.937 134.615C207.839 134.617 207.486 135.146 207.152 135.79L206.923 136.231C206.751 136.562 206.288 136.592 206.075 136.285V136.285C205.817 135.914 205.207 135.257 204.72 134.826C204.233 134.394 203.977 134.041 204.151 134.041C204.325 134.041 204.926 134.491 205.487 135.04L205.906 135.45C206.209 135.748 206.712 135.677 206.921 135.307V135.307C207.168 134.873 207.26 134.206 207.148 133.667C206.986 132.88 207.009 132.835 207.318 133.328C207.514 133.642 208.111 134.243 208.643 134.665V134.665C209.151 135.067 209.898 134.919 210.215 134.354L210.28 134.237C210.945 133.049 210.95 133.046 211.252 133.756C211.657 134.705 214.585 137.048 217.078 138.416C217.463 138.627 217.301 137.902 216.591 136.234C216.403 135.792 216.249 134.996 216.249 134.464C216.249 133.676 216.016 133.325 214.982 132.557C213.49 131.449 213.007 130.661 212.726 128.874C212.612 128.149 212.351 127.344 212.146 127.084C211.842 126.698 211.791 126.914 211.873 128.258C211.927 129.164 211.807 130.29 211.604 130.761L211.539 130.911C211.427 131.172 211.056 131.167 210.951 130.903V130.903C210.795 130.511 210.102 129.829 209.413 129.387C208.723 128.946 208.239 128.511 208.337 128.42C208.435 128.329 209.145 128.732 209.914 129.314C211.086 130.201 211.343 130.297 211.506 129.907C211.697 129.447 211.506 127.45 211.137 126.054C210.953 125.357 210.969 125.36 211.851 126.22C212.501 126.854 212.86 127.611 213.139 128.93C213.493 130.607 213.671 130.886 215.26 132.247C216.214 133.065 217.044 133.687 217.105 133.631C217.166 133.575 217.286 131.461 217.372 128.932C217.538 124.084 217.351 122.931 216.154 121.433V121.433C215.802 120.992 215.829 120.358 216.218 119.949L216.506 119.646C217.767 118.319 218.346 117.255 218.597 115.804V115.804C218.663 115.422 218.206 115.173 217.921 115.437L217.71 115.631C216.817 116.457 216.391 116.639 215.356 116.639C214.332 116.639 213.932 116.472 213.241 115.754C212.413 114.893 210.945 114.065 209.534 113.661C209.013 113.512 208.839 113.577 208.839 113.921C208.839 114.174 208.551 114.901 208.199 115.539V115.539C207.877 116.124 207.087 116.243 206.606 115.779L206.219 115.405C205.396 114.612 204.42 113.994 203.694 113.808C201.839 113.332 201.739 113.38 201.739 114.728C201.739 116.774 200.844 117.155 199.233 115.795C198.004 114.759 196.986 114.533 194.657 114.783L193.709 114.885C193.284 114.93 193.02 115.372 193.182 115.768V115.768C193.453 116.43 193.392 116.708 192.812 117.46C191.873 118.679 190.652 119.207 188.772 119.207C187.906 119.207 186.822 119.382 186.364 119.595C185.905 119.809 184.766 120.055 183.832 120.143C182.898 120.23 181.903 120.385 181.62 120.488C181.178 120.65 181.129 120.517 181.272 119.535C181.49 118.033 180.414 116.925 178.738 116.925C176.563 116.925 175.56 118.823 176.412 121.326C176.596 121.882 176.755 122.445 176.888 123.015C176.99 123.479 177.97 124.709 179.17 125.88C180.326 127.01 181.419 128.184 181.599 128.491C181.778 128.798 182.371 129.29 182.917 129.585L182.991 129.625C183.375 129.833 183.833 129.519 183.778 129.086V129.086C183.634 127.948 183.888 127.77 184.509 128.573C184.731 128.86 185.294 129.324 185.761 129.604C186.497 130.045 186.61 130.054 186.61 129.671C186.61 129.428 186.76 128.867 186.944 128.426V128.426C187.077 128.106 187.522 128.085 187.684 128.391L187.855 128.715C188.173 129.316 189.207 130.682 190.153 131.75C191.989 133.824 193.107 136.14 192.53 136.673C192.296 136.89 191.663 136.873 190.351 136.616C189.334 136.416 188.077 136.311 187.557 136.382C186.494 136.526 186.41 136.392 187.064 135.593C187.753 134.751 187.644 134.612 186.289 134.612C184.721 134.612 180.829 133.878 179.334 133.302C177.882 132.741 177.547 132.88 177.119 134.225L176.336 136.661V136.661C176.131 137.293 176.64 137.928 177.301 137.866L177.475 137.85C178.339 137.769 179.451 137.584 179.945 137.44C180.44 137.295 180.889 137.218 180.944 137.269C180.999 137.319 180.779 137.841 180.454 138.429L180.348 138.623C180.157 138.968 180.458 139.379 180.845 139.302V139.302C181.384 139.195 182.195 138.933 182.647 138.719C183.434 138.348 183.497 138.375 184.118 139.347C184.881 140.542 185.491 140.493 185.626 139.225C185.766 137.915 186.208 138.109 187.039 139.845C187.838 141.515 188.67 142.104 188.83 141.115C188.883 140.786 189.313 140.251 189.786 139.926C190.743 139.268 191.464 139.466 191.878 140.498C192.306 141.567 191.351 142.669 188.575 144.311C183.013 147.601 179.78 152.099 178.858 157.833C178.025 163.005 180.625 168.349 185.841 172.188C188.337 174.025 192.302 175.964 192.05 175.224C190.98 172.082 191.015 166.088 192.11 165.077C192.274 164.925 192.217 165.55 191.984 166.467C191.115 169.88 191.492 172.599 193.72 178.973C195.735 184.738 195.456 187.202 192.605 188.83C191.689 189.353 191.099 189.44 188.637 189.411C185.965 189.379 185.673 189.431 184.816 190.098C183.984 190.745 182.906 192.868 182.906 193.859C182.906 194.395 183.516 194.324 184.716 193.648C184.717 193.648 184.717 193.648 184.718 193.648V193.648ZM228.089 193.532C228.089 193.532 228.089 193.532 228.089 193.532L228.332 193.379C228.85 193.055 229.521 193.117 229.97 193.532V193.532C230.967 194.453 232.134 194.432 233.092 193.477C233.51 193.06 233.885 192.771 233.926 192.835C234.066 193.063 234.204 193.292 234.341 193.522C234.577 193.919 235.064 194.119 235.943 194.179C237.002 194.252 237.287 194.152 237.707 193.559V193.559C237.989 193.162 238.531 193.053 238.944 193.312L239.312 193.543C242.333 195.437 243.942 193.45 242.593 189.493C241.906 187.481 242.284 186.35 244.496 183.789C245.429 182.709 246.193 181.556 246.194 181.227C246.194 180.703 246.021 180.633 244.78 180.657C243.591 180.68 243.244 180.555 242.619 179.884C241.601 178.791 241.662 177.54 242.799 176.151V176.151C243.285 175.558 243.151 174.674 242.512 174.251L242.095 173.975C241.209 173.388 239.611 172 238.543 170.889C236.146 168.396 233.789 167.214 230.681 166.945L230.131 166.898C229.307 166.827 228.599 167.477 228.601 168.305V168.305C228.605 170.286 229.558 172.192 232.159 175.42C235.116 179.091 235.323 179.659 235.443 184.457L235.515 187.348C235.534 188.089 235.232 188.803 234.688 189.306V189.306C233.915 190.022 233.566 190.114 231.071 190.254C228.695 190.388 228.196 190.507 227.499 191.11C226.573 191.91 226.296 192.346 226.01 193.451C225.843 194.095 225.911 194.235 226.387 194.235C226.706 194.235 227.471 193.919 228.088 193.533C228.088 193.533 228.088 193.532 228.089 193.532V193.532ZM165 181.794C165 181.794 165 181.794 165 181.793C165 181.281 165.235 181.144 166.39 180.984L166.617 180.953C167.051 180.892 167.199 180.339 166.853 180.07V180.07C165.752 179.214 165.65 178.545 166.621 178.543C167.588 178.543 169.225 177.563 169.474 176.839C169.59 176.502 169.517 176.052 169.31 175.82C168.768 175.217 167.748 175.308 167.559 175.977C167.356 176.696 167.015 176.698 166.243 175.984C165.081 174.91 165.055 172.688 166.189 171.394C166.723 170.784 166.718 170.744 166.037 170.114C165.304 169.437 164.781 168.096 165.125 167.778C165.235 167.677 165.814 167.758 166.412 167.957C167.262 168.241 167.598 168.246 167.948 167.977C169.009 167.164 167.859 166.118 166.158 166.348C165.473 166.441 165.19 166.348 165.092 166.002C165.018 165.739 164.419 165.396 163.744 165.229C162.538 164.932 162.53 164.936 162.53 165.746C162.53 166.634 162.01 166.802 161.023 166.232C160.22 165.769 159.442 166.129 159.442 166.962C159.442 167.74 160.244 168.123 161.68 168.033C162.782 167.964 162.823 168.763 161.777 169.913L161.715 169.98C161.312 170.423 161.272 171.087 161.62 171.575V171.575C162.504 172.813 162.429 174.868 161.464 175.889L161.265 176.1C160.973 176.41 160.473 176.385 160.212 176.048V176.048C159.523 175.156 158.579 175.216 158.321 176.168C158.152 176.791 158.292 177.076 159.092 177.737C159.629 178.181 160.414 178.544 160.836 178.544C161.88 178.544 161.84 179.345 160.754 180.154V180.154C160.44 180.389 160.564 180.887 160.953 180.946L161.217 180.986C161.939 181.096 162.529 181.301 162.529 181.443C162.529 181.987 162.869 183.638 163.731 183.68C164.5 183.716 164.981 182.575 164.999 181.795C164.999 181.795 164.999 181.795 165 181.794V181.794ZM181.604 175.82C181.604 175.82 181.604 175.82 181.605 175.82C182.797 175.361 185.376 173.23 185.376 172.703C185.376 172.538 184.664 171.773 183.794 171.005C181.962 169.388 179.97 166.665 179.454 165.073C179.185 164.243 177.884 162.822 174.22 159.355L170.396 155.736C169.741 155.116 168.816 154.872 167.94 155.089V155.089C167.167 155.28 166.225 155.441 165.845 155.446C165.191 155.456 165.203 155.493 166.072 156.149V156.149C166.631 156.572 167.385 156.628 168.001 156.295L168.277 156.146C169.523 155.47 169.568 155.466 169.722 156.01C169.812 156.328 169.618 156.879 169.273 157.284C168.939 157.677 168.748 158.122 168.85 158.274C168.951 158.426 168.63 158.743 168.136 158.979C167.221 159.416 166.585 160.857 167.308 160.857C167.958 160.857 169.391 159.131 169.226 158.548C169.141 158.249 169.182 157.941 169.317 157.865C169.875 157.546 169.84 158.9 169.273 159.567C168.938 159.959 168.748 160.405 168.849 160.557C168.951 160.708 168.63 161.025 168.136 161.262C167.226 161.696 166.585 163.139 167.301 163.139C168.003 163.139 169.412 161.491 169.238 160.874C169.146 160.551 169.182 160.224 169.316 160.147C169.692 159.932 169.895 161.002 169.578 161.526C169.408 161.806 169.409 162.19 169.582 162.493C169.894 163.044 169.577 164.101 169.002 164.429C168.755 164.57 168.922 164.847 169.52 165.287C170.386 165.925 170.403 165.992 170.403 168.807C170.403 171.159 170.5 171.766 170.943 172.176C171.44 172.635 171.483 172.637 171.483 172.196C171.483 171.715 172.349 171.127 173.058 171.127C173.266 171.127 174.572 172.206 175.958 173.526C177.353 174.853 178.813 175.982 179.226 176.054L180.215 176.223C180.348 176.244 180.973 176.063 181.604 175.82C181.604 175.82 181.604 175.82 181.604 175.82V175.82ZM166.698 164.44C166.698 164.44 166.698 164.44 166.698 164.44C166.698 163.682 165.095 162.872 163.178 162.662C161.63 162.493 161.604 162.502 161.604 163.257C161.604 163.882 161.848 164.127 162.916 164.581C164.633 165.311 166.698 165.234 166.698 164.44C166.698 164.44 166.698 164.44 166.698 164.44V164.44ZM168.456 164.37C169.238 163.678 169.608 162.854 169.138 162.854C168.597 162.854 167.161 164.112 167.161 164.586C167.161 165.325 167.427 165.281 168.456 164.37ZM166.789 162.128C166.789 162.128 166.789 162.128 166.789 162.128C166.855 161.7 166.584 161.414 165.771 161.056C164.017 160.283 161.921 159.925 161.416 160.312C160.486 161.026 161.105 161.983 162.608 162.156C163.214 162.225 164.034 162.405 164.432 162.556C165.587 162.993 166.686 162.794 166.789 162.128C166.789 162.128 166.789 162.128 166.789 162.128V162.128ZM166.789 159.836C166.789 159.836 166.789 159.836 166.789 159.836C166.883 159.226 166.483 159.007 163.218 157.886C160.78 157.049 159.701 157.444 160.48 158.888C160.751 159.391 161.207 159.621 162.229 159.77C162.988 159.881 164.027 160.098 164.536 160.252C165.897 160.665 166.683 160.52 166.789 159.837C166.789 159.837 166.789 159.837 166.789 159.836V159.836ZM168.425 157.689C168.917 157.202 169.32 156.627 169.32 156.411C169.32 155.712 167.375 156.949 167.126 157.806C166.829 158.834 167.311 158.79 168.425 157.689ZM166.789 157.545C166.789 157.545 166.789 157.545 166.789 157.545C166.896 156.85 165.711 156.222 163.381 155.739C161.671 155.385 160.917 155.586 161.045 156.361C161.115 156.785 161.685 157.094 163.3 157.586C165.885 158.373 166.663 158.364 166.789 157.545C166.789 157.545 166.789 157.545 166.789 157.545V157.545ZM169.068 154.309C169.068 154.309 169.068 154.309 169.069 154.309C172.055 153.012 172.313 149.742 169.497 148.883C168.328 148.526 167.582 148.719 167.134 149.491C166.791 150.083 167.021 151.159 167.489 151.159C167.648 151.159 167.777 151.358 167.777 151.601C167.777 152.737 163.218 153.251 161.348 152.327C160.692 152.002 160.405 151.159 160.952 151.159C161.361 151.159 161.643 150.3 161.434 149.692C161.15 148.864 160.295 148.577 159.054 148.893C156.255 149.608 156.334 152.817 159.184 154.178C161.52 155.295 166.643 155.363 169.068 154.309C169.069 154.309 169.069 154.309 169.068 154.309V154.309ZM167.211 151.795C167.211 151.795 167.211 151.794 167.212 151.794C167.384 151.634 167.309 151.389 167.019 151.167C166.384 150.68 166.418 149.956 167.114 149.127C167.637 148.505 167.702 147.573 167.882 138.176C168.193 121.983 169.427 109.803 171.053 106.882C171.701 105.718 171.61 105.714 169.937 106.825C167.781 108.256 166.14 110.119 164.685 112.787C161.94 117.823 160.985 124.6 160.985 139.064C160.985 147.277 161.043 148.351 161.522 149.124C161.978 149.857 162.002 150.128 161.682 150.911C161.474 151.418 161.381 151.904 161.473 151.989C162.086 152.555 166.549 152.405 167.21 151.796C167.211 151.796 167.211 151.796 167.211 151.795V151.795ZM192.3 136.353C192.3 136.353 192.3 136.353 192.3 136.353C192.393 136.212 192.186 135.507 191.841 134.784C191.301 133.656 191.084 133.469 190.315 133.469C187.906 133.469 184.035 132.419 180.043 130.683C177.738 129.681 176.942 129.45 176.666 129.706C175.96 130.357 177.132 131.904 178.948 132.717C180.558 133.439 185.06 134.325 187.113 134.325C188.304 134.325 188.333 134.377 187.654 135.334V135.334C187.442 135.633 187.65 136.049 188.018 136.058L188.503 136.071C189.245 136.089 190.268 136.202 190.777 136.322C192.1 136.633 192.113 136.633 192.3 136.353C192.3 136.353 192.3 136.353 192.3 136.353V136.353Z" fill="#FFBE29"/>
<path d="M206.369 143.651C206.369 143.232 205.109 142.098 203.832 141.367C202.83 140.793 202.664 140.776 202.662 141.244C202.659 141.954 202.011 143.74 201.757 143.74C201.613 143.74 201.401 143.391 201.285 142.965C201.169 142.538 200.683 141.698 200.205 141.097L199.336 140.004L198.659 141.017C198.028 141.96 196.935 142.884 196.45 142.884C196.334 142.884 196.312 142.387 196.4 141.78C196.496 141.12 196.422 140.597 196.216 140.479C196.027 140.371 195.872 140.409 195.872 140.563C195.872 140.918 194.354 142.599 194.033 142.599C193.9 142.599 193.715 142.117 193.621 141.529L193.265 139.461C193.164 138.911 193.38 139.284 193.746 140.288L194.411 142.114L195.14 141.001C195.541 140.389 195.869 139.721 195.87 139.515C195.871 139.31 196.007 139.219 196.172 139.313C196.337 139.407 196.566 140.143 196.682 140.948L196.892 142.412L197.694 141.553C198.135 141.081 198.652 140.45 198.843 140.149C199.183 139.613 199.202 139.614 199.879 140.174C200.258 140.488 200.841 141.238 201.175 141.842C201.508 142.445 201.825 142.895 201.88 142.84C201.934 142.786 202.056 142.164 202.151 141.458L202.339 140.116C202.387 139.941 204.756 141.443 205.632 142.204C206.196 142.693 206.731 143.025 206.821 142.941C206.912 142.857 206.986 142.136 206.986 141.338C206.986 140.101 206.852 139.769 206.076 139.093C205.185 138.316 205.16 138.311 204.831 138.88C204.403 139.618 203.899 139.629 203.899 138.9C203.899 138.368 202.214 136.322 201.776 136.322C201.662 136.322 201.308 136.772 200.988 137.321C200.668 137.87 200.323 138.319 200.223 138.318C199.791 138.316 197.416 135.732 197.417 135.266C197.417 134.895 197.577 134.989 197.993 135.609C198.31 136.08 198.942 136.782 199.398 137.171C200.321 137.957 200.657 137.765 201.013 136.251C201.115 135.819 201.291 135.466 201.405 135.466C201.8 135.466 203.867 137.609 204.158 138.319L204.45 139.032L204.671 138.248C204.941 137.288 205.24 137.253 205.671 138.128C205.852 138.494 206.742 139.254 207.65 139.818L209.302 140.842L209.633 139.812C209.816 139.245 210.057 138.919 210.17 139.088C210.338 139.34 209.909 141.047 209.585 141.415C209.536 141.47 209.001 141.165 208.396 140.739L207.295 139.963L207.291 141.352C207.288 142.116 207.203 143.03 207.1 143.383C206.9 144.073 206.369 144.267 206.369 143.65V143.651ZM198.136 132.578C196.174 130.979 195.876 130.613 195.919 129.855L195.965 129.049L196.093 129.828C196.168 130.283 196.691 130.964 197.35 131.466L198.478 132.325L199.171 131.543C199.552 131.113 199.869 130.6 199.875 130.404C199.891 129.893 199.986 129.936 201.314 131.061C202.495 132.06 202.513 132.065 202.689 131.417C202.786 131.056 202.752 130.377 202.611 129.907C202.226 128.616 202.301 128.421 202.886 129.2C203.177 129.588 203.645 130.136 203.926 130.418C204.416 130.91 204.446 130.904 204.628 130.276C204.732 129.915 204.82 129.255 204.822 128.808L204.826 127.997L205.891 129.174C206.885 130.274 206.976 130.314 207.28 129.79C207.459 129.482 207.607 128.74 207.609 128.141C207.613 127.367 207.696 127.172 207.898 127.467C208.235 127.958 208.001 129.297 207.379 130.438L206.933 131.257L206.347 130.367C205.598 129.229 205.349 129.247 204.868 130.476C204.414 131.636 204.119 131.725 203.676 130.832C203.39 130.255 203.335 130.325 203.132 131.539L202.906 132.887L201.552 131.862L200.198 130.837L199.589 131.512C199.255 131.883 198.976 132.348 198.97 132.544C198.958 132.969 198.632 132.982 198.136 132.578H198.136ZM215.593 126.622C214.879 125.995 214.387 125.395 214.499 125.291C214.612 125.187 214.739 125.157 214.782 125.225C214.825 125.293 215.408 125.892 216.079 126.556C217.625 128.086 217.307 128.129 215.593 126.622ZM192.34 124.278C191.69 123.42 191.735 122.852 192.526 121.923C193.098 121.252 193.359 121.161 194.357 121.284C194.997 121.364 196.375 121.916 197.418 122.511C198.624 123.198 199.871 123.659 200.836 123.774C201.672 123.873 202.356 123.91 202.356 123.857C202.356 123.803 202.009 123.251 201.585 122.63C200.577 121.154 200.611 120.996 201.748 121.88C202.915 122.787 204.311 123.053 207.431 122.96L208.955 122.915L208.071 122.062C206.834 120.869 207.215 120.762 208.581 121.919C209.862 123.004 209.781 123.08 207.086 123.342C205.94 123.454 204.708 123.373 203.684 123.119C202.152 122.739 202.093 122.745 202.383 123.246C202.55 123.535 202.821 123.771 202.985 123.771C203.149 123.771 203.283 123.917 203.283 124.096C203.283 124.646 199.974 124.162 198.393 123.381C194.78 121.597 194.326 121.442 193.466 121.707C192.987 121.854 192.509 122.284 192.344 122.716C191.793 124.155 193.885 125.274 194.748 124.001C194.998 123.633 194.94 123.38 194.5 122.932C193.898 122.317 193.955 122.229 194.767 122.518C195.344 122.722 195.422 124.074 194.885 124.57C194.271 125.137 192.869 124.976 192.34 124.278ZM206.569 120.723C206.117 120.306 206.471 120.203 208.497 120.167C211.002 120.121 212.523 119.714 214.319 118.608C215.757 117.722 216.147 117.896 214.782 118.815C213.536 119.653 211.594 120.297 209.718 120.494C208.81 120.59 207.775 120.722 207.418 120.788C207.061 120.854 206.679 120.825 206.569 120.723V120.723Z" fill="black"/>
</g>
<defs>
<clipPath id="clip0_1322_449">
<rect width="300" height="300" fill="white"/>
</clipPath>
</defs>
</svg>
