<svg width="300" height="300" viewBox="0 0 300 300" fill="none" xmlns="http://www.w3.org/2000/svg">
<g clip-path="url(#clip0_118_1217)">
<rect width="300" height="300" fill="white"/>
<rect x="300" y="38" width="300" height="38" transform="rotate(-180 300 38)" fill="#EF4B4B"/>
<rect x="659" y="75" width="818" height="36.9999" transform="rotate(-180 659 75)" fill="white"/>
<rect x="300" y="114" width="300" height="39" transform="rotate(-180 300 114)" fill="#EF4B4B"/>
<rect x="659" y="151" width="818" height="36.9999" transform="rotate(-180 659 151)" fill="white"/>
<rect x="300" y="188" width="300" height="37" transform="rotate(-180 300 188)" fill="#EF4B4B"/>
<rect x="659" y="227" width="818" height="38.9999" transform="rotate(-180 659 227)" fill="white"/>
<rect x="300" y="263" width="300" height="36" transform="rotate(-180 300 263)" fill="#EF4B4B"/>
<rect x="659" y="300" width="818" height="36.9999" transform="rotate(-180 659 300)" fill="white"/>
<rect x="150" y="151" width="150" height="151" transform="rotate(-180 150 151)" fill="#4F60FF"/>
<path d="M68.7937 35.5623C70.5898 30.0345 78.4102 30.0344 80.2063 35.5623L86.287 54.2766C87.0902 56.7487 89.394 58.4225 91.9933 58.4225L111.671 58.4225C117.483 58.4225 119.9 65.8602 115.197 69.2766L99.2781 80.8427C97.1752 82.3705 96.2952 85.0788 97.0985 87.5509L103.179 106.265C104.975 111.793 98.6483 116.39 93.9461 112.973L78.0267 101.407C75.9238 99.8795 73.0762 99.8795 70.9733 101.407L55.054 112.973C50.3517 116.39 44.0248 111.793 45.8209 106.265L51.9015 87.5509C52.7048 85.0788 51.8248 82.3705 49.7219 80.8427L33.8026 69.2766C29.1003 65.8602 31.517 58.4225 37.3293 58.4225L57.0067 58.4225C59.606 58.4225 61.9098 56.7487 62.713 54.2766L68.7937 35.5623Z" fill="white"/>
</g>
<defs>
<clipPath id="clip0_118_1217">
<rect width="300" height="300" fill="white"/>
</clipPath>
</defs>
</svg>
