<svg width="300" height="300" viewBox="0 0 300 300" fill="none" xmlns="http://www.w3.org/2000/svg">
<g clip-path="url(#clip0_1322_360)">
<rect width="300" height="300" fill="white"/>
<rect x="300" y="90" width="300" height="90" transform="rotate(-180 300 90)" fill="#003EBA"/>
<rect x="300" y="300" width="300" height="90" transform="rotate(-180 300 300)" fill="#3B9644"/>
<path d="M149.5 105C150.141 104.999 150.769 105.172 151.316 105.499C151.481 105.598 151.636 105.71 151.781 105.833C152.411 106.367 153.095 106.9 153.905 107.061C160.438 108.361 163.938 113.341 165.207 119.076C166.711 125.882 165.261 135.024 160.679 144.695C160.268 145.561 160.361 146.588 160.944 147.349L178.754 170.577C179.289 171.276 180.238 171.513 181.03 171.128V171.128C181.987 170.664 183.148 171.049 183.608 172.008L188.941 183.103C189.53 184.327 189.034 185.801 187.807 186.384C175.871 192.05 162.777 195 149.5 195C136.223 195 123.129 192.05 111.193 186.384C109.966 185.801 109.47 184.327 110.059 183.103L115.392 172.008C115.852 171.049 117.013 170.664 117.97 171.128V171.128C118.762 171.513 119.711 171.276 120.246 170.577L138.056 147.349C138.639 146.588 138.732 145.561 138.321 144.695C133.739 135.024 132.289 125.882 133.793 119.076C135.062 113.341 138.562 108.361 145.095 107.061C145.905 106.9 146.589 106.367 147.219 105.833C147.364 105.71 147.519 105.598 147.684 105.499C148.231 105.172 148.859 104.999 149.5 105ZM154.761 139.281C155.908 140.778 158.228 140.506 158.887 138.739C161.611 131.435 162.394 124.715 161.319 120.037C160.435 116.189 158.682 113.125 155.52 111.636C154.134 110.983 152.735 112.188 152.735 113.721V122.294C152.735 122.965 153.004 123.607 153.482 124.077L156.437 126.981C157.359 127.888 156.717 129.457 155.424 129.457V129.457C154.626 129.457 153.979 130.104 153.979 130.902V137.413C153.979 137.963 154.16 138.498 154.495 138.934L154.761 139.281ZM146.265 113.721C146.265 112.188 144.866 110.983 143.48 111.636C140.318 113.125 138.565 116.189 137.681 120.037C136.606 124.715 137.389 131.435 140.113 138.739C140.772 140.506 143.092 140.778 144.239 139.281L144.505 138.934C144.84 138.498 145.021 137.963 145.021 137.413V130.902C145.021 130.104 144.374 129.457 143.576 129.457V129.457C142.283 129.457 141.641 127.888 142.563 126.981L145.518 124.077C145.996 123.607 146.265 122.965 146.265 122.294V113.721ZM119.54 179.078C119.204 178.182 117.957 178.125 117.541 178.988V178.988C117.139 179.824 117.901 180.748 118.799 180.511V180.511C119.421 180.347 119.765 179.681 119.54 179.078V179.078ZM119.777 182.281C118.848 182.526 118.756 183.794 119.654 184.136C119.673 184.143 119.692 184.151 119.711 184.158C120.501 184.459 121.262 183.687 120.966 182.895V182.895C120.786 182.416 120.272 182.151 119.777 182.281V182.281ZM124.068 180.557C124.449 181.575 125.558 182.118 126.596 181.796L127.096 181.64C128.219 181.291 128.783 180.035 128.296 178.963V178.963C128.062 178.448 127.616 178.06 127.076 177.892C126.974 177.86 126.872 177.828 126.77 177.796C125.085 177.263 123.449 178.902 124.068 180.557V180.557ZM130.735 184.348C130.33 183.453 129.321 183 128.382 183.292L126.903 183.753C126.106 184.001 125.682 184.867 125.975 185.648V185.648C126.136 186.078 126.491 186.408 126.933 186.531C127.481 186.684 128.031 186.831 128.582 186.973C130.126 187.37 131.393 185.8 130.735 184.348V184.348ZM134.208 182.991C134.642 183.948 135.753 184.393 136.727 184L138.314 183.36C139.162 183.019 139.524 182.017 139.091 181.212V181.212C138.861 180.784 138.441 180.492 137.961 180.418C137.459 180.34 136.957 180.257 136.457 180.169C134.858 179.887 133.538 181.512 134.208 182.991V182.991ZM141.719 186.089C141.218 185.16 140.1 184.756 139.122 185.15L137.241 185.906C136.451 186.224 136.085 187.136 136.436 187.911V187.911C136.644 188.373 137.072 188.698 137.573 188.77C138.299 188.874 139.026 188.969 139.755 189.054C141.377 189.243 142.494 187.527 141.719 186.089V186.089ZM144.904 184.168C145.401 185.091 146.545 185.446 147.478 184.967L150.964 183.175C151.485 182.908 151.662 182.25 151.346 181.757V181.757C151.16 181.465 150.835 181.292 150.489 181.297C149.247 181.314 148.005 181.299 146.764 181.255C145.237 181.199 144.18 182.823 144.904 184.168V184.168ZM154.141 186.101C153.497 185.1 152.198 184.751 151.139 185.295L148.046 186.884C147.324 187.255 147.048 188.145 147.433 188.859V188.859C147.681 189.319 148.157 189.61 148.679 189.615C149.911 189.628 151.144 189.612 152.375 189.57C154.122 189.511 155.087 187.571 154.141 186.101V186.101ZM157.082 183.811C157.671 184.727 158.898 184.979 159.8 184.37L161.749 183.054C162.421 182.6 162.579 181.679 162.097 181.028V181.028C161.78 180.6 161.251 180.386 160.725 180.465C160.004 180.573 159.282 180.671 158.559 180.758C157.101 180.934 156.288 182.576 157.082 183.811V183.811ZM165.272 185.31C164.647 184.467 163.469 184.266 162.599 184.854L160.284 186.418C159.693 186.817 159.529 187.614 159.915 188.214V188.214C160.189 188.641 160.685 188.872 161.187 188.802C162.159 188.666 163.129 188.513 164.096 188.343C165.502 188.096 166.123 186.456 165.272 185.31V185.31ZM167.4 181.953C168.069 182.854 169.364 182.994 170.21 182.256L171.507 181.125C172.146 180.568 172.221 179.601 171.676 178.952V178.952C171.277 178.477 170.634 178.286 170.037 178.455C169.533 178.598 169.027 178.735 168.52 178.868C167.168 179.221 166.567 180.832 167.4 181.953V181.953ZM175.115 183.036C174.463 182.263 173.304 182.173 172.542 182.838L170.688 184.456C170.197 184.884 170.118 185.617 170.505 186.14V186.14C170.81 186.551 171.335 186.736 171.828 186.599C172.658 186.37 173.485 186.127 174.308 185.872C175.521 185.496 175.933 184.008 175.115 183.036V183.036ZM176.575 179.018C177.333 179.919 178.719 179.919 179.479 179.02L180.039 178.355C180.471 177.844 180.562 177.126 180.272 176.522V176.522C179.876 175.699 178.9 175.337 178.055 175.684C177.828 175.777 177.6 175.869 177.373 175.959C176.142 176.449 175.722 178.004 176.575 179.018V179.018ZM182.582 181.323C182.164 180.452 180.986 180.301 180.362 181.04L179.959 181.516C179.589 181.954 179.588 182.596 179.958 183.035V183.035C180.284 183.423 180.823 183.559 181.293 183.367C181.5 183.283 181.706 183.197 181.911 183.111C182.607 182.819 182.909 182.003 182.582 181.323V181.323Z" fill="black"/>
</g>
<defs>
<clipPath id="clip0_1322_360">
<rect width="300" height="300" fill="white"/>
</clipPath>
</defs>
</svg>
