<svg width="300" height="300" viewBox="0 0 300 300" fill="none" xmlns="http://www.w3.org/2000/svg">
<g clip-path="url(#clip0)">
<rect width="300" height="300" fill="white"/>
<rect x="300" y="300" width="300" height="300" transform="rotate(-180 300 300)" fill="#EF4B4B"/>
<path d="M145.984 177.762L148.923 181.807L145.984 177.762L121.006 195.91L130.546 166.546L125.791 165.001L130.546 166.546C131.35 164.074 130.47 161.366 128.367 159.838L103.388 141.69L134.263 141.69C136.863 141.69 139.166 140.016 139.97 137.544L135.214 135.999L139.97 137.544L149.511 108.18L159.051 137.544C159.855 140.016 162.158 141.69 164.758 141.69L195.633 141.69L170.654 159.838C168.551 161.366 167.671 164.074 168.475 166.546L178.016 195.91L153.037 177.762L150.098 181.807L153.037 177.762C150.934 176.234 148.087 176.234 145.984 177.762Z" stroke="#18842F" stroke-width="10"/>
<path d="M160.399 141.69L167.128 162.4L149.511 175.2L131.893 162.4L138.623 141.69H160.399Z" stroke="#18842F" stroke-width="10"/>
</g>
<defs>
<clipPath id="clip0">
<rect width="300" height="300" fill="white"/>
</clipPath>
</defs>
</svg>
