<svg width="300" height="300" viewBox="0 0 300 300" fill="none" xmlns="http://www.w3.org/2000/svg">
<g clip-path="url(#clip0_114_36)">
<rect width="300" height="300" fill="#EF4B4B"/>
<rect x="300" y="300" width="300" height="300" transform="rotate(-180 300 300)" fill="#EF4B4B"/>
<path d="M152.364 116.961L157.48 132.707C159.22 138.064 164.212 141.69 169.844 141.69H186.4C189.306 141.69 190.514 145.409 188.163 147.117L174.769 156.848C170.212 160.159 168.306 166.027 170.046 171.383L175.162 187.129C176.06 189.893 172.897 192.191 170.546 190.483L157.152 180.751C152.595 177.441 146.426 177.441 141.869 180.751L128.475 190.483C126.124 192.191 122.961 189.893 123.859 187.129L128.975 171.383C130.715 166.027 128.809 160.159 124.252 156.848L110.858 147.117C108.507 145.409 109.715 141.69 112.621 141.69H129.178C134.809 141.69 139.801 138.064 141.541 132.707L146.657 116.961C147.555 114.198 151.466 114.198 152.364 116.961Z" stroke="#18842F" stroke-width="10"/>
<path d="M161.072 143.763L166.454 160.327C166.856 161.563 166.416 162.917 165.364 163.681L151.274 173.918L154.213 177.964L151.274 173.918C150.222 174.682 148.799 174.682 147.747 173.918L145.007 177.69L147.747 173.918L133.657 163.681C132.605 162.917 132.165 161.563 132.567 160.327L137.949 143.763C138.351 142.527 139.503 141.69 140.802 141.69H158.219C159.519 141.69 160.67 142.527 161.072 143.763Z" stroke="#18842F" stroke-width="10"/>
</g>
<defs>
<clipPath id="clip0_114_36">
<rect width="300" height="300" fill="white"/>
</clipPath>
</defs>
</svg>
