<svg width="300" height="300" viewBox="0 0 300 300" fill="none" xmlns="http://www.w3.org/2000/svg">
<g clip-path="url(#clip0_1118_2)">
<rect width="300" height="300" fill="white"/>
<rect width="100" height="300" fill="#003EBA"/>
<rect x="100" width="100" height="300" fill="#FFB84F"/>
<rect x="200" width="100" height="300" fill="#EF4B4B"/>
<g clip-path="url(#clip1_1118_2)">
<path d="M159.571 104.873C161.718 104.485 162.484 101.41 161.295 99.5801V99.5801C158.875 95.6858 157.854 90.9049 157.854 86.0464C157.854 83.9927 160.148 81.6808 160.148 80.0199C160.16 78.9936 160.117 77.9676 160.02 76.9463C159.975 76.4699 160.497 76.2032 160.888 76.4795V76.4795C161.423 76.8579 162.098 76.4102 162.015 75.7604C161.923 75.0466 161.769 74.2504 161.512 73.6307C161.275 73.06 160.675 72.6388 161.248 72.406V72.406C161.85 72.1611 162.924 71.4482 162.478 70.9758C161.964 70.4325 161.314 69.9206 160.814 69.5572C160.391 69.25 160.261 68.6274 160.731 68.3977V68.3977V68.3977C161.206 68.1639 161.192 67.1596 160.688 66.9967C160.605 66.97 160.522 66.9427 160.439 66.9151C157.956 66.0824 155.527 65.0925 153.168 63.9514C150.152 62.434 146.822 61.6523 143.447 61.6697C142.09 61.6699 140.09 61.7072 138.918 62.4893C137.845 63.2036 137.932 64.1327 137.557 64.4588C136.672 65.2268 135.156 65.1997 134.426 65.1997C132.762 65.1997 131.662 65.8291 130.936 66.6443C130.188 67.4836 131.747 68.437 132.871 68.437V68.437C136.422 68.437 139.112 70.3775 139.112 71.1085C139.112 71.4045 138.745 71.4593 138.723 71.4593C136.613 71.4593 133.524 70.3506 131.584 70.1019C131.289 70.0641 131.043 70.3017 131.043 70.5989V70.5989C131.043 70.8222 131.184 71.0207 131.394 71.096C135.428 72.5418 139.403 74.7266 139.403 83.5112C139.403 89.2036 138.723 95.0119 135.884 99.5805V99.5805C134.688 101.408 135.452 104.487 137.602 104.875L148.046 106.764C148.399 106.827 148.761 106.827 149.114 106.764L159.571 104.873Z" fill="black"/>
<path d="M149.149 102.391C148.833 101.068 147.512 100.244 146.185 100.544L132.497 103.638C131.99 103.753 131.463 103.736 130.969 103.576C129.577 103.126 126.853 102.178 124.822 101.044C121.251 99.0487 119.059 97.0617 115.603 96.2271C114.045 95.8507 112.768 94.5746 112.768 92.9712V91.7994C112.768 90.4499 113.072 89.1841 113.3 87.9204C113.541 86.5852 112.667 85.2717 111.621 84.4073C109.032 82.2676 104.982 77.8974 100.97 75.0825C100.038 74.4286 98.8023 74.457 97.8778 75.1217C90.2312 80.6191 84.5038 88.7453 84.4997 92.6147C84.4997 92.6175 84.4997 92.616 84.4997 92.6189C84.5 92.7116 84.7521 181.208 84.4997 212.048V212.048C84.4997 213.662 85.7574 214.732 86.8641 213.557C89.2111 211.065 91.6821 207.568 92.8463 205.357C92.9536 205.153 93.3071 205.232 93.3071 205.462V205.462C93.3071 205.615 93.4646 205.716 93.6013 205.648C97.6814 203.632 100.766 198.982 102.409 196.037C102.538 195.805 102.91 196.081 102.928 196.346V196.346C102.943 196.563 103.181 196.467 103.327 196.305C106.088 193.23 109.255 182.944 111.01 176.632C111.633 174.388 114.465 173.598 116.123 175.233L119.602 178.663C120.522 179.569 120.759 180.961 120.165 182.108C119.343 183.695 118.168 185.873 117.319 187.081C117.106 187.384 117.294 187.865 117.663 187.884V187.884C118.014 187.902 118.224 188.297 118.025 188.587C116.702 190.503 113.304 195.461 112.121 197.517C110.826 199.767 109.912 198.766 107.921 198.766C106.27 198.766 102.528 201.404 101.914 202.471C101.249 203.563 100.862 204.802 100.787 206.079C100.787 206.898 101.361 207.918 101.746 208.512C101.87 208.703 102.177 208.639 102.296 208.445V208.445C102.379 208.31 102.565 208.314 102.664 208.438C103.386 209.337 105.972 212.561 106.405 213.041C106.798 213.476 108.549 213.759 109.166 213.197C110.71 211.789 112.205 210.804 113.579 208.77C114.287 207.722 114.341 206.521 115.154 205.396C117.675 201.908 122.508 195.463 124.188 193.227C124.317 193.055 124.587 193.123 124.626 193.335V193.335C124.668 193.57 125.009 193.629 125.142 193.43C126.484 191.414 129.63 188.588 131.478 187.007C132.344 186.266 133.558 186.119 134.593 186.596L137.298 187.845C138.778 188.528 139.44 190.255 138.749 191.731C135.947 197.715 128.66 212.317 120.969 219.927C119.066 221.809 119.284 225.992 121.692 227.16C123.134 227.86 124.738 228.66 126.428 229.54C126.634 229.648 126.842 229.757 127.052 229.868C128.32 230.541 129.892 230.247 130.77 229.111C131.066 228.728 131.362 228.337 131.657 227.941C132.705 226.535 133.746 225.066 134.702 223.68C136.267 221.412 137.705 222.019 136.467 224.481C135.763 225.882 134.931 227.415 133.991 229.034C133.799 229.364 133.605 229.698 133.407 230.036C132.601 231.414 133.052 233.2 134.419 234.026V234.026C139.177 236.898 143.712 240.1 146.533 243.22C147.455 244.24 149.342 244.066 149.851 242.788V242.788C150.005 242.402 150.005 241.972 149.851 241.586L148.785 238.909C148.644 238.556 148.572 238.179 148.572 237.799V105.637C148.572 105.256 148.644 104.879 148.785 104.526L149.04 103.887C149.23 103.411 149.268 102.889 149.149 102.391V102.391Z" fill="black"/>
<path d="M150.21 235.115C149.418 236.69 147.24 237.034 145.83 235.976C144.066 234.653 141.846 233.257 139.401 231.883C137.93 231.056 137.373 229.205 138.095 227.679C141.238 221.035 143.397 212.912 144.342 206.762C144.775 203.939 142.781 203.711 141.736 206.37C140.894 208.512 139.914 210.705 138.87 212.456C136.381 216.63 133.396 221.253 130.419 225.032C129.602 226.068 128.188 226.387 126.963 225.897C126.83 225.844 126.697 225.791 126.563 225.738C124.303 224.849 123.649 221.637 125.215 219.78C132.052 211.676 138.344 197.958 140.807 192.251C141.438 190.788 140.772 189.113 139.327 188.441L133.102 185.547C131.881 184.98 130.434 185.295 129.538 186.299C128.745 187.189 127.768 188.257 126.946 189.075C126.351 189.668 125.519 189.658 125.305 188.846V188.846C125.101 188.074 124.126 187.509 123.417 187.876C123.373 187.898 123.329 187.921 123.284 187.942C122.777 188.189 122.281 187.817 122.189 187.261C122.147 187.003 122.099 186.717 122.05 186.432C121.981 186.03 121.24 185.921 120.843 186.014V186.014C120.279 186.145 120.161 185.136 120.485 184.656C121.161 183.655 121.768 182.41 122.126 181.62C122.344 181.141 122.271 180.586 121.955 180.165L116.075 172.319C114.526 170.252 111.197 170.964 110.527 173.459C109.758 176.327 108.748 179.691 107.597 182.538C106.634 184.924 104.292 184.165 104.292 181.592V115.724C104.292 114.509 105.74 113.879 106.628 114.707V114.707C107.163 115.205 107.992 115.204 108.525 114.705L112.145 111.315C112.406 111.07 112.555 110.728 112.555 110.369V110.369C112.555 109.236 111.189 108.661 110.361 109.436V109.436C109.524 110.221 108.141 109.639 108.141 108.492V101.209C108.141 100.948 108.275 100.606 108.416 100.387V100.387C108.978 99.5131 110.248 99.5943 110.817 100.463C111.481 101.475 112.333 102.677 113.299 103.813C114.154 104.818 116.49 103.94 117.534 103.133V103.133C118.406 102.46 119.054 103.289 119.649 104.216C119.932 104.658 120.273 105.099 120.66 105.438C121.02 105.754 121.56 105.592 121.904 105.26C121.981 105.186 122.063 105.111 122.149 105.034C122.837 104.42 122.431 103.397 121.659 103.902V103.902C121.421 104.057 121.059 104.184 120.887 103.957C120.762 103.793 120.653 103.565 120.559 103.301C120.02 101.798 118.405 100.789 117.074 101.672C116.872 101.806 116.673 101.944 116.482 102.084C115.481 102.816 114.282 103.013 113.723 101.906C113.699 101.86 113.675 101.812 113.652 101.765C112.939 100.319 113.975 98.6632 115.587 98.6646V98.6646C116.801 98.6646 118.354 99.2413 119.98 100.01C121.768 100.854 123.638 101.923 125.308 102.682C126.704 103.316 128.568 103.62 129.956 103.766C130.495 103.823 130.686 104.525 130.224 104.807V104.807C129.711 105.12 129.927 105.889 130.523 105.819C132.312 105.609 134.758 105.153 136.74 104.164C137.192 103.89 137.637 103.607 138.075 103.313C138.793 102.832 139.663 103.503 139.216 104.242V104.242C138.82 104.897 139.312 105.773 140.057 105.598C141.862 105.173 143.266 104.442 144.317 103.693C145.446 102.89 147.325 103.181 148.08 104.342C148.124 104.409 148.168 104.475 148.212 104.541C148.436 104.873 148.815 105.061 149.215 105.061V105.061C149.913 105.061 150.478 105.626 150.478 106.323V233.983C150.478 234.376 150.386 234.764 150.21 235.115V235.115Z" fill="#B07F55"/>
<path d="M108.069 85.0441C109.095 85.7282 109.885 86.8363 109.934 88.0683L109.949 88.4445V91.3541C109.949 93.4152 108.067 94.4905 106.702 92.9465C106.082 92.2457 105.508 91.5097 105.036 90.8694C104.672 90.3744 104.486 89.773 104.486 89.1582V89.1276C104.502 88.6734 104.631 88.2357 104.857 87.8521C105.056 87.5127 104.959 87.0134 104.588 86.8811V86.8811C104.396 86.8126 104.179 86.8619 104.055 87.0233C103.625 87.5806 103.38 88.2621 103.359 88.9718V88.9718C103.359 89.3354 103.221 89.6856 102.974 89.9521L102.539 90.4204C101.215 91.8467 98.9046 91.6545 97.8345 90.0289L97.0682 88.8646C96.7458 88.3749 96.574 87.8015 96.574 87.2152V86.8659C96.574 86.2717 96.8959 85.6291 97.2758 85.0777C97.4944 84.7602 97.3751 84.308 97.0128 84.1764V84.1764C96.7861 84.0941 96.5307 84.1669 96.3923 84.3643C95.9068 85.0569 95.4655 85.9062 95.4655 86.7097V86.7097C95.4655 87.3601 95.2142 87.9842 94.7621 88.4518C94.5057 88.717 94.2132 89.0194 93.9119 89.3307C92.7962 90.4836 90.8834 90.1842 90.2081 88.7289V88.7289C89.8605 87.9796 89.9266 87.0717 90.44 86.4247C92.3315 84.0404 94.8764 81.5346 97.4633 79.4257C98.5732 78.5208 100.17 78.6161 101.244 79.5628C103.095 81.1938 105.973 83.6461 108.069 85.0441Z" fill="#B07F55"/>
<path d="M89.8288 92.5122C89.9793 92.7863 90.0583 93.094 90.0583 93.4067V98.2084C90.0583 98.5862 89.9013 98.9469 89.6248 99.2044V99.2044C88.7545 100.015 87.3364 99.3977 87.3364 98.2084V92.6184V92.6184C87.4392 91.2413 89.1053 91.1952 89.7701 92.4055L89.8288 92.5122Z" fill="#B07F55"/>
<path d="M98.2786 94.8014C98.4456 95.0562 98.5345 95.3542 98.5345 95.6589V98.1431C98.5345 98.5746 98.3563 98.987 98.042 99.2827V99.2827C97.0433 100.222 95.4048 99.5144 95.4048 98.1431V95.6589C95.4048 94.1041 97.4266 93.5008 98.2786 94.8014V94.8014Z" fill="#B07F55"/>
<path d="M94.296 98.1402C94.296 99.5092 92.6624 100.219 91.6621 99.2838V99.2838C91.3453 98.9878 91.1655 98.5737 91.1655 98.1402V95.1937C91.1655 94.7925 91.3196 94.4067 91.5959 94.1158V94.1158C92.5696 93.0906 94.296 93.7797 94.296 95.1937V98.1402Z" fill="#B07F55"/>
<path d="M107.086 96.2241C107.748 96.8608 108.109 98.0191 107.527 98.73C107.185 99.1479 106.792 99.5984 106.363 100.038C105.367 101.06 103.9 100.266 103.9 98.84V97.4358C103.9 95.9192 105.992 95.1734 107.086 96.2241V96.2241Z" fill="#B07F55"/>
<path d="M100.139 95.1013C101.133 94.1418 102.792 94.846 102.792 96.2273V98.1399C102.792 99.5089 101.158 100.218 100.158 99.2835V99.2835C99.8409 98.9875 99.6611 98.5734 99.6611 98.1399V96.2273C99.6611 95.8026 99.8337 95.3962 100.139 95.1013V95.1013Z" fill="#B07F55"/>
<path d="M87.7655 104.501C88.6345 103.685 90.0578 104.301 90.0578 105.493V108.391C90.0578 109.583 88.6344 110.199 87.7654 109.383V109.383C87.4914 109.126 87.3359 108.767 87.3359 108.391V105.493C87.3359 105.117 87.4914 104.758 87.7655 104.501V104.501Z" fill="#B07F55"/>
<path d="M93.7973 104.831C94.1141 105.127 94.2939 105.541 94.2939 105.974V107.91C94.2939 108.344 94.1141 108.758 93.7972 109.054V109.054C92.7967 109.989 91.1631 109.279 91.1631 107.91V105.974C91.1631 104.605 92.7968 103.896 93.7973 104.831V104.831Z" fill="#B07F55"/>
<path d="M95.8939 104.851C96.8926 103.911 98.5311 104.619 98.5311 105.991V107.895C98.5311 109.266 96.8925 109.974 95.8938 109.034V109.034C95.5796 108.739 95.4014 108.326 95.4014 107.895V105.991C95.4014 105.559 95.5796 105.147 95.8939 104.851V104.851Z" fill="#B07F55"/>
<path d="M102.297 104.85C102.611 105.146 102.79 105.559 102.79 105.991V107.894C102.79 108.326 102.611 108.738 102.297 109.034V109.034C101.298 109.974 99.6592 109.266 99.6592 107.894V105.991C99.6592 104.619 101.298 103.911 102.297 104.85V104.85Z" fill="#B07F55"/>
<path d="M107.027 107.913C107.027 109.285 105.388 109.993 104.389 109.053V109.053C104.075 108.757 103.896 108.345 103.896 107.913V106.234C103.896 105.796 104.059 105.442 104.407 105.176V105.176C105.368 104.443 107.027 104.928 107.027 106.136L107.027 107.913Z" fill="#B07F55"/>
<path d="M98.1433 114.697C98.6793 115.201 99.5137 115.202 100.051 114.701V114.701C100.944 113.868 102.401 114.501 102.401 115.722V188.084C102.401 188.146 102.403 188.207 102.407 188.268C102.436 188.745 102.576 191.011 102.704 193.036C102.758 193.89 102.446 194.726 101.845 195.336C101.567 195.618 101.257 195.932 100.929 196.265C99.0448 198.176 95.791 196.843 95.791 194.16V115.716C95.791 114.493 97.2515 113.86 98.1433 114.697V114.697Z" fill="#B07F55"/>
<path d="M93.9037 198.649C93.9037 199.973 92.5906 202.259 91.0484 204.275C89.6288 206.13 87.3325 205.065 87.3325 202.729V115.717C87.3325 114.509 88.7753 113.883 89.657 114.71V114.71C90.187 115.207 91.0145 115.205 91.5457 114.709V114.709C92.439 113.876 93.9037 114.502 93.9037 115.724V198.649Z" fill="#B07F55"/>
<path d="M121.354 190.439C121.354 190.439 121.354 190.439 121.354 190.439L122.53 189.63C123.115 189.228 123.868 189.296 124.003 189.993V189.993C124.055 190.262 124.043 190.798 123.882 191.019C122.364 193.099 116.987 200.456 114.238 204.168C113.939 204.572 113.66 205.231 113.434 205.869C113.112 206.779 111.828 207.2 111.828 206.235V206.235C111.828 206.179 111.828 206.122 111.829 206.064C111.838 205.472 110.968 204.997 110.388 205.118V205.118C110.051 205.188 109.777 204.893 109.941 204.59C110.059 204.371 110.229 204.146 110.421 203.913C111.206 202.964 110.291 202.082 109.061 202.162C108.439 202.203 107.786 202.249 107.065 202.472C105.016 203.105 104.446 203.968 103.818 203.935C103.448 203.915 103.113 203.275 103.254 202.882C103.499 202.201 106.032 200.317 107.803 199.976C108.227 199.895 111.564 200.704 112.236 199.664C114.878 195.574 119.092 189.053 119.85 187.88C119.906 187.794 119.992 187.74 120.092 187.714V187.714C120.372 187.642 120.695 187.834 120.714 188.122C120.761 188.832 120.907 189.936 121.354 190.439C121.354 190.439 121.354 190.439 121.354 190.439V190.439Z" fill="#D10429"/>
<path d="M105.854 203.796C105.854 203.796 105.854 203.796 105.854 203.796C105.987 203.942 105.978 204.168 105.834 204.303L104.745 205.258C104.589 205.38 104.364 205.354 104.24 205.199C104.107 205.054 104.115 204.827 104.26 204.692L105.348 203.737C105.418 203.676 105.51 203.648 105.601 203.659C105.699 203.672 105.789 203.721 105.854 203.796C105.854 203.796 105.854 203.796 105.854 203.796V203.796Z" fill="#D10429"/>
<path d="M107.506 204.946C107.829 205.287 107.814 205.826 107.475 206.149L107.467 206.156L104.823 208.476C104.422 208.775 103.855 208.691 103.557 208.289C103.291 207.93 103.325 207.431 103.637 207.112L106.281 204.81C106.413 204.699 106.576 204.63 106.748 204.615C107.039 204.599 107.32 204.722 107.506 204.946Z" fill="#D10429"/>
<path d="Mnan nanL109.022 206.741C109.344 207.081 109.33 207.619 108.991 207.942L108.983 207.95L106.32 210.271C105.951 210.567 105.412 210.508 105.117 210.138L105.114 210.134C104.788 209.784 104.806 209.235 105.153 208.906L107.797 206.605C107.922 206.494 108.078 206.426 108.244 206.41C108.541 206.393 108.828 206.515 109.022 206.741C109.022 206.741 109.022 206.741 109.022 206.741H109.022Lnan nanLnan nanZ" fill="#D10429"/>
<path d="M109.934 208.164C109.934 208.164 109.934 208.164 109.934 208.164C110.222 208.14 110.504 208.256 110.692 208.476C111.018 208.827 111 209.375 110.654 209.705L108.009 212.006C107.607 212.299 107.044 212.209 106.753 211.805C106.5 211.456 106.53 210.976 106.823 210.66L109.487 208.34C109.613 208.234 109.77 208.172 109.934 208.164C109.934 208.164 109.934 208.164 109.934 208.164V208.164Z" fill="#D10429"/>
<path d="M147.993 102.391C148.308 101.068 149.63 100.244 150.956 100.544L164.645 103.638C165.151 103.753 165.678 103.736 166.173 103.576C167.565 103.126 170.289 102.178 172.32 101.044C175.89 99.0487 178.082 97.0617 181.539 96.2271C183.097 95.8507 184.374 94.5746 184.374 92.9712V91.7994C184.374 90.4499 184.069 89.1841 183.841 87.9204C183.6 86.5852 184.475 85.2717 185.521 84.4073C188.109 82.2676 192.159 77.8974 196.171 75.0825C197.103 74.4286 198.339 74.457 199.264 75.1217C206.91 80.6191 212.638 88.7453 212.642 92.6147C212.642 92.6175 212.642 92.616 212.642 92.6189C212.642 92.7116 212.389 181.208 212.642 212.048V212.048C212.642 213.662 211.384 214.732 210.278 213.557C207.93 211.065 205.46 207.568 204.295 205.357C204.188 205.153 203.835 205.232 203.835 205.462V205.462C203.835 205.615 203.677 205.716 203.54 205.648C199.46 203.632 196.375 198.982 194.733 196.037C194.603 195.805 194.231 196.081 194.213 196.346V196.346C194.199 196.563 193.96 196.467 193.815 196.305C191.053 193.23 187.887 182.944 186.132 176.632C185.508 174.388 182.677 173.598 181.019 175.233L177.54 178.663C176.62 179.569 176.382 180.961 176.976 182.108C177.799 183.695 178.974 185.873 179.823 187.081C180.036 187.384 179.848 187.865 179.479 187.884V187.884C179.128 187.902 178.917 188.297 179.117 188.587C180.439 190.503 183.838 195.461 185.021 197.517C186.316 199.767 187.23 198.766 189.22 198.766C190.871 198.766 194.613 201.404 195.228 202.471C195.892 203.563 196.28 204.802 196.355 206.079C196.355 206.898 195.781 207.918 195.395 208.512C195.271 208.703 194.964 208.639 194.845 208.445V208.445C194.763 208.31 194.576 208.314 194.477 208.438C193.756 209.337 191.17 212.561 190.736 213.041C190.344 213.476 188.593 213.759 187.976 213.197C186.431 211.789 184.937 210.804 183.562 208.77C182.855 207.722 182.801 206.521 181.988 205.396C179.467 201.908 174.634 195.463 172.954 193.227C172.824 193.055 172.554 193.123 172.516 193.335V193.335C172.473 193.57 172.133 193.629 172 193.43C170.657 191.414 167.512 188.588 165.664 187.007C164.798 186.266 163.583 186.119 162.549 186.596L159.843 187.845C158.364 188.528 157.701 190.255 158.392 191.731C161.195 197.715 168.481 212.317 176.173 219.927C178.075 221.809 177.857 225.992 175.449 227.16C174.008 227.86 172.403 228.66 170.714 229.54C170.507 229.648 170.299 229.757 170.09 229.868C168.821 230.541 167.249 230.247 166.372 229.111C166.076 228.728 165.779 228.337 165.484 227.941C164.436 226.535 163.395 225.066 162.439 223.68C160.874 221.412 159.436 222.019 160.675 224.481C161.379 225.882 162.21 227.415 163.151 229.034C163.342 229.364 163.536 229.698 163.734 230.036C164.541 231.414 164.09 233.2 162.723 234.026V234.026C157.965 236.898 153.43 240.1 150.609 243.219C149.686 244.24 147.799 244.066 147.29 242.788V242.788C147.137 242.402 147.137 241.972 147.29 241.586L148.357 238.909C148.498 238.556 148.57 238.179 148.57 237.799V105.637C148.57 105.256 148.497 104.879 148.356 104.526L148.102 103.887C147.912 103.411 147.874 102.889 147.993 102.391V102.391Z" fill="black"/>
<path d="M146.932 235.115C147.723 236.69 149.902 237.034 151.311 235.976C153.076 234.653 155.296 233.257 157.741 231.883C159.212 231.056 159.769 229.205 159.047 227.679C155.904 221.035 153.744 212.912 152.8 206.762C152.366 203.939 154.361 203.711 155.406 206.37C156.248 208.512 157.228 210.705 158.272 212.456C160.76 216.63 163.746 221.253 166.723 225.032C167.54 226.068 168.953 226.387 170.179 225.897C170.312 225.844 170.445 225.791 170.579 225.738C172.839 224.849 173.492 221.637 171.926 219.78C165.09 211.676 158.798 197.958 156.335 192.251C155.704 190.788 156.37 189.113 157.815 188.441L164.04 185.547C165.26 184.98 166.708 185.295 167.604 186.299C168.397 187.189 169.374 188.257 170.196 189.075C170.791 189.668 171.623 189.658 171.837 188.846V188.846C172.041 188.074 173.015 187.509 173.724 187.876C173.769 187.898 173.813 187.921 173.857 187.942C174.365 188.189 174.861 187.817 174.953 187.261C174.995 187.003 175.043 186.717 175.092 186.432C175.16 186.03 175.902 185.921 176.299 186.014V186.014C176.863 186.145 176.981 185.136 176.657 184.656C175.981 183.655 175.374 182.41 175.016 181.62C174.798 181.141 174.871 180.586 175.187 180.165L181.066 172.319C182.616 170.252 185.945 170.964 186.615 173.459C187.384 176.327 188.394 179.691 189.544 182.538C190.508 184.924 192.85 184.165 192.85 181.592V115.724C192.85 114.509 191.402 113.879 190.513 114.707V114.707C189.979 115.205 189.15 115.204 188.617 114.705L184.997 111.315C184.735 111.07 184.587 110.728 184.587 110.369V110.369C184.587 109.236 185.953 108.661 186.781 109.436V109.436C187.618 110.221 189 109.639 189 108.492V101.209C189 100.948 188.867 100.606 188.725 100.387V100.387C188.164 99.5131 186.894 99.5944 186.324 100.463C185.661 101.475 184.809 102.677 183.843 103.813C182.988 104.818 180.652 103.94 179.607 103.133V103.133C178.736 102.46 178.088 103.289 177.493 104.216C177.209 104.658 176.869 105.099 176.482 105.438C176.122 105.754 175.582 105.592 175.237 105.26C175.161 105.186 175.079 105.111 174.993 105.034C174.305 104.42 174.711 103.397 175.483 103.902V103.902C175.721 104.057 176.083 104.184 176.255 103.957C176.38 103.793 176.488 103.565 176.583 103.301C177.122 101.798 178.736 100.789 180.067 101.672C180.27 101.806 180.469 101.944 180.66 102.084C181.661 102.816 182.86 103.013 183.419 101.906C183.443 101.86 183.466 101.812 183.49 101.765C184.203 100.319 183.167 98.6632 181.555 98.6646V98.6646C180.341 98.6646 178.788 99.2413 177.161 100.01C175.374 100.854 173.504 101.923 171.834 102.682C170.438 103.316 168.574 103.62 167.185 103.766C166.647 103.823 166.456 104.525 166.918 104.807V104.807C167.43 105.12 167.215 105.889 166.619 105.819C164.83 105.609 162.384 105.153 160.402 104.164C159.95 103.89 159.505 103.607 159.066 103.313C158.349 102.832 157.478 103.503 157.926 104.242V104.242C158.322 104.897 157.83 105.773 157.085 105.598C155.28 105.173 153.876 104.442 152.824 103.693C151.696 102.89 149.816 103.181 149.061 104.342C149.018 104.409 148.974 104.475 148.93 104.541C148.706 104.873 148.326 105.061 147.926 105.061V105.061C147.229 105.061 146.664 105.626 146.664 106.323V233.983C146.664 234.376 146.755 234.764 146.932 235.115V235.115Z" fill="#B07F55"/>
<path d="M187.29 86.0263C187.29 86.0264 187.29 86.0264 187.29 86.0264L187.193 88.4446V91.3541C187.193 93.4152 189.074 94.4905 190.44 92.9465C191.059 92.2457 191.633 91.5097 192.105 90.8695C192.47 90.3745 192.656 89.7731 192.656 89.1582V89.1276C192.64 88.6735 192.511 88.2357 192.285 87.8522C192.086 87.5127 192.183 87.0134 192.554 86.8811V86.8811C192.745 86.8126 192.963 86.862 193.087 87.0233C193.516 87.5806 193.762 88.2621 193.783 88.9718V88.9718C193.783 89.3354 193.921 89.6856 194.168 89.9521L194.603 90.4204C195.927 91.8468 198.237 91.6545 199.307 90.0289L200.074 88.8646C200.396 88.3749 200.568 87.8015 200.568 87.2152V86.866C200.568 86.2717 200.246 85.6291 199.866 85.0777C199.647 84.7602 199.767 84.308 200.129 84.1764V84.1764C200.356 84.0941 200.611 84.1669 200.749 84.3643C201.235 85.0569 201.676 85.9063 201.676 86.7098V86.7098C201.676 87.3601 201.928 87.9842 202.38 88.4518C202.636 88.717 202.929 89.0194 203.23 89.3307C204.346 90.4836 206.258 90.1842 206.934 88.7289V88.7289C207.281 87.9797 207.215 87.0717 206.702 86.4247C204.81 84.0404 202.265 81.5346 199.679 79.4257C198.569 78.5208 196.972 78.6161 195.898 79.5628C193.423 81.7434 189.113 85.3922 187.29 86.0263C187.29 86.0263 187.29 86.0263 187.29 86.0263V86.0263Z" fill="#B07F55"/>
<path d="M207.313 92.5122C207.162 92.7863 207.083 93.094 207.083 93.4067V98.2084C207.083 98.5862 207.24 98.9469 207.517 99.2044V99.2044C208.387 100.015 209.805 99.3977 209.805 98.2084V92.6184V92.6184C209.703 91.2413 208.036 91.1952 207.372 92.4055L207.313 92.5122Z" fill="#B07F55"/>
<path d="M198.863 94.8019C198.696 95.0567 198.607 95.3547 198.607 95.6594V98.1436C198.607 98.5751 198.785 98.9875 199.099 99.2832V99.2832C200.098 100.223 201.737 99.5149 201.737 98.1436V95.6594C201.737 94.1046 199.715 93.5013 198.863 94.8019V94.8019Z" fill="#B07F55"/>
<path d="M202.846 98.1402C202.846 99.5092 204.479 100.219 205.48 99.2838V99.2838C205.796 98.9878 205.976 98.5737 205.976 98.1402V95.1937C205.976 94.7925 205.822 94.4067 205.546 94.1158V94.1158C204.572 93.0905 202.846 93.7797 202.846 95.1937V98.1402Z" fill="#B07F55"/>
<path d="M190.056 96.2241C189.393 96.8608 189.033 98.0191 189.615 98.7301C189.957 99.1479 190.35 99.5984 190.779 100.038C191.775 101.06 193.241 100.266 193.241 98.8399V97.4357C193.241 95.9191 191.149 95.1733 190.056 96.2241V96.2241Z" fill="#B07F55"/>
<path d="M197.003 95.1013C196.009 94.1418 194.35 94.846 194.35 96.2273V98.1398C194.35 99.5089 195.984 100.218 196.984 99.2835V99.2835C197.301 98.9875 197.481 98.5734 197.481 98.1398V96.2273C197.481 95.8026 197.308 95.3962 197.003 95.1013V95.1013Z" fill="#B07F55"/>
<path d="M209.376 104.501C208.507 103.685 207.084 104.301 207.084 105.493V108.391C207.084 109.583 208.507 110.199 209.376 109.383V109.383C209.65 109.126 209.806 108.767 209.806 108.391V105.493C209.806 105.117 209.65 104.758 209.376 104.501V104.501Z" fill="#B07F55"/>
<path d="M203.345 104.831C203.028 105.127 202.848 105.541 202.848 105.974V107.91C202.848 108.344 203.028 108.758 203.345 109.054V109.054C204.345 109.989 205.979 109.279 205.979 107.91V105.974C205.979 104.605 204.345 103.896 203.345 104.831V104.831Z" fill="#B07F55"/>
<path d="M201.248 104.851C200.249 103.911 198.61 104.619 198.61 105.991V107.895C198.61 109.266 200.249 109.974 201.248 109.034V109.034C201.562 108.739 201.74 108.326 201.74 107.895V105.991C201.74 105.559 201.562 105.147 201.248 104.851V104.851Z" fill="#B07F55"/>
<path d="M194.845 104.85C194.53 105.146 194.352 105.559 194.352 105.991V107.894C194.352 108.326 194.53 108.738 194.845 109.034V109.034C195.844 109.974 197.483 109.266 197.483 107.894V105.991C197.483 104.619 195.844 103.911 194.845 104.85V104.85Z" fill="#B07F55"/>
<path d="M190.114 107.913C190.114 109.285 191.753 109.993 192.752 109.053V109.053C193.067 108.757 193.245 108.345 193.245 107.913V106.234C193.245 105.796 193.083 105.442 192.734 105.176V105.176C191.774 104.443 190.114 104.928 190.114 106.136L190.114 107.913Z" fill="#B07F55"/>
<path d="M198.998 114.697C198.462 115.201 197.628 115.202 197.09 114.701V114.701C196.197 113.868 194.74 114.501 194.74 115.722V188.084C194.74 188.146 194.739 188.207 194.735 188.268C194.705 188.745 194.566 191.011 194.437 193.036C194.383 193.89 194.695 194.726 195.296 195.336C195.574 195.618 195.884 195.932 196.213 196.265C198.097 198.176 201.35 196.843 201.35 194.16V115.716C201.35 114.493 199.89 113.86 198.998 114.697V114.697Z" fill="#B07F55"/>
<path d="M203.238 198.649C203.238 199.973 204.551 202.259 206.094 204.275C207.513 206.13 209.809 205.065 209.809 202.729V115.717C209.809 114.509 208.367 113.883 207.485 114.71V114.71C206.955 115.207 206.128 115.205 205.596 114.709V114.709C204.703 113.876 203.238 114.502 203.238 115.724V198.649Z" fill="#B07F55"/>
<path d="M175.787 190.439L174.611 189.63C174.027 189.228 173.273 189.296 173.138 189.993V189.993C173.086 190.262 173.099 190.798 173.26 191.019C174.778 193.099 180.155 200.456 182.903 204.168C183.202 204.572 183.482 205.231 183.707 205.869C184.029 206.779 185.314 207.2 185.314 206.235V206.235C185.314 206.179 185.313 206.122 185.313 206.064C185.304 205.472 186.174 204.997 186.753 205.118V205.118C187.09 205.188 187.364 204.893 187.201 204.59C187.082 204.371 186.913 204.146 186.721 203.913C185.936 202.964 186.851 202.082 188.08 202.162C188.703 202.203 189.355 202.249 190.077 202.472C192.125 203.105 192.696 203.968 193.324 203.935C193.694 203.915 194.029 203.275 193.887 202.882C193.643 202.201 191.11 200.317 189.339 199.976C188.915 199.895 185.578 200.704 184.906 199.664C182.263 195.574 178.05 189.053 177.292 187.88C177.236 187.794 177.149 187.74 177.049 187.714V187.714C176.77 187.642 176.446 187.834 176.427 188.122C176.38 188.832 176.235 189.936 175.787 190.439C175.787 190.439 175.787 190.439 175.787 190.439V190.439Z" fill="#D10429"/>
<path d="M191.288 203.796C191.288 203.796 191.288 203.796 191.288 203.796C191.154 203.942 191.163 204.168 191.308 204.303L192.396 205.258C192.552 205.38 192.777 205.354 192.901 205.199C193.035 205.054 193.026 204.827 192.882 204.692L191.793 203.737C191.724 203.676 191.632 203.648 191.54 203.659C191.442 203.672 191.352 203.721 191.288 203.796C191.288 203.796 191.288 203.796 191.288 203.796V203.796Z" fill="#D10429"/>
<path d="M189.636 204.946C189.313 205.287 189.327 205.826 189.667 206.149L189.675 206.156L192.319 208.476C192.72 208.775 193.287 208.691 193.585 208.289C193.851 207.93 193.817 207.431 193.505 207.112L190.861 204.81C190.729 204.699 190.566 204.63 190.394 204.615C190.103 204.599 189.822 204.722 189.636 204.946Z" fill="#D10429"/>
<path d="Mnan nanL188.12 206.741C187.798 207.081 187.812 207.619 188.151 207.942L188.159 207.95L190.822 210.271C191.191 210.567 191.73 210.508 192.025 210.138L192.028 210.134C192.353 209.784 192.336 209.235 191.988 208.906L189.345 206.605C189.22 206.494 189.063 206.426 188.897 206.41C188.601 206.393 188.314 206.515 188.12 206.741C188.12 206.741 188.12 206.741 188.12 206.741H188.12Lnan nanLnan nanZ" fill="#D10429"/>
<path d="M187.207 208.164C187.207 208.164 187.207 208.164 187.207 208.164C186.919 208.14 186.637 208.256 186.449 208.476C186.124 208.827 186.141 209.375 186.488 209.705L189.132 212.006C189.534 212.299 190.097 212.209 190.388 211.805C190.641 211.456 190.612 210.976 190.318 210.66L187.654 208.34C187.528 208.234 187.371 208.172 187.207 208.164C187.207 208.164 187.207 208.164 187.207 208.164V208.164Z" fill="#D10429"/>
<path d="M144.672 62.9184C144.672 62.9184 144.672 62.9184 144.672 62.9184C149.024 62.9184 152.084 64.9085 156.202 66.7404C156.886 67.0449 157.535 67.3127 158.144 67.5447C158.574 67.7085 158.679 68.3066 158.411 68.6808V68.6808C158.195 68.984 158.399 69.3928 158.745 69.5321C159.07 69.6633 159.469 69.865 159.847 70.1657C160.362 70.5754 160.284 71.2323 159.679 71.4908V71.4908C159.14 71.7211 159.258 72.5196 159.697 72.9075C159.972 73.1506 160.211 73.4699 160.381 73.825C160.631 74.3463 160.09 74.7747 159.539 74.6017V74.6017C158.92 74.4076 158.316 74.9479 158.413 75.5893C158.635 77.0557 158.754 78.5367 158.767 80.0212C158.767 81.5777 156.532 83.4093 156.532 86.0473C156.532 94.3267 158.611 97.5091 160.09 100.069V100.069C160.349 100.517 159.419 101.48 158.997 101.179C156.397 99.3245 154.685 97.2726 154.685 95.3301V85.8799C154.685 85.5739 154.437 85.3258 154.131 85.3258V85.3258C153.825 85.3258 153.577 85.5739 153.577 85.8799V95.3301C153.577 96.7964 153.85 97.6633 153.978 97.9893C154.018 98.0905 154.056 98.1788 154.089 98.2823V98.2823C154.675 100.102 152.522 101.897 151.485 100.291C151.156 99.7818 150.991 99.3586 150.991 99.0744V85.8795C150.991 85.5735 150.743 85.3254 150.436 85.3254V85.3254C150.13 85.3254 149.882 85.5735 149.882 85.8795V99.0674C149.882 99.2014 149.897 99.335 149.926 99.4658V99.4658C150.035 99.9504 149.945 100.461 149.655 100.864C149.624 100.907 149.593 100.949 149.562 100.991C149.036 101.705 148.126 101.702 147.606 100.984C147.578 100.945 147.55 100.905 147.522 100.866C147.234 100.461 147.144 99.9503 147.252 99.4656V99.4656C147.282 99.335 147.297 99.2015 147.297 99.0676V85.8795C147.297 85.5735 147.048 85.3254 146.742 85.3254V85.3254C146.436 85.3254 146.188 85.5735 146.188 85.8795V99.0744C146.188 99.3586 146.023 99.782 145.694 100.292C144.656 101.897 142.504 100.102 143.089 98.2829V98.2829C143.123 98.179 143.161 98.0903 143.201 97.9888C143.329 97.6623 143.602 96.7958 143.602 95.3301V85.8799C143.602 85.5739 143.354 85.3258 143.048 85.3258V85.3258C142.742 85.3258 142.494 85.5739 142.494 85.8799V95.3301C142.494 97.2715 140.786 99.3266 138.19 101.183C137.762 101.489 136.825 100.524 137.089 100.069V100.069C138.706 97.2695 140.705 93.7134 140.705 83.5898C140.705 79.7903 140.145 77.2072 139.169 75.3992C138.872 74.8027 138.473 73.2149 140.744 73.2149C141.079 73.2149 141.537 73.3845 142.022 73.6271C143.061 74.1475 144.065 73.3862 143.135 72.6884V72.6884C143.027 72.6028 142.931 72.5043 142.849 72.3958C142.495 71.9258 142.566 71.2525 142.917 70.7798C143.096 70.5383 143.321 70.3313 143.582 70.1723C143.898 70.0283 138.955 69.1643 138.955 66.9156C138.955 66.4475 139.249 66.1355 140.276 66.1355C141.623 66.1355 143.813 67.7541 145.76 67.7541C147.199 67.7541 147.766 67.4029 149.239 67.4029V67.4029C151.74 67.4029 152.268 66.9214 149.81 66.4619C149.488 66.4018 149.156 66.369 148.812 66.369C147.592 66.369 146.489 66.6421 145.351 66.6421C143.892 66.6421 142.456 65.2962 140.879 65.2962C139.823 65.2962 138.643 65.3553 138.468 65.0814C138.162 64.6033 138.438 64.326 138.721 63.9309C139.256 63.1854 140.759 62.9691 142.24 62.9173C142.685 62.9016 143.128 62.894 143.544 62.898C143.958 62.9024 144.341 62.9184 144.672 62.9184C144.672 62.9184 144.672 62.9184 144.672 62.9184V62.9184Z" fill="#B07F55"/>
<path d="M130.543 68.2714C130.543 68.2715 130.543 68.2714 130.543 68.2713C131.235 67.1508 132.471 66.4856 133.784 66.5264C134.436 66.5264 136.092 66.4961 137.112 66.4761C137.621 66.4661 137.985 66.5882 138.25 67.0221V67.0221C138.901 68.0848 137.891 68.9644 136.735 68.4994C135.701 68.0836 134.415 67.7927 132.842 67.7927C132.05 67.7804 131.265 67.9437 130.543 68.2709C130.543 68.271 130.543 68.2713 130.543 68.2714V68.2714Z" fill="#CC092F"/>
<path d="M139.509 72.047C139.509 72.047 139.51 72.0469 139.51 72.047C139.505 72.0519 138.741 72.8601 138.313 73.5189C138.165 73.7469 137.863 73.8648 137.629 73.7266V73.7266C137.135 73.4345 137.814 72.1375 138.388 72.1285C138.739 72.123 139.113 72.0979 139.509 72.047V72.047Z" fill="#D10429"/>
<path d="M137.648 68.7594C137.648 68.7594 137.649 68.7593 137.648 68.7593C137.643 68.7576 136.293 68.3226 136.293 67.8671C136.293 67.2989 136.922 67.2861 137.318 67.7089C137.336 67.7283 137.352 67.7501 137.366 67.7732C137.54 68.0731 137.637 68.412 137.648 68.7593C137.648 68.7595 137.648 68.7595 137.648 68.7594V68.7594Z" fill="black"/>
<path d="M143.968 71.6368C145.515 71.6368 146.768 70.6823 146.768 69.5049C146.768 68.3275 145.515 67.373 143.968 67.373C142.422 67.373 141.168 68.3275 141.168 69.5049C141.168 70.6823 142.422 71.6368 143.968 71.6368Z" fill="black"/>
<path d="M143.966 71.4555C145.04 71.4555 145.91 70.5822 145.91 69.5049C145.91 68.4275 145.04 67.5542 143.966 67.5542C142.892 67.5542 142.021 68.4275 142.021 69.5049C142.021 70.5822 142.892 71.4555 143.966 71.4555Z" fill="#F5D402"/>
<path d="M143.966 70.3989C144.458 70.3989 144.857 69.9987 144.857 69.5051C144.857 69.0115 144.458 68.6113 143.966 68.6113C143.474 68.6113 143.075 69.0115 143.075 69.5051C143.075 69.9987 143.474 70.3989 143.966 70.3989Z" fill="black"/>
<path d="M185.568 111.283C185.568 108.758 188.874 106.271 188.874 106.271H108.268C108.268 106.271 111.573 108.758 111.573 111.283V171.466C111.544 172.788 111.993 174.077 112.837 175.093C113.612 176.18 115.264 177.682 116.978 178.798C122.272 182.247 131.123 185.884 137.82 188.939C143.4 191.486 145.67 192.513 148.571 196.116C151.472 192.513 153.761 191.486 159.342 188.939C166.037 185.884 174.889 182.247 180.183 178.798C181.898 177.681 183.549 176.18 184.324 175.093C185.162 174.074 185.604 172.786 185.568 171.466L185.568 111.283Z" fill="#F5D402"/>
<path d="M113.479 145.333V111.282C113.497 110.17 113.156 109.083 112.506 108.182H184.636C183.987 109.083 183.646 110.17 183.664 111.282L183.684 145.333L148.582 155.999L113.479 145.333Z" fill="#D10429"/>
<path d="M183.684 145.333L161.948 144.923H135.214L113.479 145.333V171.466C113.479 172.779 114.837 175.856 122.675 179.773C135.629 186.248 145.587 189.271 148.571 192.956C151.555 189.271 161.513 186.248 174.468 179.773C182.305 175.856 183.663 172.779 183.663 171.466L183.684 145.333Z" fill="#0B45BB"/>
<path d="M130.102 126.553C130.102 133.459 133.773 137.533 138.676 137.533C139.611 137.533 140.634 138.8 141.515 138.8C142.951 138.8 143.906 137.201 144.781 137.201C145.893 137.201 146.642 138.956 148.572 138.956C150.502 138.956 151.271 137.201 152.383 137.201C153.257 137.201 154.212 138.8 155.649 138.8C156.53 138.8 157.552 137.533 158.488 137.533C163.39 137.533 167.062 133.459 167.062 126.554C167.062 123.51 165.685 120.107 164.501 117.445C163.479 115.149 164.732 114.345 166.476 116.153C169.051 118.823 172.058 122.895 172.058 127.353C172.058 135.839 166.259 140.008 162.5 141.818C160.919 142.58 160.015 144.486 160.725 146.091V146.091C161.478 147.79 160.397 149.771 158.668 150.452C157.706 150.831 156.704 151.338 155.882 152.003C152.677 154.595 152.635 161.599 152.635 166.336C152.635 171.916 152.842 174.281 154.852 175.795C156.971 177.392 158.565 177.736 158.565 179.364C158.565 180.782 156.915 181.362 154.774 182.309C152.338 183.385 152.096 185.254 148.572 185.254C145.048 185.254 144.825 183.385 142.389 182.309C140.248 181.362 138.598 180.783 138.598 179.364C138.598 177.736 140.192 177.392 142.311 175.795C144.321 174.281 144.527 171.916 144.527 166.336C144.527 161.599 144.486 154.595 141.281 152.003C140.459 151.338 139.457 150.831 138.496 150.452C136.766 149.771 135.685 147.79 136.438 146.09V146.09C137.148 144.486 136.244 142.58 134.663 141.818C130.904 140.008 125.105 135.84 125.105 127.353C125.105 122.895 128.112 118.823 130.687 116.153C132.431 114.345 133.684 115.149 132.663 117.445C131.479 120.107 130.102 123.51 130.102 126.553ZM143.769 178.41C141.275 178.41 139.687 178.938 139.687 179.697C139.687 180.456 141.276 180.965 143.769 180.965C144.434 180.965 145.189 180.576 145.189 179.697C145.172 178.967 144.568 178.389 143.84 178.406C143.817 178.407 143.793 178.408 143.769 178.41ZM153.393 178.41C152.667 178.353 152.033 178.898 151.977 179.626C151.975 179.649 151.974 179.673 151.974 179.697C151.973 180.576 152.728 180.965 153.393 180.965C155.887 180.965 157.475 180.457 157.475 179.697C157.475 178.937 155.887 178.41 153.393 178.41Z" fill="#FFD200"/>
<path d="M148.592 114.248C148.592 114.248 148.592 114.248 148.592 114.248L149.597 117.088C149.808 117.685 150.491 117.967 151.062 117.692V117.692C151.966 117.258 152.907 118.216 152.48 119.123V119.123C152.211 119.694 152.49 120.38 153.085 120.593V120.593C154.031 120.931 154.032 122.269 153.086 122.607V122.607C152.491 122.82 152.21 123.502 152.48 124.073V124.073C152.91 124.982 151.965 125.932 151.057 125.5V125.5C150.487 125.229 149.805 125.513 149.591 126.107V126.107C149.25 127.053 147.907 127.057 147.57 126.109V126.109C147.358 125.513 146.676 125.23 146.105 125.502V125.502C145.199 125.933 144.256 124.982 144.685 124.074V124.074C144.955 123.503 144.674 122.82 144.079 122.607V122.607C143.133 122.269 143.135 120.931 144.08 120.593V120.593C144.675 120.38 144.955 119.695 144.686 119.124V119.124C144.259 118.216 145.202 117.259 146.106 117.694V117.694C146.677 117.968 147.359 117.689 147.573 117.093L148.592 114.248C148.592 114.248 148.592 114.248 148.592 114.248V114.248Z" fill="#FFD200"/>
<path d="M122.396 142.797C120.59 144.032 120.433 147.169 122.253 148.384C123.03 148.902 123.769 149.444 124.363 149.971L124.404 150.006C124.456 150.051 124.534 150.043 124.576 149.99V149.99C125.129 149.354 125.797 148.74 126.492 148.177C128.023 146.936 128.671 144.338 127.016 143.269V143.269C125.949 142.58 123.694 141.878 122.66 142.614C122.572 142.676 122.484 142.737 122.396 142.797Z" fill="#FFD200"/>
<path d="M174.76 142.803C176.567 144.038 176.724 147.175 174.904 148.39C174.127 148.908 173.388 149.45 172.794 149.977L172.752 150.013C172.701 150.057 172.623 150.05 172.581 149.997V149.997C172.028 149.36 171.359 148.747 170.665 148.183C169.134 146.942 168.485 144.345 170.141 143.275V143.275C171.207 142.587 173.463 141.884 174.497 142.62C174.585 142.682 174.672 142.743 174.76 142.803Z" fill="#FFD200"/>
<path d="M137.59 155.422C138.029 154.987 138.737 154.989 139.174 155.426C139.609 155.862 139.611 156.567 139.179 157.006C138.741 157.451 138.025 157.453 137.585 157.011C137.146 156.571 137.149 155.859 137.59 155.422Z" fill="#FFD200"/>
<path d="M157.989 155.427C158.425 154.989 159.133 154.987 159.573 155.422C160.014 155.859 160.016 156.571 159.578 157.011C159.137 157.453 158.421 157.451 157.984 157.006C157.552 156.567 157.554 155.863 157.989 155.427Z" fill="#FFD200"/>
<path d="M139.908 161.408C140.304 161.491 140.668 161.713 140.844 162.078C141.585 163.617 141.437 165.902 141.437 168.948C141.523 171.45 138.856 170.53 138.675 168.033C138.517 165.866 138.277 164.437 138.039 163.272C137.808 162.143 138.78 161.171 139.908 161.408Z" fill="#FFD200"/>
<path d="M159.614 160.913C159.614 160.913 159.614 160.913 159.614 160.913C159.291 162.716 158.762 164.251 158.488 168.033C158.307 170.529 155.64 171.45 155.725 168.948C155.725 166.427 155.624 164.428 156.01 162.941C156.259 161.977 157.179 161.424 158.154 161.22L159.613 160.913C159.613 160.913 159.613 160.913 159.614 160.913Z" fill="#FFD200"/>
<path d="M128.294 164.055C128.294 164.055 128.294 164.055 128.294 164.055C128.366 164.355 128.385 164.665 128.352 164.972C128.31 165.375 127.876 165.558 127.476 165.493C126.371 165.311 125.239 165.596 124.35 166.277C124.01 166.538 123.511 166.58 123.279 166.22C123.111 165.969 122.986 165.692 122.909 165.401C122.54 163.909 123.446 162.399 124.933 162.028C126.419 161.658 127.923 162.565 128.294 164.055C128.294 164.055 128.294 164.055 128.294 164.055Z" fill="#FFD200"/>
<path d="M132.439 169.258C132.439 169.258 132.439 169.258 132.439 169.258C132.177 169.419 131.889 169.533 131.588 169.597C131.192 169.68 130.884 169.326 130.824 168.926C130.656 167.814 130.035 166.82 129.114 166.183C128.761 165.938 128.566 165.476 128.837 165.142C129.023 164.905 129.246 164.7 129.499 164.536C130.799 163.722 132.511 164.119 133.323 165.422C134.135 166.726 133.739 168.443 132.439 169.258C132.439 169.258 132.439 169.258 132.439 169.258Z" fill="#FFD200"/>
<path d="M128.787 174.82C128.787 174.82 128.787 174.82 128.787 174.82C128.554 174.619 128.356 174.38 128.203 174.112C128.001 173.76 128.244 173.357 128.606 173.174C129.607 172.67 130.357 171.77 130.676 170.694C130.798 170.283 131.177 169.956 131.576 170.111C131.859 170.215 132.122 170.365 132.355 170.556C133.527 171.547 133.675 173.303 132.687 174.478C131.702 175.649 129.959 175.801 128.787 174.82C128.787 174.82 128.787 174.82 128.787 174.82Z" fill="#FFD200"/>
<path d="M122.385 173.054C122.503 172.769 122.669 172.507 122.875 172.278C123.146 171.977 123.604 172.084 123.888 172.372C124.675 173.171 125.758 173.609 126.876 173.582C127.306 173.571 127.735 173.831 127.711 174.26C127.7 174.562 127.639 174.859 127.53 175.14C126.956 176.566 125.339 177.254 123.918 176.678C122.497 176.102 121.811 174.479 122.385 173.054Z" fill="#FFD200"/>
<path d="M122.08 166.401C122.387 166.426 122.687 166.503 122.968 166.629C123.337 166.795 123.378 167.264 123.192 167.624C122.677 168.623 122.597 169.793 122.969 170.852C123.112 171.257 122.998 171.745 122.583 171.855C122.294 171.938 121.993 171.971 121.692 171.955C120.164 171.847 119.011 170.517 119.118 168.983C119.225 167.45 120.552 166.294 122.08 166.401Z" fill="#FFD200"/>
<path d="M126.797 172.209C128.279 172.209 129.48 171.004 129.48 169.518C129.48 168.031 128.279 166.826 126.797 166.826C125.316 166.826 124.114 168.031 124.114 169.518C124.114 171.004 125.316 172.209 126.797 172.209Z" fill="#FFD200"/>
<path d="M173.902 165.889C173.902 165.889 173.902 165.889 173.902 165.889C171.273 166.399 169.079 167.983 167.818 170.143C166.827 171.842 164.271 172.74 164.065 170.784C163.704 167.364 166.18 164.719 169.917 164.719C171.328 164.731 172.707 165.137 173.902 165.889C173.902 165.889 173.902 165.889 173.902 165.889Z" fill="#FFD200"/>
</g>
</g>
<defs>
<clipPath id="clip0_1118_2">
<rect width="300" height="300" fill="white"/>
</clipPath>
<clipPath id="clip1_1118_2">
<rect width="152" height="192" fill="white" transform="translate(74 54)"/>
</clipPath>
</defs>
</svg>
