<svg width="300" height="300" viewBox="0 0 300 300" fill="none" xmlns="http://www.w3.org/2000/svg">
<g clip-path="url(#clip0_118_797)">
<rect width="300" height="300" fill="white"/>
<rect x="8" y="8" width="284" height="284" fill="#FF4A4A" stroke="#FFB84F" stroke-width="16"/>
<path fill-rule="evenodd" clip-rule="evenodd" d="M149.14 164.834C149.684 163.886 148.417 162.991 147.54 163.643C142.991 167.028 137.353 169.031 131.248 169.031C116.159 169.031 103.928 156.8 103.928 141.711C103.928 135.605 105.931 129.967 109.316 125.418C109.968 124.542 109.074 123.275 108.126 123.818C99.0883 129 93 138.743 93 149.907C93 166.504 106.455 179.959 123.052 179.959C134.216 179.959 143.959 173.871 149.14 164.834Z" fill="#FFB84F"/>
<path fill-rule="evenodd" clip-rule="evenodd" d="M150.237 164.834C149.693 163.886 150.96 162.991 151.837 163.643C156.386 167.028 162.023 169.031 168.129 169.031C183.218 169.031 195.449 156.8 195.449 141.711C195.449 135.605 193.446 129.967 190.061 125.418C189.409 124.542 190.303 123.275 191.251 123.818C200.289 129 206.377 138.743 206.377 149.907C206.377 166.504 192.922 179.959 176.325 179.959C165.161 179.959 155.418 173.871 150.237 164.834Z" fill="#FFB84F"/>
<circle cx="11.6109" cy="11.6109" r="11.6109" transform="matrix(-1 0 0 1 202.279 136.248)" fill="#FFB84F"/>
<circle cx="4.78095" cy="4.78095" r="4.78095" transform="matrix(-1 0 0 1 198.181 129.417)" fill="#FFB84F"/>
<circle cx="108.709" cy="147.858" r="11.6109" fill="#FFB84F"/>
<circle cx="105.977" cy="134.198" r="4.78095" fill="#FFB84F"/>
<circle cx="134.663" cy="168.348" r="4.78095" fill="#FFB84F"/>
<circle cx="126.467" cy="166.982" r="4.78095" fill="#FFB84F"/>
<circle cx="118.271" cy="164.25" r="4.78095" fill="#FFB84F"/>
<circle cx="111.441" cy="160.153" r="4.78095" fill="#FFB84F"/>
<circle cx="4.78095" cy="4.78095" r="4.78095" transform="matrix(-1 0 0 1 169.495 163.567)" fill="#FFB84F"/>
<circle cx="4.78095" cy="4.78095" r="4.78095" transform="matrix(-1 0 0 1 177.691 162.201)" fill="#FFB84F"/>
<circle cx="4.78095" cy="4.78095" r="4.78095" transform="matrix(-1 0 0 1 185.887 159.469)" fill="#FFB84F"/>
<circle cx="4.78095" cy="4.78095" r="4.78095" transform="matrix(-1 0 0 1 192.717 155.372)" fill="#FFB84F"/>
<circle cx="140.5" cy="118.5" r="7.5" fill="#FFB84F"/>
<circle cx="159.5" cy="118.5" r="7.5" fill="#FFB84F"/>
<path d="M139.444 166.299H159.933V186.106C159.933 191.764 155.347 196.351 149.688 196.351C144.03 196.351 139.444 191.764 139.444 186.106V166.299Z" fill="#FFB84F"/>
<path d="M186.869 193.45C186.117 194.202 184.897 194.202 184.145 193.45L179.053 188.358C178.301 187.606 178.301 186.386 179.053 185.634L180.82 183.867C182.978 181.709 186.478 181.709 188.636 183.867V183.867C190.794 186.025 190.794 189.525 188.636 191.683L186.869 193.45Z" fill="#3661F6"/>
<rect x="145.765" y="164.933" width="6.82993" height="43.7116" rx="2.5" transform="rotate(45 145.765 164.933)" fill="#FFB84F"/>
<rect x="128.7" y="199.778" width="3.14289" height="26.7153" rx="1.57145" transform="rotate(135 128.7 199.778)" fill="#FFB84F"/>
<rect x="190.178" y="191.285" width="1.64327" height="12.6043" rx="0.821634" transform="rotate(135 190.178 191.285)" fill="#FFB84F"/>
<rect x="190.702" y="180.646" width="1.64327" height="9.27157" rx="0.821634" transform="rotate(45 190.702 180.646)" fill="#FFB84F"/>
<rect x="191.864" y="183.658" width="1.64327" height="4.25834" rx="0.821634" transform="rotate(135 191.864 183.658)" fill="#FFB84F"/>
<rect x="113.619" y="181.325" width="3.14289" height="7.91016" rx="1.57145" transform="rotate(45 113.619 181.325)" fill="#FFB84F"/>
<rect x="151" y="104" width="2" height="12" rx="1" transform="rotate(-180 151 104)" fill="#FFB84F"/>
<rect x="154" y="95" width="2" height="8" rx="1" transform="rotate(90 154 95)" fill="#FFB84F"/>
<rect width="6.82993" height="43.7116" rx="2.5" transform="matrix(-0.707107 0.707107 0.707107 0.707107 155.201 164.933)" fill="#FFB84F"/>
<rect width="6" height="20" rx="2.5" transform="matrix(-1 -8.74228e-08 -8.74228e-08 1 148 116)" fill="#FFB84F"/>
<rect x="152" y="117" width="6" height="20" rx="2.5" fill="#FFB84F"/>
<path d="M133.702 131C133.702 128.791 135.493 127 137.702 127H161.675C163.885 127 165.675 128.791 165.675 131V159.263C165.675 166.167 160.079 171.763 153.175 171.763H146.202C139.298 171.763 133.702 166.167 133.702 159.263V131Z" fill="#FFB84F"/>
<rect x="136.26" y="129.84" width="26.858" height="19.46" rx="2" fill="#3661F6"/>
<path d="M136.26 154C136.26 152.895 137.155 152 138.26 152H161.117C162.222 152 163.117 152.895 163.117 154V154.847C163.117 161.751 157.521 167.347 150.617 167.347H148.76C141.856 167.347 136.26 161.751 136.26 154.847V154Z" fill="#3B9644"/>
<path d="M159 113L141 113L141 109C141 104.029 145.029 100 150 100C154.971 100 159 104.029 159 109L159 113Z" fill="#FFB84F"/>
<circle cx="150" cy="100" r="0.95" fill="#3661F6" stroke="#FFB84F" stroke-width="0.1"/>
</g>
<defs>
<clipPath id="clip0_118_797">
<rect width="300" height="300" fill="white"/>
</clipPath>
</defs>
</svg>
