<svg width="300" height="300" viewBox="0 0 300 300" fill="none" xmlns="http://www.w3.org/2000/svg">
<g clip-path="url(#clip0)">
<rect width="300" height="300" fill="white"/>
<rect width="300" height="300" fill="#003EBA"/>
<path d="M81.5116 47.4422C81.6851 46.3111 83.3149 46.3111 83.4884 47.4423L86.8474 69.335C86.98 70.1987 88.0786 70.489 88.6204 69.8035L102.25 52.5589C102.958 51.6625 104.374 52.4636 103.97 53.5325L96.1269 74.2897C95.8203 75.1012 96.6217 75.8915 97.4289 75.5735L117.758 67.5656C118.817 67.1482 119.639 68.5436 118.76 69.2678L101.735 83.2961C101.071 83.8437 101.363 84.9193 102.213 85.0553L123.827 88.5126C124.95 88.6921 124.95 90.3079 123.827 90.4874L102.213 93.9447C101.363 94.0807 101.071 95.1563 101.735 95.7039L118.76 109.732C119.639 110.456 118.817 111.852 117.758 111.434L97.4289 103.426C96.6217 103.109 95.8203 103.899 96.1269 104.71L103.97 125.468C104.374 126.536 102.958 127.337 102.25 126.441L88.6204 109.197C88.0786 108.511 86.98 108.801 86.8474 109.665L83.4884 131.558C83.3149 132.689 81.6851 132.689 81.5116 131.558L78.1526 109.665C78.02 108.801 76.9214 108.511 76.3796 109.197L62.7502 126.441C62.0417 127.337 60.6263 126.536 61.0302 125.468L68.8731 104.71C69.1797 103.899 68.3783 103.109 67.5711 103.426L47.2422 111.434C46.1826 111.852 45.3609 110.456 46.2398 109.732L63.2646 95.7039C63.9292 95.1563 63.637 94.0807 62.7867 93.9447L41.1732 90.4874C40.0504 90.3079 40.0504 88.6921 41.1732 88.5126L62.7867 85.0553C63.637 84.9193 63.9292 83.8437 63.2646 83.2961L46.2398 69.2678C45.3609 68.5436 46.1826 67.1482 47.2422 67.5656L67.5711 75.5735C68.3783 75.8915 69.1797 75.1012 68.8731 74.2897L61.0302 53.5325C60.6263 52.4636 62.0417 51.6625 62.7502 52.5589L76.3796 69.8035C76.9214 70.489 78.02 70.1987 78.1526 69.335L81.5116 47.4422Z" fill="white"/>
<path d="M-35.445 312.491L314.649 24.5008L345.305 66.4555L-35.445 312.491Z" fill="#E3AA3B"/>
<path d="M-35.1635 312.295L345.39 65.9559L371.08 111.123L-35.1635 312.295Z" fill="white"/>
</g>
<defs>
<clipPath id="clip0">
<rect width="300" height="300" fill="white"/>
</clipPath>
</defs>
</svg>
