<svg width="300" height="300" viewBox="0 0 300 300" fill="none" xmlns="http://www.w3.org/2000/svg">
<g clip-path="url(#clip0_118_1204)">
<rect width="300" height="300" fill="white"/>
<rect width="300" height="300" fill="#003EBA"/>
<path d="M79.5347 60.3268C80.0553 56.9334 84.9447 56.9334 85.4653 60.3268L86.1506 64.7934C86.5482 67.3845 89.8441 68.2552 91.4695 66.1986L94.2495 62.6813C96.375 59.9921 100.621 62.3954 99.4095 65.6018L97.7221 70.0678C96.8022 72.5024 99.2065 74.8733 101.628 73.9194L106.001 72.1969C109.18 70.9446 111.645 75.1307 109.008 77.3034L105.156 80.4777C103.162 82.1205 104.039 85.3473 106.59 85.7553L111.481 86.5377C114.849 87.0764 114.849 91.9236 111.481 92.4623L106.59 93.2447C104.039 93.6527 103.162 96.8795 105.156 98.5223L109.008 101.697C111.645 103.869 109.18 108.055 106.001 106.803L101.628 105.081C99.2065 104.127 96.8022 106.498 97.7221 108.932L99.4095 113.398C100.621 116.605 96.375 119.008 94.2495 116.319L91.4695 112.801C89.8441 110.745 86.5482 111.616 86.1506 114.207L85.4653 118.673C84.9447 122.067 80.0553 122.067 79.5347 118.673L78.8494 114.207C78.4518 111.616 75.1559 110.745 73.5305 112.801L70.7505 116.319C68.625 119.008 64.3789 116.605 65.5905 113.398L67.2779 108.932C68.1978 106.498 65.7935 104.127 63.372 105.081L58.9991 106.803C55.8202 108.055 53.355 103.869 55.9919 101.697L59.8442 98.5223C61.838 96.8795 60.9613 93.6527 58.4103 93.2447L53.5195 92.4623C50.1513 91.9236 50.1513 87.0764 53.5195 86.5377L58.4103 85.7553C60.9613 85.3473 61.838 82.1205 59.8442 80.4777L55.9919 77.3034C53.355 75.1307 55.8202 70.9446 58.9991 72.1969L63.372 73.9194C65.7935 74.8733 68.1978 72.5024 67.2779 70.0678L65.5905 65.6018C64.3789 62.3954 68.625 59.9921 70.7505 62.6813L73.5305 66.1986C75.1559 68.2552 78.4518 67.3845 78.8494 64.7934L79.5347 60.3268Z" fill="white"/>
<path d="M-35.445 312.491L314.649 24.5008L345.305 66.4555L-35.445 312.491Z" fill="#E3AA3B"/>
<path d="M-35.1635 312.295L345.39 65.9559L371.08 111.123L-35.1635 312.295Z" fill="white"/>
</g>
<defs>
<clipPath id="clip0_118_1204">
<rect width="300" height="300" fill="white"/>
</clipPath>
</defs>
</svg>
