<svg width="300" height="300" viewBox="0 0 300 300" fill="none" xmlns="http://www.w3.org/2000/svg">
<g clip-path="url(#clip0_118_744)">
<rect width="300" height="300" fill="white"/>
<rect width="300" height="300" fill="#FF4A4A"/>
<path fill-rule="evenodd" clip-rule="evenodd" d="M89.7675 159.669C91.9469 159.319 93.4163 157.27 93.2225 155.071C93.0752 153.4 93 151.709 93 150C93 148.291 93.0752 146.6 93.2225 144.929C93.4163 142.73 91.9468 140.681 89.7675 140.332L-12.616 123.897C-15.0469 123.507 -17.2499 125.384 -17.2499 127.847L-17.2499 172.154C-17.2499 174.616 -15.0469 176.493 -12.616 176.103L89.7675 159.669ZM108.508 189.083C107.036 187.52 104.616 187.224 102.906 188.521L-15.5119 278.301C-17.4177 279.746 -17.6381 282.53 -15.9834 284.256L14.952 316.54C16.6067 318.267 19.3968 318.166 20.9216 316.323L116.125 201.292C117.65 199.449 117.219 196.698 115.323 195.242C112.888 193.373 110.609 191.313 108.508 189.083ZM144.929 206.777C142.73 206.584 140.681 208.053 140.332 210.232L123.897 312.616C123.507 315.047 125.384 317.25 127.847 317.25H172.154C174.616 317.25 176.493 315.047 176.103 312.616L159.668 210.232C159.319 208.053 157.27 206.584 155.071 206.777C153.4 206.925 151.709 207 150 207C148.291 207 146.6 206.925 144.929 206.777ZM189.146 191.432C187.587 192.905 187.293 195.322 188.589 197.03L278.578 315.723C280.023 317.629 282.806 317.849 284.533 316.195L316.817 285.259C318.543 283.604 318.442 280.814 316.6 279.289L201.3 183.864C199.457 182.339 196.705 182.77 195.249 184.667C193.396 187.082 191.354 189.345 189.146 191.432ZM206.777 155.071C206.584 157.27 208.053 159.319 210.232 159.669L312.616 176.103C315.047 176.493 317.25 174.616 317.25 172.154V127.847C317.25 125.384 315.047 123.507 312.616 123.897L210.232 140.332C208.053 140.681 206.584 142.73 206.777 144.929C206.925 146.6 207 148.291 207 150C207 151.709 206.925 153.4 206.777 155.071ZM191.647 111.083C193.118 112.656 195.546 112.958 197.262 111.657L316 21.6338C317.906 20.1889 318.126 17.4057 316.471 15.6789L285.536 -16.6051C283.881 -18.3319 281.091 -18.2304 279.566 -16.388L184.14 98.9132C182.621 100.748 183.041 103.487 184.923 104.948C187.325 106.812 189.573 108.865 191.647 111.083ZM157.411 93.4774C159.67 93.7706 161.832 92.2905 162.193 90.042L176.103 3.38404C176.493 0.953091 174.616 -1.24993 172.154 -1.24993L127.847 -1.24992C125.384 -1.24992 123.507 0.953091 123.897 3.38404L137.807 90.0419C138.168 92.2905 140.331 93.7706 142.589 93.4774C145.015 93.1624 147.488 93 150 93C152.512 93 154.985 93.1625 157.411 93.4774ZM111.146 108.294C112.723 106.824 113.028 104.393 111.725 102.675L21.9102 -15.7888C20.4653 -17.6946 17.682 -17.9149 15.9552 -16.2603L-16.3287 14.6752C-18.0555 16.3298 -17.954 19.1199 -16.1116 20.6448L98.9215 115.849C100.756 117.368 103.495 116.948 104.956 115.067C106.836 112.646 108.907 110.381 111.146 108.294Z" fill="#FFB84F"/>
<circle cx="150" cy="150" r="49" fill="#FFB84F"/>
</g>
<defs>
<clipPath id="clip0_118_744">
<rect width="300" height="300" fill="white"/>
</clipPath>
</defs>
</svg>
