<svg width="300" height="300" viewBox="0 0 300 300" fill="none" xmlns="http://www.w3.org/2000/svg">
<g clip-path="url(#clip0_118_744)">
<rect width="300" height="300" fill="white"/>
<rect width="300" height="300" fill="#FF4A4A"/>
<path fill-rule="evenodd" clip-rule="evenodd" d="M91.7398 159.352C92.8295 159.177 93.5679 158.153 93.4326 157.058C93.1471 154.745 93 152.39 93 150C93 147.61 93.1471 145.255 93.4326 142.943C93.5679 141.847 92.8295 140.823 91.7398 140.648L-14.933 123.525C-16.1484 123.33 -17.2499 124.269 -17.2499 125.5L-17.2499 174.5C-17.2499 175.731 -16.1484 176.67 -14.933 176.475L91.7398 159.352ZM107.214 187.662C106.504 186.857 105.292 186.712 104.437 187.36L-17.301 279.658C-18.2539 280.38 -18.3641 281.772 -17.5368 282.635L16.5054 318.161C17.3327 319.025 18.7278 318.974 19.4902 318.053L117.556 199.562C118.319 198.641 118.106 197.264 117.13 196.573C113.486 193.997 110.157 191.003 107.214 187.662ZM142.943 206.567C141.847 206.432 140.823 207.171 140.648 208.26L123.525 314.933C123.33 316.149 124.269 317.25 125.5 317.25H174.5C175.731 317.25 176.67 316.149 176.475 314.933L159.352 208.26C159.177 207.171 158.153 206.432 157.058 206.567C154.745 206.853 152.39 207 150 207C147.61 207 145.255 206.853 142.943 206.567ZM187.73 192.727C186.926 193.437 186.782 194.647 187.43 195.502L279.934 317.512C280.657 318.465 282.048 318.575 282.912 317.748L318.438 283.706C319.301 282.878 319.25 281.483 318.329 280.721L199.57 182.433C198.649 181.67 197.271 181.883 196.581 182.86C194.02 186.483 191.047 189.795 187.73 192.727ZM206.567 157.058C206.432 158.153 207.171 159.177 208.26 159.352L314.933 176.475C316.149 176.67 317.25 175.731 317.25 174.5V125.5C317.25 124.269 316.149 123.33 314.933 123.525L208.26 140.648C207.171 140.823 206.432 141.847 206.567 142.943C206.853 145.255 207 147.61 207 150C207 152.39 206.853 154.745 206.567 157.058ZM192.941 112.514C193.649 113.325 194.866 113.474 195.724 112.823L317.789 20.2774C318.742 19.5549 318.852 18.1633 318.025 17.2999L283.983 -18.2261C283.155 -19.0895 281.76 -19.0388 280.998 -18.1176L182.717 100.632C181.958 101.55 182.165 102.921 183.134 103.614C186.739 106.194 190.031 109.183 192.941 112.514ZM159.477 93.7843C160.6 93.9722 161.681 93.2287 161.862 92.1044L176.475 1.06706C176.67 -0.148418 175.731 -1.24993 174.5 -1.24993L125.5 -1.24992C124.269 -1.24992 123.33 -0.148415 123.525 1.06706L138.138 92.1044C138.319 93.2287 139.4 93.9722 140.523 93.7843C143.605 93.2685 146.771 93 150 93C153.229 93 156.395 93.2685 159.477 93.7843ZM112.582 107C113.395 106.292 113.544 105.074 112.893 104.215L20.5538 -17.5779C19.8313 -18.5307 18.4397 -18.6409 17.5763 -17.8136L-17.9498 16.2285C-18.8131 17.0558 -18.7624 18.4509 -17.8412 19.2133L100.64 117.272C101.558 118.031 102.929 117.824 103.622 116.855C106.217 113.23 109.227 109.922 112.582 107Z" fill="#FFB84F"/>
<circle cx="150" cy="150" r="49" fill="#FFB84F"/>
</g>
<defs>
<clipPath id="clip0_118_744">
<rect width="300" height="300" fill="white"/>
</clipPath>
</defs>
</svg>
