<svg width="300" height="300" viewBox="0 0 300 300" fill="none" xmlns="http://www.w3.org/2000/svg">
<g clip-path="url(#clip0)">
<rect width="300" height="300" fill="white"/>
<rect x="300" y="200" width="300" height="100" transform="rotate(-180 300 200)" fill="#4DBB58"/>
<rect x="300" y="100" width="300" height="100" transform="rotate(-180 300 100)" fill="#FFB84F"/>
<rect x="300" y="300" width="300" height="100" transform="rotate(-180 300 300)" fill="#EF4B4B"/>
<path d="M149.049 50.927C149.348 50.0057 150.652 50.0057 150.951 50.9271L172.676 117.789C172.81 118.201 173.194 118.48 173.627 118.48L243.93 118.48C244.899 118.48 245.302 119.72 244.518 120.289L187.641 161.612C187.291 161.867 187.144 162.318 187.278 162.73L209.003 229.593C209.302 230.514 208.248 231.28 207.464 230.711L150.588 189.388C150.237 189.133 149.763 189.133 149.412 189.388L92.5358 230.711C91.7521 231.28 90.6976 230.514 90.997 229.593L112.722 162.73C112.856 162.318 112.709 161.867 112.359 161.612L55.4821 120.289C54.6984 119.72 55.1012 118.48 56.0699 118.48L126.373 118.48C126.806 118.48 127.19 118.201 127.324 117.789L149.049 50.927Z" fill="white"/>
</g>
<defs>
<clipPath id="clip0">
<rect width="300" height="300" fill="white"/>
</clipPath>
</defs>
</svg>
