<svg width="300" height="300" viewBox="0 0 300 300" fill="none" xmlns="http://www.w3.org/2000/svg">
<g clip-path="url(#clip0_116_7)">
<rect width="300" height="300" fill="white"/>
<rect x="300" y="200" width="300" height="100" transform="rotate(-180 300 200)" fill="#4DBB58"/>
<rect x="300" y="100" width="300" height="100" transform="rotate(-180 300 100)" fill="#FFB84F"/>
<rect x="300" y="300" width="300" height="100" transform="rotate(-180 300 300)" fill="#EF4B4B"/>
<path d="M135.734 91.9058C140.224 78.0861 159.776 78.0861 164.266 91.9058L169.533 108.116C171.541 114.296 177.3 118.48 183.799 118.48L200.843 118.48C215.373 118.48 221.415 137.075 209.659 145.616L195.87 155.634C190.613 159.453 188.413 166.224 190.421 172.404L195.688 188.614C200.179 202.434 184.361 213.925 172.606 205.384L158.817 195.366C153.559 191.547 146.441 191.547 141.183 195.366L127.394 205.384C115.639 213.925 99.8215 202.434 104.312 188.614L109.579 172.404C111.587 166.224 109.387 159.453 104.13 155.634L90.3407 145.616C78.585 137.075 84.6266 118.48 99.1575 118.48L116.201 118.48C122.7 118.48 128.459 114.296 130.467 108.116L135.734 91.9058Z" fill="white"/>
</g>
<defs>
<clipPath id="clip0_116_7">
<rect width="300" height="300" fill="white"/>
</clipPath>
</defs>
</svg>
