<svg width="300" height="300" viewBox="0 0 300 300" fill="none" xmlns="http://www.w3.org/2000/svg">
<g clip-path="url(#clip0_116_7)">
<rect width="300" height="300" fill="white"/>
<rect x="300" y="200" width="300" height="100" transform="rotate(-180 300 200)" fill="#4DBB58"/>
<rect x="300" y="100" width="300" height="100" transform="rotate(-180 300 100)" fill="#FFB84F"/>
<rect x="300" y="300" width="300" height="100" transform="rotate(-180 300 300)" fill="#EF4B4B"/>
<path d="M140.489 77.2705C143.483 68.0574 156.517 68.0574 159.511 77.2705L170.655 111.57C171.994 115.691 175.834 118.48 180.166 118.48L216.231 118.48C225.918 118.48 229.946 130.876 222.109 136.57L192.932 157.769C189.427 160.315 187.96 164.829 189.299 168.949L200.444 203.249C203.437 212.462 192.892 220.124 185.055 214.43L155.878 193.231C152.373 190.685 147.627 190.685 144.122 193.231L114.945 214.43C107.108 220.124 96.5629 212.462 99.5565 203.249L110.701 168.949C112.04 164.829 110.573 160.315 107.068 157.769L77.8912 136.57C70.0541 130.876 74.0818 118.48 83.7691 118.48L119.834 118.48C124.166 118.48 128.006 115.691 129.345 111.57L140.489 77.2705Z" fill="white"/>
</g>
<defs>
<clipPath id="clip0_116_7">
<rect width="300" height="300" fill="white"/>
</clipPath>
</defs>
</svg>
