<svg width="300" height="300" viewBox="0 0 300 300" fill="none" xmlns="http://www.w3.org/2000/svg">
<g clip-path="url(#clip0)">
<rect width="300" height="300" fill="white"/>
<rect x="300" y="200" width="300" height="100" transform="rotate(-180 300 200)" fill="#4DBB58"/>
<rect x="300" y="100" width="300" height="100" transform="rotate(-180 300 100)" fill="#FFB84F"/>
<rect x="300" y="300" width="300" height="100" transform="rotate(-180 300 300)" fill="#EF4B4B"/>
<path d="M147.147 56.7811C148.045 54.0172 151.955 54.0172 152.853 56.7812L172.227 116.407C172.629 117.643 173.78 118.48 175.08 118.48L237.775 118.48C240.681 118.48 241.889 122.199 239.538 123.907L188.817 160.758C187.766 161.522 187.326 162.876 187.727 164.112L207.101 223.739C207.999 226.503 204.836 228.801 202.484 227.093L151.763 190.242C150.712 189.478 149.288 189.478 148.237 190.242L97.5156 227.093C95.1644 228.801 92.001 226.503 92.8991 223.739L112.273 164.112C112.674 162.876 112.234 161.522 111.183 160.758L60.4619 123.907C58.1108 122.199 59.3191 118.48 62.2253 118.48L124.92 118.48C126.22 118.48 127.371 117.643 127.773 116.407L147.147 56.7811Z" fill="white"/>
</g>
<defs>
<clipPath id="clip0">
<rect width="300" height="300" fill="white"/>
</clipPath>
</defs>
</svg>
