<svg width="300" height="300" viewBox="0 0 300 300" fill="none" xmlns="http://www.w3.org/2000/svg">
<g clip-path="url(#clip0_1322_83)">
<rect width="300" height="300" fill="#EF4B4B"/>
<rect x="500" y="300" width="500" height="300" transform="rotate(-180 500 300)" fill="#EF4B4B"/>
<rect x="100" y="300" width="300" height="100" transform="rotate(-90 100 300)" fill="#3661F6"/>
<path fill-rule="evenodd" clip-rule="evenodd" d="M65.475 86.8454C65.475 86.7816 65.3879 86.7638 65.3613 86.8219C62.6961 92.6523 56.8127 96.7036 49.983 96.7036C43.1534 96.7036 37.27 92.6524 34.6048 86.822C34.5784 86.7643 34.4917 86.7819 34.4917 86.8454V86.8454C34.4917 95.4012 41.4276 102.337 49.9834 102.337C58.5392 102.337 65.475 95.4012 65.475 86.8454V86.8454Z" fill="#FFD300"/>
<path d="M49.9835 93.8868C56.2059 93.8868 61.2501 88.8426 61.2501 82.6202C61.2501 76.3978 56.2059 71.3535 49.9835 71.3535C43.7611 71.3535 38.7168 76.3978 38.7168 82.6202C38.7168 88.8426 43.7611 93.8868 49.9835 93.8868Z" fill="#FFD300"/>
<path d="M51.1672 46.0026C51.1673 46.0032 51.167 46.0037 51.1665 46.0039C49.7672 46.6391 49.2444 47.7842 49.1317 48.9247C49.0613 49.8852 49.4852 50.9671 49.5275 51.9064C49.5275 53.5229 47.8549 54.0552 47.8549 56.3624C47.8549 57.1553 48.5873 58.029 48.5873 60.0869C48.4605 61.167 47.8577 61.4107 47.1789 61.4952C46.8054 61.4952 46.4472 61.3468 46.1831 61.0827C45.919 60.8186 45.7706 60.4604 45.7706 60.0869C45.7716 59.7258 45.9113 59.379 46.1607 59.1179C46.2052 59.0676 46.2532 59.0205 46.3043 58.9771C46.6254 58.6532 47.0663 58.5278 47.0634 57.673C47.0634 57.2336 46.779 56.8336 46.5071 56.0556V56.0556C46.2528 55.3067 45.4456 54.6696 45.1649 55.409C45.1575 55.4284 45.1504 55.4477 45.1433 55.467C44.8166 56.5091 45.1011 57.1094 44.6532 57.9755C44.38 58.536 44.0547 58.7684 43.7462 59.2359C43.3815 59.7458 42.9534 60.9381 42.9534 61.4915C42.9534 63.3591 43.6952 65.1502 45.0158 66.4707C46.3364 67.7913 48.1275 68.5332 49.995 68.5332C51.8626 68.5332 53.6537 67.7913 54.9742 66.4707C56.2948 65.1502 57.0367 63.3591 57.0367 61.4915C57.0367 60.9381 56.6142 59.7458 56.2494 59.2359C55.941 58.7684 55.61 58.536 55.3368 57.9755C54.8946 57.1094 55.1791 56.5091 54.8524 55.467C54.8453 55.4477 54.8381 55.4284 54.8308 55.409C54.5502 54.6701 53.7424 55.3072 53.4883 56.0556V56.0556C53.215 56.833 52.9277 57.233 52.9277 57.673C52.9277 58.5278 53.3657 58.6532 53.6868 58.9771C53.738 59.0205 53.786 59.0676 53.8305 59.1179C54.0799 59.379 54.2196 59.7258 54.2206 60.0869C54.2206 60.4604 54.0722 60.8186 53.8081 61.0827C53.544 61.3468 53.1858 61.4952 52.8123 61.4952C52.0334 61.3966 51.4743 61.0333 51.4039 60.0869C51.4039 57.3755 52.5644 57.2026 52.5644 55.1963C52.5644 52.3314 49.9953 50.9752 49.9953 48.8807C49.9953 48.1714 50.1613 46.9627 51.1651 46.0018C51.1659 46.0011 51.1672 46.0016 51.1672 46.0026V46.0026ZM19 108.154C19 106.497 20.3431 105.154 22 105.154H30.0833C31.7402 105.154 33.0833 106.497 33.0833 108.154V169.754C33.0833 171.41 31.7402 172.754 30.0833 172.754H22C20.3431 172.754 19 171.41 19 169.754V108.154ZM66.8833 108.154C66.8833 106.497 68.2265 105.154 69.8833 105.154H77.9667C79.6235 105.154 80.9667 106.497 80.9667 108.154V169.754C80.9667 171.41 79.6235 172.754 77.9667 172.754H69.8833C68.2265 172.754 66.8833 171.41 66.8833 169.754V108.154ZM45.1875 110.726C42.5784 109.161 43.6883 105.154 46.731 105.154H53.2357C56.2784 105.154 57.3883 109.161 54.7792 110.726L51.5268 112.677C50.5768 113.247 49.3899 113.247 48.4398 112.677L45.1875 110.726ZM35.9 119.237C35.9 117.681 37.1611 116.42 38.7167 116.42H61.25C62.8056 116.42 64.0667 117.681 64.0667 119.237V119.237C64.0667 120.792 62.8056 122.054 61.25 122.054H38.7167C37.1611 122.054 35.9 120.792 35.9 119.237V119.237ZM35.9 158.67C35.9 157.115 37.1611 155.854 38.7167 155.854H61.25C62.8056 155.854 64.0667 157.115 64.0667 158.67V158.67C64.0667 160.226 62.8056 161.487 61.25 161.487H38.7167C37.1611 161.487 35.9 160.226 35.9 158.67V158.67ZM45.1875 169.876C42.5784 168.311 43.6883 164.304 46.731 164.304H53.2357C56.2784 164.304 57.3883 168.311 54.7792 169.876L51.5268 171.827C50.5768 172.397 49.3899 172.397 48.4398 171.827L45.1875 169.876Z" fill="#FFD300"/>
<path fill-rule="evenodd" clip-rule="evenodd" d="M49.983 124.87C49.983 124.87 49.983 124.87 49.983 124.87C42.2051 124.87 35.8999 131.176 35.8999 138.953C35.8999 143.671 38.2194 147.847 41.7802 150.403C42.1274 150.652 42.5713 150.198 42.3969 149.808C41.9247 148.751 41.6738 147.597 41.6738 146.418C41.6738 144.214 42.5493 142.1 44.1075 140.542C45.6658 138.984 47.7793 138.109 49.983 138.109C51.7385 138.109 53.4221 137.411 54.6635 136.17C55.9048 134.928 56.6022 133.245 56.6022 131.489C56.6022 129.734 55.9048 128.05 54.6635 126.809C53.4221 125.568 51.7385 124.87 49.983 124.87C49.983 124.87 49.983 124.87 49.983 124.87V124.87ZM49.9423 153.037C49.9559 153.037 49.9696 153.037 49.9832 153.037C57.7612 153.037 64.0666 146.731 64.0666 138.953C64.0666 134.236 61.7467 130.06 58.1854 127.504C57.8382 127.255 57.3944 127.708 57.5688 128.098C58.0412 129.155 58.2922 130.309 58.2922 131.489C58.2922 133.693 57.4167 135.807 55.8585 137.365C54.3002 138.923 52.1867 139.799 49.983 139.799C48.2275 139.799 46.5439 140.496 45.3025 141.737C44.0612 142.979 43.3638 144.662 43.3638 146.418C43.3638 148.173 44.0612 149.857 45.3025 151.098C46.5343 152.33 48.2015 153.026 49.9423 153.037ZM49.9832 134.306C51.5388 134.306 52.7998 133.045 52.7998 131.49C52.7998 129.934 51.5388 128.673 49.9832 128.673C48.4276 128.673 47.1665 129.934 47.1665 131.49C47.1665 133.045 48.4276 134.306 49.9832 134.306ZM52.7998 146.418C52.7998 147.973 51.5388 149.234 49.9832 149.234C48.4276 149.234 47.1665 147.973 47.1665 146.418C47.1665 144.862 48.4276 143.601 49.9832 143.601C51.5388 143.601 52.7998 144.862 52.7998 146.418Z" fill="#FFD300"/>
</g>
<defs>
<clipPath id="clip0_1322_83">
<rect width="300" height="300" fill="white"/>
</clipPath>
</defs>
</svg>
