<svg width="300" height="300" viewBox="0 0 300 300" fill="none" xmlns="http://www.w3.org/2000/svg">
<rect width="300" height="300" fill="#0F7562"/>
<mask id="mask0_1322_575" style="mask-type:luminance" maskUnits="userSpaceOnUse" x="122" y="142" width="57" height="50">
<path d="M122.486 144.217C122.486 143.113 123.382 142.217 124.486 142.217H176.041C177.146 142.217 178.041 143.113 178.041 144.217V189.87C178.041 190.975 177.146 191.87 176.041 191.87H124.486C123.382 191.87 122.486 190.975 122.486 189.87V144.217Z" fill="white"/>
</mask>
<g mask="url(#mask0_1322_575)">
<path d="M124.347 181.629C146.571 181.629 164.587 163.594 164.587 141.348C164.587 119.101 146.571 101.067 124.347 101.067C102.123 101.067 84.1064 119.101 84.1064 141.348C84.1064 163.594 102.123 181.629 124.347 181.629Z" fill="white"/>
<path d="M176.181 181.629C198.405 181.629 216.421 163.594 216.421 141.348C216.421 119.101 198.405 101.067 176.181 101.067C153.957 101.067 135.941 119.101 135.941 141.348C135.941 163.594 153.957 181.629 176.181 181.629Z" fill="white"/>
</g>
<path d="M178.042 177.657C200.266 177.657 218.282 159.623 218.282 137.376C218.282 115.13 200.266 97.0952 178.042 97.0952C155.818 97.0952 137.802 115.13 137.802 137.376C137.802 159.623 155.818 177.657 178.042 177.657Z" fill="#0F7562"/>
<path d="M122.486 177.657C144.71 177.657 162.727 159.623 162.727 137.376C162.727 115.13 144.71 97.0952 122.486 97.0952C100.262 97.0952 82.2461 115.13 82.2461 137.376C82.2461 159.623 100.262 177.657 122.486 177.657Z" fill="#0F7562"/>
<mask id="mask1_1322_575" style="mask-type:luminance" maskUnits="userSpaceOnUse" x="78" y="66" width="144" height="143">
<path d="M150.264 209C189.713 209 221.692 176.988 221.692 137.5C221.692 98.0116 189.713 66 150.264 66C110.815 66 78.8359 98.0116 78.8359 137.5C78.8359 176.988 110.815 209 150.264 209Z" fill="white"/>
</mask>
<g mask="url(#mask1_1322_575)">
<path d="M88.2598 179.642C88.2598 178.545 89.149 177.656 90.2459 177.656H122.36C123.457 177.656 124.346 178.545 124.346 179.642V179.642C124.346 180.739 123.457 181.628 122.36 181.628H90.2459C89.149 181.628 88.2598 180.739 88.2598 179.642V179.642ZM88.2598 186.718C88.2598 186.169 88.7044 185.725 89.2528 185.725H211.274C211.822 185.725 212.267 186.169 212.267 186.718V186.718C212.267 187.266 211.822 187.711 211.274 187.711H89.2528C88.7044 187.711 88.2598 187.266 88.2598 186.718V186.718ZM88.2598 193.359C88.2598 192.502 88.9545 191.807 89.8114 191.807H210.715C211.572 191.807 212.267 192.502 212.267 193.359V193.359C212.267 194.216 211.572 194.911 210.715 194.911H89.8114C88.9545 194.911 88.2598 194.216 88.2598 193.359V193.359ZM88.2598 200C88.2598 198.903 89.149 198.014 90.2459 198.014H210.281C211.377 198.014 212.267 198.903 212.267 200V200C212.267 201.097 211.377 201.986 210.281 201.986H90.2459C89.149 201.986 88.2598 201.097 88.2598 200V200ZM88.2598 205.972C88.2598 204.868 89.1552 203.972 90.2598 203.972H210.267C211.371 203.972 212.267 204.868 212.267 205.972V208.179C212.267 209.283 211.371 210.179 210.267 210.179H90.2598C89.1552 210.179 88.2598 209.283 88.2598 208.179V205.972ZM212.267 179.642C212.267 178.545 211.377 177.656 210.281 177.656H178.167C177.07 177.656 176.181 178.545 176.181 179.642V179.642C176.181 180.739 177.07 181.628 178.167 181.628H210.281C211.377 181.628 212.267 180.739 212.267 179.642V179.642Z" fill="white"/>
</g>
<mask id="mask2_1322_575" style="mask-type:luminance" maskUnits="userSpaceOnUse" x="90" y="83" width="81" height="82">
<path d="M130.671 164.002C152.895 164.002 170.911 145.968 170.911 123.721C170.911 101.475 152.895 83.4404 130.671 83.4404C108.447 83.4404 90.4307 101.475 90.4307 123.721C90.4307 145.968 108.447 164.002 130.671 164.002Z" fill="white"/>
</mask>
<g mask="url(#mask2_1322_575)">
<path d="M169.857 164.002C192.082 164.002 210.098 145.968 210.098 123.721C210.098 101.475 192.082 83.4404 169.857 83.4404C147.633 83.4404 129.617 101.475 129.617 123.721C129.617 145.968 147.633 164.002 169.857 164.002Z" fill="white"/>
</g>
<mask id="mask3_1322_575" style="mask-type:luminance" maskUnits="userSpaceOnUse" x="85" y="87" width="81" height="81">
<path d="M125.587 167.851C147.811 167.851 165.827 149.816 165.827 127.57C165.827 105.323 147.811 87.2891 125.587 87.2891C103.363 87.2891 85.3467 105.323 85.3467 127.57C85.3467 149.816 103.363 167.851 125.587 167.851Z" fill="white"/>
</mask>
<g mask="url(#mask3_1322_575)">
<path d="M174.942 167.851C197.166 167.851 215.182 149.816 215.182 127.57C215.182 105.323 197.166 87.2891 174.942 87.2891C152.718 87.2891 134.702 105.323 134.702 127.57C134.702 149.816 152.718 167.851 174.942 167.851Z" fill="#0F7562"/>
</g>
<path d="M150.264 115.405C159.168 115.405 166.385 108.18 166.385 99.2675C166.385 90.3552 159.168 83.1304 150.264 83.1304C141.361 83.1304 134.144 90.3552 134.144 99.2675C134.144 108.18 141.361 115.405 150.264 115.405Z" fill="#0F7562"/>
<mask id="mask4_1322_575" style="mask-type:luminance" maskUnits="userSpaceOnUse" x="83" y="89" width="82" height="82">
<path d="M123.974 170.085C146.198 170.085 164.214 152.051 164.214 129.804C164.214 107.558 146.198 89.5234 123.974 89.5234C101.75 89.5234 83.7339 107.558 83.7339 129.804C83.7339 152.051 101.75 170.085 123.974 170.085Z" fill="white"/>
</mask>
<g mask="url(#mask4_1322_575)">
<path d="M176.553 170.085C198.777 170.085 216.793 152.051 216.793 129.804C216.793 107.558 198.777 89.5234 176.553 89.5234C154.329 89.5234 136.312 107.558 136.312 129.804C136.312 152.051 154.329 170.085 176.553 170.085Z" fill="white"/>
</g>
<mask id="mask5_1322_575" style="mask-type:luminance" maskUnits="userSpaceOnUse" x="81" y="93" width="81" height="82">
<path d="M121.247 174.554C143.471 174.554 161.487 156.519 161.487 134.273C161.487 112.027 143.471 93.9922 121.247 93.9922C99.0225 93.9922 81.0063 112.027 81.0063 134.273C81.0063 156.519 99.0225 174.554 121.247 174.554Z" fill="white"/>
</mask>
<g mask="url(#mask5_1322_575)">
<path d="M103.265 227.682C129.393 227.682 150.574 206.48 150.574 180.326C150.574 154.172 129.393 132.97 103.265 132.97C77.1373 132.97 55.9565 154.172 55.9565 180.326C55.9565 206.48 77.1373 227.682 103.265 227.682Z" fill="white"/>
</g>
<mask id="mask6_1322_575" style="mask-type:luminance" maskUnits="userSpaceOnUse" x="83" y="90" width="82" height="82">
<path d="M123.851 171.202C146.075 171.202 164.091 153.168 164.091 130.921C164.091 108.675 146.075 90.6406 123.851 90.6406C101.627 90.6406 83.6104 108.675 83.6104 130.921C83.6104 153.168 101.627 171.202 123.851 171.202Z" fill="white"/>
</mask>
<g mask="url(#mask6_1322_575)">
<path d="M104.382 232.15C130.51 232.15 151.691 210.948 151.691 184.794C151.691 158.64 130.51 137.438 104.382 137.438C78.254 137.438 57.0732 158.64 57.0732 184.794C57.0732 210.948 78.254 232.15 104.382 232.15Z" fill="#0F7562"/>
</g>
<path d="M90.1209 160.961C99.0242 160.961 106.242 153.736 106.242 144.824C106.242 135.912 99.0242 128.687 90.1209 128.687C81.2176 128.687 74 135.912 74 144.824C74 153.736 81.2176 160.961 90.1209 160.961Z" fill="#0F7562"/>
<mask id="mask7_1322_575" style="mask-type:luminance" maskUnits="userSpaceOnUse" x="81" y="93" width="81" height="82">
<path d="M121.247 174.554C143.471 174.554 161.487 156.519 161.487 134.273C161.487 112.027 143.471 93.9922 121.247 93.9922C99.0225 93.9922 81.0063 112.027 81.0063 134.273C81.0063 156.519 99.0225 174.554 121.247 174.554Z" fill="white"/>
</mask>
<g mask="url(#mask7_1322_575)">
<mask id="mask8_1322_575" style="mask-type:luminance" maskUnits="userSpaceOnUse" x="87" y="90" width="81" height="81">
<path d="M127.695 170.581C149.919 170.581 167.936 152.547 167.936 130.3C167.936 108.054 149.919 90.0195 127.695 90.0195C105.471 90.0195 87.4551 108.054 87.4551 130.3C87.4551 152.547 105.471 170.581 127.695 170.581Z" fill="white"/>
</mask>
<g mask="url(#mask8_1322_575)">
<path d="M108.226 235.75C134.353 235.75 155.534 214.548 155.534 188.394C155.534 162.24 134.353 141.038 108.226 141.038C82.0978 141.038 60.917 162.24 60.917 188.394C60.917 214.548 82.0978 235.75 108.226 235.75Z" fill="white"/>
</g>
<path d="M140.085 155.097C139.449 153.186 141.717 151.639 143.264 152.929L144.747 154.166C145.107 154.466 145.56 154.63 146.028 154.63H149.504C150.609 154.63 151.504 155.526 151.504 156.63V165.044C151.504 166.148 150.609 167.044 149.504 167.044H145.506C144.645 167.044 143.88 166.492 143.608 165.676L140.085 155.097Z" fill="white"/>
</g>
<path d="M150.28 142.316C150.276 142.292 150.242 142.289 150.234 142.313V142.313C150.23 142.325 150.237 142.338 150.249 142.342V142.342C150.266 142.348 150.283 142.334 150.28 142.316V142.316Z" fill="#FFDE23"/>
<path d="M150.25 142.316C150.254 142.292 150.288 142.289 150.296 142.313V142.313C150.3 142.325 150.293 142.338 150.281 142.342V142.342C150.264 142.348 150.248 142.334 150.25 142.316V142.316Z" fill="#FFDE23"/>
<path d="M150.176 142.262C150.198 142.251 150.19 142.217 150.166 142.217V142.217C150.153 142.217 150.142 142.228 150.142 142.241V142.241C150.142 142.258 150.16 142.27 150.176 142.262V142.262Z" fill="#FFDE23"/>
<path d="M150.167 142.234C150.191 142.23 150.205 142.261 150.185 142.276V142.276C150.174 142.284 150.159 142.281 150.152 142.271V142.271C150.141 142.257 150.15 142.237 150.167 142.234V142.234Z" fill="#FFDE23"/>
<path d="M150.311 142.128C150.299 142.15 150.325 142.172 150.345 142.158V142.158C150.356 142.15 150.358 142.135 150.35 142.125V142.125C150.34 142.111 150.319 142.112 150.311 142.128V142.128Z" fill="#FFDE23"/>
<path d="M150.335 142.145C150.317 142.163 150.288 142.145 150.295 142.121V142.121C150.299 142.109 150.313 142.102 150.325 142.106V142.106C150.342 142.112 150.347 142.133 150.335 142.145V142.145Z" fill="#FFDE23"/>
<path d="M150.195 142.147C150.212 142.165 150.242 142.147 150.234 142.123V142.123C150.23 142.111 150.217 142.104 150.204 142.108V142.108C150.188 142.114 150.182 142.135 150.195 142.147V142.147Z" fill="#FFDE23"/>
<path d="M150.219 142.13C150.23 142.152 150.204 142.174 150.184 142.16V142.16C150.174 142.152 150.171 142.137 150.179 142.127V142.127C150.189 142.113 150.211 142.114 150.219 142.13V142.13Z" fill="#FFDE23"/>
<path d="M150.363 142.234C150.338 142.23 150.325 142.262 150.345 142.276V142.276C150.356 142.284 150.37 142.282 150.378 142.271V142.271C150.388 142.257 150.38 142.237 150.363 142.234V142.234Z" fill="#FFDE23"/>
<path d="M150.354 142.262C150.332 142.251 150.339 142.218 150.364 142.218V142.218C150.377 142.218 150.388 142.228 150.388 142.241V142.241C150.388 142.259 150.369 142.27 150.354 142.262V142.262Z" fill="#FFDE23"/>
<path d="M150.28 142.316C150.276 142.292 150.242 142.289 150.234 142.313V142.313C150.23 142.325 150.237 142.338 150.249 142.342V142.342C150.266 142.348 150.283 142.334 150.28 142.316V142.316Z" fill="#FFDE23"/>
<path d="M150.25 142.316C150.254 142.292 150.288 142.289 150.296 142.313V142.313C150.3 142.325 150.293 142.338 150.281 142.342V142.342C150.264 142.348 150.248 142.334 150.25 142.316V142.316Z" fill="#FFDE23"/>
<path d="M150.176 142.262C150.198 142.251 150.19 142.217 150.166 142.217V142.217C150.153 142.217 150.142 142.228 150.142 142.241V142.241C150.142 142.258 150.16 142.27 150.176 142.262V142.262Z" fill="#FFDE23"/>
<path d="M150.167 142.234C150.191 142.23 150.205 142.261 150.185 142.276V142.276C150.174 142.284 150.159 142.281 150.152 142.271V142.271C150.141 142.257 150.15 142.237 150.167 142.234V142.234Z" fill="#FFDE23"/>
<path d="M150.311 142.128C150.299 142.15 150.325 142.172 150.345 142.158V142.158C150.356 142.15 150.358 142.135 150.35 142.125V142.125C150.34 142.111 150.319 142.112 150.311 142.128V142.128Z" fill="#FFDE23"/>
<path d="M150.335 142.145C150.317 142.163 150.288 142.145 150.295 142.121V142.121C150.299 142.109 150.313 142.102 150.325 142.106V142.106C150.342 142.112 150.347 142.133 150.335 142.145V142.145Z" fill="#FFDE23"/>
<path d="M150.195 142.147C150.212 142.165 150.242 142.147 150.234 142.123V142.123C150.23 142.111 150.217 142.104 150.204 142.108V142.108C150.188 142.114 150.182 142.135 150.195 142.147V142.147Z" fill="#FFDE23"/>
<path d="M150.219 142.13C150.23 142.152 150.204 142.174 150.184 142.16V142.16C150.174 142.152 150.171 142.137 150.179 142.127V142.127C150.189 142.113 150.211 142.114 150.219 142.13V142.13Z" fill="#FFDE23"/>
<path d="M150.363 142.234C150.338 142.23 150.325 142.262 150.345 142.276V142.276C150.356 142.284 150.37 142.282 150.378 142.271V142.271C150.388 142.257 150.38 142.237 150.363 142.234V142.234Z" fill="#FFDE23"/>
<path d="M150.354 142.262C150.332 142.251 150.339 142.218 150.364 142.218V142.218C150.377 142.218 150.388 142.228 150.388 142.241V142.241C150.388 142.259 150.369 142.27 150.354 142.262V142.262Z" fill="#FFDE23"/>
<mask id="mask9_1322_575" style="mask-type:luminance" maskUnits="userSpaceOnUse" x="139" y="93" width="81" height="82">
<path d="M179.282 174.554C157.058 174.554 139.041 156.519 139.041 134.273C139.041 112.027 157.058 93.9922 179.282 93.9922C201.506 93.9922 219.522 112.027 219.522 134.273C219.522 156.519 201.506 174.554 179.282 174.554Z" fill="white"/>
</mask>
<g mask="url(#mask9_1322_575)">
<path d="M197.263 227.682C171.135 227.682 149.954 206.48 149.954 180.326C149.954 154.172 171.135 132.97 197.263 132.97C223.391 132.97 244.572 154.172 244.572 180.326C244.572 206.48 223.391 227.682 197.263 227.682Z" fill="white"/>
</g>
<mask id="mask10_1322_575" style="mask-type:luminance" maskUnits="userSpaceOnUse" x="136" y="90" width="81" height="82">
<path d="M176.677 171.202C154.453 171.202 136.437 153.168 136.437 130.921C136.437 108.675 154.453 90.6406 176.677 90.6406C198.901 90.6406 216.917 108.675 216.917 130.921C216.917 153.168 198.901 171.202 176.677 171.202Z" fill="white"/>
</mask>
<g mask="url(#mask10_1322_575)">
<path d="M196.146 232.15C170.019 232.15 148.838 210.948 148.838 184.794C148.838 158.64 170.019 137.438 196.146 137.438C222.274 137.438 243.455 158.64 243.455 184.794C243.455 210.948 222.274 232.15 196.146 232.15Z" fill="#0F7562"/>
</g>
<path d="M210.407 160.961C201.504 160.961 194.287 153.736 194.287 144.824C194.287 135.912 201.504 128.687 210.407 128.687C219.311 128.687 226.528 135.912 226.528 144.824C226.528 153.736 219.311 160.961 210.407 160.961Z" fill="#0F7562"/>
<mask id="mask11_1322_575" style="mask-type:luminance" maskUnits="userSpaceOnUse" x="139" y="93" width="81" height="82">
<path d="M179.282 174.554C157.058 174.554 139.041 156.519 139.041 134.273C139.041 112.027 157.058 93.9922 179.282 93.9922C201.506 93.9922 219.522 112.027 219.522 134.273C219.522 156.519 201.506 174.554 179.282 174.554Z" fill="white"/>
</mask>
<g mask="url(#mask11_1322_575)">
<mask id="mask12_1322_575" style="mask-type:luminance" maskUnits="userSpaceOnUse" x="132" y="90" width="82" height="81">
<path d="M172.833 170.581C150.609 170.581 132.593 152.547 132.593 130.3C132.593 108.054 150.609 90.0195 172.833 90.0195C195.057 90.0195 213.073 108.054 213.073 130.3C213.073 152.547 195.057 170.581 172.833 170.581Z" fill="white"/>
</mask>
<g mask="url(#mask12_1322_575)">
<path d="M192.303 235.75C166.175 235.75 144.994 214.548 144.994 188.394C144.994 162.24 166.175 141.038 192.303 141.038C218.431 141.038 239.611 162.24 239.611 188.394C239.611 214.548 218.431 235.75 192.303 235.75Z" fill="white"/>
</g>
<path d="M160.443 155.097C161.079 153.186 158.811 151.639 157.264 152.929L155.781 154.166C155.422 154.466 154.968 154.63 154.5 154.63H151.024C149.92 154.63 149.024 155.526 149.024 156.63V165.044C149.024 166.148 149.92 167.044 151.024 167.044H155.023C155.884 167.044 156.648 166.492 156.92 165.676L160.443 155.097Z" fill="white"/>
</g>
<path d="M150.248 142.316C150.252 142.292 150.286 142.289 150.294 142.313V142.313C150.298 142.325 150.291 142.338 150.279 142.342V142.342C150.262 142.348 150.246 142.334 150.248 142.316V142.316Z" fill="#FFDE23"/>
<path d="M150.278 142.316C150.274 142.292 150.24 142.289 150.232 142.313V142.313C150.228 142.325 150.235 142.338 150.248 142.342V142.342C150.264 142.348 150.281 142.334 150.278 142.316V142.316Z" fill="#FFDE23"/>
<path d="M150.352 142.262C150.33 142.251 150.338 142.217 150.363 142.217V142.217C150.376 142.217 150.386 142.228 150.386 142.241V142.241C150.386 142.258 150.368 142.27 150.352 142.262V142.262Z" fill="#FFDE23"/>
<path d="M150.361 142.234C150.337 142.23 150.324 142.261 150.344 142.276V142.276C150.354 142.284 150.369 142.281 150.377 142.271V142.271C150.387 142.257 150.379 142.237 150.361 142.234V142.234Z" fill="#FFDE23"/>
<path d="M150.218 142.128C150.229 142.15 150.203 142.172 150.183 142.158V142.158C150.173 142.15 150.17 142.135 150.178 142.125V142.125C150.188 142.111 150.21 142.112 150.218 142.128V142.128Z" fill="#FFDE23"/>
<path d="M150.194 142.145C150.211 142.163 150.241 142.145 150.233 142.121V142.121C150.229 142.109 150.216 142.102 150.203 142.106V142.106C150.187 142.112 150.181 142.133 150.194 142.145V142.145Z" fill="#FFDE23"/>
<path d="M150.334 142.147C150.316 142.165 150.287 142.147 150.294 142.123V142.123C150.298 142.111 150.312 142.104 150.324 142.108V142.108C150.341 142.114 150.346 142.135 150.334 142.147V142.147Z" fill="#FFDE23"/>
<path d="M150.31 142.13C150.298 142.152 150.324 142.174 150.344 142.16V142.16C150.355 142.152 150.357 142.137 150.349 142.127V142.127C150.339 142.113 150.318 142.114 150.31 142.13V142.13Z" fill="#FFDE23"/>
<path d="M150.165 142.234C150.19 142.23 150.203 142.262 150.183 142.276V142.276C150.173 142.284 150.158 142.282 150.15 142.271V142.271C150.14 142.257 150.148 142.237 150.165 142.234V142.234Z" fill="#FFDE23"/>
<path d="M150.175 142.262C150.197 142.251 150.189 142.218 150.164 142.218V142.218C150.151 142.218 150.141 142.228 150.141 142.241V142.241C150.141 142.259 150.159 142.27 150.175 142.262V142.262Z" fill="#FFDE23"/>
<path d="M150.248 142.316C150.252 142.292 150.286 142.289 150.294 142.313V142.313C150.298 142.325 150.291 142.338 150.279 142.342V142.342C150.262 142.348 150.246 142.334 150.248 142.316V142.316Z" fill="#FFDE23"/>
<path d="M150.278 142.316C150.274 142.292 150.24 142.289 150.232 142.313V142.313C150.228 142.325 150.235 142.338 150.248 142.342V142.342C150.264 142.348 150.281 142.334 150.278 142.316V142.316Z" fill="#FFDE23"/>
<path d="M150.352 142.262C150.33 142.251 150.338 142.217 150.363 142.217V142.217C150.376 142.217 150.386 142.228 150.386 142.241V142.241C150.386 142.258 150.368 142.27 150.352 142.262V142.262Z" fill="#FFDE23"/>
<path d="M150.361 142.234C150.337 142.23 150.324 142.261 150.344 142.276V142.276C150.354 142.284 150.369 142.281 150.377 142.271V142.271C150.387 142.257 150.379 142.237 150.361 142.234V142.234Z" fill="#FFDE23"/>
<path d="M150.218 142.128C150.229 142.15 150.203 142.172 150.183 142.158V142.158C150.173 142.15 150.17 142.135 150.178 142.125V142.125C150.188 142.111 150.21 142.112 150.218 142.128V142.128Z" fill="#FFDE23"/>
<path d="M150.194 142.145C150.211 142.163 150.241 142.145 150.233 142.121V142.121C150.229 142.109 150.216 142.102 150.203 142.106V142.106C150.187 142.112 150.181 142.133 150.194 142.145V142.145Z" fill="#FFDE23"/>
<path d="M150.334 142.147C150.316 142.165 150.287 142.147 150.294 142.123V142.123C150.298 142.111 150.312 142.104 150.324 142.108V142.108C150.341 142.114 150.346 142.135 150.334 142.147V142.147Z" fill="#FFDE23"/>
<path d="M150.31 142.13C150.298 142.152 150.324 142.174 150.344 142.16V142.16C150.355 142.152 150.357 142.137 150.349 142.127V142.127C150.339 142.113 150.318 142.114 150.31 142.13V142.13Z" fill="#FFDE23"/>
<path d="M150.165 142.234C150.19 142.23 150.203 142.262 150.183 142.276V142.276C150.173 142.284 150.158 142.282 150.15 142.271V142.271C150.14 142.257 150.148 142.237 150.165 142.234V142.234Z" fill="#FFDE23"/>
<path d="M150.175 142.262C150.197 142.251 150.189 142.218 150.164 142.218V142.218C150.151 142.218 150.141 142.228 150.141 142.241V142.241C150.141 142.259 150.159 142.27 150.175 142.262V142.262Z" fill="#FFDE23"/>
<path d="M146.647 54.7812C147.545 52.0172 151.455 52.0172 152.353 54.7812L153.654 58.7832C154.055 60.0193 155.207 60.8561 156.507 60.8561H160.715C163.621 60.8561 164.829 64.575 162.478 66.2832L159.074 68.7566C158.022 69.5205 157.582 70.8746 157.984 72.1107L159.284 76.1127C160.182 78.8766 157.019 81.175 154.668 79.4668L151.263 76.9934C150.212 76.2295 148.788 76.2295 147.737 76.9934L144.332 79.4668C141.981 81.175 138.818 78.8766 139.716 76.1127L141.016 72.1107C141.418 70.8746 140.978 69.5205 139.926 68.7566L136.522 66.2832C134.171 64.575 135.379 60.8561 138.285 60.8561H142.493C143.793 60.8561 144.945 60.0193 145.346 58.7832L146.647 54.7812Z" fill="#FFB84F"/>
<path d="M100.935 71.9527C101.072 69.3407 104.471 68.4299 105.896 70.6235L107.417 72.9665C108.054 73.9475 109.251 74.4068 110.381 74.104L113.079 73.3809C115.606 72.704 117.522 75.6554 115.876 77.6881L114.118 79.8593C113.382 80.7683 113.315 82.048 113.952 83.029L115.474 85.3721C116.898 87.5657 114.683 90.3006 112.242 89.3633L109.633 88.3621C108.541 87.9429 107.304 88.2745 106.568 89.1836L104.809 91.3547C103.163 93.3874 99.8778 92.1262 100.015 89.5143L100.161 86.7243C100.222 85.5562 99.5243 84.4815 98.4322 84.0623L95.824 83.0611C93.3822 82.1238 93.5663 78.6094 96.0928 77.9324L98.7914 77.2094C99.9212 76.9066 100.728 75.9108 100.789 74.7427L100.935 71.9527Z" fill="#FFB84F"/>
<path d="M75.2016 109.322C73.0081 107.897 73.9189 104.498 76.5309 104.361L78.1385 104.277C79.3066 104.216 80.3024 103.409 80.6052 102.279L81.0218 100.724C81.6988 98.1979 85.2131 98.0137 86.1505 100.456L86.7274 101.958C87.1466 103.05 88.2213 103.748 89.3894 103.687L90.997 103.603C93.6089 103.466 94.8701 106.751 92.8374 108.397L91.5864 109.411C90.6773 110.147 90.3457 111.384 90.7649 112.476L91.3418 113.979C92.2791 116.421 89.5442 118.636 87.3506 117.211L86.0005 116.335C85.0195 115.698 83.7398 115.765 82.8308 116.501L81.5797 117.514C79.5471 119.16 76.5956 117.243 77.2726 114.717L77.6892 113.162C77.992 112.032 77.5327 110.836 76.5517 110.198L75.2016 109.322Z" fill="#FFB84F"/>
<path d="M198.113 71.9527C197.976 69.3407 194.577 68.4299 193.153 70.6235L191.631 72.9665C190.994 73.9475 189.798 74.4068 188.668 74.104L185.969 73.3809C183.443 72.704 181.526 75.6554 183.172 77.6881L184.93 79.8593C185.666 80.7683 185.733 82.048 185.096 83.029L183.575 85.3721C182.15 87.5657 184.365 90.3006 186.807 89.3633L189.415 88.3621C190.507 87.9429 191.745 88.2745 192.481 89.1836L194.239 91.3547C195.885 93.3874 199.171 92.1262 199.034 89.5143L198.887 86.7243C198.826 85.5562 199.524 84.4815 200.616 84.0623L203.224 83.0611C205.666 82.1238 205.482 78.6094 202.956 77.9324L200.257 77.2094C199.127 76.9066 198.321 75.9108 198.259 74.7427L198.113 71.9527Z" fill="#FFB84F"/>
<path d="M223.847 109.322C226.04 107.897 225.129 104.498 222.517 104.361L220.91 104.277C219.742 104.216 218.746 103.409 218.443 102.279L218.027 100.724C217.35 98.1979 213.835 98.0137 212.898 100.456L212.321 101.958C211.902 103.05 210.827 103.748 209.659 103.687L208.051 103.603C205.439 103.466 204.178 106.751 206.211 108.397L207.462 109.411C208.371 110.147 208.703 111.384 208.283 112.476L207.707 113.979C206.769 116.421 209.504 118.636 211.698 117.211L213.048 116.335C214.029 115.698 215.309 115.765 216.218 116.501L217.469 117.514C219.501 119.16 222.453 117.243 221.776 114.717L221.359 113.162C221.056 112.032 221.516 110.836 222.497 110.198L223.847 109.322Z" fill="#FFB84F"/>
</svg>
