<svg width="300" height="300" viewBox="0 0 300 300" fill="none" xmlns="http://www.w3.org/2000/svg">
<g clip-path="url(#clip0_118_1172)">
<rect width="300" height="300" fill="white"/>
<rect x="300" y="247" width="300" height="194" transform="rotate(-180 300 247)" fill="#3B9644"/>
<rect x="300" y="300" width="300" height="53" transform="rotate(-180 300 300)" fill="#FF4A4A"/>
<path fill-rule="evenodd" clip-rule="evenodd" d="M210.757 148.624C211.689 145.532 207.54 143.991 205.476 146.473C192.421 162.171 172.508 172.2 150.2 172.2C129.268 172.2 110.445 163.37 97.4177 149.313C95.2252 146.947 91.1791 148.704 92.2717 151.739C100.933 175.798 123.958 193 151 193C179.196 193 203.024 174.299 210.757 148.624Z" fill="#FFB84F"/>
<path d="M147.949 112.598C148.939 110.044 152.553 110.044 153.543 112.598L156.305 119.725C156.731 120.823 157.76 121.571 158.936 121.636L166.567 122.061C169.303 122.213 170.42 125.651 168.296 127.382L162.372 132.211C161.459 132.955 161.066 134.165 161.367 135.303L163.321 142.692C164.022 145.341 161.098 147.466 158.795 145.981L152.372 141.839C151.382 141.2 150.11 141.2 149.12 141.839L142.696 145.981C140.394 147.466 137.47 145.341 138.17 142.692L140.125 135.303C140.426 134.165 140.033 132.955 139.12 132.211L133.196 127.382C131.072 125.651 132.189 122.213 134.924 122.061L142.556 121.636C143.732 121.571 144.761 120.823 145.186 119.725L147.949 112.598Z" fill="#FFB84F"/>
<rect x="300" y="53" width="300" height="53" transform="rotate(-180 300 53)" fill="#FF4A4A"/>
</g>
<defs>
<clipPath id="clip0_118_1172">
<rect width="300" height="300" fill="white"/>
</clipPath>
</defs>
</svg>
