<svg width="300" height="300" viewBox="0 0 300 300" fill="none" xmlns="http://www.w3.org/2000/svg">
<g clip-path="url(#clip0)">
<rect width="300" height="300" fill="white"/>
<rect x="300" y="247" width="300" height="194" transform="rotate(-180 300 247)" fill="#3B9644"/>
<rect x="300" y="300" width="300" height="53" transform="rotate(-180 300 300)" fill="#FF4A4A"/>
<circle cx="151" cy="130.6" r="62.4" transform="rotate(-90 151 130.6)" fill="#FFB84F"/>
<ellipse cx="150.2" cy="102.6" rx="69.6" ry="71.2" transform="rotate(-90 150.2 102.6)" fill="#3B9644"/>
<path d="M150.28 106.584C150.445 106.158 151.047 106.158 151.212 106.584L156.888 121.228C156.959 121.411 157.13 121.536 157.326 121.547L173.008 122.419C173.464 122.445 173.65 123.018 173.296 123.306L161.122 133.229C160.97 133.353 160.905 133.555 160.955 133.745L164.971 148.928C165.088 149.37 164.6 149.724 164.217 149.476L151.017 140.965C150.852 140.859 150.64 140.859 150.475 140.965L137.276 149.476C136.892 149.724 136.404 149.37 136.521 148.928L140.537 133.745C140.587 133.555 140.522 133.353 140.37 133.229L128.196 123.306C127.842 123.018 128.028 122.445 128.484 122.419L144.166 121.547C144.362 121.536 144.533 121.411 144.604 121.228L150.28 106.584Z" fill="#FFB84F"/>
<rect x="300" y="53" width="300" height="53" transform="rotate(-180 300 53)" fill="#FF4A4A"/>
</g>
<defs>
<clipPath id="clip0">
<rect width="300" height="300" fill="white"/>
</clipPath>
</defs>
</svg>
