<svg width="300" height="300" viewBox="0 0 300 300" fill="none" xmlns="http://www.w3.org/2000/svg">
<g clip-path="url(#clip0_126_108)">
<rect width="300" height="300" fill="white"/>
<path d="M150 300L150 -3.05176e-05L300 -3.70743e-05L300 300L150 300Z" fill="#EF4B4B"/>
<path d="M43.5 73C40.7386 73 38.5 70.7614 38.5 68L38.5 14C38.5 11.2386 40.7386 9 43.5 9L48.5 9C51.2614 9 53.5 11.2386 53.5 14L53.5 68C53.5 70.7614 51.2614 73 48.5 73L43.5 73Z" fill="#BEBEBE"/>
<path d="M14 38.5C14 35.7386 16.2386 33.5 19 33.5L73 33.5C75.7614 33.5 78 35.7386 78 38.5V43.5C78 46.2614 75.7614 48.5 73 48.5L19 48.5C16.2386 48.5 14 46.2614 14 43.5L14 38.5Z" fill="#BEBEBE"/>
</g>
<defs>
<clipPath id="clip0_126_108">
<rect width="300" height="300" fill="white"/>
</clipPath>
</defs>
</svg>
