<svg width="300" height="300" viewBox="0 0 300 300" fill="none" xmlns="http://www.w3.org/2000/svg">
<g clip-path="url(#clip0_118_1240)">
<rect width="300" height="300" fill="white"/>
<rect x="300" y="38" width="300" height="38" transform="rotate(-180 300 38)" fill="#EF4B4B"/>
<rect x="659" y="75" width="818" height="36.9999" transform="rotate(-180 659 75)" fill="white"/>
<rect x="300" y="114" width="300" height="39" transform="rotate(-180 300 114)" fill="#EF4B4B"/>
<rect x="659" y="151" width="818" height="36.9999" transform="rotate(-180 659 151)" fill="white"/>
<rect x="300" y="188" width="300" height="37" transform="rotate(-180 300 188)" fill="#EF4B4B"/>
<rect x="659" y="227" width="818" height="38.9999" transform="rotate(-180 659 227)" fill="white"/>
<rect x="300" y="263" width="300" height="36" transform="rotate(-180 300 263)" fill="#EF4B4B"/>
<rect x="659" y="300" width="818" height="36.9999" transform="rotate(-180 659 300)" fill="white"/>
<rect x="150" y="151" width="150" height="151" transform="rotate(-180 150 151)" fill="#4F60FF"/>
<ellipse cx="70" cy="76.5" rx="54" ry="54.5" fill="#FFB84F"/>
<ellipse cx="81.5" cy="76" rx="47.5" ry="48" fill="#4F60FF"/>
<path d="M98.0229 55.9534C98.3685 53.6891 101.631 53.6891 101.977 55.9534L102.697 60.6678C102.954 62.3507 105.061 62.9637 106.181 61.681L109.301 58.1056C110.805 56.382 113.556 58.1251 112.64 60.2213L110.679 64.7107C110.001 66.2609 111.435 67.8996 113.061 67.4343L117.729 66.0992C119.923 65.4716 121.287 68.4172 119.39 69.685L115.247 72.4532C113.848 73.3881 114.158 75.5278 115.766 76.0263L120.512 77.4985C122.69 78.174 122.222 81.3833 119.942 81.4086L115.02 81.4632C113.334 81.4819 112.427 83.4505 113.507 84.7449L116.684 88.5495C118.148 90.3033 116.001 92.7455 114.074 91.5183L110.035 88.946C108.603 88.034 106.758 89.2086 106.978 90.8921L107.603 95.6806C107.9 97.951 104.767 98.8578 103.805 96.7799L101.815 92.4805C101.099 90.9341 98.9009 90.9341 98.185 92.4805L96.1947 96.7799C95.2328 98.8578 92.0999 97.951 92.3966 95.6806L93.0223 90.8921C93.2423 89.2086 91.3969 88.034 89.9648 88.946L85.9257 91.5183C83.9987 92.7455 81.8519 90.3033 83.3161 88.5496L86.4927 84.7449C87.5733 83.4505 86.6657 81.4819 84.9796 81.4632L80.0582 81.4086C77.7781 81.3833 77.31 78.174 79.4879 77.4985L84.2344 76.0263C85.8417 75.5278 86.1523 73.3881 84.7531 72.4532L80.6102 69.685C78.7129 68.4173 80.0775 65.4716 82.2714 66.0992L86.9385 67.4343C88.565 67.8996 89.9986 66.2609 89.3213 64.7107L87.3598 60.2213C86.4439 58.1252 89.1954 56.382 90.6994 58.1056L93.8193 61.681C94.9385 62.9637 97.0465 62.3507 97.3033 60.6678L98.0229 55.9534Z" fill="#FFB84F"/>
</g>
<defs>
<clipPath id="clip0_118_1240">
<rect width="300" height="300" fill="white"/>
</clipPath>
</defs>
</svg>
