<svg width="300" height="300" viewBox="0 0 300 300" fill="none" xmlns="http://www.w3.org/2000/svg">
<g clip-path="url(#clip0_1322_787)">
<rect width="300" height="300" fill="white"/>
<rect x="300" y="100" width="300" height="100" transform="rotate(-180 300 100)" fill="#0C726A"/>
<rect x="326.5" y="192.5" width="341" height="85" transform="rotate(-180 326.5 192.5)" fill="#252525" stroke="white" stroke-width="15"/>
<rect x="300" y="300" width="300" height="100" transform="rotate(-180 300 300)" fill="#FFB84F"/>
<path d="M-115.474 354.419C-121.446 358.85 -129.762 358.238 -135.02 352.98L-327.393 160.606C-333.251 154.748 -333.251 145.251 -327.393 139.393L-135.02 -52.9805C-129.762 -58.2383 -121.446 -58.8506 -115.474 -54.4196L143.767 137.954C151.849 143.952 151.849 156.049 143.767 162.046L-115.474 354.419Z" fill="#FF4A4A"/>
<path d="M51.8426 117.489C53.9381 111.04 63.0619 111.04 65.1574 117.489L70.287 133.277C71.2241 136.161 73.9118 138.113 76.9444 138.113H93.5441C100.325 138.113 103.145 146.791 97.6586 150.777L84.2291 160.534C81.7757 162.316 80.7491 165.476 81.6862 168.36L86.8158 184.147C88.9113 190.596 81.5299 195.959 76.0439 191.973L62.6145 182.216C60.1611 180.434 56.8389 180.434 54.3855 182.216L40.9561 191.973C35.4701 195.959 28.0887 190.596 30.1842 184.147L35.3138 168.36C36.2509 165.476 35.2243 162.316 32.7709 160.534L19.3414 150.777C13.8554 146.791 16.6749 138.113 23.4559 138.113H40.0556C43.0882 138.113 45.7759 136.161 46.713 133.277L51.8426 117.489Z" fill="#FFB84F"/>
<path fill-rule="evenodd" clip-rule="evenodd" d="M31.3973 174.483H53.5648C55.3483 176.484 59.3276 177.3 63.118 174.46C70.0661 170.655 83.5078 174.483 83.5078 174.483L86.1544 171.671L79.7026 150.496L77.3866 148.015C77.3866 148.015 72.4243 145.037 62.9943 146.03C53.5643 147.022 50.256 145.699 50.256 145.699C50.256 145.699 41.9849 146.692 39.6684 147.849C39.4144 148.055 37.0217 150.496 37.0217 150.496L31.3973 174.483Z" fill="white" stroke="#252525" stroke-width="1.575" stroke-linejoin="round"/>
<path d="M35.8641 169.024C35.8641 169.024 50.6332 167.178 59.0678 171.291C61.6321 172.542 61.1842 176.209 58.3346 176.346C58.0773 176.359 57.8208 176.356 57.5646 176.337C54.99 176.152 54.6901 173.104 56.9274 171.816C60.7024 169.644 67.7124 167.3 79.041 168.859" stroke="#252525" stroke-width="1.575" stroke-linecap="round" stroke-linejoin="round"/>
<path d="M58.5275 147.849L58.3622 171.175ZM77.3866 148.18L81.357 166.708ZM39.8872 147.889L37.6838 157.444Z" fill="#252525"/>
<path d="M58.5275 147.849L58.3622 171.175M77.3866 148.18L81.357 166.708M39.8872 147.889L37.6838 157.444" stroke="#252525" stroke-width="1.575" stroke-linecap="round" stroke-linejoin="round"/>
<path fill-rule="evenodd" clip-rule="evenodd" d="M17.3685 176.698C17.164 176.878 17.1419 177.189 17.3189 177.397L22.1595 183.073C22.1949 183.114 22.2368 183.15 22.2847 183.176C22.8428 183.484 23.3448 183.466 23.8448 183.176C23.8903 183.15 23.93 183.115 23.9636 183.074L31.6388 173.864L34.884 169.847C35.3177 169.333 35.4964 168.768 35.5084 168.24C35.512 168.084 35.5704 167.932 35.6869 167.828L41.6727 162.509C41.6937 162.491 41.7215 162.482 41.7494 162.484V162.484C41.8732 162.496 42.2562 161.893 42.3009 161.777C42.3315 161.698 42.3786 161.611 42.4445 161.518C42.4514 161.508 42.46 161.499 42.4694 161.492L43.4512 160.728C43.6691 160.558 43.9832 160.598 44.1528 160.816L44.6782 161.491C44.8234 161.678 44.818 161.941 44.6653 162.121L43.3777 163.643C43.2827 163.756 43.143 163.82 42.9959 163.82H41.7211C41.5971 163.82 41.4776 163.866 41.3857 163.95L38.6979 166.381C38.4768 166.581 38.4788 166.929 38.7022 167.127L39.6065 167.926C39.6689 167.981 39.7166 168.051 39.7451 168.129L41.6132 173.25C41.7261 173.56 42.1022 173.677 42.3713 173.487L44.1753 172.214C44.3484 172.091 44.4257 171.873 44.3682 171.67L42.8407 166.253C42.7935 166.086 42.8366 165.906 42.9545 165.778L46.2108 162.25C46.3653 162.083 46.3871 161.832 46.264 161.641L45.2701 160.095C45.1571 159.919 45.1653 159.692 45.2907 159.525L45.7331 158.935C45.8893 158.727 46.1731 158.669 46.3957 158.804C48.5414 160.105 59.0652 166.255 63.6066 164.558C63.7266 164.513 63.8194 164.424 63.8351 164.297C63.934 163.498 64.0376 160.369 64.0742 159.182C64.0822 158.92 63.8947 158.701 63.635 158.67C61.3049 158.398 50.7656 157.04 50.4903 154.704C50.2841 152.954 51.6551 152.233 52.5938 151.946C52.9592 151.834 53.158 151.38 52.9405 151.066L52.1604 149.94C52.0812 149.825 52.0575 149.682 52.0957 149.548V149.548C52.1998 149.184 52.6717 149.091 52.906 149.388L54.3408 151.206C54.5165 151.428 54.842 151.46 55.0578 151.276L59.5413 147.452C59.7493 147.274 60.0613 147.297 60.2416 147.502L90.5858 182.095C90.7261 182.255 90.9533 182.31 91.1486 182.225C92.4832 181.648 92.84 181.199 92.9655 179.815C92.9788 179.668 92.9425 179.534 92.8451 179.423C90.7631 177.039 65.9318 148.527 62.9833 145.142C62.8148 144.948 62.8313 144.672 63.0068 144.484L65.0155 142.342C65.4264 141.879 65.5977 141.655 65.6286 141.024C65.6357 140.88 65.6964 140.742 65.8055 140.647L68.9697 137.896C69.1044 137.779 69.2924 137.74 69.4574 137.808C70.1868 138.109 70.7241 138.552 71.1743 139.109C71.3617 139.341 71.7044 139.391 71.932 139.198L80.9246 131.578C81.1231 131.409 81.4263 131.42 81.6691 131.513C81.9985 131.64 82.4377 131.694 82.7867 131.535C82.8271 131.517 82.8627 131.49 82.8947 131.459L94.1987 120.609C94.6449 120.18 94.0692 119.483 93.564 119.84L81.6918 128.225C81.5145 128.35 81.2768 128.347 81.1033 128.217L80.9765 128.121C80.8506 128.027 80.7674 127.874 80.8259 127.728C80.9625 127.387 81.3021 127.169 80.7765 126.426C80.0926 125.605 79.0771 127.199 78.9227 127.199C78.8358 127.199 78.0383 126.931 77.2646 126.505C76.8146 126.257 75.7663 126.661 75.7352 127.174L75.6896 127.926C75.6818 128.054 75.6251 128.175 75.5312 128.262L71.3501 132.155C71.2518 132.247 71.1208 132.295 70.9866 132.289L68.0128 132.153C67.8752 132.147 67.7411 132.198 67.6422 132.294L62.9399 136.849C62.8822 136.905 62.8388 136.973 62.8135 137.05L62.2997 138.591C62.2577 138.717 62.2675 138.854 62.3268 138.973L62.8349 139.989C62.9363 140.192 62.8896 140.437 62.7189 140.586C62.0367 141.183 60.3796 142.619 60.3796 142.496C60.3796 142.404 60.1903 142.178 60.0329 141.997C59.9028 141.847 59.9212 141.659 60.0687 141.526L61.9606 139.822C62.0379 139.752 62.0915 139.66 62.1141 139.559L62.3434 138.527C62.3723 138.397 62.3482 138.261 62.2763 138.149L61.9225 137.597C61.7673 137.355 61.4573 137.313 61.2523 137.515C60.4701 138.285 58.779 139.989 58.4285 140.045C58.3856 140.052 58.356 140.008 58.3272 139.975L50.2062 130.801C50.0945 130.674 50.0538 130.5 50.0982 130.338L50.4177 129.165C50.4629 129 50.4197 128.822 50.3035 128.696L45.3224 123.274C45.2663 123.213 45.1964 123.167 45.1175 123.141C43.2107 122.521 40.3173 122.495 39.6859 126.502C39.6779 126.553 39.664 126.606 39.6338 126.648C39.0667 127.437 35.9076 126.873 35.2955 126.755C35.2274 126.742 35.1578 126.743 35.0899 126.757L33.2206 127.158C33.0977 127.184 32.9892 127.256 32.9167 127.359L21.0431 144.192C20.9129 144.377 20.9226 144.626 21.067 144.8L27.2267 152.22C27.4299 152.464 27.8068 152.46 28.0039 152.21L41.4347 135.198C41.4956 135.121 41.5324 135.027 41.5405 134.929L41.8452 131.248C41.8814 130.81 42.4236 130.628 42.7162 130.956L44.7349 133.213C44.815 133.303 44.9247 133.361 45.0441 133.374C45.8222 133.462 46.5704 133.462 47.2893 133.196C47.5013 133.117 47.7452 133.16 47.8961 133.328L55.5602 141.882C55.739 142.082 55.7287 142.387 55.537 142.574L54.8548 143.24C54.6615 143.428 54.6529 143.736 54.8356 143.935L55.4648 144.621C55.6314 144.803 55.9056 144.836 56.1047 144.691C56.3245 144.531 56.5419 144.363 56.7616 144.203C56.9621 144.056 57.2354 144.101 57.3764 144.305V144.305C57.5384 144.54 57.4659 144.875 57.2303 145.036C56.8393 145.303 56.492 145.597 56.0832 145.853C55.9274 145.951 55.7291 145.942 55.5774 145.838C54.8863 145.365 54.2438 144.81 53.9306 144.084C53.7573 143.683 53.1867 143.417 52.8508 143.697L49.2353 146.71C49.1475 146.783 49.0874 146.884 49.065 146.996L48.9799 147.422C48.9575 147.534 48.8973 147.636 48.8093 147.709L35.3052 158.937C35.2318 158.998 35.1424 159.036 35.0477 159.048L34.3575 159.135C34.1236 159.164 33.9419 159.353 33.9215 159.587L33.7511 161.549C33.7127 161.991 34.2262 162.26 34.568 161.977L42.4594 155.447C42.5548 155.368 42.61 155.25 42.61 155.127V155.113C42.61 154.766 43.0143 154.577 43.2806 154.799V154.799C43.4298 154.923 43.646 154.925 43.7978 154.804L50.0875 149.773C50.3079 149.596 50.641 149.632 50.7739 149.881C50.8299 149.986 50.8562 150.068 50.7999 150.068C50.658 150.068 45.5304 154.79 44.7246 155.533C44.653 155.599 44.6059 155.681 44.5823 155.776L44.5028 156.094C44.4777 156.195 44.4219 156.285 44.3431 156.352L43.6734 156.927C43.5035 157.072 43.2553 157.08 43.0763 156.946V156.946C42.8948 156.81 42.6425 156.821 42.4729 156.971L34.5621 164.003C34.4706 164.084 34.3524 164.129 34.23 164.129H33.3913C33.2587 164.129 33.1315 164.182 33.0378 164.276L28.6775 168.637C28.5943 168.72 28.4843 168.771 28.3672 168.782C27.2473 168.884 26.2652 169.031 25.3035 169.692L17.3685 176.698Z" fill="#252525" stroke="#252525" stroke-width="1.575" stroke-linejoin="round"/>
</g>
<defs>
<clipPath id="clip0_1322_787">
<rect width="300" height="300" fill="white"/>
</clipPath>
</defs>
</svg>
