<svg width="300" height="300" viewBox="0 0 300 300" fill="none" xmlns="http://www.w3.org/2000/svg">
<g clip-path="url(#clip0_118_1149)">
<rect width="300" height="300" fill="white"/>
<rect x="309.869" y="-25.0811" width="485.991" height="227.066" transform="rotate(135 309.869 -25.0811)" fill="#003EBA"/>
<rect x="473.208" y="153.56" width="485.991" height="227.066" transform="rotate(135 473.208 153.56)" fill="#3B9644"/>
<rect x="345.291" y="4.86865" width="505.297" height="74" transform="rotate(135 345.291 4.86865)" fill="#EF4B4B" stroke="white" stroke-width="9"/>
<path d="M65.1945 34.728C66.0305 31.2559 70.9695 31.2559 71.8055 34.728L72.5531 37.833C73.184 40.4531 76.467 41.3327 78.3234 39.3791L80.5233 37.064C82.9834 34.4751 87.2607 36.9446 86.2486 40.3695L85.3436 43.4322C84.58 46.0168 86.9832 48.42 89.5677 47.6564L92.6305 46.7514C96.0554 45.7393 98.5249 50.0166 95.936 52.4767L93.6209 54.6766C91.6673 56.533 92.5469 59.816 95.167 60.4468L98.272 61.1945C101.744 62.0305 101.744 66.9695 98.272 67.8055L95.167 68.5531C92.5469 69.184 91.6673 72.467 93.6209 74.3234L95.936 76.5233C98.5249 78.9834 96.0554 83.2607 92.6305 82.2486L89.5678 81.3436C86.9832 80.58 84.58 82.9832 85.3436 85.5677L86.2486 88.6305C87.2607 92.0554 82.9834 94.5249 80.5233 91.936L78.3234 89.6209C76.467 87.6673 73.184 88.5469 72.5532 91.167L71.8055 94.272C70.9695 97.744 66.0305 97.7441 65.1945 94.272L64.4469 91.167C63.816 88.5469 60.533 87.6673 58.6766 89.6209L56.4767 91.936C54.0166 94.5249 49.7393 92.0554 50.7514 88.6305L51.6564 85.5678C52.42 82.9832 50.0168 80.58 47.4323 81.3436L44.3695 82.2486C40.9446 83.2607 38.4751 78.9834 41.064 76.5233L43.3791 74.3234C45.3327 72.467 44.4531 69.184 41.833 68.5532L38.728 67.8055C35.2559 66.9695 35.2559 62.0305 38.728 61.1945L41.833 60.4469C44.4531 59.816 45.3327 56.533 43.3791 54.6766L41.064 52.4767C38.4751 50.0166 40.9446 45.7393 44.3695 46.7514L47.4322 47.6564C50.0168 48.42 52.42 46.0168 51.6564 43.4323L50.7514 40.3695C49.7393 36.9446 54.0166 34.4751 56.4767 37.064L58.6766 39.3791C60.533 41.3327 63.816 40.4531 64.4468 37.833L65.1945 34.728Z" fill="#FFB84F"/>
<circle cx="68" cy="64" r="17.6" stroke="#003EBA" stroke-width="2.8"/>
</g>
<defs>
<clipPath id="clip0_118_1149">
<rect width="300" height="300" fill="white"/>
</clipPath>
</defs>
</svg>
