<svg width="300" height="300" viewBox="0 0 300 300" fill="none" xmlns="http://www.w3.org/2000/svg">
<g clip-path="url(#clip0_118_1149)">
<rect width="300" height="300" fill="white"/>
<rect x="309.869" y="-25.0811" width="485.991" height="227.066" transform="rotate(135 309.869 -25.0811)" fill="#003EBA"/>
<rect x="473.208" y="153.56" width="485.991" height="227.066" transform="rotate(135 473.208 153.56)" fill="#3B9644"/>
<rect x="345.291" y="4.86865" width="505.297" height="74" transform="rotate(135 345.291 4.86865)" fill="#EF4B4B" stroke="white" stroke-width="9"/>
<path d="M65.5834 33.113C66.321 30.0494 70.679 30.0494 71.4166 33.113L72.7253 38.5481C73.282 40.8599 76.1787 41.6361 77.8167 39.9123L81.6676 35.8597C83.8383 33.5754 87.6124 35.7544 86.7194 38.7764L85.1352 44.1376C84.4614 46.4181 86.5819 48.5386 88.8624 47.8648L94.2236 46.2806C97.2456 45.3876 99.4246 49.1617 97.1403 51.3324L93.0877 55.1833C91.3639 56.8213 92.1401 59.718 94.4519 60.2747L99.887 61.5834C102.951 62.321 102.951 66.679 99.887 67.4166L94.4519 68.7253C92.1401 69.282 91.3639 72.1787 93.0877 73.8167L97.1403 77.6676C99.4246 79.8383 97.2456 83.6124 94.2236 82.7194L88.8624 81.1352C86.5819 80.4614 84.4614 82.5819 85.1352 84.8624L86.7194 90.2236C87.6124 93.2456 83.8383 95.4246 81.6676 93.1403L77.8167 89.0877C76.1787 87.3639 73.282 88.1401 72.7253 90.4519L71.4166 95.887C70.679 98.9506 66.321 98.9506 65.5834 95.887L64.2747 90.4519C63.718 88.1401 60.8213 87.3639 59.1833 89.0877L55.3324 93.1403C53.1617 95.4246 49.3876 93.2456 50.2806 90.2236L51.8648 84.8624C52.5386 82.5819 50.4181 80.4614 48.1376 81.1352L42.7764 82.7194C39.7544 83.6124 37.5754 79.8383 39.8597 77.6676L43.9123 73.8167C45.6361 72.1787 44.8599 69.282 42.5481 68.7253L37.113 67.4166C34.0494 66.679 34.0494 62.321 37.113 61.5834L42.5481 60.2747C44.8599 59.718 45.6361 56.8213 43.9123 55.1833L39.8597 51.3324C37.5754 49.1617 39.7544 45.3876 42.7764 46.2806L48.1376 47.8648C50.4181 48.5386 52.5386 46.4181 51.8648 44.1376L50.2806 38.7764C49.3876 35.7544 53.1617 33.5754 55.3324 35.8597L59.1833 39.9123C60.8213 41.6361 63.718 40.8599 64.2747 38.5481L65.5834 33.113Z" fill="#FFB84F"/>
<circle cx="68" cy="64" r="17.6" stroke="#003EBA" stroke-width="2.8"/>
</g>
<defs>
<clipPath id="clip0_118_1149">
<rect width="300" height="300" fill="white"/>
</clipPath>
</defs>
</svg>
