<svg width="300" height="300" viewBox="0 0 300 300" fill="none" xmlns="http://www.w3.org/2000/svg">
<g clip-path="url(#clip0)">
<rect width="300" height="300" fill="white"/>
<rect x="309.869" y="-25.0811" width="485.991" height="227.066" transform="rotate(135 309.869 -25.0811)" fill="#003EBA"/>
<rect x="473.208" y="153.56" width="485.991" height="227.066" transform="rotate(135 473.208 153.56)" fill="#3B9644"/>
<rect x="345.291" y="4.86865" width="505.297" height="74" transform="rotate(135 345.291 4.86865)" fill="#EF4B4B" stroke="white" stroke-width="9"/>
<path d="M67.5278 25.0377C67.7737 24.0165 69.2263 24.0165 69.4722 25.0377L73.5863 42.1235C73.7718 42.8942 74.7374 43.1529 75.2834 42.5783L87.3892 29.8385C88.1128 29.0771 89.3708 29.8034 89.0731 30.8107L84.0931 47.6646C83.8684 48.4247 84.5753 49.1316 85.3354 48.9069L102.189 43.9269C103.197 43.6292 103.923 44.8872 103.161 45.6108L90.4217 57.7166C89.8471 58.2626 90.1058 59.2282 90.8764 59.4137L107.962 63.5278C108.984 63.7737 108.984 65.2263 107.962 65.4722L90.8764 69.5863C90.1058 69.7718 89.8471 70.7374 90.4217 71.2834L103.161 83.3892C103.923 84.1128 103.197 85.3708 102.189 85.0731L85.3354 80.0931C84.5753 79.8684 83.8684 80.5753 84.0931 81.3354L89.0731 98.1893C89.3708 99.1966 88.1128 99.9229 87.3892 99.1615L75.2834 86.4217C74.7374 85.8471 73.7718 86.1058 73.5863 86.8764L69.4722 103.962C69.2263 104.984 67.7737 104.984 67.5278 103.962L63.4137 86.8764C63.2282 86.1058 62.2626 85.8471 61.7166 86.4217L49.6108 99.1615C48.8872 99.9229 47.6292 99.1966 47.9269 98.1893L52.9069 81.3354C53.1316 80.5753 52.4247 79.8684 51.6646 80.0931L34.8107 85.0731C33.8034 85.3708 33.0771 84.1128 33.8385 83.3892L46.5783 71.2834C47.1529 70.7374 46.8942 69.7718 46.1236 69.5863L29.0377 65.4722C28.0165 65.2263 28.0165 63.7737 29.0377 63.5278L46.1235 59.4137C46.8942 59.2282 47.1529 58.2626 46.5783 57.7166L33.8385 45.6108C33.0771 44.8872 33.8034 43.6292 34.8107 43.9269L51.6646 48.9069C52.4247 49.1316 53.1316 48.4247 52.9069 47.6646L47.9269 30.8107C47.6292 29.8034 48.8872 29.0771 49.6108 29.8385L61.7166 42.5783C62.2626 43.1529 63.2282 42.8942 63.4137 42.1236L67.5278 25.0377Z" fill="#FFB84F"/>
<circle cx="68" cy="64" r="17.6" stroke="#003EBA" stroke-width="2.8"/>
</g>
<defs>
<clipPath id="clip0">
<rect width="300" height="300" fill="white"/>
</clipPath>
</defs>
</svg>
