<svg width="300" height="300" viewBox="0 0 300 300" fill="none" xmlns="http://www.w3.org/2000/svg">
<g clip-path="url(#clip0_118_1158)">
<rect width="300" height="300" fill="white"/>
<rect x="300" y="100" width="300" height="100" transform="rotate(-180 300 100)" fill="#3661F6"/>
<rect x="300" y="300" width="300" height="100" transform="rotate(-180 300 300)" fill="#3661F6"/>
<path d="M178.945 170L152.531 124.25C151.184 121.917 147.816 121.917 146.469 124.25L120.055 170C118.708 172.333 120.392 175.25 123.086 175.25H175.914C178.608 175.25 180.292 172.333 178.945 170Z" fill="#86C5FF" stroke="#FFB84F" stroke-width="3"/>
<mask id="mask0_118_1158" style="mask-type:alpha" maskUnits="userSpaceOnUse" x="121" y="124" width="57" height="50">
<path d="M147.768 125C148.538 123.667 150.462 123.667 151.232 125L177.646 170.75C178.416 172.083 177.453 173.75 175.914 173.75H123.086C121.547 173.75 120.584 172.083 121.354 170.75L147.768 125Z" fill="#86C5FF"/>
</mask>
<g mask="url(#mask0_118_1158)">
<path d="M145.5 162C133.5 165.2 120.5 159.333 115.5 156L108 179H191L184 165.5C176.167 163 157.5 158.8 145.5 162Z" fill="#4DBB58"/>
</g>
</g>
<defs>
<clipPath id="clip0_118_1158">
<rect width="300" height="300" fill="white"/>
</clipPath>
</defs>
</svg>
