<svg width="300" height="300" viewBox="0 0 300 300" fill="none" xmlns="http://www.w3.org/2000/svg">
<g clip-path="url(#clip0_1322_553)">
<rect width="300" height="300" fill="#3B9644"/>
<rect x="500" y="300" width="500" height="300" transform="rotate(-180 500 300)" fill="white"/>
<rect x="300" y="300" width="300" height="300" transform="rotate(-180 300 300)" fill="white"/>
<path d="M20.602 13.9065L227.979 104.461C239.399 109.448 235.839 126.5 223.377 126.5H146.752C127.74 126.5 118.97 150.136 133.38 162.538L264.383 275.284C272.466 282.241 267.546 295.5 256.881 295.5H16C9.64873 295.5 4.5 290.351 4.5 284V24.4456C4.5 16.1558 13.005 10.5892 20.602 13.9065Z" fill="#EF4B4B" stroke="#003EBA" stroke-width="9"/>
<path d="M73.1364 174.8C75.0451 171.388 79.9549 171.388 81.8636 174.8L83.5976 177.9C84.9717 180.356 88.1015 181.194 90.5196 179.754L93.571 177.937C96.9299 175.937 101.182 178.392 101.129 182.301L101.081 185.852C101.043 188.666 103.334 190.957 106.148 190.919L109.699 190.871C113.608 190.818 116.063 195.07 114.063 198.429L112.246 201.48C110.806 203.899 111.644 207.028 114.1 208.402L117.2 210.136C120.612 212.045 120.612 216.955 117.2 218.864L114.1 220.598C111.644 221.972 110.806 225.101 112.246 227.52L114.063 230.571C116.063 233.93 113.608 238.182 109.699 238.129L106.148 238.081C103.334 238.043 101.043 240.334 101.081 243.148L101.129 246.699C101.182 250.608 96.9299 253.063 93.571 251.063L90.5196 249.246C88.1015 247.806 84.9717 248.644 83.5976 251.1L81.8636 254.2C79.9549 257.612 75.0451 257.612 73.1364 254.2L71.4024 251.1C70.0283 248.644 66.8985 247.806 64.4804 249.246L61.429 251.063C58.0701 253.063 53.8181 250.608 53.871 246.699L53.9191 243.148C53.9572 240.334 51.6661 238.043 48.8519 238.081L45.3006 238.129C41.3915 238.182 38.9366 233.93 40.937 230.571L42.7543 227.52C44.1944 225.101 43.3558 221.972 40.8996 220.598L37.8 218.864C34.3882 216.955 34.3882 212.045 37.8 210.136L40.8996 208.402C43.3558 207.028 44.1944 203.899 42.7543 201.48L40.937 198.429C38.9366 195.07 41.3915 190.818 45.3006 190.871L48.8519 190.919C51.6661 190.957 53.9572 188.666 53.9191 185.852L53.871 182.301C53.8181 178.392 58.0701 175.937 61.429 177.937L64.4804 179.754C66.8985 181.194 70.0283 180.356 71.4024 177.9L73.1364 174.8Z" fill="white"/>
<path d="M73.1626 80.274C73.8562 78.6605 76.1438 78.6606 76.8374 80.274L78.5393 84.2329C79.0746 85.4779 80.667 85.8414 81.6895 84.9519L84.9405 82.1235C86.2655 80.9708 88.3265 81.9633 88.2514 83.7179L88.0671 88.0232C88.0091 89.3772 89.2862 90.3956 90.5933 90.0378L94.7496 88.9001C96.4435 88.4364 97.8698 90.2249 97.0408 91.7732L95.0068 95.5721C94.3671 96.7668 95.0758 98.2385 96.4087 98.4833L100.647 99.2616C102.374 99.5788 102.883 101.809 101.465 102.844L97.9839 105.384C96.8891 106.183 96.8891 107.817 97.9839 108.616L101.465 111.156C102.883 112.191 102.374 114.421 100.647 114.738L96.4087 115.517C95.0758 115.762 94.3671 117.233 95.0068 118.428L97.0408 122.227C97.8698 123.775 96.4435 125.564 94.7496 125.1L90.5933 123.962C89.2862 123.604 88.0091 124.623 88.0671 125.977L88.2514 130.282C88.3265 132.037 86.2655 133.029 84.9405 131.877L81.6894 129.048C80.667 128.159 79.0746 128.522 78.5393 129.767L76.8374 133.726C76.1438 135.339 73.8562 135.339 73.1626 133.726L71.4607 129.767C70.9254 128.522 69.333 128.159 68.3105 129.048L65.0595 131.877C63.7345 133.029 61.6735 132.037 61.7486 130.282L61.9329 125.977C61.9909 124.623 60.7138 123.604 59.4067 123.962L55.2504 125.1C53.5565 125.564 52.1302 123.775 52.9592 122.227L54.9932 118.428C55.6329 117.233 54.9242 115.762 53.5913 115.517L49.3529 114.738C47.6256 114.421 47.1166 112.191 48.5352 111.156L52.0161 108.616C53.1109 107.817 53.1109 106.183 52.0161 105.384L48.5352 102.844C47.1166 101.809 47.6256 99.5788 49.353 99.2616L53.5913 98.4832C54.9242 98.2385 55.6329 96.7668 54.9932 95.5721L52.9592 91.7732C52.1302 90.2249 53.5565 88.4364 55.2504 88.9001L59.4067 90.0378C60.7138 90.3956 61.9909 89.3772 61.9329 88.0232L61.7486 83.7179C61.6735 81.9633 63.7345 80.9708 65.0595 82.1235L68.3106 84.9519C69.333 85.8414 70.9254 85.4779 71.4607 84.2329L73.1626 80.274Z" fill="white"/>
<rect x="21" y="110" width="92" height="28" fill="#EF4B4B"/>
<path d="M38.4275 74.0847C38.6607 73.2665 39.8679 73.5465 39.8679 74.3974V74.3974C39.8679 93.6245 55.5971 109.211 75 109.211C94.4029 109.211 110.132 93.6245 110.132 74.3974V74.3974C110.132 73.5465 111.339 73.2665 111.573 74.0847C112.502 77.3463 113 80.7877 113 84.3442C113 105.141 95.9868 122 75 122C54.0132 122 37 105.141 37 84.3442C37 80.7877 37.4976 77.3463 38.4275 74.0847Z" fill="white"/>
</g>
<defs>
<clipPath id="clip0_1322_553">
<rect width="300" height="300" fill="white"/>
</clipPath>
</defs>
</svg>
