<svg width="300" height="300" viewBox="0 0 300 300" fill="none" xmlns="http://www.w3.org/2000/svg">
<g clip-path="url(#clip0_116_0)">
<rect width="300" height="300" fill="white"/>
<rect x="300" y="300" width="300" height="300" transform="rotate(-180 300 300)" fill="#3661F6"/>
<rect x="300" y="166" width="300" height="32" transform="rotate(-180 300 166)" fill="#FFB84F"/>
<path d="M79.5301 181.766C79.9715 178.948 84.0285 178.948 84.4699 181.766L85.6746 189.456C86.0102 191.598 88.728 192.326 90.0899 190.639L94.9781 184.582C96.7691 182.362 100.283 184.391 99.2561 187.051L96.4544 194.313C95.6739 196.337 97.6634 198.326 99.6867 197.546L106.949 194.744C109.609 193.717 111.638 197.231 109.418 199.022L103.361 203.91C101.674 205.272 102.402 207.99 104.544 208.325L112.234 209.53C115.052 209.972 115.052 214.028 112.234 214.47L104.544 215.675C102.402 216.01 101.674 218.728 103.361 220.09L109.418 224.978C111.638 226.769 109.609 230.283 106.949 229.256L99.6867 226.454C97.6634 225.674 95.6739 227.663 96.4544 229.687L99.2561 236.949C100.283 239.609 96.7691 241.638 94.9781 239.418L90.0899 233.361C88.728 231.674 86.0102 232.402 85.6746 234.544L84.4699 242.234C84.0285 245.052 79.9715 245.052 79.5301 242.234L78.3254 234.544C77.9898 232.402 75.272 231.674 73.9101 233.361L69.0219 239.418C67.2309 241.638 63.7175 239.609 64.7439 236.949L67.5455 229.687C68.3261 227.663 66.3366 225.674 64.3133 226.454L57.0514 229.256C54.3907 230.283 52.3622 226.769 54.5815 224.978L60.6387 220.09C62.3264 218.728 61.5982 216.01 59.4556 215.675L51.7658 214.47C48.9484 214.028 48.9484 209.972 51.7659 209.53L59.4556 208.325C61.5982 207.99 62.3264 205.272 60.6387 203.91L54.5815 199.022C52.3622 197.231 54.3907 193.717 57.0514 194.744L64.3133 197.546C66.3366 198.326 68.3261 196.337 67.5455 194.313L64.7439 187.051C63.7175 184.391 67.2309 182.362 69.0219 184.582L73.9101 190.639C75.272 192.326 77.9898 191.598 78.3254 189.456L79.5301 181.766Z" fill="white"/>
</g>
<defs>
<clipPath id="clip0_116_0">
<rect width="300" height="300" fill="white"/>
</clipPath>
</defs>
</svg>
