<svg width="300" height="300" viewBox="0 0 300 300" fill="none" xmlns="http://www.w3.org/2000/svg">
<g clip-path="url(#clip0)">
<rect width="300" height="300" fill="white"/>
<rect x="300" y="300" width="300" height="300" transform="rotate(-180 300 300)" fill="#3661F6"/>
<rect x="300" y="166" width="300" height="32" transform="rotate(-180 300 166)" fill="#FFB84F"/>
<path d="M81.0121 172.306C81.1886 171.179 82.8114 171.179 82.9879 172.306L86.1984 192.799C86.3326 193.656 87.4197 193.948 87.9645 193.272L100.991 177.13C101.708 176.243 103.113 177.054 102.702 178.118L95.2363 197.471C94.924 198.28 95.7199 199.076 96.5292 198.764L115.882 191.298C116.946 190.887 117.757 192.292 116.87 193.009L100.728 206.035C100.052 206.58 100.344 207.667 101.201 207.802L121.694 211.012C122.821 211.189 122.821 212.811 121.694 212.988L101.201 216.198C100.344 216.333 100.052 217.42 100.728 217.965L116.87 230.991C117.757 231.708 116.946 233.113 115.882 232.702L96.5292 225.236C95.7199 224.924 94.924 225.72 95.2363 226.529L102.702 245.882C103.113 246.946 101.708 247.757 100.991 246.87L87.9645 230.728C87.4197 230.052 86.3326 230.344 86.1984 231.201L82.9879 251.694C82.8114 252.821 81.1886 252.821 81.0121 251.694L77.8016 231.201C77.6674 230.344 76.5803 230.052 76.0355 230.728L63.0088 246.87C62.2924 247.757 60.887 246.946 61.2976 245.882L68.7637 226.529C69.076 225.72 68.2801 224.924 67.4708 225.236L48.1183 232.702C47.054 233.113 46.2426 231.708 47.1303 230.991L63.2724 217.965C63.9475 217.42 63.6562 216.333 62.7992 216.198L42.3063 212.988C41.1794 212.811 41.1794 211.189 42.3063 211.012L62.7992 207.802C63.6562 207.667 63.9475 206.58 63.2724 206.035L47.1303 193.009C46.2426 192.292 47.054 190.887 48.1183 191.298L67.4708 198.764C68.2801 199.076 69.076 198.28 68.7637 197.471L61.2976 178.118C60.887 177.054 62.2924 176.243 63.0088 177.13L76.0355 193.272C76.5803 193.948 77.6674 193.656 77.8016 192.799L81.0121 172.306Z" fill="white"/>
</g>
<defs>
<clipPath id="clip0">
<rect width="300" height="300" fill="white"/>
</clipPath>
</defs>
</svg>
