<svg width="300" height="300" viewBox="0 0 300 300" fill="none" xmlns="http://www.w3.org/2000/svg">
<g clip-path="url(#clip0_121_12)">
<rect width="300" height="300" fill="#FFB84F"/>
<rect x="300" y="300" width="300" height="300" transform="rotate(-180 300 300)" fill="#FFB84F"/>
<mask id="mask0_121_12" style="mask-type:alpha" maskUnits="userSpaceOnUse" x="0" y="0" width="137" height="83">
<rect x="137" y="82.2002" width="137" height="82.2" transform="rotate(-180 137 82.2002)" fill="#3662D5"/>
</mask>
<g mask="url(#mask0_121_12)">
<rect x="137" y="82.2002" width="137" height="82.2" transform="rotate(-180 137 82.2002)" fill="#3662D5"/>
<rect x="-15.5999" y="80.1401" width="235.649" height="16.5549" transform="rotate(-30 -15.5999 80.1401)" fill="white"/>
<rect width="235.649" height="16.5549" transform="matrix(-0.866025 -0.5 -0.5 0.866025 182.215 97.5483)" fill="white"/>
<rect x="-0.478109" y="0.128109" width="94.0374" height="7.94375" transform="matrix(-0.866025 -0.5 -0.5 0.866025 152.982 80.927)" fill="#EF4B4B" stroke="white" stroke-width="0.7"/>
<rect x="-2.9519" y="0.790958" width="90.4155" height="4.32188" transform="matrix(-0.866025 -0.5 -0.5 0.866025 61.2519 38.6007)" fill="#EF4B4B" stroke="white" stroke-width="4.32188"/>
<rect x="-0.478109" y="0.128109" width="94.0374" height="7.94375" transform="matrix(-0.866025 -0.5 -0.5 0.866025 65.5366 39.7488)" fill="#EF4B4B" stroke="white" stroke-width="0.7"/>
<rect x="57.7442" y="38.4548" width="94.0374" height="7.94375" transform="rotate(-30 57.7442 38.4548)" fill="#EF4B4B" stroke="white" stroke-width="0.7"/>
<rect x="-20.3459" y="92.4328" width="114.437" height="7.94375" transform="rotate(-30 -20.3459 92.4328)" fill="#EF4B4B" stroke="white" stroke-width="0.7"/>
<rect x="-1.5" y="1.5" width="232.649" height="13.5549" transform="matrix(-1 8.74228e-08 8.74228e-08 1 191.001 32.8799)" fill="#EF4B4B" stroke="white" stroke-width="3"/>
<rect x="-4.11" y="-4.11" width="73.98" height="8.22" transform="matrix(1.19249e-08 -1 -1 -1.19249e-08 68.5002 27.1262)" fill="#EF4B4B" stroke="white" stroke-width="8.22"/>
<rect x="-4.11" y="-4.11" width="73.98" height="8.22" transform="matrix(1.19249e-08 -1 -1 -1.19249e-08 68.5002 121.108)" fill="#EF4B4B" stroke="white" stroke-width="8.22"/>
<rect width="95" height="11" transform="matrix(1.19249e-08 -1 -1 -1.19249e-08 74 93)" fill="#EF4B4B"/>
</g>
<circle cx="68.5" cy="41" r="11.5" fill="#3662D4"/>
<path d="M67.0734 33.3906C67.5224 32.0086 69.4776 32.0086 69.9266 33.3906L70.8574 36.2553C71.0582 36.8734 71.6341 37.2918 72.284 37.2918H75.2962C76.7492 37.2918 77.3534 39.1512 76.1778 40.0053L73.7409 41.7758C73.2152 42.1578 72.9952 42.8348 73.196 43.4529L74.1268 46.3176C74.5759 47.6996 72.9941 48.8488 71.8186 47.9947L69.3817 46.2242C68.8559 45.8422 68.1441 45.8422 67.6183 46.2242L65.1814 47.9947C64.0059 48.8488 62.4241 47.6996 62.8732 46.3176L63.804 43.4529C64.0048 42.8348 63.7848 42.1578 63.2591 41.7758L60.8222 40.0053C59.6466 39.1512 60.2508 37.2918 61.7038 37.2918H64.716C65.3659 37.2918 65.9418 36.8734 66.1426 36.2553L67.0734 33.3906Z" fill="#FFB84F"/>
<path d="M28.8112 37.6588C29.1854 36.5072 30.8146 36.5072 31.1888 37.6588L31.291 37.9732C31.4583 38.4882 31.9382 38.8369 32.4798 38.8369H32.8103C34.0212 38.8369 34.5247 40.3864 33.545 41.0982L33.2776 41.2924C32.8395 41.6107 32.6562 42.1749 32.8235 42.69L32.9257 43.0043C33.2999 44.1559 31.9818 45.1136 31.0021 44.4018L30.7347 44.2076C30.2966 43.8893 29.7034 43.8893 29.2653 44.2076L28.9979 44.4018C28.0182 45.1136 26.7001 44.1559 27.0743 43.0043L27.1765 42.69C27.3438 42.1749 27.1605 41.6107 26.7224 41.2924L26.455 41.0982C25.4753 40.3864 25.9788 38.8369 27.1897 38.8369H27.5202C28.0618 38.8369 28.5417 38.4882 28.709 37.9732L28.8112 37.6588Z" fill="#FFB84F"/>
<path d="M104.811 37.6588C105.185 36.5072 106.815 36.5072 107.189 37.6588L107.291 37.9732C107.458 38.4882 107.938 38.8369 108.48 38.8369H108.81C110.021 38.8369 110.525 40.3864 109.545 41.0982L109.278 41.2924C108.84 41.6107 108.656 42.1749 108.824 42.69L108.926 43.0043C109.3 44.1559 107.982 45.1136 107.002 44.4018L106.735 44.2076C106.297 43.8893 105.703 43.8893 105.265 44.2076L104.998 44.4018C104.018 45.1136 102.7 44.1559 103.074 43.0043L103.176 42.69C103.344 42.1749 103.16 41.6107 102.722 41.2924L102.455 41.0982C101.475 40.3864 101.979 38.8369 103.19 38.8369H103.52C104.062 38.8369 104.542 38.4882 104.709 37.9732L104.811 37.6588Z" fill="#FFB84F"/>
<path d="M67.3112 62.6588C67.6854 61.5072 69.3146 61.5072 69.6888 62.6588L69.791 62.9732C69.9583 63.4882 70.4382 63.8369 70.9798 63.8369H71.3103C72.5212 63.8369 73.0247 65.3864 72.045 66.0982L71.7776 66.2924C71.3395 66.6107 71.1562 67.1749 71.3235 67.69L71.4257 68.0043C71.7999 69.1559 70.4818 70.1136 69.5021 69.4018L69.2347 69.2076C68.7966 68.8893 68.2034 68.8893 67.7653 69.2076L67.4979 69.4018C66.5182 70.1136 65.2001 69.1559 65.5743 68.0043L65.6765 67.69C65.8438 67.1749 65.6605 66.6107 65.2224 66.2924L64.955 66.0982C63.9753 65.3864 64.4788 63.8369 65.6897 63.8369H66.0202C66.5618 63.8369 67.0417 63.4882 67.209 62.9732L67.3112 62.6588Z" fill="#FFB84F"/>
<path d="M67.3112 12.6588C67.6854 11.5072 69.3146 11.5072 69.6888 12.6588L69.791 12.9732C69.9583 13.4882 70.4382 13.8369 70.9798 13.8369H71.3103C72.5212 13.8369 73.0247 15.3864 72.045 16.0982L71.7776 16.2924C71.3395 16.6107 71.1562 17.1749 71.3235 17.69L71.4257 18.0043C71.7999 19.1559 70.4818 20.1136 69.5021 19.4018L69.2347 19.2076C68.7966 18.8893 68.2034 18.8893 67.7653 19.2076L67.4979 19.4018C66.5182 20.1136 65.2001 19.1559 65.5743 18.0043L65.6765 17.69C65.8438 17.1749 65.6605 16.6107 65.2224 16.2924L64.955 16.0982C63.9753 15.3864 64.4788 13.8369 65.6897 13.8369H66.0202C66.5618 13.8369 67.0417 13.4882 67.209 12.9732L67.3112 12.6588Z" fill="#FFB84F"/>
</g>
<defs>
<clipPath id="clip0_121_12">
<rect width="300" height="300" fill="white"/>
</clipPath>
</defs>
</svg>
