<svg width="300" height="300" viewBox="0 0 300 300" fill="none" xmlns="http://www.w3.org/2000/svg">
<g clip-path="url(#clip0_118_1124)">
<rect width="300" height="300" fill="#003EBA"/>
<rect x="300" y="300" width="300" height="300" transform="rotate(-180 300 300)" fill="#003EBA"/>
<mask id="mask0_118_1124" style="mask-type:alpha" maskUnits="userSpaceOnUse" x="0" y="0" width="137" height="83">
<rect x="137" y="82.2002" width="137" height="82.2" transform="rotate(-180 137 82.2002)" fill="#3662D5"/>
</mask>
<g mask="url(#mask0_118_1124)">
<rect x="137" y="82.2002" width="137" height="82.2" transform="rotate(-180 137 82.2002)" fill="#3662D5"/>
<rect x="-15.5999" y="80.1401" width="235.649" height="16.5549" transform="rotate(-30 -15.5999 80.1401)" fill="white"/>
<rect width="235.649" height="16.5549" transform="matrix(-0.866025 -0.5 -0.5 0.866025 182.215 97.5483)" fill="white"/>
<rect x="-0.478109" y="0.128109" width="94.0374" height="7.94375" transform="matrix(-0.866025 -0.5 -0.5 0.866025 152.982 80.927)" fill="#EF4B4B" stroke="white" stroke-width="0.7"/>
<rect x="-2.9519" y="0.790958" width="90.4155" height="4.32188" transform="matrix(-0.866025 -0.5 -0.5 0.866025 61.2522 38.6007)" fill="#EF4B4B" stroke="white" stroke-width="4.32188"/>
<rect x="-0.478109" y="0.128109" width="94.0374" height="7.94375" transform="matrix(-0.866025 -0.5 -0.5 0.866025 65.5369 39.7488)" fill="#EF4B4B" stroke="white" stroke-width="0.7"/>
<rect x="57.7442" y="38.4548" width="94.0374" height="7.94375" transform="rotate(-30 57.7442 38.4548)" fill="#EF4B4B" stroke="white" stroke-width="0.7"/>
<rect x="-20.3459" y="92.4328" width="114.437" height="7.94375" transform="rotate(-30 -20.3459 92.4328)" fill="#EF4B4B" stroke="white" stroke-width="0.7"/>
<rect x="-1.5" y="1.5" width="232.649" height="13.5549" transform="matrix(-1 8.74228e-08 8.74228e-08 1 191.001 32.8799)" fill="#EF4B4B" stroke="white" stroke-width="3"/>
<rect x="-4.11" y="-4.11" width="73.98" height="8.22" transform="matrix(1.19249e-08 -1 -1 -1.19249e-08 68.5 27.1262)" fill="#EF4B4B" stroke="white" stroke-width="8.22"/>
<rect x="-4.11" y="-4.11" width="73.98" height="8.22" transform="matrix(1.19249e-08 -1 -1 -1.19249e-08 68.5 121.108)" fill="#EF4B4B" stroke="white" stroke-width="8.22"/>
<rect width="95" height="11" transform="matrix(1.19249e-08 -1 -1 -1.19249e-08 74 93)" fill="#EF4B4B"/>
</g>
<path d="M212.171 56.2447C213.219 53.0201 217.781 53.0201 218.829 56.2447L220.888 62.5836C221.357 64.0257 222.701 65.002 224.217 65.002H230.882C234.273 65.002 235.682 69.3407 232.939 71.3336L227.547 75.2513C226.321 76.1425 225.807 77.7223 226.276 79.1644L228.335 85.5033C229.383 88.7279 225.692 91.4093 222.949 89.4164L217.557 85.4987C216.331 84.6075 214.669 84.6075 213.443 85.4987L208.051 89.4164C205.308 91.4093 201.617 88.7279 202.665 85.5033L204.724 79.1644C205.193 77.7223 204.679 76.1425 203.453 75.2513L198.061 71.3336C195.318 69.3407 196.727 65.002 200.118 65.002H206.783C208.299 65.002 209.643 64.0257 210.112 62.5836L212.171 56.2447Z" fill="#EF4B4B" stroke="white" stroke-width="3"/>
<path d="M164.171 122.245C165.219 119.02 169.781 119.02 170.829 122.245L172.888 128.584C173.357 130.026 174.701 131.002 176.217 131.002H182.882C186.273 131.002 187.682 135.341 184.939 137.334L179.547 141.251C178.321 142.143 177.807 143.722 178.276 145.164L180.335 151.503C181.383 154.728 177.692 157.409 174.949 155.416L169.557 151.499C168.331 150.607 166.669 150.607 165.443 151.499L160.051 155.416C157.308 157.409 153.617 154.728 154.665 151.503L156.724 145.164C157.193 143.722 156.679 142.143 155.453 141.251L150.061 137.334C147.318 135.341 148.727 131.002 152.118 131.002H158.783C160.299 131.002 161.643 130.026 162.112 128.584L164.171 122.245Z" fill="#EF4B4B" stroke="white" stroke-width="3"/>
<path d="M212.171 209.245C213.219 206.02 217.781 206.02 218.829 209.245L220.888 215.584C221.357 217.026 222.701 218.002 224.217 218.002H230.882C234.273 218.002 235.682 222.341 232.939 224.334L227.547 228.251C226.321 229.143 225.807 230.722 226.276 232.164L228.335 238.503C229.383 241.728 225.692 244.409 222.949 242.416L217.557 238.499C216.331 237.607 214.669 237.607 213.443 238.499L208.051 242.416C205.308 244.409 201.617 241.728 202.665 238.503L204.724 232.164C205.193 230.722 204.679 229.143 203.453 228.251L198.061 224.334C195.318 222.341 196.727 218.002 200.118 218.002H206.783C208.299 218.002 209.643 217.026 210.112 215.584L212.171 209.245Z" fill="#EF4B4B" stroke="white" stroke-width="3"/>
<path d="M263.671 113.245C264.719 110.02 269.281 110.02 270.329 113.245L271.154 115.783C271.622 117.225 272.966 118.202 274.482 118.202H277.151C280.542 118.202 281.952 122.54 279.209 124.533L277.049 126.102C275.823 126.993 275.309 128.573 275.778 130.015L276.603 132.554C277.65 135.778 273.96 138.46 271.217 136.467L269.057 134.898C267.831 134.007 266.169 134.007 264.943 134.898L262.783 136.467C260.04 138.46 256.35 135.778 257.397 132.554L258.222 130.015C258.691 128.573 258.177 126.993 256.951 126.102L254.791 124.533C252.048 122.54 253.458 118.202 256.849 118.202H259.518C261.034 118.202 262.378 117.225 262.846 115.783L263.671 113.245Z" fill="#EF4B4B" stroke="white" stroke-width="3"/>
</g>
<defs>
<clipPath id="clip0_118_1124">
<rect width="300" height="300" fill="white"/>
</clipPath>
</defs>
</svg>
