<svg width="300" height="300" viewBox="0 0 300 300" fill="none" xmlns="http://www.w3.org/2000/svg">
<g clip-path="url(#clip0_116_28)">
<rect width="300" height="300" fill="white"/>
<rect width="150" height="150" fill="white"/>
<rect x="150" width="150" height="150" fill="#EF4B4B"/>
<path d="M69.7447 55.6353C71.2415 51.0287 77.7585 51.0287 79.2553 55.6353L81.1232 61.384C81.7925 63.4441 83.7123 64.8389 85.8784 64.8389H91.923C96.7667 64.8389 98.7805 71.037 94.862 73.884L89.9718 77.4369C88.2193 78.7101 87.4861 80.967 88.1554 83.0271L90.0233 88.7758C91.5201 93.3824 86.2477 97.213 82.3291 94.366L77.4389 90.8131C75.6865 89.5399 73.3135 89.5399 71.5611 90.8131L66.6709 94.366C62.7523 97.213 57.4799 93.3824 58.9767 88.7758L60.8446 83.0271C61.5139 80.967 60.7807 78.7101 59.0282 77.4369L54.138 73.884C50.2195 71.037 52.2334 64.8389 57.077 64.8389H63.1216C65.2877 64.8389 67.2075 63.4441 67.8768 61.384L69.7447 55.6353Z" fill="#3661F6"/>
<rect x="300" y="300" width="150" height="150" transform="rotate(-180 300 300)" fill="white"/>
<rect x="150" y="300" width="150" height="150" transform="rotate(-180 150 300)" fill="#3661F6"/>
<path d="M220.745 204.635C222.241 200.029 228.759 200.029 230.255 204.635L232.123 210.384C232.793 212.444 234.712 213.839 236.878 213.839L242.923 213.839C247.767 213.839 249.781 220.037 245.862 222.884L240.972 226.437C239.219 227.71 238.486 229.967 239.155 232.027L241.023 237.776C242.52 242.382 237.248 246.213 233.329 243.366L228.439 239.813C226.686 238.54 224.314 238.54 222.561 239.813L217.671 243.366C213.752 246.213 208.48 242.382 209.977 237.776L211.845 232.027C212.514 229.967 211.781 227.71 210.028 226.437L205.138 222.884C201.219 220.037 203.233 213.839 208.077 213.839L214.122 213.839C216.288 213.839 218.207 212.444 218.877 210.384L220.745 204.635Z" fill="#EF4B4B"/>
</g>
<defs>
<clipPath id="clip0_116_28">
<rect width="300" height="300" fill="white"/>
</clipPath>
</defs>
</svg>
