<svg width="300" height="300" viewBox="0 0 300 300" fill="none" xmlns="http://www.w3.org/2000/svg">
<g clip-path="url(#clip0)">
<rect width="300" height="300" fill="white"/>
<rect width="150" height="150" fill="white"/>
<rect x="150" width="150" height="150" fill="#EF4B4B"/>
<path d="M72.8832 45.976C73.3921 44.4098 75.6079 44.4098 76.1168 45.976L81.8641 63.6642C82.0916 64.3647 82.7444 64.8389 83.4809 64.8389H102.079C103.726 64.8389 104.411 66.9463 103.079 67.9142L88.0321 78.8462C87.4363 79.2791 87.1869 80.0464 87.4145 80.7468L93.1618 98.4351C93.6707 100.001 91.8781 101.304 90.5458 100.336L75.4992 89.4038C74.9034 88.9709 74.0966 88.9709 73.5008 89.4038L58.4542 100.336C57.1219 101.304 55.3293 100.001 55.8382 98.4351L61.5855 80.7468C61.8131 80.0464 61.5637 79.2791 60.9679 78.8462L45.9214 67.9142C44.5891 66.9463 45.2738 64.8389 46.9206 64.8389H65.5191C66.2556 64.8389 66.9084 64.3647 67.1359 63.6642L72.8832 45.976Z" fill="#3661F6"/>
<rect x="300" y="300" width="150" height="150" transform="rotate(-180 300 300)" fill="white"/>
<rect x="150" y="300" width="150" height="150" transform="rotate(-180 150 300)" fill="#3661F6"/>
<path d="M223.883 194.976C224.392 193.41 226.608 193.41 227.117 194.976L232.864 212.664C233.092 213.365 233.744 213.839 234.481 213.839L253.079 213.839C254.726 213.839 255.411 215.946 254.079 216.914L239.032 227.846C238.436 228.279 238.187 229.046 238.415 229.747L244.162 247.435C244.671 249.001 242.878 250.304 241.546 249.336L226.499 238.404C225.903 237.971 225.097 237.971 224.501 238.404L209.454 249.336C208.122 250.304 206.329 249.001 206.838 247.435L212.585 229.747C212.813 229.046 212.564 228.279 211.968 227.846L196.921 216.914C195.589 215.946 196.274 213.839 197.921 213.839L216.519 213.839C217.256 213.839 217.908 213.365 218.136 212.664L223.883 194.976Z" fill="#EF4B4B"/>
</g>
<defs>
<clipPath id="clip0">
<rect width="300" height="300" fill="white"/>
</clipPath>
</defs>
</svg>
