<svg width="300" height="300" viewBox="0 0 300 300" fill="none" xmlns="http://www.w3.org/2000/svg">
<g clip-path="url(#clip0)">
<rect width="300" height="300" fill="#EF4B4B"/>
<rect x="-209" y="128.7" width="238.778" height="503.19" transform="rotate(-45 -209 128.7)" fill="#252525"/>
<path d="M189.69 79.3359C187.684 81.9323 182.936 76.7242 177.249 76.6052C171.561 76.4862 167.533 82.0662 165.874 83.9659C164.215 85.8657 158.884 95.8378 159.002 96.9062C159.12 97.9747 162.32 93.9384 163.505 93.226C163.623 94.6507 162.201 96.3129 162.557 96.7876C162.912 97.2624 166.703 93.9384 168.007 93.8198C168.362 94.7696 167.296 95.7192 167.651 97.1438C168.126 97.6186 170.258 94.7693 171.68 94.1759C171.917 95.2444 170.377 97.2627 171.206 98.5684C171.799 98.687 175.353 94.5321 176.538 94.057C177.723 93.5819 175.945 97.9747 176.538 98.3309C177.604 97.6186 180.922 93.8194 181.989 93.3447C183.055 92.8699 181.87 98.2123 182.344 98.2123C183.647 97.2624 186.965 92.7513 187.32 92.039C187.676 91.3267 186.965 98.9246 190.638 102.961C194.311 106.998 199.88 111.628 200.473 111.628C201.183 110.322 200.236 107.591 200.828 107.71C202.487 109.491 205.567 112.102 206.278 112.102C206.989 112.102 205.804 109.253 206.752 109.253C208.648 111.034 214.098 118.039 224.762 121.244C224.051 119.226 222.511 117.445 222.392 116.495C223.103 116.614 225.592 117.801 226.066 117.682C226.54 117.563 220.852 110.559 221.208 109.609C222.511 109.491 223.104 110.322 223.578 109.728C222.985 108.778 218.008 103.198 218.008 101.892C218.008 100.586 219.549 102.13 220.023 101.892C220.497 101.655 218.127 96.6687 218.601 96.0753C219.075 95.482 224.288 99.2807 225.592 99.2807C226.895 99.2807 225.947 94.6507 226.54 94.4131C227.132 94.1756 231.516 96.9062 232.464 96.9062C233.412 96.9062 233.293 94.8879 233.649 95.1254C234.004 95.363 244.313 105.692 240.758 117.801C237.203 126.468 230.095 131.098 219.667 127.299C220.26 128.249 225.829 132.879 231.871 131.216C237.914 129.554 245.26 124.806 244.431 112.934C243.602 101.062 239.691 99.3997 239.099 97.6189C238.507 95.8381 240.047 98.0937 241.351 98.5688C242.654 99.0439 241.113 96.0753 240.758 94.7693C240.403 93.4633 244.668 97.5 245.734 97.8561C246.801 98.2123 243.246 88.1212 242.18 87.4089C241.113 86.6966 243.246 87.6461 243.957 87.8837C244.668 88.1212 237.44 76.8428 235.9 76.8428C234.36 76.8428 237.203 76.249 238.033 76.249C238.862 76.249 229.739 68.8883 228.199 68.8883C226.658 68.8883 231.516 66.9886 231.99 66.87C232.819 66.9886 221.445 60.8153 211.255 66.9886C210.662 66.5142 216.054 62.7745 216.231 61.1718C216.291 60.7562 214.454 59.8658 214.336 59.391C214.217 58.9162 217.179 57.4916 217.298 56.4231C216.587 55.4733 215.283 55.8294 214.572 55.5922C214.395 54.7018 217.061 52.5054 216.824 51.5559C216.646 51.0216 214.691 50.8436 214.217 51.1997C213.743 51.5559 215.461 48.7066 215.165 47.8757C214.928 47.5195 213.98 47.7571 213.032 47.9943C212.439 47.8757 216.113 42.7705 215.402 42.0582C214.691 41.3459 204.738 47.2816 201.065 53.93C197.392 60.5784 200.236 65.9208 199.762 68.1764C199.287 70.4319 198.695 72.6878 197.155 72.6878C195.614 72.6878 192.06 70.3133 190.875 69.1262C189.69 67.9392 189.453 67.1079 187.794 66.6331C186.135 66.1584 182.344 67.583 180.922 67.7016C179.5 67.8202 173.931 66.6331 173.576 66.9893C173.22 67.3454 179.026 69.4824 180.33 70.1947C181.633 70.907 181.752 71.8569 182.699 72.4503C183.647 73.0436 192.534 75.6557 189.69 79.3359ZM224.407 96.0753C227.25 98.9246 246.445 111.746 246.445 127.417C246.445 143.088 232.464 142.614 228.435 142.139C232.938 145.938 250 145.225 250 127.417C250 111.746 227.961 96.0753 225.118 94.6507C222.274 93.2261 221.563 93.2261 224.407 96.0753Z" fill="#FFB84F" stroke="#FFB84F" stroke-width="1.5" stroke-linejoin="round"/>
<path d="M65.1685 117.098C65.5876 115.808 67.4124 115.808 67.8315 117.098L71.0127 126.889C71.2002 127.466 71.7377 127.856 72.3442 127.856H82.639C83.9952 127.856 84.5591 129.592 83.4619 130.389L75.1332 136.44C74.6426 136.796 74.4372 137.428 74.6247 138.005L77.8059 147.796C78.225 149.086 76.7487 150.158 75.6515 149.361L67.3229 143.31C66.8322 142.954 66.1678 142.954 65.6771 143.31L57.3485 149.361C56.2513 150.158 54.775 149.086 55.1941 147.796L58.3753 138.005C58.5628 137.428 58.3575 136.796 57.8668 136.44L49.5381 130.389C48.4409 129.592 49.0048 127.856 50.361 127.856H60.6558C61.2623 127.856 61.7998 127.466 61.9873 126.889L65.1685 117.098Z" fill="white"/>
<path d="M65.1685 234.098C65.5876 232.808 67.4124 232.808 67.8315 234.098L71.0127 243.889C71.2002 244.466 71.7377 244.856 72.3442 244.856H82.639C83.9952 244.856 84.5591 246.592 83.4619 247.389L75.1332 253.44C74.6426 253.796 74.4372 254.428 74.6247 255.005L77.8059 264.796C78.225 266.086 76.7487 267.158 75.6515 266.361L67.3229 260.31C66.8322 259.954 66.1678 259.954 65.6771 260.31L57.3485 266.361C56.2513 267.158 54.775 266.086 55.1941 264.796L58.3753 255.005C58.5628 254.428 58.3575 253.796 57.8668 253.44L49.5381 247.389C48.4409 246.592 49.0048 244.856 50.361 244.856H60.6558C61.2623 244.856 61.7998 244.466 61.9873 243.889L65.1685 234.098Z" fill="white"/>
<path d="M79.6685 209.098C80.0876 207.808 81.9124 207.808 82.3315 209.098L83.8289 213.706C84.0163 214.283 84.5538 214.674 85.1604 214.674H90.006C91.3623 214.674 91.9261 216.409 90.8289 217.206L86.9087 220.055C86.418 220.411 86.2127 221.043 86.4001 221.62L87.8975 226.228C88.3166 227.518 86.8403 228.591 85.7431 227.794L81.8229 224.945C81.3322 224.589 80.6678 224.589 80.1771 224.945L76.2569 227.794C75.1597 228.591 73.6834 227.518 74.1025 226.228L75.5999 221.62C75.7873 221.043 75.582 220.411 75.0913 220.055L71.1711 217.206C70.0739 216.409 70.6378 214.674 71.994 214.674H76.8396C77.4462 214.674 77.9837 214.283 78.1711 213.706L79.6685 209.098Z" fill="white"/>
<path d="M35.1685 163.098C35.5876 161.808 37.4124 161.808 37.8315 163.098L41.0127 172.889C41.2002 173.466 41.7377 173.856 42.3442 173.856H52.639C53.9952 173.856 54.5591 175.592 53.4619 176.389L45.1332 182.44C44.6426 182.796 44.4372 183.428 44.6247 184.005L47.8059 193.796C48.225 195.086 46.7487 196.158 45.6515 195.361L37.3229 189.31C36.8322 188.954 36.1678 188.954 35.6771 189.31L27.3485 195.361C26.2513 196.158 24.775 195.086 25.1941 193.796L28.3753 184.005C28.5628 183.428 28.3575 182.796 27.8668 182.44L19.5381 176.389C18.4409 175.592 19.0048 173.856 20.361 173.856H30.6558C31.2623 173.856 31.7998 173.466 31.9873 172.889L35.1685 163.098Z" fill="white"/>
<path d="M96.1685 163.098C96.5876 161.808 98.4124 161.808 98.8315 163.098L102.013 172.889C102.2 173.466 102.738 173.856 103.344 173.856H113.639C114.995 173.856 115.559 175.592 114.462 176.389L106.133 182.44C105.643 182.796 105.437 183.428 105.625 184.005L108.806 193.796C109.225 195.086 107.749 196.158 106.652 195.361L98.3229 189.31C97.8322 188.954 97.1678 188.954 96.6771 189.31L88.3485 195.361C87.2513 196.158 85.775 195.086 86.1941 193.796L89.3753 184.005C89.5628 183.428 89.3575 182.796 88.8668 182.44L80.5381 176.389C79.4409 175.592 80.0048 173.856 81.361 173.856H91.6558C92.2623 173.856 92.7998 173.466 92.9873 172.889L96.1685 163.098Z" fill="white"/>
</g>
<defs>
<clipPath id="clip0">
<rect width="300" height="300" fill="white"/>
</clipPath>
</defs>
</svg>
