<svg width="300" height="300" viewBox="0 0 300 300" fill="none" xmlns="http://www.w3.org/2000/svg">
<g clip-path="url(#clip0_126_1041)">
<rect width="300" height="300" fill="#EF4B4B"/>
<rect x="-209" y="128.7" width="238.778" height="503.19" transform="rotate(-45 -209 128.7)" fill="#252525"/>
<path d="M189.69 79.3359C187.684 81.9323 182.936 76.7242 177.249 76.6052C171.561 76.4862 167.533 82.0662 165.874 83.9659C164.215 85.8657 158.884 95.8378 159.002 96.9062C159.09 97.7026 160.89 95.663 162.292 94.2777C162.819 93.7567 163.462 94.1005 163.189 94.7893C162.83 95.6929 162.329 96.4837 162.557 96.7876C162.86 97.1924 165.66 94.8356 167.287 94.0587C167.694 93.8645 168.132 94.1294 168.045 94.5715C167.915 95.2335 167.476 95.9518 167.599 96.8718C167.623 97.0514 167.74 97.2313 167.912 97.1738C168.476 96.9851 169.62 95.6797 170.68 94.8227C171.164 94.4311 171.708 94.7529 171.526 95.3484C171.249 96.2499 170.778 97.3169 171.031 98.1802C171.108 98.4421 171.365 98.5595 171.59 98.4054C172.708 97.6405 175.511 94.4685 176.538 94.057C177.493 93.674 176.524 96.4532 176.422 97.7326C176.391 98.1185 176.742 98.191 177.032 97.9341C178.395 96.7248 181.055 93.7604 181.989 93.3447C182.906 92.9361 182.157 96.8349 182.232 97.9307C182.246 98.1419 182.437 98.1475 182.596 98.0073C184.03 96.7409 186.986 92.7091 187.32 92.039C187.676 91.3267 186.965 98.9246 190.638 102.961C193.795 106.431 198.352 110.338 199.947 111.368C200.255 111.567 200.593 111.428 200.67 111.069C200.903 109.974 200.549 108.465 200.636 107.916C200.669 107.709 200.904 107.792 201.049 107.943C202.746 109.71 205.598 112.102 206.278 112.102C206.873 112.102 206.141 110.108 206.441 109.457C206.547 109.225 206.853 109.346 207.032 109.527C209.02 111.527 213.911 117.379 222.893 120.626C223.662 120.904 224.331 120.176 223.933 119.461C223.578 118.82 223.205 118.232 222.914 117.722C222.583 117.141 223.037 116.682 223.661 116.923C224.624 117.295 225.761 117.759 226.066 117.682C226.481 117.578 222.164 112.185 221.33 110.214C221.18 109.861 221.454 109.572 221.835 109.622C222.304 109.685 222.657 109.849 222.943 109.916C223.356 110.011 223.42 109.493 223.158 109.16C221.8 107.429 218.008 103.032 218.008 101.892C218.008 100.586 219.549 102.13 220.023 101.892C220.497 101.655 218.127 96.6687 218.601 96.0753C219.075 95.482 224.288 99.2807 225.592 99.2807C226.895 99.2807 225.947 94.6507 226.54 94.4131C227.132 94.1756 231.516 96.9062 232.464 96.9062C233.412 96.9062 233.293 94.8879 233.649 95.1254C234.004 95.363 244.313 105.692 240.758 117.801C237.529 125.675 231.365 130.217 222.445 128.133C221.52 127.917 221.067 128.654 221.86 129.178C224.145 130.688 227.906 132.307 231.871 131.216C237.914 129.554 245.26 124.806 244.431 112.934C243.602 101.062 239.691 99.3997 239.099 97.6189C238.507 95.8381 240.047 98.0937 241.351 98.5688C242.654 99.0439 241.113 96.0753 240.758 94.7693C240.403 93.4633 244.668 97.5 245.734 97.8561C246.801 98.2123 243.246 88.1212 242.18 87.4089C241.113 86.6966 243.246 87.6461 243.957 87.8837C244.668 88.1212 237.44 76.8428 235.9 76.8428C234.36 76.8428 237.203 76.249 238.033 76.249C238.862 76.249 229.739 68.8883 228.199 68.8883C226.777 68.8883 230.801 67.2716 231.806 66.9279C231.928 66.886 232.032 66.8342 231.925 66.7612C230.794 65.9889 220.964 61.5729 211.862 66.6359C211.495 66.8399 211.227 66.7099 211.498 66.3897C212.546 65.1529 216.088 62.4658 216.231 61.1718C216.291 60.7562 214.454 59.8658 214.336 59.391C214.23 58.9689 216.56 57.7961 217.161 56.7902C217.292 56.5722 217.222 56.2979 217.024 56.139C216.48 55.703 215.744 55.727 215.144 55.6849C214.786 55.6598 214.541 55.3584 214.7 55.0366C215.218 53.9902 217.02 52.3438 216.824 51.5559C216.646 51.0216 214.691 50.8436 214.217 51.1997C213.763 51.5405 215.317 48.9462 215.192 47.9939C215.182 47.9132 215.146 47.8354 215.079 47.7896C214.776 47.5838 214.032 47.7463 213.25 47.9398C213.107 47.9754 212.948 47.9466 212.977 47.8013C213.166 46.8475 216.038 42.6954 215.402 42.0582C214.691 41.3459 204.738 47.2816 201.065 53.93C197.392 60.5784 200.236 65.9208 199.762 68.1764C199.287 70.4319 198.695 72.6878 197.155 72.6878C195.614 72.6878 192.06 70.3133 190.875 69.1262C189.69 67.9392 189.453 67.1079 187.794 66.6331C186.135 66.1584 182.344 67.583 180.922 67.7016C179.5 67.8202 173.931 66.6331 173.576 66.9893C173.22 67.3454 179.026 69.4824 180.33 70.1947C181.633 70.907 181.752 71.8569 182.699 72.4503C183.647 73.0436 192.534 75.6557 189.69 79.3359ZM224.407 96.0753C227.25 98.9246 246.445 111.746 246.445 127.417C246.445 140.027 237.392 142.183 231.756 142.297C230.765 142.317 230.46 143.306 231.419 143.559C237.935 145.278 250 142.392 250 127.417C250 111.746 227.961 96.0753 225.118 94.6507C222.274 93.2261 221.563 93.2261 224.407 96.0753Z" fill="#FFB84F" stroke="#FFB84F" stroke-width="1.5" stroke-linejoin="round"/>
<path d="M64.0273 120.61C64.8056 118.215 68.1944 118.215 68.9727 120.61L70.7433 126.06C71.0914 127.131 72.0897 127.856 73.2161 127.856H78.9457C81.4644 127.856 82.5116 131.079 80.474 132.56L75.8386 135.927C74.9273 136.589 74.546 137.763 74.8941 138.834L76.6646 144.284C77.443 146.679 74.7013 148.671 72.6636 147.19L68.0282 143.823C67.117 143.161 65.883 143.161 64.9718 143.823L60.3364 147.19C58.2987 148.671 55.557 146.679 56.3354 144.284L58.1059 138.834C58.454 137.763 58.0727 136.589 57.1614 135.927L52.526 132.56C50.4884 131.079 51.5356 127.856 54.0543 127.856H59.7839C60.9103 127.856 61.9086 127.131 62.2567 126.06L64.0273 120.61Z" fill="white"/>
<path d="M64.0273 237.61C64.8056 235.215 68.1944 235.215 68.9727 237.61L70.7433 243.06C71.0914 244.131 72.0897 244.856 73.2161 244.856H78.9457C81.4644 244.856 82.5116 248.079 80.474 249.56L75.8386 252.927C74.9273 253.589 74.546 254.763 74.8941 255.834L76.6646 261.284C77.443 263.679 74.7013 265.671 72.6636 264.19L68.0282 260.823C67.117 260.161 65.883 260.161 64.9718 260.823L60.3364 264.19C58.2987 265.671 55.557 263.679 56.3354 261.284L58.1059 255.834C58.454 254.763 58.0727 253.589 57.1614 252.927L52.526 249.56C50.4884 248.079 51.5356 244.856 54.0543 244.856H59.7839C60.9103 244.856 61.9086 244.131 62.2567 243.06L64.0273 237.61Z" fill="white"/>
<path d="M78.5273 212.61C79.3056 210.215 82.6944 210.215 83.4727 212.61L83.5595 212.877C83.9075 213.948 84.9058 214.674 86.0322 214.674H86.3128C88.8315 214.674 89.8787 217.897 87.8411 219.377L87.614 219.542C86.7028 220.204 86.3215 221.378 86.6695 222.449L86.7562 222.716C87.5346 225.111 84.7929 227.103 82.7553 225.623L82.5282 225.458C81.617 224.796 80.383 224.796 79.4718 225.458L79.2447 225.623C77.2071 227.103 74.4654 225.111 75.2438 222.716L75.3305 222.449C75.6785 221.378 75.2972 220.204 74.386 219.542L74.1589 219.377C72.1213 217.897 73.1685 214.674 75.6872 214.674H75.9678C77.0942 214.674 78.0925 213.948 78.4405 212.877L78.5273 212.61Z" fill="white"/>
<path d="M34.0273 166.61C34.8056 164.215 38.1944 164.215 38.9727 166.61L40.7433 172.06C41.0914 173.131 42.0897 173.856 43.2161 173.856H48.9457C51.4644 173.856 52.5116 177.079 50.474 178.56L45.8386 181.927C44.9273 182.589 44.546 183.763 44.8941 184.834L46.6646 190.284C47.443 192.679 44.7013 194.671 42.6636 193.19L38.0282 189.823C37.117 189.161 35.883 189.161 34.9718 189.823L30.3364 193.19C28.2987 194.671 25.557 192.679 26.3354 190.284L28.1059 184.834C28.454 183.763 28.0727 182.589 27.1614 181.927L22.526 178.56C20.4884 177.079 21.5356 173.856 24.0543 173.856H29.7839C30.9103 173.856 31.9086 173.131 32.2567 172.06L34.0273 166.61Z" fill="white"/>
<path d="M95.0273 166.61C95.8056 164.215 99.1944 164.215 99.9727 166.61L101.743 172.06C102.091 173.131 103.09 173.856 104.216 173.856H109.946C112.464 173.856 113.512 177.079 111.474 178.56L106.839 181.927C105.927 182.589 105.546 183.763 105.894 184.834L107.665 190.284C108.443 192.679 105.701 194.671 103.664 193.19L99.0282 189.823C98.117 189.161 96.883 189.161 95.9718 189.823L91.3364 193.19C89.2987 194.671 86.557 192.679 87.3354 190.284L89.1059 184.834C89.454 183.763 89.0727 182.589 88.1614 181.927L83.526 178.56C81.4884 177.079 82.5356 173.856 85.0543 173.856H90.7839C91.9103 173.856 92.9086 173.131 93.2567 172.06L95.0273 166.61Z" fill="white"/>
</g>
<defs>
<clipPath id="clip0_126_1041">
<rect width="300" height="300" fill="white"/>
</clipPath>
</defs>
</svg>
