<svg width="300" height="300" viewBox="0 0 300 300" fill="none" xmlns="http://www.w3.org/2000/svg">
<g clip-path="url(#clip0_126_1025)">
<rect width="300" height="300" fill="#4A72FF"/>
<rect x="500" y="300" width="500" height="300" transform="rotate(-180 500 300)" fill="#4A72FF"/>
<rect x="500" y="300" width="500" height="150" transform="rotate(-180 500 300)" fill="#FF4A4A"/>
<path d="M-125.868 362.132L-338 150L-125.868 -62.1323L160 150L-125.868 362.132Z" fill="white"/>
<path d="M135.922 141.635C136.909 139.968 139.453 140.537 139.635 142.466L139.875 145.018C139.957 145.88 140.584 146.593 141.43 146.782L143.931 147.341C145.822 147.764 146.067 150.36 144.288 151.129L141.936 152.146C141.141 152.49 140.657 153.307 140.739 154.17L140.979 156.722C141.161 158.65 138.769 159.685 137.488 158.232L135.793 156.309C135.22 155.659 134.294 155.451 133.499 155.795L131.146 156.813C129.368 157.582 127.644 155.626 128.631 153.959L129.936 151.753C130.377 151.007 130.288 150.062 129.715 149.412L128.021 147.489C126.74 146.035 128.067 143.792 129.958 144.215L132.459 144.775C133.305 144.964 134.176 144.587 134.617 143.841L135.922 141.635Z" fill="#FFB84F"/>
<path d="M51.1818 117.848C51.974 114.303 57.026 114.303 57.8181 117.848L60.2389 128.68C60.7534 130.982 63.3981 132.073 65.3863 130.804L74.692 124.865C77.7464 122.915 81.3247 126.459 79.4048 129.532L73.4413 139.077C72.2024 141.06 73.2885 143.673 75.568 144.194L86.4818 146.685C90.006 147.49 90.0061 152.51 86.4818 153.315L75.568 155.806C73.2885 156.327 72.2024 158.94 73.4413 160.923L79.4048 170.468C81.3247 173.541 77.7465 177.085 74.692 175.135L65.3863 169.196C63.3981 167.927 60.7534 169.018 60.2389 171.32L57.8182 182.152C57.026 185.697 51.974 185.697 51.1819 182.152L48.7611 171.32C48.2466 169.018 45.6019 167.927 43.6137 169.196L34.308 175.135C31.2535 177.085 27.6753 173.541 29.5952 170.468L35.5587 160.923C36.7976 158.94 35.7115 156.327 33.432 155.806L22.5182 153.315C18.994 152.51 18.9939 147.49 22.5182 146.685L33.432 144.194C35.7115 143.673 36.7976 141.06 35.5587 139.077L29.5952 129.532C27.6753 126.459 31.2535 122.915 34.308 124.865L43.6137 130.804C45.6019 132.073 48.2466 130.982 48.7611 128.68L51.1818 117.848Z" fill="#FFB84F"/>
<path d="M10.405 228.447C10.5971 226.519 13.144 225.963 14.1217 227.636L15.4153 229.849C15.8526 230.597 16.7218 230.978 17.5683 230.793L20.0725 230.247C21.9654 229.834 23.281 232.084 21.9924 233.531L20.2876 235.445C19.7113 236.092 19.6172 237.037 20.0545 237.785L21.348 239.997C22.3258 241.67 20.592 243.617 18.8178 242.838L16.4707 241.808C15.6772 241.46 14.7499 241.663 14.1736 242.31L12.4688 244.224C11.1802 245.67 8.79308 244.623 8.98519 242.695L9.23934 240.145C9.32525 239.282 8.84622 238.463 8.05278 238.115L5.70563 237.085C3.93146 236.307 4.18994 233.713 6.08284 233.3L8.58706 232.753C9.43359 232.568 10.0649 231.86 10.1508 230.997L10.405 228.447Z" fill="#FFB84F"/>
<path d="M16.605 56.0509C18.0735 54.7872 20.3013 56.141 19.856 58.0266L19.2669 60.5211C19.0677 61.3644 19.4342 62.2399 20.1747 62.6899L22.3651 64.021C24.0208 65.0272 23.4216 67.5642 21.4907 67.7234L18.9363 67.934C18.0727 68.0052 17.3533 68.6243 17.1541 69.4676L16.565 71.9621C16.1197 73.8477 13.5217 74.0619 12.7737 72.2747L11.784 69.9103C11.4495 69.111 10.6383 68.6181 9.77478 68.6893L7.2203 68.8999C5.28941 69.059 4.28289 66.6544 5.75145 65.3906L7.69429 63.7188C8.35105 63.1536 8.5692 62.2298 8.23466 61.4306L7.24499 59.0662C6.49692 57.279 8.47286 55.5787 10.1286 56.5848L12.319 57.916C13.0594 58.3659 14.0054 58.2879 14.6621 57.7228L16.605 56.0509Z" fill="#FFB84F"/>
<circle cx="55" cy="150" r="26" fill="#FFB84F"/>
</g>
<defs>
<clipPath id="clip0_126_1025">
<rect width="300" height="300" fill="white"/>
</clipPath>
</defs>
</svg>
