<svg width="300" height="300" viewBox="0 0 300 300" fill="none" xmlns="http://www.w3.org/2000/svg">
<rect width="300" height="300" fill="#3B9644"/>
<circle cx="172.867" cy="149.867" r="77.5" transform="rotate(-30 172.867 149.867)" fill="white"/>
<ellipse cx="190.188" cy="139.867" rx="69.5" ry="68.5" transform="rotate(-30 190.188 139.867)" fill="#3B9644"/>
<path d="M218.023 104.073C216.966 100.577 220.763 97.609 223.9 99.4796L229.136 102.601C230.485 103.405 232.18 103.346 233.469 102.449L238.473 98.9678C241.471 96.8817 245.467 99.5758 244.658 103.138L243.307 109.082C242.959 110.613 243.539 112.207 244.79 113.156L249.648 116.839C252.558 119.046 251.231 123.679 247.593 124.01L241.522 124.562C239.958 124.704 238.622 125.748 238.106 127.231L236.104 132.989C234.905 136.439 230.088 136.608 228.65 133.251L226.249 127.648C225.63 126.204 224.224 125.256 222.654 125.224L216.56 125.099C212.908 125.025 211.258 120.496 214.007 118.09L218.594 114.076C219.775 113.041 220.242 111.411 219.788 109.908L218.023 104.073Z" fill="white"/>
<rect width="45" height="300" fill="white"/>
</svg>
