<svg width="300" height="300" viewBox="0 0 300 300" fill="none" xmlns="http://www.w3.org/2000/svg">
<g clip-path="url(#clip0_118_1442)">
<rect width="300" height="300" fill="white"/>
<path d="M0 0L300 0.000122392L300 300L-9.44166e-05 300L0 0Z" fill="#FF4A4A"/>
<path d="M48.9755 18.3176L50.5534 23.1738C51.0219 24.6158 52.3658 25.5922 53.8821 25.5922L58.9881 25.5922C59.4725 25.5922 59.6739 26.212 59.282 26.4967L55.1511 29.498C53.9244 30.3892 53.4111 31.969 53.8797 33.4111L55.4575 38.2672C55.6072 38.7279 55.08 39.1109 54.6881 38.8262L50.5572 35.825C49.3305 34.9337 47.6695 34.9337 46.4428 35.825L42.3119 38.8262C41.92 39.1109 41.3928 38.7279 41.5425 38.2672L43.1203 33.4111C43.5889 31.969 43.0756 30.3892 41.8489 29.498L37.718 26.4967C37.3261 26.212 37.5275 25.5922 38.0119 25.5922L43.1179 25.5922C44.6342 25.5922 45.9781 24.6158 46.4466 23.1738L48.0245 18.3176C48.1741 17.857 48.8258 17.857 48.9755 18.3176Z" stroke="#FFB84F" stroke-width="3"/>
<path d="M37.5574 53.8794L26.4639 64.4485L32.3733 70.3639L37.4861 65.2222C47.4501 75.3391 55.1907 83.2064 64.8099 92.9781C67.4733 95.7394 72.1105 91.9783 69.1379 88.7885C58.9717 78.874 51.9327 71.7208 41.3385 61.3302L47.6166 55.0101L37.5574 53.8794Z" fill="#FFB84F" stroke="#FFB84F" stroke-width="1.6" stroke-linecap="round" stroke-linejoin="round"/>
<path d="M38.2681 83.7193C58.1129 102.156 90.276 68.9248 49.1715 44.8467C79.7531 78.8632 50.3961 89.2895 39.7663 78.7917L39.2312 78.3514C38.7913 78.8394 38.3632 79.3273 37.9233 79.8153C37.1029 79.0417 35.8187 78.8036 35.4263 80.1367C33.8093 80.0296 32.8581 80.9222 32.43 82.6004C29.4218 84.6 26.1639 86.3496 24.2852 89.4799C23.2151 92.8006 25.3315 94.2408 27.7215 93.967C31.6453 92.3364 32.8581 88.8015 34.9626 85.8974C36.4489 85.4213 37.7093 84.7905 37.9352 83.4336" fill="#FFB84F"/>
<path d="M38.2681 83.7193C58.1129 102.156 90.276 68.9248 49.1715 44.8467C79.7531 78.8632 50.3961 89.2895 39.7663 78.7917L39.2312 78.3514C38.7913 78.8394 38.3632 79.3273 37.9233 79.8153C37.1029 79.0417 35.8187 78.8036 35.4263 80.1367C33.8093 80.0296 32.8581 80.9222 32.43 82.6004C29.4218 84.6 26.1639 86.3496 24.2852 89.4799C23.2151 92.8006 25.3315 94.2408 27.7215 93.967C31.6453 92.3364 32.8581 88.8015 34.9626 85.8974C36.4489 85.4213 37.7093 84.7904 37.9352 83.4336" stroke="#FFB84F" stroke-width="1.6" stroke-linecap="round" stroke-linejoin="round"/>
<rect y="110" width="300" height="79.9999" fill="#3B9644"/>
</g>
<defs>
<clipPath id="clip0_118_1442">
<rect width="300" height="300" fill="white"/>
</clipPath>
</defs>
</svg>
