<svg width="300" height="300" viewBox="0 0 300 300" fill="none" xmlns="http://www.w3.org/2000/svg">
<g clip-path="url(#clip0_1322_62)">
<rect width="300" height="300" fill="white"/>
<rect x="300" y="100" width="300" height="100" transform="rotate(-180 300 100)" fill="#FF4A4A"/>
<rect x="300" y="300" width="300" height="100" transform="rotate(-180 300 300)" fill="#3661F6"/>
<circle cx="150" cy="150" r="33.5" stroke="#252525" stroke-width="3"/>
<path d="M147.836 136C148.567 133.974 151.433 133.974 152.164 136L154.29 141.897C154.61 142.784 155.438 143.386 156.38 143.416L162.646 143.616C164.799 143.685 165.685 146.41 163.983 147.731L159.032 151.576C158.287 152.154 157.971 153.128 158.233 154.034L159.979 160.054C160.579 162.123 158.261 163.808 156.479 162.598L151.292 159.077C150.512 158.548 149.488 158.548 148.708 159.077L143.521 162.598C141.739 163.808 139.421 162.123 140.021 160.054L141.767 154.034C142.029 153.128 141.713 152.154 140.968 151.576L136.017 147.732C134.315 146.41 135.201 143.685 137.354 143.616L143.62 143.416C144.562 143.386 145.39 142.784 145.71 141.897L147.836 136Z" fill="#FFC266"/>
<path d="M137.067 130C119.019 150.5 133.019 178.5 161.567 175" stroke="#4DBB58" stroke-width="4.4" stroke-linecap="round" stroke-linejoin="round"/>
<path d="M163.519 130C181.567 150.5 167.567 178.5 139.019 175" stroke="#3B9644" stroke-width="4.4" stroke-linecap="round" stroke-linejoin="round"/>
</g>
<defs>
<clipPath id="clip0_1322_62">
<rect width="300" height="300" fill="white"/>
</clipPath>
</defs>
</svg>
