<svg width="300" height="300" viewBox="0 0 300 300" fill="none" xmlns="http://www.w3.org/2000/svg">
<g clip-path="url(#clip0_118_1503)">
<rect width="300" height="300" fill="#8A1538"/>
<rect width="300" height="300" fill="#8A1538"/>
<rect width="62" height="300" fill="white"/>
<path d="M116.513 11.5732C120.23 12.3458 120.23 17.6542 116.513 18.4268L62.2122 29.713C60.0393 30.1646 58 28.5056 58 26.2862L58 3.7138C58 1.49437 60.0393 -0.16461 62.2122 0.287038L116.513 11.5732Z" fill="white"/>
<path d="M116.977 42.0772C120.669 42.8659 120.669 48.1341 116.977 48.9228L62.2312 60.6176C60.053 61.0829 58 59.4222 58 57.1948L58 33.8052C58 31.5778 60.053 29.9171 62.2312 30.3824L116.977 42.0772Z" fill="white"/>
<path d="M116.513 71.5732C120.23 72.3458 120.23 77.6542 116.513 78.4268L62.2122 89.713C60.0393 90.1646 58 88.5056 58 86.2862L58 63.7138C58 61.4944 60.0393 59.8354 62.2122 60.287L116.513 71.5732Z" fill="white"/>
<path d="M116.513 101.573C120.23 102.346 120.23 107.654 116.513 108.427L62.2122 119.713C60.0393 120.165 58 118.506 58 116.286L58 93.7138C58 91.4944 60.0393 89.8354 62.2122 90.287L116.513 101.573Z" fill="white"/>
<path d="M116.977 131.077C120.669 131.866 120.669 137.134 116.977 137.923L62.2312 149.618C60.053 150.083 58 148.422 58 146.195L58 122.805C58 120.578 60.053 118.917 62.2312 119.382L116.977 131.077Z" fill="white"/>
<path d="M116.513 161.573C120.23 162.346 120.23 167.654 116.513 168.427L62.2122 179.713C60.0393 180.165 58 178.506 58 176.286L58 153.714C58 151.494 60.0393 149.835 62.2122 150.287L116.513 161.573Z" fill="white"/>
<path d="M116.977 191.077C120.669 191.866 120.669 197.134 116.977 197.923L62.2312 209.618C60.053 210.083 58 208.422 58 206.195L58 182.805C58 180.578 60.053 178.917 62.2312 179.382L116.977 191.077Z" fill="white"/>
<path d="M116.977 221.077C120.669 221.866 120.669 227.134 116.977 227.923L62.2312 239.618C60.053 240.083 58 238.422 58 236.195L58 212.805C58 210.578 60.053 208.917 62.2312 209.382L116.977 221.077Z" fill="white"/>
<path d="M116.513 250.573C120.23 251.346 120.23 256.654 116.513 257.427L62.2122 268.713C60.0393 269.165 58 267.506 58 265.286L58 242.714C58 240.494 60.0393 238.835 62.2122 239.287L116.513 250.573Z" fill="white"/>
<path d="M116.977 281.077C120.669 281.866 120.669 287.134 116.977 287.923L62.2312 299.618C60.053 300.083 58 298.422 58 296.195L58 272.805C58 270.578 60.053 268.917 62.2312 269.382L116.977 281.077Z" fill="white"/>
</g>
<defs>
<clipPath id="clip0_118_1503">
<rect width="300" height="300" fill="white"/>
</clipPath>
</defs>
</svg>
