<svg width="300" height="300" viewBox="0 0 300 300" fill="none" xmlns="http://www.w3.org/2000/svg">
<g clip-path="url(#clip0)">
<rect width="300" height="300" fill="#8A1538"/>
<rect width="300" height="300" fill="#8A1538"/>
<rect width="59" height="300" fill="white"/>
<path d="M128.289 14.0209C129.351 14.2417 129.351 15.7583 128.289 15.9791L59.2035 30.3383C58.5826 30.4674 58 29.9934 58 29.3592L58 0.640757C58 0.00663453 58.5826 -0.46736 59.2035 -0.338318L128.289 14.0209Z" fill="white"/>
<path d="M128.422 44.5221C129.477 44.7474 129.477 46.2526 128.422 46.4779L59.2089 61.2632C58.5866 61.3962 58 60.9217 58 60.2853L58 30.7147C58 30.0783 58.5866 29.6038 59.2089 29.7368L128.422 44.5221Z" fill="white"/>
<path d="M128.289 74.0209C129.351 74.2417 129.351 75.7583 128.289 75.9791L59.2035 90.3383C58.5826 90.4674 58 89.9934 58 89.3592L58 60.6408C58 60.0066 58.5826 59.5326 59.2035 59.6617L128.289 74.0209Z" fill="white"/>
<path d="M128.289 104.021C129.351 104.242 129.351 105.758 128.289 105.979L59.2035 120.338C58.5826 120.467 58 119.993 58 119.359L58 90.6408C58 90.0066 58.5826 89.5326 59.2035 89.6617L128.289 104.021Z" fill="white"/>
<path d="M128.422 133.522C129.477 133.747 129.477 135.253 128.422 135.478L59.2089 150.263C58.5866 150.396 58 149.922 58 149.285L58 119.715C58 119.078 58.5866 118.604 59.2089 118.737L128.422 133.522Z" fill="white"/>
<path d="M128.289 164.021C129.351 164.242 129.351 165.758 128.289 165.979L59.2035 180.338C58.5826 180.467 58 179.993 58 179.359L58 150.641C58 150.007 58.5826 149.533 59.2035 149.662L128.289 164.021Z" fill="white"/>
<path d="M128.422 193.522C129.477 193.747 129.477 195.253 128.422 195.478L59.2089 210.263C58.5866 210.396 58 209.922 58 209.285L58 179.715C58 179.078 58.5866 178.604 59.2089 178.737L128.422 193.522Z" fill="white"/>
<path d="M128.422 223.522C129.477 223.747 129.477 225.253 128.422 225.478L59.2089 240.263C58.5866 240.396 58 239.922 58 239.285L58 209.715C58 209.078 58.5866 208.604 59.2089 208.737L128.422 223.522Z" fill="white"/>
<path d="M128.289 253.021C129.351 253.242 129.351 254.758 128.289 254.979L59.2035 269.338C58.5826 269.467 58 268.993 58 268.359L58 239.641C58 239.007 58.5826 238.533 59.2035 238.662L128.289 253.021Z" fill="white"/>
<path d="M128.422 283.522C129.477 283.747 129.477 285.253 128.422 285.478L59.2089 300.263C58.5866 300.396 58 299.922 58 299.285L58 269.715C58 269.078 58.5866 268.604 59.2089 268.737L128.422 283.522Z" fill="white"/>
</g>
<defs>
<clipPath id="clip0">
<rect width="300" height="300" fill="white"/>
</clipPath>
</defs>
</svg>
