<svg width="300" height="300" viewBox="0 0 300 300" fill="none" xmlns="http://www.w3.org/2000/svg">
<g clip-path="url(#clip0_1565_7139)">
<rect width="300" height="300" fill="white"/>
<rect x="309.869" y="-25.0811" width="485.991" height="227.066" transform="rotate(135 309.869 -25.0811)" fill="#3661F6"/>
<rect x="473.208" y="153.56" width="485.991" height="227.066" transform="rotate(135 473.208 153.56)" fill="#3B9644"/>
<rect x="329.531" y="-8.12012" width="477.511" height="30.9432" transform="rotate(135 329.531 -8.12012)" fill="#FFB84F"/>
<path d="M36.4326 25.7495C37.5816 22.7849 41.7763 22.7849 42.9253 25.7495L45.1374 31.4572C45.6314 32.7317 46.8255 33.5993 48.1903 33.6752L54.3022 34.0154C57.4768 34.192 58.773 38.1814 56.3086 40.1903L51.5638 44.0579C50.5043 44.9216 50.0482 46.3253 50.3978 47.6468L51.963 53.5647C52.7759 56.6384 49.3824 59.104 46.7103 57.381L41.5657 54.0636C40.4169 53.3229 38.9409 53.3229 37.7921 54.0636L32.6476 57.381C29.9755 59.104 26.5819 56.6384 27.3949 53.5647L28.9601 47.6468C29.3096 46.3253 28.8535 44.9216 27.794 44.0579L23.0493 40.1902C20.5849 38.1814 21.8811 34.192 25.0556 34.0154L31.1676 33.6752C32.5324 33.5993 33.7265 32.7317 34.2204 31.4572L36.4326 25.7495Z" fill="white"/>
<path d="M36.4323 91.9009C37.5813 88.9363 41.776 88.9363 42.925 91.9009L45.1371 97.6086C45.6311 98.8831 46.8252 99.7507 48.19 99.8266L54.3019 100.167C57.4765 100.343 58.7727 104.333 56.3083 106.342L51.5635 110.209C50.504 111.073 50.0479 112.477 50.3974 113.798L51.9627 119.716C52.7756 122.79 49.3821 125.255 46.71 123.532L41.5654 120.215C40.4166 119.474 38.9406 119.474 37.7918 120.215L32.6473 123.532C29.9752 125.255 26.5816 122.79 27.3946 119.716L28.9598 113.798C29.3093 112.477 28.8532 111.073 27.7937 110.209L23.049 106.342C20.5846 104.333 21.8808 100.343 25.0553 100.167L31.1672 99.8266C32.5321 99.7507 33.7261 98.8831 34.2201 97.6086L36.4323 91.9009Z" fill="white"/>
<path d="M72.9894 58.8252C74.1384 55.8606 78.3331 55.8606 79.4821 58.8252L81.6943 64.5329C82.1882 65.8074 83.3823 66.675 84.7471 66.7509L90.8591 67.091C94.0336 67.2677 95.3298 71.2571 92.8654 73.2659L88.1207 77.1336C87.0612 77.9973 86.6051 79.401 86.9546 80.7225L88.5198 86.6404C89.3328 89.7141 85.9392 92.1797 83.2671 90.4567L78.1225 87.1393C76.9737 86.3986 75.4978 86.3986 74.349 87.1393L69.2044 90.4567C66.5323 92.1797 63.1388 89.7141 63.9517 86.6404L65.5169 80.7225C65.8665 79.401 65.4103 77.9973 64.3508 77.1336L59.6061 73.2659C57.1417 71.2571 58.4379 67.2677 61.6125 67.091L67.7244 66.7509C69.0892 66.675 70.2833 65.8074 70.7773 64.5329L72.9894 58.8252Z" fill="white"/>
<path d="M109.546 25.7495C110.695 22.7849 114.89 22.7849 116.039 25.7495L118.251 31.4572C118.745 32.7317 119.939 33.5993 121.304 33.6752L127.416 34.0154C130.591 34.192 131.887 38.1814 129.422 40.1903L124.678 44.0579C123.618 44.9216 123.162 46.3253 123.512 47.6468L125.077 53.5647C125.89 56.6384 122.496 59.104 119.824 57.381L114.68 54.0636C113.531 53.3229 112.055 53.3229 110.906 54.0636L105.761 57.381C103.089 59.104 99.6958 56.6384 100.509 53.5647L102.074 47.6468C102.424 46.3253 101.967 44.9216 100.908 44.0579L96.1632 40.1902C93.6988 38.1814 94.995 34.192 98.1695 34.0154L104.281 33.6752C105.646 33.5993 106.84 32.7317 107.334 31.4572L109.546 25.7495Z" fill="white"/>
<path d="M109.546 91.9009C110.695 88.9363 114.89 88.9363 116.039 91.9009L118.251 97.6086C118.745 98.8831 119.939 99.7507 121.304 99.8266L127.416 100.167C130.59 100.343 131.887 104.333 129.422 106.342L124.677 110.209C123.618 111.073 123.162 112.477 123.511 113.798L125.077 119.716C125.89 122.79 122.496 125.255 119.824 123.532L114.679 120.215C113.531 119.474 112.055 119.474 110.906 120.215L105.761 123.532C103.089 125.255 99.6956 122.79 100.509 119.716L102.074 113.798C102.423 112.477 101.967 111.073 100.908 110.209L96.1629 106.342C93.6985 104.333 94.9947 100.343 98.1693 100.167L104.281 99.8266C105.646 99.7507 106.84 98.8831 107.334 97.6086L109.546 91.9009Z" fill="white"/>
</g>
<defs>
<clipPath id="clip0_1565_7139">
<rect width="300" height="300" fill="white"/>
</clipPath>
</defs>
</svg>
