<svg width="300" height="300" viewBox="0 0 300 300" fill="none" xmlns="http://www.w3.org/2000/svg">
<g clip-path="url(#clip0_118_1073)">
<rect width="300" height="300" fill="white"/>
<path d="M300 150L-3.05176e-05 150L-1.74042e-05 -2.62268e-05L300 0L300 150Z" fill="#EF4B4B"/>
<circle cx="87" cy="75" r="53" fill="white"/>
<circle cx="101" cy="75" r="49" fill="#EF4B4B"/>
<path d="M107.606 42.5973C108.219 40.7855 110.781 40.7855 111.394 42.5972L111.847 43.933C112.121 44.7452 112.883 45.2918 113.741 45.2918H115.025C116.982 45.2918 117.774 47.8126 116.169 48.9322L115.273 49.5573C114.543 50.0663 114.237 50.9961 114.522 51.8389L114.897 52.9473C115.516 54.7756 113.442 56.3331 111.859 55.2289L110.644 54.3816C109.957 53.9022 109.043 53.9022 108.356 54.3816L107.141 55.2289C105.558 56.3331 103.484 54.7756 104.103 52.9473L104.478 51.8389C104.763 50.9961 104.457 50.0663 103.727 49.5573L102.831 48.9322C101.226 47.8126 102.018 45.2918 103.975 45.2918H105.259C106.117 45.2918 106.879 44.7452 107.153 43.933L107.606 42.5973Z" fill="white"/>
<path d="M125.098 95.8541C125.697 94.0115 128.303 94.0115 128.902 95.8541L129.245 96.9098C129.513 97.7339 130.281 98.2918 131.147 98.2918H132.257C134.195 98.2918 135 100.771 133.433 101.91L132.535 102.562C131.834 103.072 131.541 103.974 131.808 104.798L132.151 105.854C132.75 107.697 130.641 109.229 129.074 108.09L128.176 107.438C127.475 106.928 126.525 106.928 125.824 107.438L124.926 108.09C123.359 109.229 121.25 107.697 121.849 105.854L122.192 104.798C122.459 103.974 122.166 103.072 121.465 102.562L120.567 101.91C119 100.771 119.805 98.2918 121.743 98.2918H122.853C123.719 98.2918 124.487 97.7339 124.755 96.9098L125.098 95.8541Z" fill="white"/>
<path d="M90.0979 95.8541C90.6966 94.0115 93.3034 94.0115 93.9021 95.8541L94.2451 96.9098C94.5129 97.7339 95.2808 98.2918 96.1473 98.2918H97.2573C99.1948 98.2918 100 100.771 98.4329 101.91L97.5348 102.562C96.8339 103.072 96.5405 103.974 96.8083 104.798L97.1513 105.854C97.75 107.697 95.6411 109.229 94.0736 108.09L93.1756 107.438C92.4746 106.928 91.5254 106.928 90.8244 107.438L89.9264 108.09C88.3589 109.229 86.25 107.697 86.8487 105.854L87.1917 104.798C87.4595 103.974 87.1661 103.072 86.4652 102.562L85.5671 101.91C83.9997 100.771 84.8052 98.2918 86.7427 98.2918H87.8527C88.7192 98.2918 89.4871 97.7339 89.7549 96.9098L90.0979 95.8541Z" fill="white"/>
<path d="M136.098 61.8541C136.697 60.0115 139.303 60.0115 139.902 61.8541L140.245 62.9098C140.513 63.7339 141.281 64.2918 142.147 64.2918H143.257C145.195 64.2918 146 66.771 144.433 67.9098L143.535 68.5623C142.834 69.0716 142.541 69.9743 142.808 70.7984L143.151 71.8541C143.75 73.6967 141.641 75.229 140.074 74.0902L139.176 73.4377C138.475 72.9284 137.525 72.9284 136.824 73.4377L135.926 74.0902C134.359 75.229 132.25 73.6967 132.849 71.8541L133.192 70.7984C133.459 69.9743 133.166 69.0716 132.465 68.5623L131.567 67.9098C130 66.771 130.805 64.2918 132.743 64.2918H133.853C134.719 64.2918 135.487 63.7339 135.755 62.9098L136.098 61.8541Z" fill="white"/>
<path d="M79.0979 61.8541C79.6966 60.0115 82.3034 60.0115 82.9021 61.8541L83.2451 62.9098C83.5129 63.7339 84.2808 64.2918 85.1473 64.2918H86.2573C88.1948 64.2918 89.0003 66.771 87.4329 67.9098L86.5348 68.5623C85.8339 69.0716 85.5405 69.9743 85.8083 70.7984L86.1513 71.8541C86.75 73.6967 84.6411 75.229 83.0736 74.0902L82.1756 73.4377C81.4746 72.9284 80.5254 72.9284 79.8244 73.4377L78.9264 74.0902C77.3589 75.229 75.25 73.6967 75.8487 71.8541L76.1917 70.7984C76.4595 69.9743 76.1661 69.0716 75.4652 68.5623L74.5671 67.9098C72.9997 66.771 73.8052 64.2918 75.7427 64.2918H76.8527C77.7192 64.2918 78.4871 63.7339 78.7549 62.9098L79.0979 61.8541Z" fill="white"/>
</g>
<defs>
<clipPath id="clip0_118_1073">
<rect width="300" height="300" fill="white"/>
</clipPath>
</defs>
</svg>
