<svg width="300" height="300" viewBox="0 0 300 300" fill="none" xmlns="http://www.w3.org/2000/svg">
<g clip-path="url(#clip0_118_978)">
<rect width="300" height="300" fill="white"/>
<rect x="500" y="300" width="500" height="300" transform="rotate(-180 500 300)" fill="white"/>
<rect x="500" y="300" width="500" height="100" transform="rotate(-180 500 300)" fill="#3B9644"/>
<rect x="500" y="200" width="500" height="100" transform="rotate(-180 500 200)" fill="white"/>
<rect x="500" y="100" width="500" height="100" transform="rotate(-180 500 100)" fill="#252525"/>
<path d="M-115.474 354.419C-121.446 358.85 -129.762 358.238 -135.02 352.98L-327.393 160.606C-333.251 154.748 -333.251 145.251 -327.393 139.393L-135.02 -52.9805C-129.762 -58.2383 -121.446 -58.8506 -115.474 -54.4196L143.767 137.954C151.849 143.952 151.849 156.049 143.767 162.046L-115.474 354.419Z" fill="#FF4A4A"/>
<path fill-rule="evenodd" clip-rule="evenodd" d="M203.182 187.177C205.234 187.829 206.273 185.072 204.636 183.674C195.08 175.511 189 163.232 189 149.5C189 136.627 194.343 125.031 202.885 116.905C204.443 115.423 203.26 112.735 201.247 113.494C186.494 119.054 176 133.302 176 150C176 167.419 187.42 182.171 203.182 187.177Z" fill="#FF4A4A"/>
<path d="M216.838 133.029C218.488 128.771 224.512 128.771 226.162 133.029L227.538 136.579C228.248 138.41 229.962 139.656 231.922 139.765L235.724 139.976C240.283 140.23 242.145 145.959 238.606 148.844L235.654 151.25C234.133 152.49 233.478 154.506 233.98 156.404L234.953 160.085C236.121 164.499 231.247 168.04 227.41 165.566L224.21 163.502C222.56 162.438 220.44 162.438 218.79 163.502L215.59 165.566C211.753 168.04 206.879 164.499 208.047 160.085L209.02 156.404C209.522 154.506 208.867 152.49 207.346 151.25L204.394 148.844C200.855 145.959 202.717 140.23 207.276 139.976L211.078 139.765C213.038 139.656 214.752 138.41 215.462 136.579L216.838 133.029Z" fill="#FF4A4A"/>
</g>
<defs>
<clipPath id="clip0_118_978">
<rect width="300" height="300" fill="white"/>
</clipPath>
</defs>
</svg>
