<svg width="300" height="300" viewBox="0 0 300 300" fill="none" xmlns="http://www.w3.org/2000/svg">
<g clip-path="url(#clip0)">
<rect width="300" height="300" fill="#3661F6"/>
<rect x="300" y="300" width="300" height="100" transform="rotate(-180 300 300)" fill="#FF4A4A"/>
<rect x="300" y="100" width="300" height="100" transform="rotate(-180 300 100)" fill="white"/>
<path d="M136 46.5L144.501 48.6984C145.383 48.9267 146 49.723 146 50.6347V123.066C146 149.539 124.539 171 98.0661 171H96.9339C70.4607 171 49 149.539 49 123.066V50.6145C49 49.7122 49.6041 48.9217 50.4747 48.6847L58.5 46.5" stroke="#FF4A4A" stroke-width="8"/>
<path d="M49 46.4769C49 45.599 49.5628 44.8277 50.4053 44.5806C56.4574 42.8052 80.749 36 97.5 36C114.251 36 138.543 42.8052 144.595 44.5806C145.437 44.8277 146 45.599 146 46.4769V123.066C146 149.539 124.539 171 98.0661 171H96.9339C70.4607 171 49 149.539 49 123.066V46.4769Z" fill="#3661F6"/>
<mask id="mask0" mask-type="alpha" maskUnits="userSpaceOnUse" x="51" y="36" width="93" height="131">
<path d="M51 46.205C51 45.3296 51.5571 44.5607 52.3964 44.3118C58.2799 42.5668 81.4846 36 97.5 36C113.515 36 136.72 42.5668 142.604 44.3118C143.443 44.5607 144 45.3296 144 46.205V120.5C144 146.181 123.181 167 97.5 167C71.8188 167 51 146.181 51 120.5V46.205Z" fill="#3661F6"/>
</mask>
<g mask="url(#mask0)">
<path d="M52 56.205C52 55.3296 52.5571 54.5607 53.3964 54.3118C59.2799 52.5668 82.4846 46 98.5 46C114.515 46 137.72 52.5668 143.604 54.3118C144.443 54.5607 145 55.3296 145 56.205V130.5C145 156.181 124.181 177 98.5 177C72.8188 177 52 156.181 52 130.5V56.205Z" fill="#3661F6"/>
<path d="M97.1232 69.5989C97.5028 68.9066 98.4972 68.9066 98.8768 69.5988L100.037 71.7138C100.212 72.0327 100.546 72.2315 100.909 72.233L103.262 72.2429C104.017 72.2461 104.496 73.0524 104.138 73.717L102.895 76.0259C102.736 76.3219 102.736 76.6781 102.895 76.9741L104.138 79.283C104.496 79.9476 104.017 80.7539 103.262 80.7571L100.909 80.767C100.546 80.7685 100.212 80.9673 100.037 81.2862L98.8768 83.4011C98.4972 84.0934 97.5028 84.0934 97.1232 83.4011L95.9633 81.2862C95.7885 80.9673 95.4544 80.7685 95.0908 80.767L92.7379 80.7571C91.9831 80.7539 91.5038 79.9476 91.8616 79.283L93.1048 76.9741C93.2641 76.6781 93.2641 76.3219 93.1048 76.0259L91.8616 73.717C91.5038 73.0524 91.9831 72.2461 92.7379 72.2429L95.0908 72.233C95.4544 72.2315 95.7885 72.0327 95.9633 71.7138L97.1232 69.5989Z" fill="#FFB84F"/>
<path d="M79.636 45.4829C80.0217 44.8208 80.9783 44.8208 81.364 45.4829L82.677 47.7362C82.8554 48.0425 83.1826 48.2314 83.537 48.2328L86.145 48.2432C86.9113 48.2462 87.3895 49.0746 87.009 49.7397L85.714 52.0035C85.5381 52.3111 85.5381 52.6889 85.714 52.9965L87.009 55.2603C87.3895 55.9254 86.9113 56.7538 86.145 56.7568L83.537 56.7672C83.1826 56.7686 82.8554 56.9575 82.677 57.2638L81.364 59.5171C80.9783 60.1792 80.0217 60.1792 79.636 59.5171L78.323 57.2638C78.1446 56.9575 77.8174 56.7686 77.463 56.7672L74.855 56.7568C74.0887 56.7538 73.6105 55.9254 73.991 55.2603L75.286 52.9965C75.4619 52.6889 75.4619 52.3111 75.286 52.0035L73.991 49.7397C73.6105 49.0746 74.0887 48.2462 74.855 48.2432L77.463 48.2328C77.8174 48.2314 78.1446 48.0425 78.323 47.7362L79.636 45.4829Z" fill="#FFB84F"/>
<path d="M113.636 45.4829C114.022 44.8208 114.978 44.8208 115.364 45.4829L116.677 47.7362C116.855 48.0425 117.183 48.2314 117.537 48.2328L120.145 48.2432C120.911 48.2462 121.39 49.0746 121.009 49.7397L119.714 52.0035C119.538 52.3111 119.538 52.6889 119.714 52.9965L121.009 55.2603C121.39 55.9254 120.911 56.7538 120.145 56.7568L117.537 56.7672C117.183 56.7686 116.855 56.9575 116.677 57.2638L115.364 59.5171C114.978 60.1792 114.022 60.1792 113.636 59.5171L112.323 57.2638C112.145 56.9575 111.817 56.7686 111.463 56.7672L108.855 56.7568C108.089 56.7538 107.61 55.9254 107.991 55.2603L109.286 52.9965C109.462 52.6889 109.462 52.3111 109.286 52.0035L107.991 49.7397C107.61 49.0746 108.089 48.2462 108.855 48.2432L111.463 48.2328C111.817 48.2314 112.145 48.0425 112.323 47.7362L113.636 45.4829Z" fill="#FFB84F"/>
<path d="M73.5 116C64.6667 126.833 46.8 148.9 46 150.5L93 187.5L146.5 153L120.5 116L114.5 125.5L98 98L81 126.5L73.5 116Z" fill="white"/>
<path d="M46 150.5L44.2111 149.606L43.4823 151.063L44.7629 152.071L46 150.5ZM73.5 116L75.1275 114.838L73.6051 112.706L71.95 114.736L73.5 116ZM81 126.5L79.3725 127.662C79.7649 128.212 80.4079 128.526 81.0824 128.498C81.7569 128.47 82.3718 128.104 82.7176 127.525L81 126.5ZM98 98L99.715 96.971L97.995 94.1043L96.2824 96.9754L98 98ZM114.5 125.5L112.785 126.529L114.456 129.315L116.191 126.568L114.5 125.5ZM120.5 116L122.136 114.85L120.411 112.395L118.809 114.932L120.5 116ZM146.5 153L147.584 154.681L149.333 153.553L148.136 151.85L146.5 153ZM93 187.5L91.7629 189.071L92.8844 189.954L94.0839 189.181L93 187.5ZM47.7889 151.394C47.762 151.448 47.7917 151.386 47.9807 151.117C48.1407 150.889 48.3642 150.583 48.6499 150.201C49.2199 149.44 50.0081 148.417 50.9678 147.19C52.8857 144.736 55.4639 141.497 58.2977 137.964C63.964 130.899 70.6354 122.678 75.05 117.264L71.95 114.736C67.5313 120.155 60.8526 128.385 55.1773 135.461C52.3403 138.999 49.7498 142.253 47.8165 144.726C46.8508 145.961 46.0428 147.01 45.4481 147.804C45.1515 148.2 44.9004 148.543 44.7065 148.819C44.5416 149.054 44.338 149.352 44.2111 149.606L47.7889 151.394ZM71.8725 117.162L79.3725 127.662L82.6275 125.338L75.1275 114.838L71.8725 117.162ZM82.7176 127.525L99.7176 99.0246L96.2824 96.9754L79.2824 125.475L82.7176 127.525ZM96.285 99.029L112.785 126.529L116.215 124.471L99.715 96.971L96.285 99.029ZM116.191 126.568L122.191 117.068L118.809 114.932L112.809 124.432L116.191 126.568ZM118.864 117.15L144.864 154.15L148.136 151.85L122.136 114.85L118.864 117.15ZM145.416 151.319L91.9161 185.819L94.0839 189.181L147.584 154.681L145.416 151.319ZM94.2371 185.929L47.2371 148.929L44.7629 152.071L91.7629 189.071L94.2371 185.929Z" fill="white"/>
<path d="M98 146C98 146 81.6583 142 71 142C60.3417 142 44 146 44 146" stroke="#3661F6" stroke-width="5" stroke-linecap="round"/>
<path d="M98 146C98 146 114.342 150 125 150C135.658 150 152 146 152 146" stroke="#3661F6" stroke-width="5" stroke-linecap="round"/>
<path d="M98 157C98 157 81.6583 153 71 153C60.3417 153 44 157 44 157" stroke="#3661F6" stroke-width="5" stroke-linecap="round"/>
<path d="M98 157C98 157 114.342 161 125 161C135.658 161 152 157 152 157" stroke="#3661F6" stroke-width="5" stroke-linecap="round"/>
</g>
</g>
<defs>
<clipPath id="clip0">
<rect width="300" height="300" fill="white"/>
</clipPath>
</defs>
</svg>
