<svg width="300" height="300" viewBox="0 0 300 300" fill="none" xmlns="http://www.w3.org/2000/svg">
<g clip-path="url(#clip0_118_885)">
<rect width="300" height="300" fill="#3661F6"/>
<rect x="300" y="300" width="300" height="100" transform="rotate(-180 300 300)" fill="#FF4A4A"/>
<rect x="300" y="100" width="300" height="100" transform="rotate(-180 300 100)" fill="white"/>
<path d="M136 46.5L144.501 48.6984C145.383 48.9267 146 49.723 146 50.6347V123.066C146 149.539 124.539 171 98.0661 171H96.9339C70.4607 171 49 149.539 49 123.066V50.6145C49 49.7122 49.6041 48.9217 50.4747 48.6847L58.5 46.5" stroke="#FF4A4A" stroke-width="8"/>
<path d="M49 46.4769C49 45.599 49.5628 44.8277 50.4053 44.5806C56.4574 42.8052 80.749 36 97.5 36C114.251 36 138.543 42.8052 144.595 44.5806C145.437 44.8277 146 45.599 146 46.4769V123.066C146 149.539 124.539 171 98.0661 171H96.9339C70.4607 171 49 149.539 49 123.066V46.4769Z" fill="#3661F6"/>
<mask id="mask0_118_885" style="mask-type:alpha" maskUnits="userSpaceOnUse" x="51" y="36" width="93" height="131">
<path d="M51 46.205C51 45.3296 51.5571 44.5607 52.3964 44.3118C58.2799 42.5668 81.4846 36 97.5 36C113.515 36 136.72 42.5668 142.604 44.3118C143.443 44.5607 144 45.3296 144 46.205V120.5C144 146.181 123.181 167 97.5 167C71.8188 167 51 146.181 51 120.5V46.205Z" fill="#3661F6"/>
</mask>
<g mask="url(#mask0_118_885)">
<path d="M52 56.205C52 55.3296 52.5571 54.5607 53.3964 54.3118C59.2799 52.5668 82.4846 46 98.5 46C114.515 46 137.72 52.5668 143.604 54.3118C144.443 54.5607 145 55.3296 145 56.205V130.5C145 156.181 124.181 177 98.5 177C72.8188 177 52 156.181 52 130.5V56.205Z" fill="#3661F6"/>
<path d="M96.4656 70.798C97.1299 69.5866 98.8701 69.5866 99.5344 70.798L99.8242 71.3263C100.13 71.8843 100.715 72.2322 101.351 72.2349L102.013 72.2377C103.333 72.2432 104.172 73.6542 103.546 74.8172L103.087 75.6704C102.808 76.1883 102.808 76.8117 103.087 77.3296L103.546 78.1828C104.172 79.3458 103.333 80.7568 102.013 80.7623L101.351 80.7651C100.715 80.7678 100.13 81.1157 99.8242 81.6737L99.5344 82.202C98.8701 83.4134 97.1299 83.4134 96.4656 82.202L96.1758 81.6737C95.8699 81.1157 95.2851 80.7678 94.6488 80.7651L93.9875 80.7623C92.6666 80.7568 91.8278 79.3458 92.454 78.1828L92.9133 77.3296C93.1922 76.8117 93.1922 76.1883 92.9133 75.6704L92.454 74.8172C91.8278 73.6542 92.6666 72.2432 93.9875 72.2377L94.6488 72.2349C95.2851 72.2322 95.8699 71.8843 96.1758 71.3263L96.4656 70.798Z" fill="#FFB84F"/>
<path d="M78.988 46.595C79.6631 45.4364 81.3369 45.4364 82.012 46.595L82.461 47.3655C82.7733 47.9014 83.3458 48.232 83.9661 48.2345L84.8578 48.238C86.1988 48.2434 87.0357 49.693 86.3699 50.857L85.9271 51.631C85.6191 52.1694 85.6191 52.8306 85.9271 53.369L86.3699 54.143C87.0357 55.307 86.1988 56.7566 84.8578 56.762L83.9661 56.7655C83.3458 56.768 82.7733 57.0986 82.461 57.6345L82.012 58.405C81.3369 59.5636 79.6631 59.5636 78.988 58.405L78.539 57.6345C78.2267 57.0986 77.6541 56.768 77.0339 56.7655L76.1422 56.762C74.8012 56.7566 73.9643 55.307 74.6301 54.143L75.0729 53.369C75.3809 52.8306 75.3809 52.1694 75.0729 51.631L74.6301 50.857C73.9643 49.693 74.8012 48.2434 76.1422 48.238L77.0339 48.2345C77.6542 48.232 78.2267 47.9014 78.539 47.3655L78.988 46.595Z" fill="#FFB84F"/>
<path d="M112.988 46.595C113.663 45.4364 115.337 45.4364 116.012 46.595L116.461 47.3655C116.773 47.9014 117.346 48.232 117.966 48.2345L118.858 48.238C120.199 48.2434 121.036 49.693 120.37 50.857L119.927 51.631C119.619 52.1694 119.619 52.8306 119.927 53.369L120.37 54.143C121.036 55.307 120.199 56.7566 118.858 56.762L117.966 56.7655C117.346 56.768 116.773 57.0986 116.461 57.6345L116.012 58.405C115.337 59.5636 113.663 59.5636 112.988 58.405L112.539 57.6345C112.227 57.0986 111.654 56.768 111.034 56.7655L110.142 56.762C108.801 56.7566 107.964 55.307 108.63 54.143L109.073 53.369C109.381 52.8306 109.381 52.1694 109.073 51.631L108.63 50.857C107.964 49.693 108.801 48.2434 110.142 48.238L111.034 48.2345C111.654 48.232 112.227 47.9014 112.539 47.3655L112.988 46.595Z" fill="#FFB84F"/>
<path d="M71.0227 119.042C63.2276 128.624 51.4751 143.166 47.4132 148.52C46.5529 149.654 46.8025 151.132 47.9209 152.012L91.3178 186.176C92.3242 186.968 93.7228 187.034 94.7993 186.34L143.876 154.692C145.308 153.769 145.685 151.84 144.705 150.446L123.088 119.682C121.857 117.931 119.24 117.995 118.097 119.805L117.102 121.38C115.909 123.27 113.143 123.238 111.993 121.322L100.58 102.3C99.4131 100.355 96.593 100.359 95.4311 102.307L83.3506 122.559C82.2421 124.418 79.5907 124.527 78.333 122.766L75.7835 119.197C74.6336 117.587 72.2712 117.507 71.0227 119.042Z" fill="white" stroke="white" stroke-width="4" stroke-linejoin="round"/>
<path d="M98 146C98 146 81.6583 142 71 142C60.3417 142 44 146 44 146" stroke="#3661F6" stroke-width="5" stroke-linecap="round"/>
<path d="M98 146C98 146 114.342 150 125 150C135.658 150 152 146 152 146" stroke="#3661F6" stroke-width="5" stroke-linecap="round"/>
<path d="M98 157C98 157 81.6583 153 71 153C60.3417 153 44 157 44 157" stroke="#3661F6" stroke-width="5" stroke-linecap="round"/>
<path d="M98 157C98 157 114.342 161 125 161C135.658 161 152 157 152 157" stroke="#3661F6" stroke-width="5" stroke-linecap="round"/>
</g>
</g>
<defs>
<clipPath id="clip0_118_885">
<rect width="300" height="300" fill="white"/>
</clipPath>
</defs>
</svg>
