<svg width="300" height="300" viewBox="0 0 300 300" fill="none" xmlns="http://www.w3.org/2000/svg">
<rect width="300" height="300" fill="#3661F6"/>
<path d="M142.392 107.416C144.786 100.046 155.214 100.046 157.608 107.416L163.022 124.077C164.093 127.373 167.164 129.605 170.63 129.605H188.148C195.898 129.605 199.12 139.522 192.851 144.077L178.678 154.374C175.874 156.411 174.701 160.022 175.772 163.318L181.185 179.979C183.58 187.349 175.144 193.478 168.875 188.923L154.702 178.626C151.898 176.589 148.102 176.589 145.298 178.626L131.125 188.923C124.856 193.478 116.42 187.349 118.815 179.979L124.228 163.318C125.299 160.022 124.126 156.411 121.322 154.374L107.149 144.077C100.88 139.522 104.102 129.605 111.852 129.605H129.37C132.836 129.605 135.907 127.373 136.978 124.077L142.392 107.416Z" fill="white"/>
</svg>
