<svg width="300" height="300" viewBox="0 0 300 300" fill="none" xmlns="http://www.w3.org/2000/svg">
<g clip-path="url(#clip0_1322_481)">
<rect width="300" height="300" fill="#D94141"/>
<rect x="300" width="64" height="300" transform="rotate(90 300 0)" fill="#3B9644"/>
<rect x="300" y="64" width="22" height="300" transform="rotate(90 300 64)" fill="white"/>
<rect y="300" width="64" height="300" transform="rotate(-90 0 300)" fill="#3B9644"/>
<rect y="236" width="22" height="300" transform="rotate(-90 0 236)" fill="white"/>
<path d="M140.94 102.343C143.635 94.0516 155.365 94.0517 158.06 102.343L164.206 121.259C165.411 124.968 168.866 127.478 172.765 127.478H192.655C201.373 127.478 204.998 138.635 197.945 143.759L181.854 155.45C178.699 157.742 177.379 161.804 178.584 165.512L184.73 184.428C187.425 192.72 177.934 199.615 170.881 194.491L154.79 182.8C151.636 180.508 147.364 180.508 144.21 182.8L128.119 194.491C121.066 199.615 111.575 192.72 114.27 184.428L120.416 165.512C121.621 161.804 120.301 157.742 117.146 155.45L101.055 143.759C94.0019 138.635 97.6269 127.478 106.345 127.478H126.235C130.134 127.478 133.589 124.968 134.794 121.259L140.94 102.343Z" fill="#FFB84F"/>
</g>
<defs>
<clipPath id="clip0_1322_481">
<rect width="300" height="300" fill="white"/>
</clipPath>
</defs>
</svg>
