<svg width="300" height="300" viewBox="0 0 300 300" fill="none" xmlns="http://www.w3.org/2000/svg">
<g clip-path="url(#clip0_118_1083)">
<rect width="300" height="300" fill="white"/>
<rect x="500" y="300" width="500" height="300" transform="rotate(-180 500 300)" fill="white"/>
<rect x="300" y="300" width="300" height="72" transform="rotate(-180 300 300)" fill="#3B9644"/>
<rect x="300" y="72" width="300" height="72" transform="rotate(-180 300 72)" fill="#3B9644"/>
<rect x="300" y="228" width="300" height="156" transform="rotate(-180 300 228)" fill="#FFB84F"/>
<path d="M-125.868 362.132L-338 150L-125.868 -62.1323L160 150L-125.868 362.132Z" fill="#FF4A4A"/>
<path d="M258.703 128.217C259.693 125.663 263.307 125.663 264.297 128.217L268.004 137.782C268.43 138.88 269.459 139.628 270.635 139.693L280.877 140.263C283.612 140.415 284.729 143.853 282.605 145.584L274.655 152.065C273.742 152.809 273.349 154.018 273.65 155.157L276.273 165.074C276.973 167.722 274.049 169.847 271.747 168.362L263.126 162.803C262.136 162.165 260.864 162.165 259.874 162.803L251.253 168.362C248.951 169.847 246.027 167.722 246.727 165.074L249.35 155.157C249.651 154.018 249.258 152.809 248.345 152.065L240.395 145.584C238.271 143.853 239.388 140.415 242.123 140.263L252.365 139.693C253.541 139.628 254.57 138.88 254.996 137.782L258.703 128.217Z" fill="#252525"/>
<path d="M187.703 128.217C188.693 125.663 192.307 125.663 193.297 128.217L197.004 137.782C197.43 138.88 198.459 139.628 199.635 139.693L209.877 140.263C212.612 140.415 213.729 143.853 211.605 145.584L203.655 152.065C202.742 152.809 202.349 154.018 202.65 155.157L205.273 165.074C205.973 167.722 203.049 169.847 200.747 168.362L192.126 162.803C191.136 162.165 189.864 162.165 188.874 162.803L180.253 168.362C177.951 169.847 175.027 167.722 175.727 165.074L178.35 155.157C178.651 154.018 178.258 152.809 177.345 152.065L169.395 145.584C167.271 143.853 168.388 140.415 171.123 140.263L181.365 139.693C182.541 139.628 183.57 138.88 183.996 137.782L187.703 128.217Z" fill="#252525"/>
</g>
<defs>
<clipPath id="clip0_118_1083">
<rect width="300" height="300" fill="white"/>
</clipPath>
</defs>
</svg>
