<svg width="300" height="300" viewBox="0 0 300 300" fill="none" xmlns="http://www.w3.org/2000/svg">
<g clip-path="url(#clip0)">
<rect width="300" height="300" fill="white"/>
<rect x="500" y="300" width="500" height="300" transform="rotate(-180 500 300)" fill="white"/>
<rect x="300" y="300" width="300" height="72" transform="rotate(-180 300 300)" fill="#3B9644"/>
<rect x="300" y="72" width="300" height="72" transform="rotate(-180 300 72)" fill="#3B9644"/>
<rect x="300" y="228" width="300" height="156" transform="rotate(-180 300 228)" fill="#FFB84F"/>
<path d="M-125.868 362.132L-338 150L-125.868 -62.1323L160 150L-125.868 362.132Z" fill="#FF4A4A"/>
<path d="M261.034 122.203C261.199 121.777 261.801 121.777 261.966 122.203L268.587 139.285C268.658 139.468 268.829 139.593 269.025 139.603L287.317 140.621C287.773 140.647 287.959 141.22 287.605 141.508L273.405 153.083C273.253 153.207 273.187 153.409 273.238 153.599L277.922 171.31C278.039 171.751 277.551 172.105 277.168 171.858L261.771 161.93C261.606 161.823 261.394 161.823 261.229 161.93L245.832 171.858C245.449 172.105 244.961 171.751 245.078 171.31L249.762 153.599C249.813 153.409 249.747 153.207 249.595 153.083L235.395 141.508C235.041 141.22 235.227 140.647 235.683 140.621L253.975 139.603C254.171 139.593 254.342 139.468 254.413 139.285L261.034 122.203Z" fill="#252525"/>
<path d="M190.034 122.203C190.199 121.777 190.801 121.777 190.966 122.203L197.587 139.285C197.658 139.468 197.829 139.593 198.025 139.603L216.317 140.621C216.773 140.647 216.959 141.22 216.605 141.508L202.405 153.083C202.253 153.207 202.187 153.409 202.238 153.599L206.922 171.31C207.039 171.751 206.551 172.105 206.168 171.858L190.771 161.93C190.606 161.823 190.394 161.823 190.229 161.93L174.832 171.858C174.449 172.105 173.961 171.751 174.078 171.31L178.762 153.599C178.813 153.409 178.747 153.207 178.595 153.083L164.395 141.508C164.041 141.22 164.227 140.647 164.683 140.621L182.975 139.603C183.171 139.593 183.342 139.468 183.413 139.285L190.034 122.203Z" fill="#252525"/>
</g>
<defs>
<clipPath id="clip0">
<rect width="300" height="300" fill="white"/>
</clipPath>
</defs>
</svg>
