<svg width="300" height="300" viewBox="0 0 300 300" fill="none" xmlns="http://www.w3.org/2000/svg">
<g clip-path="url(#clip0_118_1083)">
<rect width="300" height="300" fill="white"/>
<rect x="500" y="300" width="500" height="300" transform="rotate(-180 500 300)" fill="white"/>
<rect x="300" y="300" width="300" height="72" transform="rotate(-180 300 300)" fill="#3B9644"/>
<rect x="300" y="72" width="300" height="72" transform="rotate(-180 300 72)" fill="#3B9644"/>
<rect x="300" y="228" width="300" height="156" transform="rotate(-180 300 228)" fill="#FFB84F"/>
<path d="M-125.868 362.132L-338 150L-125.868 -62.1323L160 150L-125.868 362.132Z" fill="#FF4A4A"/>
<path d="M256.838 133.029C258.488 128.771 264.512 128.771 266.162 133.029L267.538 136.579C268.248 138.41 269.962 139.656 271.922 139.765L275.724 139.976C280.283 140.23 282.145 145.959 278.606 148.844L275.654 151.25C274.133 152.49 273.478 154.506 273.98 156.404L274.953 160.085C276.121 164.499 271.247 168.04 267.41 165.566L264.21 163.502C262.56 162.438 260.44 162.438 258.79 163.502L255.59 165.566C251.753 168.04 246.879 164.499 248.047 160.085L249.02 156.404C249.522 154.506 248.867 152.49 247.346 151.25L244.394 148.844C240.855 145.959 242.717 140.23 247.276 139.976L251.078 139.765C253.038 139.656 254.752 138.41 255.462 136.579L256.838 133.029Z" fill="#252525"/>
<path d="M185.838 133.029C187.488 128.771 193.512 128.771 195.162 133.029L196.538 136.579C197.248 138.41 198.962 139.656 200.922 139.765L204.724 139.976C209.283 140.23 211.145 145.959 207.606 148.844L204.654 151.25C203.133 152.49 202.478 154.506 202.98 156.404L203.953 160.085C205.121 164.499 200.247 168.04 196.41 165.566L193.21 163.502C191.56 162.438 189.44 162.438 187.79 163.502L184.59 165.566C180.753 168.04 175.879 164.499 177.047 160.085L178.02 156.404C178.522 154.506 177.867 152.49 176.346 151.25L173.394 148.844C169.855 145.959 171.717 140.23 176.276 139.976L180.078 139.765C182.038 139.656 183.752 138.41 184.462 136.579L185.838 133.029Z" fill="#252525"/>
</g>
<defs>
<clipPath id="clip0_118_1083">
<rect width="300" height="300" fill="white"/>
</clipPath>
</defs>
</svg>
