<svg width="300" height="300" viewBox="0 0 300 300" fill="none" xmlns="http://www.w3.org/2000/svg">
<g clip-path="url(#clip0_121_68)">
<rect width="300" height="300" fill="white"/>
<rect x="500" y="300" width="500" height="300" transform="rotate(-180 500 300)" fill="white"/>
<rect width="300" height="100" fill="#FF4A4A"/>
<rect y="100" width="300" height="100" fill="white"/>
<rect y="200" width="300" height="100" fill="#252525"/>
<path d="M97.2703 130.623C98.5904 127.217 103.41 127.217 104.73 130.623L107.398 137.507C107.965 138.971 109.337 139.968 110.905 140.055L118.276 140.465C121.923 140.668 123.412 145.251 120.581 147.559L114.859 152.224C113.642 153.216 113.118 154.829 113.519 156.347L115.407 163.484C116.341 167.015 112.442 169.848 109.372 167.869L103.168 163.868C101.848 163.017 100.152 163.017 98.8323 163.868L92.6279 167.869C89.5579 169.848 85.6591 167.015 86.5931 163.484L88.4808 156.347C88.8824 154.829 88.3584 153.216 87.1411 152.224L81.4189 147.559C78.5876 145.251 80.0768 140.668 83.724 140.465L91.095 140.055C92.663 139.968 94.0349 138.971 94.6024 137.507L97.2703 130.623Z" fill="#3B9644"/>
<path d="M195.27 130.623C196.59 127.217 201.41 127.217 202.73 130.623L205.398 137.507C205.965 138.971 207.337 139.968 208.905 140.055L216.276 140.465C219.923 140.668 221.412 145.251 218.581 147.559L212.859 152.224C211.642 153.216 211.118 154.829 211.519 156.347L213.407 163.484C214.341 167.015 210.442 169.848 207.372 167.869L201.168 163.868C199.848 163.017 198.152 163.017 196.832 163.868L190.628 167.869C187.558 169.848 183.659 167.015 184.593 163.484L186.481 156.347C186.882 154.829 186.358 153.216 185.141 152.224L179.419 147.559C176.588 145.251 178.077 140.668 181.724 140.465L189.095 140.055C190.663 139.968 192.035 138.971 192.602 137.507L195.27 130.623Z" fill="#3B9644"/>
</g>
<defs>
<clipPath id="clip0_121_68">
<rect width="300" height="300" fill="white"/>
</clipPath>
</defs>
</svg>
