<svg width="300" height="300" viewBox="0 0 300 300" fill="none" xmlns="http://www.w3.org/2000/svg">
<g clip-path="url(#clip0)">
<rect width="300" height="300" fill="white"/>
<rect x="500" y="300" width="500" height="300" transform="rotate(-180 500 300)" fill="white"/>
<rect width="300" height="100" fill="#FF4A4A"/>
<rect y="100" width="300" height="100" fill="white"/>
<rect y="200" width="300" height="100" fill="#252525"/>
<path d="M99.6352 126.812C100.295 125.109 102.705 125.109 103.365 126.812L108.237 139.383C108.521 140.115 109.207 140.614 109.991 140.657L123.453 141.406C125.276 141.508 126.021 143.799 124.605 144.953L114.155 153.472C113.546 153.968 113.284 154.775 113.485 155.534L116.932 168.568C117.399 170.334 115.45 171.75 113.915 170.761L102.584 163.454C101.924 163.028 101.076 163.028 100.416 163.454L89.0849 170.761C87.55 171.75 85.6006 170.334 86.0676 168.568L89.515 155.534C89.7158 154.775 89.4538 153.968 88.8452 153.472L78.3947 144.953C76.979 143.799 77.7236 141.508 79.5472 141.406L93.009 140.657C93.793 140.614 94.479 140.115 94.7627 139.383L99.6352 126.812Z" fill="#3B9644"/>
<path d="M196.635 126.812C197.295 125.109 199.705 125.109 200.365 126.812L205.237 139.383C205.521 140.115 206.207 140.614 206.991 140.657L220.453 141.406C222.276 141.508 223.021 143.799 221.605 144.953L211.155 153.472C210.546 153.968 210.284 154.775 210.485 155.534L213.932 168.568C214.399 170.334 212.45 171.75 210.915 170.761L199.584 163.454C198.924 163.028 198.076 163.028 197.416 163.454L186.085 170.761C184.55 171.75 182.601 170.334 183.068 168.568L186.515 155.534C186.716 154.775 186.454 153.968 185.845 153.472L175.395 144.953C173.979 143.799 174.724 141.508 176.547 141.406L190.009 140.657C190.793 140.614 191.479 140.115 191.763 139.383L196.635 126.812Z" fill="#3B9644"/>
</g>
<defs>
<clipPath id="clip0">
<rect width="300" height="300" fill="white"/>
</clipPath>
</defs>
</svg>
