<svg width="300" height="300" viewBox="0 0 300 300" fill="none" xmlns="http://www.w3.org/2000/svg">
<g clip-path="url(#clip0_1322_439)">
<rect width="300" height="300" fill="#FFB84F"/>
<rect x="300" y="300" width="300" height="300" transform="rotate(-180 300 300)" fill="#FFB84F"/>
<rect x="300" y="300" width="300" height="60" transform="rotate(-180 300 300)" fill="#3B9644"/>
<rect x="300" y="60" width="300" height="60" transform="rotate(-180 300 60)" fill="#3B9644"/>
<rect x="300" y="180" width="300" height="60" transform="rotate(-180 300 180)" fill="#3B9644"/>
<rect x="120" y="120" width="120" height="120" transform="rotate(-180 120 120)" fill="#FF4A4A"/>
<path d="M55.2447 29.6353C56.7415 25.0287 63.2585 25.0287 64.7553 29.6353L68.9806 42.6393C69.6499 44.6994 71.5697 46.0942 73.7358 46.0942H87.4091C92.2527 46.0942 94.2666 52.2923 90.3481 55.1393L79.2861 63.1763C77.5337 64.4495 76.8004 66.7063 77.4698 68.7664L81.695 81.7705C83.1918 86.3771 77.9194 90.2077 74.0008 87.3607L62.9389 79.3237C61.1865 78.0505 58.8135 78.0505 57.0611 79.3237L45.9992 87.3607C42.0806 90.2077 36.8082 86.3771 38.3049 81.7705L42.5302 68.7664C43.1996 66.7063 42.4663 64.4495 40.7139 63.1763L29.652 55.1393C25.7334 52.2923 27.7473 46.0942 32.5909 46.0942H46.2642C48.4303 46.0942 50.3501 44.6994 51.0194 42.6393L55.2447 29.6353Z" fill="white"/>
</g>
<defs>
<clipPath id="clip0_1322_439">
<rect width="300" height="300" fill="white"/>
</clipPath>
</defs>
</svg>
