<svg width="300" height="300" viewBox="0 0 300 300" fill="none" xmlns="http://www.w3.org/2000/svg">
<g clip-path="url(#clip0_1322_496)">
<rect width="300" height="300" fill="white"/>
<rect x="500" y="300" width="500" height="95" transform="rotate(-180 500 300)" fill="#3B9644"/>
<rect x="300" y="95" width="300" height="95" transform="rotate(-180 300 95)" fill="#EF4B4B"/>
<path d="M140.594 145.599C140.638 146.546 141.965 146.776 142.839 146.408V146.408C143.596 146.09 144.435 146.027 145.231 146.228C146.026 146.43 146.735 146.885 147.249 147.525C147.763 148.165 148.054 148.954 148.08 149.775V163.466C148.08 164.251 148.716 164.887 149.5 164.887V164.887C150.285 164.887 150.921 164.251 150.921 163.466V149.775C150.946 148.954 151.237 148.165 151.751 147.525C152.265 146.885 152.974 146.43 153.769 146.228C154.565 146.027 155.405 146.09 156.161 146.408V146.408C157.035 146.776 158.363 146.546 158.407 145.599C158.434 145.01 158.403 144.417 158.313 143.83C158.098 142.435 157.556 141.111 156.729 139.966C155.903 138.821 154.817 137.889 153.56 137.247C152.303 136.604 150.912 136.269 149.5 136.269C148.088 136.269 146.697 136.604 145.44 137.247C144.183 137.889 143.097 138.821 142.271 139.966C141.445 141.111 140.902 142.435 140.687 143.83C140.597 144.417 140.566 145.01 140.594 145.599Z" fill="#F8C300"/>
<path d="M143.062 144.047C144.302 143.794 145.591 143.936 146.746 144.454C147.901 144.972 148.864 145.839 149.5 146.934C150.135 145.839 151.099 144.972 152.254 144.454C153.409 143.936 154.697 143.794 155.937 144.047C155.724 142.492 154.954 141.066 153.771 140.034C152.587 139.002 151.07 138.434 149.5 138.434C147.93 138.434 146.412 139.002 145.229 140.034C144.045 141.066 143.276 142.492 143.062 144.047Z" fill="white"/>
<path d="M149.427 164.634C149.181 163.578 146.694 163.48 146.076 164.371C145.985 164.501 145.892 164.63 145.795 164.757C144.496 166.473 142.74 167.79 140.728 168.556C138.716 169.322 136.529 169.507 134.417 169.091C133.271 168.865 132.172 168.466 131.155 167.913C129.916 167.24 128.199 167.622 127.374 168.765C126.891 169.435 126.339 170.054 125.725 170.613C124.384 171.833 122.782 172.731 121.042 173.24C119.302 173.749 117.469 173.854 115.682 173.549C115.358 173.494 115.036 173.425 114.719 173.343C113.051 172.915 111.194 174.209 112.198 175.607C115.459 180.145 123.129 179.535 127.122 175.04C128.406 173.594 132.073 172.938 133.757 173.888C139.339 177.039 146.744 173.633 149.41 165.127C149.459 164.968 149.465 164.796 149.427 164.634V164.634Z" fill="#F8C300"/>
<path d="M149.572 164.634C149.818 163.578 152.306 163.48 152.924 164.371C153.014 164.501 153.108 164.63 153.204 164.757C154.504 166.473 156.26 167.79 158.272 168.556C160.283 169.322 162.47 169.507 164.582 169.091C165.729 168.865 166.828 168.466 167.845 167.913C169.083 167.24 170.801 167.622 171.625 168.765C172.108 169.435 172.66 170.054 173.275 170.613C174.616 171.833 176.217 172.731 177.957 173.24C179.697 173.749 181.53 173.854 183.317 173.549C183.642 173.494 183.963 173.425 184.281 173.343C185.949 172.915 187.806 174.209 186.801 175.607C183.54 180.145 175.87 179.535 171.878 175.04C170.594 173.594 166.927 172.938 165.243 173.888C159.66 177.039 152.255 173.633 149.59 165.127C149.54 164.968 149.534 164.796 149.572 164.634V164.634Z" fill="#F8C300"/>
<path d="M135.332 177.96C136.349 178.048 136.757 179.122 136.172 179.959C134.041 183.014 130.766 183.627 127.623 181.465C126.784 180.887 126.363 180.003 127.271 179.541V179.541C128.108 179.115 129.31 177.96 129.497 177.039C129.575 176.653 129.696 176.266 129.85 175.901C130.237 174.98 131.394 174.832 132.073 175.564C132.3 175.809 132.518 176.077 132.714 176.362C133.3 177.214 134.26 177.873 135.291 177.956C135.305 177.957 135.319 177.959 135.332 177.96Z" fill="#F8C300"/>
<path d="M153.44 177.121C154.43 177.374 154.657 178.5 153.944 179.231C151.343 181.898 148.013 181.969 145.264 179.324C144.529 178.618 144.258 177.677 145.229 177.369V177.369C146.125 177.085 147.499 176.141 147.833 175.263C147.973 174.895 148.155 174.533 148.367 174.197C148.898 173.352 150.065 173.394 150.615 174.227C150.799 174.506 150.971 174.805 151.118 175.118C151.557 176.055 152.397 176.862 153.401 177.111C153.414 177.115 153.427 177.118 153.44 177.121Z" fill="#F8C300"/>
<path d="M171.443 179.243C172.378 179.653 172.418 180.801 171.596 181.406C168.596 183.614 165.298 183.142 163.016 180.085C162.407 179.269 162.292 178.296 163.301 178.15V178.15C164.23 178.016 165.74 177.308 166.212 176.496C166.411 176.155 166.65 175.828 166.913 175.531C167.575 174.784 168.719 175.015 169.126 175.927C169.262 176.232 169.383 176.555 169.477 176.888C169.758 177.884 170.456 178.816 171.405 179.226C171.418 179.232 171.43 179.237 171.443 179.243Z" fill="#F8C300"/>
<path d="M120.183 189.49C139.313 183.795 159.687 183.795 178.817 189.49" stroke="#F8C300" stroke-width="13.7143" stroke-linecap="round"/>
<path d="M145.302 117.392C144.361 116.709 144.845 115.221 146.007 115.221H152.993C154.156 115.221 154.639 116.709 153.699 117.392L148.047 121.498C147.106 122.181 145.841 121.262 146.2 120.157L148.359 113.512C148.718 112.407 150.282 112.407 150.641 113.512L152.8 120.157C153.159 121.262 151.894 122.181 150.954 121.498L145.302 117.392Z" fill="#F8C300"/>
<path d="M124.145 123.061C123.204 122.378 123.687 120.89 124.85 120.89H131.836C132.998 120.89 133.482 122.378 132.541 123.061L126.89 127.167C125.949 127.85 124.684 126.931 125.043 125.825L127.202 119.181C127.561 118.076 129.125 118.076 129.484 119.181L131.643 125.825C132.002 126.931 130.737 127.85 129.796 127.167L124.145 123.061Z" fill="#F8C300"/>
<path d="M108.657 138.549C107.716 137.866 108.2 136.378 109.362 136.378H116.348C117.511 136.378 117.994 137.866 117.053 138.549L111.402 142.655C110.461 143.339 109.196 142.419 109.555 141.314L111.714 134.67C112.073 133.564 113.637 133.564 113.996 134.67L116.155 141.314C116.514 142.419 115.249 143.339 114.309 142.655L108.657 138.549Z" fill="#F8C300"/>
<path d="M102.988 159.706C102.047 159.023 102.531 157.535 103.693 157.535H110.679C111.842 157.535 112.325 159.023 111.385 159.706L105.733 163.812C104.792 164.495 103.527 163.576 103.886 162.47L106.045 155.826C106.404 154.721 107.968 154.721 108.327 155.826L110.486 162.47C110.845 163.576 109.58 164.495 108.64 163.812L102.988 159.706Z" fill="#F8C300"/>
<path d="M174.855 123.061C175.796 122.378 175.313 120.89 174.15 120.89H167.164C166.002 120.89 165.518 122.378 166.459 123.061L172.11 127.167C173.051 127.85 174.316 126.931 173.957 125.825L171.798 119.181C171.439 118.076 169.875 118.076 169.516 119.181L167.357 125.825C166.998 126.931 168.263 127.85 169.204 127.167L174.855 123.061Z" fill="#F8C300"/>
<path d="M190.343 138.549C191.284 137.866 190.8 136.378 189.638 136.378H182.652C181.489 136.378 181.006 137.866 181.947 138.549L187.598 142.655C188.539 143.339 189.804 142.419 189.445 141.314L187.286 134.67C186.927 133.564 185.363 133.564 185.004 134.67L182.845 141.314C182.486 142.419 183.751 143.339 184.691 142.655L190.343 138.549Z" fill="#F8C300"/>
<path d="M196.012 159.706C196.953 159.023 196.469 157.535 195.307 157.535H188.321C187.158 157.535 186.675 159.023 187.615 159.706L193.267 163.812C194.208 164.495 195.473 163.576 195.114 162.47L192.955 155.826C192.596 154.721 191.032 154.721 190.673 155.826L188.514 162.47C188.155 163.576 189.42 164.495 190.36 163.812L196.012 159.706Z" fill="#F8C300"/>
</g>
<defs>
<clipPath id="clip0_1322_496">
<rect width="300" height="300" fill="white"/>
</clipPath>
</defs>
</svg>
