<svg width="300" height="300" viewBox="0 0 300 300" fill="none" xmlns="http://www.w3.org/2000/svg">
<g clip-path="url(#clip0_118_1115)">
<rect width="300" height="300" fill="white"/>
<rect x="300" y="300" width="300" height="300" transform="rotate(-180 300 300)" fill="#FF4A4A"/>
<path d="M-111.039 352.903C-119.723 358.307 -130.987 357.013 -138.219 349.781L-322.444 165.556C-331.036 156.964 -331.036 143.035 -322.444 134.443L-138.219 -49.7816C-130.987 -57.0143 -119.723 -58.308 -111.039 -52.9036L184.986 131.322C198.821 139.931 198.821 160.069 184.986 168.678L-111.039 352.903Z" fill="#FFB84F"/>
<path d="M-110.624 350.82C-119.382 357.319 -131.579 356.421 -139.291 348.709L-322.444 165.556C-331.035 156.965 -331.035 143.035 -322.444 134.443L-139.291 -48.7096C-131.579 -56.4211 -119.382 -57.3192 -110.624 -50.8204L136.192 132.333C148.045 141.129 148.045 158.871 136.192 167.667L-110.624 350.82Z" fill="#1F1F1F"/>
<path d="M46.8379 120.029C48.488 115.771 54.512 115.771 56.1621 120.029L60.8239 132.057C61.5333 133.887 63.2481 135.133 65.2082 135.242L78.0881 135.959C82.6471 136.213 84.5086 141.942 80.9694 144.827L70.9706 152.977C69.4491 154.218 68.7941 156.234 69.296 158.131L72.5944 170.602C73.762 175.017 68.8884 178.557 65.051 176.083L54.2096 169.092C52.5598 168.028 50.4402 168.028 48.7904 169.092L37.949 176.083C34.1116 178.557 29.238 175.017 30.4056 170.602L33.704 158.131C34.2059 156.234 33.5509 154.218 32.0294 152.977L22.0306 144.827C18.4914 141.942 20.3529 136.213 24.9119 135.959L37.7918 135.242C39.7519 135.133 41.4667 133.887 42.1761 132.057L46.8379 120.029Z" fill="white"/>
</g>
<defs>
<clipPath id="clip0_118_1115">
<rect width="300" height="300" fill="white"/>
</clipPath>
</defs>
</svg>
