<svg width="300" height="300" viewBox="0 0 300 300" fill="none" xmlns="http://www.w3.org/2000/svg">
<g clip-path="url(#clip0)">
<rect width="300" height="300" fill="white"/>
<rect x="300" y="300" width="300" height="300" transform="rotate(-180 300 300)" fill="#FF4A4A"/>
<path d="M-125.868 362.132L-338 150L-125.868 -62.1324L215 150L-125.868 362.132Z" fill="#FFB84F"/>
<path d="M-125.868 362.132L-338 150L-125.868 -62.1323L160 150L-125.868 362.132Z" fill="#1F1F1F"/>
<path d="M50.1014 111.609C50.5964 110.331 52.4036 110.331 52.8986 111.609L61.6395 134.161C61.8523 134.71 62.3668 135.084 62.9548 135.117L87.1046 136.461C88.4723 136.537 89.0308 138.256 87.969 139.121L69.2213 154.403C68.7648 154.775 68.5683 155.38 68.7189 155.949L74.9035 179.333C75.2537 180.657 73.7917 181.719 72.6405 180.977L52.3129 167.869C51.818 167.55 51.182 167.55 50.6871 167.869L30.3595 180.977C29.2083 181.719 27.7463 180.657 28.0965 179.333L34.2811 155.949C34.4317 155.38 34.2352 154.775 33.7787 154.403L15.031 139.121C13.9692 138.256 14.5277 136.537 15.8954 136.461L40.0452 135.117C40.6332 135.084 41.1477 134.71 41.3605 134.161L50.1014 111.609Z" fill="white"/>
</g>
<defs>
<clipPath id="clip0">
<rect width="300" height="300" fill="white"/>
</clipPath>
</defs>
</svg>
