<svg width="300" height="300" viewBox="0 0 300 300" fill="none" xmlns="http://www.w3.org/2000/svg">
<rect width="300" height="300" fill="#3B9644"/>
<path fill-rule="evenodd" clip-rule="evenodd" d="M123.204 97.9818C122.215 97.1693 123.27 95.6919 124.47 96.1385C143.408 103.19 165.096 95.9571 175.396 78.1174C185.696 60.2775 181.116 37.8779 165.539 25.0026C164.552 24.1873 165.304 22.5351 166.502 22.985C168.736 23.8237 170.93 24.8562 173.064 26.0882C194.057 38.2088 201.25 65.0529 189.13 86.0463C177.009 107.04 150.165 114.233 129.172 102.112C127.038 100.88 125.047 99.4963 123.204 97.9818Z" fill="white"/>
<path d="M136.373 49.5073C136.557 47.4706 134.14 46.2731 132.631 47.6538V47.6538C131.983 48.2474 131.047 48.4065 130.238 48.0607V48.0607C128.358 47.2563 126.472 49.1856 127.319 51.047V51.047C127.683 51.8472 127.545 52.7865 126.967 53.4484V53.4484C125.621 54.9879 126.873 57.3778 128.905 57.1475V57.1475C129.778 57.0485 130.629 57.4698 131.08 58.2247V58.2247C132.128 59.9807 134.788 59.5284 135.197 57.5247V57.5247C135.372 56.6632 136.036 55.9843 136.893 55.789V55.789C138.887 55.3347 139.279 52.6653 137.5 51.6572V51.6572C136.735 51.2238 136.294 50.3829 136.373 49.5073V49.5073Z" fill="white"/>
<path d="M138.385 30.6321C138.639 28.603 136.264 27.3229 134.709 28.6508V28.6508C134.04 29.2217 133.099 29.3485 132.303 28.9751V28.9751C130.452 28.1063 128.501 29.9696 129.283 31.859V31.859C129.619 32.6713 129.449 33.6053 128.848 34.2469V34.2469C127.45 35.7391 128.619 38.1707 130.657 38.0105V38.0105C131.534 37.9417 132.37 38.3921 132.794 39.1621V39.1621C133.781 40.953 136.455 40.5926 136.933 38.6042V38.6042C137.138 37.7493 137.825 37.0937 138.688 36.928V36.928C140.696 36.5427 141.18 33.8883 139.436 32.8196V32.8196C138.687 32.3601 138.275 31.5045 138.385 30.6321V30.6321Z" fill="white"/>
<path d="M118.287 53.8905C118.573 51.8656 116.219 50.548 114.643 51.8511V51.8511C113.965 52.4113 113.023 52.5231 112.233 52.137V52.137C110.395 51.239 108.415 53.071 109.167 54.9726V54.9726C109.49 55.7902 109.305 56.7214 108.694 57.3533V57.3533C107.272 58.8231 108.403 61.273 110.444 61.1452V61.1452C111.321 61.0903 112.15 61.5539 112.562 62.3306V62.3306C113.52 64.137 116.199 63.8191 116.709 61.8385V61.8385C116.928 60.987 117.624 60.3424 118.49 60.1904V60.1904C120.505 59.837 121.03 57.1907 119.304 56.0944V56.0944C118.562 55.6231 118.164 54.761 118.287 53.8905V53.8905Z" fill="white"/>
<path d="M154.329 46.1681C154.461 44.1274 152.013 42.9926 150.54 44.4118V44.4118C149.907 45.0219 148.976 45.2051 148.159 44.8802V44.8802C146.259 44.1246 144.423 46.1019 145.318 47.9408V47.9408C145.702 48.7314 145.589 49.6739 145.027 50.3505V50.3505C143.721 51.9242 145.035 54.281 147.06 53.9984V53.9984C147.931 53.8769 148.792 54.2762 149.262 55.0192V55.0192C150.355 56.7475 153.003 56.2268 153.36 54.2132V54.2132C153.513 53.3475 154.159 52.6517 155.011 52.4344V52.4344C156.992 51.9288 157.315 49.2502 155.511 48.2883V48.2883C154.735 47.8748 154.273 47.0455 154.329 46.1681V46.1681Z" fill="white"/>
<path d="M134.269 69.4618C134.453 67.425 132.034 66.2284 130.526 67.6096V67.6096C129.878 68.2034 128.942 68.3629 128.134 68.0173V68.0173C126.253 67.2135 124.368 69.1435 125.216 71.0046V71.0046C125.58 71.8047 125.442 72.744 124.864 73.4061V73.4061C123.518 74.9461 124.771 77.3355 126.803 77.1046V77.1046C127.677 77.0053 128.528 77.4263 128.979 78.1811V78.1811C130.027 79.9366 132.687 79.4834 133.095 77.4796V77.4796C133.271 76.6181 133.934 75.939 134.791 75.7434V75.7434C136.785 75.2884 137.176 72.6188 135.396 71.6114V71.6114C134.631 71.1782 134.19 70.3375 134.269 69.4618V69.4618Z" fill="white"/>
<rect x="31" width="55" height="300" fill="#EF4B4B"/>
</svg>
