<svg width="300" height="300" viewBox="0 0 300 300" fill="none" xmlns="http://www.w3.org/2000/svg">
<rect width="300" height="300" fill="#EB5757"/>
<circle cx="150" cy="150" r="94" fill="white"/>
<mask id="mask0" mask-type="alpha" maskUnits="userSpaceOnUse" x="72" y="73" width="155" height="155">
<circle cx="149.5" cy="150.5" r="77.5" fill="white"/>
</mask>
<g mask="url(#mask0)">
<circle cx="149.5" cy="150.5" r="77.5" fill="#EB5757"/>
<ellipse cx="177" cy="150.5" rx="62" ry="61.5" fill="white"/>
<path d="M176.328 109.429C176.744 107.651 179.131 107.315 180.021 108.909L192.553 131.334C192.936 132.02 193.684 132.418 194.467 132.352L220.065 130.19C221.885 130.037 222.941 132.202 221.7 133.542L204.245 152.39C203.712 152.966 203.565 153.801 203.869 154.525L213.835 178.202C214.543 179.885 212.81 181.559 211.152 180.793L187.833 170.017C187.12 169.687 186.281 169.805 185.687 170.319L166.248 187.113C164.866 188.307 162.738 187.176 162.954 185.363L165.998 159.855C166.091 159.075 165.719 158.313 165.047 157.907L143.068 144.609C141.505 143.664 141.923 141.291 143.715 140.936L168.915 135.948C169.685 135.795 170.295 135.206 170.474 134.442L176.328 109.429Z" fill="#EB5757"/>
</g>
</svg>
