<svg width="300" height="300" viewBox="0 0 300 300" fill="none" xmlns="http://www.w3.org/2000/svg">
<rect width="300" height="300" fill="#EB5757"/>
<circle cx="150" cy="150" r="94" fill="white"/>
<path d="M196.644 87.4772C198.435 88.8157 196.723 91.6138 194.56 91.0493C189.435 89.7124 184.052 89 178.5 89C143.982 89 116 116.534 116 150.5C116 184.466 143.982 212 178.5 212C183.316 212 188.005 211.464 192.508 210.449C194.69 209.958 196.307 212.813 194.47 214.09C181.855 222.859 166.528 228 150 228C106.922 228 72 193.078 72 150C72 106.922 106.922 72 150 72C167.489 72 183.634 77.7561 196.644 87.4772Z" fill="#EB5757"/>
<path d="M170.564 116.966C171.605 112.52 177.57 111.68 179.797 115.666L187.609 129.646C188.567 131.359 190.438 132.354 192.395 132.189L208.352 130.842C212.902 130.457 215.543 135.871 212.441 139.221L201.56 150.971C200.226 152.411 199.858 154.498 200.62 156.308L206.832 171.068C208.603 175.276 204.271 179.462 200.126 177.546L185.589 170.828C183.807 170.005 181.708 170.3 180.223 171.583L168.105 182.053C164.65 185.038 159.331 182.211 159.871 177.677L161.769 161.776C162.001 159.827 161.072 157.922 159.392 156.905L145.69 148.616C141.784 146.252 142.828 140.32 147.308 139.433L163.017 136.324C164.943 135.942 166.467 134.47 166.914 132.558L170.564 116.966Z" fill="#EB5757"/>
</svg>
