<svg width="300" height="300" viewBox="0 0 300 300" fill="none" xmlns="http://www.w3.org/2000/svg">
<rect width="300" height="300" fill="#EB5757"/>
<path fill-rule="evenodd" clip-rule="evenodd" d="M184.276 87.2357C186.117 88.5412 184.406 91.4139 182.217 90.8659C177.348 89.6473 172.25 89 167 89C132.758 89 105 116.534 105 150.5C105 184.466 132.758 212 167 212C172.25 212 177.348 211.353 182.217 210.134C184.406 209.586 186.117 212.459 184.276 213.764C171.631 222.73 156.181 228 139.5 228C96.6979 228 62 193.302 62 150.5C62 107.698 96.6979 73 139.5 73C156.181 73 171.631 78.2699 184.276 87.2357Z" fill="white"/>
<path d="M201.503 133.42C202.336 129.863 207.108 129.191 208.89 132.38L211.863 137.701C212.63 139.072 214.127 139.868 215.692 139.736L221.766 139.223C225.406 138.916 227.519 143.247 225.037 145.927L220.895 150.399C219.828 151.551 219.534 153.221 220.143 154.669L222.508 160.287C223.925 163.654 220.459 167.002 217.143 165.47L211.61 162.913C210.184 162.254 208.505 162.49 207.317 163.517L202.704 167.502C199.94 169.89 195.685 167.629 196.117 164.001L196.839 157.949C197.025 156.389 196.282 154.865 194.938 154.052L189.723 150.897C186.597 149.006 187.433 144.26 191.016 143.551L196.996 142.367C198.537 142.062 199.756 140.884 200.114 139.355L201.503 133.42Z" fill="white"/>
</svg>
