<svg width="300" height="300" viewBox="0 0 300 300" fill="none" xmlns="http://www.w3.org/2000/svg">
<g clip-path="url(#clip0_1322_398)">
<rect width="300" height="300" fill="#59AFFF"/>
<rect x="300" y="300" width="300" height="300" transform="rotate(-180 300 300)" fill="#59AFFF"/>
<mask id="mask0_1322_398" style="mask-type:alpha" maskUnits="userSpaceOnUse" x="0" y="0" width="137" height="83">
<rect x="137" y="82.2002" width="137" height="82.2" transform="rotate(-180 137 82.2002)" fill="#3662D5"/>
</mask>
<g mask="url(#mask0_1322_398)">
<rect x="137" y="82.2002" width="137" height="82.2" transform="rotate(-180 137 82.2002)" fill="#3662D5"/>
<rect x="-15.5996" y="80.1401" width="235.649" height="16.5549" transform="rotate(-30 -15.5996 80.1401)" fill="white"/>
<rect width="235.649" height="16.5549" transform="matrix(-0.866025 -0.5 -0.5 0.866025 182.215 97.5483)" fill="white"/>
<rect x="-0.478109" y="0.128109" width="94.0374" height="7.94375" transform="matrix(-0.866025 -0.5 -0.5 0.866025 152.982 80.927)" fill="#EF4B4B" stroke="white" stroke-width="0.7"/>
<rect x="-2.9519" y="0.790958" width="90.4155" height="4.32188" transform="matrix(-0.866025 -0.5 -0.5 0.866025 61.2519 38.6007)" fill="#EF4B4B" stroke="white" stroke-width="4.32188"/>
<rect x="-0.478109" y="0.128109" width="94.0374" height="7.94375" transform="matrix(-0.866025 -0.5 -0.5 0.866025 65.5366 39.7488)" fill="#EF4B4B" stroke="white" stroke-width="0.7"/>
<rect x="57.7442" y="38.4548" width="94.0374" height="7.94375" transform="rotate(-30 57.7442 38.4548)" fill="#EF4B4B" stroke="white" stroke-width="0.7"/>
<rect x="-20.3461" y="92.4328" width="114.437" height="7.94375" transform="rotate(-30 -20.3461 92.4328)" fill="#EF4B4B" stroke="white" stroke-width="0.7"/>
<rect x="-1.5" y="1.5" width="232.649" height="13.5549" transform="matrix(-1 8.74228e-08 8.74228e-08 1 191.001 32.8799)" fill="#EF4B4B" stroke="white" stroke-width="3"/>
<rect x="-4.11" y="-4.11" width="73.98" height="8.22" transform="matrix(1.19249e-08 -1 -1 -1.19249e-08 68.5002 27.1262)" fill="#EF4B4B" stroke="white" stroke-width="8.22"/>
<rect x="-4.11" y="-4.11" width="73.98" height="8.22" transform="matrix(1.19249e-08 -1 -1 -1.19249e-08 68.5002 121.108)" fill="#EF4B4B" stroke="white" stroke-width="8.22"/>
<rect width="95" height="11" transform="matrix(1.19249e-08 -1 -1 -1.19249e-08 74 93)" fill="#EF4B4B"/>
</g>
<path d="M67.342 249.065C66.3426 245.867 69.9753 243.227 72.7079 245.166L78.3868 249.195C79.5998 250.056 81.2243 250.056 82.4373 249.195L88.1162 245.166C90.8488 243.227 94.4815 245.867 93.4821 249.065L91.4051 255.711C90.9615 257.13 91.4635 258.675 92.6568 259.563L98.2435 263.719C100.932 265.719 99.5442 269.989 96.1939 270.027L89.2314 270.105C87.7442 270.122 86.43 271.077 85.9545 272.486L83.7284 279.084C82.6572 282.258 78.167 282.258 77.0958 279.084L74.8696 272.486C74.3941 271.077 73.0799 270.122 71.5927 270.105L64.6302 270.027C61.2799 269.989 59.8923 265.719 62.5806 263.719L68.1673 259.563C69.3606 258.675 69.8626 257.13 69.419 255.711L67.342 249.065Z" fill="#FFB84F"/>
<path d="M118.342 241.065C117.343 237.867 120.975 235.227 123.708 237.166L129.387 241.195C130.6 242.056 132.224 242.056 133.437 241.195L139.116 237.166C141.849 235.227 145.481 237.867 144.482 241.065L142.405 247.711C141.961 249.13 142.463 250.675 143.657 251.563L149.243 255.719C151.932 257.719 150.544 261.989 147.194 262.027L140.231 262.105C138.744 262.122 137.43 263.077 136.954 264.486L134.728 271.084C133.657 274.258 129.167 274.258 128.096 271.084L125.87 264.486C125.394 263.077 124.08 262.122 122.593 262.105L115.63 262.027C112.28 261.989 110.892 257.719 113.581 255.719L119.167 251.563C120.361 250.675 120.863 249.13 120.419 247.711L118.342 241.065Z" fill="#FFB84F"/>
<path d="M169.342 230.065C168.343 226.867 171.975 224.227 174.708 226.166L180.387 230.195C181.6 231.056 183.224 231.056 184.437 230.195L190.116 226.166C192.849 224.227 196.481 226.867 195.482 230.065L193.405 236.711C192.961 238.13 193.463 239.675 194.657 240.563L200.243 244.719C202.932 246.719 201.544 250.989 198.194 251.027L191.231 251.105C189.744 251.122 188.43 252.077 187.954 253.486L185.728 260.084C184.657 263.258 180.167 263.258 179.096 260.084L176.87 253.486C176.394 252.077 175.08 251.122 173.593 251.105L166.63 251.027C163.28 250.989 161.892 246.719 164.581 244.719L170.167 240.563C171.361 239.675 171.863 238.13 171.419 236.711L169.342 230.065Z" fill="#FFB84F"/>
<path d="M208.342 203.065C207.343 199.867 210.975 197.227 213.708 199.166L219.387 203.195C220.6 204.056 222.224 204.056 223.437 203.195L229.116 199.166C231.849 197.227 235.481 199.867 234.482 203.065L232.405 209.711C231.961 211.13 232.463 212.675 233.657 213.563L239.243 217.719C241.932 219.719 240.544 223.989 237.194 224.027L230.231 224.105C228.744 224.122 227.43 225.077 226.954 226.486L224.728 233.084C223.657 236.258 219.167 236.258 218.096 233.084L215.87 226.486C215.394 225.077 214.08 224.122 212.593 224.105L205.63 224.027C202.28 223.989 200.892 219.719 203.581 217.719L209.167 213.563C210.361 212.675 210.863 211.13 210.419 209.711L208.342 203.065Z" fill="#FFB84F"/>
<path d="M127.342 194.065C126.343 190.867 129.975 188.227 132.708 190.166L138.387 194.195C139.6 195.056 141.224 195.056 142.437 194.195L148.116 190.166C150.849 188.227 154.481 190.867 153.482 194.065L151.405 200.711C150.961 202.13 151.463 203.675 152.657 204.563L158.243 208.719C160.932 210.719 159.544 214.989 156.194 215.027L149.231 215.105C147.744 215.122 146.43 216.077 145.954 217.486L143.728 224.084C142.657 227.258 138.167 227.258 137.096 224.084L134.87 217.486C134.394 216.077 133.08 215.122 131.593 215.105L124.63 215.027C121.28 214.989 119.892 210.719 122.581 208.719L128.167 204.563C129.361 203.675 129.863 202.13 129.419 200.711L127.342 194.065Z" fill="#FFB84F"/>
<path d="M245.342 89.0647C244.343 85.8667 247.975 83.2274 250.708 85.1661L256.387 89.1952C257.6 90.0558 259.224 90.0558 260.437 89.1952L266.116 85.1661C268.849 83.2274 272.481 85.8667 271.482 89.0647L269.405 95.7107C268.961 97.1303 269.463 98.6752 270.657 99.5629L276.243 103.719C278.932 105.719 277.544 109.989 274.194 110.027L267.231 110.105C265.744 110.122 264.43 111.077 263.954 112.486L261.728 119.084C260.657 122.258 256.167 122.258 255.096 119.084L252.87 112.486C252.394 111.077 251.08 110.122 249.593 110.105L242.63 110.027C239.28 109.989 237.892 105.719 240.581 103.719L246.167 99.5629C247.361 98.6752 247.863 97.1303 247.419 95.7107L245.342 89.0647Z" fill="#FFB84F"/>
<path d="M158.342 148.065C157.343 144.867 160.975 142.227 163.708 144.166L169.387 148.195C170.6 149.056 172.224 149.056 173.437 148.195L179.116 144.166C181.849 142.227 185.481 144.867 184.482 148.065L182.405 154.711C181.961 156.13 182.463 157.675 183.657 158.563L189.243 162.719C191.932 164.719 190.544 168.989 187.194 169.027L180.231 169.105C178.744 169.122 177.43 170.077 176.954 171.486L174.728 178.084C173.657 181.258 169.167 181.258 168.096 178.084L165.87 171.486C165.394 170.077 164.08 169.122 162.593 169.105L155.63 169.027C152.28 168.989 150.892 164.719 153.581 162.719L159.167 158.563C160.361 157.675 160.863 156.13 160.419 154.711L158.342 148.065Z" fill="#FFB84F"/>
<path d="M208.342 133.065C207.343 129.867 210.975 127.227 213.708 129.166L219.387 133.195C220.6 134.056 222.224 134.056 223.437 133.195L229.116 129.166C231.849 127.227 235.481 129.867 234.482 133.065L232.405 139.711C231.961 141.13 232.463 142.675 233.657 143.563L239.243 147.719C241.932 149.719 240.544 153.989 237.194 154.027L230.231 154.105C228.744 154.122 227.43 155.077 226.954 156.486L224.728 163.084C223.657 166.258 219.167 166.258 218.096 163.084L215.87 156.486C215.394 155.077 214.08 154.122 212.593 154.105L205.63 154.027C202.28 153.989 200.892 149.719 203.581 147.719L209.167 143.563C210.361 142.675 210.863 141.13 210.419 139.711L208.342 133.065Z" fill="#FFB84F"/>
<path d="M245.342 181.065C244.343 177.867 247.975 175.227 250.708 177.166L256.387 181.195C257.6 182.056 259.224 182.056 260.437 181.195L266.116 177.166C268.849 175.227 272.481 177.867 271.482 181.065L269.405 187.711C268.961 189.13 269.463 190.675 270.657 191.563L276.243 195.719C278.932 197.719 277.544 201.989 274.194 202.027L267.231 202.105C265.744 202.122 264.43 203.077 263.954 204.486L261.728 211.084C260.657 214.258 256.167 214.258 255.096 211.084L252.87 204.486C252.394 203.077 251.08 202.122 249.593 202.105L242.63 202.027C239.28 201.989 237.892 197.719 240.581 195.719L246.167 191.563C247.361 190.675 247.863 189.13 247.419 187.711L245.342 181.065Z" fill="#FFB84F"/>
</g>
<defs>
<clipPath id="clip0_1322_398">
<rect width="300" height="300" fill="white"/>
</clipPath>
</defs>
</svg>
