<svg width="300" height="300" viewBox="0 0 300 300" fill="none" xmlns="http://www.w3.org/2000/svg">
<g clip-path="url(#clip0_118_149)">
<rect width="300" height="300" fill="#EF4B4B"/>
<rect x="300" y="300" width="300" height="300" transform="rotate(-180 300 300)" fill="#EF4B4B"/>
<rect x="150" y="150" width="150" height="150" transform="rotate(-180 150 150)" fill="#3661F6"/>
<path d="M73.0528 43.7224C73.6064 41.0703 77.3936 41.0703 77.9472 43.7224L79.1297 49.3863C79.5666 51.4791 82.2584 52.0935 83.5601 50.3975L87.0829 45.8076C88.7324 43.6583 92.1445 45.3015 91.4927 47.9312L90.1005 53.5472C89.5861 55.6223 91.7448 57.3438 93.6535 56.3806L98.8189 53.7737C101.238 52.553 103.599 55.5139 101.871 57.6003L98.1796 62.0561C96.8158 63.7026 98.0138 66.1902 100.151 66.1505L105.936 66.0429C108.645 65.9926 109.488 69.6848 107.025 70.8147L101.767 73.2278C99.8235 74.1195 99.8235 76.8805 101.767 77.7722L107.025 80.1853C109.488 81.3152 108.645 85.0074 105.936 84.9571L100.151 84.8495C98.0138 84.8098 96.8158 87.2974 98.1796 88.9439L101.871 93.3997C103.599 95.4861 101.238 98.447 98.8189 97.2263L93.6535 94.6194C91.7448 93.6562 89.5861 95.3777 90.1005 97.4528L91.4927 103.069C92.1445 105.699 88.7324 107.342 87.0829 105.192L83.5601 100.603C82.2584 98.9065 79.5666 99.5209 79.1297 101.614L77.9472 107.278C77.3936 109.93 73.6064 109.93 73.0528 107.278L71.8703 101.614C71.4334 99.5209 68.7416 98.9065 67.4399 100.603L63.9171 105.192C62.2676 107.342 58.8555 105.699 59.5073 103.069L60.8995 97.4528C61.4139 95.3777 59.2552 93.6562 57.3465 94.6194L52.1811 97.2263C49.7624 98.447 47.4011 95.4861 49.1295 93.3997L52.8204 88.9439C54.1842 87.2974 52.9862 84.8098 50.8487 84.8495L45.0637 84.9571C42.3549 85.0074 41.5122 81.3152 43.9746 80.1853L49.2333 77.7722C51.1765 76.8805 51.1765 74.1195 49.2333 73.2278L43.9746 70.8147C41.5122 69.6848 42.3549 65.9926 45.0637 66.0429L50.8487 66.1505C52.9862 66.1902 54.1842 63.7026 52.8204 62.0561L49.1295 57.6003C47.4011 55.5139 49.7624 52.553 52.1811 53.7737L57.3465 56.3806C59.2552 57.3438 61.4139 55.6223 60.8995 53.5472L59.5073 47.9312C58.8555 45.3015 62.2676 43.6583 63.9171 45.8076L67.4399 50.3975C68.7416 52.0935 71.4334 51.4791 71.8703 49.3863L73.0528 43.7224Z" fill="white"/>
<circle cx="75" cy="75" r="17.6" stroke="#3661F6" stroke-width="2.8"/>
</g>
<defs>
<clipPath id="clip0_118_149">
<rect width="300" height="300" fill="white"/>
</clipPath>
</defs>
</svg>
