<svg width="300" height="300" viewBox="0 0 300 300" fill="none" xmlns="http://www.w3.org/2000/svg">
<rect width="300" height="300" fill="#3A7DCE"/>
<path d="M140.027 208.14C153.794 208.14 166.791 217.433 175.825 226.063H175.824C175.94 226.174 176.011 226.33 176.011 226.497L176.004 226.586C175.986 226.705 175.932 226.814 175.853 226.901C174.718 228.195 173.265 229.394 171.936 230.467C171.694 230.662 171.343 230.64 171.127 230.417C166.805 225.951 162.14 221.277 157.362 217.719C152.574 214.153 147.756 211.773 143.131 211.773C140.303 211.773 137.846 212.847 135.438 214.358C134.233 215.115 133.053 215.973 131.848 216.853C130.798 217.619 129.728 218.401 128.623 219.131L128.147 219.44C121.083 223.956 111.313 226.555 102.875 223.188V223.187C98.4117 221.49 94.0379 218.975 90.7588 214.86C90.5738 214.628 90.5873 214.294 90.79 214.077C90.993 213.86 91.3246 213.824 91.5693 213.993C97.832 218.312 107.271 218.91 114.387 215.958L115.885 215.326C123.398 212.108 131.284 208.14 140.027 208.14ZM94.8262 186.222C95.0269 186.01 95.3509 185.973 95.5938 186.135C102.126 190.477 107.572 196.45 113.577 201.942L113.964 202.287C117.992 205.789 122.964 207.347 128.215 208.415C128.478 208.469 128.673 208.69 128.693 208.958C128.713 209.226 128.553 209.474 128.301 209.566C127.565 209.835 126.738 209.931 125.975 210.006C125.281 210.074 124.64 210.125 124.054 210.245L123.807 210.301C118.953 211.505 113.734 213.085 108.461 213.923C103.335 214.737 98.0856 214.865 92.9141 213.272L92.4131 213.112C85.5673 210.853 78.4327 205.507 74.9521 198.684C74.8148 198.414 74.8992 198.085 75.1494 197.915C75.3998 197.745 75.7378 197.788 75.9375 198.016C80.2697 202.947 85.98 204.646 92.1855 205.411C95.2942 205.794 98.4907 205.94 101.696 206.15C104.455 206.332 107.211 206.562 109.866 207.038C105.635 205.136 103.096 201.865 101.062 198.306C99.976 196.404 99.0146 194.385 98.0312 192.461C97.0406 190.522 96.0178 188.658 94.7803 186.992C94.6064 186.758 94.6256 186.433 94.8262 186.222ZM81.5127 166.114C81.7673 165.948 82.1066 165.998 82.3018 166.231L83.001 167.073C86.4807 171.294 89.7315 175.697 91.7822 180.58L92.1035 181.364C92.8389 183.201 93.4758 185.083 94.1035 186.951C94.8231 189.093 95.5304 191.217 96.3701 193.277C98.0467 197.39 100.232 201.202 104.003 204.244C104.228 204.426 104.292 204.744 104.153 204.998C104.015 205.253 103.713 205.371 103.438 205.28C99.2887 203.911 94.8442 203.37 90.375 202.532C86.0796 201.727 81.8047 200.654 78.0088 198.273L77.6436 198.039C69.7479 192.867 62.334 184.7 60.623 175.37L60.5459 174.925C60.4973 174.627 60.6774 174.339 60.9668 174.253C61.2563 174.167 61.5645 174.31 61.6865 174.586L61.9463 175.152C64.6934 180.927 69.3186 184.133 74.4805 186.821C75.8132 187.515 77.1769 188.173 78.5527 188.832C79.9259 189.49 81.3129 190.15 82.6777 190.845C85.4073 192.234 88.0782 193.773 90.46 195.753L91.1221 196.297C91.2532 196.403 91.3848 196.508 91.5156 196.612C90.7379 195.758 89.9984 194.872 89.3418 193.967L89.0146 193.503C86.2635 189.505 85.3609 184.795 84.625 180.158C83.9053 175.623 83.3445 171.175 81.4883 167.262L81.3047 166.885C81.1685 166.612 81.258 166.281 81.5127 166.114ZM75.5508 146.974C75.8368 146.888 76.142 147.025 76.2676 147.296C78.7508 152.656 79.5827 158.663 80.1514 164.692C80.7232 170.755 81.0296 176.816 82.4238 182.446L82.5439 182.891C82.8477 183.92 83.3041 184.912 83.8076 185.924C84.3743 187.062 85.0136 188.248 85.498 189.471C85.5973 189.721 85.5174 190.007 85.3027 190.17C85.0881 190.332 84.7914 190.332 84.5771 190.169C82.209 188.367 79.4694 186.665 76.6367 184.878C74.167 183.32 71.632 181.701 69.2578 179.919L68.25 179.145C63.2861 175.232 58.9016 170.625 56.498 164.653L56.2715 164.071C54.5794 159.562 54.148 154.216 54.5586 149.204L54.5791 149.091C54.6505 148.835 54.8857 148.652 55.1602 148.653C55.4732 148.655 55.732 148.897 55.7549 149.209C56.1429 154.561 59.1831 158.703 62.9365 162.707C63.8727 163.706 64.8476 164.691 65.833 165.683C66.8164 166.672 67.8113 167.669 68.7764 168.685C70.7062 170.715 72.5406 172.839 73.9863 175.18L74.4424 175.916C74.517 176.036 74.5929 176.154 74.668 176.273C73.2933 172.644 72.7126 168.591 73.1143 164.441L73.1719 163.902C73.4858 161.208 74.1727 158.575 74.6768 156.019C75.2202 153.262 75.5692 150.526 75.1299 147.638C75.0851 147.343 75.2649 147.06 75.5508 146.974ZM57.0938 121.04C57.2444 120.833 57.5153 120.741 57.7666 120.823C58.0538 120.918 58.2257 121.211 58.168 121.508C57.177 126.593 58.3648 130.988 60.1357 135.289C61.0272 137.454 62.045 139.549 63.0156 141.729C63.9786 143.893 64.8793 146.106 65.4883 148.426L65.6523 149.079C65.8197 149.773 65.9672 150.475 66.1084 151.175C66.4324 144.168 70.2305 137.707 73.8477 132.106L74.0713 131.745C75.1561 129.917 75.7226 127.809 76.292 125.586L76.3281 125.485C76.4299 125.262 76.6603 125.12 76.9121 125.136C77.2001 125.154 77.4339 125.376 77.4688 125.662C77.946 129.588 77.2755 134.035 76.5605 138.095L76.2539 139.808C75.2043 145.662 73.1936 151.194 71.6299 156.748L71.627 156.757C70.6257 160.131 70.8814 163.979 71.4131 167.638C71.4485 167.881 71.3317 168.122 71.1182 168.244C70.9046 168.367 70.6378 168.347 70.4453 168.193L69.9434 167.793C69.8804 167.743 69.8284 167.68 69.79 167.609C67.9925 164.291 65.3234 161.34 62.7559 158.215C60.2933 155.217 57.9394 152.074 56.7676 148.407L56.6582 148.051C54.9019 142.111 53.664 135.182 54.8984 128.621L54.9033 128.598L55.3164 126.735C55.7332 124.847 56.1985 122.903 57.0371 121.136L57.0938 121.04ZM66.9688 96.4385C67.1002 96.3581 67.3197 96.26 67.6055 96.3115C67.8038 96.3473 67.9713 96.4799 68.0508 96.665C68.1303 96.8502 68.1107 97.0631 68 97.2314C65.5617 100.941 65.4283 105.163 65.8672 109.658C66.0887 111.927 66.4429 114.165 66.7119 116.491C66.9607 118.642 67.1276 120.808 67.0088 122.934L66.9814 123.358L66.7354 126.655C67.6788 124.012 69.2623 121.671 71.1211 119.514C73.5825 116.657 76.5872 114.06 79.2764 111.511V111.51L79.4951 111.298C80.5692 110.223 81.4095 108.936 81.9629 107.519L82.0127 107.419C82.1483 107.201 82.4124 107.091 82.6689 107.155C82.9622 107.229 83.1543 107.51 83.1172 107.811C82.6872 111.271 81.7553 114.822 80.2676 118.031L79.9619 118.668C77.8451 122.954 74.7275 126.854 72.0381 130.773C69.4098 134.604 67.1529 138.498 66.373 142.984L66.3018 143.421C66.2562 143.723 65.9915 143.942 65.6865 143.931C65.3816 143.919 65.1336 143.681 65.1104 143.377C64.7658 138.865 63.2133 134.93 61.7041 130.812C60.2025 126.713 58.755 122.456 58.7549 117.431C58.7549 109.306 61.9241 102.692 66.6221 96.7021L66.7148 96.6074C66.7492 96.5794 66.7873 96.556 66.8271 96.5361C66.8177 96.5408 66.818 96.5423 66.8447 96.5234C66.8604 96.5124 66.9156 96.471 66.9688 96.4385ZM81.5625 84.0811C81.8443 84.0089 82.1375 84.1493 82.2578 84.4141C82.378 84.6787 82.2911 84.9914 82.0518 85.1562C78.8818 87.3359 77.3639 90.378 76.3867 93.7832C75.8965 95.4914 75.5465 97.2731 75.1885 99.0801C74.8768 100.653 74.5592 102.245 74.1367 103.785L73.9492 104.442C73.7089 105.249 73.4296 106.04 73.1484 106.819C74.032 105.579 75.0531 104.405 76.1924 103.33L76.6494 102.911C77.7304 101.944 78.9093 101.06 80.0996 100.205C81.4705 99.2205 82.8408 98.285 84.1484 97.2783C86.755 95.2717 88.9845 93.0737 90.085 90.0049C90.1839 89.729 90.4684 89.5643 90.7568 89.6162C91.045 89.6682 91.2533 89.9211 91.25 90.2139C91.195 94.8841 89.1756 98.9639 86.3223 102.519C83.8281 105.626 80.6736 108.36 77.5752 110.77L76.2529 111.782C73.1856 114.099 70.5838 117.209 69.001 120.454C68.873 120.716 68.575 120.848 68.2949 120.767C68.0147 120.686 67.8335 120.415 67.8652 120.125C68.1013 117.969 68.2218 116.153 68.1035 114.147L68.0381 113.274C67.6792 109.351 67.3763 105.133 67.8506 101.138C68.3258 97.1352 69.5855 93.3123 72.3848 90.209L72.8779 89.6729C75.3691 87.0301 78.1969 84.9425 81.5625 84.0811ZM99.748 74.917C99.991 74.8693 100.244 74.9764 100.376 75.1943C100.527 75.4432 100.478 75.7649 100.259 75.957C95.6823 79.9729 92.5647 85.0356 89.0186 89.8477L88.3027 90.8066C86.6812 92.9499 84.7654 94.6759 82.8105 96.291C80.8399 97.9191 78.8624 99.4108 77.0176 101.145C76.8069 101.343 76.4841 101.362 76.251 101.191C76.0181 101.02 75.9401 100.708 76.0654 100.447C77.0449 98.4151 77.6253 96.2366 78.2969 93.9883C78.9619 91.7618 79.7121 89.4867 81.0371 87.3926L81.4668 86.7402C85.9922 80.1228 93.1626 77.4743 99.6455 74.9473L99.748 74.917Z" fill="white" stroke="white" stroke-width="1.2" stroke-linejoin="round"/>
<path d="M160.383 208.634C146.617 208.634 133.619 217.927 124.585 226.558H124.586C124.47 226.669 124.4 226.824 124.4 226.991L124.407 227.08C124.425 227.199 124.478 227.308 124.558 227.396C125.692 228.689 127.145 229.888 128.475 230.961C128.717 231.156 129.068 231.134 129.284 230.911C133.605 226.445 138.271 221.771 143.048 218.213C147.837 214.647 152.654 212.268 157.28 212.268C160.108 212.268 162.565 213.341 164.972 214.853C166.177 215.609 167.357 216.467 168.563 217.347C169.613 218.113 170.683 218.896 171.788 219.625L172.263 219.935C179.328 224.45 189.097 227.049 197.536 223.682V223.681C201.999 221.984 206.373 219.469 209.652 215.354C209.837 215.122 209.823 214.789 209.621 214.571C209.418 214.354 209.086 214.319 208.841 214.487C202.579 218.806 193.139 219.404 186.024 216.452L184.526 215.82C177.013 212.602 169.127 208.634 160.383 208.634ZM205.584 186.716C205.384 186.504 205.06 186.467 204.817 186.629C198.285 190.971 192.838 196.944 186.833 202.437L186.447 202.781C182.418 206.283 177.447 207.841 172.196 208.909C171.933 208.963 171.737 209.184 171.717 209.452C171.697 209.72 171.858 209.968 172.11 210.061C172.845 210.329 173.672 210.425 174.436 210.5C175.129 210.568 175.771 210.619 176.357 210.739L176.604 210.795C181.458 211.999 186.677 213.579 191.95 214.417C197.075 215.231 202.325 215.359 207.497 213.767L207.998 213.606C214.843 211.347 221.978 206.001 225.458 199.178C225.596 198.908 225.511 198.579 225.261 198.409C225.011 198.239 224.673 198.282 224.473 198.51C220.141 203.441 214.431 205.14 208.225 205.905C205.116 206.289 201.92 206.434 198.714 206.645C195.956 206.826 193.199 207.057 190.544 207.532C194.775 205.63 197.315 202.359 199.348 198.8C200.435 196.898 201.396 194.88 202.379 192.955C203.37 191.016 204.393 189.152 205.63 187.486C205.804 187.252 205.785 186.927 205.584 186.716ZM218.898 166.608C218.643 166.442 218.304 166.492 218.109 166.726L217.41 167.567C213.93 171.788 210.679 176.192 208.628 181.074L208.307 181.858C207.572 183.695 206.935 185.577 206.307 187.445C205.588 189.587 204.88 191.711 204.041 193.771C202.364 197.884 200.178 201.697 196.408 204.738C196.182 204.92 196.119 205.238 196.257 205.492C196.396 205.747 196.698 205.865 196.973 205.774C201.122 204.406 205.566 203.864 210.036 203.026C214.331 202.222 218.606 201.148 222.402 198.768L222.767 198.533C230.663 193.361 238.077 185.194 239.788 175.864L239.865 175.419C239.913 175.121 239.733 174.833 239.444 174.747C239.154 174.661 238.846 174.804 238.724 175.08L238.464 175.646C235.717 181.421 231.092 184.627 225.93 187.315C224.597 188.01 223.234 188.667 221.858 189.326C220.485 189.984 219.098 190.644 217.733 191.339C215.003 192.728 212.332 194.267 209.951 196.247L209.289 196.791C209.157 196.898 209.026 197.002 208.895 197.106C209.673 196.253 210.412 195.366 211.069 194.461L211.396 193.997C214.147 190 215.05 185.289 215.786 180.652C216.505 176.117 217.066 171.669 218.922 167.756L219.106 167.379C219.242 167.107 219.153 166.775 218.898 166.608ZM224.86 147.468C224.574 147.382 224.269 147.519 224.143 147.79C221.66 153.15 220.828 159.157 220.259 165.187C219.687 171.249 219.381 177.311 217.987 182.94L217.867 183.385C217.563 184.415 217.107 185.407 216.603 186.418C216.036 187.556 215.397 188.742 214.913 189.965C214.813 190.215 214.893 190.501 215.108 190.664C215.323 190.827 215.619 190.826 215.833 190.663C218.202 188.862 220.941 187.159 223.774 185.372C226.244 183.814 228.779 182.196 231.153 180.413L232.161 179.639C237.125 175.726 241.509 171.119 243.913 165.147L244.139 164.565C245.831 160.056 246.263 154.71 245.852 149.698L245.832 149.585C245.76 149.33 245.525 149.146 245.25 149.147C244.937 149.149 244.679 149.391 244.656 149.703C244.268 155.055 241.228 159.197 237.474 163.201C236.538 164.2 235.563 165.185 234.578 166.177C233.594 167.167 232.599 168.163 231.634 169.179C229.704 171.209 227.87 173.333 226.424 175.674L225.968 176.41C225.894 176.53 225.818 176.649 225.743 176.768C227.117 173.138 227.698 169.085 227.296 164.936L227.239 164.396C226.925 161.702 226.238 159.07 225.734 156.513C225.19 153.756 224.841 151.02 225.281 148.132C225.326 147.837 225.146 147.554 224.86 147.468ZM243.317 121.534C243.166 121.327 242.895 121.235 242.644 121.317C242.357 121.412 242.185 121.705 242.243 122.002C243.234 127.087 242.046 131.482 240.275 135.783C239.383 137.948 238.366 140.043 237.395 142.224C236.432 144.387 235.531 146.6 234.922 148.92L234.758 149.573C234.591 150.267 234.443 150.969 234.302 151.669C233.978 144.662 230.18 138.201 226.563 132.601L226.339 132.239C225.255 130.411 224.688 128.303 224.119 126.08L224.083 125.979C223.981 125.756 223.75 125.614 223.499 125.63C223.211 125.649 222.977 125.87 222.942 126.156C222.465 130.083 223.135 134.529 223.85 138.589L224.157 140.302C225.206 146.156 227.217 151.688 228.781 157.242L228.784 157.251C229.785 160.626 229.529 164.473 228.998 168.132C228.962 168.375 229.079 168.616 229.292 168.738C229.506 168.861 229.773 168.841 229.965 168.688L230.467 168.287C230.53 168.237 230.582 168.174 230.621 168.104C232.418 164.785 235.087 161.834 237.655 158.709C240.117 155.712 242.471 152.568 243.643 148.901L243.752 148.545C245.509 142.605 246.747 135.676 245.512 129.115L245.507 129.092L245.094 127.229C244.677 125.341 244.212 123.398 243.374 121.63L243.317 121.534ZM233.442 96.9326C233.31 96.8523 233.091 96.7541 232.805 96.8057C232.607 96.8414 232.439 96.974 232.36 97.1592C232.28 97.3443 232.3 97.5572 232.411 97.7256C234.849 101.435 234.982 105.657 234.543 110.152C234.322 112.421 233.968 114.659 233.699 116.985C233.45 119.136 233.283 121.302 233.402 123.428L233.429 123.853L233.675 127.149C232.732 124.506 231.148 122.165 229.29 120.008C226.828 117.151 223.823 114.554 221.134 112.005V112.004L220.916 111.792C219.841 110.717 219.001 109.43 218.448 108.013L218.398 107.913C218.262 107.696 217.998 107.585 217.742 107.649C217.448 107.724 217.256 108.005 217.293 108.305C217.723 111.765 218.655 115.316 220.143 118.525L220.449 119.162C222.566 123.448 225.683 127.348 228.373 131.268C231.001 135.098 233.258 138.992 234.038 143.479L234.109 143.915C234.154 144.217 234.419 144.436 234.724 144.425C235.029 144.413 235.277 144.175 235.3 143.871C235.645 139.359 237.197 135.424 238.707 131.306C240.208 127.208 241.656 122.95 241.656 117.925C241.656 109.8 238.487 103.187 233.789 97.1963L233.696 97.1016C233.661 97.0736 233.623 97.0501 233.583 97.0303C233.593 97.035 233.593 97.0364 233.566 97.0176C233.55 97.0065 233.495 96.9652 233.442 96.9326ZM218.848 84.5752C218.566 84.5031 218.273 84.6434 218.153 84.9082C218.033 85.1728 218.12 85.4855 218.359 85.6504C221.529 87.83 223.047 90.8721 224.024 94.2773C224.514 95.9856 224.864 97.7672 225.222 99.5742C225.534 101.147 225.851 102.739 226.274 104.279L226.461 104.937C226.702 105.743 226.981 106.534 227.262 107.313C226.379 106.074 225.358 104.899 224.218 103.824L223.761 103.405C222.68 102.438 221.501 101.554 220.311 100.699C218.94 99.7147 217.57 98.7791 216.262 97.7725C213.656 95.7658 211.426 93.5678 210.326 90.499C210.227 90.2232 209.942 90.0585 209.654 90.1104C209.366 90.1624 209.157 90.4152 209.161 90.708C209.216 95.3782 211.235 99.458 214.088 103.013C216.583 106.12 219.737 108.854 222.835 111.264L224.158 112.276C227.225 114.593 229.827 117.703 231.41 120.948C231.538 121.21 231.836 121.342 232.116 121.261C232.396 121.18 232.577 120.909 232.545 120.619C232.309 118.463 232.189 116.647 232.307 114.642L232.373 113.769C232.731 109.845 233.034 105.627 232.56 101.632C232.085 97.6294 230.825 93.8065 228.026 90.7031L227.533 90.167C225.042 87.5242 222.214 85.4366 218.848 84.5752ZM200.663 75.4111C200.42 75.3635 200.167 75.4706 200.035 75.6885C199.883 75.9374 199.933 76.2591 200.152 76.4512C204.728 80.4671 207.846 85.5297 211.392 90.3418L212.108 91.3008C213.729 93.444 215.645 95.1701 217.6 96.7852C219.571 98.4133 221.548 99.9049 223.393 101.639C223.604 101.837 223.927 101.857 224.16 101.686C224.393 101.515 224.471 101.202 224.345 100.941C223.366 98.9092 222.785 96.7307 222.114 94.4824C221.449 92.2559 220.699 89.9809 219.374 87.8867L218.944 87.2344C214.418 80.6169 207.248 77.9684 200.765 75.4414L200.663 75.4111Z" fill="white" stroke="white" stroke-width="1.2" stroke-linejoin="round"/>
<path d="M210.439 165.311L208.979 164.515C205.898 170.866 201.813 176.68 196.882 181.732L188.353 173.203C192.531 168.897 195.9 164.01 198.382 158.727L196.93 157.932C194.489 163.143 191.198 167.911 187.193 172.042L179.467 164.316C182.737 160.921 185.392 156.985 187.315 152.682L185.874 151.895C184.025 156.061 181.466 159.874 178.311 163.162L169.772 154.624C172.114 152.146 173.966 149.246 175.228 146.079L173.785 145.292C172.602 148.323 170.85 151.1 168.623 153.473L160.873 145.724C163.073 143.278 164.368 140.152 164.542 136.867H175.512C175.422 139.753 174.838 142.603 173.785 145.292L175.228 146.079C176.395 143.143 177.038 140.025 177.127 136.867H189.22C189.116 142.049 187.978 147.158 185.873 151.895L187.315 152.682C189.514 147.757 190.729 142.406 190.836 136.866H201.785C201.679 144.153 200.023 151.334 196.928 157.932L198.382 158.727C201.561 151.962 203.289 144.547 203.403 136.866H215.495C215.374 146.762 213.043 156.133 208.979 164.515L210.439 165.311C214.811 156.306 217.132 146.362 217.132 136.057C217.132 127.295 215.453 118.793 212.263 110.907L210.765 111.551C213.769 118.993 215.398 126.997 215.498 135.249H203.404C203.306 128.666 202.013 122.281 199.646 116.33L198.159 116.967C200.442 122.721 201.691 128.889 201.787 135.249H190.837C190.748 130.473 189.819 125.749 188.092 121.295L186.604 121.934C188.246 126.186 189.132 130.692 189.222 135.249H177.128C177.046 132.333 176.493 129.45 175.49 126.711L174.003 127.349C174.923 129.885 175.432 132.552 175.513 135.249H164.543C164.37 131.964 163.074 128.838 160.874 126.392L168.632 118.635C171.027 121.183 172.84 124.141 174.003 127.349L175.49 126.711C174.245 123.319 172.317 120.189 169.773 117.493L178.325 108.942C181.974 112.74 184.759 117.15 186.605 121.934L188.092 121.295C186.165 116.326 183.264 111.744 179.468 107.799L187.21 100.055C192.005 105.001 195.69 110.739 198.159 116.968L199.646 116.33C197.095 109.916 193.295 104.006 188.353 98.9144L196.903 90.3626C202.951 96.5573 207.615 103.745 210.764 111.551L212.263 110.907C208.935 102.671 203.959 95.1057 197.488 88.6351C190.993 82.1401 183.395 77.1529 175.123 73.824L174.527 75.3407C182.35 78.4918 189.554 83.1616 195.76 89.2199L187.21 97.7712C182.204 92.9204 176.405 89.1601 170.11 86.6126L169.52 88.1167C175.608 90.5865 181.219 94.2234 186.068 98.927L178.325 106.67C174.561 103.049 170.221 100.237 165.516 98.3121L164.926 99.8158C169.427 101.661 173.579 104.351 177.183 107.812L168.633 116.363C166.228 114.096 163.478 112.317 160.506 111.076L159.915 112.581C162.714 113.756 165.28 115.424 167.49 117.506L159.734 125.263C157.268 123.054 154.178 121.775 150.874 121.594V110.625C153.982 110.717 157.047 111.38 159.915 112.581L160.506 111.076C157.485 109.814 154.232 109.107 150.875 109.008V96.915C155.771 97.0135 160.515 98.0085 164.926 99.8162L165.517 98.3121C160.921 96.432 155.975 95.3983 150.875 95.2998V84.3446C157.368 84.4439 163.664 85.7388 169.519 88.113L170.109 86.6089C164.067 84.1615 157.574 82.8283 150.874 82.729V70.6343C159.111 70.7344 167.099 72.3578 174.528 75.3489L175.124 73.8322C167.264 70.6673 158.794 69 150.067 69C139.285 69 129.097 71.5724 120.063 76.1123L120.8 77.5228C129.542 73.1424 139.214 70.756 149.259 70.6347V82.7294C141.328 82.8428 133.524 84.7353 126.422 88.2672L127.157 89.6737C133.958 86.3069 141.466 84.4622 149.259 84.3434V95.2945C143.356 95.406 137.549 96.8062 132.244 99.397L132.983 100.81C138.005 98.3723 143.528 97.0253 149.259 96.9097V109.004C145.569 109.11 141.941 109.975 138.599 111.543L139.342 112.962C142.421 111.531 145.78 110.727 149.259 110.619V121.59C147.6 121.682 145.969 122.058 144.438 122.704L145.18 124.122C146.731 123.488 148.391 123.163 150.067 123.165C153.513 123.165 156.751 124.507 159.188 126.943C161.625 129.379 162.966 132.62 162.966 136.066C162.966 143.178 157.181 148.967 150.067 148.967C146.62 148.967 143.381 147.625 140.944 145.188C138.508 142.751 137.166 139.511 137.166 136.066C137.166 132.62 138.508 129.379 140.944 126.943C142.154 125.73 143.594 124.771 145.179 124.122L144.438 122.704C142.961 123.328 141.599 124.192 140.405 125.261L132.644 117.5C134.62 115.64 136.881 114.107 139.341 112.962L138.598 111.543C135.995 112.765 133.602 114.393 131.509 116.366L122.95 107.807C125.907 104.963 129.293 102.602 132.983 100.81L132.244 99.3966C128.412 101.266 124.895 103.722 121.821 106.677L114.065 98.9213C117.921 95.1771 122.338 92.0569 127.156 89.6733L126.421 88.2668C121.462 90.7279 116.914 93.9426 112.939 97.7965L104.371 89.2281C109.21 84.5015 114.751 80.5529 120.799 77.5228L120.062 76.1123C107.004 82.6745 96.3733 93.3684 89.8995 106.478L91.3047 107.236C94.3623 101.019 98.3869 95.326 103.228 90.37L111.797 98.9388C107.788 103.068 104.47 107.816 101.973 113.002L103.373 113.757C105.762 108.767 108.964 104.145 112.921 100.064L120.678 107.82C117.533 111.093 114.955 114.866 113.048 118.985L114.451 119.742C116.28 115.757 118.767 112.109 121.808 108.949L130.367 117.509C128.162 119.847 126.39 122.558 125.132 125.515L126.547 126.28C127.724 123.456 129.402 120.869 131.5 118.642L139.261 126.403C137.131 128.784 135.778 131.863 135.59 135.256H124.618C124.71 132.172 125.364 129.13 126.547 126.279L125.132 125.514C123.822 128.601 123.099 131.905 123.002 135.256H110.91C111.019 129.814 112.239 124.559 114.45 119.741L113.047 118.985C110.68 124.089 109.402 129.631 109.296 135.257H98.3434C98.4586 127.694 100.193 120.398 103.373 113.756L101.973 113.001C98.7198 119.756 96.849 127.297 96.7302 135.257H84.6351C84.754 125.379 87.0622 115.862 91.3039 107.236L89.8987 106.478C85.4893 115.409 83 125.449 83 136.065C83 142.558 83.9274 148.904 85.6989 154.967L87.2828 154.568C85.5967 148.818 84.7059 142.865 84.6351 136.873H96.7282C96.7982 141.87 97.5683 146.831 99.0161 151.614L100.584 151.219C99.1817 146.622 98.4191 141.804 98.3434 136.873H109.294C109.37 140.834 110.021 144.763 111.228 148.537L112.798 148.141C111.622 144.497 110.986 140.701 110.91 136.873H123.003C123.084 139.706 123.609 142.509 124.559 145.18L126.131 144.783C125.21 142.243 124.7 139.573 124.618 136.873H135.589C135.763 140.159 137.057 143.285 139.257 145.731L131.5 153.488C129.108 150.941 127.296 147.987 126.13 144.783L124.559 145.18C125.8 148.661 127.756 151.873 130.358 154.63L121.808 163.181C117.648 158.851 114.604 153.719 112.802 148.144L111.231 148.54C113.103 154.395 116.295 159.78 120.668 164.326L112.925 172.07C107.134 166.099 102.951 158.975 100.588 151.221L99.0197 151.617C101.455 159.649 105.782 167.031 111.782 173.212L103.231 181.763C95.6636 174.009 90.2584 164.703 87.2869 154.571L85.7026 154.97C88.8198 165.636 94.5701 175.414 102.647 183.489C108.117 188.961 114.369 193.364 121.147 196.609L121.95 195.186C115.535 192.129 109.601 188.009 104.374 182.905L112.924 174.355C117.298 178.607 122.368 182.076 127.915 184.614L128.712 183.199C123.358 180.769 118.406 177.419 114.068 173.213L121.811 165.47C125.44 168.961 129.607 171.698 134.119 173.615L134.917 172.202C130.534 170.363 126.481 167.718 122.956 164.332L131.507 155.781C134.255 158.373 137.454 160.325 140.921 161.568L141.73 160.137C138.349 158.965 135.255 157.091 132.65 154.639L140.407 146.881C142.871 149.091 145.961 150.37 149.265 150.551V161.522C146.698 161.443 144.157 160.976 141.73 160.137L140.921 161.568C143.602 162.528 146.418 163.057 149.265 163.137V175.229C144.261 175.129 139.412 174.093 134.92 172.208L134.123 173.621C138.86 175.635 143.977 176.744 149.265 176.846V187.796C142.059 187.685 135.1 186.101 128.716 183.205L127.918 184.62C134.546 187.648 141.778 189.3 149.265 189.412V201.503C139.66 201.388 130.391 199.211 121.954 195.192L121.151 196.615C130.067 200.883 139.895 203.139 150.073 203.139C160.749 203.139 171.036 200.644 180.293 195.96L179.529 194.478C170.895 198.851 161.176 201.378 150.88 201.504V189.412C159.043 189.292 166.901 187.335 174.001 183.764L173.246 182.301C166.302 185.801 158.655 187.68 150.88 187.796V176.845C157.005 176.727 162.899 175.258 168.239 172.594L167.489 171.138C162.325 173.717 156.651 175.114 150.88 175.229V163.137C154.781 163.023 158.536 162.084 161.953 160.411L161.208 158.964C157.986 160.538 154.465 161.41 150.88 161.521V150.551C154.166 150.378 157.293 149.082 159.739 146.881L167.487 154.631C165.623 156.381 163.506 157.841 161.208 158.964L161.953 160.411C164.402 159.213 166.655 157.652 168.638 155.781L177.175 164.319C174.31 167.069 171.044 169.368 167.489 171.138L168.239 172.594C171.945 170.747 175.348 168.347 178.331 165.475L186.057 173.201C182.274 176.867 177.953 179.936 173.246 182.301L174.001 183.764C178.86 181.322 183.316 178.151 187.217 174.361L195.746 182.891C190.988 187.535 185.517 191.446 179.529 194.478L180.293 195.96C186.652 192.744 192.458 188.536 197.495 183.495C202.876 178.116 207.217 171.976 210.446 165.327L210.439 165.311Z" fill="white" stroke="white" stroke-width="0.5"/>
<path d="M153.5 120.553L153.519 121.039L153.927 121.019L153.905 120.537L153.5 120.553ZM152.906 119.892H153.447V120.303H152.906V119.892ZM152.407 119.819L152.464 119.411L151.989 119.343L151.932 119.747L152.407 119.819ZM151.531 119.61L151.059 119.541L151.116 119.133L151.588 119.201L151.531 119.61ZM147.632 119.065H148.173V119.478H147.632V119.065ZM146.926 119.955L146.983 119.547L146.511 119.479L146.454 119.887L146.926 119.955ZM146.503 120.508L145.961 120.371L146.059 119.971L146.601 120.109L146.503 120.508ZM145.534 121.016L145.467 120.604L145.868 120.537L145.935 120.948L145.534 121.016ZM92.4294 164.035H92.8376L92.7672 163.006L92.2255 162.799V162.456H91.8878V163.142H92.4294V164.035ZM96.6251 167.054L97.0972 167.4L97.5721 168.429L97.3011 168.908L96.5584 168.222L96.0163 167.468L95.7453 166.85L95.2699 165.614L96.2841 166.093L96.6251 167.054ZM112.726 187.653L112.251 187.928L111.98 187.517L111.304 187.31L111.237 186.692L110.695 185.867L111.508 186.006L112.385 186.76L112.726 187.653ZM147.97 124.97H147.226L147.091 123.461L147.497 123.185V122.43H145.128L145.061 121.675L145.4 121.469L144.859 121.263L144.452 121.812L144.318 122.43L143.641 122.568V122.91H143.168V123.802L141.273 125.381L137.485 125.245C137.213 125.862 136.537 125.176 136.537 125.176C136.403 124.764 135.456 125.176 135.456 125.176C135.456 125.932 134.171 124.833 134.171 124.833L131.802 123.116C130.449 121.88 128.42 123.46 128.353 123.802C128.42 124.764 126.797 124.009 126.797 124.009C126.797 124.009 125.444 123.597 125.241 124.147C125.039 124.695 124.158 124.559 124.158 124.559L124.022 124.833L123.345 124.97L123.211 125.382L122.399 125.52L124.428 125.451C124.969 125.382 124.224 126.618 123.887 126.55L122.941 126.618L122.601 126.961H121.722L121.317 127.511L120.032 127.442C120.032 127.442 119.287 128.06 119.356 128.266C119.423 128.472 119.22 129.09 119.017 129.09C118.813 129.09 118.408 129.708 118.543 129.914C118.679 130.12 118.138 130.806 118.138 130.806L118.003 131.494L117.597 131.63V133.484L116.785 134.034V134.857L115.566 136.162L115.702 137.26L114.688 138.359L114.822 139.457L114.214 139.663L114.079 140.144L113.809 141.585L114.485 141.654C114.822 141.517 114.755 142.547 114.485 142.684C114.214 142.821 113.469 143.095 113.876 143.37C114.282 143.645 112.794 143.576 112.794 143.164C112.794 142.753 111.982 142.409 111.779 142.547C111.576 142.683 111.237 141.929 111.237 141.929C110.493 141.174 108.193 141.997 108.193 141.997L107.854 143.096C107.111 143.234 106.637 144.469 106.637 144.469C106.028 144.675 105.555 145.43 105.758 145.636C105.961 145.842 105.419 145.911 105.419 145.911V147.422L105.081 147.902L105.148 149.549C105.555 149.549 105.487 150.305 105.487 150.305C104.811 150.374 104.945 151.266 104.945 151.266L103.525 151.747L103.255 152.159L101.496 152.089L101.023 152.57L100.548 152.089H97.1655L97.0312 151.746L96.3545 151.608L96.2861 150.854L95.272 150.922L95.0693 151.334L93.9864 151.402C94.054 152.089 92.9039 153.119 92.7696 152.845C92.6325 152.57 91.889 151.814 92.228 151.678C92.5665 151.54 93.4464 151.402 93.4464 151.402V150.922L90.9424 150.854L90.6726 151.266L89.6568 151.334V152.433L89.1839 152.57C88.8449 152.775 89.2507 153.532 89.2507 153.532C89.7244 154.012 89.1839 154.766 89.1839 154.766C88.777 155.179 89.5213 155.935 89.5213 155.935C90.063 156.071 89.1835 156.483 89.1835 156.483C89.3178 157.169 89.7248 157.376 89.7248 157.376C89.3178 158.062 89.9962 158.404 89.9962 158.404L90.063 159.573L90.5367 159.848V160.602L90.8069 161.083H91.8894L91.8218 159.367C90.8744 158.268 92.6329 157.993 92.7017 158.404C92.77 158.816 93.5139 159.023 93.5139 159.023C93.6495 160.053 94.7999 160.67 95.1369 159.641C95.4754 158.61 95.7461 159.229 95.9491 159.709C96.1522 160.19 97.4358 161.357 97.4358 161.357H98.4515L98.5874 162.319C99.7371 162.25 100.074 162.389 100.548 163.966C101.023 165.544 102.307 165.957 102.307 165.957L103.255 165.888C103.255 165.065 104.202 166.027 104.202 166.439C104.202 166.85 106.028 168.429 106.028 168.429L107.854 168.84L109.547 170.215L110.831 170.078H111.374C111.711 168.909 113.335 170.145 113.469 170.558C113.606 170.97 114.688 171.657 114.822 171.312C114.958 170.97 115.702 171.176 115.838 172.205C115.973 173.236 116.446 173.03 116.446 173.03L120.302 172.961L121.655 171.792L125.106 171.725C126.864 171.656 125.782 169.253 125.445 169.253C124.836 168.772 125.647 166.782 125.647 166.782L120.709 162.182C119.559 162.182 120.573 160.533 120.573 160.533C121.452 159.983 120.37 159.093 120.37 159.093C120.506 158.267 119.896 157.306 119.896 157.306C118.679 156.482 119.017 154.903 119.017 154.903V153.804C118.003 152.843 119.423 152.705 119.423 152.705C119.896 151.883 119.084 151.264 119.084 151.264L119.017 150.372L117.934 150.234L117.8 147.006L115.365 143.506C114.89 143.368 115.229 142.545 115.229 142.545C115.837 142.201 115.092 141.378 115.092 141.378L115.025 139.867L116.445 139.729L116.784 139.181H117.46L117.393 137.395C117.731 136.503 118.542 136.983 118.542 136.983L119.489 137.052L120.031 136.022L120.166 135.198L119.422 135.13C118.61 134.649 119.016 132.864 119.016 132.864C120.302 130.941 121.789 132.04 121.789 132.04L122.737 131.972C124.157 132.932 122.872 134.718 122.872 134.718C122.601 135.13 122.737 136.434 122.737 136.434L123.075 138.631L122.195 139.387C121.452 139.799 121.452 140.76 122.264 140.966C122.804 141.034 122.601 142.339 121.789 141.446C120.572 141.446 122.467 142.545 121.925 142.269C123.143 142.887 122.872 141.72 122.872 141.72L124.497 140.415C125.106 139.935 126.188 141.446 126.188 141.652C126.188 141.858 128.894 141.72 128.894 141.72C129.638 142.2 129.908 143.437 129.908 143.437C130.653 142.475 132.208 143.367 131.059 143.917C132.14 144.604 132.14 145.221 132.14 145.221C133.021 144.947 133.021 145.633 133.021 145.84C133.021 146.046 133.291 144.81 133.291 144.81C132.276 144.054 134.644 143.78 133.968 145.153L133.561 145.772L134.238 146.32L134.305 147.9C135.794 147.762 135.388 145.908 135.388 145.908L136.064 145.771C136.064 145.153 136.537 145.496 136.537 145.496C136.064 143.162 137.62 142.751 137.62 142.751C138.499 142.545 138.567 140.69 138.567 140.69C137.959 140.415 138.296 139.455 138.973 140.279C139.649 141.102 138.567 138.63 138.567 138.63L138.026 138.15L137.282 138.082L137.214 137.326H135.997L135.794 138.288L135.321 138.425L135.184 138.15L134.982 138.905H133.765L133.697 138.082L134.441 137.876L134.712 137.464L134.914 136.365H135.794L136.944 136.022C137.011 134.855 137.62 135.13 137.62 135.13L138.026 135.473L138.635 135.953L138.703 136.364L138.296 136.57L138.23 137.12L138.433 137.875H138.973C139.176 136.776 140.598 136.776 141.003 137.463L141.41 136.502C140.463 136.022 141.392 135.266 141.662 135.61C141.933 135.953 142.559 134.717 142.559 134.717C142.559 134.717 143.033 135.335 142.559 134.511C142.086 133.687 142.897 133.275 142.897 133.275C142.762 132.452 143.777 132.589 143.777 132.589L143.845 131.491L142.897 131.421C142.695 132.383 141.883 131.559 142.289 131.353C142.696 131.147 143.1 130.735 143.1 130.735V130.048L143.506 129.911L143.573 129.225H144.589L145.468 128.813L145.671 128.469L146.618 128.401L147.971 127.165L147.836 126.616C147.024 126.616 147.836 125.997 147.836 125.997L147.97 124.97H147.97Z" fill="white" stroke="white" stroke-width="1.2" stroke-linecap="round" stroke-linejoin="round"/>
<path d="M120.708 138.562L119.49 138.425L119.559 138.905H119.896C120.437 139.867 119.964 142.201 119.964 142.201C119.964 142.201 119.153 142.268 119.017 141.857C118.883 141.446 118.543 142.75 118.814 142.956C119.084 143.161 120.032 142.956 120.099 143.712C120.166 144.466 120.708 143.231 120.708 143.231V138.562Z" fill="white" stroke="white" stroke-width="1.2" stroke-linecap="round" stroke-linejoin="round"/>
<path d="M120.977 146.251L121.114 145.633L120.639 145.429L120.706 144.4L121.114 144.329L121.181 143.847L120.164 144.536L119.488 144.125V145.772L120.572 147.212L120.977 146.251ZM121.248 148.037L120.776 148.105L120.706 148.655L121.248 148.723V148.037ZM120.639 151.538L120.065 151.606V152.088L120.639 152.02V151.538ZM121.437 149.908C121.595 149.908 121.723 149.778 121.723 149.618C121.723 149.58 121.716 149.542 121.702 149.507C121.688 149.472 121.667 149.439 121.64 149.412C121.614 149.385 121.582 149.364 121.547 149.349C121.512 149.334 121.475 149.326 121.437 149.326C121.399 149.326 121.361 149.334 121.326 149.349C121.291 149.364 121.259 149.385 121.233 149.412C121.206 149.439 121.185 149.471 121.171 149.507C121.157 149.542 121.15 149.58 121.15 149.618C121.15 149.778 121.278 149.908 121.437 149.908Z" fill="white" stroke="white" stroke-width="1.2" stroke-linecap="round" stroke-linejoin="round"/>
<path d="M121.908 151.351C122.067 151.351 122.195 151.221 122.195 151.06C122.195 150.899 122.067 150.769 121.908 150.769C121.75 150.769 121.621 150.899 121.621 151.06C121.621 151.221 121.75 151.351 121.908 151.351Z" fill="white" stroke="white" stroke-width="1.2" stroke-linecap="round" stroke-linejoin="round"/>
<path d="M121.924 143.507C122.082 143.507 122.211 143.377 122.211 143.216C122.211 143.055 122.082 142.925 121.924 142.925C121.765 142.925 121.637 143.055 121.637 143.216C121.637 143.377 121.765 143.507 121.924 143.507Z" fill="white" stroke="white" stroke-width="1.2" stroke-linecap="round" stroke-linejoin="round"/>
<path d="M145.399 134.855V133.551H144.994L144.927 133.069L144.181 133.001L144.047 133.344H143.709L143.639 133.894H144.047L144.114 134.305L143.843 134.58L143.709 134.923L143.168 135.062L141.95 136.23L141.882 136.777L141.545 137.259L141.14 138.288L139.718 138.356L139.447 139.592L139.647 140.621L140.865 141.103L141.003 140.417L141.407 140.21L141.477 139.524L141.745 139.042L142.153 138.563L142.288 138.013L142.963 137.602L143.776 137.463L144.114 137.052L144.251 136.23L144.299 135.612L144.589 135.198L145.399 134.855ZM146.819 137.74V136.779L146.682 135.886L145.669 135.406L144.925 136.092L144.789 137.054V137.671L144.113 137.809L143.977 139.663L143.436 139.869L143.504 140.555L142.76 140.761L142.016 140.967L141.881 141.86L141.34 142.203L141.068 143.027L140.73 145.018C140.73 145.018 141.34 146.185 141.678 145.636C142.016 145.087 142.557 145.018 142.557 145.018L142.76 144.537L144.587 144.606C144.722 143.85 145.602 144.126 145.602 144.469C145.602 144.812 146.278 144.537 146.278 144.537L146.751 143.782H147.495L147.563 142.958L147.901 142.752V141.516C148.984 141.173 148.848 140.143 148.848 140.143L149.12 139.8L148.984 139.32C148.442 139.114 148.712 138.632 149.051 138.77C149.39 138.907 148.578 138.152 148.578 138.152C148.172 138.496 147.834 137.74 147.834 137.74H146.819ZM147.901 146.046C147.834 146.87 146.819 147.145 146.819 147.145L146.075 146.939L145.669 146.595L145.601 145.634L146.21 145.566L146.345 145.978L147.901 146.046ZM151.556 141.655C151.702 142.254 151.69 140.693 151.961 140.762C152.231 140.83 152.029 139.802 152.029 139.802L150.811 140.693C151.42 140.762 151.486 141.381 151.556 141.655ZM155.141 138.082C155.411 138.7 155.344 139.593 156.358 140.279C156.7 140.511 156.155 140.966 155.816 140.76C155.478 140.554 154.532 139.043 154.532 139.043V138.151C154.735 137.602 155.024 137.816 155.141 138.082ZM156.019 158.747L155.614 158.608L155.142 158.954L155.343 159.158L155.544 159.502L156.019 158.747ZM153.448 157.856V158.682V157.856ZM163.773 156.518L163.556 156.172L163.018 156.512L163.231 156.861L163.773 156.518ZM182.81 171.175L183.419 171.449L183.486 172.616C184.299 173.44 186.937 172.754 186.937 172.548C186.937 172.341 186.801 170.008 186.801 170.008L186.462 169.664L186.395 167.947C186.665 167.054 185.109 165.749 184.974 166.026C184.839 166.299 183.959 166.093 183.959 166.368C183.959 166.642 183.419 168.015 183.689 168.496C183.959 168.977 183.486 168.977 183.419 169.458C183.351 169.938 182.674 170.763 182.81 171.175ZM181.32 168.428C181.192 168.949 180.713 169.252 180.442 169.046C180.17 168.84 180.779 169.388 180.915 169.664C181.05 169.938 181.455 169.938 181.592 169.664C181.726 169.388 181.659 168.772 181.795 168.497C181.93 168.222 181.388 168.154 181.32 168.428V168.428ZM178.175 155.833H178.647V157.138H178.175V155.833ZM185.178 142.615C184.883 142.215 186.531 141.517 186.802 142.341C187.072 143.164 186.802 143.028 186.531 142.959C186.26 142.89 185.584 143.164 185.178 142.615ZM186.563 133.823L187.305 133.959L187.379 133.554L186.633 133.418L186.563 133.823ZM184.739 134.127L184.235 134.412L183.795 134.133L183.581 134.479L184.123 134.823L184.226 134.887L184.327 134.829L184.736 134.599L184.787 134.725L185.163 134.573L185.026 134.231L184.94 134.014L184.739 134.127ZM187.274 117.897H186.259C186.259 117.897 186.597 118.034 185.651 117.141C184.703 116.249 184.095 117.348 184.095 117.348L183.012 117.485V118.584L182.47 118.789L182.539 119.476L183.283 119.408C183.283 119.408 183.283 120.231 183.486 119.888C183.69 119.545 185.38 119.956 185.245 120.781C185.19 121.119 186.937 122.016 186.734 123.114C187.613 123.252 187.41 124.145 187.41 124.145L188.56 124.282L188.899 123.596L189.236 123.664V123.252L188.491 123.046L188.357 120.849L187.883 120.506L188.018 119.956L187.478 119.75L187.748 118.858L187.274 117.897ZM190.249 124.901L189.708 124.833L188.489 125.039L187.814 126.343C187.814 126.343 188.151 126.549 188.421 127.029C188.692 127.51 188.828 130.325 188.016 130.806C187.205 131.287 188.084 131.011 188.084 131.011L187.948 132.522C188.151 133.209 188.489 132.866 188.692 132.522C188.897 132.18 189.1 132.111 189.37 131.767C189.64 131.423 190.046 130.806 190.114 130.325C190.181 129.845 190.52 129.09 190.316 128.884C190.114 128.678 190.52 127.717 190.52 127.717C190.52 127.717 190.79 127.167 190.52 126.618C190.249 126.068 190.587 125.45 190.79 125.175L190.249 124.901ZM191.067 127.702L191.136 127.152L191.54 127.204L191.471 127.754L191.067 127.702ZM191.042 129.599L190.68 129.415L190.883 129.003L191.246 129.187L191.042 129.599ZM190.452 124.148L190.181 123.529C190.181 123.529 190.181 122.981 190.316 122.705C190.452 122.431 190.046 122.157 189.844 122.088C189.64 122.019 189.708 121.47 189.64 121.195C189.573 120.921 189.1 120.715 189.1 120.715C189.1 120.715 188.963 119.685 188.963 119.479C188.963 119.273 188.355 118.999 188.558 118.792C188.761 118.586 188.897 118.312 189.1 118.174C189.303 118.037 188.897 117.075 189.234 117.282C189.573 117.488 189.573 117.831 189.708 118.106C189.844 118.38 189.64 119.342 189.979 119.548C190.317 119.753 189.911 120.439 190.452 120.439C190.993 120.439 190.656 121.745 190.656 121.745C190.656 121.745 190.52 122.705 190.857 122.774C191.196 122.843 190.994 124.491 190.994 124.491L190.452 124.148ZM186.057 113.022C186.26 113.296 186.666 113.502 186.666 113.777C186.666 114.052 186.531 114.258 186.937 114.326C187.342 114.395 187.613 114.257 187.748 114.601C187.884 114.944 187.884 115.493 187.817 115.768C187.748 116.043 187.884 116.454 188.221 116.454C188.56 116.454 188.628 116.524 188.628 116.729C188.628 116.935 189.034 115.974 189.034 115.974C188.695 115.699 188.424 115.081 188.424 115.081C188.424 115.081 188.086 114.12 188.086 113.983C188.086 113.845 187.613 113.708 187.411 113.639C187.207 113.57 186.868 112.953 186.868 112.953L186.057 113.022V113.022ZM186.733 112.407C186.529 112.132 186.326 111.926 186.056 111.789C185.786 111.651 185.583 111.514 185.311 111.514C185.041 111.514 184.771 111.239 184.905 110.897C185.042 110.553 184.702 110.416 184.702 110.141C184.702 109.867 184.905 109.867 185.244 110.072C185.583 110.279 185.514 110.347 185.786 110.691C186.056 111.034 186.191 111.377 186.461 111.308C186.733 111.239 186.935 111.926 187.206 111.72C187.476 111.514 187.409 112.2 187.409 112.2L186.733 112.407ZM178.818 120.164C179.191 120.543 176.788 120.438 176.788 120.164C176.788 119.889 176.992 118.929 177.6 119.133C178.209 119.34 178.275 117.898 178.275 117.898C178.275 117.898 177.735 117.966 178.209 117.692C178.682 117.418 178.209 117.005 178.005 116.799C177.803 116.593 177.6 116.25 177.6 116.25H178.548C178.954 115.975 179.088 114.671 179.088 114.671C179.899 114.945 180.305 114.396 180.305 114.396C180.305 114.396 180.443 114.808 180.712 115.152C180.983 115.495 180.035 115.632 180.373 115.839C180.713 116.045 180.847 116.662 180.713 116.867C180.576 117.074 179.831 116.937 179.831 116.662C179.831 116.387 179.561 117.005 179.831 117.349C180.102 117.692 179.494 118.172 179.358 118.172C179.222 118.172 178.345 118.31 179.088 118.721C179.831 119.133 180.645 118.928 180.645 118.928C180.645 118.928 181.253 118.859 181.456 119.203C181.659 119.546 181.389 119.615 181.051 119.615C180.713 119.615 179.088 119.477 179.088 119.477C179.088 119.477 178.615 119.958 178.818 120.164ZM174.488 120.782C174.827 120.714 175.637 120.644 175.773 120.851C175.909 121.056 175.299 121.331 175.299 121.331L174.488 121.468C174.217 121.125 174.15 120.851 174.488 120.782ZM183.217 115.016C183.758 114.741 184.907 114.741 184.84 114.329C184.773 113.917 185.516 113.78 185.516 113.78L185.719 114.604L186.328 115.015L186.396 115.771C186.396 115.771 186.598 115.634 185.855 115.84C185.11 116.046 185.585 116.388 185.585 116.388L183.961 116.457L183.757 115.77L183.217 115.016ZM180.576 111.308C180.987 111.308 180.441 112.887 181.522 112.75C182.605 112.612 181.591 113.23 182.402 113.299C183.214 113.368 183.011 112.681 183.281 112.201C183.553 111.721 183.418 111.446 182.944 111.308C182.469 111.171 182.469 111.171 182.335 110.621C182.2 110.072 181.658 109.935 181.658 109.935L181.455 109.111L180.576 109.66L179.697 110.827C179.697 111.721 180.169 111.308 180.576 111.308ZM182.366 117.11L182.57 116.698L182.933 116.883L182.73 117.295L182.366 117.11ZM181.658 116.456H182.064V116.937H181.658V116.456ZM182 107.308L182.067 107.926L181.664 107.971L181.596 107.354L182 107.308ZM180.848 113.709H181.254V114.053H180.848V113.709ZM179.783 113.703L179.743 113.292L180.42 113.224L180.46 113.635L179.783 113.703ZM174.202 120.305L173.83 120.143L174.033 119.663L174.405 119.825L174.202 120.305ZM172.078 119.056L172.039 118.647L172.716 118.579L172.756 118.988L172.078 119.056ZM158.854 118.997L158.873 119.408L160.358 119.34L160.339 118.929L158.854 118.997ZM157.857 119.525L157.723 118.907L158.119 118.818L158.254 119.435L157.857 119.525ZM157.573 119.95L157.445 119.559L157.647 119.491L157.776 119.882L157.573 119.95ZM160.956 118.792L160.889 119.272L161.632 119.342C161.632 119.342 161.97 119.617 161.97 119.822C161.97 120.028 162.445 120.234 162.715 120.234C162.985 120.234 163.729 119.684 163.729 119.684C163.729 119.684 164.068 118.723 163.798 118.791C163.526 118.86 162.985 119.272 162.919 118.86C162.849 118.448 162.039 118.654 162.039 118.654L160.956 118.792ZM164.338 118.035C164.338 118.241 164.204 118.516 164.608 118.585C165.016 118.653 165.76 118.31 165.827 118.722C165.896 119.134 165.896 119.409 166.436 119.616C166.976 119.821 167.316 119.89 167.722 119.89C168.126 119.89 169.008 119.751 169.008 119.751C169.008 119.751 169.964 119.901 170.157 120.095C170.901 120.85 171.374 121.056 171.577 120.713C171.78 120.37 171.509 119.615 171.442 119.34C171.374 119.065 170.427 117.761 170.088 118.035C169.751 118.31 169.683 118.035 169.074 118.241C168.465 118.447 167.179 118.31 167.112 118.035C167.045 117.76 166.098 117.624 166.098 117.349C166.098 117.074 165.422 116.731 165.489 117.143C165.556 117.554 165.016 117.76 164.879 117.624C164.744 117.486 164.338 118.035 164.338 118.035ZM179.9 109.245L180.375 107.735C179.699 107.598 179.833 106.843 179.833 106.843C179.765 106.225 178.819 105.539 178.48 105.745C178.142 105.95 178.277 104.302 178.277 104.302C178.277 104.302 178.886 103.891 179.157 104.097C179.427 104.302 176.857 100.664 176.315 101.007C175.774 101.351 174.558 100.664 174.625 100.046C174.692 99.4282 172.189 97.3678 172.189 97.3678C172.189 97.3678 171.377 96.8196 171.243 97.2315C171.107 97.6429 170.837 97.918 171.243 98.1231C171.648 98.3298 171.58 97.7804 172.053 98.2602C172.527 98.7408 173.407 99.359 173.069 99.7713C172.73 100.184 172.324 100.321 172.324 100.321L172.798 100.87H173.542L173.678 102.037C173.678 102.037 174.489 102.449 174.692 102.93C174.895 103.41 174.895 103.685 174.692 103.96C174.489 104.234 174.085 104.715 174.151 105.195C174.219 105.675 174.76 105.882 174.76 105.882L175.301 105.951L175.708 106.157V107.05C176.248 106.912 177.127 107.667 177.06 108.148C176.993 108.628 177.194 108.354 177.871 108.835C178.548 109.315 178.345 109.384 178.819 109.727C179.292 110.069 179.699 109.864 179.9 109.245Z" fill="white" stroke="white" stroke-width="1.2" stroke-linecap="round" stroke-linejoin="round"/>
<path d="M168.737 99.9099C168.67 99.6348 168.534 98.6732 168.94 98.742C169.346 98.8112 169.076 98.742 169.549 98.9483C170.023 99.1546 170.09 98.6052 170.09 98.6052H170.835L171.781 99.3597L171.646 99.9783L170.969 100.046C170.631 99.4977 169.955 99.7036 170.09 100.185C170.225 100.665 169.752 101.557 169.482 101.625C169.212 101.694 168.33 101.694 168.4 101.283C168.467 100.871 168.737 99.9099 168.737 99.9099ZM168.196 98.0542V97.5052C168.196 97.5052 168.127 96.9563 167.79 96.9563C167.452 96.9563 166.843 96.5448 166.977 96.2697C167.114 95.9946 165.828 95.7203 165.828 95.7203C165.828 95.7203 164.678 94.6216 165.084 94.7599C165.49 94.8967 165.288 94.2785 165.288 94.2785C165.288 94.2785 164.475 94.4156 164.272 94.3477C164.068 94.2785 164.136 93.6608 164.136 93.6608C164.136 93.6608 163.325 93.4548 163.325 93.6608C163.325 93.8671 163.596 93.8671 163.73 94.2781C163.866 94.6899 163.799 95.3769 164.408 95.514C165.017 95.6516 165.151 95.7883 165.22 96.0634C165.288 96.3385 166.031 96.4065 166.031 96.4065L166.573 96.6812L168.196 98.0542ZM160.69 90.5028L160.148 90.3669V90.9854L160.891 91.053L160.69 90.5028ZM160.687 88.1693C159.98 87.6321 161.634 88.5816 161.634 88.5816C162.174 88.5816 162.513 88.9934 162.513 89.2001C162.513 89.4056 163.257 89.3373 163.257 89.3373L163.326 88.8558L162.784 88.1693L162.311 87.8271C162.311 87.8271 161.567 87.7579 161.567 87.552C161.567 87.3464 160.958 88.3756 160.687 88.1693ZM173.132 88.5803C172.934 89.181 172.862 90.0226 172.523 90.0226C172.186 90.0226 172.32 90.9158 172.32 90.9158C172.32 90.9158 173.201 90.9158 173.472 90.9838C173.741 91.0518 173.741 91.7383 173.741 91.7383C174.757 91.6703 175.163 93.0434 175.027 93.3865C174.891 93.7295 175.433 93.7295 175.433 93.7295C175.433 93.7295 175.433 94.8283 175.297 95.1026C175.162 95.3777 176.177 95.5836 176.447 95.9955C176.717 96.4077 176.311 97.7803 176.109 97.8491C175.906 97.9183 176.649 98.1234 176.582 98.4669C176.514 98.8108 176.785 98.4669 176.853 99.0163C176.92 99.5656 177.056 100.732 177.056 100.732L178.002 100.802C178.138 99.9095 179.882 99.8749 180.167 99.9775C181.317 100.389 182.198 102.175 182.198 102.586C182.198 102.998 181.453 103.067 181.453 103.067L181.589 105.057C182.738 105.401 183.685 107.05 183.551 107.324C183.415 107.599 184.361 107.531 184.361 107.531C184.498 106.293 185.647 106.706 185.714 107.118C185.783 107.531 185.985 108.423 185.985 108.423L186.324 109.04L186.797 109.521L187.541 109.452L187.744 109.864L188.623 110.002C188.623 110.002 189.368 110.825 189.436 111.032C189.504 111.237 190.518 111.169 190.788 111.237C191.058 111.306 191.465 111.512 191.532 111.856C191.601 112.199 192.007 112.748 192.007 112.748C192.007 112.748 192.818 112.954 192.886 113.228C192.953 113.503 193.292 114.121 193.292 114.121L193.967 114.67L194.035 115.289L194.779 115.358L194.983 116.18L196.199 116.112L196.877 115.632C197.756 115.152 198.365 114.533 198.433 114.258C198.5 113.984 198.636 112.954 199.312 113.16C199.988 113.366 199.516 111.649 199.516 111.649C199.516 111.649 198.569 110.963 198.636 110.619C198.703 110.276 197.689 109.59 197.757 109.315C197.824 109.04 196.877 108.491 196.944 108.217C197.011 107.942 196.471 107.186 196.471 107.186L195.456 106.226L195.32 105.607L194.509 105.539L192.886 103.548L192.953 102.998L192.48 102.93V102.175L192.007 101.9L191.262 101.831L189.774 100.184L189.639 99.4285H188.895L189.029 97.9863C189.503 97.3681 189.232 96.2014 189.232 96.2014C189.232 96.2014 188.284 96.6816 187.812 96.4757C187.338 96.2705 188.014 95.7891 188.014 95.7891V95.2401L187.609 94.8283C187.609 94.8283 186.458 94.9663 186.391 94.7603C186.324 94.554 186.121 93.6616 186.121 93.6616L186.053 92.4936L185.58 92.2889L185.511 91.8763L184.768 91.9446V91.1209L184.362 90.9838L183.956 90.7779L183.889 89.9534L182.4 89.8854L181.927 89.1989L181.386 88.3748L179.695 88.2377L179.289 87.8267L178.612 87.6883L178.139 87.4824L177.936 87.8262L176.65 87.8942L176.583 88.3065C175.907 88.6495 173.201 88.3744 173.132 88.5803ZM180.238 86.7979C180.131 86.2558 181.591 85.7683 181.929 86.1793C182.268 86.5915 183.215 86.6611 183.35 88.7207C183.398 89.4581 182.132 87.9658 182.132 87.9658L181.117 87.6224C180.576 87.4844 180.305 87.1422 180.238 86.7979H180.238ZM160.396 87.6366L160.026 87.4698L160.298 86.8512L160.667 87.0184L160.396 87.6366ZM156.899 80.893L156.018 80.0001V79.2452L155.747 78.9697L155.477 78.0093L154.598 77.7346L153.718 78.0773L152.771 78.6954L151.757 78.8338L151.215 79.4507L153.38 79.6558L153.785 80.3436L155.343 80.4807L156.356 81.5103C157.237 81.7854 157.44 81.3732 156.899 80.893ZM156.764 77.5275C156.615 76.9239 155.749 78.2824 156.63 78.5562C157.509 78.8326 158.387 78.5562 158.387 78.5562L158.591 78.1448L161.973 78.214C162.244 77.9389 162.379 77.5271 162.379 77.5271C162.379 77.5271 163.191 77.252 163.528 77.3891C163.867 77.5275 163.597 76.4287 163.258 76.5658C162.92 76.703 162.244 76.6342 162.244 76.6342H161.026C160.959 76.154 159.876 76.3595 159.809 76.6342C159.74 76.9089 159.336 76.9773 159.336 76.9773L157.779 77.1152C157.644 77.5275 156.833 77.8017 156.764 77.5275ZM150.066 89.1134C151.106 89.4435 151.486 89.1989 151.555 88.9246C151.622 88.6499 151.689 88.5807 152.095 88.5128C152.501 88.4436 152.027 87.6203 151.622 87.6887C151.216 87.7575 150.81 87.5516 150.743 87.2085C150.674 86.8654 149.998 85.9726 149.93 86.6591C149.863 87.346 149.457 87.346 149.524 87.8267C149.593 88.306 149.796 89.0268 150.066 89.1134ZM142.289 89.8867C142.24 89.6437 143.642 89.6124 143.845 89.8175C144.049 90.0238 143.912 90.3669 144.522 90.3669C145.13 90.3669 144.859 90.7791 144.792 90.9854C144.725 91.1909 144.049 91.1226 143.98 90.9171C143.912 90.7107 142.897 90.6411 142.897 90.6411C142.897 90.6411 142.356 90.2289 142.289 89.8867ZM164.733 76.156L164.873 76.0404L165.552 75.4911L165.297 75.1696L164.761 75.603L164.417 75.253L164.13 75.544L164.602 76.0246L164.733 76.156ZM161.675 74.3369L162.421 73.8559L162.204 73.5088L161.566 73.9198L161.133 73.6455L160.919 73.9947L161.461 74.3373L161.566 74.4065L161.675 74.3369ZM159.571 89.102L159.912 88.8819L159.44 88.1278L159.386 88.044L159.287 88.0342L158.611 87.963L158.57 88.374L159.15 88.4322L159.571 89.102ZM137.011 107.186L137.08 107.942H138.093C138.5 107.942 137.756 107.461 137.756 107.461C137.756 107.461 136.944 107.531 137.011 107.186ZM138.301 107.209L138.56 106.891L138.966 107.233L138.707 107.55L138.301 107.209ZM125.975 94.3636L126.263 94.0722L126.669 94.4844L126.381 94.7758L125.975 94.3636ZM145.341 183.404L145.679 183.061L145.877 182.861L145.625 182.731L144.95 182.388L144.768 182.757L145.191 182.97L145.051 183.113L145.341 183.404ZM140.208 178.483L140.444 178.149L140.183 177.958L140.387 177.787L140.129 177.47L139.721 177.813L139.52 177.984L139.733 178.14L140.208 178.483ZM190.692 164.762C190.603 164.412 190.208 164.269 190.164 164.254L190.035 164.646V164.643C190.067 164.656 190.114 164.68 190.161 164.711L190.243 165.067C190.216 165.108 190.186 165.148 190.154 165.186L190.452 165.465C190.669 165.223 190.749 164.988 190.692 164.762ZM190.656 163.417L190.707 162.799L191.367 162.902L191.316 163.466L190.656 163.417ZM206.995 158.113C207.284 157.929 207.654 157.597 207.604 158.371C207.552 159.143 207.248 158.886 206.995 159.143C206.741 159.401 206.589 158.371 206.995 158.113ZM210.438 155.199C210.432 155.185 210.428 155.138 210.425 155.103C210.416 154.99 210.402 154.835 210.322 154.673L209.959 154.857C210.004 154.949 210.013 155.047 210.02 155.14C210.031 155.26 210.044 155.397 210.159 155.484C210.232 155.54 210.324 155.556 210.433 155.534L210.356 155.136C210.387 155.141 210.428 155.169 210.438 155.199ZM209.534 155.536C209.607 155.823 209.694 156.105 209.795 156.382L210.175 156.237C210.172 156.234 210.025 155.831 209.927 155.436L209.534 155.536ZM208.057 157.156L207.653 157.115C207.621 157.44 207.698 157.84 208.018 157.905L208.098 157.501C208.1 157.501 208.104 157.504 208.105 157.504C208.072 157.474 208.042 157.308 208.057 157.156ZM206.279 148.964C206.27 148.901 206.244 148.841 206.206 148.791C206.167 148.74 206.115 148.7 206.057 148.675C205.756 148.543 205.25 148.762 205.002 148.93L205.227 149.273C205.483 149.099 205.821 149.015 205.896 149.054C205.889 149.051 205.88 149.039 205.877 149.031L206.279 148.964ZM187.542 127.029C187.272 127.304 186.663 127.442 186.663 127.442L186.46 128.197L186.122 128.471C186.122 128.471 186.189 128.677 186.122 129.158C186.055 129.638 185.445 129.913 185.445 129.913L185.175 130.257C185.175 130.257 183.544 130.345 183.349 130.257C182.739 129.982 183.146 129.158 183.552 129.227C183.957 129.296 183.483 128.059 183.483 128.059L184.025 127.991C184.025 127.991 184.092 126.754 184.296 126.754C184.499 126.754 184.229 126.343 183.957 126.136C183.686 125.931 183.349 125.245 183.077 125.313C182.807 125.381 181.724 125.313 181.724 125.313L181.521 125.725L180.776 125.862C180.776 125.862 180.841 126.393 180.711 126.549C180.303 127.029 178.748 128.059 179.424 126.343L179.626 125.932V125.313L178.41 125.245C178.41 125.245 177.801 125.039 177.801 124.764C177.801 124.49 177.733 124.147 177.733 124.147L176.312 122.568L174.622 122.362L174.486 122.018L173.472 121.881C172.254 121.264 171.171 121.812 171.374 122.842C171.577 123.873 171.915 124.284 171.239 124.284C170.562 124.284 170.427 123.735 170.427 123.735C170.427 123.735 169.887 123.529 169.887 123.803C169.887 124.079 169.683 124.628 169.887 124.902C170.089 125.176 169.615 125.588 169.412 125.382C169.21 125.176 168.669 124.56 168.804 124.353C168.939 124.147 167.856 122.842 168.939 122.637C170.022 122.43 168.871 121.812 169.278 121.676L169.818 121.401H170.359L170.698 121.126L169.819 120.989L169.278 120.92L168.263 120.852C167.248 121.538 167.046 122.362 167.046 122.362C166.504 123.392 165.219 121.95 165.693 121.401C166.166 120.852 164.204 121.332 163.866 121.607C163.527 121.881 162.512 121.744 162.512 121.744C162.31 122.363 161.363 121.676 161.633 121.264C161.904 120.852 161.904 120.577 161.904 120.577L161.566 120.508L161.16 121.264C160.213 121.264 159.942 121.812 160.145 122.156C160.348 122.499 159.874 122.087 159.738 122.568C159.604 123.048 159.807 123.048 160.213 123.254C160.62 123.461 160.01 123.461 160.281 123.803C160.551 124.147 161.363 123.803 160.89 124.284C160.416 124.765 159.468 124.56 159.468 124.56C159.401 125.176 158.116 125.04 157.981 124.834C157.845 124.628 156.831 123.392 156.831 123.392L155.544 123.323C155.41 122.363 156.154 122.843 156.424 122.087C156.696 121.332 156.831 120.097 156.831 120.097C156.831 120.097 155.747 120.028 155.68 120.371C155.613 120.715 154.936 120.921 154.936 120.921C154.936 120.921 154.395 121.126 154.598 121.401C154.801 121.676 154.192 121.812 154.192 121.812C154.192 121.812 154.297 122.256 154.125 122.431C153.584 122.98 152.23 122.499 152.028 122.293L151.216 121.95L150.403 121.401L149.457 121.812L149.187 122.087H148.171L148.104 122.91L149.93 123.116L150.066 124.815L149.321 124.559H148.848L148.645 124.146L148.239 124.077V125.588L148.645 125.931L148.984 126.274L149.661 126.343L149.796 127.166L151.486 127.236L151.69 127.578L152.705 127.648L154.667 129.638L154.531 130.256L154.192 130.462C154.328 130.943 153.314 130.668 153.314 130.668V131.079L153.786 131.149L154.261 131.422L154.936 130.256C155.681 129.775 156.018 130.462 156.087 130.874C156.154 131.286 155.748 131.217 155.748 131.217V132.179L156.154 132.315C156.832 133.139 155.884 133.62 155.884 133.62L155.68 134.307C155.477 134.925 154.733 134.787 154.733 134.787L154.464 135.199L153.65 135.405L155.257 135.611C155.41 135.061 155.814 134.924 156.018 135.199C156.221 135.474 156.221 135.955 156.221 135.955L156.628 136.023L156.559 136.778L156.966 136.916V139.113L157.439 139.662C158.251 139.319 158.251 139.868 157.844 140.142C157.439 140.416 157.709 141.653 157.709 141.653L157.371 141.995V142.545L156.965 142.82V143.575C156.289 143.232 155.476 143.368 155.273 143.575C154.665 143.163 153.38 143.3 153.38 143.644C153.785 144.193 152.907 144.331 152.907 144.331L152.432 144.88C152.771 145.567 152.095 145.634 152.095 145.634V146.94L151.283 147.695L151.351 149.48C151.351 149.96 152.365 150.029 152.568 149.754C152.771 149.48 153.583 150.304 153.583 150.304H154.191L154.327 149.068L153.921 148.862V146.87L154.597 146.115C155.41 145.84 155.139 147.901 155.139 148.107C155.207 148.862 155.544 148.793 155.883 148.655C156.559 148.381 156.017 149.412 155.477 149.342C154.936 149.274 155.273 150.029 155.273 150.029L155.613 150.167L155.003 150.647L154.463 151.266L153.785 151.059L152.974 150.991L152.704 150.509L152.229 150.441L152.162 151.401L151.824 151.814L151.012 152.639C152.095 152.639 150.876 153.392 150.606 153.392C151.215 153.599 150.539 154.217 148.983 153.737V154.217L148.441 154.286L148.916 154.834L149.456 154.903L149.253 156.07C149.253 156.962 147.021 156.344 146.818 156.139L146.75 157.375L146.344 157.442L146.412 158.267L146.344 159.435L147.088 159.297V159.778L148.915 159.847L151.554 157.031L153.109 156.689C153.244 156.001 153.92 156.826 153.92 156.826C154.597 156.756 154.733 157.237 154.733 157.237L155.612 157.375C156.355 157.581 155.906 157.653 155.95 157.925C156.017 158.336 156.355 158.199 156.355 158.199L156.492 157.306L156.898 157.375L156.492 156.894L155.747 156.55L154.936 156.208C154.394 155.453 155.071 155.59 155.612 155.659H156.491C156.491 155.659 157.507 157.031 157.507 157.375C157.507 157.719 157.98 157.787 157.98 157.787L158.588 157.718L158.791 158.198H159.4L159.604 158.609H160.821L160.889 157.992L159.738 157.787L159.671 157.1L158.86 156.894C158.588 155.727 159.062 155.384 159.4 155.934L159.806 156.001L159.67 154.971L160.144 154.834L160.009 153.391L159.603 153.255V152.774L161.293 152.844C161.159 151.95 161.362 151.539 161.362 151.539H161.835L161.903 151.883L163.972 152.078L165.436 150.4C165.362 150.271 165.583 150.193 165.422 150.028C165.218 149.822 164.947 150.028 164.608 149.822C164.27 149.618 164.608 148.449 164.541 148.175C164.473 147.901 165.692 147.487 165.489 148.106C165.286 148.725 165.489 148.999 165.489 148.999C166.368 148.175 167.112 149.067 167.045 149.273C166.976 149.479 167.518 149.686 167.856 149.479C168.195 149.273 168.6 150.098 168.465 150.509C168.329 150.92 167.112 150.852 167.045 150.44C166.976 150.028 166.773 150.166 166.639 150.372C166.503 150.578 165.895 150.715 165.557 150.509C165.487 150.467 165.455 150.432 165.436 150.399L163.972 152.078L164.067 152.088C164.878 152.569 164.473 153.186 164.204 153.324C163.932 153.461 163.458 153.461 163.458 153.461L163.324 153.736L161.565 153.873L161.429 154.56C160.55 154.421 160.212 155.383 160.415 155.863C160.618 156.343 160.415 156.756 160.415 156.756L161.159 157.1L162.105 156.826C162.242 156.138 162.849 156.001 163.391 155.59C163.932 155.178 164.812 156.343 164.541 156.894C164.27 157.442 164.27 157.649 164.27 157.649L164.337 158.267L163.661 158.541L163.12 158.816L163.051 159.16H161.226L160.888 159.502L160.008 159.573L159.736 159.984L159.129 160.053C159.129 160.053 158.113 160.533 158.52 161.082C158.926 161.632 156.829 161.563 156.354 160.808C156.219 161.493 155.475 160.876 155.475 160.876L154.731 160.67L154.664 159.641C154.529 158.954 153.243 158.954 153.311 159.435C153.379 159.916 150.875 159.641 150.875 159.641L150.064 160.035L149.319 160.465L149.252 160.808L148.033 160.945L147.493 161.22L147.29 160.808H146.749L146.208 161.564C144.787 161.633 143.434 162.456 143.569 162.8C143.705 163.142 143.029 163.488 143.029 163.488L142.419 163.691L142.014 164.31L141.202 164.585L141.066 166.027L140.661 166.301V166.919L140.187 167.056V167.4L139.511 167.468L139.916 168.498L140.459 168.773C141.406 168.91 140.999 170.078 140.999 170.078L141.539 170.146L141.811 170.901L142.352 171.999C142.555 172.824 143.164 172.618 143.434 172.549C143.705 172.482 143.975 173.373 143.975 173.373L146.681 173.442C146.681 173.442 146.546 173.717 147.019 173.854C147.492 173.99 150.605 174.129 150.741 173.923C150.604 173.305 152.431 173.167 153.176 173.716C153.919 174.265 154.934 173.923 154.934 173.923L155.949 175.157L156.626 176.668L157.776 177.011L158.587 177.218L158.859 178.385L159.467 178.454L159.67 179.209C160.415 179.758 159.467 180.926 159.467 180.926V182.436L160.008 182.711L159.94 183.261L160.821 184.152L161.835 184.222L164.406 186.968L166.434 187.585L166.772 188.684L167.315 188.615L167.72 188.272L169.343 188.204L170.156 187.447L171.035 187.311L178.544 180.926L177.867 180.513V179.004C179.084 178.111 179.152 176.531 178.002 176.394C177.13 176.29 177.529 175.364 178.341 175.227L178.814 175.022V174.403L180.37 172.962V171.863L176.988 169.047C175.499 168.499 176.988 165.203 178.002 165.272C179.017 165.34 177.935 160.191 177.935 160.191L177.393 159.917L177.529 158.269H176.785L175.567 159.849L175.23 160.946C175.094 162.39 170.9 162.113 170.696 161.907C170.493 161.701 169.073 161.084 169.073 161.084C169.073 161.084 167.99 160.191 167.788 160.466C167.584 160.741 166.638 160.122 166.638 160.329C166.638 160.535 165.759 159.849 165.759 159.849L164.406 159.368L165.422 159.161L165.218 158.338L166.975 159.23C167.179 159.504 168.058 159.437 168.058 159.437L168.328 159.78C168.328 159.78 168.87 159.711 169.21 160.123C169.548 160.536 171.306 160.192 171.306 160.192L171.779 160.603L172.523 160.878L174.621 160.947L174.688 159.643L175.094 159.231L175.027 158.406L175.5 157.995V157.309L175.906 157.172L175.973 155.662L176.311 155.593V152.297L175.296 151.336C175.23 151.679 174.147 151.679 174.147 151.679C174.147 151.679 173.876 152.16 173.673 152.16C173.471 152.16 173.944 152.777 173.808 153.189C173.673 153.6 173.132 153.6 173.132 153.6L172.116 153.876L171.846 154.22H170.764L170.629 153.327L171.846 152.983L172.522 152.641L172.861 151.953C172.928 151.268 173.74 151.336 173.74 151.336C173.74 151.336 175.296 150.031 175.364 149.414C175.433 148.796 175.973 147.079 176.92 147.079H178.679C179.355 146.804 179.152 145.912 179.152 145.912L180.032 145.775L180.168 146.256C180.168 146.256 181.386 146.393 181.52 146.187C181.656 145.982 181.926 145.5 182.265 145.707C182.603 145.912 183.685 145.225 183.685 145.225C183.753 144.745 185.444 144.951 185.444 144.951L185.648 144.333C185.648 144.333 184.498 142.754 184.295 142.754C184.091 142.754 183.009 141.792 182.873 142.136C181.793 141.862 181.859 140.351 181.859 140.351L181.453 139.39C181.453 138.84 180.44 137.673 180.235 137.811C179.22 137.056 179.965 136.163 180.235 136.094C180.506 136.026 181.183 135.065 181.183 135.065L181.521 134.103L182.671 133.761L182.806 132.868L182.199 132.799C182.199 132.799 182.874 131.563 183.213 131.563C183.552 131.563 185.784 131.563 185.985 131.425C186.189 131.289 186.594 130.19 186.594 129.984C186.594 129.778 187.137 129.709 187.338 129.64C187.542 129.572 188.015 129.023 188.15 128.748C188.286 128.471 187.813 126.755 187.542 127.029H187.542Z" fill="white" stroke="white" stroke-width="1.2" stroke-linecap="round" stroke-linejoin="round"/>
<path d="M150.066 151.78C150.168 151.679 150.269 152.09 150.472 152.039C150.674 151.987 150.776 152.399 150.574 152.399C150.37 152.399 150.37 152.657 150.37 152.76C150.37 152.863 150.37 153.12 150.218 153.274C150.066 153.429 149.913 153.326 149.71 153.223C149.507 153.12 149.407 153.12 149.152 153.12C148.899 153.12 149.101 153.532 149.101 153.532C149.101 153.532 148.035 153.481 148.238 153.326C148.442 153.173 148.645 153.12 148.493 153.016C148.34 152.913 148.493 152.811 148.493 152.605C148.493 152.399 149.001 152.502 148.847 152.347C148.696 152.193 148.85 151.595 149.101 151.935L149.254 151.574C149.101 151.42 149.203 151.368 148.899 151.267C148.594 151.164 148.847 150.545 148.847 150.545L148.899 150.133C149 149.619 150.014 149.567 150.066 150.03C150.116 150.494 150.066 150.803 150.066 150.803L150.371 150.905C150.371 150.905 150.319 151.216 150.066 151.216C149.811 151.216 150.066 151.368 149.913 151.524L150.066 151.78V151.78ZM146.717 152.297C146.869 151.988 147.224 150.649 147.63 151.061C148.035 151.474 148.29 151.061 148.29 151.061C148.29 151.061 148.493 151.268 148.391 151.68C148.289 152.091 148.188 152.504 147.933 152.555C147.68 152.607 147.477 152.761 147.174 152.813C146.87 152.865 146.717 152.297 146.717 152.297Z" fill="white" stroke="white" stroke-width="1.2" stroke-linecap="round" stroke-linejoin="round"/>
</svg>
