<svg width="300" height="300" viewBox="0 0 300 300" fill="none" xmlns="http://www.w3.org/2000/svg">
<g clip-path="url(#clip0_113_635)">
<rect width="300" height="300" fill="white"/>
<rect x="300" y="38" width="300" height="38" transform="rotate(-180 300 38)" fill="#EF4B4B"/>
<rect x="300" y="75" width="300" height="36.9999" transform="rotate(-180 300 75)" fill="white"/>
<rect x="300" y="114" width="300" height="39" transform="rotate(-180 300 114)" fill="#EF4B4B"/>
<rect x="300" y="151" width="300" height="36.9999" transform="rotate(-180 300 151)" fill="white"/>
<rect x="300" y="188" width="300" height="37" transform="rotate(-180 300 188)" fill="#EF4B4B"/>
<rect x="300" y="227" width="300" height="38.9999" transform="rotate(-180 300 227)" fill="white"/>
<rect x="300" y="263" width="300" height="36" transform="rotate(-180 300 263)" fill="#EF4B4B"/>
<rect x="300" y="300" width="300" height="36.9999" transform="rotate(-180 300 300)" fill="white"/>
<rect x="150" y="151" width="150" height="151" transform="rotate(-180 150 151)" fill="#4F60FF"/>
<path d="M16.3233 26.5982C17.0356 24.5304 19.9601 24.5304 20.6725 26.5982L22.0442 30.5802C22.3639 31.5082 23.2372 32.1311 24.2188 32.1311H28.3584C30.6189 32.1311 31.5232 35.0505 29.6585 36.3283L26.5453 38.4617C25.6917 39.0467 25.3338 40.1297 25.6709 41.1081L26.9138 44.7162C27.6357 46.8118 25.2674 48.6155 23.4391 47.3626L19.798 44.8675C19.0144 44.3305 17.9813 44.3305 17.1977 44.8675L13.5566 47.3626C11.7283 48.6155 9.36001 46.8118 10.0819 44.7162L11.3248 41.1081C11.6619 40.1297 11.304 39.0467 10.4504 38.4617L7.3372 36.3283C5.47253 35.0505 6.37687 32.1311 8.63736 32.1311H12.777C13.7585 32.1311 14.6319 31.5082 14.9516 30.5802L16.3233 26.5982Z" fill="white"/>
<path d="M49.4528 -2.96624C50.1404 -5.0871 53.1409 -5.0871 53.8285 -2.96624L54.9655 0.540423C55.2729 1.48878 56.1564 2.13107 57.1533 2.13107H60.8431C63.0699 2.13107 63.9971 4.97966 62.1969 6.29042L59.2033 8.47005C58.3989 9.05573 58.0624 10.0922 58.3692 11.0388L59.5107 14.5593C60.198 16.6792 57.7706 18.4397 55.969 17.128L52.9945 14.9622C52.1875 14.3747 51.0938 14.3747 50.2868 14.9622L47.3123 17.128C45.5108 18.4397 43.0833 16.6792 43.7706 14.5593L44.9121 11.0388C45.2189 10.0923 44.8824 9.05573 44.078 8.47005L41.0844 6.29042C39.2842 4.97966 40.2114 2.13107 42.4383 2.13107H46.128C47.1249 2.13107 48.0084 1.48878 48.3158 0.540423L49.4528 -2.96624Z" fill="white"/>
<path d="M83.6647 27.0338C84.3523 24.9129 87.3528 24.9129 88.0404 27.0338L89.1774 30.5404C89.4849 31.4888 90.3683 32.1311 91.3653 32.1311H95.055C97.2818 32.1311 98.209 34.9797 96.4088 36.2904L93.4152 38.4701C92.6108 39.0557 92.2743 40.0922 92.5812 41.0388L93.7226 44.5593C94.4099 46.6792 91.9825 48.4397 90.1809 47.128L87.2064 44.9622C86.3995 44.3747 85.3057 44.3747 84.4988 44.9622L81.5242 47.128C79.7227 48.4397 77.2952 46.6792 77.9826 44.5593L79.124 41.0388C79.4309 40.0923 79.0943 39.0557 78.2899 38.4701L75.2964 36.2904C73.4961 34.9797 74.4233 32.1311 76.6502 32.1311H80.3399C81.3368 32.1311 82.2203 31.4888 82.5278 30.5404L83.6647 27.0338Z" fill="white"/>
<path d="M115.738 -2.96624C116.426 -5.0871 119.427 -5.0871 120.114 -2.96624L121.251 0.540423C121.559 1.48878 122.442 2.13107 123.439 2.13107H127.129C129.356 2.13107 130.283 4.97966 128.483 6.29042L125.489 8.47005C124.685 9.05573 124.348 10.0922 124.655 11.0388L125.796 14.5593C126.484 16.6792 124.056 18.4397 122.255 17.128L119.28 14.9622C118.473 14.3747 117.379 14.3747 116.572 14.9622L113.598 17.128C111.796 18.4397 109.369 16.6792 110.056 14.5593L111.198 11.0388C111.505 10.0923 111.168 9.05573 110.364 8.47005L107.37 6.29042C105.57 4.97966 106.497 2.13107 108.724 2.13107H112.414C113.411 2.13107 114.294 1.48878 114.601 0.540423L115.738 -2.96624Z" fill="white"/>
<path d="M16.3233 84.4554C17.0356 82.3876 19.9601 82.3876 20.6725 84.4554L22.0442 88.4374C22.3639 89.3654 23.2372 89.9882 24.2188 89.9882H28.3584C30.6189 89.9882 31.5232 92.9077 29.6585 94.1855L26.5453 96.3189C25.6917 96.9039 25.3338 97.9869 25.6709 98.9653L26.9138 102.573C27.6357 104.669 25.2674 106.473 23.4391 105.22L19.798 102.725C19.0144 102.188 17.9813 102.188 17.1977 102.725L13.5566 105.22C11.7283 106.473 9.36001 104.669 10.0819 102.573L11.3248 98.9653C11.6619 97.9869 11.304 96.9039 10.4504 96.3189L7.3372 94.1855C5.47253 92.9077 6.37687 89.9882 8.63736 89.9882H12.777C13.7585 89.9882 14.6319 89.3654 14.9516 88.4374L16.3233 84.4554Z" fill="white"/>
<path d="M49.4525 54.8909C50.1402 52.7701 53.1407 52.7701 53.8283 54.8909L54.9652 58.3976C55.2727 59.346 56.1561 59.9882 57.1531 59.9882H60.8428C63.0697 59.9882 63.9969 62.8368 62.1966 64.1476L59.2031 66.3272C58.3987 66.9129 58.0621 67.9494 58.369 68.8959L59.5104 72.4164C60.1977 74.5363 57.7703 76.2969 55.9687 74.9852L52.9942 72.8194C52.1873 72.2319 51.0935 72.2319 50.2866 72.8194L47.3121 74.9852C45.5105 76.2969 43.0831 74.5363 43.7704 72.4164L44.9118 68.8959C45.2187 67.9494 44.8821 66.9129 44.0777 66.3272L41.0842 64.1476C39.284 62.8368 40.2111 59.9882 42.438 59.9882H46.1277C47.1247 59.9882 48.0081 59.346 48.3156 58.3976L49.4525 54.8909Z" fill="white"/>
<path d="M83.6647 84.8909C84.3523 82.7701 87.3528 82.7701 88.0404 84.8909L89.1774 88.3976C89.4849 89.346 90.3683 89.9882 91.3653 89.9882H95.055C97.2818 89.9882 98.209 92.8368 96.4088 94.1476L93.4152 96.3272C92.6108 96.9129 92.2743 97.9494 92.5812 98.8959L93.7226 102.416C94.4099 104.536 91.9825 106.297 90.1809 104.985L87.2064 102.819C86.3995 102.232 85.3057 102.232 84.4988 102.819L81.5242 104.985C79.7227 106.297 77.2952 104.536 77.9826 102.416L79.124 98.8959C79.4309 97.9494 79.0943 96.9129 78.2899 96.3272L75.2964 94.1476C73.4961 92.8368 74.4233 89.9882 76.6502 89.9882H80.3399C81.3368 89.9882 82.2203 89.346 82.5278 88.3976L83.6647 84.8909Z" fill="white"/>
<path d="M115.738 54.8909C116.426 52.7701 119.427 52.7701 120.114 54.8909L121.251 58.3976C121.559 59.346 122.442 59.9882 123.439 59.9882H127.129C129.356 59.9882 130.283 62.8368 128.483 64.1476L125.489 66.3272C124.685 66.9129 124.348 67.9494 124.655 68.8959L125.796 72.4164C126.484 74.5363 124.056 76.2969 122.255 74.9852L119.28 72.8194C118.473 72.2319 117.379 72.2319 116.572 72.8194L113.598 74.9852C111.796 76.2969 109.369 74.5363 110.056 72.4164L111.198 68.8959C111.505 67.9494 111.168 66.9129 110.364 66.3272L107.37 64.1476C105.57 62.8368 106.497 59.9882 108.724 59.9882H112.414C113.411 59.9882 114.294 59.346 114.601 58.3976L115.738 54.8909Z" fill="white"/>
<path d="M49.4528 114.891C50.1404 112.77 53.1409 112.77 53.8285 114.891L54.9655 118.398C55.2729 119.346 56.1564 119.988 57.1533 119.988H60.8431C63.0699 119.988 63.9971 122.837 62.1969 124.148L59.2033 126.327C58.3989 126.913 58.0624 127.949 58.3692 128.896L59.5107 132.416C60.198 134.536 57.7706 136.297 55.969 134.985L52.9945 132.819C52.1875 132.232 51.0938 132.232 50.2868 132.819L47.3123 134.985C45.5108 136.297 43.0833 134.536 43.7706 132.416L44.9121 128.896C45.2189 127.949 44.8824 126.913 44.078 126.327L41.0844 124.148C39.2842 122.837 40.2114 119.988 42.4383 119.988H46.128C47.1249 119.988 48.0084 119.346 48.3158 118.398L49.4528 114.891Z" fill="white"/>
<path d="M115.738 114.891C116.426 112.77 119.427 112.77 120.114 114.891L121.251 118.398C121.559 119.346 122.442 119.988 123.439 119.988H127.129C129.356 119.988 130.283 122.837 128.483 124.148L125.489 126.327C124.685 126.913 124.348 127.949 124.655 128.896L125.796 132.416C126.484 134.536 124.056 136.297 122.255 134.985L119.28 132.819C118.473 132.232 117.379 132.232 116.572 132.819L113.598 134.985C111.796 136.297 109.369 134.536 110.056 132.416L111.198 128.896C111.505 127.949 111.168 126.913 110.364 126.327L107.37 124.148C105.57 122.837 106.497 119.988 108.724 119.988H112.414C113.411 119.988 114.294 119.346 114.601 118.398L115.738 114.891Z" fill="white"/>
</g>
<defs>
<clipPath id="clip0_113_635">
<rect width="300" height="300" fill="white"/>
</clipPath>
</defs>
</svg>
