<svg width="300" height="300" viewBox="0 0 300 300" fill="none" xmlns="http://www.w3.org/2000/svg">
<g clip-path="url(#clip0)">
<rect width="300" height="300" fill="white"/>
<rect x="300" y="38" width="300" height="38" transform="rotate(-180 300 38)" fill="#EF4B4B"/>
<rect x="300" y="75" width="300" height="36.9999" transform="rotate(-180 300 75)" fill="white"/>
<rect x="300" y="114" width="300" height="39" transform="rotate(-180 300 114)" fill="#EF4B4B"/>
<rect x="300" y="151" width="300" height="36.9999" transform="rotate(-180 300 151)" fill="white"/>
<rect x="300" y="188" width="300" height="37" transform="rotate(-180 300 188)" fill="#EF4B4B"/>
<rect x="300" y="227" width="300" height="38.9999" transform="rotate(-180 300 227)" fill="white"/>
<rect x="300" y="263" width="300" height="36" transform="rotate(-180 300 263)" fill="#EF4B4B"/>
<rect x="300" y="300" width="300" height="36.9999" transform="rotate(-180 300 300)" fill="white"/>
<rect x="150" y="151" width="150" height="151" transform="rotate(-180 150 151)" fill="#4F60FF"/>
<path d="M17.5524 23.0302C17.8621 22.1312 19.1336 22.1312 19.4433 23.0302L22.3461 31.4568C22.4851 31.8603 22.8649 32.1311 23.2916 32.1311H32.5551C33.538 32.1311 33.9311 33.4004 33.1204 33.956L25.7286 39.0214C25.3575 39.2758 25.2019 39.7466 25.3484 40.172L28.1952 48.436C28.5091 49.3471 27.4794 50.1313 26.6845 49.5866L19.0631 44.3639C18.7225 44.1304 18.2733 44.1304 17.9326 44.3639L10.3113 49.5866C9.51633 50.1313 8.48663 49.3471 8.8005 48.436L11.6473 40.172C11.7939 39.7466 11.6383 39.2758 11.2671 39.0214L3.8753 33.956C3.06458 33.4004 3.45777 32.1311 4.44059 32.1311H13.7041C14.1309 32.1311 14.5106 31.8603 14.6496 31.4568L17.5524 23.0302Z" fill="white"/>
<path d="M50.6894 -6.78039C50.9884 -7.70251 52.2929 -7.70251 52.5919 -6.78039L55.257 1.43948C55.3906 1.85181 55.7748 2.13107 56.2082 2.13107H64.8371C65.8053 2.13107 66.2084 3.36959 65.4257 3.93948L58.4411 9.02503C58.0914 9.27968 57.945 9.73034 58.0785 10.1419L60.7455 18.3678C61.0443 19.2894 59.9889 20.0549 59.2056 19.4846L52.2293 14.4051C51.8784 14.1496 51.4029 14.1496 51.052 14.4051L44.0757 19.4846C43.2924 20.0549 42.237 19.2894 42.5358 18.3678L45.2029 10.1419C45.3363 9.73034 45.19 9.27968 44.8402 9.02503L37.8556 3.93948C37.0729 3.36958 37.476 2.13107 38.4442 2.13107H47.0731C47.5066 2.13107 47.8907 1.85181 48.0243 1.43948L50.6894 -6.78039Z" fill="white"/>
<path d="M84.9013 23.2196C85.2003 22.2975 86.5049 22.2975 86.8038 23.2196L89.4689 31.4395C89.6026 31.8518 89.9867 32.1311 90.4201 32.1311H99.049C100.017 32.1311 100.42 33.3696 99.6376 33.9395L92.653 39.025C92.3033 39.2797 92.1569 39.7303 92.2904 40.1419L94.9574 48.3678C95.2562 49.2894 94.2008 50.0549 93.4175 49.4846L86.4412 44.4051C86.0903 44.1496 85.6148 44.1496 85.264 44.4051L78.2876 49.4846C77.5043 50.0549 76.4489 49.2894 76.7478 48.3678L79.4148 40.1419C79.5482 39.7303 79.4019 39.2797 79.0521 39.025L72.0675 33.9395C71.2848 33.3696 71.6879 32.1311 72.6561 32.1311H81.285C81.7185 32.1311 82.1026 31.8518 82.2363 31.4395L84.9013 23.2196Z" fill="white"/>
<path d="M116.975 -6.78039C117.274 -7.70251 118.579 -7.70251 118.878 -6.78039L121.543 1.43948C121.676 1.85181 122.06 2.13107 122.494 2.13107H131.123C132.091 2.13107 132.494 3.36959 131.711 3.93948L124.727 9.02503C124.377 9.27968 124.231 9.73034 124.364 10.1419L127.031 18.3678C127.33 19.2894 126.275 20.0549 125.491 19.4846L118.515 14.4051C118.164 14.1496 117.689 14.1496 117.338 14.4051L110.361 19.4846C109.578 20.0549 108.523 19.2894 108.821 18.3678L111.488 10.1419C111.622 9.73034 111.476 9.27968 111.126 9.02503L104.141 3.93948C103.359 3.36958 103.762 2.13107 104.73 2.13107H113.359C113.792 2.13107 114.176 1.85181 114.31 1.43948L116.975 -6.78039Z" fill="white"/>
<path d="M17.5524 80.8874C17.8621 79.9884 19.1336 79.9884 19.4433 80.8874L22.3461 89.3139C22.4851 89.7174 22.8649 89.9882 23.2916 89.9882H32.5551C33.538 89.9882 33.9311 91.2576 33.1204 91.8131L25.7286 96.8786C25.3575 97.1329 25.2019 97.6038 25.3484 98.0292L28.1952 106.293C28.5091 107.204 27.4794 107.989 26.6845 107.444L19.0631 102.221C18.7225 101.988 18.2733 101.988 17.9326 102.221L10.3113 107.444C9.51633 107.989 8.48663 107.204 8.8005 106.293L11.6473 98.0292C11.7939 97.6038 11.6383 97.1329 11.2671 96.8786L3.8753 91.8131C3.06458 91.2576 3.45777 89.9882 4.44059 89.9882H13.7041C14.1309 89.9882 14.5106 89.7174 14.6496 89.3139L17.5524 80.8874Z" fill="white"/>
<path d="M50.6892 51.0768C50.9881 50.1547 52.2927 50.1547 52.5917 51.0768L55.2567 59.2967C55.3904 59.709 55.7745 59.9882 56.208 59.9882H64.8368C65.805 59.9882 66.2082 61.2268 65.4255 61.7967L58.4408 66.8822C58.0911 67.1369 57.9448 67.5875 58.0782 67.999L60.7452 76.2249C61.0441 77.1466 59.9886 77.9121 59.2054 77.3418L52.229 72.2622C51.8782 72.0068 51.4026 72.0068 51.0518 72.2622L44.0755 77.3418C43.2922 77.9121 42.2368 77.1466 42.5356 76.2249L45.2026 67.999C45.336 67.5875 45.1897 67.1369 44.84 66.8822L37.8554 61.7967C37.0727 61.2268 37.4758 59.9882 38.444 59.9882H47.0729C47.5063 59.9882 47.8904 59.709 48.0241 59.2967L50.6892 51.0768Z" fill="white"/>
<path d="M84.9013 81.0768C85.2003 80.1547 86.5049 80.1547 86.8038 81.0768L89.4689 89.2967C89.6026 89.709 89.9867 89.9882 90.4201 89.9882H99.049C100.017 89.9882 100.42 91.2268 99.6376 91.7967L92.653 96.8822C92.3033 97.1369 92.1569 97.5875 92.2904 97.999L94.9574 106.225C95.2562 107.147 94.2008 107.912 93.4175 107.342L86.4412 102.262C86.0903 102.007 85.6148 102.007 85.264 102.262L78.2876 107.342C77.5043 107.912 76.4489 107.147 76.7478 106.225L79.4148 97.999C79.5482 97.5875 79.4019 97.1369 79.0521 96.8822L72.0675 91.7967C71.2848 91.2268 71.6879 89.9882 72.6561 89.9882H81.285C81.7185 89.9882 82.1026 89.709 82.2363 89.2967L84.9013 81.0768Z" fill="white"/>
<path d="M116.975 51.0768C117.274 50.1547 118.579 50.1547 118.878 51.0768L121.543 59.2967C121.676 59.709 122.06 59.9882 122.494 59.9882H131.123C132.091 59.9882 132.494 61.2268 131.711 61.7967L124.727 66.8822C124.377 67.1369 124.231 67.5875 124.364 67.999L127.031 76.2249C127.33 77.1466 126.275 77.9121 125.491 77.3418L118.515 72.2622C118.164 72.0068 117.689 72.0068 117.338 72.2622L110.361 77.3418C109.578 77.9121 108.523 77.1466 108.821 76.2249L111.488 67.999C111.622 67.5875 111.476 67.1369 111.126 66.8822L104.141 61.7967C103.359 61.2268 103.762 59.9882 104.73 59.9882H113.359C113.792 59.9882 114.176 59.709 114.31 59.2967L116.975 51.0768Z" fill="white"/>
<path d="M50.6894 111.077C50.9884 110.155 52.2929 110.155 52.5919 111.077L55.257 119.297C55.3906 119.709 55.7748 119.988 56.2082 119.988H64.8371C65.8053 119.988 66.2084 121.227 65.4257 121.797L58.4411 126.882C58.0914 127.137 57.945 127.588 58.0785 127.999L60.7455 136.225C61.0443 137.147 59.9889 137.912 59.2056 137.342L52.2293 132.262C51.8784 132.007 51.4029 132.007 51.052 132.262L44.0757 137.342C43.2924 137.912 42.237 137.147 42.5358 136.225L45.2029 127.999C45.3363 127.588 45.19 127.137 44.8402 126.882L37.8556 121.797C37.0729 121.227 37.476 119.988 38.4442 119.988H47.0731C47.5066 119.988 47.8907 119.709 48.0243 119.297L50.6894 111.077Z" fill="white"/>
<path d="M116.975 111.077C117.274 110.155 118.579 110.155 118.878 111.077L121.543 119.297C121.676 119.709 122.06 119.988 122.494 119.988H131.123C132.091 119.988 132.494 121.227 131.711 121.797L124.727 126.882C124.377 127.137 124.231 127.588 124.364 127.999L127.031 136.225C127.33 137.147 126.275 137.912 125.491 137.342L118.515 132.262C118.164 132.007 117.689 132.007 117.338 132.262L110.361 137.342C109.578 137.912 108.523 137.147 108.821 136.225L111.488 127.999C111.622 127.588 111.476 127.137 111.126 126.882L104.141 121.797C103.359 121.227 103.762 119.988 104.73 119.988H113.359C113.792 119.988 114.176 119.709 114.31 119.297L116.975 111.077Z" fill="white"/>
</g>
<defs>
<clipPath id="clip0">
<rect width="300" height="300" fill="white"/>
</clipPath>
</defs>
</svg>
