<svg width="300" height="300" viewBox="0 0 300 300" fill="none" xmlns="http://www.w3.org/2000/svg">
<g clip-path="url(#clip0)">
<rect width="300" height="300" fill="white"/>
<rect x="500" y="33" width="335" height="33" transform="rotate(-180 500 33)" fill="white"/>
<rect x="500" y="66" width="335" height="33" transform="rotate(-180 500 66)" fill="#3661F6"/>
<rect x="500" y="99" width="335" height="33" transform="rotate(-180 500 99)" fill="white"/>
<rect x="500" y="132" width="335" height="33" transform="rotate(-180 500 132)" fill="#3661F6"/>
<rect x="500" y="165" width="335" height="33" transform="rotate(-180 500 165)" fill="white"/>
<rect x="500" y="198.333" width="500" height="33.3333" transform="rotate(-180 500 198.333)" fill="#3661F6"/>
<rect x="500" y="231" width="503" height="33" transform="rotate(-180 500 231)" fill="white"/>
<rect x="500" y="265.333" width="500" height="33.3333" transform="rotate(-180 500 265.333)" fill="#3661F6"/>
<rect x="500" y="300.333" width="500" height="33.3333" transform="rotate(-180 500 300.333)" fill="white"/>
<path d="M108.912 26.7712C109.585 25.9809 110.868 26.6137 110.65 27.629L102.458 65.9179C102.328 66.5274 102.78 67.1063 103.403 67.1266L142.538 68.403C143.576 68.4369 143.881 69.8343 142.952 70.2975L107.908 87.7651C107.35 88.0431 107.18 88.7581 107.553 89.2577L130.955 120.65C131.575 121.483 130.673 122.593 129.731 122.155L94.2255 105.648C93.6603 105.385 92.9951 105.697 92.8367 106.3L82.8841 144.17C82.6201 145.174 81.1899 145.16 80.9451 144.151L71.7133 106.1C71.5664 105.494 70.9072 105.169 70.3372 105.421L34.5243 121.251C33.5746 121.671 32.6934 120.544 33.3297 119.723L57.3238 88.7808C57.7057 88.2883 57.549 87.5702 56.9966 87.2817L22.2912 69.1517C21.3709 68.671 21.7024 67.2796 22.7406 67.2655L61.8925 66.7325C62.5157 66.724 62.9794 66.1537 62.8606 65.5419L55.3967 27.1044C55.1987 26.0851 56.4932 25.4768 57.1516 26.2797L81.9792 56.5575C82.3743 57.0395 83.1093 57.0464 83.5135 56.5721L108.912 26.7712Z" fill="#DAA75B"/>
<path d="M81.5305 20.8368C81.7849 19.8302 83.2151 19.8301 83.4695 20.8368L93.0622 58.7991C93.2149 59.4034 93.8771 59.7223 94.4447 59.4649L130.106 43.2956C131.051 42.8669 131.943 43.9851 131.315 44.8117L107.616 75.9806C107.238 76.4767 107.402 77.1933 107.957 77.4766L142.833 95.2761C143.758 95.7481 143.439 97.1426 142.401 97.1666L103.256 98.0713C102.633 98.0857 102.175 98.6603 102.3 99.271L110.128 137.636C110.336 138.653 109.047 139.274 108.381 138.477L83.2672 108.437C82.8675 107.958 82.1325 107.958 81.7328 108.437L56.6189 138.477C55.9529 139.274 54.6642 138.653 54.8718 137.636L62.7004 99.271C62.825 98.6603 62.3667 98.0857 61.7437 98.0713L22.5986 97.1666C21.5605 97.1426 21.2423 95.7481 22.1671 95.2761L57.0431 77.4766C57.5982 77.1933 57.7617 76.4767 57.3845 75.9806L33.6853 44.8117C33.0569 43.9851 33.9486 42.8669 34.8943 43.2956L70.5553 59.4649C71.1229 59.7223 71.7851 59.4034 71.9378 58.7991L81.5305 20.8368Z" fill="#F0F359"/>
</g>
<defs>
<clipPath id="clip0">
<rect width="300" height="300" fill="white"/>
</clipPath>
</defs>
</svg>
