<svg width="300" height="300" viewBox="0 0 300 300" fill="none" xmlns="http://www.w3.org/2000/svg">
<g clip-path="url(#clip0_114_747)">
<rect width="300" height="300" fill="white"/>
<rect x="500" y="33" width="335" height="33" transform="rotate(-180 500 33)" fill="white"/>
<rect x="500" y="66" width="335" height="33" transform="rotate(-180 500 66)" fill="#3661F6"/>
<rect x="500" y="99" width="335" height="33" transform="rotate(-180 500 99)" fill="white"/>
<rect x="500" y="132" width="335" height="33" transform="rotate(-180 500 132)" fill="#3661F6"/>
<rect x="500" y="165" width="335" height="33" transform="rotate(-180 500 165)" fill="white"/>
<rect x="500" y="198.333" width="500" height="33.3333" transform="rotate(-180 500 198.333)" fill="#3661F6"/>
<rect x="500" y="231" width="503" height="33" transform="rotate(-180 500 231)" fill="white"/>
<rect x="500" y="265.333" width="500" height="33.3333" transform="rotate(-180 500 265.333)" fill="#3661F6"/>
<rect x="500" y="300.333" width="500" height="33.3333" transform="rotate(-180 500 300.333)" fill="white"/>
<path d="M99.9271 37.3131C102.958 33.7569 108.73 36.6044 107.752 41.1735L103.334 61.824C102.747 64.5664 104.785 67.1717 107.588 67.2631L128.694 67.9515C133.364 68.1038 134.737 74.3921 130.555 76.4765L111.655 85.8974C109.145 87.1485 108.379 90.3658 110.055 92.6143L122.676 109.545C125.469 113.291 121.408 118.285 117.171 116.315L98.0219 107.413C95.4788 106.23 92.4854 107.637 91.7726 110.349L86.4048 130.774C85.2171 135.293 78.781 135.232 77.6794 130.691L72.7004 110.168C72.0392 107.443 69.0731 105.98 66.508 107.113L47.1929 115.651C42.9193 117.54 38.9542 112.47 41.8175 108.778L54.7583 92.0893C56.4768 89.873 55.7715 86.6417 53.2858 85.3432L34.568 75.5651C30.4266 73.4016 31.9183 67.1405 36.5903 67.0769L57.7063 66.7895C60.5105 66.7513 62.5971 64.1852 62.0625 61.4321L58.037 40.7014C57.1463 36.1146 62.9715 33.3772 65.9342 36.9903L79.3245 53.3201C81.1028 55.4888 84.41 55.5202 86.2291 53.3857L99.9271 37.3131Z" fill="#DAA75B"/>
<path d="M78.1371 34.2658C79.2818 29.7357 85.7182 29.7357 86.8629 34.2657L92.0365 54.7401C92.7236 57.4591 95.7034 58.8942 98.2577 57.736L117.491 49.0154C121.746 47.0859 125.759 52.118 122.931 55.8375L110.149 72.6479C108.452 74.8804 109.188 78.1049 111.686 79.3797L130.496 88.9796C134.658 91.1037 133.225 97.3786 128.554 97.4866L107.442 97.9746C104.638 98.0394 102.576 100.625 103.137 103.373L107.359 124.065C108.293 128.643 102.494 131.435 99.4973 127.851L85.9525 111.649C84.1537 109.497 80.8463 109.497 79.0475 111.649L65.5028 127.851C62.5059 131.435 56.707 128.643 57.6411 124.065L61.8633 103.373C62.424 100.625 60.3619 98.0394 57.5582 97.9746L36.4459 97.4866C31.7747 97.3786 30.3425 91.1037 34.5042 88.9797L53.314 79.3798C55.812 78.1049 56.548 74.8804 54.8505 72.6479L42.0687 55.8375C39.2407 52.1181 43.2537 47.0859 47.5091 49.0154L66.7423 57.736C69.2966 58.8942 72.2764 57.4591 72.9635 54.7401L78.1371 34.2658Z" fill="#F0F359"/>
</g>
<defs>
<clipPath id="clip0_114_747">
<rect width="300" height="300" fill="white"/>
</clipPath>
</defs>
</svg>
