<svg width="300" height="300" viewBox="0 0 300 300" fill="none" xmlns="http://www.w3.org/2000/svg">
<g clip-path="url(#clip0_114_747)">
<rect width="300" height="300" fill="white"/>
<rect x="500" y="33" width="335" height="33" transform="rotate(-180 500 33)" fill="white"/>
<rect x="500" y="66" width="335" height="33" transform="rotate(-180 500 66)" fill="#3661F6"/>
<rect x="500" y="99" width="335" height="33" transform="rotate(-180 500 99)" fill="white"/>
<rect x="500" y="132" width="335" height="33" transform="rotate(-180 500 132)" fill="#3661F6"/>
<rect x="500" y="165" width="335" height="33" transform="rotate(-180 500 165)" fill="white"/>
<rect x="500" y="198.333" width="500" height="33.3333" transform="rotate(-180 500 198.333)" fill="#3661F6"/>
<rect x="500" y="231" width="503" height="33" transform="rotate(-180 500 231)" fill="white"/>
<rect x="500" y="265.333" width="500" height="33.3333" transform="rotate(-180 500 265.333)" fill="#3661F6"/>
<rect x="500" y="300.333" width="500" height="33.3333" transform="rotate(-180 500 300.333)" fill="white"/>
<path d="M101.211 35.8071C103.905 32.646 109.035 35.1772 108.166 39.2386L103.209 62.4088C102.687 64.8465 104.498 67.1623 106.99 67.2436L130.672 68.016C134.823 68.1514 136.043 73.741 132.326 75.5938L111.12 86.1642C108.889 87.2763 108.207 90.1362 109.697 92.1348L123.859 111.132C126.341 114.462 122.732 118.901 118.966 117.15L97.4795 107.16C95.219 106.11 92.5582 107.36 91.9246 109.771L85.9018 132.687C84.8461 136.704 79.1252 136.65 78.1459 132.614L72.5594 109.587C71.9716 107.164 69.3351 105.864 67.055 106.872L45.3831 116.451C41.5843 118.13 38.0598 113.623 40.6049 110.341L55.1248 91.6166C56.6524 89.6466 56.0255 86.7744 53.8159 85.6201L32.8142 74.6489C29.1329 72.7258 30.4589 67.1604 34.6118 67.1039L58.3043 66.7813C60.797 66.7474 62.6517 64.4664 62.1765 62.0192L57.6598 38.759C56.8681 34.6819 62.046 32.2486 64.6795 35.4602L79.7037 53.7826C81.2844 55.7103 84.2242 55.7382 85.8412 53.8409L101.211 35.8071Z" fill="#DAA75B"/>
<path d="M78.6219 32.3473C79.6394 28.3206 85.3606 28.3206 86.3781 32.3473L92.183 55.3199C92.7938 57.7369 95.4425 59.0125 97.7129 57.983L119.293 48.1983C123.076 46.4832 126.643 50.9562 124.129 54.2623L109.787 73.124C108.279 75.1084 108.933 77.9746 111.153 79.1079L132.258 89.8791C135.958 91.7672 134.684 97.3449 130.532 97.4409L106.844 97.9884C104.352 98.046 102.519 100.344 103.017 102.787L107.754 126.003C108.585 130.073 103.43 132.555 100.766 129.369L85.5689 111.19C83.9699 109.277 81.0301 109.277 79.4311 111.19L64.2336 129.369C61.5698 132.555 56.4151 130.073 57.2455 126.003L61.9829 102.787C62.4813 100.345 60.6483 98.046 58.1561 97.9884L34.4677 97.4409C30.3155 97.3449 29.0425 91.7672 32.7418 89.8791L53.8467 79.1079C56.0672 77.9746 56.7214 75.1084 55.2125 73.124L40.8711 54.2624C38.3573 50.9562 41.9244 46.4832 45.707 48.1983L67.2871 57.983C69.5575 59.0125 72.2062 57.7369 72.817 55.32L78.6219 32.3473Z" fill="#F0F359"/>
</g>
<defs>
<clipPath id="clip0_114_747">
<rect width="300" height="300" fill="white"/>
</clipPath>
</defs>
</svg>
