<svg width="300" height="300" viewBox="0 0 300 300" fill="none" xmlns="http://www.w3.org/2000/svg">
<g clip-path="url(#clip0_118_1034)">
<rect width="300" height="300" fill="white"/>
<rect x="300" y="94" width="300" height="94" transform="rotate(-180 300 94)" fill="#59AFFF"/>
<rect x="300" y="300" width="300" height="94" transform="rotate(-180 300 300)" fill="#3B9644"/>
<rect width="300" height="6.00003" transform="matrix(-1 -8.74228e-08 -8.74228e-08 1 300 200)" fill="#EF4B4B"/>
<rect width="300" height="6.00003" transform="matrix(-1 -8.74228e-08 -8.74228e-08 1 300 94)" fill="#EF4B4B"/>
<circle cx="63" cy="48" r="39" fill="white"/>
<ellipse cx="80.5" cy="47.5" rx="43.5" ry="44.5" fill="#59AFFF"/>
<path d="M72.5734 65.3906C73.0224 64.0086 74.9776 64.0086 75.4266 65.3906L75.9084 66.8734C76.1092 67.4914 76.6851 67.9098 77.335 67.9098H78.894C80.3471 67.9098 80.9513 69.7693 79.7757 70.6234L78.5144 71.5398C77.9887 71.9217 77.7687 72.5988 77.9695 73.2168L78.4513 74.6996C78.9003 76.0816 77.3186 77.2307 76.143 76.3766L74.8817 75.4602C74.3559 75.0783 73.6441 75.0783 73.1183 75.4602L71.857 76.3766C70.6814 77.2307 69.0997 76.0816 69.5487 74.6996L70.0305 73.2168C70.2313 72.5988 70.0113 71.9217 69.4856 71.5398L68.2243 70.6234C67.0487 69.7693 67.6529 67.9098 69.106 67.9098H70.665C71.3149 67.9098 71.8908 67.4914 72.0916 66.8734L72.5734 65.3906Z" fill="white"/>
<path d="M92.5734 65.3906C93.0224 64.0086 94.9776 64.0086 95.4266 65.3906L95.9084 66.8734C96.1092 67.4914 96.6851 67.9098 97.335 67.9098H98.894C100.347 67.9098 100.951 69.7693 99.7757 70.6234L98.5144 71.5398C97.9887 71.9217 97.7687 72.5988 97.9695 73.2168L98.4513 74.6996C98.9003 76.0816 97.3186 77.2307 96.143 76.3766L94.8817 75.4602C94.3559 75.0783 93.6441 75.0783 93.1183 75.4602L91.857 76.3766C90.6814 77.2307 89.0997 76.0816 89.5487 74.6996L90.0305 73.2168C90.2313 72.5988 90.0113 71.9217 89.4856 71.5398L88.2243 70.6234C87.0487 69.7693 87.6529 67.9098 89.106 67.9098H90.665C91.3149 67.9098 91.8908 67.4914 92.0916 66.8734L92.5734 65.3906Z" fill="white"/>
<path d="M92.5734 42.3906C93.0224 41.0086 94.9776 41.0086 95.4266 42.3906L95.9084 43.8734C96.1092 44.4914 96.6851 44.9098 97.335 44.9098H98.894C100.347 44.9098 100.951 46.7693 99.7757 47.6234L98.5144 48.5398C97.9887 48.9217 97.7687 49.5988 97.9695 50.2168L98.4513 51.6996C98.9003 53.0816 97.3186 54.2307 96.143 53.3766L94.8817 52.4602C94.3559 52.0783 93.6441 52.0783 93.1183 52.4602L91.857 53.3766C90.6814 54.2307 89.0997 53.0816 89.5487 51.6996L90.0305 50.2168C90.2313 49.5988 90.0113 48.9217 89.4856 48.5398L88.2243 47.6234C87.0487 46.7693 87.6529 44.9098 89.106 44.9098H90.665C91.3149 44.9098 91.8908 44.4914 92.0916 43.8734L92.5734 42.3906Z" fill="white"/>
<path d="M112.573 65.3906C113.022 64.0086 114.978 64.0086 115.427 65.3906L115.908 66.8734C116.109 67.4914 116.685 67.9098 117.335 67.9098H118.894C120.347 67.9098 120.951 69.7693 119.776 70.6234L118.514 71.5398C117.989 71.9217 117.769 72.5988 117.969 73.2168L118.451 74.6996C118.9 76.0816 117.319 77.2307 116.143 76.3766L114.882 75.4602C114.356 75.0783 113.644 75.0783 113.118 75.4602L111.857 76.3766C110.681 77.2307 109.1 76.0816 109.549 74.6996L110.031 73.2168C110.231 72.5988 110.011 71.9217 109.486 71.5398L108.224 70.6234C107.049 69.7693 107.653 67.9098 109.106 67.9098H110.665C111.315 67.9098 111.891 67.4914 112.092 66.8734L112.573 65.3906Z" fill="white"/>
<path d="M112.573 42.3906C113.022 41.0086 114.978 41.0086 115.427 42.3906L115.908 43.8734C116.109 44.4914 116.685 44.9098 117.335 44.9098H118.894C120.347 44.9098 120.951 46.7693 119.776 47.6234L118.514 48.5398C117.989 48.9217 117.769 49.5988 117.969 50.2168L118.451 51.6996C118.9 53.0816 117.319 54.2307 116.143 53.3766L114.882 52.4602C114.356 52.0783 113.644 52.0783 113.118 52.4602L111.857 53.3766C110.681 54.2307 109.1 53.0816 109.549 51.6996L110.031 50.2168C110.231 49.5988 110.011 48.9217 109.486 48.5398L108.224 47.6234C107.049 46.7693 107.653 44.9098 109.106 44.9098H110.665C111.315 44.9098 111.891 44.4914 112.092 43.8734L112.573 42.3906Z" fill="white"/>
<path d="M112.573 20.3906C113.022 19.0086 114.978 19.0086 115.427 20.3906L115.908 21.8734C116.109 22.4914 116.685 22.9098 117.335 22.9098H118.894C120.347 22.9098 120.951 24.7693 119.776 25.6234L118.514 26.5398C117.989 26.9217 117.769 27.5988 117.969 28.2168L118.451 29.6996C118.9 31.0816 117.319 32.2307 116.143 31.3766L114.882 30.4602C114.356 30.0783 113.644 30.0783 113.118 30.4602L111.857 31.3766C110.681 32.2307 109.1 31.0816 109.549 29.6996L110.031 28.2168C110.231 27.5988 110.011 26.9217 109.486 26.5398L108.224 25.6234C107.049 24.7693 107.653 22.9098 109.106 22.9098H110.665C111.315 22.9098 111.891 22.4914 112.092 21.8734L112.573 20.3906Z" fill="white"/>
<path d="M132.573 65.3906C133.022 64.0086 134.978 64.0086 135.427 65.3906L135.908 66.8734C136.109 67.4914 136.685 67.9098 137.335 67.9098H138.894C140.347 67.9098 140.951 69.7693 139.776 70.6234L138.514 71.5398C137.989 71.9217 137.769 72.5988 137.969 73.2168L138.451 74.6996C138.9 76.0816 137.319 77.2307 136.143 76.3766L134.882 75.4602C134.356 75.0783 133.644 75.0783 133.118 75.4602L131.857 76.3766C130.681 77.2307 129.1 76.0816 129.549 74.6996L130.031 73.2168C130.231 72.5988 130.011 71.9217 129.486 71.5398L128.224 70.6234C127.049 69.7693 127.653 67.9098 129.106 67.9098H130.665C131.315 67.9098 131.891 67.4914 132.092 66.8734L132.573 65.3906Z" fill="white"/>
<path d="M132.573 42.3906C133.022 41.0086 134.978 41.0086 135.427 42.3906L135.908 43.8734C136.109 44.4914 136.685 44.9098 137.335 44.9098H138.894C140.347 44.9098 140.951 46.7693 139.776 47.6234L138.514 48.5398C137.989 48.9217 137.769 49.5988 137.969 50.2168L138.451 51.6996C138.9 53.0816 137.319 54.2307 136.143 53.3766L134.882 52.4602C134.356 52.0783 133.644 52.0783 133.118 52.4602L131.857 53.3766C130.681 54.2307 129.1 53.0816 129.549 51.6996L130.031 50.2168C130.231 49.5988 130.011 48.9217 129.486 48.5398L128.224 47.6234C127.049 46.7693 127.653 44.9098 129.106 44.9098H130.665C131.315 44.9098 131.891 44.4914 132.092 43.8734L132.573 42.3906Z" fill="white"/>
<path d="M132.573 20.3906C133.022 19.0086 134.978 19.0086 135.427 20.3906L135.908 21.8734C136.109 22.4914 136.685 22.9098 137.335 22.9098H138.894C140.347 22.9098 140.951 24.7693 139.776 25.6234L138.514 26.5398C137.989 26.9217 137.769 27.5988 137.969 28.2168L138.451 29.6996C138.9 31.0816 137.319 32.2307 136.143 31.3766L134.882 30.4602C134.356 30.0783 133.644 30.0783 133.118 30.4602L131.857 31.3766C130.681 32.2307 129.1 31.0816 129.549 29.6996L130.031 28.2168C130.231 27.5988 130.011 26.9217 129.486 26.5398L128.224 25.6234C127.049 24.7693 127.653 22.9098 129.106 22.9098H130.665C131.315 22.9098 131.891 22.4914 132.092 21.8734L132.573 20.3906Z" fill="white"/>
<path d="M152.573 65.3906C153.022 64.0086 154.978 64.0086 155.427 65.3906L155.908 66.8734C156.109 67.4914 156.685 67.9098 157.335 67.9098H158.894C160.347 67.9098 160.951 69.7693 159.776 70.6234L158.514 71.5398C157.989 71.9217 157.769 72.5988 157.969 73.2168L158.451 74.6996C158.9 76.0816 157.319 77.2307 156.143 76.3766L154.882 75.4602C154.356 75.0783 153.644 75.0783 153.118 75.4602L151.857 76.3766C150.681 77.2307 149.1 76.0816 149.549 74.6996L150.031 73.2168C150.231 72.5988 150.011 71.9217 149.486 71.5398L148.224 70.6234C147.049 69.7693 147.653 67.9098 149.106 67.9098H150.665C151.315 67.9098 151.891 67.4914 152.092 66.8734L152.573 65.3906Z" fill="white"/>
<path d="M152.573 42.3906C153.022 41.0086 154.978 41.0086 155.427 42.3906L155.908 43.8734C156.109 44.4914 156.685 44.9098 157.335 44.9098H158.894C160.347 44.9098 160.951 46.7693 159.776 47.6234L158.514 48.5398C157.989 48.9217 157.769 49.5988 157.969 50.2168L158.451 51.6996C158.9 53.0816 157.319 54.2307 156.143 53.3766L154.882 52.4602C154.356 52.0783 153.644 52.0783 153.118 52.4602L151.857 53.3766C150.681 54.2307 149.1 53.0816 149.549 51.6996L150.031 50.2168C150.231 49.5988 150.011 48.9217 149.486 48.5398L148.224 47.6234C147.049 46.7693 147.653 44.9098 149.106 44.9098H150.665C151.315 44.9098 151.891 44.4914 152.092 43.8734L152.573 42.3906Z" fill="white"/>
<path d="M152.573 20.3906C153.022 19.0086 154.978 19.0086 155.427 20.3906L155.908 21.8734C156.109 22.4914 156.685 22.9098 157.335 22.9098H158.894C160.347 22.9098 160.951 24.7693 159.776 25.6234L158.514 26.5398C157.989 26.9217 157.769 27.5988 157.969 28.2168L158.451 29.6996C158.9 31.0816 157.319 32.2307 156.143 31.3766L154.882 30.4602C154.356 30.0783 153.644 30.0783 153.118 30.4602L151.857 31.3766C150.681 32.2307 149.1 31.0816 149.549 29.6996L150.031 28.2168C150.231 27.5988 150.011 26.9217 149.486 26.5398L148.224 25.6234C147.049 24.7693 147.653 22.9098 149.106 22.9098H150.665C151.315 22.9098 151.891 22.4914 152.092 21.8734L152.573 20.3906Z" fill="white"/>
</g>
<defs>
<clipPath id="clip0_118_1034">
<rect width="300" height="300" fill="white"/>
</clipPath>
</defs>
</svg>
