<svg width="300" height="300" viewBox="0 0 300 300" fill="none" xmlns="http://www.w3.org/2000/svg">
<g clip-path="url(#clip0_118_864)">
<rect width="300" height="300" fill="white"/>
<rect x="500" y="300" width="500" height="300" transform="rotate(-180 500 300)" fill="white"/>
<rect width="300" height="100" fill="#FFB84F"/>
<rect y="100" width="300" height="100" fill="#3661F6"/>
<rect y="200" width="300" height="100" fill="#EF4B4B"/>
<path d="M148.268 116.854C148.866 115.011 151.473 115.011 152.072 116.854L152.935 119.511C153.203 120.335 153.971 120.893 154.837 120.893H157.631C159.569 120.893 160.374 123.372 158.807 124.511L156.547 126.153C155.846 126.662 155.552 127.565 155.82 128.389L156.683 131.046C157.282 132.889 155.173 134.421 153.606 133.282L151.345 131.64C150.644 131.131 149.695 131.131 148.994 131.64L146.734 133.282C145.167 134.421 143.058 132.889 143.656 131.046L144.52 128.389C144.788 127.565 144.494 126.662 143.793 126.153L141.533 124.511C139.966 123.372 140.771 120.893 142.709 120.893H145.502C146.369 120.893 147.137 120.335 147.404 119.511L148.268 116.854Z" fill="white"/>
<path d="M98.4152 166.707C99.0139 164.864 101.621 164.864 102.219 166.707L103.083 169.364C103.35 170.188 104.118 170.746 104.985 170.746H107.779C109.716 170.746 110.522 173.225 108.954 174.364L106.694 176.006C105.993 176.515 105.7 177.418 105.967 178.242L106.831 180.899C107.429 182.741 105.32 184.274 103.753 183.135L101.493 181.493C100.792 180.983 99.8427 180.983 99.1418 181.493L96.8816 183.135C95.3142 184.274 93.2052 182.741 93.8039 180.899L94.6672 178.242C94.935 177.418 94.6417 176.515 93.9407 176.006L91.6805 174.364C90.1131 173.225 90.9187 170.746 92.8561 170.746H95.6498C96.5162 170.746 97.2842 170.188 97.5519 169.364L98.4152 166.707Z" fill="white"/>
<path d="M198.12 166.707C198.719 164.864 201.326 164.864 201.924 166.707L202.788 169.364C203.055 170.188 203.823 170.746 204.69 170.746H207.483C209.421 170.746 210.226 173.225 208.659 174.364L206.399 176.006C205.698 176.515 205.405 177.418 205.672 178.242L206.536 180.899C207.134 182.741 205.025 184.274 203.458 183.135L201.198 181.493C200.497 180.983 199.548 180.983 198.847 181.493L196.586 183.135C195.019 184.274 192.91 182.741 193.509 180.899L194.372 178.242C194.64 177.418 194.346 176.515 193.646 176.006L191.385 174.364C189.818 173.225 190.623 170.746 192.561 170.746H195.355C196.221 170.746 196.989 170.188 197.257 169.364L198.12 166.707Z" fill="white"/>
<path d="M199.721 144.364C201.616 143.962 202.92 146.219 201.623 147.659L199.754 149.735C199.174 150.379 199.075 151.323 199.508 152.073L200.905 154.493C201.874 156.171 200.13 158.108 198.36 157.32L195.807 156.184C195.016 155.831 194.087 156.029 193.508 156.672L191.638 158.749C190.342 160.188 187.961 159.128 188.163 157.201L188.455 154.423C188.546 153.561 188.071 152.739 187.279 152.387L184.727 151.25C182.957 150.462 183.23 147.87 185.125 147.467L187.858 146.886C188.705 146.706 189.34 146.001 189.431 145.139L189.723 142.361C189.925 140.434 192.475 139.892 193.444 141.57L194.841 143.989C195.274 144.739 196.141 145.125 196.989 144.945L199.721 144.364Z" fill="white"/>
<path d="M177.68 123.716C179.12 122.419 181.378 123.723 180.975 125.618L180.394 128.351C180.214 129.198 180.6 130.065 181.35 130.499L183.77 131.895C185.448 132.864 184.906 135.414 182.979 135.616L180.2 135.908C179.339 135.999 178.633 136.634 178.453 137.482L177.872 140.214C177.469 142.109 174.877 142.382 174.089 140.612L172.953 138.06C172.6 137.268 171.778 136.794 170.916 136.884L168.138 137.176C166.211 137.379 165.151 134.997 166.591 133.701L168.667 131.832C169.311 131.252 169.508 130.323 169.156 129.532L168.019 126.98C167.231 125.21 169.169 123.465 170.847 124.434L173.266 125.831C174.016 126.264 174.96 126.165 175.604 125.585L177.68 123.716Z" fill="white"/>
<path d="M109.58 141.963C111.02 140.667 113.278 141.97 112.875 143.865L112.294 146.598C112.114 147.445 112.5 148.312 113.25 148.746L115.67 150.142C117.348 151.111 116.806 153.661 114.879 153.864L112.101 154.156C111.239 154.246 110.533 154.881 110.353 155.729L109.772 158.461C109.37 160.357 106.777 160.629 105.989 158.859L104.853 156.307C104.5 155.515 103.678 155.041 102.817 155.131L100.038 155.423C98.1114 155.626 97.0511 153.244 98.4909 151.948L100.567 150.079C101.211 149.499 101.408 148.57 101.056 147.779L99.9196 145.227C99.1315 143.457 101.069 141.712 102.747 142.681L105.166 144.078C105.916 144.511 106.86 144.412 107.504 143.832L109.58 141.963Z" fill="white"/>
<path d="M131.622 126.117C133.517 125.715 134.82 127.972 133.524 129.412L131.654 131.488C131.075 132.132 130.975 133.076 131.409 133.826L132.806 136.246C133.774 137.924 132.03 139.861 130.26 139.073L127.708 137.937C126.916 137.584 125.988 137.781 125.408 138.425L123.539 140.501C122.242 141.941 119.861 140.881 120.063 138.954L120.355 136.176C120.446 135.314 119.971 134.492 119.18 134.14L116.628 133.003C114.858 132.215 115.13 129.623 117.025 129.22L119.758 128.639C120.606 128.459 121.241 127.754 121.331 126.892L121.623 124.113C121.826 122.187 124.376 121.645 125.344 123.323L126.741 125.742C127.174 126.492 128.042 126.878 128.889 126.698L131.622 126.117Z" fill="white"/>
</g>
<defs>
<clipPath id="clip0_118_864">
<rect width="300" height="300" fill="white"/>
</clipPath>
</defs>
</svg>
