<svg width="300" height="300" viewBox="0 0 300 300" fill="none" xmlns="http://www.w3.org/2000/svg">
<rect width="300" height="300" fill="#EF4B4B"/>
<path d="M141.44 110.343C144.135 102.052 155.865 102.052 158.56 110.343L162.797 123.386C164.002 127.094 167.458 129.605 171.357 129.605H185.071C193.789 129.605 197.414 140.761 190.361 145.886L179.266 153.947C176.112 156.239 174.792 160.301 175.997 164.009L180.234 177.052C182.928 185.343 173.438 192.239 166.385 187.114L155.29 179.053C152.136 176.761 147.864 176.761 144.71 179.053L133.615 187.114C126.562 192.239 117.072 185.343 119.766 177.052L124.003 164.009C125.208 160.301 123.888 156.239 120.734 153.947L109.639 145.886C102.586 140.761 106.211 129.605 114.929 129.605H128.643C132.542 129.605 135.998 127.094 137.203 123.386L141.44 110.343Z" fill="#FFB84F"/>
</svg>
