<svg width="300" height="300" viewBox="0 0 300 300" fill="none" xmlns="http://www.w3.org/2000/svg">
<rect width="300" height="300" fill="#EF4B4B"/>
<path d="M148.098 89.8541C148.697 88.0115 151.303 88.0115 151.902 89.8541L164.369 128.223C164.637 129.047 165.405 129.605 166.271 129.605H206.614C208.552 129.605 209.357 132.084 207.79 133.223L175.151 156.936C174.451 157.445 174.157 158.348 174.425 159.172L186.892 197.541C187.49 199.384 185.381 200.916 183.814 199.777L151.176 176.064C150.475 175.555 149.525 175.555 148.824 176.064L116.186 199.777C114.619 200.916 112.51 199.384 113.108 197.541L125.575 159.172C125.843 158.348 125.549 157.445 124.849 156.936L92.2101 133.223C90.6426 132.084 91.4482 129.605 93.3856 129.605H133.729C134.595 129.605 135.363 129.047 135.631 128.223L148.098 89.8541Z" fill="#FFB84F"/>
</svg>
