<svg width="300" height="300" viewBox="0 0 300 300" fill="none" xmlns="http://www.w3.org/2000/svg">
<rect width="300" height="300" fill="#EF4B4B"/>
<path d="M140.489 113.271C143.483 104.057 156.517 104.057 159.511 113.271L162.573 122.695C163.912 126.815 167.751 129.605 172.083 129.605H181.993C191.68 129.605 195.708 142.001 187.871 147.695L179.854 153.52C176.349 156.066 174.882 160.58 176.221 164.7L179.283 174.125C182.277 183.338 171.732 190.999 163.895 185.305L155.878 179.48C152.373 176.934 147.627 176.934 144.122 179.48L136.105 185.305C128.268 190.999 117.723 183.338 120.717 174.125L123.779 164.7C125.118 160.58 123.651 156.066 120.146 153.52L112.129 147.695C104.292 142.001 108.32 129.605 118.007 129.605H127.917C132.249 129.605 136.088 126.815 137.427 122.695L140.489 113.271Z" fill="#FFB84F"/>
</svg>
