<svg width="300" height="300" viewBox="0 0 300 300" fill="none" xmlns="http://www.w3.org/2000/svg">
<g clip-path="url(#clip0_118_1095)">
<rect width="300" height="300" fill="white"/>
<rect x="300" y="300" width="300" height="300" transform="rotate(-180 300 300)" fill="#EF4B4B"/>
<rect x="150" y="150" width="150" height="150" transform="rotate(-180 150 150)" fill="#003EBA"/>
<path d="M72.1468 116.781C73.0449 114.017 76.9551 114.017 77.8532 116.781L78.5922 119.056C78.9938 120.292 80.1457 121.129 81.4454 121.129H83.837C86.7432 121.129 87.9515 124.848 85.6004 126.556L83.6655 127.961C82.614 128.725 82.1741 130.08 82.5757 131.316L83.3148 133.59C84.2128 136.354 81.0494 138.652 78.6982 136.944L76.7634 135.539C75.7119 134.775 74.2881 134.775 73.2366 135.539L71.3018 136.944C68.9506 138.652 65.7872 136.354 66.6852 133.59L67.4243 131.316C67.8259 130.08 67.386 128.725 66.3345 127.961L64.3996 126.556C62.0485 124.848 63.2568 121.129 66.163 121.129H68.5546C69.8543 121.129 71.0062 120.292 71.4078 119.056L72.1468 116.781Z" fill="white"/>
<path d="M72.1468 22.7811C73.0449 20.0172 76.9551 20.0172 77.8532 22.7812L78.5922 25.0557C78.9938 26.2918 80.1457 27.1287 81.4454 27.1287H83.837C86.7432 27.1287 87.9515 30.8475 85.6004 32.5557L83.6655 33.9615C82.614 34.7254 82.1741 36.0795 82.5757 37.3156L83.3148 39.5902C84.2128 42.3541 81.0494 44.6525 78.6982 42.9443L76.7634 41.5385C75.7119 40.7746 74.2881 40.7746 73.2366 41.5385L71.3018 42.9443C68.9506 44.6525 65.7872 42.3541 66.6852 39.5902L67.4243 37.3156C67.8259 36.0795 67.386 34.7254 66.3345 33.9615L64.3996 32.5557C62.0485 30.8475 63.2568 27.1287 66.163 27.1287H68.5546C69.8543 27.1287 71.0062 26.2918 71.4078 25.0557L72.1468 22.7811Z" fill="white"/>
<path d="M114.147 50.7811C115.045 48.0172 118.955 48.0172 119.853 50.7812L120.592 53.0557C120.994 54.2918 122.146 55.1287 123.445 55.1287H125.837C128.743 55.1287 129.952 58.8475 127.6 60.5557L125.666 61.9615C124.614 62.7254 124.174 64.0795 124.576 65.3156L125.315 67.5902C126.213 70.3541 123.049 72.6525 120.698 70.9443L118.763 69.5385C117.712 68.7746 116.288 68.7746 115.237 69.5385L113.302 70.9443C110.951 72.6525 107.787 70.3541 108.685 67.5902L109.424 65.3156C109.826 64.0795 109.386 62.7254 108.334 61.9615L106.4 60.5557C104.048 58.8475 105.257 55.1287 108.163 55.1287H110.555C111.854 55.1287 113.006 54.2918 113.408 53.0557L114.147 50.7811Z" fill="white"/>
<path d="M34.1468 60.7811C35.0449 58.0172 38.9551 58.0172 39.8532 60.7812L40.5922 63.0557C40.9938 64.2918 42.1457 65.1287 43.4454 65.1287H45.837C48.7432 65.1287 49.9515 68.8475 47.6004 70.5557L45.6655 71.9615C44.614 72.7254 44.1741 74.0795 44.5757 75.3156L45.3148 77.5902C46.2128 80.3541 43.0494 82.6525 40.6982 80.9443L38.7634 79.5385C37.7119 78.7746 36.2881 78.7746 35.2366 79.5385L33.3018 80.9443C30.9506 82.6525 27.7872 80.3541 28.6852 77.5902L29.4243 75.3156C29.8259 74.0795 29.386 72.7254 28.3345 71.9615L26.3996 70.5557C24.0485 68.8475 25.2568 65.1287 28.163 65.1287H30.5546C31.8543 65.1287 33.0062 64.2918 33.4078 63.0557L34.1468 60.7811Z" fill="white"/>
<path d="M91.4571 87.8262C92.2575 85.3629 95.7425 85.3629 96.5429 87.8262V87.8262C96.9008 88.9279 97.9275 89.6738 99.0858 89.6738V89.6738C101.676 89.6738 102.753 92.9882 100.657 94.5106V94.5106C99.7203 95.1915 99.3281 96.3983 99.6861 97.5V97.5C100.486 99.9634 97.6671 102.012 95.5716 100.489V100.489C94.6345 99.8085 93.3655 99.8085 92.4284 100.489V100.489C90.3329 102.012 87.5135 99.9634 88.3139 97.5V97.5C88.6719 96.3983 88.2797 95.1915 87.3426 94.5106V94.5106C85.2471 92.9882 86.3241 89.6738 88.9142 89.6738V89.6738C90.0725 89.6738 91.0992 88.9279 91.4571 87.8262V87.8262Z" fill="white"/>
</g>
<defs>
<clipPath id="clip0_118_1095">
<rect width="300" height="300" fill="white"/>
</clipPath>
</defs>
</svg>
