<svg width="300" height="300" viewBox="0 0 300 300" fill="none" xmlns="http://www.w3.org/2000/svg">
<g clip-path="url(#clip0)">
<rect width="300" height="300" fill="white"/>
<rect x="300" y="300" width="300" height="300" transform="rotate(-180 300 300)" fill="#EF4B4B"/>
<rect x="150" y="150" width="150" height="150" transform="rotate(-180 150 150)" fill="#003EBA"/>
<path d="M74.0489 110.927C74.3483 110.006 75.6517 110.006 75.9511 110.927L79.0413 120.438C79.1751 120.85 79.5591 121.129 79.9923 121.129H89.9924C90.9611 121.129 91.3639 122.368 90.5802 122.938L82.4899 128.816C82.1395 129.07 81.9928 129.522 82.1267 129.934L85.2169 139.444C85.5162 140.366 84.4617 141.132 83.678 140.562L75.5878 134.684C75.2373 134.43 74.7627 134.43 74.4122 134.684L66.322 140.562C65.5383 141.132 64.4838 140.366 64.7831 139.444L67.8733 129.934C68.0072 129.522 67.8605 129.07 67.5101 128.816L59.4198 122.938C58.6361 122.368 59.0389 121.129 60.0076 121.129H70.0077C70.4409 121.129 70.8249 120.85 70.9587 120.438L74.0489 110.927Z" fill="white"/>
<path d="M74.0489 16.927C74.3483 16.0057 75.6517 16.0057 75.9511 16.9271L79.0413 26.4377C79.1751 26.8497 79.5591 27.1287 79.9923 27.1287H89.9924C90.9611 27.1287 91.3639 28.3683 90.5802 28.9377L82.4899 34.8156C82.1395 35.0702 81.9928 35.5216 82.1267 35.9336L85.2169 45.4443C85.5162 46.3656 84.4617 47.1317 83.678 46.5623L75.5878 40.6844C75.2373 40.4298 74.7627 40.4298 74.4122 40.6844L66.322 46.5623C65.5383 47.1317 64.4838 46.3656 64.7831 45.4443L67.8733 35.9336C68.0072 35.5216 67.8605 35.0702 67.5101 34.8156L59.4198 28.9377C58.6361 28.3683 59.0389 27.1287 60.0076 27.1287H70.0077C70.4409 27.1287 70.8249 26.8497 70.9587 26.4377L74.0489 16.927Z" fill="white"/>
<path d="M116.049 44.927C116.348 44.0057 117.652 44.0057 117.951 44.9271L121.041 54.4377C121.175 54.8497 121.559 55.1287 121.992 55.1287H131.992C132.961 55.1287 133.364 56.3683 132.58 56.9377L124.49 62.8156C124.139 63.0702 123.993 63.5216 124.127 63.9336L127.217 73.4443C127.516 74.3656 126.462 75.1317 125.678 74.5623L117.588 68.6844C117.237 68.4298 116.763 68.4298 116.412 68.6844L108.322 74.5623C107.538 75.1317 106.484 74.3656 106.783 73.4443L109.873 63.9336C110.007 63.5216 109.861 63.0702 109.51 62.8156L101.42 56.9377C100.636 56.3683 101.039 55.1287 102.008 55.1287H112.008C112.441 55.1287 112.825 54.8497 112.959 54.4377L116.049 44.927Z" fill="white"/>
<path d="M36.0489 54.927C36.3483 54.0057 37.6517 54.0057 37.9511 54.9271L41.0413 64.4377C41.1751 64.8497 41.5591 65.1287 41.9923 65.1287H51.9924C52.9611 65.1287 53.3639 66.3683 52.5802 66.9377L44.4899 72.8156C44.1395 73.0702 43.9928 73.5216 44.1267 73.9336L47.2169 83.4443C47.5162 84.3656 46.4617 85.1317 45.678 84.5623L37.5878 78.6844C37.2373 78.4298 36.7627 78.4298 36.4122 78.6844L28.322 84.5623C27.5383 85.1317 26.4838 84.3656 26.7831 83.4443L29.8733 73.9336C30.0072 73.5216 29.8605 73.0702 29.5101 72.8156L21.4198 66.9377C20.6361 66.3683 21.0389 65.1287 22.0076 65.1287H32.0077C32.4409 65.1287 32.8249 64.8497 32.9587 64.4377L36.0489 54.927Z" fill="white"/>
<path d="M93.0489 82.927C93.3483 82.0057 94.6517 82.0057 94.9511 82.9271L96.9187 88.9828C97.0526 89.3948 97.4365 89.6738 97.8697 89.6738H104.237C105.206 89.6738 105.609 90.9134 104.825 91.4828L99.6736 95.2254C99.3231 95.4801 99.1764 95.9314 99.3103 96.3435L101.278 102.399C101.577 103.32 100.523 104.087 99.7391 103.517L94.5878 99.7746C94.2373 99.5199 93.7627 99.5199 93.4122 99.7746L88.2609 103.517C87.4772 104.087 86.4227 103.32 86.7221 102.399L88.6897 96.3435C88.8236 95.9314 88.6769 95.4801 88.3264 95.2254L83.1751 91.4828C82.3914 90.9134 82.7942 89.6738 83.7629 89.6738H90.1303C90.5635 89.6738 90.9474 89.3948 91.0813 88.9828L93.0489 82.927Z" fill="white"/>
</g>
<defs>
<clipPath id="clip0">
<rect width="300" height="300" fill="white"/>
</clipPath>
</defs>
</svg>
