<svg width="300" height="300" viewBox="0 0 300 300" fill="none" xmlns="http://www.w3.org/2000/svg">
<rect width="300" height="300" fill="#3661F6"/>
<path d="M150.272 102.819C151.834 104.808 154.108 106.509 152.906 108.734C152.033 110.349 149.751 109.655 148.695 110.838C155.271 109.916 158.538 111.745 163.947 114.645C165.004 115.211 165.271 116.621 166.58 116.223C166.58 116.223 166.785 114.777 167.369 114.124C168.949 112.359 171.201 115.258 172.635 117.143C173.906 118.811 173.59 120.272 174.214 122.273C174.822 124.223 173.767 126.959 175.791 127.262C177.202 127.472 177.525 125.298 178.946 125.425C180.921 125.602 180.761 127.956 181.579 129.76C182.781 132.412 181.637 134.675 183.41 136.986C185.256 139.392 187.548 139.293 190.255 140.666C190.973 141.031 191.332 141.344 192.099 141.588C193.862 142.149 195.291 140.304 196.831 141.328C199.307 142.974 194.675 145.593 194.465 148.555C194.32 150.609 193.688 152.202 194.986 153.804C196.445 155.602 198.568 154.416 200.774 155.127C202.136 155.566 202.783 156.212 204.197 156.436C206.355 156.777 208.119 154.033 209.717 155.521C210.902 156.625 209.525 158.301 210.506 159.588C211.479 160.865 212.606 161.119 214.182 161.433C216.91 161.976 218.359 158.673 221.027 159.462C223.392 160.162 224.54 161.652 225.49 163.924C227.058 167.672 224.7 170.435 222.604 173.916C221.159 176.315 218.783 176.615 218.263 179.248C218.159 179.774 218.232 180.089 218.125 180.615C217.767 182.373 215.759 184.556 215.759 184.556C215.759 184.556 214.094 186.173 213.393 187.454C212.072 189.869 214.389 192.569 212.351 194.421C211.134 195.527 209.98 195.432 208.393 195.87C207.067 196.237 205.833 195.529 204.94 196.574C203.986 197.691 204.509 198.943 204.985 200.332C205.739 202.53 209.45 204.273 209.45 204.273C209.45 204.273 211.002 205.254 210.592 206.647C210.312 207.599 204.68 210.27 202.872 207.819C202.41 207.192 202.579 206.59 202.084 205.989C201.125 204.827 199.692 204.016 198.408 204.806C197.345 205.46 197.352 207.818 197.352 207.818C197.352 207.818 197.258 208.907 196.831 209.395C195.853 210.51 194.605 208.235 193.141 208.48C190.956 208.845 190.3 210.63 189.198 212.547C187.614 215.3 187.74 217.399 187.887 220.57C187.93 221.497 188.279 222.016 188.141 222.934C187.606 226.484 181.395 226.097 178.944 223.468C177.648 222.078 178.155 220.302 177.367 218.866C176.578 217.544 175.734 216.106 174.212 214.785C172.853 213.605 171.966 212.983 170.255 212.42C164.627 210.569 162.073 216.723 156.848 219.514C153.968 221.052 149.482 223.468 149.482 223.468C149.482 223.468 148.417 223.974 143.433 226.874C141.722 227.536 141.462 230.815 141.462 230.815C141.462 230.815 141.462 235.684 143.694 237.261C144.616 239.231 143.22 239.587 142.905 241.075C142.753 241.795 142.511 242.918 142.511 242.918C142.511 242.918 142.137 243.945 141.722 244.494C141.286 245.072 140.905 245.277 140.342 245.732C138.828 246.955 137.936 247.598 136.067 248.294C134.801 248.766 134.017 248.837 132.671 248.956C131.538 249.055 131.202 248.956 129.758 248.956C127.652 248.956 127.363 247.704 126.469 246.324C125.286 244.496 125.019 242.918 125.681 240.807C127.391 239.498 130.279 238.569 129.49 235.811C127.652 233.587 127.837 230.769 126.469 227.663C125.572 225.625 124.645 224.66 123.97 222.54C123.199 220.122 123.97 218.205 123.047 216.108C122.653 214.392 121.604 212.816 121.604 210.845C118.71 209.142 118.576 204.667 114.499 204.273C111.605 204.273 110.3 202.695 108.19 200.853C107.589 200.328 107.392 199.875 106.739 199.417C104.387 197.766 101.803 201.217 99.3804 199.67C96.3077 197.708 98.7574 196.977 97.5462 190.53C96.335 184.083 97.3303 189.445 97.1412 188.763C96.6379 186.948 95.3035 184.302 95.3035 184.302C95.3035 184.302 94.6392 182.906 94.1205 182.064C91.655 178.064 83.638 178.831 84.91 174.31C85.2277 173.18 86.0687 172.814 86.3608 171.678C86.8535 169.762 85.9901 168.596 85.4381 166.696C85.1666 165.761 85.0911 165.195 84.6266 164.339C84.2589 163.661 83.9789 163.318 83.4664 162.741C81.6514 160.701 78.1726 162.043 77.2838 159.462C77.015 158.682 76.961 158.188 77.0236 157.365C77.1856 155.235 78.5835 154.316 80.1782 152.89C81.635 151.588 82.5815 150.678 84.5163 150.392C86.112 150.156 87.0512 150.581 88.5932 151.054C90.4593 151.625 91.141 152.951 93.0643 153.284C94.6366 153.556 95.7298 153.759 97.1417 153.017C99.1353 151.969 98.2165 149.517 99.775 147.893C100.74 146.888 101.416 146.421 102.662 145.796C104.943 144.653 106.606 145.224 109.113 144.741C110.348 144.503 111.009 144.103 112.267 144.087C113.738 144.067 114.482 144.966 115.95 144.875C118.553 144.713 120.682 144.481 121.605 141.328C122.654 139.224 118.711 138.436 118.971 136.592C118.316 134.488 119.894 133.44 120.682 131.997C121.604 131.603 122.654 131.076 123.837 131.336C126.865 130.287 124.498 124.109 129.364 126.347C129.364 127.002 129.097 127.789 129.491 127.923C131.202 127.923 131.465 125.951 132.653 125.292C133.174 123.455 131.991 121.218 133.569 119.775C134.357 119.641 135.019 119.381 135.54 118.719C135.54 117.277 134.751 116.489 133.569 115.567C133.174 116.223 132.273 116.176 131.465 115.961C129.861 115.535 130.9 113.423 130.28 111.887C129.962 111.1 129.437 110.761 129.364 109.916C129.218 108.208 130.771 107.554 132.125 106.498C133.464 105.453 134.539 105.399 136.068 104.659C139.46 103.02 140.871 100.603 144.617 100.192C145.74 100.068 146.44 99.8304 147.511 100.192C148.922 100.668 149.353 101.649 150.272 102.819Z" fill="#FFB84F" stroke="#FFB84F" stroke-width="3"/>
<path d="M164.135 55.8115C164.795 54.1085 167.205 54.1085 167.865 55.8115L169.072 58.9272C169.356 59.6594 170.042 60.1577 170.826 60.2014L174.162 60.387C175.986 60.4885 176.731 62.7802 175.315 63.9342L172.725 66.0454C172.116 66.5416 171.854 67.3479 172.055 68.1071L172.91 71.3375C173.377 73.1032 171.427 74.5195 169.892 73.5298L167.084 71.7189C166.424 71.2934 165.576 71.2934 164.916 71.7189L162.108 73.5298C160.573 74.5195 158.623 73.1032 159.09 71.3375L159.945 68.1071C160.146 67.3479 159.884 66.5416 159.275 66.0454L156.685 63.9342C155.269 62.7802 156.014 60.4885 157.838 60.387L161.174 60.2014C161.958 60.1577 162.644 59.6594 162.928 58.9272L164.135 55.8115Z" fill="white"/>
<path d="M192.135 63.8115C192.795 62.1085 195.205 62.1085 195.865 63.8115L197.072 66.9272C197.356 67.6594 198.042 68.1577 198.826 68.2014L202.162 68.387C203.986 68.4885 204.731 70.7802 203.315 71.9342L200.725 74.0454C200.116 74.5416 199.854 75.3479 200.055 76.1071L200.91 79.3375C201.377 81.1032 199.427 82.5195 197.892 81.5298L195.084 79.7189C194.424 79.2934 193.576 79.2934 192.916 79.7189L190.108 81.5298C188.573 82.5195 186.623 81.1032 187.09 79.3375L187.945 76.1071C188.146 75.3479 187.884 74.5416 187.275 74.0454L184.685 71.9342C183.269 70.7802 184.014 68.4885 185.838 68.387L189.174 68.2014C189.958 68.1577 190.644 67.6594 190.928 66.9272L192.135 63.8115Z" fill="white"/>
<path d="M220.135 72.8115C220.795 71.1085 223.205 71.1085 223.865 72.8115L225.072 75.9272C225.356 76.6594 226.042 77.1577 226.826 77.2014L230.162 77.387C231.986 77.4885 232.731 79.7802 231.315 80.9342L228.725 83.0454C228.116 83.5416 227.854 84.3479 228.055 85.1071L228.91 88.3375C229.377 90.1032 227.427 91.5195 225.892 90.5298L223.084 88.7189C222.424 88.2934 221.576 88.2934 220.916 88.7189L218.108 90.5298C216.573 91.5195 214.623 90.1032 215.09 88.3375L215.945 85.1071C216.146 84.3479 215.884 83.5416 215.275 83.0454L212.685 80.9342C211.269 79.7802 212.014 77.4885 213.838 77.387L217.174 77.2014C217.958 77.1577 218.644 76.6594 218.928 75.9272L220.135 72.8115Z" fill="white"/>
<path d="M135.865 55.8115C135.205 54.1085 132.795 54.1085 132.135 55.8115L130.928 58.9272C130.644 59.6594 129.958 60.1577 129.174 60.2014L125.838 60.387C124.014 60.4885 123.269 62.7802 124.685 63.9342L127.275 66.0454C127.884 66.5416 128.146 67.3479 127.945 68.1071L127.09 71.3375C126.623 73.1032 128.573 74.5195 130.108 73.5298L132.916 71.7189C133.576 71.2934 134.424 71.2934 135.084 71.7189L137.892 73.5298C139.427 74.5195 141.377 73.1032 140.91 71.3375L140.055 68.1071C139.854 67.3479 140.116 66.5416 140.725 66.0454L143.315 63.9342C144.731 62.7802 143.986 60.4885 142.162 60.387L138.826 60.2014C138.042 60.1577 137.356 59.6594 137.072 58.9272L135.865 55.8115Z" fill="white"/>
<path d="M107.865 63.8115C107.205 62.1085 104.795 62.1085 104.135 63.8115L102.928 66.9272C102.644 67.6594 101.958 68.1577 101.174 68.2014L97.8375 68.387C96.0139 68.4885 95.2693 70.7802 96.685 71.9342L99.275 74.0454C99.8837 74.5416 100.146 75.3479 99.9449 76.1071L99.0905 79.3375C98.6235 81.1032 100.573 82.5195 102.108 81.5298L104.916 79.7189C105.576 79.2934 106.424 79.2934 107.084 79.7189L109.892 81.5298C111.427 82.5195 113.377 81.1032 112.91 79.3375L112.055 76.1071C111.854 75.3479 112.116 74.5416 112.725 74.0454L115.315 71.9342C116.731 70.7802 115.986 68.4885 114.162 68.387L110.826 68.2014C110.042 68.1577 109.356 67.6594 109.072 66.9272L107.865 63.8115Z" fill="white"/>
<path d="M79.8648 72.8115C79.2048 71.1085 76.7952 71.1085 76.1352 72.8115L74.9276 75.9272C74.6438 76.6594 73.9579 77.1577 73.1739 77.2014L69.8375 77.387C68.0139 77.4885 67.2693 79.7802 68.685 80.9342L71.275 83.0454C71.8837 83.5416 72.1457 84.3479 71.9449 85.1071L71.0905 88.3375C70.6235 90.1032 72.5729 91.5195 74.1078 90.5298L76.9161 88.7189C77.5761 88.2934 78.4239 88.2934 79.0839 88.7189L81.8922 90.5298C83.4271 91.5195 85.3765 90.1032 84.9095 88.3375L84.0551 85.1071C83.8543 84.3479 84.1163 83.5416 84.725 83.0454L87.315 80.9342C88.7307 79.7802 87.9861 77.4885 86.1625 77.387L82.8261 77.2014C82.0421 77.1577 81.3562 76.6594 81.0724 75.9272L79.8648 72.8115Z" fill="white"/>
</svg>
