<svg width="300" height="300" viewBox="0 0 300 300" fill="none" xmlns="http://www.w3.org/2000/svg">
<g clip-path="url(#clip0_1315_4)">
<rect width="300" height="300" fill="#3B9644"/>
<path d="M-136.525 342.283L-315.726 163.081C-322.951 155.857 -322.951 144.143 -315.726 136.918L-136.525 -42.2831C-130.04 -48.7678 -119.783 -49.523 -112.419 -44.058L129.072 135.144C139.04 142.54 139.039 157.46 129.072 164.857L-112.419 344.058C-119.783 349.523 -130.04 348.767 -136.525 342.283Z" fill="black" stroke="#FFB84F" stroke-width="13"/>
<path d="M443.237 103.108L496.132 32.1604C506.797 17.8553 497.364 -2.57854 479.559 -3.7405L56.8665 -31.325C48.6819 -31.8591 41.7497 -25.3646 41.7497 -17.1625C41.7497 -12.6698 43.8769 -8.4424 47.4848 -5.76515L200.426 107.727C204.304 110.605 209.005 112.158 213.834 112.158L425.198 112.159C432.303 112.159 438.99 108.804 443.237 103.108Z" fill="#EF4B4B" stroke="white" stroke-width="13"/>
<path d="M443.237 197.097L496.132 268.044C506.797 282.349 497.364 302.783 479.559 303.945L56.8665 331.53C48.6819 332.064 41.7497 325.569 41.7497 317.367C41.7497 312.874 43.8769 308.647 47.4848 305.97L200.426 192.478C204.304 189.6 209.005 188.046 213.834 188.046L425.198 188.046C432.303 188.046 438.99 191.401 443.237 197.097Z" fill="#003EBA" stroke="white" stroke-width="13"/>
</g>
<defs>
<clipPath id="clip0_1315_4">
<rect width="300" height="300" fill="white"/>
</clipPath>
</defs>
</svg>
