<svg width="300" height="300" viewBox="0 0 300 300" fill="none" xmlns="http://www.w3.org/2000/svg">
<mask id="path-1-outside-1" maskUnits="userSpaceOnUse" x="58" y="53" width="185" height="195" fill="black">
<rect fill="white" x="58" y="53" width="185" height="195"/>
<path fill-rule="evenodd" clip-rule="evenodd" d="M162.089 227.916C159.4 225.594 156.141 220.893 156.187 216.361C156.428 212.981 158.755 211.018 160.258 215.143C162.384 219.696 166.942 227.226 173.224 222.809C175.968 220.802 175.926 217.849 172.163 218.187C167.516 217.87 164.661 215.324 162.582 208.767C162.203 205.16 163.709 205.251 165.811 207.57C168.512 210.658 173.888 215.324 179.82 212.823C183.116 211.447 184.046 208.608 179.067 207.909C174.352 207.978 170.504 204.934 166.673 200.29C164.573 197.721 167.671 195.128 169.531 197.315C171.19 198.734 173.513 201.349 175.505 201.71C177.807 202.16 180.661 201.936 183.824 200.268C187.233 197.426 186.126 195.376 181.988 194.904C178.78 195.063 177.032 196.277 172.895 193.528C165.457 188.521 159.544 181.831 158.621 173.783C158.014 168.49 160.871 166.887 163.246 167.497C169.708 169.152 173.934 181.178 178.405 187.785C179.868 189.689 181.213 189.72 182.164 189.133C183.957 187.602 185.389 186.343 187.183 184.631C187.183 184.631 200.334 186.985 207.496 189.31L199.522 192.133C196.502 190.472 192.858 192.262 192.858 195.144C190.001 197.112 190.231 199.419 191.464 201.646C191.84 200.095 192.161 198.081 194.418 197.814C197.639 199.141 201.392 197.247 201.392 194.741L210.799 191.058L220.303 196.417C220.303 200.04 223.749 201.188 227.335 200.21C229.024 201.255 230.111 203.068 230.683 205.007C231.741 202.21 231.52 200.236 229.863 198.864C230.814 195.249 225.728 191.773 221.79 194.088L214.953 190.178L226.656 189.851C228.014 192.246 232.923 192.378 234.355 189.851C235.579 189.517 236.614 189.305 239 191.072C238.248 188.213 236.785 186.99 234.589 186.99C232.921 184.046 226.884 184.06 226.012 187.374L213.824 187.712L221.056 182.583C223.755 184.171 227.543 182.406 228.302 179.522C229.378 178.248 230.705 177.649 233.317 178.514C231.971 176.139 230.074 175.43 226.647 177.042C223.522 174.683 219.402 177.544 220.027 179.92L210.405 186.44C203.422 184.364 190.773 181.132 190.773 181.132C192.279 179.554 193.807 178.088 195.31 176.488C195.853 175.551 195.023 174.46 193.871 174.233C182.585 171.913 176.124 167.382 172.208 155.864C170.571 151.041 174.111 149.6 175.328 152.55C177.011 156.653 178.868 161.138 183.936 164.611C185.683 165.828 190.886 164.834 187.809 161.927C184.622 159.312 183.25 158.188 181.68 151.83C181.68 148.608 184.976 147.164 186.815 150.252C188.782 156.585 188.983 159.312 192.544 163.393C195.243 166.481 198.762 168.556 200.509 168.509C203.653 168.465 206.818 165.082 202.613 162.626C196.438 160.169 194.182 156.812 193.273 153.609C192.279 148.022 193.365 145.316 196.749 148.065C201.549 153.497 210.712 163.617 215.512 168.329C220.891 172.432 227.063 172.565 231.975 168.397C234.787 165.173 233.789 161.704 229.387 162.446C219.452 163.281 211.929 158.368 203.675 145.089C202.058 142.092 201.616 137.787 205.181 140.99C209.294 146.534 215.292 151.245 220.87 153.274C226.468 155.277 231.091 154.171 232.883 152.417C235.044 150.265 234.476 144.844 230.737 146.151C227.66 147.233 223.324 147.503 218.811 145.767C214.295 144.008 209.605 140.222 204.626 133.799C202.921 130.171 203.476 127.105 206.928 128.975C215.093 135.874 225.627 141.462 231.002 138.104C234.964 135.647 235.031 129.336 230.008 129.742C219.894 131.115 216.067 128.885 206.352 120.344C204.141 118.697 204.294 114.526 207.812 117.188C215.978 122.44 227.13 124.49 231.512 121.741C235.452 119.284 234.875 111.777 228.237 114.436C222.925 117.66 217.061 117.57 205.312 109.208C202.348 106.752 204.559 103.549 206.992 104.925C216.442 110.289 230.207 112.588 233.79 101.679C235.183 97.5107 232.662 95.0758 228.966 97.9609C220.845 105.444 211.639 101.769 206.486 98.0044C205.01 97.138 202.302 92.7524 207.059 93.5662C219.363 96.3616 231.533 93.9267 233.747 85.2484C235.031 82.4312 232.505 77.4491 228.014 81.6205C222.108 87.4351 215.844 87.6367 207.968 87.5931C203.961 86.758 203.919 82.3628 207.282 81.7106C213.499 81.8438 219.629 79.1386 224.541 76.3898C229.344 73.641 233.326 69.7862 234.589 64.444C235.362 59.6666 230.737 54.5948 227.95 59.6666C223.833 67.0809 214.716 74.0694 204.58 75.3308C204.052 74.4513 202.723 72.1967 201.085 72.8302C198.109 73.9797 194.563 75.5176 190.912 77.2449C183.042 80.9673 179.762 82.7613 180.707 89.1928C181.693 95.904 176.499 100.145 172.208 98.9737C168.466 97.9705 166.402 94.6038 167.073 88.7644C167.61 84.1115 172.3 78.4833 177.585 75.532C181.006 73.6248 186.171 72.5816 192.389 71.2056C196.173 70.4633 198.1 68.9972 198.32 67.4628C198.32 67.4628 195.733 69.3481 191.593 69.0651C189.636 68.9258 188.324 68.068 187.83 67.1928C189.27 66.9011 191.88 67.2394 194.225 67.2394C197.344 67.2146 204.586 66.5188 206.507 62.145C207.105 59.2599 205.202 58.7413 203.431 60.5892C201.528 62.5865 200.744 64.3818 196.926 65.0523C194.603 65.4594 192.279 65.9318 189.291 65.2112C190.974 63.22 193.648 61.1827 195.929 61.5581C196.679 61.6826 197.676 62.3723 198.475 63.6115C198.963 60.4556 198.097 56.893 189.623 58.3808C189.757 55.9925 184.71 54.9549 181.68 55.0015C179.954 55.045 176.435 56.0609 173.892 57.2753C169.864 58.5175 165.881 59.4184 161.188 59.7572C163.911 62.0771 164.421 62.2138 167.14 64.1736C163.027 65.705 159.84 68.8609 158.401 70.9357C158.401 70.9357 163.204 70.802 164.421 71.3424C159.395 72.8054 157.138 73.6845 154.483 76.3898C155.413 76.5483 156.806 76.8182 157.404 77.0451C158.026 77.2689 157.864 77.6756 157.361 78.0578C156.279 78.8808 151.806 84.0553 150.5 85.2945C149.195 84.0553 144.722 78.8808 143.64 78.0578C143.137 77.6756 142.975 77.2689 143.597 77.0451C144.195 76.8186 145.588 76.5483 146.518 76.3898C143.862 73.6845 141.606 72.8054 136.58 71.3424C137.797 70.802 142.6 70.9357 142.6 70.9357C141.16 68.8609 137.974 65.705 133.86 64.1736C136.58 62.2138 137.089 62.0771 139.813 59.7567C135.12 59.4184 131.137 58.5175 127.109 57.2748C124.566 56.0609 121.047 55.045 119.321 55.0015C116.29 54.9549 111.243 55.9925 111.378 58.3804C102.904 56.893 102.038 60.4556 102.526 63.6115C103.324 62.3723 104.321 61.6826 105.072 61.5585C107.353 61.1827 110.027 63.22 111.71 65.2112C108.722 65.9318 106.398 65.4594 104.075 65.0527C100.257 64.3822 99.4731 62.5865 97.5697 60.5897C95.7988 58.7413 93.8959 59.2599 94.4935 62.1454C96.4147 66.5188 103.656 67.2146 106.776 67.2394C109.121 67.2394 111.731 66.9007 113.171 67.1928C112.677 68.0689 111.365 68.9258 109.408 69.0651C105.267 69.3481 102.681 67.4628 102.681 67.4628C102.901 68.9972 104.827 70.4628 108.612 71.2056C114.83 72.5816 119.995 73.6253 123.416 75.5324C128.701 78.4833 133.391 84.1115 133.928 88.7644C134.598 94.6034 132.534 97.9705 128.792 98.9737C124.502 100.145 119.307 95.904 120.294 89.1928C121.239 82.7613 117.959 80.9673 110.089 77.2449C106.438 75.5176 102.892 73.9793 99.9155 72.8298C98.2779 72.1967 96.9485 74.4517 96.4209 75.3308C86.2846 74.0694 77.1674 67.0809 73.0507 59.6666C70.2635 54.5948 65.638 59.6666 66.4122 64.444C67.6747 69.7866 71.6571 73.641 76.4597 76.3898C81.3724 79.1386 87.5017 81.8438 93.7193 81.7106C97.0823 82.3628 97.0399 86.758 93.0329 87.5931C85.1563 87.6367 78.8933 87.4351 72.9865 81.6205C68.4952 77.4491 65.9702 82.4312 67.2541 85.2484C69.4679 93.9263 81.6377 96.3616 93.9418 93.5662C98.698 92.752 95.9907 97.1384 94.5144 98.0049C89.3617 101.769 80.1558 105.444 72.0352 97.9613C68.3396 95.0758 65.8172 97.5107 67.2113 101.679C70.7942 112.588 84.5588 110.289 94.0087 104.925C96.4423 103.549 98.653 106.752 95.6891 109.208C83.9398 117.57 78.0762 117.66 72.764 114.436C66.1258 111.777 65.5492 119.284 69.4893 121.741C73.8708 124.49 85.0226 122.44 93.1886 117.188C96.7076 114.526 96.8598 118.697 94.6487 120.344C84.9338 128.885 81.107 131.115 70.9926 129.742C65.9698 129.336 66.0371 135.646 69.9986 138.104C75.3742 141.461 85.9065 135.874 94.0725 128.975C97.5247 127.105 98.0794 130.171 96.375 133.799C91.3958 140.222 86.7052 144.008 82.1894 145.767C77.6767 147.503 73.3406 147.233 70.2639 146.151C66.525 144.844 65.9566 150.265 68.1171 152.417C69.9107 154.171 74.5327 155.277 80.1313 153.274C85.7085 151.245 91.7066 146.533 95.8202 140.99C99.3847 137.787 98.9424 142.092 97.3262 145.089C89.0719 158.368 81.5494 163.281 71.6143 162.446C67.2113 161.704 66.2141 165.173 69.0255 168.397C73.9382 172.565 80.1099 172.432 85.4886 168.329C90.2885 163.617 99.4512 153.497 104.251 148.065C107.636 145.316 108.722 148.022 107.728 153.609C106.819 156.812 104.563 160.169 98.3876 162.626C94.1822 165.083 97.3472 168.465 100.492 168.508C102.239 168.556 105.758 166.481 108.457 163.393C112.018 159.312 112.22 156.585 114.186 150.252C116.025 147.164 119.321 148.608 119.321 151.829C117.751 158.188 116.379 159.312 113.192 161.927C110.115 164.834 115.318 165.828 117.065 164.611C122.133 161.138 123.989 156.653 125.672 152.55C126.889 149.6 130.43 151.041 128.792 155.864C124.877 167.381 118.416 171.913 107.13 174.233C105.977 174.46 105.148 175.551 105.69 176.488C107.194 178.088 108.722 179.554 110.228 181.132C110.228 181.132 97.5789 184.364 90.5949 186.44L80.9732 179.92C81.5984 177.544 77.4791 174.683 74.353 177.041C70.9262 175.43 69.0294 176.139 67.683 178.514C70.2954 177.649 71.6226 178.248 72.6988 179.522C73.4573 182.406 77.2452 184.171 79.9446 182.583L87.1764 187.712L74.9886 187.374C74.1165 184.06 68.0795 184.046 66.4109 186.99C64.2164 186.99 62.7519 188.213 62 191.072C64.3868 189.305 65.4216 189.517 66.6452 189.851C68.0773 192.378 72.9865 192.246 74.3443 189.851L86.0473 190.178L79.2102 194.088C75.2728 191.773 70.1865 195.249 71.1373 198.864C69.4805 200.236 69.2593 202.21 70.3177 205.007C70.8895 203.068 71.9762 201.255 73.6663 200.209C77.2509 201.188 80.6974 200.04 80.6974 196.417L90.2011 191.058L99.6086 194.741C99.6086 197.247 103.362 199.141 106.583 197.814C108.84 198.081 109.161 200.095 109.537 201.645C110.769 199.419 110.999 197.112 108.142 195.144C108.142 192.262 104.498 190.472 101.479 192.133L93.5042 189.31C100.666 186.985 113.818 184.631 113.818 184.631C115.611 186.342 117.043 187.602 118.837 189.133C119.788 189.72 121.133 189.689 122.596 187.785C127.066 181.178 131.293 169.152 137.754 167.497C140.13 166.887 142.987 168.49 142.38 173.783C141.456 181.831 135.543 188.521 128.106 193.528C123.968 196.277 122.221 195.063 119.013 194.904C114.875 195.376 113.768 197.426 117.177 200.268C120.34 201.936 123.194 202.16 125.496 201.71C127.487 201.349 129.811 198.734 131.47 197.315C133.33 195.128 136.428 197.721 134.327 200.29C130.497 204.934 126.649 207.978 121.934 207.909C116.955 208.608 117.885 211.447 121.181 212.823C127.112 215.324 132.488 210.658 135.19 207.57C137.291 205.251 138.797 205.16 138.419 208.767C136.339 215.324 133.485 217.87 128.838 218.187C125.075 217.849 125.032 220.802 127.777 222.809C134.059 227.226 138.617 219.696 140.743 215.143C142.246 211.019 144.572 212.981 144.814 216.361C144.859 220.893 141.6 225.594 138.912 227.916C136.224 230.238 150.5 245 150.5 245C150.5 245 164.776 230.238 162.088 227.915L162.089 227.916ZM181.22 60.7408C178.998 60.7408 177.625 61.5158 177.625 62.4563C177.625 63.4116 178.998 64.1902 181.22 64.1902C183.429 64.1902 184.832 63.3411 184.832 62.3845C184.832 61.444 183.428 60.7403 181.22 60.7403V60.7408ZM119.781 60.7408C122.003 60.7408 123.376 61.5158 123.376 62.4563C123.376 63.4116 122.003 64.1902 119.781 64.1902C117.572 64.1902 116.169 63.3411 116.169 62.3845C116.169 61.444 117.572 60.7403 119.781 60.7403V60.7408Z"/>
</mask>
<path fill-rule="evenodd" clip-rule="evenodd" d="M162.089 227.916C159.4 225.594 156.141 220.893 156.187 216.361C156.428 212.981 158.755 211.018 160.258 215.143C162.384 219.696 166.942 227.226 173.224 222.809C175.968 220.802 175.926 217.849 172.163 218.187C167.516 217.87 164.661 215.324 162.582 208.767C162.203 205.16 163.709 205.251 165.811 207.57C168.512 210.658 173.888 215.324 179.82 212.823C183.116 211.447 184.046 208.608 179.067 207.909C174.352 207.978 170.504 204.934 166.673 200.29C164.573 197.721 167.671 195.128 169.531 197.315C171.19 198.734 173.513 201.349 175.505 201.71C177.807 202.16 180.661 201.936 183.824 200.268C187.233 197.426 186.126 195.376 181.988 194.904C178.78 195.063 177.032 196.277 172.895 193.528C165.457 188.521 159.544 181.831 158.621 173.783C158.014 168.49 160.871 166.887 163.246 167.497C169.708 169.152 173.934 181.178 178.405 187.785C179.868 189.689 181.213 189.72 182.164 189.133C183.957 187.602 185.389 186.343 187.183 184.631C187.183 184.631 200.334 186.985 207.496 189.31L199.522 192.133C196.502 190.472 192.858 192.262 192.858 195.144C190.001 197.112 190.231 199.419 191.464 201.646C191.84 200.095 192.161 198.081 194.418 197.814C197.639 199.141 201.392 197.247 201.392 194.741L210.799 191.058L220.303 196.417C220.303 200.04 223.749 201.188 227.335 200.21C229.024 201.255 230.111 203.068 230.683 205.007C231.741 202.21 231.52 200.236 229.863 198.864C230.814 195.249 225.728 191.773 221.79 194.088L214.953 190.178L226.656 189.851C228.014 192.246 232.923 192.378 234.355 189.851C235.579 189.517 236.614 189.305 239 191.072C238.248 188.213 236.785 186.99 234.589 186.99C232.921 184.046 226.884 184.06 226.012 187.374L213.824 187.712L221.056 182.583C223.755 184.171 227.543 182.406 228.302 179.522C229.378 178.248 230.705 177.649 233.317 178.514C231.971 176.139 230.074 175.43 226.647 177.042C223.522 174.683 219.402 177.544 220.027 179.92L210.405 186.44C203.422 184.364 190.773 181.132 190.773 181.132C192.279 179.554 193.807 178.088 195.31 176.488C195.853 175.551 195.023 174.46 193.871 174.233C182.585 171.913 176.124 167.382 172.208 155.864C170.571 151.041 174.111 149.6 175.328 152.55C177.011 156.653 178.868 161.138 183.936 164.611C185.683 165.828 190.886 164.834 187.809 161.927C184.622 159.312 183.25 158.188 181.68 151.83C181.68 148.608 184.976 147.164 186.815 150.252C188.782 156.585 188.983 159.312 192.544 163.393C195.243 166.481 198.762 168.556 200.509 168.509C203.653 168.465 206.818 165.082 202.613 162.626C196.438 160.169 194.182 156.812 193.273 153.609C192.279 148.022 193.365 145.316 196.749 148.065C201.549 153.497 210.712 163.617 215.512 168.329C220.891 172.432 227.063 172.565 231.975 168.397C234.787 165.173 233.789 161.704 229.387 162.446C219.452 163.281 211.929 158.368 203.675 145.089C202.058 142.092 201.616 137.787 205.181 140.99C209.294 146.534 215.292 151.245 220.87 153.274C226.468 155.277 231.091 154.171 232.883 152.417C235.044 150.265 234.476 144.844 230.737 146.151C227.66 147.233 223.324 147.503 218.811 145.767C214.295 144.008 209.605 140.222 204.626 133.799C202.921 130.171 203.476 127.105 206.928 128.975C215.093 135.874 225.627 141.462 231.002 138.104C234.964 135.647 235.031 129.336 230.008 129.742C219.894 131.115 216.067 128.885 206.352 120.344C204.141 118.697 204.294 114.526 207.812 117.188C215.978 122.44 227.13 124.49 231.512 121.741C235.452 119.284 234.875 111.777 228.237 114.436C222.925 117.66 217.061 117.57 205.312 109.208C202.348 106.752 204.559 103.549 206.992 104.925C216.442 110.289 230.207 112.588 233.79 101.679C235.183 97.5107 232.662 95.0758 228.966 97.9609C220.845 105.444 211.639 101.769 206.486 98.0044C205.01 97.138 202.302 92.7524 207.059 93.5662C219.363 96.3616 231.533 93.9267 233.747 85.2484C235.031 82.4312 232.505 77.4491 228.014 81.6205C222.108 87.4351 215.844 87.6367 207.968 87.5931C203.961 86.758 203.919 82.3628 207.282 81.7106C213.499 81.8438 219.629 79.1386 224.541 76.3898C229.344 73.641 233.326 69.7862 234.589 64.444C235.362 59.6666 230.737 54.5948 227.95 59.6666C223.833 67.0809 214.716 74.0694 204.58 75.3308C204.052 74.4513 202.723 72.1967 201.085 72.8302C198.109 73.9797 194.563 75.5176 190.912 77.2449C183.042 80.9673 179.762 82.7613 180.707 89.1928C181.693 95.904 176.499 100.145 172.208 98.9737C168.466 97.9705 166.402 94.6038 167.073 88.7644C167.61 84.1115 172.3 78.4833 177.585 75.532C181.006 73.6248 186.171 72.5816 192.389 71.2056C196.173 70.4633 198.1 68.9972 198.32 67.4628C198.32 67.4628 195.733 69.3481 191.593 69.0651C189.636 68.9258 188.324 68.068 187.83 67.1928C189.27 66.9011 191.88 67.2394 194.225 67.2394C197.344 67.2146 204.586 66.5188 206.507 62.145C207.105 59.2599 205.202 58.7413 203.431 60.5892C201.528 62.5865 200.744 64.3818 196.926 65.0523C194.603 65.4594 192.279 65.9318 189.291 65.2112C190.974 63.22 193.648 61.1827 195.929 61.5581C196.679 61.6826 197.676 62.3723 198.475 63.6115C198.963 60.4556 198.097 56.893 189.623 58.3808C189.757 55.9925 184.71 54.9549 181.68 55.0015C179.954 55.045 176.435 56.0609 173.892 57.2753C169.864 58.5175 165.881 59.4184 161.188 59.7572C163.911 62.0771 164.421 62.2138 167.14 64.1736C163.027 65.705 159.84 68.8609 158.401 70.9357C158.401 70.9357 163.204 70.802 164.421 71.3424C159.395 72.8054 157.138 73.6845 154.483 76.3898C155.413 76.5483 156.806 76.8182 157.404 77.0451C158.026 77.2689 157.864 77.6756 157.361 78.0578C156.279 78.8808 151.806 84.0553 150.5 85.2945C149.195 84.0553 144.722 78.8808 143.64 78.0578C143.137 77.6756 142.975 77.2689 143.597 77.0451C144.195 76.8186 145.588 76.5483 146.518 76.3898C143.862 73.6845 141.606 72.8054 136.58 71.3424C137.797 70.802 142.6 70.9357 142.6 70.9357C141.16 68.8609 137.974 65.705 133.86 64.1736C136.58 62.2138 137.089 62.0771 139.813 59.7567C135.12 59.4184 131.137 58.5175 127.109 57.2748C124.566 56.0609 121.047 55.045 119.321 55.0015C116.29 54.9549 111.243 55.9925 111.378 58.3804C102.904 56.893 102.038 60.4556 102.526 63.6115C103.324 62.3723 104.321 61.6826 105.072 61.5585C107.353 61.1827 110.027 63.22 111.71 65.2112C108.722 65.9318 106.398 65.4594 104.075 65.0527C100.257 64.3822 99.4731 62.5865 97.5697 60.5897C95.7988 58.7413 93.8959 59.2599 94.4935 62.1454C96.4147 66.5188 103.656 67.2146 106.776 67.2394C109.121 67.2394 111.731 66.9007 113.171 67.1928C112.677 68.0689 111.365 68.9258 109.408 69.0651C105.267 69.3481 102.681 67.4628 102.681 67.4628C102.901 68.9972 104.827 70.4628 108.612 71.2056C114.83 72.5816 119.995 73.6253 123.416 75.5324C128.701 78.4833 133.391 84.1115 133.928 88.7644C134.598 94.6034 132.534 97.9705 128.792 98.9737C124.502 100.145 119.307 95.904 120.294 89.1928C121.239 82.7613 117.959 80.9673 110.089 77.2449C106.438 75.5176 102.892 73.9793 99.9155 72.8298C98.2779 72.1967 96.9485 74.4517 96.4209 75.3308C86.2846 74.0694 77.1674 67.0809 73.0507 59.6666C70.2635 54.5948 65.638 59.6666 66.4122 64.444C67.6747 69.7866 71.6571 73.641 76.4597 76.3898C81.3724 79.1386 87.5017 81.8438 93.7193 81.7106C97.0823 82.3628 97.0399 86.758 93.0329 87.5931C85.1563 87.6367 78.8933 87.4351 72.9865 81.6205C68.4952 77.4491 65.9702 82.4312 67.2541 85.2484C69.4679 93.9263 81.6377 96.3616 93.9418 93.5662C98.698 92.752 95.9907 97.1384 94.5144 98.0049C89.3617 101.769 80.1558 105.444 72.0352 97.9613C68.3396 95.0758 65.8172 97.5107 67.2113 101.679C70.7942 112.588 84.5588 110.289 94.0087 104.925C96.4423 103.549 98.653 106.752 95.6891 109.208C83.9398 117.57 78.0762 117.66 72.764 114.436C66.1258 111.777 65.5492 119.284 69.4893 121.741C73.8708 124.49 85.0226 122.44 93.1886 117.188C96.7076 114.526 96.8598 118.697 94.6487 120.344C84.9338 128.885 81.107 131.115 70.9926 129.742C65.9698 129.336 66.0371 135.646 69.9986 138.104C75.3742 141.461 85.9065 135.874 94.0725 128.975C97.5247 127.105 98.0794 130.171 96.375 133.799C91.3958 140.222 86.7052 144.008 82.1894 145.767C77.6767 147.503 73.3406 147.233 70.2639 146.151C66.525 144.844 65.9566 150.265 68.1171 152.417C69.9107 154.171 74.5327 155.277 80.1313 153.274C85.7085 151.245 91.7066 146.533 95.8202 140.99C99.3847 137.787 98.9424 142.092 97.3262 145.089C89.0719 158.368 81.5494 163.281 71.6143 162.446C67.2113 161.704 66.2141 165.173 69.0255 168.397C73.9382 172.565 80.1099 172.432 85.4886 168.329C90.2885 163.617 99.4512 153.497 104.251 148.065C107.636 145.316 108.722 148.022 107.728 153.609C106.819 156.812 104.563 160.169 98.3876 162.626C94.1822 165.083 97.3472 168.465 100.492 168.508C102.239 168.556 105.758 166.481 108.457 163.393C112.018 159.312 112.22 156.585 114.186 150.252C116.025 147.164 119.321 148.608 119.321 151.829C117.751 158.188 116.379 159.312 113.192 161.927C110.115 164.834 115.318 165.828 117.065 164.611C122.133 161.138 123.989 156.653 125.672 152.55C126.889 149.6 130.43 151.041 128.792 155.864C124.877 167.381 118.416 171.913 107.13 174.233C105.977 174.46 105.148 175.551 105.69 176.488C107.194 178.088 108.722 179.554 110.228 181.132C110.228 181.132 97.5789 184.364 90.5949 186.44L80.9732 179.92C81.5984 177.544 77.4791 174.683 74.353 177.041C70.9262 175.43 69.0294 176.139 67.683 178.514C70.2954 177.649 71.6226 178.248 72.6988 179.522C73.4573 182.406 77.2452 184.171 79.9446 182.583L87.1764 187.712L74.9886 187.374C74.1165 184.06 68.0795 184.046 66.4109 186.99C64.2164 186.99 62.7519 188.213 62 191.072C64.3868 189.305 65.4216 189.517 66.6452 189.851C68.0773 192.378 72.9865 192.246 74.3443 189.851L86.0473 190.178L79.2102 194.088C75.2728 191.773 70.1865 195.249 71.1373 198.864C69.4805 200.236 69.2593 202.21 70.3177 205.007C70.8895 203.068 71.9762 201.255 73.6663 200.209C77.2509 201.188 80.6974 200.04 80.6974 196.417L90.2011 191.058L99.6086 194.741C99.6086 197.247 103.362 199.141 106.583 197.814C108.84 198.081 109.161 200.095 109.537 201.645C110.769 199.419 110.999 197.112 108.142 195.144C108.142 192.262 104.498 190.472 101.479 192.133L93.5042 189.31C100.666 186.985 113.818 184.631 113.818 184.631C115.611 186.342 117.043 187.602 118.837 189.133C119.788 189.72 121.133 189.689 122.596 187.785C127.066 181.178 131.293 169.152 137.754 167.497C140.13 166.887 142.987 168.49 142.38 173.783C141.456 181.831 135.543 188.521 128.106 193.528C123.968 196.277 122.221 195.063 119.013 194.904C114.875 195.376 113.768 197.426 117.177 200.268C120.34 201.936 123.194 202.16 125.496 201.71C127.487 201.349 129.811 198.734 131.47 197.315C133.33 195.128 136.428 197.721 134.327 200.29C130.497 204.934 126.649 207.978 121.934 207.909C116.955 208.608 117.885 211.447 121.181 212.823C127.112 215.324 132.488 210.658 135.19 207.57C137.291 205.251 138.797 205.16 138.419 208.767C136.339 215.324 133.485 217.87 128.838 218.187C125.075 217.849 125.032 220.802 127.777 222.809C134.059 227.226 138.617 219.696 140.743 215.143C142.246 211.019 144.572 212.981 144.814 216.361C144.859 220.893 141.6 225.594 138.912 227.916C136.224 230.238 150.5 245 150.5 245C150.5 245 164.776 230.238 162.088 227.915L162.089 227.916ZM181.22 60.7408C178.998 60.7408 177.625 61.5158 177.625 62.4563C177.625 63.4116 178.998 64.1902 181.22 64.1902C183.429 64.1902 184.832 63.3411 184.832 62.3845C184.832 61.444 183.428 60.7403 181.22 60.7403V60.7408ZM119.781 60.7408C122.003 60.7408 123.376 61.5158 123.376 62.4563C123.376 63.4116 122.003 64.1902 119.781 64.1902C117.572 64.1902 116.169 63.3411 116.169 62.3845C116.169 61.444 117.572 60.7403 119.781 60.7403V60.7408Z" fill="#252525"/>
<path fill-rule="evenodd" clip-rule="evenodd" d="M162.089 227.916C159.4 225.594 156.141 220.893 156.187 216.361C156.428 212.981 158.755 211.018 160.258 215.143C162.384 219.696 166.942 227.226 173.224 222.809C175.968 220.802 175.926 217.849 172.163 218.187C167.516 217.87 164.661 215.324 162.582 208.767C162.203 205.16 163.709 205.251 165.811 207.57C168.512 210.658 173.888 215.324 179.82 212.823C183.116 211.447 184.046 208.608 179.067 207.909C174.352 207.978 170.504 204.934 166.673 200.29C164.573 197.721 167.671 195.128 169.531 197.315C171.19 198.734 173.513 201.349 175.505 201.71C177.807 202.16 180.661 201.936 183.824 200.268C187.233 197.426 186.126 195.376 181.988 194.904C178.78 195.063 177.032 196.277 172.895 193.528C165.457 188.521 159.544 181.831 158.621 173.783C158.014 168.49 160.871 166.887 163.246 167.497C169.708 169.152 173.934 181.178 178.405 187.785C179.868 189.689 181.213 189.72 182.164 189.133C183.957 187.602 185.389 186.343 187.183 184.631C187.183 184.631 200.334 186.985 207.496 189.31L199.522 192.133C196.502 190.472 192.858 192.262 192.858 195.144C190.001 197.112 190.231 199.419 191.464 201.646C191.84 200.095 192.161 198.081 194.418 197.814C197.639 199.141 201.392 197.247 201.392 194.741L210.799 191.058L220.303 196.417C220.303 200.04 223.749 201.188 227.335 200.21C229.024 201.255 230.111 203.068 230.683 205.007C231.741 202.21 231.52 200.236 229.863 198.864C230.814 195.249 225.728 191.773 221.79 194.088L214.953 190.178L226.656 189.851C228.014 192.246 232.923 192.378 234.355 189.851C235.579 189.517 236.614 189.305 239 191.072C238.248 188.213 236.785 186.99 234.589 186.99C232.921 184.046 226.884 184.06 226.012 187.374L213.824 187.712L221.056 182.583C223.755 184.171 227.543 182.406 228.302 179.522C229.378 178.248 230.705 177.649 233.317 178.514C231.971 176.139 230.074 175.43 226.647 177.042C223.522 174.683 219.402 177.544 220.027 179.92L210.405 186.44C203.422 184.364 190.773 181.132 190.773 181.132C192.279 179.554 193.807 178.088 195.31 176.488C195.853 175.551 195.023 174.46 193.871 174.233C182.585 171.913 176.124 167.382 172.208 155.864C170.571 151.041 174.111 149.6 175.328 152.55C177.011 156.653 178.868 161.138 183.936 164.611C185.683 165.828 190.886 164.834 187.809 161.927C184.622 159.312 183.25 158.188 181.68 151.83C181.68 148.608 184.976 147.164 186.815 150.252C188.782 156.585 188.983 159.312 192.544 163.393C195.243 166.481 198.762 168.556 200.509 168.509C203.653 168.465 206.818 165.082 202.613 162.626C196.438 160.169 194.182 156.812 193.273 153.609C192.279 148.022 193.365 145.316 196.749 148.065C201.549 153.497 210.712 163.617 215.512 168.329C220.891 172.432 227.063 172.565 231.975 168.397C234.787 165.173 233.789 161.704 229.387 162.446C219.452 163.281 211.929 158.368 203.675 145.089C202.058 142.092 201.616 137.787 205.181 140.99C209.294 146.534 215.292 151.245 220.87 153.274C226.468 155.277 231.091 154.171 232.883 152.417C235.044 150.265 234.476 144.844 230.737 146.151C227.66 147.233 223.324 147.503 218.811 145.767C214.295 144.008 209.605 140.222 204.626 133.799C202.921 130.171 203.476 127.105 206.928 128.975C215.093 135.874 225.627 141.462 231.002 138.104C234.964 135.647 235.031 129.336 230.008 129.742C219.894 131.115 216.067 128.885 206.352 120.344C204.141 118.697 204.294 114.526 207.812 117.188C215.978 122.44 227.13 124.49 231.512 121.741C235.452 119.284 234.875 111.777 228.237 114.436C222.925 117.66 217.061 117.57 205.312 109.208C202.348 106.752 204.559 103.549 206.992 104.925C216.442 110.289 230.207 112.588 233.79 101.679C235.183 97.5107 232.662 95.0758 228.966 97.9609C220.845 105.444 211.639 101.769 206.486 98.0044C205.01 97.138 202.302 92.7524 207.059 93.5662C219.363 96.3616 231.533 93.9267 233.747 85.2484C235.031 82.4312 232.505 77.4491 228.014 81.6205C222.108 87.4351 215.844 87.6367 207.968 87.5931C203.961 86.758 203.919 82.3628 207.282 81.7106C213.499 81.8438 219.629 79.1386 224.541 76.3898C229.344 73.641 233.326 69.7862 234.589 64.444C235.362 59.6666 230.737 54.5948 227.95 59.6666C223.833 67.0809 214.716 74.0694 204.58 75.3308C204.052 74.4513 202.723 72.1967 201.085 72.8302C198.109 73.9797 194.563 75.5176 190.912 77.2449C183.042 80.9673 179.762 82.7613 180.707 89.1928C181.693 95.904 176.499 100.145 172.208 98.9737C168.466 97.9705 166.402 94.6038 167.073 88.7644C167.61 84.1115 172.3 78.4833 177.585 75.532C181.006 73.6248 186.171 72.5816 192.389 71.2056C196.173 70.4633 198.1 68.9972 198.32 67.4628C198.32 67.4628 195.733 69.3481 191.593 69.0651C189.636 68.9258 188.324 68.068 187.83 67.1928C189.27 66.9011 191.88 67.2394 194.225 67.2394C197.344 67.2146 204.586 66.5188 206.507 62.145C207.105 59.2599 205.202 58.7413 203.431 60.5892C201.528 62.5865 200.744 64.3818 196.926 65.0523C194.603 65.4594 192.279 65.9318 189.291 65.2112C190.974 63.22 193.648 61.1827 195.929 61.5581C196.679 61.6826 197.676 62.3723 198.475 63.6115C198.963 60.4556 198.097 56.893 189.623 58.3808C189.757 55.9925 184.71 54.9549 181.68 55.0015C179.954 55.045 176.435 56.0609 173.892 57.2753C169.864 58.5175 165.881 59.4184 161.188 59.7572C163.911 62.0771 164.421 62.2138 167.14 64.1736C163.027 65.705 159.84 68.8609 158.401 70.9357C158.401 70.9357 163.204 70.802 164.421 71.3424C159.395 72.8054 157.138 73.6845 154.483 76.3898C155.413 76.5483 156.806 76.8182 157.404 77.0451C158.026 77.2689 157.864 77.6756 157.361 78.0578C156.279 78.8808 151.806 84.0553 150.5 85.2945C149.195 84.0553 144.722 78.8808 143.64 78.0578C143.137 77.6756 142.975 77.2689 143.597 77.0451C144.195 76.8186 145.588 76.5483 146.518 76.3898C143.862 73.6845 141.606 72.8054 136.58 71.3424C137.797 70.802 142.6 70.9357 142.6 70.9357C141.16 68.8609 137.974 65.705 133.86 64.1736C136.58 62.2138 137.089 62.0771 139.813 59.7567C135.12 59.4184 131.137 58.5175 127.109 57.2748C124.566 56.0609 121.047 55.045 119.321 55.0015C116.29 54.9549 111.243 55.9925 111.378 58.3804C102.904 56.893 102.038 60.4556 102.526 63.6115C103.324 62.3723 104.321 61.6826 105.072 61.5585C107.353 61.1827 110.027 63.22 111.71 65.2112C108.722 65.9318 106.398 65.4594 104.075 65.0527C100.257 64.3822 99.4731 62.5865 97.5697 60.5897C95.7988 58.7413 93.8959 59.2599 94.4935 62.1454C96.4147 66.5188 103.656 67.2146 106.776 67.2394C109.121 67.2394 111.731 66.9007 113.171 67.1928C112.677 68.0689 111.365 68.9258 109.408 69.0651C105.267 69.3481 102.681 67.4628 102.681 67.4628C102.901 68.9972 104.827 70.4628 108.612 71.2056C114.83 72.5816 119.995 73.6253 123.416 75.5324C128.701 78.4833 133.391 84.1115 133.928 88.7644C134.598 94.6034 132.534 97.9705 128.792 98.9737C124.502 100.145 119.307 95.904 120.294 89.1928C121.239 82.7613 117.959 80.9673 110.089 77.2449C106.438 75.5176 102.892 73.9793 99.9155 72.8298C98.2779 72.1967 96.9485 74.4517 96.4209 75.3308C86.2846 74.0694 77.1674 67.0809 73.0507 59.6666C70.2635 54.5948 65.638 59.6666 66.4122 64.444C67.6747 69.7866 71.6571 73.641 76.4597 76.3898C81.3724 79.1386 87.5017 81.8438 93.7193 81.7106C97.0823 82.3628 97.0399 86.758 93.0329 87.5931C85.1563 87.6367 78.8933 87.4351 72.9865 81.6205C68.4952 77.4491 65.9702 82.4312 67.2541 85.2484C69.4679 93.9263 81.6377 96.3616 93.9418 93.5662C98.698 92.752 95.9907 97.1384 94.5144 98.0049C89.3617 101.769 80.1558 105.444 72.0352 97.9613C68.3396 95.0758 65.8172 97.5107 67.2113 101.679C70.7942 112.588 84.5588 110.289 94.0087 104.925C96.4423 103.549 98.653 106.752 95.6891 109.208C83.9398 117.57 78.0762 117.66 72.764 114.436C66.1258 111.777 65.5492 119.284 69.4893 121.741C73.8708 124.49 85.0226 122.44 93.1886 117.188C96.7076 114.526 96.8598 118.697 94.6487 120.344C84.9338 128.885 81.107 131.115 70.9926 129.742C65.9698 129.336 66.0371 135.646 69.9986 138.104C75.3742 141.461 85.9065 135.874 94.0725 128.975C97.5247 127.105 98.0794 130.171 96.375 133.799C91.3958 140.222 86.7052 144.008 82.1894 145.767C77.6767 147.503 73.3406 147.233 70.2639 146.151C66.525 144.844 65.9566 150.265 68.1171 152.417C69.9107 154.171 74.5327 155.277 80.1313 153.274C85.7085 151.245 91.7066 146.533 95.8202 140.99C99.3847 137.787 98.9424 142.092 97.3262 145.089C89.0719 158.368 81.5494 163.281 71.6143 162.446C67.2113 161.704 66.2141 165.173 69.0255 168.397C73.9382 172.565 80.1099 172.432 85.4886 168.329C90.2885 163.617 99.4512 153.497 104.251 148.065C107.636 145.316 108.722 148.022 107.728 153.609C106.819 156.812 104.563 160.169 98.3876 162.626C94.1822 165.083 97.3472 168.465 100.492 168.508C102.239 168.556 105.758 166.481 108.457 163.393C112.018 159.312 112.22 156.585 114.186 150.252C116.025 147.164 119.321 148.608 119.321 151.829C117.751 158.188 116.379 159.312 113.192 161.927C110.115 164.834 115.318 165.828 117.065 164.611C122.133 161.138 123.989 156.653 125.672 152.55C126.889 149.6 130.43 151.041 128.792 155.864C124.877 167.381 118.416 171.913 107.13 174.233C105.977 174.46 105.148 175.551 105.69 176.488C107.194 178.088 108.722 179.554 110.228 181.132C110.228 181.132 97.5789 184.364 90.5949 186.44L80.9732 179.92C81.5984 177.544 77.4791 174.683 74.353 177.041C70.9262 175.43 69.0294 176.139 67.683 178.514C70.2954 177.649 71.6226 178.248 72.6988 179.522C73.4573 182.406 77.2452 184.171 79.9446 182.583L87.1764 187.712L74.9886 187.374C74.1165 184.06 68.0795 184.046 66.4109 186.99C64.2164 186.99 62.7519 188.213 62 191.072C64.3868 189.305 65.4216 189.517 66.6452 189.851C68.0773 192.378 72.9865 192.246 74.3443 189.851L86.0473 190.178L79.2102 194.088C75.2728 191.773 70.1865 195.249 71.1373 198.864C69.4805 200.236 69.2593 202.21 70.3177 205.007C70.8895 203.068 71.9762 201.255 73.6663 200.209C77.2509 201.188 80.6974 200.04 80.6974 196.417L90.2011 191.058L99.6086 194.741C99.6086 197.247 103.362 199.141 106.583 197.814C108.84 198.081 109.161 200.095 109.537 201.645C110.769 199.419 110.999 197.112 108.142 195.144C108.142 192.262 104.498 190.472 101.479 192.133L93.5042 189.31C100.666 186.985 113.818 184.631 113.818 184.631C115.611 186.342 117.043 187.602 118.837 189.133C119.788 189.72 121.133 189.689 122.596 187.785C127.066 181.178 131.293 169.152 137.754 167.497C140.13 166.887 142.987 168.49 142.38 173.783C141.456 181.831 135.543 188.521 128.106 193.528C123.968 196.277 122.221 195.063 119.013 194.904C114.875 195.376 113.768 197.426 117.177 200.268C120.34 201.936 123.194 202.16 125.496 201.71C127.487 201.349 129.811 198.734 131.47 197.315C133.33 195.128 136.428 197.721 134.327 200.29C130.497 204.934 126.649 207.978 121.934 207.909C116.955 208.608 117.885 211.447 121.181 212.823C127.112 215.324 132.488 210.658 135.19 207.57C137.291 205.251 138.797 205.16 138.419 208.767C136.339 215.324 133.485 217.87 128.838 218.187C125.075 217.849 125.032 220.802 127.777 222.809C134.059 227.226 138.617 219.696 140.743 215.143C142.246 211.019 144.572 212.981 144.814 216.361C144.859 220.893 141.6 225.594 138.912 227.916C136.224 230.238 150.5 245 150.5 245C150.5 245 164.776 230.238 162.088 227.915L162.089 227.916ZM181.22 60.7408C178.998 60.7408 177.625 61.5158 177.625 62.4563C177.625 63.4116 178.998 64.1902 181.22 64.1902C183.429 64.1902 184.832 63.3411 184.832 62.3845C184.832 61.444 183.428 60.7403 181.22 60.7403V60.7408ZM119.781 60.7408C122.003 60.7408 123.376 61.5158 123.376 62.4563C123.376 63.4116 122.003 64.1902 119.781 64.1902C117.572 64.1902 116.169 63.3411 116.169 62.3845C116.169 61.444 117.572 60.7403 119.781 60.7403V60.7408Z" stroke="#252525" stroke-width="4" mask="url(#path-1-outside-1)"/>
</svg>
