<svg width="300" height="300" viewBox="0 0 300 300" fill="none" xmlns="http://www.w3.org/2000/svg">
<path d="M102.278 111.441C103.295 108.308 107.727 108.308 108.745 111.441L115.19 131.278C115.645 132.679 116.951 133.627 118.424 133.627H139.282C142.575 133.627 143.945 137.842 141.28 139.778L124.406 152.038C123.214 152.904 122.715 154.438 123.171 155.839L129.616 175.676C130.634 178.809 127.049 181.413 124.384 179.477L107.51 167.217C106.318 166.352 104.704 166.352 103.513 167.217L86.6382 179.477C83.9736 181.413 80.3884 178.809 81.4062 175.676L87.8516 155.839C88.3068 154.438 87.8081 152.904 86.6165 152.038L69.7421 139.778C67.0774 137.842 68.4469 133.627 71.7405 133.627H92.5985C94.0714 133.627 95.3769 132.679 95.8321 131.278L102.278 111.441Z" fill="#FFB84F"/>
<path d="M212.809 158.572C213.407 156.73 216.014 156.73 216.613 158.572L218.953 165.775C219.221 166.599 219.989 167.157 220.855 167.157H228.429C230.366 167.157 231.172 169.636 229.604 170.775L223.477 175.227C222.776 175.736 222.483 176.639 222.751 177.463L225.091 184.666C225.69 186.509 223.581 188.041 222.013 186.902L215.886 182.45C215.185 181.941 214.236 181.941 213.535 182.45L207.408 186.902C205.841 188.041 203.732 186.509 204.33 184.666L206.671 177.463C206.938 176.639 206.645 175.736 205.944 175.227L199.817 170.775C198.25 169.636 199.055 167.157 200.993 167.157H208.566C209.433 167.157 210.201 166.599 210.468 165.775L212.809 158.572Z" fill="#FFB84F"/>
<path d="M209.633 107.652C209.734 105.717 212.252 105.042 213.307 106.667L217.432 113.019C217.904 113.745 218.79 114.086 219.627 113.861L226.943 111.901C228.814 111.4 230.234 113.586 229.015 115.092L224.248 120.977C223.703 121.651 223.653 122.599 224.125 123.325L228.25 129.677C229.305 131.302 227.665 133.328 225.856 132.634L218.786 129.919C217.977 129.609 217.06 129.855 216.514 130.528L211.748 136.414C210.529 137.919 208.095 136.985 208.197 135.05L208.593 127.487C208.638 126.622 208.121 125.826 207.313 125.515L200.242 122.801C198.433 122.107 198.57 119.504 200.441 119.002L207.757 117.042C208.594 116.818 209.191 116.08 209.236 115.215L209.633 107.652Z" fill="#FFB84F"/>
<path d="M160.614 73.4692C160.211 71.5741 162.469 70.2707 163.908 71.5671L169.537 76.6348C170.181 77.2146 171.125 77.3138 171.875 76.8806L178.434 73.0938C180.112 72.125 182.049 73.8694 181.261 75.6393L178.18 82.5581C177.828 83.3497 178.025 84.2781 178.669 84.8579L184.298 89.9256C185.737 91.222 184.677 93.6035 182.75 93.4009L175.218 92.6093C174.356 92.5187 173.534 92.9933 173.182 93.7848L170.102 100.704C169.313 102.474 166.721 102.201 166.318 100.306L164.743 92.8979C164.563 92.0504 163.858 91.4153 162.996 91.3247L155.464 90.533C153.537 90.3305 152.995 87.7807 154.673 86.812L161.232 83.0252C161.983 82.5919 162.369 81.7248 162.188 80.8773L160.614 73.4692Z" fill="#FFB84F"/>
<path d="M171.582 202.386C172.637 200.761 175.155 201.435 175.256 203.37L175.653 210.933C175.698 211.799 176.295 212.536 177.132 212.761L184.448 214.721C186.319 215.222 186.456 217.826 184.647 218.52L177.576 221.234C176.768 221.544 176.251 222.341 176.296 223.206L176.692 230.769C176.794 232.704 174.36 233.638 173.141 232.132L168.375 226.247C167.829 225.573 166.912 225.327 166.104 225.638L159.033 228.352C157.224 229.046 155.584 227.021 156.639 225.396L160.764 219.044C161.236 218.317 161.186 217.369 160.641 216.696L155.875 210.81C154.655 209.305 156.075 207.118 157.946 207.62L165.262 209.58C166.099 209.804 166.985 209.464 167.457 208.737L171.582 202.386Z" fill="#FFB84F"/>
</svg>
