<svg width="300" height="300" viewBox="0 0 300 300" fill="none" xmlns="http://www.w3.org/2000/svg">
<path d="M149.049 51.927C149.348 51.0057 150.652 51.0057 150.951 51.9271L155.053 64.5531C155.187 64.9651 155.571 65.2441 156.004 65.2441H169.28C170.249 65.2441 170.652 66.4837 169.868 67.0531L159.128 74.8564C158.777 75.111 158.63 75.5624 158.764 75.9744L162.867 88.6004C163.166 89.5218 162.112 90.2879 161.328 89.7185L150.588 81.9152C150.237 81.6605 149.763 81.6605 149.412 81.9152L138.672 89.7185C137.888 90.2879 136.834 89.5218 137.133 88.6004L141.235 75.9744C141.369 75.5624 141.223 75.111 140.872 74.8564L130.132 67.0531C129.348 66.4837 129.751 65.2441 130.719 65.2441H143.995C144.429 65.2441 144.812 64.9651 144.946 64.5531L149.049 51.927Z" fill="#FFB84F"/>
<path d="M149.049 206.91C149.348 205.989 150.652 205.989 150.951 206.91L155.053 219.536C155.187 219.948 155.571 220.227 156.004 220.227H169.28C170.249 220.227 170.652 221.467 169.868 222.036L159.128 229.839C158.777 230.094 158.63 230.545 158.764 230.957L162.867 243.583C163.166 244.505 162.112 245.271 161.328 244.701L150.588 236.898C150.237 236.643 149.763 236.643 149.412 236.898L138.672 244.701C137.888 245.271 136.834 244.505 137.133 243.583L141.235 230.957C141.369 230.545 141.223 230.094 140.872 229.839L130.132 222.036C129.348 221.467 129.751 220.227 130.719 220.227H143.995C144.429 220.227 144.812 219.948 144.946 219.536L149.049 206.91Z" fill="#FFB84F"/>
<path d="M248.073 149.049C248.994 149.348 248.994 150.652 248.073 150.951L235.447 155.053C235.035 155.187 234.756 155.571 234.756 156.004L234.756 169.28C234.756 170.249 233.516 170.652 232.947 169.868L225.144 159.128C224.889 158.777 224.438 158.63 224.026 158.764L211.4 162.867C210.478 163.166 209.712 162.112 210.282 161.328L218.085 150.588C218.339 150.237 218.339 149.763 218.085 149.412L210.282 138.672C209.712 137.888 210.478 136.834 211.4 137.133L224.026 141.235C224.438 141.369 224.889 141.223 225.144 140.872L232.947 130.132C233.516 129.348 234.756 129.751 234.756 130.719L234.756 143.995C234.756 144.429 235.035 144.812 235.447 144.946L248.073 149.049Z" fill="#FFB84F"/>
<path d="M93.0905 149.049C94.0118 149.348 94.0118 150.652 93.0905 150.951L80.4645 155.053C80.0525 155.187 79.7735 155.571 79.7735 156.004L79.7735 169.28C79.7735 170.249 78.5339 170.652 77.9645 169.868L70.1612 159.128C69.9065 158.777 69.4552 158.63 69.0432 158.764L56.4171 162.867C55.4958 163.166 54.7297 162.112 55.2991 161.328L63.1024 150.588C63.3571 150.237 63.3571 149.763 63.1024 149.412L55.2991 138.672C54.7297 137.888 55.4958 136.834 56.4171 137.133L69.0432 141.235C69.4552 141.369 69.9065 141.223 70.1612 140.872L77.9645 130.132C78.5339 129.348 79.7735 129.751 79.7735 130.719L79.7735 143.995C79.7735 144.429 80.0525 144.812 80.4645 144.946L93.0905 149.049Z" fill="#FFB84F"/>
<path d="M218.676 79.9793C219.539 79.5395 220.461 80.4612 220.021 81.3243L213.994 93.1531C213.797 93.5391 213.871 94.0079 214.178 94.3142L223.565 103.702C224.25 104.387 223.658 105.548 222.701 105.396L209.589 103.32C209.161 103.252 208.738 103.467 208.542 103.853L202.515 115.682C202.075 116.545 200.787 116.341 200.636 115.385L198.559 102.272C198.491 101.844 198.156 101.509 197.728 101.441L184.616 99.3642C183.659 99.2127 183.455 97.9253 184.318 97.4855L196.147 91.4584C196.533 91.2618 196.748 90.8389 196.68 90.411L194.604 77.2987C194.452 76.3419 195.613 75.7501 196.298 76.4351L205.686 85.8225C205.992 86.1288 206.461 86.2031 206.847 86.0064L218.676 79.9793Z" fill="#FFB84F"/>
<path d="M109.086 189.569C109.949 189.129 110.871 190.051 110.431 190.914L104.404 202.742C104.207 203.129 104.281 203.597 104.588 203.904L113.975 213.291C114.66 213.976 114.068 215.137 113.112 214.986L99.9993 212.909C99.5714 212.841 99.1485 213.057 98.9518 213.443L92.9248 225.272C92.485 226.135 91.1976 225.931 91.0461 224.974L88.9693 211.862C88.9015 211.434 88.5659 211.098 88.138 211.03L75.0257 208.954C74.0689 208.802 73.865 207.515 74.7281 207.075L86.5569 201.048C86.9429 200.851 87.1584 200.428 87.0906 200L85.0138 186.888C84.8623 185.931 86.0236 185.339 86.7086 186.024L96.096 195.412C96.4024 195.718 96.8711 195.792 97.2571 195.596L109.086 189.569Z" fill="#FFB84F"/>
<path d="M220.021 218.676C220.46 219.539 219.539 220.461 218.676 220.021L206.847 213.994C206.461 213.797 205.992 213.871 205.686 214.178L196.298 223.565C195.613 224.25 194.452 223.658 194.604 222.701L196.68 209.589C196.748 209.161 196.533 208.738 196.147 208.542L184.318 202.515C183.455 202.075 183.659 200.787 184.615 200.636L197.728 198.559C198.156 198.491 198.491 198.156 198.559 197.728L200.636 184.616C200.787 183.659 202.075 183.455 202.514 184.318L208.542 196.147C208.738 196.533 209.161 196.748 209.589 196.68L222.701 194.604C223.658 194.452 224.25 195.613 223.565 196.298L214.177 205.686C213.871 205.992 213.797 206.461 213.994 206.847L220.021 218.676Z" fill="#FFB84F"/>
<path d="M110.432 109.086C110.872 109.949 109.95 110.871 109.087 110.431L97.258 104.404C96.872 104.207 96.4032 104.281 96.0969 104.588L86.7095 113.975C86.0245 114.66 84.8632 114.068 85.0147 113.112L87.0915 99.9993C87.1593 99.5714 86.9438 99.1485 86.5578 98.9518L74.729 92.9248C73.8658 92.485 74.0697 91.1976 75.0265 91.0461L88.1389 88.9693C88.5668 88.9015 88.9024 88.5659 88.9701 88.138L91.0469 75.0257C91.1985 74.0689 92.4858 73.865 92.9256 74.7281L98.9527 86.5569C99.1494 86.9429 99.5722 87.1584 100 87.0906L113.112 85.0138C114.069 84.8623 114.661 86.0236 113.976 86.7086L104.589 96.096C104.282 96.4024 104.208 96.8711 104.405 97.2571L110.432 109.086Z" fill="#FFB84F"/>
</svg>
