<svg width="300" height="300" viewBox="0 0 300 300" fill="none" xmlns="http://www.w3.org/2000/svg">
<path d="M148.573 53.3906C149.022 52.0086 150.977 52.0086 151.426 53.3906L154.941 64.2076C155.142 64.8256 155.718 65.2441 156.368 65.2441H167.741C169.194 65.2441 169.799 67.1035 168.623 67.9576L159.422 74.6429C158.896 75.0248 158.676 75.7019 158.877 76.3199L162.391 87.1369C162.84 88.5189 161.259 89.6681 160.083 88.814L150.882 82.1287C150.356 81.7467 149.644 81.7467 149.118 82.1287L139.917 88.814C138.741 89.6681 137.159 88.5189 137.608 87.1369L141.123 76.3199C141.324 75.7019 141.104 75.0248 140.578 74.6429L131.377 67.9576C130.201 67.1035 130.805 65.2441 132.258 65.2441H143.632C144.282 65.2441 144.858 64.8256 145.059 64.2076L148.573 53.3906Z" fill="#FFB84F"/>
<path d="M148.573 208.373C149.022 206.991 150.977 206.991 151.426 208.373L154.941 219.19C155.142 219.808 155.718 220.227 156.368 220.227H167.741C169.194 220.227 169.799 222.086 168.623 222.94L159.422 229.626C158.896 230.007 158.676 230.685 158.877 231.303L162.391 242.12C162.84 243.502 161.259 244.651 160.083 243.797L150.882 237.111C150.356 236.729 149.644 236.729 149.118 237.111L139.917 243.797C138.741 244.651 137.159 243.502 137.608 242.12L141.123 231.303C141.324 230.685 141.104 230.007 140.578 229.626L131.377 222.94C130.201 222.086 130.805 220.227 132.258 220.227H143.632C144.282 220.227 144.858 219.808 145.059 219.19L148.573 208.373Z" fill="#FFB84F"/>
<path d="M246.609 148.573C247.991 149.023 247.991 150.978 246.609 151.427L235.792 154.941C235.174 155.142 234.756 155.718 234.756 156.368L234.756 167.742C234.756 169.195 232.897 169.799 232.042 168.623L225.357 159.422C224.975 158.896 224.298 158.676 223.68 158.877L212.863 162.392C211.481 162.841 210.332 161.259 211.186 160.083L217.871 150.882C218.253 150.356 218.253 149.644 217.871 149.118L211.186 139.917C210.332 138.741 211.481 137.16 212.863 137.609L223.68 141.123C224.298 141.324 224.975 141.104 225.357 140.578L232.042 131.377C232.897 130.201 234.756 130.805 234.756 132.259L234.756 143.632C234.756 144.282 235.174 144.858 235.792 145.059L246.609 148.573Z" fill="#FFB84F"/>
<path d="M91.627 148.573C93.009 149.023 93.009 150.978 91.627 151.427L80.81 154.941C80.192 155.142 79.7735 155.718 79.7735 156.368L79.7735 167.742C79.7735 169.195 77.9141 169.799 77.06 168.623L70.3747 159.422C69.9927 158.896 69.3157 158.676 68.6977 158.877L57.8807 162.392C56.4987 162.841 55.3495 161.259 56.2036 160.083L62.8889 150.882C63.2709 150.356 63.2709 149.644 62.8889 149.118L56.2036 139.917C55.3495 138.741 56.4987 137.16 57.8807 137.609L68.6977 141.123C69.3157 141.324 69.9927 141.104 70.3747 140.578L77.06 131.377C77.9141 130.201 79.7735 130.805 79.7735 132.259L79.7735 143.632C79.7735 144.282 80.192 144.858 80.81 145.059L91.627 148.573Z" fill="#FFB84F"/>
<path d="M217.305 80.6779C218.599 80.0183 219.982 81.4007 219.322 82.6954L214.159 92.8295C213.864 93.4085 213.975 94.1116 214.434 94.5711L222.477 102.614C223.504 103.641 222.617 105.383 221.182 105.156L209.948 103.376C209.306 103.275 208.672 103.598 208.377 104.177L203.213 114.311C202.554 115.606 200.622 115.3 200.395 113.865L198.616 102.631C198.514 101.989 198.011 101.486 197.369 101.384L186.135 99.6049C184.7 99.3776 184.394 97.4466 185.689 96.7869L195.823 91.6234C196.402 91.3283 196.725 90.694 196.624 90.0522L194.844 78.8185C194.617 77.3834 196.359 76.4957 197.387 77.5232L205.429 85.5656C205.889 86.0251 206.592 86.1365 207.171 85.8415L217.305 80.6779Z" fill="#FFB84F"/>
<path d="M107.715 190.268C109.01 189.608 110.392 190.99 109.732 192.285L104.569 202.419C104.274 202.998 104.385 203.701 104.845 204.161L112.887 212.203C113.915 213.231 113.027 214.973 111.592 214.745L100.358 212.966C99.7162 212.864 99.0819 213.188 98.7869 213.767L93.6234 223.901C92.9637 225.195 91.0326 224.889 90.8053 223.454L89.0261 212.221C88.9244 211.579 88.4211 211.075 87.7792 210.974L76.5456 209.195C75.1104 208.967 74.8045 207.036 76.0992 206.376L86.2333 201.213C86.8123 200.918 87.1355 200.284 87.0338 199.642L85.2546 188.408C85.0273 186.973 86.7693 186.085 87.7968 187.113L95.8392 195.155C96.2987 195.615 97.0018 195.726 97.5808 195.431L107.715 190.268Z" fill="#FFB84F"/>
<path d="M219.322 217.304C219.982 218.599 218.599 219.982 217.305 219.322L207.171 214.158C206.592 213.863 205.888 213.975 205.429 214.434L197.386 222.477C196.359 223.504 194.617 222.617 194.844 221.181L196.624 209.948C196.725 209.306 196.402 208.672 195.823 208.377L185.689 203.213C184.394 202.553 184.7 200.622 186.135 200.395L197.369 198.616C198.011 198.514 198.514 198.011 198.616 197.369L200.395 186.135C200.622 184.7 202.553 184.394 203.213 185.689L208.377 195.823C208.672 196.402 209.306 196.725 209.948 196.623L221.181 194.844C222.617 194.617 223.504 196.359 222.477 197.386L214.434 205.429C213.975 205.888 213.863 206.591 214.159 207.17L219.322 217.304Z" fill="#FFB84F"/>
<path d="M109.733 107.715C110.393 109.01 109.01 110.392 107.716 109.732L97.5817 104.569C97.0027 104.274 96.2995 104.385 95.84 104.845L87.7976 112.887C86.7701 113.915 85.0281 113.027 85.2554 111.592L87.0347 100.358C87.1363 99.7162 86.8131 99.0819 86.2341 98.7869L76.1001 93.6234C74.8054 92.9637 75.1112 91.0326 76.5464 90.8053L87.7801 89.0261C88.4219 88.9244 88.9253 88.4211 89.027 87.7792L90.8062 76.5456C91.0335 75.1104 92.9646 74.8045 93.6242 76.0992L98.7878 86.2333C99.0828 86.8123 99.7171 87.1355 100.359 87.0338L111.593 85.2546C113.028 85.0273 113.915 86.7693 112.888 87.7968L104.845 95.8392C104.386 96.2987 104.275 97.0018 104.57 97.5808L109.733 107.715Z" fill="#FFB84F"/>
</svg>
