<svg width="300" height="300" viewBox="0 0 300 300" fill="none" xmlns="http://www.w3.org/2000/svg">
<path d="M148.526 51.5369C148.99 50.1089 151.01 50.1089 151.474 51.5369L153.693 58.3667C153.901 59.0053 154.496 59.4377 155.167 59.4377H162.349C163.85 59.4377 164.474 61.3591 163.26 62.2417L157.45 66.4627C156.907 66.8574 156.679 67.557 156.887 68.1956L159.106 75.0254C159.57 76.4534 157.936 77.6409 156.721 76.7583L150.911 72.5373C150.368 72.1426 149.632 72.1426 149.089 72.5373L143.279 76.7583C142.064 77.6409 140.43 76.4534 140.894 75.0254L143.113 68.1956C143.321 67.557 143.093 66.8574 142.55 66.4627L136.74 62.2417C135.526 61.3591 136.15 59.4377 137.651 59.4377H144.833C145.504 59.4377 146.099 59.0053 146.307 58.3667L148.526 51.5369Z" fill="#FFB84F"/>
<path d="M148.526 51.5369C148.99 50.1089 151.01 50.1089 151.474 51.5369L153.693 58.3667C153.901 59.0053 154.496 59.4377 155.167 59.4377H162.349C163.85 59.4377 164.474 61.3591 163.26 62.2417L157.45 66.4627C156.907 66.8574 156.679 67.557 156.887 68.1956L159.106 75.0254C159.57 76.4534 157.936 77.6409 156.721 76.7583L150.911 72.5373C150.368 72.1426 149.632 72.1426 149.089 72.5373L143.279 76.7583C142.064 77.6409 140.43 76.4534 140.894 75.0254L143.113 68.1956C143.321 67.557 143.093 66.8574 142.55 66.4627L136.74 62.2417C135.526 61.3591 136.15 59.4377 137.651 59.4377H144.833C145.504 59.4377 146.099 59.0053 146.307 58.3667L148.526 51.5369Z" stroke="#FFB84F"/>
<path d="M148.526 221.537C148.99 220.109 151.01 220.109 151.474 221.537L153.693 228.367C153.901 229.005 154.496 229.438 155.167 229.438H162.349C163.85 229.438 164.474 231.359 163.26 232.242L157.45 236.463C156.907 236.857 156.679 237.557 156.887 238.196L159.106 245.025C159.57 246.453 157.936 247.641 156.721 246.758L150.911 242.537C150.368 242.143 149.632 242.143 149.089 242.537L143.279 246.758C142.064 247.641 140.43 246.453 140.894 245.025L143.113 238.196C143.321 237.557 143.093 236.857 142.55 236.463L136.74 232.242C135.526 231.359 136.15 229.438 137.651 229.438H144.833C145.504 229.438 146.099 229.005 146.307 228.367L148.526 221.537Z" fill="#FFB84F"/>
<path d="M148.526 221.537C148.99 220.109 151.01 220.109 151.474 221.537L153.693 228.367C153.901 229.005 154.496 229.438 155.167 229.438H162.349C163.85 229.438 164.474 231.359 163.26 232.242L157.45 236.463C156.907 236.857 156.679 237.557 156.887 238.196L159.106 245.025C159.57 246.453 157.936 247.641 156.721 246.758L150.911 242.537C150.368 242.143 149.632 242.143 149.089 242.537L143.279 246.758C142.064 247.641 140.43 246.453 140.894 245.025L143.113 238.196C143.321 237.557 143.093 236.857 142.55 236.463L136.74 232.242C135.526 231.359 136.15 229.438 137.651 229.438H144.833C145.504 229.438 146.099 229.005 146.307 228.367L148.526 221.537Z" stroke="#FFB84F"/>
<path d="M148.526 51.5369C148.99 50.1089 151.01 50.1089 151.474 51.5369L153.693 58.3667C153.901 59.0053 154.496 59.4377 155.167 59.4377H162.349C163.85 59.4377 164.474 61.3591 163.26 62.2417L157.45 66.4627C156.907 66.8574 156.679 67.557 156.887 68.1956L159.106 75.0254C159.57 76.4534 157.936 77.6409 156.721 76.7583L150.911 72.5373C150.368 72.1426 149.632 72.1426 149.089 72.5373L143.279 76.7583C142.064 77.6409 140.43 76.4534 140.894 75.0254L143.113 68.1956C143.321 67.557 143.093 66.8574 142.55 66.4627L136.74 62.2417C135.526 61.3591 136.15 59.4377 137.651 59.4377H144.833C145.504 59.4377 146.099 59.0053 146.307 58.3667L148.526 51.5369Z" fill="#FFB84F"/>
<path d="M148.526 51.5369C148.99 50.1089 151.01 50.1089 151.474 51.5369L153.693 58.3667C153.901 59.0053 154.496 59.4377 155.167 59.4377H162.349C163.85 59.4377 164.474 61.3591 163.26 62.2417L157.45 66.4627C156.907 66.8574 156.679 67.557 156.887 68.1956L159.106 75.0254C159.57 76.4534 157.936 77.6409 156.721 76.7583L150.911 72.5373C150.368 72.1426 149.632 72.1426 149.089 72.5373L143.279 76.7583C142.064 77.6409 140.43 76.4534 140.894 75.0254L143.113 68.1956C143.321 67.557 143.093 66.8574 142.55 66.4627L136.74 62.2417C135.526 61.3591 136.15 59.4377 137.651 59.4377H144.833C145.504 59.4377 146.099 59.0053 146.307 58.3667L148.526 51.5369Z" stroke="#FFB84F"/>
<path d="M63.5259 136.537C63.9899 135.109 66.0101 135.109 66.4741 136.537L68.6933 143.367C68.9008 144.005 69.4959 144.438 70.1674 144.438H77.3486C78.8501 144.438 79.4744 146.359 78.2597 147.242L72.45 151.463C71.9067 151.857 71.6794 152.557 71.8869 153.196L74.106 160.025C74.57 161.453 72.9355 162.641 71.7208 161.758L65.9111 157.537C65.3678 157.143 64.6322 157.143 64.0889 157.537L58.2792 161.758C57.0645 162.641 55.43 161.453 55.894 160.025L58.1131 153.196C58.3206 152.557 58.0933 151.857 57.55 151.463L51.7403 147.242C50.5256 146.359 51.1499 144.438 52.6514 144.438H59.8326C60.5041 144.438 61.0992 144.005 61.3067 143.367L63.5259 136.537Z" fill="#FFB84F"/>
<path d="M63.5259 136.537C63.9899 135.109 66.0101 135.109 66.4741 136.537L68.6933 143.367C68.9008 144.005 69.4959 144.438 70.1674 144.438H77.3486C78.8501 144.438 79.4744 146.359 78.2597 147.242L72.45 151.463C71.9067 151.857 71.6794 152.557 71.8869 153.196L74.106 160.025C74.57 161.453 72.9355 162.641 71.7208 161.758L65.9111 157.537C65.3678 157.143 64.6322 157.143 64.0889 157.537L58.2792 161.758C57.0645 162.641 55.43 161.453 55.894 160.025L58.1131 153.196C58.3206 152.557 58.0933 151.857 57.55 151.463L51.7403 147.242C50.5256 146.359 51.1499 144.438 52.6514 144.438H59.8326C60.5041 144.438 61.0992 144.005 61.3067 143.367L63.5259 136.537Z" stroke="#FFB84F"/>
<path d="M233.526 136.537C233.99 135.109 236.01 135.109 236.474 136.537L238.693 143.367C238.901 144.005 239.496 144.438 240.167 144.438H247.349C248.85 144.438 249.474 146.359 248.26 147.242L242.45 151.463C241.907 151.857 241.679 152.557 241.887 153.196L244.106 160.025C244.57 161.453 242.936 162.641 241.721 161.758L235.911 157.537C235.368 157.143 234.632 157.143 234.089 157.537L228.279 161.758C227.064 162.641 225.43 161.453 225.894 160.025L228.113 153.196C228.321 152.557 228.093 151.857 227.55 151.463L221.74 147.242C220.526 146.359 221.15 144.438 222.651 144.438H229.833C230.504 144.438 231.099 144.005 231.307 143.367L233.526 136.537Z" fill="#FFB84F"/>
<path d="M233.526 136.537C233.99 135.109 236.01 135.109 236.474 136.537L238.693 143.367C238.901 144.005 239.496 144.438 240.167 144.438H247.349C248.85 144.438 249.474 146.359 248.26 147.242L242.45 151.463C241.907 151.857 241.679 152.557 241.887 153.196L244.106 160.025C244.57 161.453 242.936 162.641 241.721 161.758L235.911 157.537C235.368 157.143 234.632 157.143 234.089 157.537L228.279 161.758C227.064 162.641 225.43 161.453 225.894 160.025L228.113 153.196C228.321 152.557 228.093 151.857 227.55 151.463L221.74 147.242C220.526 146.359 221.15 144.438 222.651 144.438H229.833C230.504 144.438 231.099 144.005 231.307 143.367L233.526 136.537Z" stroke="#FFB84F"/>
<path d="M106.526 62.5369C106.99 61.1089 109.01 61.1089 109.474 62.5369L111.693 69.3667C111.901 70.0053 112.496 70.4377 113.167 70.4377H120.349C121.85 70.4377 122.474 72.3591 121.26 73.2417L115.45 77.4627C114.907 77.8574 114.679 78.557 114.887 79.1956L117.106 86.0254C117.57 87.4534 115.936 88.6409 114.721 87.7583L108.911 83.5373C108.368 83.1426 107.632 83.1426 107.089 83.5373L101.279 87.7583C100.064 88.6409 98.43 87.4534 98.894 86.0254L101.113 79.1956C101.321 78.557 101.093 77.8574 100.55 77.4627L94.7403 73.2417C93.5256 72.3591 94.1499 70.4377 95.6514 70.4377H102.833C103.504 70.4377 104.099 70.0053 104.307 69.3667L106.526 62.5369Z" fill="#FFB84F"/>
<path d="M106.526 62.5369C106.99 61.1089 109.01 61.1089 109.474 62.5369L111.693 69.3667C111.901 70.0053 112.496 70.4377 113.167 70.4377H120.349C121.85 70.4377 122.474 72.3591 121.26 73.2417L115.45 77.4627C114.907 77.8574 114.679 78.557 114.887 79.1956L117.106 86.0254C117.57 87.4534 115.936 88.6409 114.721 87.7583L108.911 83.5373C108.368 83.1426 107.632 83.1426 107.089 83.5373L101.279 87.7583C100.064 88.6409 98.43 87.4534 98.894 86.0254L101.113 79.1956C101.321 78.557 101.093 77.8574 100.55 77.4627L94.7403 73.2417C93.5256 72.3591 94.1499 70.4377 95.6514 70.4377H102.833C103.504 70.4377 104.099 70.0053 104.307 69.3667L106.526 62.5369Z" stroke="#FFB84F"/>
<path d="M106.526 208.537C106.99 207.109 109.01 207.109 109.474 208.537L111.693 215.367C111.901 216.005 112.496 216.438 113.167 216.438H120.349C121.85 216.438 122.474 218.359 121.26 219.242L115.45 223.463C114.907 223.857 114.679 224.557 114.887 225.196L117.106 232.025C117.57 233.453 115.936 234.641 114.721 233.758L108.911 229.537C108.368 229.143 107.632 229.143 107.089 229.537L101.279 233.758C100.064 234.641 98.43 233.453 98.894 232.025L101.113 225.196C101.321 224.557 101.093 223.857 100.55 223.463L94.7403 219.242C93.5256 218.359 94.1499 216.438 95.6514 216.438H102.833C103.504 216.438 104.099 216.005 104.307 215.367L106.526 208.537Z" fill="#FFB84F"/>
<path d="M106.526 208.537C106.99 207.109 109.01 207.109 109.474 208.537L111.693 215.367C111.901 216.005 112.496 216.438 113.167 216.438H120.349C121.85 216.438 122.474 218.359 121.26 219.242L115.45 223.463C114.907 223.857 114.679 224.557 114.887 225.196L117.106 232.025C117.57 233.453 115.936 234.641 114.721 233.758L108.911 229.537C108.368 229.143 107.632 229.143 107.089 229.537L101.279 233.758C100.064 234.641 98.43 233.453 98.894 232.025L101.113 225.196C101.321 224.557 101.093 223.857 100.55 223.463L94.7403 219.242C93.5256 218.359 94.1499 216.438 95.6514 216.438H102.833C103.504 216.438 104.099 216.005 104.307 215.367L106.526 208.537Z" stroke="#FFB84F"/>
<path d="M190.526 208.537C190.99 207.109 193.01 207.109 193.474 208.537L195.693 215.367C195.901 216.005 196.496 216.438 197.167 216.438H204.349C205.85 216.438 206.474 218.359 205.26 219.242L199.45 223.463C198.907 223.857 198.679 224.557 198.887 225.196L201.106 232.025C201.57 233.453 199.936 234.641 198.721 233.758L192.911 229.537C192.368 229.143 191.632 229.143 191.089 229.537L185.279 233.758C184.064 234.641 182.43 233.453 182.894 232.025L185.113 225.196C185.321 224.557 185.093 223.857 184.55 223.463L178.74 219.242C177.526 218.359 178.15 216.438 179.651 216.438H186.833C187.504 216.438 188.099 216.005 188.307 215.367L190.526 208.537Z" fill="#FFB84F"/>
<path d="M190.526 208.537C190.99 207.109 193.01 207.109 193.474 208.537L195.693 215.367C195.901 216.005 196.496 216.438 197.167 216.438H204.349C205.85 216.438 206.474 218.359 205.26 219.242L199.45 223.463C198.907 223.857 198.679 224.557 198.887 225.196L201.106 232.025C201.57 233.453 199.936 234.641 198.721 233.758L192.911 229.537C192.368 229.143 191.632 229.143 191.089 229.537L185.279 233.758C184.064 234.641 182.43 233.453 182.894 232.025L185.113 225.196C185.321 224.557 185.093 223.857 184.55 223.463L178.74 219.242C177.526 218.359 178.15 216.438 179.651 216.438H186.833C187.504 216.438 188.099 216.005 188.307 215.367L190.526 208.537Z" stroke="#FFB84F"/>
<path d="M221.526 178.537C221.99 177.109 224.01 177.109 224.474 178.537L226.693 185.367C226.901 186.005 227.496 186.438 228.167 186.438H235.349C236.85 186.438 237.474 188.359 236.26 189.242L230.45 193.463C229.907 193.857 229.679 194.557 229.887 195.196L232.106 202.025C232.57 203.453 230.936 204.641 229.721 203.758L223.911 199.537C223.368 199.143 222.632 199.143 222.089 199.537L216.279 203.758C215.064 204.641 213.43 203.453 213.894 202.025L216.113 195.196C216.321 194.557 216.093 193.857 215.55 193.463L209.74 189.242C208.526 188.359 209.15 186.438 210.651 186.438H217.833C218.504 186.438 219.099 186.005 219.307 185.367L221.526 178.537Z" fill="#FFB84F"/>
<path d="M221.526 178.537C221.99 177.109 224.01 177.109 224.474 178.537L226.693 185.367C226.901 186.005 227.496 186.438 228.167 186.438H235.349C236.85 186.438 237.474 188.359 236.26 189.242L230.45 193.463C229.907 193.857 229.679 194.557 229.887 195.196L232.106 202.025C232.57 203.453 230.936 204.641 229.721 203.758L223.911 199.537C223.368 199.143 222.632 199.143 222.089 199.537L216.279 203.758C215.064 204.641 213.43 203.453 213.894 202.025L216.113 195.196C216.321 194.557 216.093 193.857 215.55 193.463L209.74 189.242C208.526 188.359 209.15 186.438 210.651 186.438H217.833C218.504 186.438 219.099 186.005 219.307 185.367L221.526 178.537Z" stroke="#FFB84F"/>
<path d="M75.5259 94.5369C75.9899 93.1089 78.0101 93.1089 78.4741 94.5369L80.6933 101.367C80.9008 102.005 81.4959 102.438 82.1674 102.438H89.3486C90.8501 102.438 91.4744 104.359 90.2597 105.242L84.45 109.463C83.9067 109.857 83.6794 110.557 83.8869 111.196L86.106 118.025C86.57 119.453 84.9355 120.641 83.7208 119.758L77.9111 115.537C77.3678 115.143 76.6322 115.143 76.0889 115.537L70.2792 119.758C69.0645 120.641 67.43 119.453 67.894 118.025L70.1131 111.196C70.3206 110.557 70.0933 109.857 69.55 109.463L63.7403 105.242C62.5256 104.359 63.1499 102.438 64.6514 102.438H71.8326C72.5041 102.438 73.0992 102.005 73.3067 101.367L75.5259 94.5369Z" fill="#FFB84F"/>
<path d="M75.5259 94.5369C75.9899 93.1089 78.0101 93.1089 78.4741 94.5369L80.6933 101.367C80.9008 102.005 81.4959 102.438 82.1674 102.438H89.3486C90.8501 102.438 91.4744 104.359 90.2597 105.242L84.45 109.463C83.9067 109.857 83.6794 110.557 83.8869 111.196L86.106 118.025C86.57 119.453 84.9355 120.641 83.7208 119.758L77.9111 115.537C77.3678 115.143 76.6322 115.143 76.0889 115.537L70.2792 119.758C69.0645 120.641 67.43 119.453 67.894 118.025L70.1131 111.196C70.3206 110.557 70.0933 109.857 69.55 109.463L63.7403 105.242C62.5256 104.359 63.1499 102.438 64.6514 102.438H71.8326C72.5041 102.438 73.0992 102.005 73.3067 101.367L75.5259 94.5369Z" stroke="#FFB84F"/>
<path d="M75.5259 178.537C75.9899 177.109 78.0101 177.109 78.4741 178.537L80.6933 185.367C80.9008 186.005 81.4959 186.438 82.1674 186.438H89.3486C90.8501 186.438 91.4744 188.359 90.2597 189.242L84.45 193.463C83.9067 193.857 83.6794 194.557 83.8869 195.196L86.106 202.025C86.57 203.453 84.9355 204.641 83.7208 203.758L77.9111 199.537C77.3678 199.143 76.6322 199.143 76.0889 199.537L70.2792 203.758C69.0645 204.641 67.43 203.453 67.894 202.025L70.1131 195.196C70.3206 194.557 70.0933 193.857 69.55 193.463L63.7403 189.242C62.5256 188.359 63.1499 186.438 64.6514 186.438H71.8326C72.5041 186.438 73.0992 186.005 73.3067 185.367L75.5259 178.537Z" fill="#FFB84F"/>
<path d="M75.5259 178.537C75.9899 177.109 78.0101 177.109 78.4741 178.537L80.6933 185.367C80.9008 186.005 81.4959 186.438 82.1674 186.438H89.3486C90.8501 186.438 91.4744 188.359 90.2597 189.242L84.45 193.463C83.9067 193.857 83.6794 194.557 83.8869 195.196L86.106 202.025C86.57 203.453 84.9355 204.641 83.7208 203.758L77.9111 199.537C77.3678 199.143 76.6322 199.143 76.0889 199.537L70.2792 203.758C69.0645 204.641 67.43 203.453 67.894 202.025L70.1131 195.196C70.3206 194.557 70.0933 193.857 69.55 193.463L63.7403 189.242C62.5256 188.359 63.1499 186.438 64.6514 186.438H71.8326C72.5041 186.438 73.0992 186.005 73.3067 185.367L75.5259 178.537Z" stroke="#FFB84F"/>
<path d="M221.526 94.5369C221.99 93.1089 224.01 93.1089 224.474 94.5369L226.693 101.367C226.901 102.005 227.496 102.438 228.167 102.438H235.349C236.85 102.438 237.474 104.359 236.26 105.242L230.45 109.463C229.907 109.857 229.679 110.557 229.887 111.196L232.106 118.025C232.57 119.453 230.936 120.641 229.721 119.758L223.911 115.537C223.368 115.143 222.632 115.143 222.089 115.537L216.279 119.758C215.064 120.641 213.43 119.453 213.894 118.025L216.113 111.196C216.321 110.557 216.093 109.857 215.55 109.463L209.74 105.242C208.526 104.359 209.15 102.438 210.651 102.438H217.833C218.504 102.438 219.099 102.005 219.307 101.367L221.526 94.5369Z" fill="#FFB84F"/>
<path d="M221.526 94.5369C221.99 93.1089 224.01 93.1089 224.474 94.5369L226.693 101.367C226.901 102.005 227.496 102.438 228.167 102.438H235.349C236.85 102.438 237.474 104.359 236.26 105.242L230.45 109.463C229.907 109.857 229.679 110.557 229.887 111.196L232.106 118.025C232.57 119.453 230.936 120.641 229.721 119.758L223.911 115.537C223.368 115.143 222.632 115.143 222.089 115.537L216.279 119.758C215.064 120.641 213.43 119.453 213.894 118.025L216.113 111.196C216.321 110.557 216.093 109.857 215.55 109.463L209.74 105.242C208.526 104.359 209.15 102.438 210.651 102.438H217.833C218.504 102.438 219.099 102.005 219.307 101.367L221.526 94.5369Z" stroke="#FFB84F"/>
<path d="M190.526 62.5369C190.99 61.1089 193.01 61.1089 193.474 62.5369L195.693 69.3667C195.901 70.0053 196.496 70.4377 197.167 70.4377H204.349C205.85 70.4377 206.474 72.3591 205.26 73.2417L199.45 77.4627C198.907 77.8574 198.679 78.557 198.887 79.1956L201.106 86.0254C201.57 87.4534 199.936 88.6409 198.721 87.7583L192.911 83.5373C192.368 83.1426 191.632 83.1426 191.089 83.5373L185.279 87.7583C184.064 88.6409 182.43 87.4534 182.894 86.0254L185.113 79.1956C185.321 78.557 185.093 77.8574 184.55 77.4627L178.74 73.2417C177.526 72.3591 178.15 70.4377 179.651 70.4377H186.833C187.504 70.4377 188.099 70.0053 188.307 69.3667L190.526 62.5369Z" fill="#FFB84F"/>
<path d="M190.526 62.5369C190.99 61.1089 193.01 61.1089 193.474 62.5369L195.693 69.3667C195.901 70.0053 196.496 70.4377 197.167 70.4377H204.349C205.85 70.4377 206.474 72.3591 205.26 73.2417L199.45 77.4627C198.907 77.8574 198.679 78.557 198.887 79.1956L201.106 86.0254C201.57 87.4534 199.936 88.6409 198.721 87.7583L192.911 83.5373C192.368 83.1426 191.632 83.1426 191.089 83.5373L185.279 87.7583C184.064 88.6409 182.43 87.4534 182.894 86.0254L185.113 79.1956C185.321 78.557 185.093 77.8574 184.55 77.4627L178.74 73.2417C177.526 72.3591 178.15 70.4377 179.651 70.4377H186.833C187.504 70.4377 188.099 70.0053 188.307 69.3667L190.526 62.5369Z" stroke="#FFB84F"/>
</svg>
