<svg width="300" height="300" viewBox="0 0 300 300" fill="none" xmlns="http://www.w3.org/2000/svg">
<path d="M147.147 55.7812C148.045 53.0172 151.955 53.0172 152.853 55.7812L153.368 57.3647C153.769 58.6008 154.921 59.4377 156.221 59.4377H157.886C160.792 59.4377 162 63.1565 159.649 64.8647L158.302 65.8435C157.251 66.6074 156.811 67.9615 157.212 69.1976L157.727 70.7811C158.625 73.5451 155.462 75.8435 153.11 74.1353L151.763 73.1565C150.712 72.3926 149.288 72.3926 148.237 73.1565L146.89 74.1353C144.538 75.8435 141.375 73.5451 142.273 70.7812L142.788 69.1976C143.189 67.9615 142.749 66.6074 141.698 65.8435L140.351 64.8647C138 63.1565 139.208 59.4377 142.114 59.4377H143.779C145.079 59.4377 146.231 58.6008 146.632 57.3647L147.147 55.7812Z" fill="#FFB84F"/>
<path d="M147.147 55.7812C148.045 53.0172 151.955 53.0172 152.853 55.7812L153.368 57.3647C153.769 58.6008 154.921 59.4377 156.221 59.4377H157.886C160.792 59.4377 162 63.1565 159.649 64.8647L158.302 65.8435C157.251 66.6074 156.811 67.9615 157.212 69.1976L157.727 70.7811C158.625 73.5451 155.462 75.8435 153.11 74.1353L151.763 73.1565C150.712 72.3926 149.288 72.3926 148.237 73.1565L146.89 74.1353C144.538 75.8435 141.375 73.5451 142.273 70.7812L142.788 69.1976C143.189 67.9615 142.749 66.6074 141.698 65.8435L140.351 64.8647C138 63.1565 139.208 59.4377 142.114 59.4377H143.779C145.079 59.4377 146.231 58.6008 146.632 57.3647L147.147 55.7812Z" stroke="#FFB84F"/>
<path d="M147.147 225.781C148.045 223.017 151.955 223.017 152.853 225.781L153.368 227.365C153.769 228.601 154.921 229.438 156.221 229.438H157.886C160.792 229.438 162 233.157 159.649 234.865L158.302 235.843C157.251 236.607 156.811 237.961 157.212 239.198L157.727 240.781C158.625 243.545 155.462 245.843 153.11 244.135L151.763 243.157C150.712 242.393 149.288 242.393 148.237 243.157L146.89 244.135C144.538 245.843 141.375 243.545 142.273 240.781L142.788 239.198C143.189 237.961 142.749 236.607 141.698 235.843L140.351 234.865C138 233.157 139.208 229.438 142.114 229.438H143.779C145.079 229.438 146.231 228.601 146.632 227.365L147.147 225.781Z" fill="#FFB84F"/>
<path d="M147.147 225.781C148.045 223.017 151.955 223.017 152.853 225.781L153.368 227.365C153.769 228.601 154.921 229.438 156.221 229.438H157.886C160.792 229.438 162 233.157 159.649 234.865L158.302 235.843C157.251 236.607 156.811 237.961 157.212 239.198L157.727 240.781C158.625 243.545 155.462 245.843 153.11 244.135L151.763 243.157C150.712 242.393 149.288 242.393 148.237 243.157L146.89 244.135C144.538 245.843 141.375 243.545 142.273 240.781L142.788 239.198C143.189 237.961 142.749 236.607 141.698 235.843L140.351 234.865C138 233.157 139.208 229.438 142.114 229.438H143.779C145.079 229.438 146.231 228.601 146.632 227.365L147.147 225.781Z" stroke="#FFB84F"/>
<path d="M147.147 55.7812C148.045 53.0172 151.955 53.0172 152.853 55.7812L153.368 57.3647C153.769 58.6008 154.921 59.4377 156.221 59.4377H157.886C160.792 59.4377 162 63.1565 159.649 64.8647L158.302 65.8435C157.251 66.6074 156.811 67.9615 157.212 69.1976L157.727 70.7811C158.625 73.5451 155.462 75.8435 153.11 74.1353L151.763 73.1565C150.712 72.3926 149.288 72.3926 148.237 73.1565L146.89 74.1353C144.538 75.8435 141.375 73.5451 142.273 70.7812L142.788 69.1976C143.189 67.9615 142.749 66.6074 141.698 65.8435L140.351 64.8647C138 63.1565 139.208 59.4377 142.114 59.4377H143.779C145.079 59.4377 146.231 58.6008 146.632 57.3647L147.147 55.7812Z" fill="#FFB84F"/>
<path d="M147.147 55.7812C148.045 53.0172 151.955 53.0172 152.853 55.7812L153.368 57.3647C153.769 58.6008 154.921 59.4377 156.221 59.4377H157.886C160.792 59.4377 162 63.1565 159.649 64.8647L158.302 65.8435C157.251 66.6074 156.811 67.9615 157.212 69.1976L157.727 70.7811C158.625 73.5451 155.462 75.8435 153.11 74.1353L151.763 73.1565C150.712 72.3926 149.288 72.3926 148.237 73.1565L146.89 74.1353C144.538 75.8435 141.375 73.5451 142.273 70.7812L142.788 69.1976C143.189 67.9615 142.749 66.6074 141.698 65.8435L140.351 64.8647C138 63.1565 139.208 59.4377 142.114 59.4377H143.779C145.079 59.4377 146.231 58.6008 146.632 57.3647L147.147 55.7812Z" stroke="#FFB84F"/>
<path d="M62.1468 140.781C63.0449 138.017 66.9551 138.017 67.8532 140.781L68.3677 142.365C68.7693 143.601 69.9212 144.438 71.2209 144.438H72.886C75.7921 144.438 77.0005 148.157 74.6493 149.865L73.3022 150.843C72.2508 151.607 71.8108 152.961 72.2124 154.198L72.727 155.781C73.625 158.545 70.4616 160.843 68.1104 159.135L66.7634 158.157C65.7119 157.393 64.2881 157.393 63.2366 158.157L61.8896 159.135C59.5384 160.843 56.375 158.545 57.273 155.781L57.7876 154.198C58.1892 152.961 57.7492 151.607 56.6978 150.843L55.3507 149.865C52.9995 148.157 54.2079 144.438 57.114 144.438H58.7791C60.0788 144.438 61.2307 143.601 61.6323 142.365L62.1468 140.781Z" fill="#FFB84F"/>
<path d="M62.1468 140.781C63.0449 138.017 66.9551 138.017 67.8532 140.781L68.3677 142.365C68.7693 143.601 69.9212 144.438 71.2209 144.438H72.886C75.7921 144.438 77.0005 148.157 74.6493 149.865L73.3022 150.843C72.2508 151.607 71.8108 152.961 72.2124 154.198L72.727 155.781C73.625 158.545 70.4616 160.843 68.1104 159.135L66.7634 158.157C65.7119 157.393 64.2881 157.393 63.2366 158.157L61.8896 159.135C59.5384 160.843 56.375 158.545 57.273 155.781L57.7876 154.198C58.1892 152.961 57.7492 151.607 56.6978 150.843L55.3507 149.865C52.9995 148.157 54.2079 144.438 57.114 144.438H58.7791C60.0788 144.438 61.2307 143.601 61.6323 142.365L62.1468 140.781Z" stroke="#FFB84F"/>
<path d="M232.147 140.781C233.045 138.017 236.955 138.017 237.853 140.781L238.368 142.365C238.769 143.601 239.921 144.438 241.221 144.438H242.886C245.792 144.438 247 148.157 244.649 149.865L243.302 150.843C242.251 151.607 241.811 152.961 242.212 154.198L242.727 155.781C243.625 158.545 240.462 160.843 238.11 159.135L236.763 158.157C235.712 157.393 234.288 157.393 233.237 158.157L231.89 159.135C229.538 160.843 226.375 158.545 227.273 155.781L227.788 154.198C228.189 152.961 227.749 151.607 226.698 150.843L225.351 149.865C223 148.157 224.208 144.438 227.114 144.438H228.779C230.079 144.438 231.231 143.601 231.632 142.365L232.147 140.781Z" fill="#FFB84F"/>
<path d="M232.147 140.781C233.045 138.017 236.955 138.017 237.853 140.781L238.368 142.365C238.769 143.601 239.921 144.438 241.221 144.438H242.886C245.792 144.438 247 148.157 244.649 149.865L243.302 150.843C242.251 151.607 241.811 152.961 242.212 154.198L242.727 155.781C243.625 158.545 240.462 160.843 238.11 159.135L236.763 158.157C235.712 157.393 234.288 157.393 233.237 158.157L231.89 159.135C229.538 160.843 226.375 158.545 227.273 155.781L227.788 154.198C228.189 152.961 227.749 151.607 226.698 150.843L225.351 149.865C223 148.157 224.208 144.438 227.114 144.438H228.779C230.079 144.438 231.231 143.601 231.632 142.365L232.147 140.781Z" stroke="#FFB84F"/>
<path d="M105.147 66.7812C106.045 64.0172 109.955 64.0172 110.853 66.7812L111.368 68.3647C111.769 69.6008 112.921 70.4377 114.221 70.4377H115.886C118.792 70.4377 120 74.1565 117.649 75.8647L116.302 76.8435C115.251 77.6074 114.811 78.9615 115.212 80.1976L115.727 81.7811C116.625 84.5451 113.462 86.8435 111.11 85.1353L109.763 84.1565C108.712 83.3926 107.288 83.3926 106.237 84.1565L104.89 85.1353C102.538 86.8435 99.375 84.5451 100.273 81.7812L100.788 80.1976C101.189 78.9615 100.749 77.6074 99.6978 76.8435L98.3507 75.8647C95.9995 74.1565 97.2079 70.4377 100.114 70.4377H101.779C103.079 70.4377 104.231 69.6008 104.632 68.3647L105.147 66.7812Z" fill="#FFB84F"/>
<path d="M105.147 66.7812C106.045 64.0172 109.955 64.0172 110.853 66.7812L111.368 68.3647C111.769 69.6008 112.921 70.4377 114.221 70.4377H115.886C118.792 70.4377 120 74.1565 117.649 75.8647L116.302 76.8435C115.251 77.6074 114.811 78.9615 115.212 80.1976L115.727 81.7811C116.625 84.5451 113.462 86.8435 111.11 85.1353L109.763 84.1565C108.712 83.3926 107.288 83.3926 106.237 84.1565L104.89 85.1353C102.538 86.8435 99.375 84.5451 100.273 81.7812L100.788 80.1976C101.189 78.9615 100.749 77.6074 99.6978 76.8435L98.3507 75.8647C95.9995 74.1565 97.2079 70.4377 100.114 70.4377H101.779C103.079 70.4377 104.231 69.6008 104.632 68.3647L105.147 66.7812Z" stroke="#FFB84F"/>
<path d="M105.147 212.781C106.045 210.017 109.955 210.017 110.853 212.781L111.368 214.365C111.769 215.601 112.921 216.438 114.221 216.438H115.886C118.792 216.438 120 220.157 117.649 221.865L116.302 222.843C115.251 223.607 114.811 224.961 115.212 226.198L115.727 227.781C116.625 230.545 113.462 232.843 111.11 231.135L109.763 230.157C108.712 229.393 107.288 229.393 106.237 230.157L104.89 231.135C102.538 232.843 99.375 230.545 100.273 227.781L100.788 226.198C101.189 224.961 100.749 223.607 99.6978 222.843L98.3507 221.865C95.9995 220.157 97.2079 216.438 100.114 216.438H101.779C103.079 216.438 104.231 215.601 104.632 214.365L105.147 212.781Z" fill="#FFB84F"/>
<path d="M105.147 212.781C106.045 210.017 109.955 210.017 110.853 212.781L111.368 214.365C111.769 215.601 112.921 216.438 114.221 216.438H115.886C118.792 216.438 120 220.157 117.649 221.865L116.302 222.843C115.251 223.607 114.811 224.961 115.212 226.198L115.727 227.781C116.625 230.545 113.462 232.843 111.11 231.135L109.763 230.157C108.712 229.393 107.288 229.393 106.237 230.157L104.89 231.135C102.538 232.843 99.375 230.545 100.273 227.781L100.788 226.198C101.189 224.961 100.749 223.607 99.6978 222.843L98.3507 221.865C95.9995 220.157 97.2079 216.438 100.114 216.438H101.779C103.079 216.438 104.231 215.601 104.632 214.365L105.147 212.781Z" stroke="#FFB84F"/>
<path d="M189.147 212.781C190.045 210.017 193.955 210.017 194.853 212.781L195.368 214.365C195.769 215.601 196.921 216.438 198.221 216.438H199.886C202.792 216.438 204 220.157 201.649 221.865L200.302 222.843C199.251 223.607 198.811 224.961 199.212 226.198L199.727 227.781C200.625 230.545 197.462 232.843 195.11 231.135L193.763 230.157C192.712 229.393 191.288 229.393 190.237 230.157L188.89 231.135C186.538 232.843 183.375 230.545 184.273 227.781L184.788 226.198C185.189 224.961 184.749 223.607 183.698 222.843L182.351 221.865C180 220.157 181.208 216.438 184.114 216.438H185.779C187.079 216.438 188.231 215.601 188.632 214.365L189.147 212.781Z" fill="#FFB84F"/>
<path d="M189.147 212.781C190.045 210.017 193.955 210.017 194.853 212.781L195.368 214.365C195.769 215.601 196.921 216.438 198.221 216.438H199.886C202.792 216.438 204 220.157 201.649 221.865L200.302 222.843C199.251 223.607 198.811 224.961 199.212 226.198L199.727 227.781C200.625 230.545 197.462 232.843 195.11 231.135L193.763 230.157C192.712 229.393 191.288 229.393 190.237 230.157L188.89 231.135C186.538 232.843 183.375 230.545 184.273 227.781L184.788 226.198C185.189 224.961 184.749 223.607 183.698 222.843L182.351 221.865C180 220.157 181.208 216.438 184.114 216.438H185.779C187.079 216.438 188.231 215.601 188.632 214.365L189.147 212.781Z" stroke="#FFB84F"/>
<path d="M220.147 182.781C221.045 180.017 224.955 180.017 225.853 182.781L226.368 184.365C226.769 185.601 227.921 186.438 229.221 186.438H230.886C233.792 186.438 235 190.157 232.649 191.865L231.302 192.843C230.251 193.607 229.811 194.961 230.212 196.198L230.727 197.781C231.625 200.545 228.462 202.843 226.11 201.135L224.763 200.157C223.712 199.393 222.288 199.393 221.237 200.157L219.89 201.135C217.538 202.843 214.375 200.545 215.273 197.781L215.788 196.198C216.189 194.961 215.749 193.607 214.698 192.843L213.351 191.865C211 190.157 212.208 186.438 215.114 186.438H216.779C218.079 186.438 219.231 185.601 219.632 184.365L220.147 182.781Z" fill="#FFB84F"/>
<path d="M220.147 182.781C221.045 180.017 224.955 180.017 225.853 182.781L226.368 184.365C226.769 185.601 227.921 186.438 229.221 186.438H230.886C233.792 186.438 235 190.157 232.649 191.865L231.302 192.843C230.251 193.607 229.811 194.961 230.212 196.198L230.727 197.781C231.625 200.545 228.462 202.843 226.11 201.135L224.763 200.157C223.712 199.393 222.288 199.393 221.237 200.157L219.89 201.135C217.538 202.843 214.375 200.545 215.273 197.781L215.788 196.198C216.189 194.961 215.749 193.607 214.698 192.843L213.351 191.865C211 190.157 212.208 186.438 215.114 186.438H216.779C218.079 186.438 219.231 185.601 219.632 184.365L220.147 182.781Z" stroke="#FFB84F"/>
<path d="M74.1468 98.7812C75.0449 96.0172 78.9551 96.0172 79.8532 98.7812L80.3677 100.365C80.7693 101.601 81.9212 102.438 83.2209 102.438H84.886C87.7921 102.438 89.0005 106.157 86.6493 107.865L85.3022 108.843C84.2508 109.607 83.8108 110.961 84.2124 112.198L84.727 113.781C85.625 116.545 82.4616 118.843 80.1104 117.135L78.7634 116.157C77.7119 115.393 76.2881 115.393 75.2366 116.157L73.8896 117.135C71.5384 118.843 68.375 116.545 69.273 113.781L69.7876 112.198C70.1892 110.961 69.7492 109.607 68.6978 108.843L67.3507 107.865C64.9995 106.157 66.2079 102.438 69.114 102.438H70.7791C72.0788 102.438 73.2307 101.601 73.6323 100.365L74.1468 98.7812Z" fill="#FFB84F"/>
<path d="M74.1468 98.7812C75.0449 96.0172 78.9551 96.0172 79.8532 98.7812L80.3677 100.365C80.7693 101.601 81.9212 102.438 83.2209 102.438H84.886C87.7921 102.438 89.0005 106.157 86.6493 107.865L85.3022 108.843C84.2508 109.607 83.8108 110.961 84.2124 112.198L84.727 113.781C85.625 116.545 82.4616 118.843 80.1104 117.135L78.7634 116.157C77.7119 115.393 76.2881 115.393 75.2366 116.157L73.8896 117.135C71.5384 118.843 68.375 116.545 69.273 113.781L69.7876 112.198C70.1892 110.961 69.7492 109.607 68.6978 108.843L67.3507 107.865C64.9995 106.157 66.2079 102.438 69.114 102.438H70.7791C72.0788 102.438 73.2307 101.601 73.6323 100.365L74.1468 98.7812Z" stroke="#FFB84F"/>
<path d="M74.1468 182.781C75.0449 180.017 78.9551 180.017 79.8532 182.781L80.3677 184.365C80.7693 185.601 81.9212 186.438 83.2209 186.438H84.886C87.7921 186.438 89.0005 190.157 86.6493 191.865L85.3022 192.843C84.2508 193.607 83.8108 194.961 84.2124 196.198L84.727 197.781C85.625 200.545 82.4616 202.843 80.1104 201.135L78.7634 200.157C77.7119 199.393 76.2881 199.393 75.2366 200.157L73.8896 201.135C71.5384 202.843 68.375 200.545 69.273 197.781L69.7876 196.198C70.1892 194.961 69.7492 193.607 68.6978 192.843L67.3507 191.865C64.9995 190.157 66.2079 186.438 69.114 186.438H70.7791C72.0788 186.438 73.2307 185.601 73.6323 184.365L74.1468 182.781Z" fill="#FFB84F"/>
<path d="M74.1468 182.781C75.0449 180.017 78.9551 180.017 79.8532 182.781L80.3677 184.365C80.7693 185.601 81.9212 186.438 83.2209 186.438H84.886C87.7921 186.438 89.0005 190.157 86.6493 191.865L85.3022 192.843C84.2508 193.607 83.8108 194.961 84.2124 196.198L84.727 197.781C85.625 200.545 82.4616 202.843 80.1104 201.135L78.7634 200.157C77.7119 199.393 76.2881 199.393 75.2366 200.157L73.8896 201.135C71.5384 202.843 68.375 200.545 69.273 197.781L69.7876 196.198C70.1892 194.961 69.7492 193.607 68.6978 192.843L67.3507 191.865C64.9995 190.157 66.2079 186.438 69.114 186.438H70.7791C72.0788 186.438 73.2307 185.601 73.6323 184.365L74.1468 182.781Z" stroke="#FFB84F"/>
<path d="M220.147 98.7812C221.045 96.0172 224.955 96.0172 225.853 98.7812L226.368 100.365C226.769 101.601 227.921 102.438 229.221 102.438H230.886C233.792 102.438 235 106.157 232.649 107.865L231.302 108.843C230.251 109.607 229.811 110.961 230.212 112.198L230.727 113.781C231.625 116.545 228.462 118.843 226.11 117.135L224.763 116.157C223.712 115.393 222.288 115.393 221.237 116.157L219.89 117.135C217.538 118.843 214.375 116.545 215.273 113.781L215.788 112.198C216.189 110.961 215.749 109.607 214.698 108.843L213.351 107.865C211 106.157 212.208 102.438 215.114 102.438H216.779C218.079 102.438 219.231 101.601 219.632 100.365L220.147 98.7812Z" fill="#FFB84F"/>
<path d="M220.147 98.7812C221.045 96.0172 224.955 96.0172 225.853 98.7812L226.368 100.365C226.769 101.601 227.921 102.438 229.221 102.438H230.886C233.792 102.438 235 106.157 232.649 107.865L231.302 108.843C230.251 109.607 229.811 110.961 230.212 112.198L230.727 113.781C231.625 116.545 228.462 118.843 226.11 117.135L224.763 116.157C223.712 115.393 222.288 115.393 221.237 116.157L219.89 117.135C217.538 118.843 214.375 116.545 215.273 113.781L215.788 112.198C216.189 110.961 215.749 109.607 214.698 108.843L213.351 107.865C211 106.157 212.208 102.438 215.114 102.438H216.779C218.079 102.438 219.231 101.601 219.632 100.365L220.147 98.7812Z" stroke="#FFB84F"/>
<path d="M189.147 66.7812C190.045 64.0172 193.955 64.0172 194.853 66.7812L195.368 68.3647C195.769 69.6008 196.921 70.4377 198.221 70.4377H199.886C202.792 70.4377 204 74.1565 201.649 75.8647L200.302 76.8435C199.251 77.6074 198.811 78.9615 199.212 80.1976L199.727 81.7811C200.625 84.5451 197.462 86.8435 195.11 85.1353L193.763 84.1565C192.712 83.3926 191.288 83.3926 190.237 84.1565L188.89 85.1353C186.538 86.8435 183.375 84.5451 184.273 81.7812L184.788 80.1976C185.189 78.9615 184.749 77.6074 183.698 76.8435L182.351 75.8647C180 74.1565 181.208 70.4377 184.114 70.4377H185.779C187.079 70.4377 188.231 69.6008 188.632 68.3647L189.147 66.7812Z" fill="#FFB84F"/>
<path d="M189.147 66.7812C190.045 64.0172 193.955 64.0172 194.853 66.7812L195.368 68.3647C195.769 69.6008 196.921 70.4377 198.221 70.4377H199.886C202.792 70.4377 204 74.1565 201.649 75.8647L200.302 76.8435C199.251 77.6074 198.811 78.9615 199.212 80.1976L199.727 81.7811C200.625 84.5451 197.462 86.8435 195.11 85.1353L193.763 84.1565C192.712 83.3926 191.288 83.3926 190.237 84.1565L188.89 85.1353C186.538 86.8435 183.375 84.5451 184.273 81.7812L184.788 80.1976C185.189 78.9615 184.749 77.6074 183.698 76.8435L182.351 75.8647C180 74.1565 181.208 70.4377 184.114 70.4377H185.779C187.079 70.4377 188.231 69.6008 188.632 68.3647L189.147 66.7812Z" stroke="#FFB84F"/>
</svg>
