<svg width="300" height="300" viewBox="0 0 300 300" fill="none" xmlns="http://www.w3.org/2000/svg">
<path d="M113.266 82.4759C111.796 82.3107 110.329 82.8045 109.259 83.8246L66.2264 124.822C64.1935 126.759 64.1536 129.99 66.138 131.976L84.7712 150.628C86.7274 152.586 89.9023 152.583 91.854 150.62L107.074 135.314C109.035 133.341 112.232 133.352 114.184 135.334C155.988 177.781 189.073 211.407 229.916 252.897C241.543 264.952 261.786 248.533 248.809 234.608C205.591 192.459 175.318 161.742 131.051 118.271C129.072 116.328 129.045 113.139 131 111.171L147.571 94.4886C150.519 91.5217 148.738 86.4632 144.583 85.9961L113.266 82.4759Z" fill="#FCD116" stroke="#FCD116" stroke-width="12" stroke-linecap="round" stroke-linejoin="round"/>
<path d="M109.286 211.695C191.123 287.724 320.948 162.475 183.797 59.7709C179.226 56.3484 174.041 62.2217 177.507 66.7592C275.82 195.46 159.543 233.358 115.826 190.184V190.184C114.52 189.109 112.599 189.252 111.473 190.516C111.226 190.794 110.979 191.072 110.732 191.349C109.117 193.165 106.343 193.128 104.05 192.323C102.258 191.694 100.432 191.724 99.01 192.748C97.1101 194.115 95.1826 195.812 92.8955 196.311C88.7291 197.22 85.9521 200.215 84.3445 204.965C83.9477 206.138 83.2307 207.191 82.1951 207.87C69.6821 216.066 56.4501 223.542 48.5444 236.351C48.3439 236.676 48.1817 237.034 48.0713 237.399C43.9089 251.178 52.5379 257.328 62.5438 256.5C63.0093 256.461 63.4703 256.339 63.8985 256.153C79.9236 249.173 85.3995 234.783 93.9079 222.54C94.5157 221.666 95.4065 221.035 96.412 220.683C102.206 218.658 106.927 215.891 107.833 210.448" fill="#FCD116"/>
<path d="M109.286 211.695C191.123 287.724 320.948 162.475 183.797 59.7709C179.226 56.3484 174.041 62.2217 177.507 66.7592C275.82 195.46 159.543 233.358 115.826 190.184V190.184C114.52 189.109 112.599 189.252 111.473 190.516C111.226 190.794 110.979 191.072 110.732 191.349C109.117 193.165 106.343 193.128 104.05 192.323C102.258 191.694 100.432 191.724 99.01 192.748C97.1101 194.115 95.1826 195.812 92.8955 196.311C88.7291 197.22 85.9521 200.215 84.3445 204.965C83.9477 206.138 83.2307 207.191 82.1951 207.87C69.6821 216.066 56.4501 223.542 48.5444 236.351C48.3439 236.676 48.1817 237.034 48.0713 237.399C43.9089 251.178 52.5379 257.328 62.5438 256.5C63.0093 256.461 63.4703 256.339 63.8985 256.153C79.9236 249.173 85.3995 234.783 93.9079 222.54C94.5157 221.666 95.4065 221.035 96.412 220.683C102.206 218.658 106.927 215.891 107.833 210.448" stroke="#FCD116" stroke-width="12" stroke-linecap="round" stroke-linejoin="round"/>
</svg>
