<svg width="300" height="300" viewBox="0 0 300 300" fill="none" xmlns="http://www.w3.org/2000/svg">
<path d="M111.283 79.2341C110.401 79.135 109.521 79.4313 108.878 80.0433L60.4502 126.182C59.8652 126.739 59.5297 127.509 59.5198 128.317C59.5098 129.125 59.8261 129.903 60.3971 130.474L86.1943 156.297C86.7579 156.862 87.5228 157.178 88.3202 157.177C89.1176 157.176 89.8818 156.858 90.444 156.292L110.626 135.996C139.545 165.359 164.242 190.452 190.096 216.719C202.214 229.031 214.586 241.602 227.767 254.991C234.91 262.386 244.732 260.925 250.579 255.739C253.522 253.13 255.635 249.458 255.958 245.266C256.285 241.013 254.743 236.575 251.004 232.563C250.971 232.528 250.938 232.494 250.904 232.46C226.942 209.092 207.002 189.278 186.443 168.851C169.486 152.002 152.109 134.736 131.709 114.714L156.988 89.2656C157.799 88.4492 158.072 87.2409 157.69 86.1554C157.308 85.07 156.339 84.2987 155.195 84.1701L111.283 79.2341Z" fill="#FCD116" stroke="#FCD116" stroke-width="6" stroke-linecap="round" stroke-linejoin="round"/>
<mask id="path-2-outside-1" maskUnits="userSpaceOnUse" x="41" y="35" width="209" height="228" fill="black">
<rect fill="white" x="41" y="35" width="209" height="228"/>
<path d="M109.286 211.695C195.917 292.178 336.322 147.111 156.884 42C290.385 190.496 162.23 236.011 115.826 190.184L113.491 188.262C111.57 190.392 109.701 192.522 107.781 194.653C104.199 191.275 98.5936 190.236 96.8807 196.056C89.8215 195.588 85.6691 199.485 83.8005 206.811C70.6683 215.54 56.4461 223.178 48.245 236.843C43.5735 251.339 52.8127 257.626 63.2458 256.431C80.3747 249.312 85.6691 233.881 94.8564 221.203C101.345 219.125 106.847 216.371 107.833 210.448"/>
</mask>
<path d="M109.286 211.695C195.917 292.178 336.322 147.111 156.884 42C290.385 190.496 162.23 236.011 115.826 190.184L113.491 188.262C111.57 190.392 109.701 192.522 107.781 194.653C104.199 191.275 98.5936 190.236 96.8807 196.056C89.8215 195.588 85.6691 199.485 83.8005 206.811C70.6683 215.54 56.4461 223.178 48.245 236.843C43.5735 251.339 52.8127 257.626 63.2458 256.431C80.3747 249.312 85.6691 233.881 94.8564 221.203C101.345 219.125 106.847 216.371 107.833 210.448" fill="#FCD116"/>
<path d="M113.37 207.299C110.942 205.044 107.146 205.183 104.89 207.611C102.635 210.039 102.775 213.835 105.202 216.091L113.37 207.299ZM156.884 42L159.916 36.8228C157.364 35.3279 154.104 35.9157 152.234 38.2076C150.365 40.4996 150.445 43.8119 152.422 46.0114L156.884 42ZM115.826 190.184L120.042 185.915C119.914 185.788 119.779 185.667 119.639 185.552L115.826 190.184ZM113.491 188.262L117.303 183.629C114.826 181.59 111.183 181.861 109.034 184.244L113.491 188.262ZM107.781 194.653L103.665 199.018C104.839 200.126 106.411 200.713 108.024 200.648C109.637 200.582 111.156 199.869 112.237 198.67L107.781 194.653ZM96.8807 196.056L96.4841 202.042C99.2869 202.228 101.843 200.444 102.637 197.75L96.8807 196.056ZM83.8005 206.811L87.1219 211.808C88.3591 210.985 89.2472 209.733 89.6143 208.294L83.8005 206.811ZM48.245 236.843L43.1004 233.755C42.8647 234.148 42.6747 234.566 42.5342 235.002L48.245 236.843ZM63.2458 256.431L63.9286 262.392C64.4855 262.328 65.0307 262.186 65.5483 261.971L63.2458 256.431ZM94.8564 221.203L93.0261 215.489C91.8089 215.879 90.748 216.647 89.998 217.682L94.8564 221.203ZM113.751 211.433C114.296 208.165 112.087 205.074 108.818 204.529C105.55 203.985 102.459 206.194 101.914 209.462L113.751 211.433ZM105.202 216.091C151.595 259.191 212.755 241.808 238.012 199.522C250.719 178.248 254.31 150.824 242.91 121.972C231.554 93.2303 205.536 63.5458 159.916 36.8228L153.851 47.1772C197.951 73.0098 221.672 100.875 231.749 126.381C241.783 151.776 238.503 175.297 227.71 193.369C205.966 229.773 153.608 244.681 113.37 207.299L105.202 216.091ZM152.422 46.0114C185.451 82.7501 201.783 112.576 207.49 135.683C213.15 158.601 208.348 174.66 199.301 185.016C190.085 195.565 175.669 201.115 160.54 201.246C145.413 201.378 130.33 196.074 120.042 185.915L111.61 194.453C124.525 207.207 142.862 213.4 160.644 213.246C178.423 213.091 196.402 206.574 208.338 192.911C220.443 179.054 225.549 158.755 219.14 132.806C212.779 107.048 195.068 75.4979 161.346 37.9886L152.422 46.0114ZM119.639 185.552L117.303 183.629L109.678 192.894L112.013 194.817L119.639 185.552ZM109.034 184.244C108.058 185.327 107.097 186.407 106.152 187.47C105.203 188.537 104.269 189.587 103.325 190.635L112.237 198.67C113.213 197.588 114.174 196.507 115.119 195.445C116.069 194.377 117.003 193.327 117.947 192.279L109.034 184.244ZM111.897 190.287C109.37 187.904 105.623 185.816 101.498 185.907C99.3076 185.955 97.0033 186.638 95.0194 188.25C93.0605 189.841 91.8175 192.008 91.1249 194.361L102.637 197.75C102.8 197.193 102.9 197.308 102.586 197.563C102.441 197.681 102.269 197.776 102.095 197.836C101.927 197.894 101.807 197.903 101.762 197.904C101.699 197.905 101.891 197.893 102.319 198.088C102.731 198.276 103.211 198.59 103.665 199.018L111.897 190.287ZM97.2773 190.069C92.494 189.752 88.0642 190.915 84.5076 193.939C81.0816 196.852 79.1023 200.954 77.9866 205.328L89.6143 208.294C90.3673 205.342 91.3985 203.832 92.2807 203.082C93.0322 202.443 94.2083 201.892 96.4841 202.042L97.2773 190.069ZM80.4791 201.814C68.0873 210.051 52.1941 218.603 43.1004 233.755L53.3896 239.93C60.6982 227.752 73.2493 221.029 87.1219 211.808L80.4791 201.814ZM42.5342 235.002C39.7688 243.584 40.7153 251.299 45.7025 256.623C50.4438 261.684 57.5203 263.126 63.9286 262.392L62.563 250.47C58.5383 250.931 55.7786 249.826 54.4599 248.419C53.3871 247.274 52.0498 244.598 53.9558 238.683L42.5342 235.002ZM65.5483 261.971C75.4619 257.852 81.8675 251.314 86.8788 244.435C89.3453 241.049 91.5227 237.51 93.56 234.2C95.638 230.823 97.5738 227.678 99.7148 224.724L89.998 217.682C87.5454 221.067 85.3741 224.605 83.3402 227.91C81.2656 231.281 79.3262 234.422 77.1796 237.369C72.9646 243.155 68.1586 247.892 60.9433 250.89L65.5483 261.971ZM96.6867 226.917C102.937 224.915 112.115 221.264 113.751 211.433L101.914 209.462C101.733 210.553 101.202 211.447 99.8668 212.424C98.3607 213.525 96.1186 214.499 93.0261 215.489L96.6867 226.917Z" fill="#FCD116" mask="url(#path-2-outside-1)"/>
</svg>
