<svg width="300" height="300" viewBox="0 0 300 300" fill="none" xmlns="http://www.w3.org/2000/svg">
<path d="M110.948 82.2153L62.5195 128.354L88.3167 154.177L110.636 131.731C154.133 175.896 187.924 210.24 229.916 252.897C241.543 264.952 261.786 248.533 248.809 234.608C204.43 191.327 173.702 160.1 127.454 114.741L154.86 87.1513L110.948 82.2153Z" fill="#FCD116" stroke="#FCD116" stroke-width="12" stroke-linecap="round" stroke-linejoin="round"/>
<path d="M109.286 211.695C195.917 292.178 336.322 147.111 156.884 42C290.385 190.496 162.23 236.011 115.826 190.184L113.491 188.262C111.57 190.392 109.701 192.522 107.781 194.653C104.199 191.275 98.5936 190.236 96.8807 196.056C89.8215 195.588 85.6691 199.485 83.8005 206.811C70.6683 215.54 56.4461 223.178 48.245 236.843C43.5735 251.339 52.8127 257.626 63.2458 256.431C80.3747 249.312 85.6691 233.881 94.8564 221.203C101.345 219.125 106.847 216.371 107.833 210.448" fill="#FCD116"/>
<path d="M109.286 211.695C195.917 292.178 336.322 147.111 156.884 42C290.385 190.496 162.23 236.011 115.826 190.184L113.491 188.262C111.57 190.392 109.701 192.522 107.781 194.653C104.199 191.275 98.5936 190.236 96.8807 196.056C89.8215 195.588 85.6691 199.485 83.8005 206.811C70.6683 215.54 56.4461 223.178 48.245 236.843C43.5735 251.339 52.8127 257.626 63.2458 256.431C80.3747 249.312 85.6691 233.881 94.8564 221.203C101.345 219.125 106.847 216.371 107.833 210.448" stroke="#FCD116" stroke-width="12" stroke-linecap="round" stroke-linejoin="round"/>
</svg>
