<svg width="300" height="300" viewBox="0 0 300 300" fill="none" xmlns="http://www.w3.org/2000/svg">
<path fill-rule="evenodd" clip-rule="evenodd" d="M155.312 142.88C154.794 143.507 154.077 143.056 154.464 142.341C159.718 132.643 173.367 110.495 189.567 108.082C205.8 105.664 218.447 109.891 229.08 122.391C233.573 127.674 235.208 132.707 237.294 138.153C237.531 138.772 236.851 139.37 236.253 139.085C234.782 138.381 233.311 137.893 231.74 137.812C227.759 137.506 224.658 139.588 221.805 142.479C218.564 146.031 214.899 148.678 209.73 150.755C202.526 153.897 194.352 152.91 188.184 148.355C184.161 145.504 181.822 141.401 177.436 138.808C173.838 136.861 170.57 135.993 165.611 136.824C159.522 138.625 157.278 140.499 155.312 142.88Z" fill="white" stroke="white" stroke-width="1.6" stroke-linecap="round" stroke-linejoin="round"/>
<path fill-rule="evenodd" clip-rule="evenodd" d="M146.873 145.282C147.324 145.959 146.682 146.513 146.11 145.935C138.32 138.064 120.934 118.426 123.396 102.123C125.861 85.7974 133.731 74.9306 148.896 68.4008C155.329 65.6306 160.673 65.5506 166.551 65.1511C167.213 65.1061 167.585 65.9337 167.135 66.4206C166.019 67.628 165.11 68.8973 164.567 70.3843C163.094 74.1154 164.187 77.7051 166.133 81.2943C168.603 85.4506 170.074 89.7485 170.549 95.3216C171.451 103.162 168.08 110.719 161.859 115.301C157.918 118.323 153.265 119.362 149.465 122.81C146.522 125.691 144.717 128.573 144.052 133.578C143.988 139.982 145.144 142.684 146.873 145.282Z" fill="white" stroke="white" stroke-width="1.6" stroke-linecap="round" stroke-linejoin="round"/>
<path fill-rule="evenodd" clip-rule="evenodd" d="M159.184 150.966C158.425 150.674 158.625 149.851 159.426 149.991C170.29 151.893 195.627 157.801 203.06 172.396C210.509 187.02 210.517 200.354 202.04 214.407C198.459 220.345 194.205 223.494 189.703 227.202C189.192 227.623 188.409 227.169 188.49 226.511C188.69 224.892 188.686 223.343 188.263 221.827C187.289 217.955 184.33 215.676 180.682 213.889C176.285 211.944 172.611 209.309 169 205.068C163.733 199.235 162.073 191.17 164.432 183.875C165.858 179.155 169.006 175.633 170.071 170.651C170.775 166.621 170.56 163.247 168.197 158.808C164.556 153.606 162.066 152.073 159.184 150.966Z" fill="white" stroke="white" stroke-width="1.6" stroke-linecap="round" stroke-linejoin="round"/>
<path fill-rule="evenodd" clip-rule="evenodd" d="M145.224 153.325C146.011 153.119 146.329 153.904 145.597 154.258C135.666 159.056 111.645 169.049 97.0898 161.539C82.5057 154.013 74.7144 143.191 73.3932 126.833C72.8349 119.921 74.4501 114.881 75.9406 109.243C76.1099 108.602 77.0114 108.514 77.3294 109.096C78.1124 110.527 79.0201 111.782 80.2481 112.766C83.299 115.341 87.0321 115.464 91.0366 114.786C95.7421 113.798 100.264 113.792 105.672 115.128C113.353 116.789 119.409 122.369 121.752 129.669C123.349 134.333 122.849 139.031 124.893 143.697C126.674 147.38 128.818 149.994 133.328 152.219C139.321 154.317 142.237 154.108 145.224 153.325Z" fill="white" stroke="white" stroke-width="1.6" stroke-linecap="round" stroke-linejoin="round"/>
<path fill-rule="evenodd" clip-rule="evenodd" d="M153.38 157.646C153.447 156.835 154.293 156.795 154.383 157.604C155.609 168.565 157.054 194.541 145.134 205.774C133.19 217.029 120.394 220.782 104.526 216.593C97.8213 214.823 93.6045 211.625 88.7817 208.346C88.2339 207.973 88.4505 207.094 89.1043 206.987C90.7142 206.724 92.2002 206.285 93.5364 205.454C96.9783 203.431 98.3349 199.951 99.0254 195.949C99.6577 191.183 101.154 186.916 104.211 182.259C108.33 175.566 115.605 171.708 123.269 171.924C128.199 171.967 132.463 173.999 137.544 173.623C141.61 173.166 144.787 172.012 148.384 168.498C152.354 163.543 153.126 160.722 153.38 157.646Z" fill="white" stroke="white" stroke-width="1.6" stroke-linecap="round" stroke-linejoin="round"/>
</svg>
