<svg width="300" height="300" viewBox="0 0 300 300" fill="none" xmlns="http://www.w3.org/2000/svg">
<path fill-rule="evenodd" clip-rule="evenodd" d="M152.154 146.853C152.154 146.853 168.756 111.182 189.567 108.082C205.8 105.664 218.447 109.891 229.08 122.391C234.081 128.271 235.541 133.843 238.024 140.018C235.94 138.836 233.939 137.925 231.74 137.812C227.759 137.506 224.658 139.588 221.805 142.479C218.564 146.031 214.899 148.678 209.73 150.755C202.526 153.897 194.352 152.91 188.184 148.355C184.161 145.504 181.822 141.401 177.436 138.808C173.838 136.861 170.57 135.993 165.611 136.824C156.499 139.518 155.997 142.379 152.154 146.853Z" fill="white" stroke="white" stroke-width="1.6" stroke-linecap="round" stroke-linejoin="round"/>
<path fill-rule="evenodd" clip-rule="evenodd" d="M149.751 149.448C149.751 149.448 120.237 123.04 123.396 102.123C125.861 85.7974 133.731 74.9306 148.896 68.4008C156.052 65.3193 161.86 65.5667 168.555 65C166.798 66.6531 165.327 68.3061 164.567 70.3843C163.094 74.1154 164.187 77.7051 166.133 81.2943C168.603 85.4506 170.074 89.7485 170.549 95.3216C171.451 103.162 168.08 110.719 161.859 115.301C157.918 118.323 153.265 119.362 149.465 122.81C146.522 125.691 144.717 128.573 144.052 133.578C143.957 143.119 146.57 144.442 149.751 149.448Z" fill="white" stroke="white" stroke-width="1.6" stroke-linecap="round" stroke-linejoin="round"/>
<path fill-rule="evenodd" clip-rule="evenodd" d="M154.414 149.233C154.414 149.233 193.511 153.646 203.06 172.396C210.509 187.02 210.517 200.354 202.04 214.407C198.053 221.017 193.234 224.171 188.167 228.487C188.626 226.135 188.854 223.948 188.263 221.827C187.289 217.955 184.33 215.676 180.682 213.889C176.285 211.944 172.611 209.309 169 205.068C163.733 199.235 162.073 191.17 164.432 183.875C165.858 179.155 169.006 175.633 170.071 170.651C170.775 166.621 170.56 163.247 168.197 158.808C162.749 151.023 159.877 151.456 154.414 149.233Z" fill="white" stroke="white" stroke-width="1.6" stroke-linecap="round" stroke-linejoin="round"/>
<path fill-rule="evenodd" clip-rule="evenodd" d="M150.109 151.947C150.109 151.947 115.788 171.187 97.0898 161.539C82.5057 154.013 74.7144 143.191 73.3932 126.833C72.7718 119.139 74.8433 113.765 76.4382 107.303C77.4385 109.48 78.5296 111.389 80.2481 112.766C83.299 115.341 87.0321 115.464 91.0366 114.786C95.7421 113.798 100.264 113.792 105.672 115.128C113.353 116.789 119.409 122.369 121.752 129.669C123.349 134.333 122.849 139.031 124.893 143.697C126.674 147.38 128.818 149.994 133.328 152.219C142.296 155.359 144.375 153.331 150.109 151.947Z" fill="white" stroke="white" stroke-width="1.6" stroke-linecap="round" stroke-linejoin="round"/>
<path fill-rule="evenodd" clip-rule="evenodd" d="M153.703 152.58C153.703 152.58 160.447 191.344 145.134 205.774C133.19 217.029 120.394 220.782 104.526 216.593C97.063 214.623 92.6825 210.883 87.1175 207.232C89.5032 207.012 91.6665 206.617 93.5364 205.454C96.9783 203.431 98.3349 199.951 99.0254 195.949C99.6577 191.183 101.154 186.916 104.211 182.259C108.33 175.566 115.605 171.708 123.269 171.924C128.199 171.967 132.463 173.999 137.544 173.623C141.61 173.166 144.787 172.012 148.384 168.498C154.325 161.082 153.104 158.448 153.703 152.58Z" fill="white" stroke="white" stroke-width="1.6" stroke-linecap="round" stroke-linejoin="round"/>
</svg>
