<svg width="300" height="300" viewBox="0 0 300 300" fill="none" xmlns="http://www.w3.org/2000/svg">
<path fill-rule="evenodd" clip-rule="evenodd" d="M165.611 136.824C162.963 137.607 159.208 134.229 160.748 131.937C167.586 121.759 177.917 109.817 189.567 108.082C205.8 105.664 218.447 109.891 229.08 122.391C232.338 126.222 234.094 129.922 235.608 133.744C236.428 135.812 233.961 137.926 231.74 137.812V137.812C227.759 137.506 224.658 139.588 221.805 142.479C218.564 146.031 214.899 148.678 209.73 150.755C202.526 153.897 194.352 152.91 188.184 148.355C184.161 145.504 181.822 141.401 177.436 138.808C173.838 136.861 170.57 135.993 165.611 136.824V136.824Z" fill="white" stroke="white" stroke-width="1.6" stroke-linecap="round" stroke-linejoin="round"/>
<path fill-rule="evenodd" clip-rule="evenodd" d="M144.052 133.578C144.025 136.359 139.671 138.987 137.912 136.834C130.108 127.278 121.627 113.839 123.396 102.123C125.861 85.7974 133.731 74.9306 148.896 68.4008C153.567 66.3894 157.664 65.7963 161.808 65.4693C164.033 65.2937 165.333 68.2874 164.567 70.3843V70.3843C163.094 74.1154 164.187 77.7051 166.133 81.2943C168.603 85.4506 170.074 89.7485 170.549 95.3216C171.451 103.162 168.08 110.719 161.859 115.301C157.918 118.323 153.265 119.362 149.465 122.81C146.522 125.691 144.717 128.573 144.052 133.578V133.578Z" fill="white" stroke="white" stroke-width="1.6" stroke-linecap="round" stroke-linejoin="round"/>
<path fill-rule="evenodd" clip-rule="evenodd" d="M168.197 158.808C166.614 156.546 168.625 151.913 171.288 152.645C183.11 155.897 197.715 161.9 203.06 172.396C210.509 187.02 210.517 200.354 202.04 214.407C199.443 218.714 196.492 221.553 193.349 224.203C191.648 225.637 188.86 223.97 188.263 221.827V221.827C187.289 217.955 184.33 215.676 180.682 213.889C176.285 211.944 172.611 209.309 169 205.068C163.733 199.235 162.073 191.17 164.432 183.875C165.858 179.155 169.006 175.633 170.071 170.651C170.775 166.621 170.56 163.247 168.197 158.808V158.808Z" fill="white" stroke="white" stroke-width="1.6" stroke-linecap="round" stroke-linejoin="round"/>
<path fill-rule="evenodd" clip-rule="evenodd" d="M133.328 152.219C135.934 153.131 137.006 158.067 134.417 159.027C122.92 163.288 107.557 166.94 97.0898 161.539C82.5057 154.013 74.7144 143.191 73.3932 126.833C72.9883 121.82 73.7266 117.792 74.7315 113.806C75.2752 111.649 78.5122 111.375 80.2481 112.766V112.766C83.299 115.341 87.0321 115.464 91.0366 114.786C95.7421 113.798 100.264 113.792 105.672 115.128C113.353 116.789 119.409 122.369 121.752 129.669C123.349 134.333 122.849 139.031 124.893 143.697C126.674 147.38 128.818 149.994 133.328 152.219V152.219Z" fill="white" stroke="white" stroke-width="1.6" stroke-linecap="round" stroke-linejoin="round"/>
<path fill-rule="evenodd" clip-rule="evenodd" d="M148.384 168.498C150.111 166.343 155.122 166.972 155.167 169.733C155.366 181.993 153.706 197.696 145.134 205.774C133.19 217.029 120.394 220.782 104.526 216.593C99.6637 215.309 96.1096 213.274 92.684 211.002C90.8303 209.773 91.6476 206.629 93.5364 205.454V205.454C96.9783 203.431 98.3349 199.951 99.0254 195.949C99.6577 191.183 101.154 186.916 104.211 182.259C108.33 175.566 115.605 171.708 123.269 171.924C128.199 171.967 132.463 173.999 137.544 173.623C141.61 173.166 144.787 172.012 148.384 168.498V168.498Z" fill="white" stroke="white" stroke-width="1.6" stroke-linecap="round" stroke-linejoin="round"/>
</svg>
