<svg width="300" height="300" viewBox="0 0 300 300" fill="none" xmlns="http://www.w3.org/2000/svg">
<g clip-path="url(#clip0_145_39)">
<rect width="300" height="300" fill="white"/>
<path d="M300 62L0 62L5.42021e-06 4.76048e-07L300 2.67029e-05L300 62Z" fill="#EF4B4B"/>
<path d="M300 107L0 107L4.9831e-06 50L300 50L300 107Z" fill="#FA9538"/>
<path d="M300 160L0 160L5.24536e-06 100L300 100L300 160Z" fill="#FFB84F"/>
<path d="M300 207L0 207L4.9831e-06 150L300 150L300 207Z" fill="#00A650"/>
<path d="M300 260L0 260L5.24536e-06 200L300 200L300 260Z" fill="#3661F6"/>
<path d="M300 307L0 307L4.9831e-06 250L300 250L300 307Z" fill="#8A00BA"/>
</g>
<defs>
<clipPath id="clip0_145_39">
<rect width="300" height="300" fill="white"/>
</clipPath>
</defs>
</svg>
