<svg width="300" height="300" viewBox="0 0 300 300" fill="none" xmlns="http://www.w3.org/2000/svg">
<path d="M153.829 78.2234L166.053 115.846C169.333 125.94 178.74 132.775 189.354 132.775L228.912 132.775C232.303 132.775 233.713 137.114 230.97 139.106L198.966 162.358C190.379 168.597 186.786 179.656 190.066 189.75L202.29 227.373C203.338 230.597 199.647 233.279 196.904 231.286L164.901 208.034C156.314 201.795 144.686 201.795 136.099 208.034L104.096 231.286C101.353 233.279 97.662 230.597 98.7098 227.373L110.934 189.75C114.214 179.656 110.621 168.597 102.034 162.358L70.0303 139.106C67.2873 137.114 68.6971 132.775 72.0876 132.775L111.646 132.775C122.26 132.775 131.667 125.94 134.947 115.846L147.171 78.2234C148.219 74.9988 152.781 74.9989 153.829 78.2234Z" stroke="#18842F" stroke-width="21"/>
<path d="M172.339 135.193L183.779 170.403C184.248 171.845 183.735 173.425 182.508 174.316L152.557 196.076C151.33 196.968 149.669 196.968 148.442 196.076L118.492 174.316C117.265 173.425 116.752 171.845 117.22 170.403L128.66 135.193C129.129 133.751 130.473 132.775 131.989 132.775H169.01C170.527 132.775 171.87 133.751 172.339 135.193Z" stroke="#18842F" stroke-width="21"/>
</svg>
