<svg width="300" height="300" viewBox="0 0 300 300" fill="none" xmlns="http://www.w3.org/2000/svg">
<path d="M132.926 122.065L150.5 67.9787L168.074 122.065C170.149 128.451 176.1 132.775 182.815 132.775L239.684 132.775L193.676 166.202C188.244 170.149 185.97 177.145 188.045 183.531L205.619 237.617L159.611 204.19C154.178 200.243 146.822 200.243 141.389 204.19L147.561 212.685L141.389 204.19L95.3811 237.617L112.955 183.531C115.03 177.145 112.757 170.149 107.324 166.202L61.3157 132.775L118.185 132.775C124.9 132.775 130.851 128.451 132.926 122.065ZM219.313 247.567L219.305 247.561C219.308 247.563 219.311 247.565 219.313 247.567Z" stroke="#18842F" stroke-width="21"/>
<path d="M129.446 132.775H171.553L184.565 172.821L150.5 197.571L116.434 172.821L129.446 132.775Z" stroke="#18842F" stroke-width="21"/>
</svg>
