<svg width="200" height="198" viewBox="0 0 200 198" fill="none" xmlns="http://www.w3.org/2000/svg">
<circle cx="100" cy="99" r="77.5" stroke="#FFB84F" stroke-width="11"/>
<rect x="94.5" y="24" width="11" height="153" fill="#FFB84F"/>
<rect x="94.5" y="24" width="11" height="153" fill="#FFB84F"/>
<path d="M157.982 150.705L150.204 158.483C150.204 158.483 122.3 119.74 100.721 98.2788C79.7276 77.3989 42.0168 50.296 42.0168 50.296L49.795 42.5179C49.795 42.5179 87.5058 69.6207 108.5 90.5006C130.078 111.962 157.982 150.705 157.982 150.705Z" fill="#FFB84F"/>
<path d="M175.516 74.073L177.471 81.3675C177.471 81.3675 130.588 88.4823 101.206 96.414C72.6198 104.131 29.6841 120.967 29.6841 120.967L27.7296 113.672C27.7296 113.672 70.6653 96.8364 99.2513 89.1195C128.633 81.1878 175.516 74.073 175.516 74.073Z" fill="#FFB84F"/>
<path d="M32.9545 135.894L30.9999 128.599C30.9999 128.599 77.883 121.484 107.265 113.553C135.851 105.836 178.787 89 178.787 89L180.741 96.2945C180.741 96.2945 137.805 113.13 109.219 120.847C79.8376 128.779 32.9545 135.894 32.9545 135.894Z" fill="#FFB84F"/>
<mask id="path-8-inside-1_131_255" fill="white">
<path fill-rule="evenodd" clip-rule="evenodd" d="M141 45H59V111C59 133.644 77.3563 152 100 152C122.644 152 141 133.644 141 111V45Z"/>
</mask>
<path fill-rule="evenodd" clip-rule="evenodd" d="M141 45H59V111C59 133.644 77.3563 152 100 152C122.644 152 141 133.644 141 111V45Z" fill="#D94141"/>
<path d="M59 45V43H57V45H59ZM141 45H143V43H141V45ZM59 47H141V43H59V47ZM61 111V45H57V111H61ZM100 150C78.4609 150 61 132.539 61 111H57C57 134.748 76.2518 154 100 154V150ZM139 111C139 132.539 121.539 150 100 150V154C123.748 154 143 134.748 143 111H139ZM139 45V111H143V45H139Z" fill="white" mask="url(#path-8-inside-1_131_255)"/>
<path fill-rule="evenodd" clip-rule="evenodd" d="M127.411 63H73V106.794C73 121.82 85.1804 134 100.206 134C115.231 134 127.411 121.82 127.411 106.794V63Z" fill="white"/>
<path fill-rule="evenodd" clip-rule="evenodd" d="M119.001 89.5664H108.006V98.4158C108.006 98.4158 108.006 98.4158 108.006 98.4158C108.006 101.452 110.467 103.913 113.503 103.913C116.539 103.913 119.001 101.452 119.001 98.4158C119.001 98.4158 119.001 98.4158 119.001 98.4158V89.5664Z" fill="#003EBA"/>
<path fill-rule="evenodd" clip-rule="evenodd" d="M105.498 89.5664H94.5029V98.4158C94.5029 98.4158 94.5029 98.4158 94.5029 98.4158C94.5029 101.452 96.9642 103.913 100 103.913C103.036 103.913 105.498 101.452 105.498 98.4158C105.498 98.4158 105.498 98.4158 105.498 98.4158V89.5664Z" fill="#003EBA"/>
<path fill-rule="evenodd" clip-rule="evenodd" d="M91.9947 89.5664H81V98.4158C81 98.4158 81 98.4158 81 98.4158C81 101.452 83.4613 103.913 86.4973 103.913C89.5334 103.913 91.9947 101.452 91.9947 98.4158C91.9947 98.4158 91.9947 98.4158 91.9947 98.4158V89.5664Z" fill="#003EBA"/>
<path fill-rule="evenodd" clip-rule="evenodd" d="M105.498 71H94.5029V79.8493C94.5029 79.8494 94.5029 79.8494 94.5029 79.8494C94.5029 82.8855 96.9642 85.3467 100 85.3467C103.036 85.3467 105.498 82.8855 105.498 79.8494C105.498 79.8494 105.498 79.8494 105.498 79.8493V71Z" fill="#003EBA"/>
<path fill-rule="evenodd" clip-rule="evenodd" d="M95.8992 59.2852L104 59.2852L104 52.765C104 52.765 104 52.765 104 52.765C104 50.528 102.187 48.7146 99.9496 48.7146C97.7126 48.7146 95.8992 50.528 95.8992 52.765C95.8992 52.765 95.8992 52.765 95.8992 52.765C95.8992 52.7659 95.8992 52.7669 95.8992 52.7678L95.8992 59.2852Z" fill="#FFB84F"/>
<path fill-rule="evenodd" clip-rule="evenodd" d="M129 59.5703L137.101 59.5703L137.101 53.0502C137.101 53.0502 137.101 53.0501 137.101 53.0501C137.101 50.8132 135.287 48.9998 133.05 48.9998C130.813 48.9998 129 50.8132 129 53.0501C129 53.0501 129 53.0502 129 53.0502C129 53.0511 129 53.052 129 53.053L129 59.5703Z" fill="#FFB84F"/>
<path fill-rule="evenodd" clip-rule="evenodd" d="M62.9998 59.5703L71.1006 59.5703L71.1006 53.0502C71.1006 53.0502 71.1006 53.0501 71.1006 53.0501C71.1006 50.8132 69.2871 48.9998 67.0502 48.9998C64.8132 48.9998 62.9998 50.8132 62.9998 53.0501C62.9998 53.0501 62.9998 53.0502 62.9998 53.0502C62.9998 53.0511 62.9998 53.052 62.9998 53.053L62.9998 59.5703Z" fill="#FFB84F"/>
<path fill-rule="evenodd" clip-rule="evenodd" d="M129 59.5703L137.101 59.5703L137.101 53.0502C137.101 53.0502 137.101 53.0501 137.101 53.0501C137.101 50.8132 135.287 48.9998 133.05 48.9998C130.813 48.9998 129 50.8132 129 53.0501C129 53.0501 129 53.0502 129 53.0502C129 53.0511 129 53.052 129 53.053L129 59.5703Z" fill="#FFB84F"/>
<path fill-rule="evenodd" clip-rule="evenodd" d="M120 129.475L125.729 135.203L130.339 130.593C130.339 130.593 130.339 130.593 130.339 130.593C131.921 129.011 131.921 126.446 130.339 124.865C128.757 123.283 126.193 123.283 124.611 124.865C124.611 124.865 124.611 124.865 124.611 124.865C124.61 124.865 124.609 124.866 124.609 124.867L120 129.475Z" fill="#FFB84F"/>
<path fill-rule="evenodd" clip-rule="evenodd" d="M80.2028 129.475L74.4746 135.203L69.8642 130.593C69.8642 130.593 69.8642 130.593 69.8641 130.593C68.2824 129.011 68.2824 126.446 69.8642 124.865C71.4459 123.283 74.0105 123.283 75.5923 124.865C75.5923 124.865 75.5923 124.865 75.5923 124.865C75.593 124.865 75.5936 124.866 75.5943 124.867L80.2028 129.475Z" fill="#FFB84F"/>
<path fill-rule="evenodd" clip-rule="evenodd" d="M62.9998 59.5703L71.1006 59.5703L71.1006 53.0502C71.1006 53.0502 71.1006 53.0501 71.1006 53.0501C71.1006 50.8132 69.2871 48.9998 67.0502 48.9998C64.8132 48.9998 62.9998 50.8132 62.9998 53.0501C62.9998 53.0501 62.9998 53.0502 62.9998 53.0502C62.9998 53.0511 62.9998 53.052 62.9998 53.053L62.9998 59.5703Z" fill="#FFB84F"/>
<path fill-rule="evenodd" clip-rule="evenodd" d="M129 95.5703L137.101 95.5703L137.101 89.0502C137.101 89.0502 137.101 89.0501 137.101 89.0501C137.101 86.8132 135.287 84.9998 133.05 84.9998C130.813 84.9998 129 86.8132 129 89.0501C129 89.0501 129 89.0502 129 89.0502C129 89.0511 129 89.052 129 89.053L129 95.5703Z" fill="#FFB84F"/>
<path fill-rule="evenodd" clip-rule="evenodd" d="M62.9998 95.5703L71.1006 95.5703L71.1006 89.0502C71.1006 89.0502 71.1006 89.0501 71.1006 89.0501C71.1006 86.8132 69.2871 84.9998 67.0502 84.9998C64.8132 84.9998 62.9998 86.8132 62.9998 89.0501C62.9998 89.0501 62.9998 89.0502 62.9998 89.0502C62.9998 89.0511 62.9998 89.052 62.9998 89.053L62.9998 95.5703Z" fill="#FFB84F"/>
<path fill-rule="evenodd" clip-rule="evenodd" d="M105.498 108.133H94.5029V116.982C94.5029 116.982 94.5029 116.982 94.5029 116.982C94.5029 120.018 96.9642 122.479 100 122.479C103.036 122.479 105.498 120.018 105.498 116.982C105.498 116.982 105.498 116.982 105.498 116.982V108.133Z" fill="#003EBA"/>
</svg>
