<svg width="200" height="198" viewBox="0 0 200 198" fill="none" xmlns="http://www.w3.org/2000/svg">
<path d="M138 41.5L146.501 43.6984C147.383 43.9267 148 44.723 148 45.6347V118.066C148 144.539 126.539 166 100.066 166H98.9339C72.4607 166 51 144.539 51 118.066V45.6145C51 44.7122 51.6041 43.9217 52.4747 43.6847L60.5 41.5" stroke="#FF4A4A" stroke-width="8"/>
<path d="M51 41.4769C51 40.599 51.5628 39.8277 52.4053 39.5806C58.4574 37.8052 82.749 31 99.5 31C116.251 31 140.543 37.8052 146.595 39.5806C147.437 39.8277 148 40.599 148 41.4769V118.066C148 144.539 126.539 166 100.066 166H98.9339C72.4607 166 51 144.539 51 118.066V41.4769Z" fill="#3661F6"/>
<mask id="mask0" mask-type="alpha" maskUnits="userSpaceOnUse" x="53" y="31" width="93" height="131">
<path d="M53 41.205C53 40.3296 53.5571 39.5607 54.3964 39.3118C60.2799 37.5668 83.4846 31 99.5 31C115.515 31 138.72 37.5668 144.604 39.3118C145.443 39.5607 146 40.3296 146 41.205V115.5C146 141.181 125.181 162 99.5 162V162C73.8188 162 53 141.181 53 115.5V41.205Z" fill="#3661F6"/>
</mask>
<g mask="url(#mask0)">
<path d="M54 51.205C54 50.3296 54.5571 49.5607 55.3964 49.3118C61.2799 47.5668 84.4846 41 100.5 41C116.515 41 139.72 47.5668 145.604 49.3118C146.443 49.5607 147 50.3296 147 51.205V125.5C147 151.181 126.181 172 100.5 172V172C74.8188 172 54 151.181 54 125.5V51.205Z" fill="#3661F6"/>
<path d="M99.1232 64.5989C99.5028 63.9066 100.497 63.9066 100.877 64.5988L102.037 66.7138C102.212 67.0327 102.546 67.2314 102.909 67.233L105.262 67.2429C106.017 67.2461 106.496 68.0524 106.138 68.717L104.895 71.0259C104.736 71.3219 104.736 71.6781 104.895 71.9741L106.138 74.283C106.496 74.9476 106.017 75.7539 105.262 75.7571L102.909 75.767C102.546 75.7685 102.212 75.9673 102.037 76.2862L100.877 78.4011C100.497 79.0934 99.5028 79.0934 99.1232 78.4011L97.9633 76.2862C97.7885 75.9673 97.4544 75.7685 97.0908 75.767L94.7379 75.7571C93.9831 75.7539 93.5038 74.9476 93.8616 74.283L95.1048 71.9741C95.2641 71.6781 95.2641 71.3219 95.1048 71.0259L93.8616 68.717C93.5038 68.0524 93.9831 67.2461 94.7379 67.2429L97.0908 67.233C97.4544 67.2314 97.7885 67.0327 97.9633 66.7138L99.1232 64.5989Z" fill="#FFB84F"/>
<path d="M81.636 40.4829C82.0217 39.8208 82.9783 39.8208 83.364 40.4829L84.677 42.7362C84.8554 43.0425 85.1826 43.2314 85.537 43.2328L88.145 43.2432C88.9113 43.2462 89.3895 44.0746 89.009 44.7397L87.714 47.0035C87.5381 47.3111 87.5381 47.6889 87.714 47.9965L89.009 50.2603C89.3895 50.9254 88.9113 51.7538 88.145 51.7568L85.537 51.7672C85.1826 51.7686 84.8554 51.9575 84.677 52.2638L83.364 54.5171C82.9783 55.1792 82.0217 55.1792 81.636 54.5171L80.323 52.2638C80.1446 51.9575 79.8174 51.7686 79.463 51.7672L76.855 51.7568C76.0887 51.7538 75.6105 50.9254 75.991 50.2603L77.286 47.9965C77.4619 47.6889 77.4619 47.3111 77.286 47.0035L75.991 44.7397C75.6105 44.0746 76.0887 43.2462 76.855 43.2432L79.463 43.2328C79.8174 43.2314 80.1446 43.0425 80.323 42.7362L81.636 40.4829Z" fill="#FFB84F"/>
<path d="M115.636 40.4829C116.022 39.8208 116.978 39.8208 117.364 40.4829L118.677 42.7362C118.855 43.0425 119.183 43.2314 119.537 43.2328L122.145 43.2432C122.911 43.2462 123.39 44.0746 123.009 44.7397L121.714 47.0035C121.538 47.3111 121.538 47.6889 121.714 47.9965L123.009 50.2603C123.39 50.9254 122.911 51.7538 122.145 51.7568L119.537 51.7672C119.183 51.7686 118.855 51.9575 118.677 52.2638L117.364 54.5171C116.978 55.1792 116.022 55.1792 115.636 54.5171L114.323 52.2638C114.145 51.9575 113.817 51.7686 113.463 51.7672L110.855 51.7568C110.089 51.7538 109.61 50.9254 109.991 50.2603L111.286 47.9965C111.462 47.6889 111.462 47.3111 111.286 47.0035L109.991 44.7397C109.61 44.0746 110.089 43.2462 110.855 43.2432L113.463 43.2328C113.817 43.2314 114.145 43.0425 114.323 42.7362L115.636 40.4829Z" fill="#FFB84F"/>
<path d="M75.5 111C66.6667 121.833 48.8 143.9 48 145.5L95 182.5L148.5 148L122.5 111L116.5 120.5L100 93L83 121.5L75.5 111Z" fill="white"/>
<path d="M48 145.5L46.2111 144.606L45.4823 146.063L46.7629 147.071L48 145.5ZM75.5 111L77.1275 109.838L75.6051 107.706L73.95 109.736L75.5 111ZM83 121.5L81.3725 122.662C81.7649 123.212 82.4079 123.526 83.0824 123.498C83.7569 123.47 84.3718 123.104 84.7176 122.525L83 121.5ZM100 93L101.715 91.971L99.995 89.1043L98.2824 91.9754L100 93ZM116.5 120.5L114.785 121.529L116.456 124.315L118.191 121.568L116.5 120.5ZM122.5 111L124.136 109.85L122.411 107.395L120.809 109.932L122.5 111ZM148.5 148L149.584 149.681L151.333 148.553L150.136 146.85L148.5 148ZM95 182.5L93.7629 184.071L94.8844 184.954L96.0839 184.181L95 182.5ZM49.7889 146.394C49.762 146.448 49.7917 146.386 49.9807 146.117C50.1407 145.889 50.3642 145.583 50.6499 145.201C51.2199 144.44 52.0081 143.417 52.9678 142.19C54.8857 139.736 57.4639 136.497 60.2977 132.964C65.964 125.899 72.6354 117.678 77.05 112.264L73.95 109.736C69.5313 115.155 62.8526 123.385 57.1773 130.461C54.3403 133.999 51.7498 137.253 49.8165 139.726C48.8508 140.961 48.0428 142.01 47.4481 142.804C47.1515 143.2 46.9004 143.543 46.7065 143.819C46.5416 144.054 46.338 144.352 46.2111 144.606L49.7889 146.394ZM73.8725 112.162L81.3725 122.662L84.6275 120.338L77.1275 109.838L73.8725 112.162ZM84.7176 122.525L101.718 94.0246L98.2824 91.9754L81.2824 120.475L84.7176 122.525ZM98.285 94.029L114.785 121.529L118.215 119.471L101.715 91.971L98.285 94.029ZM118.191 121.568L124.191 112.068L120.809 109.932L114.809 119.432L118.191 121.568ZM120.864 112.15L146.864 149.15L150.136 146.85L124.136 109.85L120.864 112.15ZM147.416 146.319L93.9161 180.819L96.0839 184.181L149.584 149.681L147.416 146.319ZM96.2371 180.929L49.2371 143.929L46.7629 147.071L93.7629 184.071L96.2371 180.929Z" fill="white"/>
<path d="M100 141C100 141 83.6583 137 73 137C62.3417 137 46 141 46 141" stroke="#3661F6" stroke-width="5" stroke-linecap="round"/>
<path d="M100 141C100 141 116.342 145 127 145C137.658 145 154 141 154 141" stroke="#3661F6" stroke-width="5" stroke-linecap="round"/>
<path d="M100 152C100 152 83.6583 148 73 148C62.3417 148 46 152 46 152" stroke="#3661F6" stroke-width="5" stroke-linecap="round"/>
<path d="M100 152C100 152 116.342 156 127 156C137.658 156 154 152 154 152" stroke="#3661F6" stroke-width="5" stroke-linecap="round"/>
</g>
</svg>
