<svg width="200" height="198" viewBox="0 0 200 198" fill="none" xmlns="http://www.w3.org/2000/svg">
<path d="M138 41.5L146.501 43.6984C147.383 43.9267 148 44.723 148 45.6347V118.066C148 144.539 126.539 166 100.066 166H98.9339C72.4607 166 51 144.539 51 118.066V45.6145C51 44.7122 51.6041 43.9217 52.4747 43.6847L60.5 41.5" stroke="#FF4A4A" stroke-width="8"/>
<path d="M51 41.4769C51 40.599 51.5628 39.8277 52.4053 39.5806C58.4574 37.8052 82.749 31 99.5 31C116.251 31 140.543 37.8052 146.595 39.5806C147.437 39.8277 148 40.599 148 41.4769V118.066C148 144.539 126.539 166 100.066 166H98.9339C72.4607 166 51 144.539 51 118.066V41.4769Z" fill="#3661F6"/>
<mask id="mask0_131_196" style="mask-type:alpha" maskUnits="userSpaceOnUse" x="53" y="31" width="93" height="131">
<path d="M53 41.205C53 40.3296 53.5571 39.5607 54.3964 39.3118C60.2799 37.5668 83.4846 31 99.5 31C115.515 31 138.72 37.5668 144.604 39.3118C145.443 39.5607 146 40.3296 146 41.205V115.5C146 141.181 125.181 162 99.5 162C73.8188 162 53 141.181 53 115.5V41.205Z" fill="#3661F6"/>
</mask>
<g mask="url(#mask0_131_196)">
<path d="M54 51.205C54 50.3296 54.5571 49.5607 55.3964 49.3118C61.2799 47.5668 84.4846 41 100.5 41C116.515 41 139.72 47.5668 145.604 49.3118C146.443 49.5607 147 50.3296 147 51.205V125.5C147 151.181 126.181 172 100.5 172C74.8188 172 54 151.181 54 125.5V51.205Z" fill="#3661F6"/>
<path d="M98.6848 65.3983C99.2542 64.36 100.746 64.36 101.315 65.3983L101.895 66.4555C102.157 66.9337 102.658 67.2319 103.204 67.2342L104.429 67.2394C105.561 67.2442 106.28 68.4536 105.743 69.4505L105.023 70.7889C104.784 71.2328 104.784 71.7672 105.023 72.2111L105.743 73.5495C106.28 74.5464 105.561 75.7558 104.429 75.7606L103.204 75.7658C102.658 75.7681 102.157 76.0663 101.895 76.5445L101.315 77.6017C100.746 78.64 99.2542 78.64 98.6848 77.6017L98.105 76.5445C97.8427 76.0663 97.3416 75.7681 96.7961 75.7658L95.5709 75.7606C94.4388 75.7558 93.7198 74.5464 94.2565 73.5495L94.9772 72.2111C95.2162 71.7672 95.2162 71.2328 94.9772 70.7889L94.2565 69.4505C93.7198 68.4536 94.4388 67.2442 95.5709 67.2394L96.7961 67.2342C97.3416 67.2319 97.8427 66.9337 98.105 66.4555L98.6848 65.3983Z" fill="#FFB84F"/>
<path d="M81.204 41.2243C81.7826 40.2312 83.2174 40.2312 83.796 41.2243L84.533 42.4891C84.8007 42.9484 85.2914 43.2318 85.8231 43.2339L87.2869 43.2397C88.4363 43.2443 89.1537 44.4869 88.5829 45.4846L87.8561 46.7552C87.5921 47.2166 87.5921 47.7834 87.8561 48.2448L88.5829 49.5154C89.1537 50.5131 88.4363 51.7557 87.2869 51.7603L85.8231 51.7661C85.2914 51.7682 84.8007 52.0516 84.533 52.5109L83.796 53.7757C83.2174 54.7688 81.7826 54.7688 81.204 53.7757L80.467 52.5109C80.1993 52.0516 79.7086 51.7682 79.1769 51.7661L77.7131 51.7603C76.5637 51.7557 75.8463 50.5131 76.4171 49.5154L77.1439 48.2448C77.4079 47.7834 77.4079 47.2166 77.1439 46.7552L76.4171 45.4846C75.8463 44.4869 76.5637 43.2443 77.7131 43.2397L79.1769 43.2339C79.7086 43.2318 80.1993 42.9484 80.467 42.4891L81.204 41.2243Z" fill="#FFB84F"/>
<path d="M115.204 41.2243C115.783 40.2312 117.217 40.2312 117.796 41.2243L118.533 42.4891C118.801 42.9484 119.291 43.2318 119.823 43.2339L121.287 43.2397C122.436 43.2443 123.154 44.4869 122.583 45.4846L121.856 46.7552C121.592 47.2166 121.592 47.7834 121.856 48.2448L122.583 49.5154C123.154 50.5131 122.436 51.7557 121.287 51.7603L119.823 51.7661C119.291 51.7682 118.801 52.0516 118.533 52.5109L117.796 53.7757C117.217 54.7688 115.783 54.7688 115.204 53.7757L114.467 52.5109C114.199 52.0516 113.709 51.7682 113.177 51.7661L111.713 51.7603C110.564 51.7557 109.846 50.5131 110.417 49.5154L111.144 48.2448C111.408 47.7834 111.408 47.2166 111.144 46.7552L110.417 45.4846C109.846 44.4869 110.564 43.2443 111.713 43.2397L113.177 43.2339C113.709 43.2318 114.199 42.9484 114.467 42.4891L115.204 41.2243Z" fill="#FFB84F"/>
<path d="M72.1972 115.057C64.7259 124.248 54.1984 137.281 49.9069 142.873C48.7513 144.379 49.07 146.342 50.5612 147.516L92.757 180.734C94.099 181.791 95.9637 181.879 97.3991 180.953L145.002 150.256C146.911 149.025 147.413 146.453 146.107 144.594L125.602 115.414C124.126 113.314 120.989 113.392 119.619 115.562C118.189 117.826 114.873 117.788 113.495 115.491L103.44 98.7334C101.884 96.1401 98.124 96.145 96.5748 98.7423L86.1342 116.246C84.6562 118.723 81.1209 118.869 79.4439 116.522L78.5447 115.263C77.0115 113.116 73.8611 113.01 72.1972 115.057Z" fill="white" stroke="white" stroke-width="4" stroke-linejoin="round"/>
<path d="M100 141C100 141 83.6583 137 73 137C62.3417 137 46 141 46 141" stroke="#3661F6" stroke-width="5" stroke-linecap="round"/>
<path d="M100 141C100 141 116.342 145 127 145C137.658 145 154 141 154 141" stroke="#3661F6" stroke-width="5" stroke-linecap="round"/>
<path d="M100 152C100 152 83.6583 148 73 148C62.3417 148 46 152 46 152" stroke="#3661F6" stroke-width="5" stroke-linecap="round"/>
<path d="M100 152C100 152 116.342 156 127 156C137.658 156 154 152 154 152" stroke="#3661F6" stroke-width="5" stroke-linecap="round"/>
</g>
</svg>
