<svg width="200" height="198" viewBox="0 0 200 198" fill="none" xmlns="http://www.w3.org/2000/svg">
<path d="M138 41.5L146.501 43.6984C147.383 43.9267 148 44.723 148 45.6347V118.066C148 144.539 126.539 166 100.066 166H98.9339C72.4607 166 51 144.539 51 118.066V45.6145C51 44.7122 51.6041 43.9217 52.4747 43.6847L60.5 41.5" stroke="#FF4A4A" stroke-width="8"/>
<path d="M51 41.4769C51 40.599 51.5628 39.8277 52.4053 39.5806C58.4574 37.8052 82.749 31 99.5 31C116.251 31 140.543 37.8052 146.595 39.5806C147.437 39.8277 148 40.599 148 41.4769V118.066C148 144.539 126.539 166 100.066 166H98.9339C72.4607 166 51 144.539 51 118.066V41.4769Z" fill="#3661F6"/>
<mask id="mask0_131:196" style="mask-type:alpha" maskUnits="userSpaceOnUse" x="53" y="31" width="93" height="131">
<path d="M53 41.205C53 40.3296 53.5571 39.5607 54.3964 39.3118C60.2799 37.5668 83.4846 31 99.5 31C115.515 31 138.72 37.5668 144.604 39.3118C145.443 39.5607 146 40.3296 146 41.205V115.5C146 141.181 125.181 162 99.5 162C73.8188 162 53 141.181 53 115.5V41.205Z" fill="#3661F6"/>
</mask>
<g mask="url(#mask0_131:196)">
<path d="M54 51.205C54 50.3296 54.5571 49.5607 55.3964 49.3118C61.2799 47.5668 84.4846 41 100.5 41C116.515 41 139.72 47.5668 145.604 49.3118C146.443 49.5607 147 50.3296 147 51.205V125.5C147 151.181 126.181 172 100.5 172C74.8188 172 54 151.181 54 125.5V51.205Z" fill="#3661F6"/>
<path d="M99.1232 64.5989C99.5028 63.9066 100.497 63.9066 100.877 64.5988L102.037 66.7138C102.212 67.0327 102.546 67.2315 102.909 67.233L105.262 67.2429C106.017 67.2461 106.496 68.0524 106.138 68.717L104.895 71.0259C104.736 71.3219 104.736 71.6781 104.895 71.9741L106.138 74.283C106.496 74.9476 106.017 75.7539 105.262 75.7571L102.909 75.767C102.546 75.7685 102.212 75.9673 102.037 76.2862L100.877 78.4011C100.497 79.0934 99.5028 79.0934 99.1232 78.4011L97.9633 76.2862C97.7885 75.9673 97.4544 75.7685 97.0908 75.767L94.7379 75.7571C93.9831 75.7539 93.5038 74.9476 93.8616 74.283L95.1048 71.9741C95.2641 71.6781 95.2641 71.3219 95.1048 71.0259L93.8616 68.717C93.5038 68.0524 93.9831 67.2461 94.7379 67.2429L97.0908 67.233C97.4544 67.2315 97.7885 67.0327 97.9633 66.7138L99.1232 64.5989Z" fill="#FFB84F"/>
<path d="M81.636 40.4829C82.0217 39.8208 82.9783 39.8208 83.364 40.4829L84.677 42.7362C84.8554 43.0425 85.1826 43.2314 85.537 43.2328L88.145 43.2432C88.9113 43.2462 89.3895 44.0746 89.009 44.7397L87.714 47.0035C87.5381 47.3111 87.5381 47.6889 87.714 47.9965L89.009 50.2603C89.3895 50.9254 88.9113 51.7538 88.145 51.7568L85.537 51.7672C85.1826 51.7686 84.8554 51.9575 84.677 52.2638L83.364 54.5171C82.9783 55.1792 82.0217 55.1792 81.636 54.5171L80.323 52.2638C80.1446 51.9575 79.8174 51.7686 79.463 51.7672L76.855 51.7568C76.0887 51.7538 75.6105 50.9254 75.991 50.2603L77.286 47.9965C77.4619 47.6889 77.4619 47.3111 77.286 47.0035L75.991 44.7397C75.6105 44.0746 76.0887 43.2462 76.855 43.2432L79.463 43.2328C79.8174 43.2314 80.1446 43.0425 80.323 42.7362L81.636 40.4829Z" fill="#FFB84F"/>
<path d="M115.636 40.4829C116.022 39.8208 116.978 39.8208 117.364 40.4829L118.677 42.7362C118.855 43.0425 119.183 43.2314 119.537 43.2328L122.145 43.2432C122.911 43.2462 123.39 44.0746 123.009 44.7397L121.714 47.0035C121.538 47.3111 121.538 47.6889 121.714 47.9965L123.009 50.2603C123.39 50.9254 122.911 51.7538 122.145 51.7568L119.537 51.7672C119.183 51.7686 118.855 51.9575 118.677 52.2638L117.364 54.5171C116.978 55.1792 116.022 55.1792 115.636 54.5171L114.323 52.2638C114.145 51.9575 113.817 51.7686 113.463 51.7672L110.855 51.7568C110.089 51.7538 109.61 50.9254 109.991 50.2603L111.286 47.9965C111.462 47.6889 111.462 47.3111 111.286 47.0035L109.991 44.7397C109.61 44.0746 110.089 43.2462 110.855 43.2432L113.463 43.2328C113.817 43.2314 114.145 43.0425 114.323 42.7362L115.636 40.4829Z" fill="#FFB84F"/>
<path d="M74.6734 112.014C66.2848 122.311 51.2703 140.865 48.4394 144.833C48.1638 145.219 48.2675 145.711 48.6403 146.004L94.4393 182.059C94.7747 182.323 95.2409 182.345 95.5998 182.113L147.625 148.564C148.103 148.256 148.228 147.613 147.902 147.149L123.363 112.227C122.952 111.644 122.08 111.665 121.699 112.268L117.367 119.127C116.97 119.757 116.048 119.746 115.664 119.107L100.86 94.4333C100.471 93.785 99.531 93.7862 99.1437 94.4356L83.7835 120.186C83.414 120.806 82.5302 120.842 82.111 120.255L76.2612 112.066C75.8779 111.529 75.0899 111.503 74.6734 112.014Z" fill="white"/>
<path d="M48.4394 144.833L50.0674 145.994H50.0674L48.4394 144.833ZM74.6734 112.014L73.1228 110.751L73.1228 110.751L74.6734 112.014ZM76.2612 112.066L77.8886 110.903V110.903L76.2612 112.066ZM82.111 120.255L80.4835 121.418L82.111 120.255ZM83.7835 120.186L82.0659 119.162V119.162L83.7835 120.186ZM99.1437 94.4356L97.4261 93.411L97.4261 93.411L99.1437 94.4356ZM100.86 94.4333L99.145 95.4623V95.4623L100.86 94.4333ZM115.664 119.107L117.379 118.078V118.078L115.664 119.107ZM117.367 119.127L119.058 120.195L117.367 119.127ZM121.699 112.268L123.39 113.336V113.336L121.699 112.268ZM123.363 112.227L121.726 113.377L121.726 113.377L123.363 112.227ZM147.902 147.149L149.538 145.999L149.538 145.999L147.902 147.149ZM147.625 148.564L148.709 150.245L148.709 150.245L147.625 148.564ZM95.5998 182.113L96.6837 183.794L95.5998 182.113ZM94.4393 182.059L95.6764 180.487H95.6764L94.4393 182.059ZM48.6403 146.004L49.8774 144.433L49.8774 144.433L48.6403 146.004ZM50.0674 145.994C52.8501 142.095 67.8042 123.612 76.2239 113.277L73.1228 110.751C64.7654 121.009 49.6906 139.636 46.8114 143.671L50.0674 145.994ZM74.6337 113.228L80.4835 121.418L83.7385 119.093L77.8886 110.903L74.6337 113.228ZM85.5012 121.211L100.861 95.4601L97.4261 93.411L82.0659 119.162L85.5012 121.211ZM99.145 95.4623L113.949 120.136L117.379 118.078L102.575 93.4044L99.145 95.4623ZM119.058 120.195L123.39 113.336L120.008 111.2L115.676 118.059L119.058 120.195ZM121.726 113.377L146.265 148.298L149.538 145.999L124.999 111.078L121.726 113.377ZM146.542 146.883L94.5159 180.432L96.6837 183.794L148.709 150.245L146.542 146.883ZM95.6764 180.487L49.8774 144.433L47.4032 147.576L93.2021 183.63L95.6764 180.487ZM94.5159 180.432C94.8747 180.201 95.3409 180.223 95.6764 180.487L93.2021 183.63C94.2086 184.422 95.6072 184.488 96.6837 183.794L94.5159 180.432ZM146.265 148.298C145.939 147.834 146.064 147.191 146.542 146.883L148.709 150.245C150.141 149.321 150.518 147.393 149.538 145.999L146.265 148.298ZM123.39 113.336C123.009 113.94 122.136 113.961 121.726 113.377L124.999 111.078C123.768 109.326 121.151 109.39 120.008 111.2L123.39 113.336ZM113.949 120.136C115.099 122.052 117.865 122.084 119.058 120.195L115.676 118.059C116.074 117.429 116.996 117.44 117.379 118.078L113.949 120.136ZM100.861 95.4601C100.474 96.1094 99.534 96.1107 99.145 95.4623L102.575 93.4044C101.408 91.4594 98.588 91.4631 97.4261 93.411L100.861 95.4601ZM80.4835 121.418C81.7412 123.179 84.3927 123.069 85.5012 121.211L82.0659 119.162C82.4354 118.542 83.3192 118.506 83.7385 119.093L80.4835 121.418ZM76.2239 113.277C75.8046 113.792 75.0148 113.762 74.6337 113.228L77.8886 110.903C76.7409 109.296 74.3752 109.214 73.1228 110.751L76.2239 113.277ZM46.8114 143.671C45.8337 145.041 46.3066 146.712 47.4032 147.576L49.8774 144.433C50.0467 144.566 50.2083 144.789 50.264 145.093C50.3225 145.412 50.247 145.743 50.0674 145.994L46.8114 143.671Z" fill="white"/>
<path d="M100 141C100 141 83.6583 137 73 137C62.3417 137 46 141 46 141" stroke="#3661F6" stroke-width="5" stroke-linecap="round"/>
<path d="M100 141C100 141 116.342 145 127 145C137.658 145 154 141 154 141" stroke="#3661F6" stroke-width="5" stroke-linecap="round"/>
<path d="M100 152C100 152 83.6583 148 73 148C62.3417 148 46 152 46 152" stroke="#3661F6" stroke-width="5" stroke-linecap="round"/>
<path d="M100 152C100 152 116.342 156 127 156C137.658 156 154 152 154 152" stroke="#3661F6" stroke-width="5" stroke-linecap="round"/>
</g>
</svg>
