<svg width="300" height="300" viewBox="0 0 300 300" fill="none" xmlns="http://www.w3.org/2000/svg">
<mask id="mask0_131:36" style="mask-type:alpha" maskUnits="userSpaceOnUse" x="63" y="73" width="155" height="155">
<circle cx="140.5" cy="150.5" r="77.5" fill="#B4B4B4"/>
</mask>
<g mask="url(#mask0_131:36)">
<path fill-rule="evenodd" clip-rule="evenodd" d="M194.45 206.139C208.974 192.053 218 172.331 218 150.5C218 128.669 208.974 108.947 194.45 94.8612C215.462 104.707 230 125.919 230 150.5C230 175.081 215.462 196.293 194.45 206.139ZM194.45 206.139C180.497 219.67 161.471 228 140.5 228C97.6979 228 63 193.302 63 150.5C63 107.698 97.6979 73 140.5 73C161.471 73 180.497 81.3297 194.45 94.8612C186.427 91.1021 177.461 89 168 89C133.758 89 106 116.534 106 150.5C106 184.466 133.758 212 168 212C177.461 212 186.427 209.898 194.45 206.139Z" fill="#EB5757"/>
</g>
<path d="M193.893 121.679C194.309 119.901 196.695 119.565 197.586 121.159L205.833 135.917C206.216 136.603 206.965 137.001 207.747 136.935L224.593 135.512C226.413 135.359 227.47 137.524 226.229 138.864L214.742 151.268C214.208 151.844 214.061 152.679 214.366 153.403L220.924 168.985C221.633 170.668 219.9 172.342 218.242 171.576L202.895 164.484C202.182 164.155 201.343 164.273 200.749 164.786L187.956 175.839C186.574 177.033 184.446 175.902 184.662 174.088L186.665 157.301C186.758 156.522 186.386 155.76 185.715 155.353L171.25 146.602C169.687 145.657 170.105 143.284 171.897 142.929L188.481 139.646C189.251 139.494 189.861 138.905 190.04 138.14L193.893 121.679Z" fill="#EB5757"/>
</svg>
