<svg width="300" height="300" viewBox="0 0 300 300" fill="none" xmlns="http://www.w3.org/2000/svg">
<mask id="mask0" mask-type="alpha" maskUnits="userSpaceOnUse" x="62" y="73" width="155" height="155">
<circle cx="139.5" cy="150.5" r="77.5" fill="#B4B4B4"/>
</mask>
<g mask="url(#mask0)">
<path fill-rule="evenodd" clip-rule="evenodd" d="M193.45 206.139C207.974 192.053 217 172.331 217 150.5C217 128.669 207.974 108.947 193.45 94.8612C214.462 104.707 229 125.919 229 150.5C229 175.081 214.462 196.293 193.45 206.139ZM193.45 206.139C179.497 219.67 160.471 228 139.5 228C96.6979 228 62 193.302 62 150.5C62 107.698 96.6979 73 139.5 73C160.471 73 179.497 81.3297 193.45 94.8612C185.427 91.1021 176.461 89 167 89C132.758 89 105 116.534 105 150.5C105 184.466 132.758 212 167 212C176.461 212 185.427 209.898 193.45 206.139Z" fill="#EB5757"/>
</g>
<path d="M202.68 128.395C203.096 126.617 205.482 126.281 206.373 127.876L212.493 138.827C212.876 139.513 213.625 139.911 214.407 139.845L226.908 138.789C228.728 138.635 229.785 140.801 228.544 142.141L220.019 151.346C219.486 151.922 219.339 152.757 219.643 153.48L224.51 165.043C225.219 166.727 223.486 168.401 221.828 167.635L210.44 162.372C209.727 162.043 208.887 162.161 208.293 162.674L198.8 170.876C197.418 172.07 195.29 170.939 195.506 169.126L196.993 156.668C197.086 155.889 196.714 155.127 196.042 154.72L185.308 148.226C183.745 147.281 184.163 144.908 185.955 144.553L198.262 142.117C199.032 141.965 199.642 141.375 199.821 140.611L202.68 128.395Z" fill="#EB5757"/>
</svg>
