<svg width="300" height="300" viewBox="0 0 300 300" fill="none" xmlns="http://www.w3.org/2000/svg">
<path d="M73.8477 132.107C70.2312 137.706 66.4332 144.165 66.108 151.171C65.9226 150.252 65.7249 149.329 65.4878 148.426C64.8788 146.106 63.979 143.893 63.0159 141.73C62.6731 140.96 62.3244 140.2 61.9774 139.445C61.3419 138.061 60.7122 136.689 60.1354 135.289C58.3645 130.987 57.177 126.593 58.168 121.508C58.2258 121.211 58.0538 120.918 57.7665 120.823C57.4793 120.729 57.1666 120.863 57.037 121.136C56.1155 123.078 55.6443 125.232 55.1935 127.293C55.0973 127.733 55.002 128.169 54.9034 128.597C54.9016 128.605 54.9 128.613 54.8985 128.621C53.664 135.182 54.9014 142.111 56.6578 148.05L57.2319 147.881L56.6578 148.05C57.7875 151.871 60.2139 155.121 62.7561 158.215C63.2009 158.756 63.6488 159.293 64.0946 159.826C66.2222 162.374 68.3039 164.866 69.79 167.609C69.8283 167.68 69.8805 167.743 69.9435 167.793L70.4457 168.193C70.6381 168.347 70.9048 168.367 71.1184 168.244C71.3319 168.122 71.4489 167.881 71.4135 167.638C70.8818 163.979 70.6259 160.131 71.6273 156.756L71.6274 156.756L71.6297 156.748C72.0989 155.082 72.6084 153.417 73.1201 151.745C74.3138 147.845 75.5196 143.906 76.2543 139.808L76.3032 139.535C77.0977 135.107 78.0036 130.059 77.4692 125.662C77.4344 125.376 77.2005 125.155 76.9125 125.136C76.6245 125.117 76.364 125.306 76.2923 125.586C75.685 127.957 75.0809 130.197 73.8477 132.107ZM73.8477 132.107L74.3517 132.432M73.8477 132.107L74.3517 132.432M74.3517 132.432C70.0677 139.065 65.6851 146.694 66.8875 154.935L76.4104 127.481C75.9187 129.232 75.3248 130.925 74.3517 132.432ZM176.011 226.497C176.011 226.323 175.935 226.161 175.811 226.05C166.778 217.423 153.787 208.14 140.027 208.14C132.324 208.14 125.286 211.22 118.582 214.154C117.17 214.772 115.773 215.383 114.387 215.958C107.271 218.91 97.8319 218.312 91.5691 213.993C91.3243 213.824 90.9927 213.86 90.7898 214.077C90.5869 214.295 90.5739 214.628 90.7593 214.861C94.0396 218.977 98.4146 221.493 102.88 223.189C111.317 226.554 121.084 223.955 128.147 219.44L127.824 218.935L128.147 219.44C129.389 218.646 130.586 217.773 131.757 216.919L131.848 216.852C133.054 215.972 134.233 215.115 135.438 214.358C137.846 212.847 140.303 211.773 143.131 211.773C147.756 211.773 152.573 214.153 157.362 217.719C162.14 221.277 166.806 225.951 171.127 230.417C171.343 230.64 171.694 230.662 171.935 230.467C173.264 229.395 174.716 228.198 175.85 226.906C175.951 226.797 176.011 226.652 176.011 226.497V226.497ZM75.937 198.015C75.7374 197.788 75.3997 197.745 75.1494 197.915C74.899 198.085 74.8143 198.414 74.9518 198.684C78.4325 205.508 85.5676 210.854 92.4135 213.113C97.7466 214.872 103.17 214.763 108.461 213.923C112.31 213.311 116.129 212.304 119.799 211.337C121.157 210.978 122.495 210.626 123.806 210.3C124.378 210.159 125.006 210.099 125.686 210.034C125.781 210.025 125.878 210.015 125.975 210.006C126.739 209.931 127.566 209.835 128.301 209.566C128.553 209.474 128.714 209.226 128.694 208.958C128.674 208.69 128.478 208.468 128.215 208.415C122.795 207.312 117.672 205.688 113.577 201.942C111.923 200.429 110.311 198.879 108.707 197.337C104.489 193.282 100.326 189.281 95.5936 186.135C95.3507 185.973 95.0269 186.01 94.8262 186.221C94.6254 186.433 94.6059 186.758 94.7798 186.992C96.0174 188.658 97.0408 190.522 98.0314 192.461C98.3016 192.989 98.5701 193.525 98.8399 194.064C99.5522 195.486 100.274 196.927 101.062 198.306C103.095 201.863 105.633 205.134 109.86 207.036C107.207 206.561 104.453 206.332 101.696 206.151C101.023 206.106 100.35 206.065 99.6783 206.024C97.1517 205.868 94.6412 205.714 92.1854 205.411C85.9797 204.645 80.2693 202.947 75.937 198.015ZM61.6867 174.586C61.5647 174.31 61.2564 174.167 60.967 174.253C60.6775 174.339 60.4971 174.627 60.5457 174.925C62.0986 184.44 69.6222 192.785 77.6432 198.039C81.5292 200.584 85.9412 201.702 90.3752 202.532C91.4884 202.741 92.6 202.931 93.706 203.12C97.0402 203.691 100.322 204.253 103.438 205.281C103.713 205.372 104.014 205.253 104.153 204.998C104.292 204.743 104.228 204.426 104.003 204.244C100.232 201.202 98.0468 197.39 96.3703 193.277C95.5608 191.291 94.874 189.246 94.181 187.183L94.1031 186.951C93.3858 184.815 92.657 182.663 91.7821 180.58C89.5947 175.372 86.0415 170.709 82.3018 166.232C82.1066 165.998 81.7672 165.948 81.5125 166.114C81.2577 166.281 81.1684 166.613 81.3047 166.885C83.1231 170.518 83.7634 174.632 84.4214 178.861C84.4886 179.292 84.5559 179.725 84.6247 180.158C85.3606 184.795 86.2633 189.505 89.0144 193.503L89.5087 193.163L89.0145 193.503C89.7498 194.571 90.6082 195.617 91.52 196.618C91.1681 196.337 90.8155 196.048 90.4604 195.753L90.0768 196.215L90.4604 195.753C88.0784 193.773 85.4073 192.233 82.6774 190.844C81.4234 190.206 80.1512 189.597 78.8878 188.992C78.7761 188.939 78.6644 188.885 78.5528 188.832C77.1769 188.173 75.8133 187.516 74.4805 186.822C69.1523 184.047 64.396 180.72 61.6867 174.586ZM55.7553 149.209C55.7326 148.897 55.4731 148.654 55.1597 148.653C54.8462 148.651 54.5845 148.891 54.5589 149.204C54.1483 154.216 54.5797 159.562 56.2718 164.071C58.6195 170.327 63.1263 175.105 68.2503 179.144C70.9061 181.238 73.8138 183.097 76.6364 184.878C76.8351 185.003 77.0333 185.128 77.2309 185.252C79.8518 186.904 82.3751 188.494 84.5774 190.169C84.7917 190.332 85.0886 190.333 85.3032 190.17C85.5178 190.007 85.5977 189.721 85.4985 189.471C85.1201 188.516 84.6471 187.583 84.1881 186.678C84.0594 186.425 83.9318 186.173 83.8077 185.924C83.2322 184.768 82.7185 183.637 82.4237 182.446L81.8413 182.591L82.4237 182.446C81.2954 177.89 80.8794 173.052 80.4587 168.159C80.3595 167.005 80.2601 165.849 80.151 164.692C79.5823 158.663 78.7512 152.656 76.2679 147.295C76.1424 147.024 75.8366 146.887 75.5506 146.973C75.2646 147.059 75.0854 147.343 75.1304 147.638C75.5697 150.526 75.2202 153.262 74.6767 156.018C74.525 156.788 74.3567 157.565 74.1871 158.348C73.7555 160.339 73.3148 162.373 73.1143 164.442L73.7116 164.499L73.1143 164.442C72.7127 168.591 73.2916 172.643 74.6659 176.273C74.4377 175.911 74.2121 175.546 73.986 175.18L73.4755 175.495L73.986 175.18C72.5403 172.839 70.7061 170.715 68.7763 168.685C67.8746 167.736 66.9475 166.804 66.0276 165.878L65.8331 165.682C64.8477 164.69 63.8726 163.706 62.9364 162.707C59.183 158.703 56.1433 154.561 55.7553 149.209ZM66.822 96.5382C66.7443 96.5778 66.6762 96.6339 66.6224 96.7025C61.9244 102.693 58.755 109.305 58.755 117.43C58.755 122.456 60.2027 126.713 61.7044 130.811C61.8136 131.109 61.923 131.406 62.0322 131.702C63.4319 135.502 64.7909 139.192 65.1105 143.377C65.1338 143.681 65.3817 143.92 65.6867 143.931C65.9917 143.942 66.2565 143.723 66.3021 143.421C67.0075 138.749 69.3245 134.727 72.0376 130.773C72.7305 129.763 73.4518 128.755 74.1771 127.741C76.2673 124.819 78.3908 121.85 79.9623 118.668C81.6284 115.295 82.6589 111.502 83.1175 107.811C83.1548 107.511 82.9627 107.23 82.6693 107.155C82.376 107.081 82.0732 107.237 81.9632 107.519C81.3729 109.031 80.4555 110.394 79.2768 111.51L79.2765 111.51C78.6255 112.127 77.9561 112.747 77.2803 113.373C75.1646 115.332 72.9871 117.349 71.1215 119.514C69.2625 121.671 67.6793 124.012 66.7358 126.656L66.9815 123.359L66.3831 123.314L66.9815 123.359C67.1499 121.097 66.9771 118.785 66.7118 116.491C66.6003 115.528 66.4744 114.58 66.3494 113.638C66.1725 112.306 65.9974 110.987 65.8676 109.658C65.4287 105.163 65.5619 100.941 68.0004 97.2315C68.111 97.0631 68.1298 96.8504 68.0503 96.6652C67.9709 96.4801 67.8038 96.3472 67.6055 96.3114C67.3197 96.2599 67.1005 96.3582 66.9691 96.4385C66.9235 96.4664 66.8761 96.5003 66.8535 96.5164C66.8497 96.5192 66.8466 96.5214 66.8443 96.523C66.8309 96.5324 66.8242 96.5368 66.822 96.5382ZM76.1928 103.33C75.056 104.403 74.0362 105.574 73.1541 106.811C73.4341 106.034 73.7095 105.245 73.9488 104.442C74.4679 102.7 74.8327 100.878 75.1888 99.0802L75.2139 98.9534C75.5633 97.1898 75.9077 95.4512 76.3865 93.7829C77.3637 90.3776 78.8814 87.3364 82.0514 85.1567C82.2911 84.9919 82.378 84.679 82.2577 84.4141C82.1374 84.1493 81.8445 84.0089 81.5627 84.0811C77.9727 84.9999 74.9949 87.3142 72.3846 90.2089C69.5853 93.3123 68.3258 97.1352 67.8506 101.138C67.3763 105.133 67.6788 109.351 68.0377 113.275C68.2539 115.641 68.1348 117.661 67.865 120.125C67.8333 120.415 68.0146 120.686 68.2948 120.767C68.575 120.848 68.8728 120.716 69.0007 120.454C70.5835 117.209 73.1858 114.099 76.2532 111.782C79.7593 109.134 83.4716 106.07 86.322 102.519C89.1755 98.964 91.1952 94.8844 91.2502 90.2141C91.2536 89.9211 91.0449 89.6685 90.7565 89.6166C90.468 89.5647 90.1843 89.7287 90.0854 90.0046C88.985 93.0736 86.7555 95.2717 84.1488 97.2785C83.229 97.9866 82.2782 98.6594 81.318 99.3388C80.913 99.6255 80.5063 99.9133 80.0995 100.205C78.7393 101.182 77.3941 102.197 76.1928 103.33L76.6046 103.767L76.1928 103.33ZM100.259 75.9568C100.478 75.7648 100.527 75.4432 100.376 75.1943C100.225 74.9454 99.9167 74.8411 99.6453 74.9468C99.4617 75.0184 99.2775 75.0901 99.0929 75.1619C92.5481 77.7089 85.4056 80.4884 81.0372 87.3929C79.7121 89.487 78.9616 91.7615 78.2966 93.988C78.2036 94.2994 78.1123 94.6094 78.0215 94.918C77.4567 96.837 76.9095 98.6964 76.0657 100.447C75.9402 100.708 76.0182 101.021 76.2514 101.192C76.4845 101.363 76.8064 101.343 77.0171 101.145C78.3286 99.9124 79.7071 98.8022 81.1025 97.6784C81.6703 97.2211 82.2409 96.7616 82.811 96.2906C84.7659 94.6754 86.6816 92.9501 88.3032 90.8068C89.3243 89.4574 90.3011 88.081 91.2763 86.7069C93.9801 82.897 96.6711 79.1052 100.259 75.9568Z" fill="white" stroke="white" stroke-width="1.2" stroke-linejoin="round"/>
<path d="M226.562 132.601C230.179 138.2 233.977 144.659 234.302 151.665C234.488 150.746 234.685 149.823 234.922 148.92C235.531 146.601 236.431 144.387 237.394 142.224C237.737 141.454 238.086 140.694 238.433 139.939C239.068 138.555 239.698 137.183 240.275 135.783C242.046 131.482 243.233 127.088 242.242 122.002C242.184 121.705 242.356 121.412 242.644 121.317C242.931 121.223 243.244 121.357 243.373 121.63C244.295 123.573 244.766 125.727 245.217 127.787C245.313 128.227 245.408 128.663 245.507 129.091C245.509 129.099 245.51 129.107 245.512 129.115C246.746 135.676 245.509 142.605 243.752 148.544L243.178 148.375L243.752 148.544C242.623 152.365 240.196 155.615 237.654 158.709C237.209 159.25 236.761 159.787 236.316 160.32C234.188 162.868 232.106 165.36 230.62 168.104C230.582 168.174 230.53 168.237 230.467 168.287L229.965 168.687C229.772 168.841 229.505 168.861 229.292 168.739C229.078 168.616 228.961 168.376 228.997 168.132C229.528 164.473 229.784 160.625 228.783 157.251L228.783 157.251L228.781 157.242C228.311 155.576 227.802 153.911 227.29 152.239C226.096 148.339 224.891 144.4 224.156 140.302L224.107 140.029C223.312 135.602 222.407 130.553 222.941 126.156C222.976 125.87 223.21 125.649 223.498 125.63C223.786 125.611 224.046 125.8 224.118 126.08C224.725 128.451 225.329 130.691 226.562 132.601ZM226.562 132.601L226.058 132.926M226.562 132.601L226.058 132.926M226.058 132.926C230.342 139.56 234.725 147.188 233.523 155.429L224 127.975C224.491 129.726 225.085 131.419 226.058 132.926ZM124.4 226.991C124.4 226.817 124.475 226.656 124.599 226.544C133.633 217.917 146.623 208.634 160.383 208.634C168.087 208.634 175.124 211.714 181.828 214.648C183.24 215.266 184.638 215.877 186.023 216.452C193.139 219.404 202.578 218.806 208.841 214.487C209.086 214.318 209.417 214.354 209.62 214.572C209.823 214.789 209.836 215.122 209.651 215.355C206.371 219.471 201.996 221.987 197.53 223.683C189.093 227.048 179.326 224.449 172.263 219.934L172.586 219.429L172.263 219.934C171.021 219.141 169.824 218.268 168.653 217.413L168.562 217.346C167.356 216.466 166.177 215.609 164.972 214.852C162.564 213.341 160.107 212.268 157.279 212.268C152.654 212.268 147.837 214.647 143.048 218.213C138.27 221.771 133.604 226.445 129.283 230.911C129.067 231.134 128.717 231.156 128.475 230.961C127.146 229.889 125.694 228.692 124.56 227.4C124.459 227.291 124.4 227.146 124.4 226.991V226.991ZM224.473 198.509C224.673 198.282 225.01 198.239 225.261 198.409C225.511 198.579 225.596 198.909 225.458 199.178C221.978 206.002 214.843 211.348 207.997 213.607C202.664 215.367 197.24 215.257 191.949 214.417C188.101 213.806 184.281 212.798 180.611 211.831C179.253 211.473 177.915 211.12 176.604 210.795C176.032 210.653 175.404 210.593 174.724 210.528C174.629 210.519 174.533 210.51 174.435 210.5C173.671 210.425 172.844 210.329 172.109 210.06C171.857 209.968 171.696 209.72 171.717 209.452C171.737 209.184 171.932 208.962 172.195 208.909C177.615 207.806 182.738 206.182 186.833 202.436C188.487 200.923 190.1 199.373 191.704 197.831C195.921 193.776 200.084 189.775 204.817 186.629C205.059 186.467 205.383 186.504 205.584 186.716C205.785 186.927 205.804 187.252 205.63 187.486C204.393 189.152 203.369 191.016 202.379 192.955C202.109 193.483 201.84 194.019 201.57 194.558C200.858 195.98 200.136 197.421 199.348 198.8C197.316 202.357 194.778 205.628 190.55 207.53C193.203 207.055 195.958 206.826 198.714 206.645C199.387 206.6 200.06 206.559 200.732 206.518C203.258 206.362 205.769 206.208 208.225 205.905C214.431 205.14 220.141 203.441 224.473 198.509ZM238.723 175.08C238.845 174.804 239.154 174.661 239.443 174.747C239.733 174.833 239.913 175.121 239.864 175.419C238.312 184.934 230.788 193.279 222.767 198.533C218.881 201.078 214.469 202.196 210.035 203.026C208.922 203.235 207.81 203.425 206.704 203.615C203.37 204.185 200.088 204.747 196.972 205.775C196.697 205.866 196.396 205.747 196.257 205.492C196.119 205.237 196.182 204.92 196.408 204.738C200.178 201.696 202.363 197.884 204.04 193.771C204.849 191.785 205.536 189.74 206.229 187.677L206.307 187.445C207.024 185.309 207.753 183.157 208.628 181.074C210.815 175.866 214.369 171.204 218.108 166.726C218.304 166.492 218.643 166.442 218.898 166.609C219.152 166.775 219.242 167.107 219.105 167.379C217.287 171.012 216.647 175.126 215.989 179.355C215.922 179.786 215.854 180.219 215.785 180.652C215.05 185.29 214.147 190 211.396 193.997L210.901 193.657L211.396 193.997C210.66 195.065 209.802 196.111 208.89 197.112C209.242 196.831 209.595 196.543 209.95 196.247L210.333 196.709L209.95 196.247C212.332 194.267 215.003 192.727 217.733 191.338C218.987 190.7 220.259 190.091 221.522 189.486C221.634 189.433 221.746 189.379 221.857 189.326C223.233 188.667 224.597 188.01 225.93 187.316C231.258 184.541 236.014 181.214 238.723 175.08ZM244.655 149.704C244.678 149.391 244.937 149.148 245.25 149.147C245.564 149.146 245.826 149.386 245.851 149.698C246.262 154.71 245.83 160.056 244.138 164.565C241.791 170.821 237.284 175.6 232.16 179.639C229.504 181.732 226.596 183.591 223.774 185.372C223.575 185.497 223.377 185.622 223.179 185.746C220.558 187.398 218.035 188.988 215.833 190.664C215.618 190.827 215.322 190.827 215.107 190.664C214.892 190.501 214.812 190.215 214.912 189.965C215.29 189.01 215.763 188.077 216.222 187.173C216.351 186.919 216.478 186.667 216.602 186.418C217.178 185.262 217.692 184.131 217.986 182.94L218.569 183.085L217.986 182.94C219.115 178.384 219.531 173.546 219.951 168.653C220.051 167.499 220.15 166.343 220.259 165.186C220.828 159.157 221.659 153.15 224.142 147.79C224.268 147.519 224.574 147.381 224.86 147.467C225.146 147.553 225.325 147.837 225.28 148.132C224.84 151.021 225.19 153.756 225.733 156.513C225.885 157.282 226.053 158.059 226.223 158.842C226.655 160.833 227.095 162.867 227.296 164.936L226.699 164.994L227.296 164.936C227.697 169.085 227.119 173.137 225.744 176.767C225.972 176.405 226.198 176.04 226.424 175.674L226.935 175.989L226.424 175.674C227.87 173.333 229.704 171.209 231.634 169.179C232.536 168.231 233.463 167.298 234.383 166.372L234.577 166.176C235.562 165.185 236.538 164.2 237.474 163.201C241.227 159.197 244.267 155.055 244.655 149.704ZM233.588 97.0324C233.666 97.072 233.734 97.128 233.788 97.1967C238.486 103.187 241.655 109.799 241.655 117.924C241.655 122.95 240.207 127.207 238.706 131.305C238.597 131.603 238.487 131.9 238.378 132.197C236.978 135.996 235.619 139.686 235.3 143.871C235.276 144.175 235.028 144.414 234.723 144.425C234.418 144.436 234.154 144.217 234.108 143.915C233.403 139.243 231.086 135.221 228.373 131.267C227.68 130.257 226.958 129.249 226.233 128.235C224.143 125.313 222.019 122.344 220.448 119.162C218.782 115.789 217.751 111.996 217.293 108.305C217.255 108.005 217.447 107.724 217.741 107.65C218.034 107.575 218.337 107.731 218.447 108.013C219.037 109.525 219.955 110.888 221.133 112.004L221.134 112.004C221.785 112.622 222.454 113.242 223.13 113.867C225.246 115.827 227.423 117.843 229.289 120.008C231.148 122.166 232.731 124.506 233.674 127.15L233.429 123.853L234.027 123.808L233.429 123.853C233.26 121.591 233.433 119.279 233.698 116.985C233.81 116.022 233.936 115.074 234.061 114.132C234.238 112.8 234.413 111.482 234.543 110.152C234.981 105.657 234.848 101.435 232.41 97.7256C232.299 97.5572 232.28 97.3445 232.36 97.1594C232.439 96.9742 232.606 96.8413 232.805 96.8055C233.09 96.754 233.31 96.8523 233.441 96.9326C233.487 96.9605 233.534 96.9944 233.557 97.0106C233.56 97.0133 233.564 97.0155 233.566 97.0171C233.579 97.0266 233.586 97.0309 233.588 97.0324ZM224.217 103.825C225.354 104.897 226.374 106.068 227.256 107.305C226.976 106.528 226.701 105.739 226.461 104.936C225.942 103.194 225.577 101.372 225.221 99.5743L225.196 99.4475C224.847 97.6839 224.502 95.9454 224.024 94.277C223.046 90.8717 221.529 87.8305 218.359 85.6509C218.119 85.4861 218.032 85.1731 218.152 84.9083C218.273 84.6435 218.566 84.5031 218.847 84.5752C222.437 85.494 225.415 87.8083 228.026 90.703C230.825 93.8064 232.084 97.6294 232.56 101.632C233.034 105.627 232.731 109.845 232.372 113.769C232.156 116.135 232.275 118.156 232.545 120.619C232.577 120.909 232.396 121.18 232.115 121.261C231.835 121.342 231.537 121.21 231.409 120.948C229.827 117.703 227.224 114.594 224.157 112.276C220.651 109.628 216.939 106.564 214.088 103.013C211.235 99.4582 209.215 95.3786 209.16 90.7083C209.157 90.4152 209.365 90.1626 209.654 90.1107C209.942 90.0588 210.226 90.2228 210.325 90.4987C211.425 93.5678 213.655 95.7659 216.261 97.7726C217.181 98.4807 218.132 99.1535 219.092 99.833C219.497 100.12 219.904 100.407 220.311 100.7C221.671 101.676 223.016 102.691 224.217 103.824L223.806 104.261L224.217 103.825ZM200.151 76.451C199.932 76.2589 199.883 75.9374 200.034 75.6885C200.185 75.4396 200.493 75.3352 200.765 75.441C200.948 75.5125 201.133 75.5842 201.317 75.6561C207.862 78.203 215.005 80.9826 219.373 87.887C220.698 89.9812 221.449 92.2556 222.114 94.4821C222.207 94.7935 222.298 95.1036 222.389 95.4121C222.953 97.3312 223.501 99.1906 224.344 100.941C224.47 101.202 224.392 101.515 224.159 101.686C223.926 101.857 223.604 101.837 223.393 101.639C222.082 100.407 220.703 99.2963 219.308 98.1725C218.74 97.7152 218.169 97.2557 217.599 96.7847C215.644 95.1696 213.729 93.4442 212.107 91.3009C211.086 89.9515 210.109 88.5751 209.134 87.2011C206.43 83.3911 203.739 79.5993 200.151 76.451Z" fill="white" stroke="white" stroke-width="1.2" stroke-linejoin="round"/>
<path d="M210.439 165.311L208.979 164.515C205.898 170.866 201.813 176.68 196.882 181.732L188.353 173.203C192.531 168.897 195.9 164.01 198.382 158.727L196.93 157.932C194.489 163.143 191.198 167.911 187.193 172.042L179.467 164.316C182.737 160.921 185.392 156.985 187.315 152.682L185.874 151.895C184.025 156.061 181.466 159.874 178.311 163.162L169.772 154.624C172.114 152.146 173.966 149.246 175.228 146.079L173.785 145.292C172.602 148.323 170.85 151.1 168.623 153.473L160.873 145.724C163.073 143.278 164.368 140.152 164.542 136.867H175.512C175.422 139.753 174.838 142.603 173.785 145.292L175.228 146.079C176.395 143.143 177.038 140.025 177.127 136.867H189.22C189.116 142.049 187.978 147.158 185.873 151.895L187.315 152.682C189.514 147.757 190.729 142.406 190.836 136.866H201.785C201.679 144.153 200.023 151.334 196.928 157.932L198.382 158.727C201.561 151.962 203.289 144.547 203.403 136.866H215.495C215.374 146.762 213.043 156.133 208.979 164.515L210.439 165.311C214.811 156.306 217.132 146.362 217.132 136.057C217.132 127.295 215.453 118.793 212.263 110.907L210.765 111.551C213.769 118.993 215.398 126.997 215.498 135.249H203.404C203.306 128.666 202.013 122.281 199.646 116.33L198.159 116.967C200.442 122.721 201.691 128.889 201.787 135.249H190.837C190.748 130.473 189.819 125.749 188.092 121.295L186.604 121.934C188.246 126.186 189.132 130.692 189.222 135.249H177.128C177.046 132.333 176.493 129.45 175.49 126.711L174.003 127.349C174.923 129.885 175.432 132.552 175.513 135.249H164.543C164.37 131.964 163.074 128.838 160.874 126.392L168.632 118.635C171.027 121.183 172.84 124.141 174.003 127.349L175.49 126.711C174.245 123.319 172.317 120.189 169.773 117.493L178.325 108.942C181.974 112.74 184.759 117.15 186.605 121.934L188.092 121.295C186.165 116.326 183.264 111.744 179.468 107.799L187.21 100.055C192.005 105.001 195.69 110.739 198.159 116.968L199.646 116.33C197.095 109.916 193.295 104.006 188.353 98.9144L196.903 90.3626C202.951 96.5573 207.615 103.745 210.764 111.551L212.263 110.907C208.935 102.671 203.959 95.1057 197.488 88.6351C190.993 82.1401 183.395 77.1529 175.123 73.824L174.527 75.3407C182.35 78.4918 189.554 83.1616 195.76 89.2199L187.21 97.7712C182.204 92.9204 176.405 89.1601 170.11 86.6126L169.52 88.1167C175.608 90.5865 181.219 94.2234 186.068 98.927L178.325 106.67C174.561 103.049 170.221 100.237 165.516 98.3121L164.926 99.8158C169.427 101.661 173.579 104.351 177.183 107.812L168.633 116.363C166.228 114.096 163.478 112.317 160.506 111.076L159.915 112.581C162.714 113.756 165.28 115.424 167.49 117.506L159.734 125.263C157.268 123.054 154.178 121.775 150.874 121.594V110.625C153.982 110.717 157.047 111.38 159.915 112.581L160.506 111.076C157.485 109.814 154.232 109.107 150.875 109.008V96.915C155.771 97.0135 160.515 98.0085 164.926 99.8162L165.517 98.3121C160.921 96.432 155.975 95.3983 150.875 95.2998V84.3446C157.368 84.4439 163.664 85.7388 169.519 88.113L170.109 86.6089C164.067 84.1615 157.574 82.8283 150.874 82.729V70.6343C159.111 70.7344 167.099 72.3578 174.528 75.3489L175.124 73.8322C167.264 70.6673 158.794 69 150.067 69C139.285 69 129.097 71.5724 120.063 76.1123L120.8 77.5228C129.542 73.1424 139.214 70.756 149.259 70.6347V82.7294C141.328 82.8428 133.524 84.7353 126.422 88.2672L127.157 89.6737C133.958 86.3069 141.466 84.4622 149.259 84.3434V95.2945C143.356 95.406 137.549 96.8062 132.244 99.397L132.983 100.81C138.005 98.3723 143.528 97.0253 149.259 96.9097V109.004C145.569 109.11 141.941 109.975 138.599 111.543L139.342 112.962C142.421 111.531 145.78 110.727 149.259 110.619V121.59C147.6 121.682 145.969 122.058 144.438 122.704L145.18 124.122C146.731 123.488 148.391 123.163 150.067 123.165C153.513 123.165 156.751 124.507 159.188 126.943C161.625 129.379 162.966 132.62 162.966 136.066C162.966 143.178 157.181 148.967 150.067 148.967C146.62 148.967 143.381 147.625 140.944 145.188C138.508 142.751 137.166 139.511 137.166 136.066C137.166 132.62 138.508 129.379 140.944 126.943C142.154 125.73 143.594 124.771 145.179 124.122L144.438 122.704C142.961 123.328 141.599 124.192 140.405 125.261L132.644 117.5C134.62 115.64 136.881 114.107 139.341 112.962L138.598 111.543C135.995 112.765 133.602 114.393 131.509 116.366L122.95 107.807C125.907 104.963 129.293 102.602 132.983 100.81L132.244 99.3966C128.412 101.266 124.895 103.722 121.821 106.677L114.065 98.9213C117.921 95.1771 122.338 92.0569 127.156 89.6733L126.421 88.2668C121.462 90.7279 116.914 93.9426 112.939 97.7965L104.371 89.2281C109.21 84.5015 114.751 80.5529 120.799 77.5228L120.062 76.1123C107.004 82.6745 96.3733 93.3684 89.8995 106.478L91.3047 107.236C94.3623 101.019 98.3869 95.326 103.228 90.37L111.797 98.9388C107.788 103.068 104.47 107.816 101.973 113.002L103.373 113.757C105.762 108.767 108.964 104.145 112.921 100.064L120.678 107.82C117.533 111.093 114.955 114.866 113.048 118.985L114.451 119.742C116.28 115.757 118.767 112.109 121.808 108.949L130.367 117.509C128.162 119.847 126.39 122.558 125.132 125.515L126.547 126.28C127.724 123.456 129.402 120.869 131.5 118.642L139.261 126.403C137.131 128.784 135.778 131.863 135.59 135.256H124.618C124.71 132.172 125.364 129.13 126.547 126.279L125.132 125.514C123.822 128.601 123.099 131.905 123.002 135.256H110.91C111.019 129.814 112.239 124.559 114.45 119.741L113.047 118.985C110.68 124.089 109.402 129.631 109.296 135.257H98.3434C98.4586 127.694 100.193 120.398 103.373 113.756L101.973 113.001C98.7198 119.756 96.849 127.297 96.7302 135.257H84.6351C84.754 125.379 87.0622 115.862 91.3039 107.236L89.8987 106.478C85.4893 115.409 83 125.449 83 136.065C83 142.558 83.9274 148.904 85.6989 154.967L87.2828 154.568C85.5967 148.818 84.7059 142.865 84.6351 136.873H96.7282C96.7982 141.87 97.5683 146.831 99.0161 151.614L100.584 151.219C99.1817 146.622 98.4191 141.804 98.3434 136.873H109.294C109.37 140.834 110.021 144.763 111.228 148.537L112.798 148.141C111.622 144.497 110.986 140.701 110.91 136.873H123.003C123.084 139.706 123.609 142.509 124.559 145.18L126.131 144.783C125.21 142.243 124.7 139.573 124.618 136.873H135.589C135.763 140.159 137.057 143.285 139.257 145.731L131.5 153.488C129.108 150.941 127.296 147.987 126.13 144.783L124.559 145.18C125.8 148.661 127.756 151.873 130.358 154.63L121.808 163.181C117.648 158.851 114.604 153.719 112.802 148.144L111.231 148.54C113.103 154.395 116.295 159.78 120.668 164.326L112.925 172.07C107.134 166.099 102.951 158.975 100.588 151.221L99.0197 151.617C101.455 159.649 105.782 167.031 111.782 173.212L103.231 181.763C95.6636 174.009 90.2584 164.703 87.2869 154.571L85.7026 154.97C88.8198 165.636 94.5701 175.414 102.647 183.489C108.117 188.961 114.369 193.364 121.147 196.609L121.95 195.186C115.535 192.129 109.601 188.009 104.374 182.905L112.924 174.355C117.298 178.607 122.368 182.076 127.915 184.614L128.712 183.199C123.358 180.769 118.406 177.419 114.068 173.213L121.811 165.47C125.44 168.961 129.607 171.698 134.119 173.615L134.917 172.202C130.534 170.363 126.481 167.718 122.956 164.332L131.507 155.781C134.255 158.373 137.454 160.325 140.921 161.568L141.73 160.137C138.349 158.965 135.255 157.091 132.65 154.639L140.407 146.881C142.871 149.091 145.961 150.37 149.265 150.551V161.522C146.698 161.443 144.157 160.976 141.73 160.137L140.921 161.568C143.602 162.528 146.418 163.057 149.265 163.137V175.229C144.261 175.129 139.412 174.093 134.92 172.208L134.123 173.621C138.86 175.635 143.977 176.744 149.265 176.846V187.796C142.059 187.685 135.1 186.101 128.716 183.205L127.918 184.62C134.546 187.648 141.778 189.3 149.265 189.412V201.503C139.66 201.388 130.391 199.211 121.954 195.192L121.151 196.615C130.067 200.883 139.895 203.139 150.073 203.139C160.749 203.139 171.036 200.644 180.293 195.96L179.529 194.478C170.895 198.851 161.176 201.378 150.88 201.504V189.412C159.043 189.292 166.901 187.335 174.001 183.764L173.246 182.301C166.302 185.801 158.655 187.68 150.88 187.796V176.845C157.005 176.727 162.899 175.258 168.239 172.594L167.489 171.138C162.325 173.717 156.651 175.114 150.88 175.229V163.137C154.781 163.023 158.536 162.084 161.953 160.411L161.208 158.964C157.986 160.538 154.465 161.41 150.88 161.521V150.551C154.166 150.378 157.293 149.082 159.739 146.881L167.487 154.631C165.623 156.381 163.506 157.841 161.208 158.964L161.953 160.411C164.402 159.213 166.655 157.652 168.638 155.781L177.175 164.319C174.31 167.069 171.044 169.368 167.489 171.138L168.239 172.594C171.945 170.747 175.348 168.347 178.331 165.475L186.057 173.201C182.274 176.867 177.953 179.936 173.246 182.301L174.001 183.764C178.86 181.322 183.316 178.151 187.217 174.361L195.746 182.891C190.988 187.535 185.517 191.446 179.529 194.478L180.293 195.96C186.652 192.744 192.458 188.536 197.495 183.495C202.876 178.116 207.217 171.976 210.446 165.327L210.439 165.311Z" fill="white" stroke="white" stroke-width="0.5"/>
<path d="M153.5 120.553L153.519 121.039L153.927 121.019L153.905 120.537L153.5 120.553ZM152.906 119.892H153.447V120.303H152.906V119.892ZM152.407 119.819L152.464 119.411L151.989 119.343L151.932 119.747L152.407 119.819ZM151.531 119.61L151.059 119.541L151.116 119.133L151.588 119.201L151.531 119.61ZM147.632 119.065H148.173V119.478H147.632V119.065ZM146.926 119.955L146.983 119.547L146.511 119.479L146.454 119.887L146.926 119.955ZM146.503 120.508L145.961 120.371L146.059 119.971L146.601 120.109L146.503 120.508ZM145.534 121.016L145.467 120.604L145.868 120.537L145.935 120.948L145.534 121.016ZM92.4294 164.035H92.8376L92.7672 163.006L92.2255 162.799V162.456H91.8878V163.142H92.4294V164.035ZM96.6251 167.054L97.0972 167.4L97.5721 168.429L97.3011 168.908L96.5584 168.222L96.0163 167.468L95.7453 166.85L95.2699 165.614L96.2841 166.093L96.6251 167.054ZM112.726 187.653L112.251 187.928L111.98 187.517L111.304 187.31L111.237 186.692L110.695 185.867L111.508 186.006L112.385 186.76L112.726 187.653ZM147.97 124.97H147.226L147.091 123.461L147.497 123.185V122.43H145.128L145.061 121.675L145.4 121.469L144.859 121.263L144.452 121.812L144.318 122.43L143.641 122.568V122.91H143.168V123.802L141.273 125.381L137.485 125.245C137.213 125.862 136.537 125.176 136.537 125.176C136.403 124.764 135.456 125.176 135.456 125.176C135.456 125.932 134.171 124.833 134.171 124.833L131.802 123.116C130.449 121.88 128.42 123.46 128.353 123.802C128.42 124.764 126.797 124.009 126.797 124.009C126.797 124.009 125.444 123.597 125.241 124.147C125.039 124.695 124.158 124.559 124.158 124.559L124.022 124.833L123.345 124.97L123.211 125.382L122.399 125.52L124.428 125.451C124.969 125.382 124.224 126.618 123.887 126.55L122.941 126.618L122.601 126.961H121.722L121.317 127.511L120.032 127.442C120.032 127.442 119.287 128.06 119.356 128.266C119.423 128.472 119.22 129.09 119.017 129.09C118.813 129.09 118.408 129.708 118.543 129.914C118.679 130.12 118.138 130.806 118.138 130.806L118.003 131.494L117.597 131.63V133.484L116.785 134.034V134.857L115.566 136.162L115.702 137.26L114.688 138.359L114.822 139.457L114.214 139.663L114.079 140.144L113.809 141.585L114.485 141.654C114.822 141.517 114.755 142.547 114.485 142.684C114.214 142.821 113.469 143.095 113.876 143.37C114.282 143.645 112.794 143.576 112.794 143.164C112.794 142.753 111.982 142.409 111.779 142.547C111.576 142.683 111.237 141.929 111.237 141.929C110.493 141.174 108.193 141.997 108.193 141.997L107.854 143.096C107.111 143.234 106.637 144.469 106.637 144.469C106.028 144.675 105.555 145.43 105.758 145.636C105.961 145.842 105.419 145.911 105.419 145.911V147.422L105.081 147.902L105.148 149.549C105.555 149.549 105.487 150.305 105.487 150.305C104.811 150.374 104.945 151.266 104.945 151.266L103.525 151.747L103.255 152.159L101.496 152.089L101.023 152.57L100.548 152.089H97.1655L97.0312 151.746L96.3545 151.608L96.2861 150.854L95.272 150.922L95.0693 151.334L93.9864 151.402C94.054 152.089 92.9039 153.119 92.7696 152.845C92.6325 152.57 91.889 151.814 92.228 151.678C92.5665 151.54 93.4464 151.402 93.4464 151.402V150.922L90.9424 150.854L90.6726 151.266L89.6568 151.334V152.433L89.1839 152.57C88.8449 152.775 89.2507 153.532 89.2507 153.532C89.7244 154.012 89.1839 154.766 89.1839 154.766C88.777 155.179 89.5213 155.935 89.5213 155.935C90.063 156.071 89.1835 156.483 89.1835 156.483C89.3178 157.169 89.7248 157.376 89.7248 157.376C89.3178 158.062 89.9962 158.404 89.9962 158.404L90.063 159.573L90.5367 159.848V160.602L90.8069 161.083H91.8894L91.8218 159.367C90.8744 158.268 92.6329 157.993 92.7017 158.404C92.77 158.816 93.5139 159.023 93.5139 159.023C93.6495 160.053 94.7999 160.67 95.1369 159.641C95.4754 158.61 95.7461 159.229 95.9491 159.709C96.1522 160.19 97.4358 161.357 97.4358 161.357H98.4515L98.5874 162.319C99.7371 162.25 100.074 162.389 100.548 163.966C101.023 165.544 102.307 165.957 102.307 165.957L103.255 165.888C103.255 165.065 104.202 166.027 104.202 166.439C104.202 166.85 106.028 168.429 106.028 168.429L107.854 168.84L109.547 170.215L110.831 170.078H111.374C111.711 168.909 113.335 170.145 113.469 170.558C113.606 170.97 114.688 171.657 114.822 171.312C114.958 170.97 115.702 171.176 115.838 172.205C115.973 173.236 116.446 173.03 116.446 173.03L120.302 172.961L121.655 171.792L125.106 171.725C126.864 171.656 125.782 169.253 125.445 169.253C124.836 168.772 125.647 166.782 125.647 166.782L120.709 162.182C119.559 162.182 120.573 160.533 120.573 160.533C121.452 159.983 120.37 159.093 120.37 159.093C120.506 158.267 119.896 157.306 119.896 157.306C118.679 156.482 119.017 154.903 119.017 154.903V153.804C118.003 152.843 119.423 152.705 119.423 152.705C119.896 151.883 119.084 151.264 119.084 151.264L119.017 150.372L117.934 150.234L117.8 147.006L115.365 143.506C114.89 143.368 115.229 142.545 115.229 142.545C115.837 142.201 115.092 141.378 115.092 141.378L115.025 139.867L116.445 139.729L116.784 139.181H117.46L117.393 137.395C117.731 136.503 118.542 136.983 118.542 136.983L119.489 137.052L120.031 136.022L120.166 135.198L119.422 135.13C118.61 134.649 119.016 132.864 119.016 132.864C120.302 130.941 121.789 132.04 121.789 132.04L122.737 131.972C124.157 132.932 122.872 134.718 122.872 134.718C122.601 135.13 122.737 136.434 122.737 136.434L123.075 138.631L122.195 139.387C121.452 139.799 121.452 140.76 122.264 140.966C122.804 141.034 122.601 142.339 121.789 141.446C120.572 141.446 122.467 142.545 121.925 142.269C123.143 142.887 122.872 141.72 122.872 141.72L124.497 140.415C125.106 139.935 126.188 141.446 126.188 141.652C126.188 141.858 128.894 141.72 128.894 141.72C129.638 142.2 129.908 143.437 129.908 143.437C130.653 142.475 132.208 143.367 131.059 143.917C132.14 144.604 132.14 145.221 132.14 145.221C133.021 144.947 133.021 145.633 133.021 145.84C133.021 146.046 133.291 144.81 133.291 144.81C132.276 144.054 134.644 143.78 133.968 145.153L133.561 145.772L134.238 146.32L134.305 147.9C135.794 147.762 135.388 145.908 135.388 145.908L136.064 145.771C136.064 145.153 136.537 145.496 136.537 145.496C136.064 143.162 137.62 142.751 137.62 142.751C138.499 142.545 138.567 140.69 138.567 140.69C137.959 140.415 138.296 139.455 138.973 140.279C139.649 141.102 138.567 138.63 138.567 138.63L138.026 138.15L137.282 138.082L137.214 137.326H135.997L135.794 138.288L135.321 138.425L135.184 138.15L134.982 138.905H133.765L133.697 138.082L134.441 137.876L134.712 137.464L134.914 136.365H135.794L136.944 136.022C137.011 134.855 137.62 135.13 137.62 135.13L138.026 135.473L138.635 135.953L138.703 136.364L138.296 136.57L138.23 137.12L138.433 137.875H138.973C139.176 136.776 140.598 136.776 141.003 137.463L141.41 136.502C140.463 136.022 141.392 135.266 141.662 135.61C141.933 135.953 142.559 134.717 142.559 134.717C142.559 134.717 143.033 135.335 142.559 134.511C142.086 133.687 142.897 133.275 142.897 133.275C142.762 132.452 143.777 132.589 143.777 132.589L143.845 131.491L142.897 131.421C142.695 132.383 141.883 131.559 142.289 131.353C142.696 131.147 143.1 130.735 143.1 130.735V130.048L143.506 129.911L143.573 129.225H144.589L145.468 128.813L145.671 128.469L146.618 128.401L147.971 127.165L147.836 126.616C147.024 126.616 147.836 125.997 147.836 125.997L147.97 124.97H147.97Z" fill="white" stroke="white" stroke-width="1.2" stroke-linecap="round" stroke-linejoin="round"/>
<path d="M120.708 138.562L119.49 138.425L119.559 138.905H119.896C120.437 139.867 119.964 142.201 119.964 142.201C119.964 142.201 119.153 142.268 119.017 141.857C118.883 141.446 118.543 142.75 118.814 142.956C119.084 143.161 120.032 142.956 120.099 143.712C120.166 144.466 120.708 143.231 120.708 143.231V138.562Z" fill="white" stroke="white" stroke-width="1.2" stroke-linecap="round" stroke-linejoin="round"/>
<path d="M120.977 146.251L121.114 145.633L120.639 145.429L120.706 144.4L121.114 144.329L121.181 143.847L120.164 144.536L119.488 144.125V145.772L120.572 147.212L120.977 146.251ZM121.248 148.037L120.776 148.105L120.706 148.655L121.248 148.723V148.037ZM120.639 151.538L120.065 151.606V152.088L120.639 152.02V151.538ZM121.437 149.908C121.595 149.908 121.723 149.778 121.723 149.618C121.723 149.58 121.716 149.542 121.702 149.507C121.688 149.472 121.667 149.439 121.64 149.412C121.614 149.385 121.582 149.364 121.547 149.349C121.512 149.334 121.475 149.326 121.437 149.326C121.399 149.326 121.361 149.334 121.326 149.349C121.291 149.364 121.259 149.385 121.233 149.412C121.206 149.439 121.185 149.471 121.171 149.507C121.157 149.542 121.15 149.58 121.15 149.618C121.15 149.778 121.278 149.908 121.437 149.908Z" fill="white" stroke="white" stroke-width="1.2" stroke-linecap="round" stroke-linejoin="round"/>
<path d="M121.908 151.351C122.067 151.351 122.195 151.221 122.195 151.06C122.195 150.899 122.067 150.769 121.908 150.769C121.75 150.769 121.621 150.899 121.621 151.06C121.621 151.221 121.75 151.351 121.908 151.351Z" fill="white" stroke="white" stroke-width="1.2" stroke-linecap="round" stroke-linejoin="round"/>
<path d="M121.924 143.507C122.082 143.507 122.211 143.377 122.211 143.216C122.211 143.055 122.082 142.925 121.924 142.925C121.765 142.925 121.637 143.055 121.637 143.216C121.637 143.377 121.765 143.507 121.924 143.507Z" fill="white" stroke="white" stroke-width="1.2" stroke-linecap="round" stroke-linejoin="round"/>
<path d="M145.4 134.855V133.551H144.995L144.928 133.069L144.182 133.001L144.047 133.344H143.71L143.64 133.894H144.048L144.115 134.305L143.844 134.58L143.71 134.923L143.168 135.062L141.95 136.23L141.883 136.777L141.545 137.259L141.14 138.288L139.718 138.356L139.447 139.592L139.648 140.621L140.866 141.103L141.003 140.417L141.408 140.21L141.478 139.524L141.746 139.042L142.154 138.563L142.288 138.013L142.964 137.602L143.777 137.463L144.115 137.052L144.252 136.23L144.3 135.612L144.59 135.198L145.4 134.855ZM146.819 137.74V136.779L146.683 135.886L145.67 135.406L144.926 136.092L144.79 137.054V137.671L144.113 137.809L143.977 139.663L143.437 139.869L143.505 140.555L142.761 140.761L142.017 140.967L141.881 141.86L141.341 142.203L141.069 143.027L140.731 145.018C140.731 145.018 141.34 146.185 141.678 145.636C142.017 145.087 142.557 145.018 142.557 145.018L142.761 144.537L144.587 144.606C144.723 143.85 145.602 144.126 145.602 144.469C145.602 144.812 146.279 144.537 146.279 144.537L146.752 143.782H147.495L147.563 142.958L147.902 142.752V141.516C148.985 141.173 148.848 140.143 148.848 140.143L149.121 139.8L148.985 139.32C148.443 139.114 148.713 138.632 149.051 138.77C149.391 138.907 148.578 138.152 148.578 138.152C148.172 138.496 147.835 137.74 147.835 137.74H146.819ZM147.902 146.046C147.835 146.87 146.819 147.145 146.819 147.145L146.075 146.939L145.67 146.595L145.602 145.634L146.21 145.566L146.346 145.978L147.902 146.046ZM151.556 141.655C151.703 142.254 151.69 140.693 151.961 140.762C152.231 140.83 152.029 139.802 152.029 139.802L150.811 140.693C151.42 140.762 151.487 141.381 151.556 141.655ZM155.141 138.082C155.412 138.7 155.345 139.593 156.358 140.279C156.701 140.511 156.155 140.966 155.816 140.76C155.478 140.554 154.533 139.043 154.533 139.043V138.151C154.735 137.602 155.024 137.816 155.141 138.082ZM156.02 158.747L155.615 158.608L155.143 158.954L155.344 159.158L155.545 159.502L156.02 158.747ZM153.449 157.856V158.682V157.856ZM163.773 156.518L163.557 156.172L163.018 156.512L163.232 156.861L163.773 156.518ZM182.81 171.175L183.42 171.449L183.487 172.616C184.299 173.44 186.938 172.754 186.938 172.548C186.938 172.341 186.801 170.008 186.801 170.008L186.462 169.664L186.396 167.947C186.666 167.054 185.11 165.749 184.975 166.026C184.839 166.299 183.96 166.093 183.96 166.368C183.96 166.642 183.419 168.015 183.69 168.496C183.96 168.977 183.486 168.977 183.419 169.458C183.352 169.938 182.675 170.763 182.81 171.175ZM181.321 168.428C181.193 168.949 180.713 169.252 180.443 169.046C180.17 168.84 180.779 169.388 180.915 169.664C181.051 169.938 181.456 169.938 181.592 169.664C181.727 169.388 181.659 168.772 181.796 168.497C181.93 168.222 181.389 168.154 181.321 168.428V168.428ZM178.175 155.833H178.648V157.138H178.175V155.833ZM185.179 142.615C184.884 142.215 186.531 141.517 186.802 142.341C187.072 143.164 186.802 143.028 186.531 142.959C186.26 142.89 185.585 143.164 185.179 142.615ZM186.563 133.823L187.306 133.959L187.379 133.554L186.633 133.418L186.563 133.823ZM184.739 134.127L184.236 134.412L183.795 134.133L183.582 134.479L184.124 134.823L184.226 134.887L184.328 134.829L184.736 134.599L184.787 134.725L185.163 134.573L185.026 134.231L184.94 134.014L184.739 134.127ZM187.275 117.897H186.259C186.259 117.897 186.598 118.034 185.652 117.141C184.703 116.249 184.095 117.348 184.095 117.348L183.013 117.485V118.584L182.471 118.789L182.539 119.476L183.283 119.408C183.283 119.408 183.283 120.231 183.487 119.888C183.69 119.545 185.381 119.956 185.245 120.781C185.19 121.119 186.937 122.016 186.735 123.114C187.614 123.252 187.41 124.145 187.41 124.145L188.56 124.282L188.899 123.596L189.237 123.664V123.252L188.491 123.046L188.357 120.849L187.884 120.506L188.018 119.956L187.478 119.75L187.749 118.858L187.275 117.897ZM190.249 124.901L189.709 124.833L188.489 125.039L187.814 126.343C187.814 126.343 188.152 126.549 188.422 127.029C188.692 127.51 188.828 130.325 188.016 130.806C187.205 131.287 188.085 131.011 188.085 131.011L187.948 132.522C188.152 133.209 188.489 132.866 188.692 132.522C188.897 132.18 189.1 132.111 189.37 131.767C189.641 131.423 190.046 130.806 190.114 130.325C190.181 129.845 190.52 129.09 190.317 128.884C190.114 128.678 190.52 127.717 190.52 127.717C190.52 127.717 190.791 127.167 190.52 126.618C190.25 126.068 190.588 125.45 190.791 125.175L190.249 124.901ZM191.067 127.702L191.137 127.152L191.54 127.204L191.471 127.754L191.067 127.702ZM191.043 129.599L190.681 129.415L190.884 129.003L191.246 129.187L191.043 129.599ZM190.453 124.148L190.181 123.529C190.181 123.529 190.181 122.981 190.317 122.705C190.453 122.431 190.046 122.157 189.844 122.088C189.641 122.019 189.709 121.47 189.641 121.195C189.573 120.921 189.101 120.715 189.101 120.715C189.101 120.715 188.964 119.685 188.964 119.479C188.964 119.273 188.355 118.999 188.558 118.792C188.762 118.586 188.897 118.312 189.101 118.174C189.304 118.037 188.897 117.075 189.235 117.282C189.573 117.488 189.573 117.831 189.709 118.106C189.844 118.38 189.641 119.342 189.98 119.548C190.317 119.753 189.911 120.439 190.453 120.439C190.994 120.439 190.656 121.745 190.656 121.745C190.656 121.745 190.52 122.705 190.858 122.774C191.197 122.843 190.994 124.491 190.994 124.491L190.453 124.148ZM186.058 113.022C186.26 113.296 186.666 113.502 186.666 113.777C186.666 114.052 186.531 114.258 186.938 114.326C187.342 114.395 187.614 114.257 187.749 114.601C187.884 114.944 187.884 115.493 187.817 115.768C187.749 116.043 187.884 116.454 188.222 116.454C188.561 116.454 188.628 116.524 188.628 116.729C188.628 116.935 189.034 115.974 189.034 115.974C188.695 115.699 188.425 115.081 188.425 115.081C188.425 115.081 188.087 114.12 188.087 113.983C188.087 113.845 187.614 113.708 187.411 113.639C187.208 113.57 186.869 112.953 186.869 112.953L186.058 113.022V113.022ZM186.733 112.407C186.53 112.132 186.327 111.926 186.057 111.789C185.787 111.651 185.584 111.514 185.312 111.514C185.042 111.514 184.772 111.239 184.906 110.897C185.042 110.553 184.702 110.416 184.702 110.141C184.702 109.867 184.906 109.867 185.244 110.072C185.583 110.279 185.515 110.347 185.787 110.691C186.057 111.034 186.191 111.377 186.461 111.308C186.733 111.239 186.936 111.926 187.206 111.72C187.477 111.514 187.41 112.2 187.41 112.2L186.733 112.407ZM178.818 120.164C179.191 120.543 176.789 120.438 176.789 120.164C176.789 119.889 176.992 118.929 177.6 119.133C178.209 119.34 178.276 117.898 178.276 117.898C178.276 117.898 177.736 117.966 178.209 117.692C178.683 117.418 178.209 117.005 178.006 116.799C177.803 116.593 177.6 116.25 177.6 116.25H178.548C178.954 115.975 179.088 114.671 179.088 114.671C179.9 114.945 180.306 114.396 180.306 114.396C180.306 114.396 180.443 114.808 180.713 115.152C180.983 115.495 180.035 115.632 180.374 115.839C180.713 116.045 180.848 116.662 180.713 116.867C180.577 117.074 179.832 116.937 179.832 116.662C179.832 116.387 179.562 117.005 179.832 117.349C180.102 117.692 179.494 118.172 179.358 118.172C179.223 118.172 178.345 118.31 179.088 118.721C179.832 119.133 180.645 118.928 180.645 118.928C180.645 118.928 181.254 118.859 181.456 119.203C181.66 119.546 181.389 119.615 181.051 119.615C180.713 119.615 179.089 119.477 179.089 119.477C179.089 119.477 178.615 119.958 178.818 120.164ZM174.488 120.782C174.827 120.714 175.637 120.644 175.774 120.851C175.91 121.056 175.3 121.331 175.3 121.331L174.488 121.468C174.218 121.125 174.15 120.851 174.488 120.782ZM183.217 115.016C183.758 114.741 184.908 114.741 184.841 114.329C184.773 113.917 185.516 113.78 185.516 113.78L185.72 114.604L186.329 115.015L186.397 115.771C186.397 115.771 186.599 115.634 185.855 115.84C185.111 116.046 185.585 116.388 185.585 116.388L183.961 116.457L183.758 115.77L183.217 115.016ZM180.576 111.308C180.987 111.308 180.442 112.887 181.523 112.75C182.605 112.612 181.592 113.23 182.402 113.299C183.215 113.368 183.012 112.681 183.282 112.201C183.553 111.721 183.418 111.446 182.944 111.308C182.47 111.171 182.47 111.171 182.335 110.621C182.201 110.072 181.659 109.935 181.659 109.935L181.455 109.111L180.576 109.66L179.697 110.827C179.697 111.721 180.17 111.308 180.576 111.308ZM182.367 117.11L182.57 116.698L182.934 116.883L182.73 117.295L182.367 117.11ZM181.659 116.456H182.065V116.937H181.659V116.456ZM182 107.308L182.068 107.926L181.665 107.971L181.596 107.354L182 107.308ZM180.849 113.709H181.255V114.053H180.849V113.709ZM179.783 113.703L179.743 113.292L180.42 113.224L180.46 113.635L179.783 113.703ZM174.202 120.305L173.83 120.143L174.034 119.663L174.405 119.825L174.202 120.305ZM172.079 119.056L172.039 118.647L172.717 118.579L172.756 118.988L172.079 119.056ZM158.854 118.997L158.873 119.408L160.359 119.34L160.34 118.929L158.854 118.997ZM157.858 119.525L157.723 118.907L158.12 118.818L158.255 119.435L157.858 119.525ZM157.573 119.95L157.445 119.559L157.648 119.491L157.776 119.882L157.573 119.95ZM160.957 118.792L160.89 119.272L161.633 119.342C161.633 119.342 161.971 119.617 161.971 119.822C161.971 120.028 162.445 120.234 162.715 120.234C162.986 120.234 163.73 119.684 163.73 119.684C163.73 119.684 164.068 118.723 163.798 118.791C163.527 118.86 162.986 119.272 162.919 118.86C162.85 118.448 162.04 118.654 162.04 118.654L160.957 118.792ZM164.339 118.035C164.339 118.241 164.204 118.516 164.609 118.585C165.017 118.653 165.761 118.31 165.828 118.722C165.896 119.134 165.896 119.409 166.436 119.616C166.977 119.821 167.316 119.89 167.722 119.89C168.127 119.89 169.008 119.751 169.008 119.751C169.008 119.751 169.965 119.901 170.157 120.095C170.901 120.85 171.374 121.056 171.577 120.713C171.78 120.37 171.51 119.615 171.443 119.34C171.374 119.065 170.427 117.761 170.089 118.035C169.751 118.31 169.684 118.035 169.074 118.241C168.466 118.447 167.18 118.31 167.113 118.035C167.046 117.76 166.099 117.624 166.099 117.349C166.099 117.074 165.423 116.731 165.489 117.143C165.557 117.554 165.017 117.76 164.879 117.624C164.745 117.486 164.339 118.035 164.339 118.035ZM179.901 109.245L180.375 107.735C179.699 107.598 179.833 106.843 179.833 106.843C179.766 106.225 178.819 105.539 178.481 105.745C178.143 105.95 178.277 104.302 178.277 104.302C178.277 104.302 178.887 103.891 179.157 104.097C179.428 104.302 176.858 100.664 176.316 101.007C175.775 101.351 174.558 100.664 174.625 100.046C174.693 99.4282 172.19 97.3678 172.19 97.3678C172.19 97.3678 171.378 96.8196 171.243 97.2315C171.107 97.6429 170.837 97.918 171.243 98.1231C171.648 98.3298 171.581 97.7804 172.054 98.2602C172.527 98.7408 173.408 99.359 173.069 99.7713C172.73 100.184 172.324 100.321 172.324 100.321L172.799 100.87H173.543L173.678 102.037C173.678 102.037 174.489 102.449 174.693 102.93C174.896 103.41 174.896 103.685 174.693 103.96C174.489 104.234 174.085 104.715 174.152 105.195C174.219 105.675 174.761 105.882 174.761 105.882L175.301 105.951L175.708 106.157V107.05C176.248 106.912 177.128 107.667 177.06 108.148C176.993 108.628 177.195 108.354 177.871 108.835C178.549 109.315 178.346 109.384 178.819 109.727C179.293 110.069 179.699 109.864 179.901 109.245Z" fill="white" stroke="white" stroke-width="1.2" stroke-linecap="round" stroke-linejoin="round"/>
<path d="M168.737 99.9099C168.669 99.6348 168.533 98.6732 168.94 98.742C169.345 98.8112 169.075 98.742 169.548 98.9483C170.022 99.1546 170.09 98.6052 170.09 98.6052H170.834L171.781 99.3597L171.645 99.9783L170.969 100.046C170.631 99.4977 169.954 99.7036 170.09 100.185C170.225 100.665 169.752 101.557 169.482 101.625C169.211 101.694 168.33 101.694 168.399 101.283C168.466 100.871 168.737 99.9099 168.737 99.9099ZM168.195 98.0542V97.5052C168.195 97.5052 168.126 96.9563 167.789 96.9563C167.452 96.9563 166.843 96.5448 166.977 96.2697C167.113 95.9946 165.827 95.7203 165.827 95.7203C165.827 95.7203 164.678 94.6216 165.084 94.7599C165.49 94.8967 165.287 94.2785 165.287 94.2785C165.287 94.2785 164.475 94.4156 164.271 94.3477C164.068 94.2785 164.135 93.6608 164.135 93.6608C164.135 93.6608 163.325 93.4548 163.325 93.6608C163.325 93.8671 163.595 93.8671 163.729 94.2781C163.866 94.6899 163.798 95.3769 164.408 95.514C165.017 95.6516 165.151 95.7883 165.22 96.0634C165.287 96.3385 166.031 96.4065 166.031 96.4065L166.572 96.6812L168.195 98.0542ZM160.689 90.5028L160.147 90.3669V90.9854L160.89 91.053L160.689 90.5028ZM160.687 88.1693C159.98 87.6321 161.633 88.5816 161.633 88.5816C162.174 88.5816 162.512 88.9934 162.512 89.2001C162.512 89.4056 163.257 89.3373 163.257 89.3373L163.326 88.8558L162.783 88.1693L162.31 87.8271C162.31 87.8271 161.566 87.7579 161.566 87.552C161.566 87.3464 160.957 88.3756 160.687 88.1693ZM173.132 88.5803C172.934 89.181 172.861 90.0226 172.523 90.0226C172.185 90.0226 172.319 90.9158 172.319 90.9158C172.319 90.9158 173.2 90.9158 173.471 90.9838C173.74 91.0518 173.74 91.7383 173.74 91.7383C174.756 91.6703 175.162 93.0434 175.026 93.3865C174.89 93.7295 175.432 93.7295 175.432 93.7295C175.432 93.7295 175.432 94.8283 175.296 95.1026C175.162 95.3777 176.176 95.5836 176.446 95.9955C176.717 96.4077 176.31 97.7803 176.109 97.8491C175.905 97.9183 176.649 98.1234 176.581 98.4669C176.513 98.8108 176.785 98.4669 176.852 99.0163C176.919 99.5656 177.055 100.732 177.055 100.732L178.002 100.802C178.138 99.9095 179.882 99.8749 180.167 99.9775C181.317 100.389 182.197 102.175 182.197 102.586C182.197 102.998 181.452 103.067 181.452 103.067L181.588 105.057C182.738 105.401 183.685 107.05 183.55 107.324C183.415 107.599 184.361 107.531 184.361 107.531C184.497 106.293 185.647 106.706 185.713 107.118C185.783 107.531 185.984 108.423 185.984 108.423L186.323 109.04L186.796 109.521L187.54 109.452L187.744 109.864L188.623 110.002C188.623 110.002 189.368 110.825 189.435 111.032C189.503 111.237 190.518 111.169 190.788 111.237C191.058 111.306 191.465 111.512 191.532 111.856C191.6 112.199 192.006 112.748 192.006 112.748C192.006 112.748 192.817 112.954 192.885 113.228C192.953 113.503 193.292 114.121 193.292 114.121L193.966 114.67L194.035 115.289L194.779 115.358L194.982 116.18L196.199 116.112L196.877 115.632C197.756 115.152 198.365 114.533 198.433 114.258C198.5 113.984 198.635 112.954 199.312 113.16C199.988 113.366 199.515 111.649 199.515 111.649C199.515 111.649 198.568 110.963 198.635 110.619C198.703 110.276 197.689 109.59 197.756 109.315C197.823 109.04 196.877 108.491 196.944 108.217C197.011 107.942 196.47 107.186 196.47 107.186L195.455 106.226L195.32 105.607L194.509 105.539L192.885 103.548L192.952 102.998L192.479 102.93V102.175L192.006 101.9L191.261 101.831L189.774 100.184L189.638 99.4285H188.894L189.029 97.9863C189.503 97.3681 189.232 96.2014 189.232 96.2014C189.232 96.2014 188.284 96.6816 187.812 96.4757C187.337 96.2705 188.014 95.7891 188.014 95.7891V95.2401L187.609 94.8283C187.609 94.8283 186.458 94.9663 186.391 94.7603C186.323 94.554 186.12 93.6616 186.12 93.6616L186.052 92.4936L185.58 92.2889L185.511 91.8763L184.768 91.9446V91.1209L184.361 90.9838L183.956 90.7779L183.888 89.9534L182.4 89.8854L181.926 89.1989L181.385 88.3748L179.694 88.2377L179.288 87.8267L178.612 87.6883L178.138 87.4824L177.935 87.8262L176.649 87.8942L176.583 88.3065C175.906 88.6495 173.201 88.3744 173.132 88.5803ZM180.237 86.7979C180.13 86.2558 181.591 85.7683 181.929 86.1793C182.268 86.5915 183.214 86.6611 183.35 88.7207C183.397 89.4581 182.132 87.9658 182.132 87.9658L181.116 87.6224C180.576 87.4844 180.304 87.1422 180.237 86.7979H180.237ZM160.395 87.6366L160.026 87.4698L160.297 86.8512L160.667 87.0184L160.395 87.6366ZM156.898 80.893L156.017 80.0001V79.2452L155.747 78.9697L155.476 78.0093L154.597 77.7346L153.717 78.0773L152.77 78.6954L151.756 78.8338L151.214 79.4507L153.379 79.6558L153.785 80.3436L155.342 80.4807L156.355 81.5103C157.237 81.7854 157.439 81.3732 156.898 80.893ZM156.764 77.5275C156.615 76.9239 155.749 78.2824 156.63 78.5562C157.509 78.8326 158.387 78.5562 158.387 78.5562L158.59 78.1448L161.972 78.214C162.244 77.9389 162.378 77.5271 162.378 77.5271C162.378 77.5271 163.191 77.252 163.528 77.3891C163.867 77.5275 163.597 76.4287 163.257 76.5658C162.92 76.703 162.244 76.6342 162.244 76.6342H161.025C160.958 76.154 159.876 76.3595 159.808 76.6342C159.739 76.9089 159.335 76.9773 159.335 76.9773L157.779 77.1152C157.643 77.5275 156.832 77.8017 156.764 77.5275ZM150.065 89.1134C151.106 89.4435 151.486 89.1989 151.555 88.9246C151.622 88.6499 151.689 88.5807 152.095 88.5128C152.501 88.4436 152.027 87.6203 151.622 87.6887C151.215 87.7575 150.809 87.5516 150.743 87.2085C150.673 86.8654 149.997 85.9726 149.93 86.6591C149.862 87.346 149.457 87.346 149.524 87.8267C149.592 88.306 149.795 89.0268 150.065 89.1134ZM142.289 89.8867C142.24 89.6437 143.641 89.6124 143.845 89.8175C144.048 90.0238 143.912 90.3669 144.521 90.3669C145.129 90.3669 144.859 90.7791 144.791 90.9854C144.724 91.1909 144.048 91.1226 143.979 90.9171C143.912 90.7107 142.897 90.6411 142.897 90.6411C142.897 90.6411 142.356 90.2289 142.289 89.8867ZM164.732 76.156L164.872 76.0404L165.551 75.4911L165.296 75.1696L164.761 75.603L164.416 75.253L164.129 75.544L164.601 76.0246L164.732 76.156ZM161.674 74.3369L162.421 73.8559L162.204 73.5088L161.566 73.9198L161.132 73.6455L160.919 73.9947L161.461 74.3373L161.566 74.4065L161.674 74.3369ZM159.57 89.102L159.911 88.8819L159.439 88.1278L159.385 88.044L159.286 88.0342L158.611 87.963L158.569 88.374L159.149 88.4322L159.57 89.102ZM137.01 107.186L137.08 107.942H138.093C138.499 107.942 137.755 107.461 137.755 107.461C137.755 107.461 136.944 107.531 137.01 107.186ZM138.3 107.209L138.56 106.891L138.965 107.233L138.706 107.55L138.3 107.209ZM125.975 94.3636L126.262 94.0722L126.668 94.4844L126.38 94.7758L125.975 94.3636ZM145.341 183.404L145.679 183.061L145.877 182.861L145.625 182.731L144.949 182.388L144.767 182.757L145.191 182.97L145.051 183.113L145.341 183.404ZM140.208 178.483L140.444 178.149L140.183 177.958L140.386 177.787L140.128 177.47L139.72 177.813L139.519 177.984L139.733 178.14L140.208 178.483ZM190.692 164.762C190.602 164.412 190.207 164.269 190.163 164.254L190.034 164.646V164.643C190.066 164.656 190.113 164.68 190.16 164.711L190.243 165.067C190.215 165.108 190.185 165.148 190.153 165.186L190.451 165.465C190.668 165.223 190.748 164.988 190.692 164.762ZM190.656 163.417L190.706 162.799L191.366 162.902L191.316 163.466L190.656 163.417ZM206.994 158.113C207.283 157.929 207.654 157.597 207.603 158.371C207.552 159.143 207.248 158.886 206.994 159.143C206.741 159.401 206.589 158.371 206.994 158.113ZM210.437 155.199C210.431 155.185 210.428 155.138 210.425 155.103C210.416 154.99 210.401 154.835 210.321 154.673L209.959 154.857C210.003 154.949 210.012 155.047 210.02 155.14C210.03 155.26 210.044 155.397 210.159 155.484C210.232 155.54 210.323 155.556 210.433 155.534L210.355 155.136C210.386 155.141 210.427 155.169 210.437 155.199ZM209.534 155.536C209.607 155.823 209.693 156.105 209.794 156.382L210.175 156.237C210.172 156.234 210.024 155.831 209.927 155.436L209.534 155.536ZM208.056 157.156L207.652 157.115C207.621 157.44 207.698 157.84 208.017 157.905L208.097 157.501C208.1 157.501 208.104 157.504 208.104 157.504C208.072 157.474 208.042 157.308 208.056 157.156ZM206.278 148.964C206.269 148.901 206.244 148.841 206.205 148.791C206.166 148.74 206.115 148.7 206.056 148.675C205.756 148.543 205.25 148.762 205.001 148.93L205.226 149.273C205.483 149.099 205.82 149.015 205.896 149.054C205.889 149.051 205.879 149.039 205.877 149.031L206.278 148.964ZM187.542 127.029C187.272 127.304 186.663 127.442 186.663 127.442L186.459 128.197L186.122 128.471C186.122 128.471 186.189 128.677 186.122 129.158C186.054 129.638 185.445 129.913 185.445 129.913L185.175 130.257C185.175 130.257 183.544 130.345 183.348 130.257C182.739 129.982 183.146 129.158 183.552 129.227C183.957 129.296 183.483 128.059 183.483 128.059L184.025 127.991C184.025 127.991 184.092 126.754 184.295 126.754C184.499 126.754 184.228 126.343 183.956 126.136C183.686 125.931 183.348 125.245 183.076 125.313C182.806 125.381 181.724 125.313 181.724 125.313L181.521 125.725L180.776 125.862C180.776 125.862 180.84 126.393 180.71 126.549C180.303 127.029 178.748 128.059 179.424 126.343L179.626 125.932V125.313L178.409 125.245C178.409 125.245 177.801 125.039 177.801 124.764C177.801 124.49 177.733 124.147 177.733 124.147L176.312 122.568L174.621 122.362L174.485 122.018L173.472 121.881C172.253 121.264 171.17 121.812 171.374 122.842C171.577 123.873 171.914 124.284 171.239 124.284C170.561 124.284 170.427 123.735 170.427 123.735C170.427 123.735 169.886 123.529 169.886 123.803C169.886 124.079 169.683 124.628 169.886 124.902C170.088 125.176 169.614 125.588 169.411 125.382C169.21 125.176 168.668 124.56 168.804 124.353C168.938 124.147 167.855 122.842 168.938 122.637C170.021 122.43 168.871 121.812 169.277 121.676L169.818 121.401H170.359L170.697 121.126L169.818 120.989L169.277 120.92L168.262 120.852C167.248 121.538 167.045 122.362 167.045 122.362C166.503 123.392 165.219 121.95 165.693 121.401C166.165 120.852 164.204 121.332 163.865 121.607C163.526 121.881 162.512 121.744 162.512 121.744C162.31 122.363 161.363 121.676 161.633 121.264C161.903 120.852 161.903 120.577 161.903 120.577L161.566 120.508L161.16 121.264C160.213 121.264 159.941 121.812 160.144 122.156C160.347 122.499 159.874 122.087 159.738 122.568C159.604 123.048 159.807 123.048 160.213 123.254C160.619 123.461 160.009 123.461 160.28 123.803C160.55 124.147 161.363 123.803 160.889 124.284C160.416 124.765 159.468 124.56 159.468 124.56C159.401 125.176 158.115 125.04 157.981 124.834C157.844 124.628 156.831 123.392 156.831 123.392L155.543 123.323C155.409 122.363 156.153 122.843 156.424 122.087C156.696 121.332 156.831 120.097 156.831 120.097C156.831 120.097 155.747 120.028 155.68 120.371C155.613 120.715 154.936 120.921 154.936 120.921C154.936 120.921 154.394 121.126 154.597 121.401C154.801 121.676 154.191 121.812 154.191 121.812C154.191 121.812 154.297 122.256 154.124 122.431C153.584 122.98 152.229 122.499 152.027 122.293L151.215 121.95L150.403 121.401L149.456 121.812L149.186 122.087H148.171L148.104 122.91L149.93 123.116L150.065 124.815L149.321 124.559H148.847L148.645 124.146L148.238 124.077V125.588L148.645 125.931L148.983 126.274L149.66 126.343L149.796 127.166L151.486 127.236L151.689 127.578L152.705 127.648L154.666 129.638L154.531 130.256L154.192 130.462C154.328 130.943 153.313 130.668 153.313 130.668V131.079L153.785 131.149L154.26 131.422L154.936 130.256C155.68 129.775 156.018 130.462 156.086 130.874C156.154 131.286 155.747 131.217 155.747 131.217V132.179L156.154 132.315C156.831 133.139 155.883 133.62 155.883 133.62L155.68 134.307C155.476 134.925 154.733 134.787 154.733 134.787L154.463 135.199L153.65 135.405L155.256 135.611C155.409 135.061 155.814 134.924 156.017 135.199C156.221 135.474 156.221 135.955 156.221 135.955L156.628 136.023L156.559 136.778L156.965 136.916V139.113L157.439 139.662C158.251 139.319 158.251 139.868 157.844 140.142C157.439 140.416 157.708 141.653 157.708 141.653L157.371 141.995V142.545L156.965 142.82V143.575C156.288 143.232 155.476 143.368 155.272 143.575C154.665 143.163 153.379 143.3 153.379 143.644C153.785 144.193 152.906 144.331 152.906 144.331L152.432 144.88C152.771 145.567 152.095 145.634 152.095 145.634V146.94L151.282 147.695L151.351 149.48C151.351 149.96 152.365 150.029 152.567 149.754C152.771 149.48 153.583 150.304 153.583 150.304H154.19L154.327 149.068L153.92 148.862V146.87L154.597 146.115C155.409 145.84 155.139 147.901 155.139 148.107C155.206 148.862 155.543 148.793 155.882 148.655C156.559 148.381 156.017 149.412 155.476 149.342C154.936 149.274 155.273 150.029 155.273 150.029L155.612 150.167L155.003 150.647L154.463 151.266L153.785 151.059L152.974 150.991L152.703 150.509L152.229 150.441L152.161 151.401L151.824 151.814L151.012 152.639C152.095 152.639 150.876 153.392 150.606 153.392C151.214 153.599 150.538 154.217 148.983 153.737V154.217L148.441 154.286L148.915 154.834L149.455 154.903L149.252 156.07C149.252 156.962 147.021 156.344 146.817 156.139L146.75 157.375L146.343 157.442L146.411 158.267L146.343 159.435L147.087 159.297V159.778L148.915 159.847L151.553 157.031L153.109 156.689C153.243 156.001 153.919 156.826 153.919 156.826C154.596 156.756 154.732 157.237 154.732 157.237L155.612 157.375C156.355 157.581 155.906 157.653 155.95 157.925C156.016 158.336 156.355 158.199 156.355 158.199L156.491 157.306L156.897 157.375L156.491 156.894L155.746 156.55L154.935 156.208C154.393 155.453 155.07 155.59 155.612 155.659H156.491C156.491 155.659 157.507 157.031 157.507 157.375C157.507 157.719 157.98 157.787 157.98 157.787L158.587 157.718L158.791 158.198H159.4L159.603 158.609H160.821L160.888 157.992L159.737 157.787L159.67 157.1L158.859 156.894C158.588 155.727 159.061 155.384 159.4 155.934L159.806 156.001L159.67 154.971L160.143 154.834L160.008 153.391L159.603 153.255V152.774L161.293 152.844C161.159 151.95 161.361 151.539 161.361 151.539H161.835L161.902 151.883L163.972 152.078L165.435 150.4C165.362 150.271 165.582 150.193 165.421 150.028C165.218 149.822 164.947 150.028 164.608 149.822C164.27 149.618 164.608 148.449 164.54 148.175C164.473 147.901 165.692 147.487 165.489 148.106C165.285 148.725 165.489 148.999 165.489 148.999C166.368 148.175 167.112 149.067 167.045 149.273C166.976 149.479 167.517 149.686 167.855 149.479C168.194 149.273 168.6 150.098 168.464 150.509C168.328 150.92 167.112 150.852 167.045 150.44C166.976 150.028 166.772 150.166 166.639 150.372C166.502 150.578 165.895 150.715 165.556 150.509C165.487 150.467 165.454 150.432 165.435 150.399L163.972 152.078L164.067 152.088C164.878 152.569 164.473 153.186 164.203 153.324C163.931 153.461 163.458 153.461 163.458 153.461L163.324 153.736L161.564 153.873L161.428 154.56C160.549 154.421 160.212 155.383 160.414 155.863C160.618 156.343 160.414 156.756 160.414 156.756L161.159 157.1L162.105 156.826C162.241 156.138 162.849 156.001 163.391 155.59C163.931 155.178 164.811 156.343 164.54 156.894C164.27 157.442 164.27 157.649 164.27 157.649L164.337 158.267L163.661 158.541L163.12 158.816L163.051 159.16H161.225L160.888 159.502L160.008 159.573L159.736 159.984L159.128 160.053C159.128 160.053 158.113 160.533 158.52 161.082C158.925 161.632 156.829 161.563 156.354 160.808C156.218 161.493 155.475 160.876 155.475 160.876L154.731 160.67L154.664 159.641C154.528 158.954 153.243 158.954 153.311 159.435C153.378 159.916 150.874 159.641 150.874 159.641L150.063 160.035L149.318 160.465L149.251 160.808L148.033 160.945L147.492 161.22L147.29 160.808H146.748L146.207 161.564C144.787 161.633 143.434 162.456 143.569 162.8C143.704 163.142 143.028 163.488 143.028 163.488L142.419 163.691L142.014 164.31L141.202 164.585L141.066 166.027L140.661 166.301V166.919L140.186 167.056V167.4L139.51 167.468L139.915 168.498L140.458 168.773C141.405 168.91 140.999 170.078 140.999 170.078L141.539 170.146L141.811 170.901L142.351 171.999C142.555 172.824 143.164 172.618 143.434 172.549C143.704 172.482 143.974 173.373 143.974 173.373L146.68 173.442C146.68 173.442 146.546 173.717 147.019 173.854C147.492 173.99 150.604 174.129 150.74 173.923C150.604 173.305 152.43 173.167 153.175 173.716C153.919 174.265 154.933 173.923 154.933 173.923L155.948 175.157L156.626 176.668L157.776 177.011L158.587 177.218L158.858 178.385L159.466 178.454L159.67 179.209C160.414 179.758 159.466 180.926 159.466 180.926V182.436L160.007 182.711L159.939 183.261L160.82 184.152L161.834 184.222L164.405 186.968L166.434 187.585L166.772 188.684L167.314 188.615L167.72 188.272L169.343 188.204L170.155 187.447L171.034 187.311L178.543 180.926L177.866 180.513V179.004C179.084 178.111 179.151 176.531 178.002 176.394C177.129 176.29 177.529 175.364 178.341 175.227L178.814 175.022V174.403L180.369 172.962V171.863L176.988 169.047C175.499 168.499 176.988 165.203 178.001 165.272C179.017 165.34 177.935 160.191 177.935 160.191L177.392 159.917L177.529 158.269H176.785L175.567 159.849L175.229 160.946C175.094 162.39 170.899 162.113 170.696 161.907C170.492 161.701 169.072 161.084 169.072 161.084C169.072 161.084 167.99 160.191 167.787 160.466C167.584 160.741 166.637 160.122 166.637 160.329C166.637 160.535 165.758 159.849 165.758 159.849L164.406 159.368L165.421 159.161L165.218 158.338L166.975 159.23C167.178 159.504 168.057 159.437 168.057 159.437L168.328 159.78C168.328 159.78 168.87 159.711 169.209 160.123C169.547 160.536 171.305 160.192 171.305 160.192L171.779 160.603L172.522 160.878L174.62 160.947L174.687 159.643L175.094 159.231L175.026 158.406L175.499 157.995V157.309L175.905 157.172L175.973 155.662L176.31 155.593V152.297L175.296 151.336C175.229 151.679 174.147 151.679 174.147 151.679C174.147 151.679 173.876 152.16 173.673 152.16C173.471 152.16 173.944 152.777 173.808 153.189C173.673 153.6 173.131 153.6 173.131 153.6L172.116 153.876L171.846 154.22H170.763L170.629 153.327L171.846 152.983L172.522 152.641L172.861 151.953C172.928 151.268 173.74 151.336 173.74 151.336C173.74 151.336 175.296 150.031 175.363 149.414C175.432 148.796 175.973 147.079 176.919 147.079H178.678C179.354 146.804 179.152 145.912 179.152 145.912L180.032 145.775L180.167 146.256C180.167 146.256 181.385 146.393 181.52 146.187C181.656 145.982 181.926 145.5 182.265 145.707C182.603 145.912 183.685 145.225 183.685 145.225C183.752 144.745 185.444 144.951 185.444 144.951L185.647 144.333C185.647 144.333 184.497 142.754 184.294 142.754C184.091 142.754 183.009 141.792 182.873 142.136C181.792 141.862 181.859 140.351 181.859 140.351L181.453 139.39C181.453 138.84 180.439 137.673 180.235 137.811C179.219 137.056 179.964 136.163 180.235 136.094C180.505 136.026 181.183 135.065 181.183 135.065L181.521 134.103L182.67 133.761L182.806 132.868L182.198 132.799C182.198 132.799 182.874 131.563 183.212 131.563C183.551 131.563 185.783 131.563 185.985 131.425C186.188 131.289 186.594 130.19 186.594 129.984C186.594 129.778 187.136 129.709 187.338 129.64C187.541 129.572 188.014 129.023 188.15 128.748C188.285 128.471 187.813 126.755 187.541 127.029H187.542Z" fill="white" stroke="white" stroke-width="1.2" stroke-linecap="round" stroke-linejoin="round"/>
<path d="M150.066 151.78C150.168 151.679 150.269 152.09 150.472 152.039C150.674 151.987 150.776 152.399 150.574 152.399C150.37 152.399 150.37 152.657 150.37 152.76C150.37 152.863 150.37 153.12 150.218 153.274C150.066 153.429 149.913 153.326 149.71 153.223C149.507 153.12 149.407 153.12 149.152 153.12C148.899 153.12 149.101 153.532 149.101 153.532C149.101 153.532 148.035 153.481 148.238 153.326C148.442 153.173 148.645 153.12 148.493 153.016C148.34 152.913 148.493 152.811 148.493 152.605C148.493 152.399 149.001 152.502 148.847 152.347C148.696 152.193 148.85 151.595 149.101 151.935L149.254 151.574C149.101 151.42 149.203 151.368 148.899 151.267C148.594 151.164 148.847 150.545 148.847 150.545L148.899 150.133C149 149.619 150.014 149.567 150.066 150.03C150.116 150.494 150.066 150.803 150.066 150.803L150.371 150.905C150.371 150.905 150.319 151.216 150.066 151.216C149.811 151.216 150.066 151.368 149.913 151.524L150.066 151.78V151.78ZM146.717 152.297C146.869 151.988 147.224 150.649 147.63 151.061C148.035 151.474 148.29 151.061 148.29 151.061C148.29 151.061 148.493 151.268 148.391 151.68C148.289 152.091 148.188 152.504 147.933 152.555C147.68 152.607 147.477 152.761 147.174 152.813C146.87 152.865 146.717 152.297 146.717 152.297Z" fill="white" stroke="white" stroke-width="1.2" stroke-linecap="round" stroke-linejoin="round"/>
</svg>
