<svg width="300" height="300" viewBox="0 0 300 300" fill="none" xmlns="http://www.w3.org/2000/svg">
<g clip-path="url(#clip0)">
<path d="M194.826 52.5622C196.846 50.1914 200.694 52.0898 200.042 55.1358L186.473 118.554C186.082 120.382 187.44 122.119 189.309 122.18L254.128 124.294C257.242 124.396 258.157 128.588 255.369 129.978L197.326 158.91C195.653 159.744 195.142 161.889 196.259 163.388L235.02 215.383C236.882 217.881 234.175 221.21 231.351 219.897L172.542 192.556C170.846 191.768 168.851 192.705 168.375 194.514L151.891 257.237C151.099 260.25 146.808 260.209 146.074 257.182L130.783 194.157C130.342 192.34 128.365 191.364 126.655 192.12L67.3373 218.339C64.4882 219.599 61.8448 216.219 63.7537 213.757L103.495 162.507C104.641 161.029 104.171 158.875 102.514 158.009L45.0307 127.98C42.2698 126.538 43.2643 122.364 46.379 122.322L111.227 121.439C113.096 121.413 114.487 119.703 114.131 117.867L101.768 54.2026C101.175 51.1448 105.058 49.3198 107.033 51.7285L148.155 101.878C149.341 103.324 151.546 103.345 152.758 101.922L194.826 52.5622Z" fill="#DAA75B"/>
<path d="M147.091 42.5105C147.855 39.4905 152.145 39.4904 152.909 42.5105L168.843 105.568C169.301 107.381 171.287 108.338 172.99 107.566L232.225 80.7074C235.062 79.4211 237.738 82.7758 235.852 85.2554L196.486 137.029C195.355 138.517 195.845 140.667 197.511 141.517L255.442 171.083C258.216 172.499 257.261 176.682 254.147 176.754L189.125 178.257C187.256 178.3 185.881 180.024 186.255 181.856L199.258 245.583C199.881 248.635 196.015 250.497 194.017 248.107L152.302 198.207C151.102 196.773 148.898 196.773 147.698 198.207L105.983 248.107C103.985 250.497 100.119 248.635 100.742 245.583L113.745 181.856C114.119 180.024 112.744 178.3 110.875 178.257L45.8527 176.754C42.7386 176.682 41.7838 172.499 44.5583 171.083L102.489 141.517C104.155 140.667 104.645 138.517 103.514 137.029L64.1479 85.2554C62.2625 82.7758 64.9378 79.421 67.7748 80.7074L127.01 107.566C128.713 108.338 130.699 107.381 131.157 105.568L147.091 42.5105Z" fill="#F0F359"/>
</g>
<defs>
<clipPath id="clip0">
<rect width="300" height="300" fill="white"/>
</clipPath>
</defs>
</svg>
