<svg width="300" height="300" viewBox="0 0 300 300" fill="none" xmlns="http://www.w3.org/2000/svg">
<g clip-path="url(#clip0_131:21)">
<path d="M192.259 55.5741C194.953 52.4131 200.083 54.9443 199.214 59.0056L186.723 117.384C186.202 119.822 188.013 122.138 190.505 122.219L250.173 124.165C254.324 124.301 255.544 129.89 251.827 131.743L198.397 158.376C196.166 159.488 195.484 162.348 196.974 164.347L232.655 212.211C235.138 215.54 231.528 219.979 227.762 218.228L173.626 193.06C171.366 192.009 168.705 193.26 168.071 195.671L152.897 253.41C151.841 257.427 146.12 257.373 145.141 253.336L131.065 195.319C130.477 192.897 127.841 191.596 125.561 192.604L70.9569 216.74C67.1581 218.419 63.6336 213.912 66.1787 210.63L102.762 163.452C104.29 161.482 103.663 158.61 101.453 157.455L48.5384 129.813C44.8571 127.89 46.1831 122.324 50.3361 122.268L110.031 121.455C112.523 121.421 114.378 119.14 113.903 116.693L102.523 58.0875C101.731 54.0103 106.909 51.5771 109.543 54.7887L147.397 100.953C148.978 102.881 151.917 102.909 153.534 101.011L192.259 55.5741Z" fill="#DAA75B"/>
<path d="M146.122 46.3473C147.139 42.3206 152.861 42.3206 153.878 46.3473L168.55 104.408C169.16 106.825 171.809 108.101 174.079 107.072L228.621 82.3416C232.404 80.6265 235.971 85.0995 233.457 88.4056L197.21 136.077C195.701 138.061 196.356 140.927 198.576 142.061L251.917 169.284C255.616 171.172 254.343 176.75 250.191 176.846L190.321 178.23C187.829 178.287 185.996 180.586 186.494 183.028L198.467 241.705C199.298 245.775 194.143 248.257 191.479 245.07L153.069 199.125C151.47 197.212 148.53 197.212 146.931 199.125L108.521 245.07C105.857 248.257 100.702 245.775 101.533 241.705L113.506 183.028C114.004 180.586 112.171 178.287 109.679 178.23L49.8091 176.846C45.6569 176.75 44.3838 171.172 48.0832 169.284L101.424 142.061C103.644 140.927 104.299 138.061 102.79 136.077L66.5431 88.4057C64.0293 85.0995 67.5964 80.6265 71.379 82.3416L125.921 107.072C128.191 108.101 130.84 106.825 131.45 104.408L146.122 46.3473Z" fill="#F0F359"/>
</g>
<defs>
<clipPath id="clip0_131:21">
<rect width="300" height="300" fill="white"/>
</clipPath>
</defs>
</svg>
