<svg width="300" height="300" viewBox="0 0 300 300" fill="none" xmlns="http://www.w3.org/2000/svg">
<g clip-path="url(#clip0_131_21)">
<path d="M184.558 64.61C189.272 59.0782 198.251 63.5078 196.73 70.6151L187.474 113.875C186.561 118.141 189.731 122.194 194.091 122.336L238.307 123.778C245.571 124.015 247.707 133.797 241.202 137.039L201.608 156.775C197.704 158.721 196.511 163.726 199.119 167.224L225.56 202.692C229.904 208.519 223.587 216.288 216.996 213.223L176.88 194.573C172.924 192.734 168.268 194.922 167.159 199.141L155.914 241.928C154.067 248.957 144.055 248.862 142.342 241.799L131.911 198.807C130.883 194.567 126.269 192.291 122.278 194.055L81.8157 211.94C75.1678 214.878 69 206.992 73.454 201.248L100.563 166.288C103.237 162.84 102.14 157.814 98.2728 155.794L59.0614 135.31C52.6192 131.945 54.9397 122.205 62.2072 122.106L106.443 121.504C110.805 121.445 114.05 117.453 113.219 113.17L104.786 69.7421C103.4 62.6071 112.462 58.3489 117.07 63.9692L145.122 98.1783C147.888 101.552 153.032 101.601 155.862 98.2802L184.558 64.61Z" fill="#DAA75B"/>
<path d="M143.213 57.8578C144.994 50.8111 155.006 50.811 156.787 57.8578L167.67 100.929C168.739 105.159 173.374 107.391 177.348 105.59L217.808 87.2443C224.428 84.2428 230.67 92.0706 226.271 97.8563L199.382 133.22C196.742 136.693 197.887 141.709 201.772 143.692L241.342 163.887C247.816 167.191 245.588 176.952 238.322 177.12L193.908 178.147C189.547 178.247 186.339 182.27 187.211 186.544L196.094 230.073C197.547 237.194 188.526 241.538 183.864 235.962L155.371 201.878C152.572 198.531 147.428 198.531 144.629 201.878L116.136 235.962C111.474 241.538 102.453 237.194 103.906 230.073L112.789 186.544C113.661 182.27 110.453 178.247 106.092 178.147L61.6782 177.12C54.4119 176.952 52.184 167.191 58.6579 163.887L98.2276 143.692C102.113 141.709 103.258 136.693 100.618 133.22L73.7289 97.8563C69.3297 92.0706 75.5722 84.2428 82.1918 87.2442L122.652 105.59C126.626 107.391 131.261 105.159 132.33 100.929L143.213 57.8578Z" fill="#F0F359"/>
</g>
<defs>
<clipPath id="clip0_131_21">
<rect width="300" height="300" fill="white"/>
</clipPath>
</defs>
</svg>
