<svg width="300" height="300" viewBox="0 0 300 300" fill="none" xmlns="http://www.w3.org/2000/svg">
<g clip-path="url(#clip0_126_104)">
<rect width="300" height="300" fill="white"/>
<rect width="300" height="300" fill="#EF4B4B"/>
<path fill-rule="evenodd" clip-rule="evenodd" d="M161.089 239.916C158.4 237.594 155.141 232.893 155.187 228.361C155.428 224.981 157.755 223.018 159.258 227.143C161.384 231.696 165.942 239.226 172.224 234.809C174.968 232.802 174.926 229.849 171.163 230.187C166.516 229.87 163.661 227.324 161.582 220.767C161.203 217.16 162.709 217.251 164.811 219.57C167.512 222.658 172.888 227.324 178.82 224.823C182.116 223.447 183.046 220.608 178.067 219.909C173.352 219.978 169.504 216.934 165.673 212.29C163.573 209.721 166.671 207.128 168.531 209.315C170.19 210.734 172.513 213.349 174.505 213.71C176.807 214.16 179.661 213.936 182.824 212.268C186.233 209.426 185.126 207.376 180.988 206.904C177.78 207.063 176.032 208.277 171.895 205.528C164.457 200.521 158.544 193.831 157.621 185.783C157.014 180.49 159.871 178.887 162.246 179.497C168.708 181.152 172.934 193.178 177.405 199.785C178.868 201.689 180.213 201.72 181.164 201.133C182.957 199.602 184.389 198.343 186.183 196.631C186.183 196.631 199.334 198.985 206.496 201.31L198.522 204.133C195.502 202.472 191.858 204.262 191.858 207.144C189.001 209.112 189.231 211.419 190.464 213.646C190.84 212.095 191.161 210.081 193.418 209.814C196.639 211.141 200.392 209.247 200.392 206.741L209.799 203.058L219.303 208.417C219.303 212.04 222.749 213.188 226.335 212.21C228.024 213.255 229.111 215.068 229.683 217.007C230.741 214.21 230.52 212.236 228.863 210.864C229.814 207.249 224.728 203.773 220.79 206.088L213.953 202.178L225.656 201.851C227.014 204.246 231.923 204.378 233.355 201.851C234.579 201.517 235.614 201.305 238 203.072C237.248 200.213 235.785 198.99 233.589 198.99C231.921 196.046 225.884 196.06 225.012 199.374L212.824 199.712L220.056 194.583C222.755 196.171 226.543 194.406 227.302 191.522C228.378 190.248 229.705 189.649 232.317 190.514C230.971 188.139 229.074 187.43 225.647 189.042C222.522 186.683 218.402 189.544 219.027 191.92L209.405 198.44C202.422 196.364 189.773 193.132 189.773 193.132C191.279 191.554 192.807 190.088 194.31 188.488C194.853 187.551 194.023 186.46 192.871 186.233C181.585 183.913 175.124 179.382 171.208 167.864C169.571 163.041 173.111 161.6 174.328 164.55C176.011 168.653 177.868 173.138 182.936 176.611C184.683 177.828 189.886 176.834 186.809 173.927C183.622 171.312 182.25 170.188 180.68 163.83C180.68 160.608 183.976 159.164 185.815 162.252C187.782 168.585 187.983 171.312 191.544 175.393C194.243 178.481 197.762 180.556 199.509 180.509C202.653 180.465 205.818 177.082 201.613 174.626C195.438 172.169 193.182 168.812 192.273 165.609C191.279 160.022 192.365 157.316 195.749 160.065C200.549 165.497 209.712 175.617 214.512 180.329C219.891 184.432 226.063 184.565 230.975 180.397C233.787 177.173 232.789 173.704 228.387 174.446C218.452 175.281 210.929 170.368 202.675 157.089C201.059 154.092 200.616 149.787 204.181 152.99C208.294 158.534 214.292 163.245 219.87 165.274C225.468 167.277 230.091 166.171 231.883 164.417C234.044 162.265 233.476 156.844 229.737 158.151C226.66 159.233 222.324 159.503 217.811 157.767C213.295 156.008 208.605 152.222 203.626 145.799C201.921 142.171 202.476 139.105 205.928 140.975C214.093 147.874 224.627 153.462 230.002 150.104C233.964 147.647 234.031 141.336 229.008 141.742C218.894 143.115 215.067 140.885 205.352 132.344C203.141 130.697 203.294 126.526 206.812 129.188C214.978 134.44 226.13 136.49 230.512 133.741C234.452 131.284 233.875 123.777 227.237 126.436C221.925 129.66 216.061 129.57 204.312 121.208C201.348 118.752 203.559 115.549 205.992 116.925C215.442 122.289 229.207 124.588 232.79 113.679C234.183 109.511 231.662 107.076 227.966 109.961C219.845 117.444 210.639 113.769 205.486 110.004C204.01 109.138 201.302 104.752 206.059 105.566C218.363 108.362 230.533 105.927 232.747 97.2484C234.031 94.4312 231.505 89.4491 227.014 93.6205C221.108 99.4351 214.844 99.6367 206.968 99.5931C202.961 98.758 202.919 94.3628 206.282 93.7106C212.499 93.8438 218.628 91.1386 223.541 88.3898C228.344 85.641 232.326 81.7862 233.589 76.444C234.362 71.6666 229.737 66.5948 226.95 71.6666C222.833 79.0809 213.716 86.0694 203.58 87.3308C203.052 86.4513 201.723 84.1967 200.085 84.8302C197.109 85.9797 193.563 87.5176 189.912 89.2449C182.042 92.9673 178.762 94.7613 179.707 101.193C180.693 107.904 175.499 112.145 171.208 110.974C167.466 109.97 165.402 106.604 166.073 100.764C166.61 96.1115 171.3 90.4833 176.585 87.532C180.006 85.6248 185.171 84.5816 191.389 83.2056C195.173 82.4633 197.1 80.9972 197.32 79.4628C197.32 79.4628 194.733 81.3481 190.593 81.0651C188.636 80.9258 187.324 80.068 186.83 79.1928C188.27 78.9011 190.88 79.2394 193.225 79.2394C196.344 79.2146 203.586 78.5188 205.507 74.145C206.105 71.2599 204.202 70.7413 202.431 72.5892C200.528 74.5865 199.744 76.3818 195.926 77.0523C193.603 77.4594 191.279 77.9318 188.291 77.2112C189.974 75.22 192.648 73.1827 194.929 73.5581C195.679 73.6826 196.676 74.3723 197.475 75.6115C197.963 72.4556 197.097 68.893 188.623 70.3808C188.757 67.9925 183.71 66.9549 180.68 67.0015C178.954 67.045 175.435 68.0609 172.892 69.2753C168.864 70.5175 164.881 71.4184 160.188 71.7572C162.911 74.0771 163.421 74.2138 166.14 76.1736C162.027 77.705 158.84 80.8609 157.401 82.9357C157.401 82.9357 162.204 82.802 163.421 83.3424C158.395 84.8054 156.138 85.6845 153.483 88.3898C154.413 88.5483 155.806 88.8182 156.404 89.0451C157.026 89.2689 156.864 89.6756 156.361 90.0578C155.279 90.8808 150.806 96.0553 149.5 97.2945C148.195 96.0553 143.722 90.8808 142.64 90.0578C142.137 89.6756 141.975 89.2689 142.597 89.0451C143.195 88.8186 144.588 88.5483 145.518 88.3898C142.862 85.6845 140.606 84.8054 135.58 83.3424C136.797 82.802 141.6 82.9357 141.6 82.9357C140.16 80.8609 136.974 77.705 132.86 76.1736C135.58 74.2138 136.09 74.0771 138.813 71.7567C134.12 71.4184 130.137 70.5175 126.109 69.2748C123.566 68.0609 120.047 67.045 118.321 67.0015C115.29 66.9549 110.243 67.9925 110.378 70.3804C101.904 68.893 101.038 72.4556 101.526 75.6115C102.324 74.3723 103.321 73.6826 104.072 73.5585C106.353 73.1827 109.027 75.22 110.71 77.2112C107.722 77.9318 105.398 77.4594 103.075 77.0527C99.2569 76.3822 98.4731 74.5865 96.5697 72.5897C94.7988 70.7413 92.8959 71.2599 93.4935 74.1454C95.4147 78.5188 102.656 79.2146 105.776 79.2394C108.121 79.2394 110.731 78.9007 112.171 79.1928C111.677 80.0689 110.365 80.9258 108.408 81.0651C104.267 81.3481 101.681 79.4628 101.681 79.4628C101.901 80.9972 103.827 82.4628 107.612 83.2056C113.83 84.5816 118.995 85.6253 122.416 87.5324C127.701 90.4833 132.391 96.1115 132.928 100.764C133.598 106.603 131.534 109.97 127.792 110.974C123.502 112.145 118.307 107.904 119.294 101.193C120.239 94.7613 116.959 92.9673 109.089 89.2449C105.438 87.5176 101.892 85.9793 98.9155 84.8298C97.2779 84.1967 95.9485 86.4517 95.4209 87.3308C85.2846 86.0694 76.1674 79.0809 72.0507 71.6666C69.2635 66.5948 64.638 71.6666 65.4122 76.444C66.6747 81.7866 70.6571 85.641 75.4597 88.3898C80.3724 91.1386 86.5017 93.8438 92.7193 93.7106C96.0823 94.3628 96.0399 98.758 92.0329 99.5931C84.1563 99.6367 77.8933 99.4351 71.9865 93.6205C67.4952 89.4491 64.9702 94.4312 66.2541 97.2484C68.4679 105.926 80.6377 108.362 92.9418 105.566C97.698 104.752 94.9907 109.138 93.5144 110.005C88.3617 113.769 79.1558 117.444 71.0352 109.961C67.3396 107.076 64.8172 109.511 66.2113 113.679C69.7942 124.588 83.5588 122.289 93.0087 116.925C95.4423 115.549 97.653 118.752 94.6891 121.208C82.9398 129.57 77.0762 129.66 71.764 126.436C65.1258 123.777 64.5492 131.284 68.4893 133.741C72.8708 136.49 84.0226 134.44 92.1886 129.188C95.7076 126.526 95.8598 130.697 93.6487 132.344C83.9338 140.885 80.107 143.115 69.9926 141.742C64.9698 141.336 65.0371 147.646 68.9986 150.104C74.3742 153.461 84.9065 147.874 93.0725 140.975C96.5247 139.105 97.0794 142.171 95.375 145.799C90.3958 152.222 85.7052 156.008 81.1894 157.767C76.6767 159.503 72.3406 159.233 69.2639 158.151C65.525 156.844 64.9566 162.265 67.1171 164.417C68.9107 166.171 73.5327 167.277 79.1313 165.274C84.7085 163.245 90.7066 158.533 94.8202 152.99C98.3848 149.787 97.9424 154.092 96.3262 157.089C88.0719 170.368 80.5494 175.281 70.6143 174.446C66.2113 173.704 65.2141 177.173 68.0255 180.397C72.9382 184.565 79.1099 184.432 84.4886 180.329C89.2885 175.617 98.4512 165.497 103.251 160.065C106.636 157.316 107.722 160.022 106.728 165.609C105.819 168.812 103.563 172.169 97.3876 174.626C93.1822 177.083 96.3472 180.465 99.4916 180.508C101.239 180.556 104.758 178.481 107.457 175.393C111.018 171.312 111.22 168.585 113.186 162.252C115.025 159.164 118.321 160.608 118.321 163.829C116.751 170.188 115.379 171.312 112.192 173.927C109.115 176.834 114.318 177.828 116.065 176.611C121.133 173.138 122.989 168.653 124.672 164.55C125.889 161.6 129.43 163.041 127.792 167.864C123.877 179.381 117.416 183.913 106.13 186.233C104.977 186.46 104.148 187.551 104.69 188.488C106.194 190.088 107.722 191.554 109.228 193.132C109.228 193.132 96.5789 196.364 89.5949 198.44L79.9732 191.92C80.5984 189.544 76.4791 186.683 73.353 189.041C69.9262 187.43 68.0294 188.139 66.683 190.514C69.2954 189.649 70.6226 190.248 71.6988 191.522C72.4573 194.406 76.2452 196.171 78.9446 194.583L86.1764 199.712L73.9886 199.374C73.1165 196.06 67.0795 196.046 65.4109 198.99C63.2164 198.99 61.7519 200.213 61 203.072C63.3868 201.305 64.4216 201.517 65.6452 201.851C67.0773 204.378 71.9865 204.246 73.3443 201.851L85.0473 202.178L78.2102 206.088C74.2728 203.773 69.1865 207.249 70.1373 210.864C68.4805 212.236 68.2593 214.21 69.3177 217.007C69.8895 215.068 70.9762 213.255 72.6663 212.209C76.2509 213.188 79.6974 212.04 79.6974 208.417L89.2011 203.058L98.6086 206.741C98.6086 209.247 102.362 211.141 105.583 209.814C107.84 210.081 108.161 212.095 108.537 213.645C109.769 211.419 109.999 209.112 107.142 207.144C107.142 204.262 103.498 202.472 100.479 204.133L92.5042 201.31C99.666 198.985 112.818 196.631 112.818 196.631C114.611 198.342 116.043 199.602 117.837 201.133C118.788 201.72 120.133 201.689 121.596 199.785C126.066 193.178 130.293 181.152 136.754 179.497C139.13 178.887 141.987 180.49 141.38 185.783C140.456 193.831 134.543 200.521 127.106 205.528C122.968 208.277 121.221 207.063 118.013 206.904C113.875 207.376 112.768 209.426 116.177 212.268C119.34 213.936 122.194 214.16 124.496 213.71C126.487 213.349 128.811 210.734 130.47 209.315C132.33 207.128 135.428 209.721 133.327 212.29C129.497 216.934 125.649 219.978 120.934 219.909C115.955 220.608 116.885 223.447 120.181 224.823C126.112 227.324 131.488 222.658 134.19 219.57C136.291 217.251 137.797 217.16 137.419 220.767C135.339 227.324 132.485 229.87 127.838 230.187C124.075 229.849 124.032 232.802 126.777 234.809C133.059 239.226 137.617 231.696 139.743 227.143C141.246 223.019 143.572 224.981 143.814 228.361C143.859 232.893 140.6 237.594 137.912 239.916C135.224 242.238 149.5 257 149.5 257C149.5 257 163.776 242.238 161.088 239.915L161.089 239.916ZM180.22 72.7408C177.998 72.7408 176.625 73.5158 176.625 74.4563C176.625 75.4116 177.998 76.1902 180.22 76.1902C182.429 76.1902 183.832 75.3411 183.832 74.3845C183.832 73.444 182.428 72.7403 180.22 72.7403V72.7408ZM118.781 72.7408C121.003 72.7408 122.376 73.5158 122.376 74.4563C122.376 75.4116 121.003 76.1902 118.781 76.1902C116.572 76.1902 115.169 75.3411 115.169 74.3845C115.169 73.444 116.572 72.7403 118.781 72.7403V72.7408Z" fill="#252525" stroke="#252525" stroke-width="4"/>
<path d="M146.324 40.6287L149.5 30.8541L152.676 40.6287C153.011 41.6587 153.971 42.3561 155.054 42.3561H165.331L157.016 48.3972C156.14 49.0338 155.774 50.1622 156.108 51.1922L159.284 60.9668L150.969 54.9258C150.093 54.2892 148.907 54.2892 148.031 54.9258L139.716 60.9668L142.892 51.1922C143.226 50.1622 142.86 49.0338 141.984 48.3972L141.102 49.6107L141.984 48.3972L133.669 42.3561H143.946C145.029 42.3561 145.989 41.6587 146.324 40.6287ZM159.76 62.4303C159.76 62.43 159.76 62.4296 159.759 62.4292L159.76 62.4303ZM149.975 29.3917L149.976 29.3906L149.5 29.2361L149.976 29.3906C149.975 29.391 149.975 29.3913 149.975 29.3917Z" stroke="#FFB84F" stroke-width="3"/>
</g>
<defs>
<clipPath id="clip0_126_104">
<rect width="300" height="300" fill="white"/>
</clipPath>
</defs>
</svg>
