<svg width="300" height="300" viewBox="0 0 300 300" fill="none" xmlns="http://www.w3.org/2000/svg">
<g clip-path="url(#clip0_124_30)">
<rect width="300" height="300" fill="white"/>
<rect x="300" y="300" width="300" height="300" transform="rotate(-180 300 300)" fill="#EF4B4B"/>
<rect x="150" y="200" width="150" height="100" transform="rotate(-180 150 200)" fill="white"/>
<rect x="300" y="300" width="150" height="100" transform="rotate(-180 300 300)" fill="#4DBB58"/>
<rect x="300" y="200" width="150" height="100" transform="rotate(-180 300 200)" fill="white"/>
<rect x="269" y="198" width="89" height="92" transform="rotate(-180 269 198)" fill="#EF4B4B"/>
<rect x="224.5" y="128.6" width="44.5" height="11.5" transform="rotate(-180 224.5 128.6)" fill="white"/>
<rect x="224.5" y="150.6" width="44.5" height="11.5" transform="rotate(-180 224.5 150.6)" fill="white"/>
<rect x="243" y="180" width="47" height="8" rx="1" transform="rotate(-90 243 180)" fill="white"/>
<rect x="230" y="154" width="34" height="8" rx="1" fill="white"/>
<rect x="232" y="141" width="30" height="8" rx="1" fill="white"/>
<rect x="224.5" y="172.6" width="44.5" height="11.5" transform="rotate(-180 224.5 172.6)" fill="white"/>
<rect x="224.5" y="199" width="44.5" height="16" transform="rotate(-180 224.5 199)" fill="white"/>
<path d="M241 174C230.2 172 225.5 188.833 224.5 197.5L258 199L271.5 195.5L269.5 167C264.5 170.167 251.8 176 241 174Z" fill="#4DBB58"/>
<path d="M177 103V190.196C177 193.808 178.969 197.599 183.495 197.599H219.704C220.292 197.599 220.852 197.853 221.242 198.298L224.497 202C224.497 202 227.382 198.716 227.758 198.298C228.148 197.86 228.708 197.606 229.289 197.606H265.498C269.99 197.606 272 193.808 272 190.203V103.007L177 103Z" stroke="#FFB84F" stroke-width="6" stroke-linejoin="round"/>
<path d="M187.584 97.5C188.869 78.5077 204.682 63.5 224 63.5L227 63.5C246.318 63.5 262.131 78.5077 263.416 97.5L187.584 97.5Z" stroke="#FFB84F" stroke-width="5"/>
<rect x="230.188" y="65.2656" width="6" height="23" rx="3" transform="rotate(157.615 230.188 65.2656)" fill="#FFB84F"/>
<rect x="229" y="98" width="6" height="35" rx="2.5" transform="rotate(-180 229 98)" fill="#FFB84F"/>
<rect x="246" y="98" width="6" height="33" rx="2.5" transform="rotate(-180 246 98)" fill="#FFB84F"/>
<rect x="212" y="97" width="6" height="31" rx="2.5" transform="rotate(-180 212 97)" fill="#FFB84F"/>
<rect x="229.644" y="48.1875" width="5" height="18" rx="2.5" transform="rotate(67.6149 229.644 48.1875)" fill="#FFB84F"/>
<rect x="150" y="200" width="150" height="100" transform="rotate(-180 150 200)" fill="white"/>
<rect x="119" y="198" width="89" height="92" transform="rotate(-180 119 198)" fill="#EF4B4B"/>
<rect x="120" y="163" width="91" height="30" transform="rotate(-180 120 163)" fill="white"/>
<path d="M27 103V190.196C27 193.808 28.9691 197.599 33.4951 197.599H69.7038C70.2918 197.599 70.8525 197.853 71.2422 198.298L74.4966 202C74.4966 202 77.3818 198.716 77.7578 198.298C78.1475 197.86 78.7082 197.606 79.2893 197.606H115.498C119.99 197.606 122 193.808 122 190.203V103.007L27 103Z" stroke="#FFB84F" stroke-width="6" stroke-linejoin="round"/>
<path d="M37.5843 97.5C38.869 78.5077 54.6819 63.5 74 63.5L77 63.5C96.3181 63.5 112.131 78.5077 113.416 97.5L37.5843 97.5Z" stroke="#FFB84F" stroke-width="5"/>
<rect x="79" y="68" width="6" height="23" rx="3" transform="rotate(-180 79 68)" fill="#FFB84F"/>
<rect x="79" y="98" width="6" height="35" rx="2.5" transform="rotate(-180 79 98)" fill="#FFB84F"/>
<rect x="96" y="98" width="6" height="33" rx="2.5" transform="rotate(-180 96 98)" fill="#FFB84F"/>
<rect x="62" y="97" width="6" height="31" rx="2.5" transform="rotate(-180 62 97)" fill="#FFB84F"/>
<rect x="85" y="52" width="5" height="18" rx="2.5" transform="rotate(90 85 52)" fill="#FFB84F"/>
</g>
<defs>
<clipPath id="clip0_124_30">
<rect width="300" height="300" fill="white"/>
</clipPath>
</defs>
</svg>
