<svg width="300" height="300" viewBox="0 0 300 300" fill="none" xmlns="http://www.w3.org/2000/svg">
<g clip-path="url(#clip0)">
<rect width="300" height="300" fill="white"/>
<rect x="300" y="300" width="300" height="100" transform="rotate(-180 300 300)" fill="#FFB84F"/>
<rect x="300" y="200" width="300" height="100" transform="rotate(-180 300 200)" fill="#EF4B4B"/>
<rect x="300" y="100" width="300" height="100" transform="rotate(-180 300 100)" fill="#252525"/>
<path d="M151.103 83L117.181 84.823V93.8785V95.7568V104.812L151.103 106.635H154.778L183.063 102.479V95.7568V93.8785V87.1559L154.778 83H151.103Z" fill="#FFB84F" stroke="#252525" stroke-width="6" stroke-miterlimit="5" stroke-linejoin="round"/>
<path d="M155.77 117.074H144.074C142.432 117.074 141.102 118.405 141.102 120.048V214.027C141.102 215.669 142.432 217 144.074 217H155.77C157.411 217 158.742 215.669 158.742 214.027V120.048C158.742 118.405 157.411 117.074 155.77 117.074Z" fill="#FFB84F" stroke="#252525" stroke-width="6" stroke-linejoin="round"/>
<path d="M111.974 149.049C121.999 159.404 136.034 165.851 151.572 165.851C162.681 165.851 173.018 162.549 181.676 156.889L188.732 167.321C178.06 174.347 165.295 178.446 151.572 178.446C132.527 178.446 115.32 170.558 103.01 157.888L111.974 149.049Z" fill="#FFB84F" stroke="#252525" stroke-width="6"/>
<path fill-rule="evenodd" clip-rule="evenodd" d="M143.588 104.366L95 194.135L150.003 123.136L205.01 194.135L156.426 104.366L150.007 113.383L143.588 104.366Z" fill="#FFB84F" stroke="#252525" stroke-width="6"/>
<path d="M151.061 83.7676L127.373 84.9031L117.536 88.8526V100.78L127.245 104.73L151.061 105.994H154.692L182.646 101.893V95.7637V93.9975V87.6757L154.692 83.7676H151.061Z" fill="#FFB84F" stroke="#252525" stroke-width="6" stroke-miterlimit="5" stroke-linejoin="round"/>
<path d="M151.06 83.7676L127.099 85.1761L118.313 85.9141L118.764 103.399L127.244 104.184L151.06 105.994H154.691L182.645 101.893V95.7637V93.9975V87.6757L154.691 83.7676H151.06Z" fill="#FFB84F"/>
<path d="M157.99 109.773C157.99 105.312 154.375 101.696 149.916 101.696C145.456 101.696 141.841 105.312 141.841 109.773V110.174C141.841 114.635 145.456 118.251 149.916 118.251C154.375 118.251 157.99 114.635 157.99 110.174V109.773Z" fill="#FFB84F" stroke="#252525" stroke-width="6" stroke-miterlimit="5" stroke-linejoin="round"/>
<path d="M153.347 109.837C153.347 110.287 153.259 110.732 153.088 111.148C152.916 111.563 152.664 111.941 152.346 112.259C152.029 112.577 151.651 112.829 151.236 113.001C150.821 113.173 150.376 113.262 149.926 113.262C149.477 113.262 149.032 113.173 148.617 113.001C148.201 112.829 147.824 112.577 147.507 112.259C147.189 111.941 146.937 111.563 146.765 111.148C146.594 110.732 146.505 110.287 146.506 109.837C146.505 109.388 146.594 108.943 146.765 108.527C146.937 108.112 147.189 107.734 147.507 107.416C147.824 107.098 148.201 106.846 148.617 106.674C149.032 106.502 149.477 106.413 149.926 106.413C150.376 106.413 150.821 106.502 151.236 106.674C151.651 106.846 152.029 107.098 152.346 107.416C152.664 107.734 152.916 108.112 153.088 108.527C153.259 108.943 153.347 109.388 153.347 109.837Z" fill="#FFB84F" stroke="#252525" stroke-width="6" stroke-linejoin="round"/>
<mask id="path-13-inside-1" fill="white">
<path d="M202.723 55.7318C223.47 67.3077 239.808 85.3712 249.203 107.121C258.598 128.87 260.524 153.09 254.684 176.025C248.843 198.959 235.562 219.326 216.899 233.966C198.237 248.607 175.237 256.703 151.466 256.998C127.695 257.294 104.482 249.773 85.4271 235.602C66.3721 221.431 52.5399 201.402 46.0759 178.621C39.6119 155.839 40.8773 131.58 49.6759 109.604C58.4745 87.6277 74.3145 69.1638 94.7394 57.0756L106.037 75.9715C89.7883 85.5883 77.1867 100.277 70.1869 117.76C63.1872 135.243 62.1805 154.543 67.3229 172.667C72.4654 190.791 83.4696 206.725 98.6289 217.999C113.788 229.273 132.255 235.256 151.166 235.021C170.077 234.785 188.375 228.345 203.222 216.697C218.069 205.05 228.635 188.847 233.281 170.602C237.928 152.356 236.395 133.088 228.921 115.785C221.447 98.4821 208.449 84.1117 191.944 74.9025L202.723 55.7318Z"/>
</mask>
<path d="M202.723 55.7318C223.47 67.3077 239.808 85.3712 249.203 107.121C258.598 128.87 260.524 153.09 254.684 176.025C248.843 198.959 235.562 219.326 216.899 233.966C198.237 248.607 175.237 256.703 151.466 256.998C127.695 257.294 104.482 249.773 85.4271 235.602C66.3721 221.431 52.5399 201.402 46.0759 178.621C39.6119 155.839 40.8773 131.58 49.6759 109.604C58.4745 87.6277 74.3145 69.1638 94.7394 57.0756L106.037 75.9715C89.7883 85.5883 77.1867 100.277 70.1869 117.76C63.1872 135.243 62.1805 154.543 67.3229 172.667C72.4654 190.791 83.4696 206.725 98.6289 217.999C113.788 229.273 132.255 235.256 151.166 235.021C170.077 234.785 188.375 228.345 203.222 216.697C218.069 205.05 228.635 188.847 233.281 170.602C237.928 152.356 236.395 133.088 228.921 115.785C221.447 98.4821 208.449 84.1117 191.944 74.9025L202.723 55.7318Z" stroke="#F0AC47" stroke-width="24" mask="url(#path-13-inside-1)"/>
<path d="M76.6992 194L51.7671 194C51.7671 194 50.7668 191.852 50.18 190.452C49.6046 189.079 48.7887 186.903 48.7887 186.903L72.7819 186.903L76.6992 194Z" fill="#FFB84F"/>
<path d="M73 186.903L48.5 186.903L41.7024 179.807L70 179.807L73 186.903Z" fill="#EF4B4B"/>
<path d="M70 179.807L46.3263 179.807C46.3263 179.807 45.673 177.529 45.3 176C44.926 174.467 44.4242 172 44.4242 172L67 172L70 179.807Z" fill="#252525"/>
<path d="M223.353 194L248.285 194C248.285 194 249.285 191.852 249.872 190.452C250.447 189.079 251.263 186.903 251.263 186.903L227.27 186.903L223.353 194Z" fill="#FFB84F"/>
<path d="M227.052 186.903L251.552 186.903L258.349 179.807L230.052 179.807L227.052 186.903Z" fill="#EF4B4B"/>
<path d="M230.052 179.807L253.725 179.807C253.725 179.807 254.379 177.529 254.752 176C255.126 174.467 255.628 172 255.628 172L233.052 172L230.052 179.807Z" fill="#252525"/>
</g>
<defs>
<clipPath id="clip0">
<rect width="300" height="300" fill="white"/>
</clipPath>
</defs>
</svg>
