<svg width="300" height="300" viewBox="0 0 300 300" fill="none" xmlns="http://www.w3.org/2000/svg">
<g clip-path="url(#clip0_126:1008)">
<rect width="300" height="300" fill="white"/>
<rect x="300" y="300" width="300" height="300" transform="rotate(-180 300 300)" fill="#EF4B4B"/>
<rect x="150" y="100" width="150" height="50" transform="rotate(-180 150 100)" fill="white"/>
<rect x="150" y="50" width="150" height="50" transform="rotate(-180 150 50)" fill="#FAB838"/>
<rect x="150" y="150" width="150" height="50" transform="rotate(-180 150 150)" fill="#4DBB58"/>
<path d="M74.0251 56.7656C74.262 55.7293 75.738 55.7293 75.9749 56.7656L77.8298 64.8819C77.983 65.5521 78.751 65.8714 79.3341 65.5075L86.447 61.0681C87.3511 60.5038 88.3929 61.5567 87.8191 62.4548L83.3559 69.4406C82.9823 70.0254 83.3034 70.8037 83.9807 70.955L92.1285 72.774C93.1713 73.0068 93.1713 74.4932 92.1285 74.726L83.9807 76.545C83.3034 76.6963 82.9823 77.4746 83.3559 78.0594L87.8191 85.0452C88.3929 85.9433 87.3511 86.9962 86.447 86.4319L79.3341 81.9925C78.751 81.6286 77.983 81.9479 77.8298 82.6181L75.9749 90.7344C75.738 91.7707 74.262 91.7707 74.0251 90.7344L72.1702 82.6181C72.017 81.9479 71.249 81.6286 70.6659 81.9925L63.553 86.4319C62.6489 86.9962 61.6071 85.9433 62.1809 85.0452L66.6441 78.0594C67.0177 77.4746 66.6966 76.6963 66.0193 76.545L57.8715 74.726C56.8287 74.4932 56.8287 73.0068 57.8715 72.774L66.0193 70.955C66.6966 70.8037 67.0177 70.0254 66.6441 69.4406L62.1809 62.4548C61.6071 61.5567 62.6489 60.5038 63.553 61.0681L70.6659 65.5075C71.249 65.8714 72.017 65.5521 72.1702 64.8819L74.0251 56.7656Z" fill="#1E1ADC"/>
<circle cx="75" cy="74" r="19.5" stroke="#1E1ADC" stroke-width="6"/>
</g>
<defs>
<clipPath id="clip0_126:1008">
<rect width="300" height="300" fill="white"/>
</clipPath>
</defs>
</svg>
