<svg width="300" height="300" viewBox="0 0 300 300" fill="none" xmlns="http://www.w3.org/2000/svg">
<g clip-path="url(#clip0)">
<rect width="300" height="300" fill="white"/>
<rect width="300" height="300" fill="#FF4A4A"/>
<path d="M150.724 74.4139L154 64.5519L157.276 74.4139L158.936 73.8623L157.276 74.4139C157.649 75.5383 158.701 76.2971 159.885 76.2971H170.391L161.944 82.3009C160.959 83.0011 160.547 84.2623 160.928 85.4092L164.172 95.1768L155.593 89.0796C154.639 88.4016 153.361 88.4016 152.407 89.0796L143.828 95.1768L147.072 85.4092C147.453 84.2623 147.041 83.0011 146.056 82.3009L137.609 76.2971H148.115C149.299 76.2971 150.351 75.5383 150.724 74.4139L149.064 73.8623L150.724 74.4139ZM164.895 97.353C164.894 97.3525 164.894 97.3521 164.894 97.3516L164.895 97.353Z" stroke="#FFB84F" stroke-width="3.5"/>
<path d="M131.578 119.955C131.166 119.909 130.755 120.047 130.456 120.333L107.417 142.283C107.144 142.543 106.988 142.902 106.983 143.279C106.978 143.656 107.126 144.019 107.392 144.286L119.665 156.57C119.928 156.834 120.285 156.981 120.657 156.981C121.029 156.98 121.386 156.832 121.648 156.568L131.268 146.893C145.035 160.871 156.789 172.813 169.095 185.316C174.86 191.173 180.745 197.153 187.015 203.522C190.401 207.027 195.057 206.336 197.83 203.877C199.225 202.639 200.227 200.898 200.38 198.912C200.535 196.898 199.804 194.793 198.03 192.89C198.024 192.883 198.019 192.877 198.013 192.871C198.003 192.861 197.993 192.852 197.983 192.842C186.584 181.725 177.098 172.299 167.317 162.581C159.245 154.56 150.973 146.34 141.26 136.807L153.305 124.682C153.683 124.301 153.811 123.737 153.632 123.23C153.454 122.724 153.002 122.364 152.468 122.304L131.578 119.955Z" fill="#FFB84F" stroke="#FFB84F" stroke-width="2.8" stroke-linecap="round" stroke-linejoin="round"/>
<mask id="path-5-outside-1" maskUnits="userSpaceOnUse" x="98" y="99.2148" width="100" height="108" fill="black">
<rect fill="white" x="98" y="99.2148" width="100" height="108"/>
<path d="M130.631 182.943C171.844 221.231 238.639 152.219 153.275 102.215C216.785 172.859 155.818 194.511 133.743 172.71L132.631 171.796C131.718 172.809 130.829 173.823 129.915 174.836C128.211 173.229 125.545 172.735 124.73 175.503C121.371 175.281 119.396 177.135 118.507 180.62C112.26 184.773 105.494 188.406 101.592 194.907C99.3699 201.803 103.765 204.794 108.729 204.225C116.877 200.839 119.396 193.498 123.767 187.467C126.853 186.478 129.471 185.168 129.94 182.35"/>
</mask>
<path d="M130.631 182.943C171.844 221.231 238.639 152.219 153.275 102.215C216.785 172.859 155.818 194.511 133.743 172.71L132.631 171.796C131.718 172.809 130.829 173.823 129.915 174.836C128.211 173.229 125.545 172.735 124.73 175.503C121.371 175.281 119.396 177.135 118.507 180.62C112.26 184.773 105.494 188.406 101.592 194.907C99.3699 201.803 103.765 204.794 108.729 204.225C116.877 200.839 119.396 193.498 123.767 187.467C126.853 186.478 129.471 185.168 129.94 182.35" fill="#FFB84F"/>
<path d="M132.537 180.892C131.404 179.84 129.632 179.905 128.58 181.038C127.527 182.171 127.593 183.942 128.726 184.995L132.537 180.892ZM153.275 102.215L154.69 99.7988C153.499 99.1012 151.977 99.3755 151.105 100.445C150.233 101.515 150.27 103.06 151.193 104.087L153.275 102.215ZM133.743 172.71L135.71 170.718C135.65 170.659 135.587 170.602 135.522 170.548L133.743 172.71ZM132.631 171.796L134.411 169.634C133.255 168.682 131.554 168.809 130.552 169.921L132.631 171.796ZM129.915 174.836L127.994 176.873C128.542 177.39 129.276 177.664 130.029 177.634C130.782 177.603 131.49 177.27 131.995 176.711L129.915 174.836ZM124.73 175.503L124.545 178.297C125.853 178.384 127.046 177.551 127.416 176.294L124.73 175.503ZM118.507 180.62L120.057 182.952C120.634 182.568 121.049 181.984 121.22 181.312L118.507 180.62ZM101.592 194.907L99.1915 193.466C99.0815 193.649 98.9928 193.845 98.9273 194.048L101.592 194.907ZM108.729 204.225L109.047 207.007C109.307 206.978 109.562 206.911 109.803 206.811L108.729 204.225ZM123.767 187.467L122.912 184.8C122.344 184.982 121.849 185.341 121.499 185.824L123.767 187.467ZM132.702 182.81C132.956 181.285 131.925 179.842 130.4 179.588C128.874 179.334 127.432 180.365 127.178 181.89L132.702 182.81ZM128.726 184.995C150.768 205.473 179.824 197.214 191.823 177.124C197.859 167.018 199.566 153.99 194.149 140.28C188.753 126.621 176.386 112.508 154.69 99.7988L151.86 104.631C172.846 116.924 184.141 130.189 188.941 142.337C193.721 154.434 192.159 165.641 187.015 174.253C176.655 191.598 151.707 198.702 132.537 180.892L128.726 184.995ZM151.193 104.087C166.908 121.568 174.685 135.765 177.402 146.77C180.098 157.686 177.812 165.345 173.495 170.287C169.098 175.32 162.224 177.964 155.014 178.027C147.806 178.09 140.616 175.563 135.71 170.718L131.775 174.702C137.907 180.758 146.616 183.7 155.063 183.627C163.509 183.553 172.046 180.457 177.712 173.971C183.457 167.396 185.884 157.758 182.839 145.427C179.816 133.185 171.396 118.184 155.357 100.343L151.193 104.087ZM135.522 170.548L134.411 169.634L130.852 173.958L131.963 174.872L135.522 170.548ZM130.552 169.921C130.088 170.436 129.631 170.949 129.181 171.455C128.729 171.963 128.285 172.463 127.836 172.961L131.995 176.711C132.459 176.196 132.916 175.682 133.366 175.177C133.817 174.669 134.262 174.169 134.711 173.671L130.552 169.921ZM131.836 172.799C130.641 171.671 128.871 170.687 126.927 170.73C125.896 170.752 124.812 171.074 123.878 171.832C122.957 172.581 122.371 173.601 122.044 174.713L127.416 176.294C127.496 176.021 127.549 176.065 127.41 176.178C127.259 176.301 127.101 176.327 127.051 176.328C127.031 176.329 127.13 176.325 127.339 176.421C127.541 176.513 127.774 176.666 127.994 176.873L131.836 172.799ZM124.915 172.709C122.651 172.559 120.558 173.11 118.879 174.538C117.26 175.914 116.323 177.853 115.794 179.928L121.22 181.312C121.58 179.901 122.075 179.171 122.506 178.804C122.876 178.49 123.451 178.225 124.545 178.297L124.915 172.709ZM116.957 178.288C111.055 182.211 103.509 186.271 99.1915 193.466L103.993 196.348C107.478 190.541 113.464 187.334 120.057 182.952L116.957 178.288ZM98.9273 194.048C97.6155 198.118 98.0676 201.766 100.422 204.28C102.662 206.671 106.009 207.355 109.047 207.007L108.41 201.444C106.484 201.664 105.152 201.137 104.509 200.451C103.981 199.887 103.347 198.592 104.257 195.766L98.9273 194.048ZM109.803 206.811C114.507 204.856 117.547 201.754 119.927 198.487C121.099 196.878 122.134 195.196 123.104 193.621C124.092 192.015 125.014 190.517 126.034 189.11L121.499 185.824C120.334 187.432 119.302 189.113 118.334 190.686C117.348 192.289 116.424 193.785 115.401 195.189C113.392 197.947 111.099 200.208 107.654 201.64L109.803 206.811ZM124.621 190.133C127.596 189.18 131.929 187.451 132.702 182.81L127.178 181.89C127.089 182.426 126.826 182.863 126.182 183.334C125.458 183.863 124.385 184.329 122.912 184.8L124.621 190.133Z" fill="#FFB84F" mask="url(#path-5-outside-1)"/>
</g>
<defs>
<clipPath id="clip0">
<rect width="300" height="300" fill="white"/>
</clipPath>
</defs>
</svg>
