<svg width="300" height="300" viewBox="0 0 300 300" fill="none" xmlns="http://www.w3.org/2000/svg">
<g clip-path="url(#clip0_118:368)">
<rect width="300" height="300" fill="white"/>
<rect width="300" height="300" fill="#FF4A4A"/>
<path d="M150.724 74.4139L154 64.5519L157.276 74.4139L158.936 73.8623L157.276 74.4139C157.649 75.5383 158.701 76.2971 159.885 76.2971H170.391L161.944 82.3009C160.959 83.0011 160.547 84.2623 160.928 85.4092L164.172 95.1768L155.593 89.0796C154.639 88.4016 153.361 88.4016 152.407 89.0796L143.828 95.1768L147.072 85.4092C147.453 84.2623 147.041 83.0011 146.056 82.3009L137.609 76.2971H148.115C149.299 76.2971 150.351 75.5383 150.724 74.4139L149.064 73.8623L150.724 74.4139ZM164.895 97.353C164.894 97.3525 164.894 97.3521 164.894 97.3516L164.895 97.353Z" stroke="#FFB84F" stroke-width="3.5"/>
<path d="M131.421 121.347L108.383 143.296L120.655 155.581L131.273 144.903C151.966 165.913 168.041 182.251 188.018 202.545C193.549 208.279 203.179 200.469 197.006 193.844C175.894 173.254 161.275 158.399 139.274 136.82L152.312 123.695L131.421 121.347Z" fill="#FFB84F" stroke="#FFB84F" stroke-width="5.6" stroke-linecap="round" stroke-linejoin="round"/>
<path d="M130.631 182.943C171.844 221.231 238.639 152.219 153.275 102.215C216.785 172.859 155.818 194.511 133.743 172.71L132.631 171.796C131.718 172.809 130.829 173.823 129.915 174.836C128.211 173.229 125.545 172.735 124.73 175.503C121.371 175.281 119.396 177.135 118.507 180.62C112.26 184.773 105.494 188.406 101.592 194.907C99.3699 201.803 103.765 204.794 108.729 204.225C116.877 200.839 119.396 193.498 123.767 187.467C126.853 186.478 129.471 185.168 129.94 182.35" fill="#FFB84F"/>
<path d="M130.631 182.943C171.844 221.231 238.639 152.219 153.275 102.215C216.785 172.859 155.818 194.511 133.743 172.71L132.631 171.796C131.718 172.809 130.829 173.823 129.915 174.836C128.211 173.229 125.545 172.735 124.73 175.503C121.371 175.281 119.396 177.135 118.507 180.62C112.26 184.773 105.494 188.406 101.592 194.907C99.3699 201.803 103.765 204.794 108.729 204.225C116.877 200.839 119.396 193.498 123.767 187.467C126.853 186.478 129.471 185.168 129.94 182.35" stroke="#FFB84F" stroke-width="5.6" stroke-linecap="round" stroke-linejoin="round"/>
</g>
<defs>
<clipPath id="clip0_118:368">
<rect width="300" height="300" fill="white"/>
</clipPath>
</defs>
</svg>
