<svg width="300" height="300" viewBox="0 0 300 300" fill="none" xmlns="http://www.w3.org/2000/svg">
<g clip-path="url(#clip0_118:353)">
<rect width="300" height="300" fill="white"/>
<rect width="300" height="300" fill="#FF4A4A"/>
<path d="M56.7606 25.6287L59.9365 15.8541L63.1125 25.6287C63.4472 26.6587 64.4071 27.3561 65.4901 27.3561H75.7677L67.453 33.3972C66.5767 34.0338 66.2101 35.1622 66.5448 36.1922L69.7207 45.9668L61.406 39.9258C60.5298 39.2892 59.3433 39.2892 58.4671 39.9258L50.1523 45.9668L53.3283 36.1922C53.6629 35.1622 53.2963 34.0338 52.4201 33.3972L51.5384 34.6107L52.4201 33.3972L44.1053 27.3561H54.3829C55.466 27.3561 56.4259 26.6587 56.7606 25.6287ZM70.1963 47.4303C70.1961 47.43 70.196 47.4296 70.1959 47.4292L70.1963 47.4303ZM60.4117 14.3917L60.4121 14.3906L59.9365 14.2361L60.4121 14.3906C60.4119 14.391 60.4118 14.3913 60.4117 14.3917Z" stroke="#FFB84F" stroke-width="3"/>
<path d="M47.8385 62.2188L34.3291 75.0895L41.5254 82.2931L47.7517 76.0317C59.8855 88.3517 69.3117 97.9323 81.0257 109.832C84.2691 113.195 89.9161 108.614 86.2962 104.73C73.9162 92.6564 65.3443 83.9455 52.443 71.2921L60.0882 63.5957L47.8385 62.2188Z" fill="#FFB84F" stroke="#FFB84F" stroke-width="1.6" stroke-linecap="round" stroke-linejoin="round"/>
<path d="M47.3753 98.3379C71.5417 120.789 110.709 80.3216 60.653 51C97.8945 92.4242 62.1444 105.121 49.1997 92.3373L48.5481 91.801C48.0124 92.3953 47.4911 92.9895 46.9554 93.5838C45.9563 92.6417 44.3925 92.3518 43.9147 93.9751C41.9454 93.8447 40.7871 94.9317 40.2658 96.9754C36.6025 99.4104 32.6351 101.541 30.3473 105.353C29.0442 109.397 31.6215 111.151 34.5319 110.817C39.3102 108.832 40.7871 104.527 43.35 100.99C45.1599 100.411 46.6947 99.6423 46.9698 97.99" fill="#FFB84F"/>
<path d="M47.3753 98.3379C71.5417 120.789 110.709 80.3216 60.653 51C97.8945 92.4242 62.1444 105.121 49.1997 92.3373L48.5481 91.801C48.0124 92.3953 47.4911 92.9895 46.9554 93.5838C45.9563 92.6417 44.3925 92.3518 43.9147 93.9751C41.9454 93.8447 40.7871 94.9317 40.2658 96.9754C36.6025 99.4104 32.6351 101.541 30.3473 105.353C29.0442 109.397 31.6215 111.151 34.5319 110.817C39.3102 108.832 40.7871 104.527 43.35 100.99C45.1599 100.411 46.6947 99.6423 46.9698 97.99" stroke="#FFB84F" stroke-width="1.6" stroke-linecap="round" stroke-linejoin="round"/>
</g>
<defs>
<clipPath id="clip0_118:353">
<rect width="300" height="300" fill="white"/>
</clipPath>
</defs>
</svg>
