<svg width="300" height="300" viewBox="0 0 300 300" fill="none" xmlns="http://www.w3.org/2000/svg">
<g clip-path="url(#clip0)">
<rect width="300" height="300" fill="white"/>
<rect width="300" height="300" fill="#FF4A4A"/>
<path d="M56.7606 25.6287L59.9365 15.8541L63.1125 25.6287C63.4472 26.6587 64.4071 27.3561 65.4901 27.3561H75.7677L67.453 33.3972C66.5767 34.0338 66.2101 35.1622 66.5448 36.1922L69.7207 45.9668L61.406 39.9258C60.5298 39.2892 59.3433 39.2892 58.4671 39.9258L50.1523 45.9668L53.3283 36.1922C53.6629 35.1622 53.2963 34.0338 52.4201 33.3972L51.5384 34.6107L52.4201 33.3972L44.1053 27.3561H54.3829C55.466 27.3561 56.4259 26.6587 56.7606 25.6287ZM70.1963 47.4303C70.1961 47.43 70.196 47.4296 70.1959 47.4292L70.1963 47.4303ZM60.4117 14.3917L60.4121 14.3906L59.9365 14.2361L60.4121 14.3906C60.4119 14.391 60.4118 14.3913 60.4117 14.3917Z" stroke="#FFB84F" stroke-width="3"/>
<path d="M47.8832 61.8213C47.7657 61.808 47.6483 61.8475 47.5626 61.9291L34.0532 74.7999C33.9752 74.8742 33.9305 74.9769 33.9291 75.0846C33.9278 75.1923 33.97 75.296 34.0461 75.3722L41.2425 82.5758C41.3176 82.651 41.4196 82.6933 41.5259 82.6931C41.6322 82.693 41.7341 82.6506 41.8091 82.5752L47.7503 76.6003C55.9522 84.9281 62.9262 92.0137 70.2314 99.4357C73.6116 102.87 77.0627 106.376 80.7391 110.111C82.5382 111.975 85.0081 111.621 86.5001 110.298C87.2487 109.634 87.7747 108.71 87.8548 107.67C87.9355 106.621 87.5598 105.499 86.5889 104.457C86.5845 104.453 86.5801 104.448 86.5755 104.444C79.8932 97.9268 74.3259 92.395 68.5875 86.6933C63.7694 81.906 58.8308 76.9989 53.0105 71.2884L60.372 63.8776C60.4802 63.7687 60.5165 63.6076 60.4656 63.4629C60.4146 63.3182 60.2854 63.2153 60.1329 63.1982L47.8832 61.8213Z" fill="#FFB84F" stroke="#FFB84F" stroke-width="0.8" stroke-linecap="round" stroke-linejoin="round"/>
<mask id="path-5-outside-1" maskUnits="userSpaceOnUse" x="29" y="50" width="57" height="62" fill="black">
<rect fill="white" x="29" y="50" width="57" height="62"/>
<path d="M47.3753 98.3379C71.5417 120.789 110.709 80.3216 60.653 51C97.8945 92.4242 62.1444 105.121 49.1997 92.3373L48.5481 91.801C48.0124 92.3953 47.4911 92.9895 46.9554 93.5838C45.9563 92.6417 44.3925 92.3518 43.9147 93.9751C41.9454 93.8447 40.7871 94.9317 40.2658 96.9754C36.6025 99.4104 32.6351 101.541 30.3473 105.353C29.0442 109.397 31.6215 111.151 34.5319 110.817C39.3102 108.832 40.7871 104.527 43.35 100.99C45.1599 100.411 46.6947 99.6423 46.9698 97.99"/>
</mask>
<path d="M47.3753 98.3379C71.5417 120.789 110.709 80.3216 60.653 51C97.8945 92.4242 62.1444 105.121 49.1997 92.3373L48.5481 91.801C48.0124 92.3953 47.4911 92.9895 46.9554 93.5838C45.9563 92.6417 44.3925 92.3518 43.9147 93.9751C41.9454 93.8447 40.7871 94.9317 40.2658 96.9754C36.6025 99.4104 32.6351 101.541 30.3473 105.353C29.0442 109.397 31.6215 111.151 34.5319 110.817C39.3102 108.832 40.7871 104.527 43.35 100.99C45.1599 100.411 46.6947 99.6423 46.9698 97.99" fill="#FFB84F"/>
<path d="M47.9198 97.7518C47.5961 97.451 47.0899 97.4697 46.7892 97.7933C46.4885 98.117 46.5071 98.6232 46.8308 98.924L47.9198 97.7518ZM60.653 51L61.0574 50.3097C60.7171 50.1104 60.2824 50.1888 60.0331 50.4944C59.7838 50.7999 59.7945 51.2416 60.0581 51.5349L60.653 51ZM49.1997 92.3373L49.7618 91.7681C49.7447 91.7511 49.7267 91.7349 49.7081 91.7196L49.1997 92.3373ZM48.5481 91.801L49.0565 91.1833C48.7262 90.9114 48.2404 90.9476 47.9539 91.2653L48.5481 91.801ZM46.9554 93.5838L46.4065 94.1658C46.5631 94.3135 46.7727 94.3918 46.9878 94.3831C47.2029 94.3744 47.4054 94.2793 47.5496 94.1194L46.9554 93.5838ZM43.9147 93.9751L43.8618 94.7734C44.2355 94.7981 44.5764 94.5603 44.6821 94.201L43.9147 93.9751ZM40.2658 96.9754L40.7087 97.6416C40.8736 97.532 40.992 97.3651 41.041 97.1731L40.2658 96.9754ZM30.3473 105.353L29.6614 104.941C29.6299 104.994 29.6046 105.05 29.5859 105.108L30.3473 105.353ZM34.5319 110.817L34.6229 111.612C34.6972 111.604 34.7699 111.585 34.8389 111.556L34.5319 110.817ZM43.35 100.99L43.1059 100.228C42.9436 100.28 42.8022 100.383 42.7022 100.521L43.35 100.99ZM47.759 98.1214C47.8316 97.6856 47.5371 97.2734 47.1012 97.2009C46.6654 97.1283 46.2533 97.4228 46.1807 97.8586L47.759 98.1214ZM46.8308 98.924C59.3243 110.531 75.7445 105.862 82.5343 94.494C85.9397 88.7927 86.9188 81.4267 83.8381 73.6299C80.7633 65.8478 73.6727 57.6995 61.0574 50.3097L60.2487 51.6903C72.6613 58.9613 79.4457 66.8671 82.3501 74.2178C85.2486 81.5537 84.311 88.3993 81.1607 93.6736C74.8392 104.257 59.5926 108.596 47.9198 97.7518L46.8308 98.924ZM60.0581 51.5349C69.3223 61.8395 73.9788 70.2852 75.6184 76.9243C77.2517 83.5381 75.8901 88.3265 73.1437 91.4703C70.3748 94.6399 66.0938 96.2585 61.6805 96.2968C57.2675 96.3351 52.8229 94.791 49.7618 91.7681L48.6376 92.9065C52.0489 96.2754 56.9273 97.9382 61.6944 97.8968C66.4611 97.8554 71.2171 96.1077 74.3487 92.523C77.5027 88.9125 78.9049 83.5587 77.1717 76.5407C75.4448 69.5481 70.6045 60.8726 61.248 50.4651L60.0581 51.5349ZM49.7081 91.7196L49.0565 91.1833L48.0397 92.4187L48.6913 92.955L49.7081 91.7196ZM47.9539 91.2653C47.684 91.5648 47.4179 91.8639 47.154 92.1607C46.8894 92.4582 46.6269 92.7533 46.3612 93.0481L47.5496 94.1194C47.8195 93.82 48.0856 93.5208 48.3495 93.224C48.6141 92.9266 48.8765 92.6315 49.1423 92.3367L47.9539 91.2653ZM47.5042 93.0017C46.9065 92.4381 46.0724 91.9989 45.2219 92.0176C44.7796 92.0273 44.3307 92.1635 43.9464 92.4757C43.5655 92.7852 43.3019 93.2236 43.1472 93.7492L44.6821 94.201C44.7663 93.9149 44.8774 93.7808 44.9553 93.7175C45.0299 93.657 45.1239 93.6201 45.2572 93.6172C45.5578 93.6106 46.0052 93.7874 46.4065 94.1658L47.5042 93.0017ZM43.9675 93.1769C42.8158 93.1006 41.817 93.3806 41.029 94.0505C40.2586 94.7056 39.7754 95.661 39.4906 96.7777L41.041 97.1731C41.2774 96.2461 41.6342 95.6362 42.0655 95.2694C42.4794 94.9175 43.0443 94.7192 43.8618 94.7734L43.9675 93.1769ZM39.823 96.3092C36.2583 98.6786 32.0681 100.931 29.6614 104.941L31.0333 105.765C33.202 102.151 36.9466 100.142 40.7087 97.6416L39.823 96.3092ZM29.5859 105.108C28.877 107.307 29.1695 109.093 30.2757 110.274C31.3491 111.419 33.0088 111.797 34.6229 111.612L34.4409 110.022C33.1446 110.171 32.0604 109.838 31.4434 109.18C30.8591 108.556 30.5145 107.443 31.1088 105.598L29.5859 105.108ZM34.8389 111.556C37.4079 110.488 39.0784 108.796 40.4183 106.956C41.0831 106.044 41.6731 105.086 42.2442 104.158C42.8206 103.221 43.3778 102.315 43.9977 101.46L42.7022 100.521C42.0407 101.434 41.4521 102.392 40.8815 103.319C40.3055 104.255 39.7472 105.16 39.1251 106.014C37.8913 107.708 36.4342 109.16 34.2249 110.079L34.8389 111.556ZM43.594 101.752C45.3722 101.183 47.3971 100.295 47.759 98.1214L46.1807 97.8586C45.9923 98.9899 44.9476 99.6385 43.1059 100.228L43.594 101.752Z" fill="#FFB84F" mask="url(#path-5-outside-1)"/>
</g>
<defs>
<clipPath id="clip0">
<rect width="300" height="300" fill="white"/>
</clipPath>
</defs>
</svg>
