<svg width="300" height="300" viewBox="0 0 300 300" fill="none" xmlns="http://www.w3.org/2000/svg">
<g clip-path="url(#clip0_118_349)">
<rect width="300" height="300" fill="white"/>
<rect width="300" height="100" fill="#3661F6"/>
<rect y="200" width="300" height="100" fill="#FF4A4A"/>
<path d="M157.137 86.2117L166.263 114.451C167.931 119.611 172.735 123.107 178.157 123.107H207.805C215.06 123.107 218.087 132.384 212.228 136.663L188.151 154.25C183.794 157.433 181.97 163.054 183.63 168.188L192.805 196.578C195.04 203.495 187.114 209.228 181.244 204.94L157.373 187.504C152.981 184.295 147.019 184.295 142.627 187.504L118.756 204.94C112.886 209.228 104.96 203.495 107.195 196.578L116.37 168.188C118.03 163.054 116.206 157.433 111.849 154.25L87.7716 136.663C81.9125 132.384 84.9398 123.107 92.1955 123.107H121.843C127.265 123.107 132.069 119.611 133.737 114.451L142.863 86.2117C145.101 79.2869 154.899 79.2869 157.137 86.2117Z" fill="#FF4A4A" stroke="#FFB84F" stroke-width="5"/>
</g>
<defs>
<clipPath id="clip0_118_349">
<rect width="300" height="300" fill="white"/>
</clipPath>
</defs>
</svg>
