<svg width="300" height="300" viewBox="0 0 300 300" fill="none" xmlns="http://www.w3.org/2000/svg">
<g clip-path="url(#clip0)">
<rect width="300" height="300" fill="white"/>
<rect width="300" height="100" fill="#3661F6"/>
<rect y="200" width="300" height="100" fill="#FF4A4A"/>
<path d="M149.524 65.6017C149.577 65.4395 149.647 65.3749 149.699 65.3396C149.766 65.2934 149.871 65.2554 150 65.2554C150.129 65.2554 150.234 65.2934 150.301 65.3396C150.353 65.375 150.423 65.4395 150.476 65.6017L167.83 119.298C168.563 121.569 170.677 123.107 173.063 123.107H229.255C229.425 123.107 229.508 123.154 229.557 123.192C229.622 123.242 229.691 123.33 229.73 123.452C229.77 123.574 229.767 123.685 229.744 123.764C229.726 123.824 229.687 123.911 229.55 124.011L184.062 157.237C182.145 158.638 181.343 161.111 182.073 163.37L199.441 217.112C199.493 217.273 199.474 217.367 199.453 217.426C199.425 217.503 199.363 217.595 199.258 217.67C199.154 217.746 199.047 217.777 198.965 217.779C198.902 217.781 198.808 217.769 198.67 217.669L153.244 184.488C151.312 183.076 148.688 183.076 146.756 184.488L101.33 217.669C101.192 217.769 101.098 217.781 101.035 217.779C100.953 217.777 100.846 217.746 100.742 217.67C100.637 217.595 100.575 217.503 100.547 217.426C100.526 217.367 100.507 217.273 100.559 217.112L117.927 163.37C118.657 161.111 117.855 158.638 115.938 157.237L70.4499 124.011C70.3131 123.911 70.2735 123.824 70.256 123.764C70.2332 123.685 70.2297 123.574 70.2695 123.452C70.3094 123.33 70.3777 123.242 70.4426 123.192C70.4923 123.154 70.5754 123.107 70.7449 123.107H126.937C129.323 123.107 131.437 121.569 132.17 119.298L149.524 65.6017Z" fill="#FF4A4A" stroke="#FFB84F" stroke-width="5"/>
</g>
<defs>
<clipPath id="clip0">
<rect width="300" height="300" fill="white"/>
</clipPath>
</defs>
</svg>
