<svg width="300" height="300" viewBox="0 0 300 300" fill="none" xmlns="http://www.w3.org/2000/svg">
<g clip-path="url(#clip0)">
<rect width="300" height="300" fill="white"/>
<rect y="300" width="100" height="300" transform="rotate(-90 0 300)" fill="#EF4B4B"/>
<rect y="100" width="100" height="300" transform="rotate(-90 0 100)" fill="#00A650"/>
<path d="M96 81L94 81L94 83L94 164.5C94 195.152 118.848 220 149.5 220C180.152 220 205 195.152 205 164.5L205 83L205 81L203 81L96 81Z" fill="white" stroke="#474747" stroke-width="4"/>
<mask id="mask0" mask-type="alpha" maskUnits="userSpaceOnUse" x="96" y="83" width="107" height="135">
<path d="M149.5 218C119.953 218 96 194.047 96 164.5L96 83L203 83L203 164.5C203 194.047 179.047 218 149.5 218V218Z" fill="#00A650"/>
</mask>
<g mask="url(#mask0)">
<path d="M266 74L266 221L150 221L150 74L266 74Z" fill="white"/>
<path d="M70 218C74.0313 213.947 82.7568 192.778 90.1563 178.817C101.196 157.988 114.344 150.443 114.344 150.443C114.344 150.443 139.875 136.857 139.875 103.154C139.875 82.5882 151.969 78.7023 156 76" stroke="#00A650" stroke-width="11"/>
<path d="M149.967 169C163.756 169 174.934 180.178 174.934 193.967L174.934 232L125 232L125 193.967C125 180.178 136.178 169 149.967 169V169Z" fill="white"/>
</g>
<path d="M179.485 94.7769C179.484 94.6522 179.478 94.5259 179.467 94.401C181.751 94.7357 184.085 94.9799 186.434 94.9519C185.928 95.2807 185.382 95.5736 184.813 95.8467L182.72 96.8514L184.988 97.3492C187.263 97.8488 189.469 98.8176 190.902 100.482C190.045 100.822 189.145 101.076 188.222 101.276L186.647 101.617L187.871 102.665C188.803 103.464 189.485 104.49 190.24 105.626L190.298 105.714C190.781 106.441 191.298 107.211 191.924 107.921C190.398 108.117 188.867 108.032 187.422 107.573L185.515 106.966L186.478 108.72C187.216 110.064 188.096 111.511 189.351 112.635C187.778 113.234 186.124 113.659 184.435 114.045L183.343 114.295L183.934 115.247C184.304 115.843 184.714 116.451 185.19 117.021C184.283 117.197 183.398 117.464 182.545 117.806L182.076 117.993L182.043 118.497C181.944 120.039 181.869 121.719 182.246 123.366L182.247 123.37C182.982 126.505 184.794 129.268 186.988 131.475L187.018 131.506L187.052 131.533C187.161 131.622 187.271 131.71 187.381 131.799C188.646 132.82 189.916 133.846 190.981 135.012C192.126 136.264 192.987 137.632 193.316 139.244C193.755 142.128 192.072 144.836 190.179 147.322L190.03 147.517L190.017 147.763C189.839 151.056 191.038 154.127 192.493 156.841C191.033 160.252 189.55 163.916 189.347 167.825C189.206 167.897 189.057 167.981 188.926 168.073C188.594 168.306 188.243 168.67 188.131 169.243L188.124 169.28L188.12 169.318C188.061 169.913 188.074 170.545 188.086 171.114C188.086 171.128 188.086 171.142 188.087 171.156C186.678 171.507 185.268 171.634 183.966 171.307C184.113 170.87 184.299 170.447 184.534 170.094C184.889 169.559 185.306 169.25 185.823 169.192L185.87 169.186L185.916 169.176C186.705 168.99 187.218 168.421 187.462 167.797C187.653 167.306 187.696 166.749 187.579 166.227C187.635 166.122 187.692 166.017 187.749 165.911C188.693 164.147 189.723 162.224 190.112 160.091C190.482 158.36 189.887 156.585 188.853 155.3C187.608 153.731 186.046 152.451 184.57 151.241C184.23 150.962 183.895 150.688 183.569 150.414L183.563 150.409L183.556 150.404C182.713 149.724 182.3 148.616 181.943 147.34C181.452 145.36 181.25 143.302 181.239 141.236C181.292 140.426 181.029 139.725 180.702 139.142C180.448 138.69 180.121 138.254 179.843 137.884C179.771 137.788 179.702 137.696 179.638 137.609L179.626 137.592L179.613 137.576C178.141 135.772 176.172 134.659 174.331 133.641C174.274 133.61 174.217 133.578 174.16 133.546C172.342 132.542 170.662 131.614 169.371 130.195L169.37 130.194C169.048 129.842 168.765 129.452 168.502 129.034C168.608 129.042 168.716 129.051 168.828 129.06C169.208 129.092 169.614 129.126 170.01 129.139C171.046 129.173 172.204 129.074 173.256 128.35C173.765 128.023 174.322 127.517 174.648 126.885C174.997 126.209 175.089 125.346 174.515 124.534L174.301 124.231L173.931 124.199L173.201 124.135L172.69 124.09L172.436 124.536C172.203 124.945 171.942 125.322 171.647 125.588C171.362 125.846 171.088 125.963 170.793 125.955L170.78 125.955L170.767 125.955C168.979 125.963 167.23 125.85 165.45 125.735C164.376 125.666 163.29 125.596 162.177 125.551L161.782 125.535L161.529 125.84C160.882 126.622 160.171 127.805 160.474 129.165C160.73 130.668 161.947 131.575 162.964 132.144C162.964 132.208 162.965 132.272 162.965 132.336C162.966 132.5 162.967 132.663 162.968 132.823L162.973 133.624L163.773 133.619C164.227 133.617 164.682 133.617 165.138 133.618C165.488 134.967 165.634 136.3 165.321 137.527C164.625 137.305 163.98 136.834 163.338 136.243C163.329 136.027 163.312 135.777 163.267 135.539C163.196 135.157 163.042 134.716 162.677 134.347C162.331 133.924 161.884 133.735 161.489 133.644C161.312 133.603 161.127 133.579 160.954 133.564C160.747 132.987 160.588 132.381 160.427 131.738C160.411 131.675 160.395 131.611 160.379 131.547C160.194 130.808 159.996 130.02 159.709 129.253C159.346 128.179 158.833 127.18 158.275 126.244C158.36 126.135 158.441 126.028 158.518 125.924C158.557 125.871 158.595 125.819 158.632 125.768C158.782 125.565 158.917 125.381 159.062 125.206C159.417 124.777 159.728 124.53 160.112 124.442L160.144 124.435L160.176 124.425C161.291 124.071 162.422 123.683 163.543 123.298C164.379 123.01 165.21 122.725 166.024 122.458L166.541 122.288L166.573 121.745C166.682 119.886 167.3 118.08 168.425 116.636L168.433 116.626L168.44 116.616C169.399 115.302 170.649 114.243 171.979 113.115C172.36 112.792 172.748 112.463 173.137 112.121C174.707 110.743 176.253 109.182 177.078 107.026C178.96 106.888 180.803 105.733 181.413 103.772C181.522 103.445 181.53 103.111 181.43 102.795C181.331 102.485 181.144 102.244 180.945 102.068C180.562 101.728 180.059 101.554 179.645 101.499L179.051 101.419L178.808 101.967L178.786 102.016C178.591 102.454 178.422 102.836 178.201 103.157C177.996 103.455 177.783 103.644 177.531 103.741C176.615 103.888 175.674 103.847 174.635 103.801C174.586 103.799 174.536 103.797 174.486 103.795C173.399 103.747 172.205 103.705 171.016 103.97C170.105 104.156 169.733 104.894 169.535 105.294C169.512 105.338 169.492 105.38 169.473 105.419C169.39 105.587 169.333 105.703 169.261 105.81C169.185 105.923 169.132 105.963 169.091 105.983L169.091 105.983L169.082 105.987C168.99 106.033 168.895 106.069 168.796 106.096C168.839 106.053 168.88 106.007 168.921 105.957L168.995 105.864L169.04 105.754C169.181 105.403 169.203 105.025 169.062 104.669C168.928 104.33 168.68 104.098 168.443 103.951C168.029 103.693 167.505 103.598 167.059 103.642C166.634 103.607 166.274 103.737 165.987 103.95C165.719 104.149 165.525 104.416 165.407 104.58L165.4 104.589C165.395 104.596 165.39 104.602 165.386 104.609C165.477 104.413 165.535 104.203 165.552 103.987C165.581 103.634 165.501 103.262 165.279 102.936C165.236 102.871 165.188 102.811 165.136 102.754C165.284 102.558 165.467 102.371 165.683 102.181C165.887 102.002 166.108 101.83 166.349 101.646C166.379 101.623 166.41 101.599 166.442 101.576C166.646 101.42 166.865 101.253 167.074 101.08C167.719 100.586 168.336 100.084 168.944 99.5911C169.339 99.2701 169.729 98.9526 170.121 98.643C170.049 98.8414 169.978 99.0399 169.906 99.2384L169.681 99.8574L170.245 100.197C170.464 100.328 170.686 100.46 170.906 100.591C171.038 100.669 171.168 100.746 171.297 100.823L171.581 100.992L171.902 100.911C172.587 100.739 173.28 100.508 173.944 100.166L175.097 99.5729L174.049 98.8084C173.988 98.7636 173.912 98.7055 173.827 98.6404C173.62 98.4822 173.358 98.282 173.115 98.1267C172.754 97.8962 172.269 97.6473 171.708 97.6267C171.621 97.6235 171.535 97.626 171.449 97.6342C172.368 96.9725 173.318 96.3787 174.356 95.9057L174.782 95.7116L174.822 95.2449C174.901 94.3063 175.014 93.3721 175.141 92.4313C175.707 92.9294 176.125 93.4941 176.289 94.1514L176.298 94.1883L176.311 94.2241C176.374 94.4044 176.378 94.6136 176.317 94.9099C176.286 95.0594 176.242 95.2158 176.19 95.3954C176.181 95.4262 176.171 95.458 176.161 95.4907C176.118 95.6388 176.068 95.8048 176.027 95.9675L175.811 96.823L176.684 96.9546C176.714 96.9592 176.758 96.9671 176.811 96.9768C176.999 97.0108 177.305 97.0662 177.561 97.0715C177.945 97.0795 178.455 96.9971 178.865 96.5649L178.875 96.554L178.885 96.5427C179.372 95.9882 179.487 95.3335 179.485 94.7769Z" stroke="#EF4B4B" stroke-width="1.6"/>
<path d="M156.904 117.706L156.379 118.24L156.878 118.799C157.196 119.156 157.52 119.511 157.85 119.861C157.161 121.036 156.325 122.063 155.259 122.659C154.941 121.978 154.79 121.22 154.801 120.444C154.961 120.276 155.137 120.077 155.284 119.854C155.507 119.516 155.695 119.08 155.677 118.553C155.692 118.028 155.493 117.606 155.285 117.292C155.2 117.164 155.096 117.031 154.997 116.91C155.34 116.143 155.743 115.408 156.163 114.641C156.369 114.266 156.579 113.883 156.787 113.485C157.384 112.349 157.948 111.132 158.243 109.781C158.869 109.783 159.496 109.782 160.122 109.78C161.54 110.882 162.949 111.991 164.36 113.103C164.933 113.554 165.506 114.006 166.081 114.458C165.406 115.327 164.821 116.28 164.381 117.305C164.195 116.957 164.01 116.609 163.824 116.26C163.158 115.013 162.491 113.763 161.817 112.526C161.721 112.298 161.565 112.103 161.353 111.966C161.131 111.823 160.898 111.776 160.714 111.765C160.385 111.745 160.065 111.835 159.902 111.883C158.918 112.127 157.913 112.766 157.444 113.837C157.119 114.53 157.081 115.24 157.148 115.881C157.195 116.338 157.3 116.791 157.406 117.198C157.239 117.367 157.071 117.536 156.904 117.706Z" stroke="#EF4B4B" stroke-width="1.6"/>
<path d="M196.873 136.816C197.065 135.693 196.714 134.45 195.732 133.68C194.976 133.055 194.088 132.55 193.276 132.088C193.016 131.94 192.764 131.797 192.526 131.655C191.494 131.04 190.637 130.415 190.063 129.507L190.063 129.507L190.062 129.505C189.206 128.163 189.421 126.359 190.124 124.711L190.134 124.687L190.143 124.663C190.249 124.361 190.386 124.054 190.543 123.721C190.573 123.658 190.603 123.594 190.634 123.528C190.762 123.257 190.9 122.966 191.022 122.675C191.327 121.945 191.59 121.091 191.474 120.127C191.396 119.443 191.074 118.902 190.711 118.479C190.71 118.477 190.708 118.475 190.707 118.474C191.665 118.467 192.612 118.943 193.053 119.78L193.891 121.373L194.512 119.683C195.013 118.316 195.244 116.859 195.17 115.404C196.2 116.002 197.078 116.723 197.632 117.685L197.632 117.685L197.637 117.692C198.515 119.18 198.489 121.175 197.574 122.644L197.563 122.661L197.554 122.678C197.373 123.002 197.153 123.325 196.906 123.678C196.872 123.725 196.839 123.773 196.805 123.821C196.591 124.124 196.361 124.45 196.154 124.785C195.67 125.566 195.238 126.5 195.291 127.632C195.316 128.792 195.769 129.762 196.269 130.595C196.475 130.938 196.701 131.275 196.913 131.592C196.957 131.659 197.002 131.725 197.045 131.79C197.3 132.174 197.531 132.533 197.724 132.895L197.724 132.895L197.728 132.903C198.339 134.018 198.385 135.396 197.703 136.272L197.702 136.273C197.503 136.53 197.213 136.713 196.873 136.816Z" stroke="#EF4B4B" stroke-width="1.6"/>
<path d="M166.435 158.273C166.437 158.729 166.439 159.187 166.444 159.647C165.147 160.021 163.791 160.117 162.548 159.802C162.779 159.071 163.249 158.395 163.856 157.803C164.053 157.797 164.298 157.787 164.492 157.761C164.852 157.712 165.292 157.592 165.674 157.25C166.091 156.919 166.291 156.488 166.399 156.114C166.428 156.013 166.453 155.908 166.474 155.805C168.414 155.815 170.355 155.813 172.293 155.811C173.336 155.81 174.377 155.809 175.417 155.809L176.239 155.81L176.218 154.989C176.184 153.668 175.848 152.442 175.429 151.295C175.22 150.722 174.986 150.159 174.756 149.614C174.719 149.527 174.682 149.441 174.646 149.355C174.452 148.896 174.263 148.45 174.087 148.002C173.237 145.815 172.884 143.409 173.629 141.307C174.061 140.112 175.201 139.312 176.555 138.803C177.242 139.547 177.818 140.272 178.095 141.089C178.119 143.912 178.466 146.846 179.601 149.549C178.016 151.663 177.688 154.356 177.574 156.726C177.424 156.724 177.273 156.722 177.123 156.72C175.109 156.694 173.052 156.668 171.006 156.822C170.307 156.836 169.646 157.027 169.102 157.185C169.042 157.202 168.983 157.219 168.926 157.235C168.303 157.413 167.813 157.526 167.319 157.475L166.432 157.382L166.435 158.273Z" stroke="#EF4B4B" stroke-width="1.6"/>
<path d="M157.92 198.446C158.235 198.431 158.545 198.392 158.849 198.334C158.8 198.695 158.726 199.052 158.627 199.405C158.257 199.388 157.892 199.35 157.535 199.289C157.683 199.02 157.813 198.739 157.92 198.446Z" stroke="#00A34C" stroke-width="2"/>
<path d="M142.987 198.453C143.099 198.744 143.229 199.023 143.374 199.29C142.996 199.355 142.611 199.39 142.223 199.397C142.138 199.055 142.079 198.705 142.041 198.349C142.355 198.404 142.671 198.438 142.987 198.453Z" stroke="#00A34C" stroke-width="2"/>
<path d="M151.463 190.991L151.441 190.999L151.419 191.007C150.569 191.34 149.568 191.179 148.757 190.635C147.95 190.093 147.446 189.249 147.466 188.34L147.467 188.283L147.462 188.226C147.39 187.443 147.721 186.64 148.328 186.037C148.936 185.434 149.744 185.107 150.527 185.181L150.574 185.185L150.622 185.185C151.993 185.182 153.294 186.388 153.41 187.769L153.413 187.801L153.418 187.832C153.614 189.152 152.739 190.56 151.463 190.991Z" stroke="#00A34C" stroke-width="2"/>
<path d="M154.056 197.992L154.047 198L154.038 198.009C153.199 198.839 152.019 199.294 150.756 199.351C149.49 199.408 148.201 199.061 147.213 198.382L147.213 198.381L147.204 198.375C146.458 197.874 146.199 196.83 146.631 195.95L146.986 195.228L146.356 194.727C146.103 194.525 145.843 194.333 145.576 194.15L145.183 193.88L144.726 194.015C144.328 194.133 143.943 194.356 143.697 194.499C143.646 194.528 143.602 194.554 143.564 194.575C143.279 194.733 143.152 194.766 143.053 194.765L143.022 194.764L142.991 194.765C141.908 194.813 140.888 193.896 140.209 192.596C139.371 190.887 139.198 188.872 140.139 187.487C140.445 187.082 141.054 186.914 141.993 186.935L142.717 186.951L142.958 186.268C142.998 186.154 143.06 185.983 143.124 185.806L143.126 185.802C143.188 185.629 143.253 185.451 143.295 185.329L143.571 184.547L142.853 184.131C142.023 183.65 141.606 182.936 141.723 182.301C141.97 181.018 142.805 179.828 143.952 179.023C145.098 178.22 146.473 177.857 147.747 178.106C148.275 178.219 148.704 178.754 148.925 179.654L149.107 180.395L149.871 180.415C150.24 180.424 150.604 180.425 150.963 180.423L151.736 180.419L151.926 179.67C152.173 178.702 152.717 178.118 153.357 178.056L153.357 178.056L153.369 178.055C155.928 177.775 158.658 179.759 159.148 182.281L159.151 182.297L159.155 182.313C159.286 182.89 158.892 183.598 158.055 184.096L157.359 184.511L157.62 185.278C157.73 185.6 157.834 185.921 157.93 186.241L158.174 187.049L159.012 186.944C159.982 186.822 160.843 187.327 161.094 188.115L161.094 188.116C161.87 190.553 160.836 193.59 158.622 194.668L158.622 194.668C158.071 194.937 157.349 194.723 156.485 194.075L155.813 193.571L155.2 194.147C155.006 194.329 154.812 194.518 154.627 194.699C154.575 194.75 154.523 194.801 154.472 194.85L154.024 195.285L154.219 195.879C154.541 196.86 154.477 197.595 154.056 197.992ZM143.346 189.539C143.93 192.984 147.193 195.421 150.507 195.414C151.279 195.413 152.07 195.282 152.833 194.991C155.576 194.021 157.608 191.327 157.674 188.372C157.837 184.588 154.699 181.122 150.913 180.928C148.602 180.716 146.459 181.782 145.035 183.396C143.613 185.008 142.824 187.264 143.346 189.539Z" stroke="#EE1921" stroke-width="2"/>
<path d="M162.716 183.317C163.049 183.472 163.369 183.651 163.675 183.853C163.546 184.205 163.391 184.548 163.212 184.881C162.995 184.655 162.763 184.44 162.518 184.239C162.611 183.931 162.675 183.622 162.716 183.317Z" stroke="#00A34C" stroke-width="2"/>
<path d="M138.162 183.31C138.203 183.626 138.269 183.947 138.37 184.266C138.127 184.467 137.898 184.68 137.681 184.903C137.5 184.572 137.338 184.228 137.192 183.872C137.497 183.659 137.821 183.471 138.162 183.31Z" stroke="#00A34C" stroke-width="2"/>
<path d="M151.26 174.972C150.97 175.115 150.69 175.283 150.425 175.479C150.161 175.297 149.885 175.135 149.6 174.993C149.857 174.719 150.136 174.462 150.434 174.223C150.73 174.448 151.006 174.698 151.26 174.972Z" stroke="#00A34C" stroke-width="2"/>
</g>
<defs>
<clipPath id="clip0">
<rect width="300" height="300" fill="white"/>
</clipPath>
</defs>
</svg>
