<svg width="300" height="300" viewBox="0 0 300 300" fill="none" xmlns="http://www.w3.org/2000/svg">
<g clip-path="url(#clip0)">
<rect width="300" height="300" fill="white"/>
<rect x="300" y="300" width="300" height="100" transform="rotate(-180 300 300)" fill="#FFB84F"/>
<rect x="300" y="200" width="300" height="100" transform="rotate(-180 300 200)" fill="#EF4B4B"/>
<rect x="300" y="100" width="300" height="100" transform="rotate(-180 300 100)" fill="#252525"/>
<path d="M83.5 164L83.5 70.5L216.5 70.5L216.5 164C216.5 200.727 186.727 230.5 150 230.5C113.273 230.5 83.5 200.727 83.5 164Z" fill="#FFB84F" stroke="#252525" stroke-width="5"/>
<path d="M149.632 124.742H162.944C170.772 124.742 178.514 119.686 178.514 113.197C178.514 109.749 176.968 107.328 175.047 104.651C173.921 104.834 172.895 104.94 172.091 104.94C168.543 104.94 166.622 103.043 166.487 101.18C166.487 99.4995 167.845 98.2285 169.968 98.2285C173.266 98.2285 179.245 101.305 185.292 101.305C184.691 101.757 183.704 102.229 182.51 102.687C186.053 105.859 188.422 110.135 189.317 114.718L198.575 129.522C200.126 132.011 203.419 136.874 208.368 140.673C202.384 140.673 198.412 140.817 193.352 132.796L188.609 125.199C188.258 126.186 187.82 127.149 187.314 128.088L196.746 143.186C198.32 145.699 201.565 150.518 206.543 154.336C200.554 154.336 196.582 154.48 191.527 146.464L183.4 133.456C182.798 134.106 182.153 134.732 181.479 135.343L192.938 153.696C194.363 155.954 197.126 160.089 201.31 163.676L202.735 164.841C199.533 164.841 196.905 164.87 194.382 163.681C192.187 162.65 190.068 160.691 187.719 156.965L176.544 139.074C175.808 139.536 175.057 139.984 174.282 140.413L187.916 162.241L188.821 163.681C190.598 166.305 193.535 170.185 197.704 173.382C191.72 173.382 187.752 173.521 182.683 165.51L181.547 163.681L168.649 143.027C167.816 143.345 166.973 143.643 166.116 143.922L178.451 163.681L181.98 169.333C183.53 171.803 186.843 176.684 191.773 180.473C185.788 180.473 181.821 180.608 176.756 172.597L171.186 163.681L159.848 145.511C158.871 147.071 158.553 148.433 158.553 149.796C158.553 154.817 160.488 159.502 163.464 163.681C165.524 166.579 168.086 169.241 170.83 171.624C170.406 171.812 169.66 171.884 168.967 171.884C167.585 171.884 166.689 171.803 166.063 171.697C167.614 175.221 170.95 179.78 172.63 182.139C174.826 181.744 178.018 181.436 180.107 181.436C182.288 181.436 182.534 182.717 182.534 183.858C182.534 185.846 181.609 187.435 180.526 188.316C180.126 187.281 179.303 185.938 175.269 185.938C176.044 187.267 179.741 190.261 179.741 192.673C179.741 194.262 177.998 196.65 175.688 196.65C175.822 196.135 175.803 195.658 175.803 195.307C175.803 193.366 174.084 191.084 172.626 189.491C172.669 189.963 172.645 189.914 172.645 190.463C172.645 195.076 172.226 197.194 169.304 197.194C167.869 197.194 166.882 196.404 166.54 196.173C168.437 194.416 168.533 193.049 168.533 190.459L168.519 188.22C168.514 187.632 168.528 186.852 168.615 186.284C167.57 186.14 167.152 186.14 166.343 186.14C166.343 186.14 162.188 185.813 161.186 187.974C160.06 186.939 158.423 185.48 158.423 183.863C158.423 182.804 158.928 181.595 161.066 181.595C161.875 181.595 164.427 182.091 166.564 182.091C165.986 180.81 163.435 177.079 161.225 174.369C160.888 175.423 160.368 176.564 159.213 177.488C159.054 175.75 158.028 170.243 155.308 167.022C154.99 169.193 154.562 171.427 154.562 176.136C154.562 187.589 157.316 196.048 163.16 197.671C162.4 198.999 160.787 200.179 159.121 200.179C156.983 200.179 155.823 197.757 154.629 195.48C154.013 197.17 152.304 201.291 150.595 201.291C150.258 201.291 149.882 201.108 149.632 200.882V124.742Z" fill="#252525"/>
<path d="M183.569 115.406C183.569 109.764 179.467 105.296 178.023 104.04L176.983 104.28C178.514 106.158 181.229 109.297 181.229 113.452C181.229 121.636 172.582 128.738 162.723 128.872C162.838 130.269 162.8 132.916 162.583 134.515C173.776 134.317 183.569 125.209 183.569 115.406ZM168.134 183.136C163.363 183.136 162.323 182.635 161.066 182.635C160.258 182.635 159.482 182.717 159.482 183.863C159.482 184.662 160.383 185.817 161.187 186.429C162.313 185.312 163.854 185.066 166.343 185.066C167.503 185.066 169.092 185.293 169.795 185.394C169.699 186.082 169.559 186.968 169.559 188.215C169.559 188.879 169.583 189.645 169.583 190.459C169.583 193.285 169.169 194.777 168.182 195.904C168.399 196.034 168.972 196.159 169.304 196.159C171.129 196.159 171.596 195.215 171.596 190.463C171.596 189.029 171.721 187.709 171.721 187.363C174.272 189.308 176.877 192.794 176.877 195.307C177.71 194.888 178.702 193.622 178.702 192.673C178.702 190.964 175.827 188.408 172.794 185.326C173.218 185.225 174.345 184.898 175.269 184.898C177.662 184.898 179.587 185.293 180.709 186.621C181.157 186.14 181.523 184.691 181.523 183.858C181.523 182.423 180.7 182.481 180.107 182.481C177.565 182.481 174.422 182.876 172.173 183.242C171.355 182.158 166.15 175.105 164.802 171.35C164.412 171.206 164.109 171.09 163.474 171.09C162.217 171.09 161.899 171.971 161.567 173.17C164.441 176.66 167.2 180.445 168.134 183.136V183.136Z" fill="white"/>
<path d="M149.632 125.257H136.32C128.492 125.257 120.75 120.202 120.75 113.712C120.75 110.265 122.296 107.843 124.216 105.166C125.343 105.349 126.369 105.455 127.173 105.455C130.721 105.455 132.642 103.558 132.777 101.695C132.777 100.015 131.419 98.7437 129.296 98.7437C125.998 98.7437 120.018 101.82 113.971 101.82C114.573 102.273 115.56 102.744 116.754 103.202C113.211 106.375 110.842 110.65 109.947 115.233L100.688 130.037C99.1381 132.526 95.8451 137.389 90.8958 141.188C96.8802 141.188 100.852 141.332 105.912 133.311L110.654 125.714C111.006 126.701 111.444 127.664 111.949 128.603L102.518 143.701C100.944 146.214 97.6986 151.033 92.7205 154.851C98.7096 154.851 102.682 154.995 107.737 146.979L115.863 133.971C116.465 134.621 117.11 135.247 117.784 135.858L106.326 154.211C104.901 156.469 102.138 160.604 97.9538 164.191L96.5287 165.356C99.7303 165.356 102.359 165.385 104.882 164.196C107.077 163.166 109.195 161.206 111.545 157.48L122.719 139.589C123.456 140.051 124.207 140.499 124.982 140.928L111.348 162.756L110.442 164.196C108.666 166.82 105.729 170.7 101.56 173.897C107.544 173.897 111.511 174.036 116.581 166.025L117.717 164.196L130.615 143.542C131.448 143.86 132.29 144.158 133.147 144.437L120.813 164.196L117.284 169.848C115.733 172.318 112.421 177.2 107.491 180.989C113.475 180.989 117.443 181.123 122.507 173.112L128.078 164.196L139.416 146.026C140.393 147.586 140.711 148.949 140.711 150.311C140.711 155.332 138.775 160.017 135.8 164.196C133.739 167.094 131.178 169.756 128.434 172.14C128.858 172.327 129.604 172.4 130.297 172.4C131.679 172.4 132.574 172.318 133.2 172.212C131.65 175.736 128.314 180.295 126.633 182.654C124.438 182.26 121.246 181.951 119.157 181.951C116.976 181.951 116.73 183.232 116.73 184.373C116.73 186.361 117.654 187.95 118.738 188.831C119.137 187.796 119.961 186.453 123.995 186.453C123.22 187.782 119.522 190.776 119.522 193.188C119.522 194.777 121.265 197.165 123.576 197.165C123.441 196.65 123.461 196.173 123.461 195.822C123.461 193.882 125.179 191.6 126.638 190.006C126.595 190.478 126.619 190.43 126.619 190.978C126.619 195.591 127.038 197.709 129.96 197.709C131.395 197.709 132.382 196.919 132.724 196.688C130.827 194.931 130.73 193.564 130.73 190.974L130.745 188.735C130.75 188.148 130.735 187.368 130.649 186.8C131.693 186.655 132.112 186.655 132.921 186.655C132.921 186.655 137.076 186.328 138.077 188.489C139.204 187.454 140.841 185.996 140.841 184.378C140.841 183.319 140.335 182.11 138.198 182.11C137.389 182.11 134.837 182.606 132.699 182.606C133.277 181.326 135.829 177.594 138.039 174.884C138.376 175.938 138.896 177.079 140.051 178.004C140.21 176.266 141.235 170.758 143.956 167.537C144.273 169.708 144.702 171.942 144.702 176.651C144.702 188.104 141.948 196.563 136.103 198.186C136.864 199.514 138.477 200.694 140.143 200.694C142.28 200.694 143.44 198.272 144.634 195.995C145.251 197.685 146.96 201.806 148.669 201.806C149.006 201.806 149.381 201.623 149.632 201.397V125.257Z" fill="#252525"/>
<path d="M115.695 115.922C115.695 110.279 119.797 105.811 121.241 104.555L122.281 104.795C120.75 106.673 118.034 109.812 118.034 113.967C118.034 122.151 126.681 129.253 136.541 129.388C136.426 130.784 136.464 133.432 136.681 135.03C125.487 134.833 115.695 125.724 115.695 115.922ZM131.13 183.651C135.901 183.651 136.941 183.15 138.197 183.15C139.006 183.15 139.781 183.232 139.781 184.378C139.781 185.177 138.881 186.333 138.077 186.944C136.95 185.827 135.41 185.582 132.921 185.582C131.76 185.582 130.172 185.808 129.469 185.909C129.565 186.597 129.705 187.483 129.705 188.73C129.705 189.395 129.681 190.16 129.681 190.974C129.681 193.8 130.095 195.292 131.082 196.419C130.865 196.549 130.292 196.674 129.96 196.674C128.135 196.674 127.668 195.73 127.668 190.978C127.668 189.544 127.543 188.225 127.543 187.878C124.991 189.823 122.387 193.309 122.387 195.822C121.554 195.403 120.562 194.137 120.562 193.188C120.562 191.479 123.436 188.923 126.469 185.841C126.046 185.74 124.919 185.413 123.995 185.413C121.602 185.413 119.676 185.808 118.554 187.137C118.107 186.655 117.741 185.206 117.741 184.373C117.741 182.938 118.564 182.996 119.156 182.996C121.698 182.996 124.842 183.391 127.09 183.757C127.909 182.674 133.113 175.62 134.461 171.865C134.851 171.721 135.155 171.605 135.79 171.605C137.047 171.605 137.364 172.486 137.697 173.685C134.822 177.176 132.064 180.96 131.13 183.651V183.651Z" fill="white"/>
<path d="M139.362 125.223C140.985 119.436 144.398 115.994 147.031 112.624C143.873 111.473 140.349 108.474 140.349 107.111C140.749 106.88 146.805 108.782 147.431 108.95C148.572 108.729 149.183 107.655 149.183 107.544C148.538 107.434 144.74 106.947 142.145 105.999C140.176 105.277 139.174 103.967 139.174 103.471C139.81 103.365 142.207 104.632 145.736 104.632C147.041 104.632 147.291 104.579 148.591 104.42C147.681 102.253 145.967 100.419 144.046 100.419C143.271 100.419 141.581 100.9 140.166 101.613C139.179 100.077 138.312 98.0648 138.312 96.9623C138.312 95.6624 139.598 94.141 143.223 94.141C144.576 94.141 146.276 94.3047 147.999 94.9354C147.922 93.9773 148.379 93.4478 150.074 93.4478C153.054 93.4478 156.116 94.4347 159.862 94.4347C160.83 94.4347 161.489 94.3914 162.048 94.1555C161.807 94.9065 160.753 96.0042 159.794 96.8949C160.387 97.7085 161.932 99.6728 161.932 102.85C161.932 107.954 158.576 112.161 158.576 117.313C158.576 120.38 160.931 123.085 161.792 125.223H139.362Z" fill="#252525"/>
<path d="M150.311 105.835C150.831 104.661 151.524 103.255 151.524 101.709C151.524 97.4246 147.976 95.3833 143.224 95.3833C140.783 95.3833 139.551 96.1729 139.551 96.9624C139.551 97.752 140.355 99.4948 140.673 100.034C141.549 99.6489 143.128 99.1819 144.047 99.1819C147.307 99.1819 149.743 102.836 150.311 105.835V105.835ZM152.651 100.366C155.424 100.905 157.316 97.3572 154.683 96.7265C155.048 97.8964 153.267 98.7245 153.267 98.7245C153.267 98.7245 152.593 97.1454 153.464 96.2595C151.856 95.47 151.447 96.428 151.414 97.4294C152.049 98.272 152.468 99.2637 152.651 100.366Z" fill="white"/>
<path d="M138.5 126.5L139.5 125L140 124.5L150.5 123.5V126.5H138.5Z" fill="#252525"/>
</g>
<defs>
<clipPath id="clip0">
<rect width="300" height="300" fill="white"/>
</clipPath>
</defs>
</svg>
