<svg width="300" height="300" viewBox="0 0 300 300" fill="none" xmlns="http://www.w3.org/2000/svg">
<g clip-path="url(#clip0)">
<rect width="300" height="300" fill="white"/>
<rect y="300" width="150" height="300" transform="rotate(-90 0 300)" fill="#00A650"/>
<path d="M80 169.5L80 62L219 62L219 169.5C219 207.884 187.884 239 149.5 239C111.116 239 80 207.884 80 169.5Z" fill="#00A650" stroke="#474747" stroke-width="4"/>
<path d="M155.539 167.871C154.529 168.997 154.943 170.501 154.895 171.761C154.781 174.344 154.468 177.77 154.601 180.73C154.735 183.712 155.317 186.069 156.877 186.739C158.268 187.353 159.367 187.377 160.892 186.995C162.438 186.609 164.4 185.81 167.495 184.799C169.571 184.057 171.385 184.69 173.284 185.859C175.165 187.019 177.161 188.73 179.631 190.216C182.531 191.941 186.357 193.225 189.608 192.063C190.072 191.9 190.865 191.407 190.865 191.407C190.865 191.407 190.457 192.174 190.3 192.416C189.404 193.798 188.155 194.957 186.822 195.683C184.323 197.04 180.573 197.434 175.551 193.712C172.279 191.217 168.947 190.735 166.339 191.705C163.824 192.729 161.362 192.932 159.529 192.88L159.137 192.864C163.025 194.252 168.058 197.385 166.139 203.518C166.085 203.687 165.535 205.29 165.388 205.505C165.333 205.585 165.171 204.47 165.171 204.47C165.136 202.053 164.652 199.55 161.954 199.55C158.392 199.55 156.338 199.099 154.877 198.088C153.41 197.071 152.483 195.359 151.579 193.72C151.215 195.3 151.811 196.9 152.687 198.095C155.414 201.752 152.88 205.258 148.979 207.32C148.32 207.652 146.734 208.391 145.888 208.155C145.715 208.085 145.461 207.857 145.461 207.857C145.461 207.857 146.042 207.564 146.475 207.271C148.123 206.156 149.962 204.172 148.344 201.726C147.643 200.665 147.198 198.798 146.959 197.444C145.376 200.238 142.929 201.441 140.317 201.394C139.699 201.384 138.862 201.335 137.94 201.337C135.445 201.345 131.748 201.711 130.896 205.168C130.342 207.502 130.123 208.327 130.042 208.57C129.775 209.366 129.65 208.879 129.676 208.521C128.619 204.901 128.855 200.432 131.783 198.152C134.333 196.093 136.674 196.614 139.456 196.666C140.715 196.692 141.957 196.552 142.943 195.471C143.757 194.568 144.393 193.354 144.568 192.037C141.252 194.423 136.613 195.904 133.01 193.445C129.534 191.101 125.666 191.363 122.317 193.611C121.713 194.016 120.002 195.162 118.158 195.616C111.907 197.149 109.397 194.361 108.823 193.681C108.823 193.681 111.281 193.743 115.409 193.186C119.211 192.436 121.299 186.329 125.399 185.916C127.414 185.735 128.463 185.911 130.112 187.024C131.069 187.67 132.09 188.323 135.058 188.079C141.296 187.501 143.227 184.153 143.078 179.368C143.011 177.029 142.104 175.851 140.137 175.019C139.699 174.614 139.745 171.582 141.955 171.844C142.439 172.355 143.262 172.892 143.262 172.892C143.332 172.171 143.503 170.304 143.679 167.869L155.539 167.871" fill="#474747"/>
<path d="M143.678 167.874C143.767 166.636 143.855 165.257 143.934 163.807C144.21 158.649 144.33 152.632 143.728 149.105C142.49 142.04 137.895 141.415 136.275 142.917C135.556 143.578 135.265 145.08 135.184 146.27C135.823 146.667 136.264 147.79 136.318 149.004C136.364 150.056 136.112 151.083 135.65 151.644L136.669 153.568L136.384 153.781L135.388 151.893C135.239 152.002 135.072 152.064 134.893 152.077L134.711 152.069L134.227 153.89L133.909 153.77L133.959 153.584L134.389 151.96C133.721 151.594 133.256 150.443 133.202 149.195C133.151 148.026 133.464 146.895 134.023 146.392C133.521 142.875 135.254 141.763 135.254 141.763C133.701 141.69 130.933 141.778 128.344 146.065C130.849 147.51 130.47 148.508 129.487 150.28C129.292 150.624 130.576 151.369 129.599 151.999C129.342 152.136 129.27 152.494 129.27 152.494C129.544 153.169 129.643 153.796 128.786 153.908C128.412 153.988 128.396 154.268 128.444 154.725L128.482 155.054C128.517 155.404 128.497 155.819 128.092 155.845C127.297 155.951 127.157 156.325 127.117 156.621L127.104 156.877L127.106 157.126C127.104 157.347 127.043 157.557 126.817 157.557C125.998 157.487 125.897 159.175 125.878 159.722C125.878 159.722 125.142 159.211 124.662 158.752C124.305 158.41 123.652 157.733 123.731 157.111C123.801 156.232 123.098 155.736 122.892 155.835C122.032 156.211 122.441 154.803 122.516 154.429C122.664 153.641 122.68 152.977 122.029 152.78C121.688 152.668 120.858 152.507 121.138 151.846C121.44 151.348 121.497 150.723 121.449 150.225C121.348 149.268 121.561 148.762 121.837 148.399C121.837 148.399 122.367 148.008 122.404 147.588C122.542 146.937 122.975 146.926 123.416 146.882C123.416 146.882 123.714 146.913 123.781 146.656C124.134 145.611 125.985 145.575 127.08 145.692C128.869 141.853 130.571 140.717 131.723 139.983C129.835 139.968 127.687 140.8 126.013 141.682C121.865 143.957 118.159 148.607 118.387 149.683C118.51 150.103 118.687 150.513 118.886 150.91C119.679 150.822 120.549 151.794 120.982 153.065C121.342 154.118 121.366 155.269 121.011 155.97L122.15 157.048L121.942 157.357L120.801 156.278C120.472 156.631 120.093 156.657 119.883 156.589L119.747 158.462L119.414 158.428L119.557 156.47C118.967 156.164 118.409 155.389 118.089 154.45C117.747 153.444 117.708 152.349 118.017 151.641L117.592 150.656L117.217 151.672C118.034 152.66 117.25 155.448 116.153 156.268L116.613 157.878L116.297 158.005L115.848 156.439C115.209 156.608 114.95 156.255 114.861 156.138L114.066 157.266L113.809 157.015L114.672 155.785C114.184 154.447 115.174 151.696 116.333 151.374L116.604 150.318L115.594 150.718C115.496 151.932 113.452 152.943 112.416 152.481L111.593 154.11L111.306 153.905L112.125 152.284C112.031 152.188 111.954 152.069 111.902 151.924L110.285 151.716L110.323 151.322L111.836 151.519C111.871 150.16 114.372 149.027 115.283 149.865C115.443 149.808 117.042 149.255 117.408 148.633C117.789 148 118.521 146.524 119.609 144.94C120.7 143.345 122.152 141.633 123.97 140.559C126.572 139.029 129.57 138.101 132.481 137.94C130.243 137.126 126.732 136.041 124.517 136.296C121.291 136.729 117.375 138.982 114.915 141.503L115.577 142.67C116.124 143.71 116.142 144.25 115.393 145.36C114.95 146.044 115.592 147.86 114.315 147.912C113.216 147.958 113.119 148.2 113.109 148.251C112.957 148.456 113.483 148.905 112.889 148.9C112.116 148.931 111.12 149.527 111.12 149.527C110.778 149.766 110.544 149.852 109.803 149.52C109.21 149.268 108.831 149.574 108.509 149.94C108.27 150.222 107.859 150.863 107.471 150.474C106.836 149.919 105.723 150.425 105.057 150.91C105.057 150.91 105.324 149.621 105.285 149.172C105.226 148.192 105.364 147.943 105.522 147.712C105.73 147.411 105.666 146.973 105.627 146.615C105.489 145.497 105.635 145.116 105.868 144.748C105.868 144.748 106.207 144.162 106.387 143.192C106.549 141.244 107.348 142.805 107.839 140.855C108.126 139.875 109.05 139.885 109.749 139.812L109.987 139.773C111.041 138.715 113.157 139.937 114.105 140.577C114.806 139.973 116.011 138.925 116.946 138.057C118.319 136.804 120.008 135.855 121.639 135.147C120.218 135.123 113.691 134.047 106.198 137.336C105.692 140.199 102.793 140.601 102.238 140.214L100.832 141.643L100.615 141.345L101.91 140.028C101.774 139.921 101.465 139.535 101.417 138.816H100V138.422H101.478C101.658 137.686 102.212 136.923 102.939 136.407C104.08 135.595 105.476 135.512 105.968 136.485C106.371 136.267 106.862 136.005 107.418 135.746C108.927 135.043 111.098 134.239 113.757 133.832C120.358 132.88 128.532 133.902 133.668 135.847C133.668 135.847 127.691 131.858 115.316 129.664C114.979 131.21 113.455 132.745 112.41 132.177C112.147 132.009 111.387 132.719 111.387 132.719C111.006 133.111 110.509 133.567 110.104 132.88C109.573 131.959 109.114 131.965 108.759 132.076C108.424 132.177 107.894 132.569 107.69 131.98C107.333 130.665 106.196 130.834 106.196 130.834C105.738 130.81 105.535 130.561 105.55 129.973C105.55 129.319 102.775 129.143 103.48 127.628C103.802 126.951 102.208 125.406 101.763 125.032C102.731 125.063 103.673 125.219 104.242 124.158C104.521 123.525 104.974 123.541 105.362 123.559C106.306 123.585 106.619 122.415 107.675 122.877C108.327 123.333 108.805 123.424 109.361 122.724C109.657 122.376 109.915 122.358 110.224 122.638C110.224 122.638 110.809 123.455 111.731 122.906C112.27 122.633 112.583 123.144 112.778 123.629L113.122 124.571C113.251 124.884 113.314 125.011 113.538 124.711C114.438 123.515 115.651 126.326 115.483 128.619C121.462 129.615 128.07 131.459 129.796 132.107C129.016 131.783 115.908 123.18 113.295 121.342C112.646 120.893 110.397 119.601 109.308 119.796C109.118 120.509 108.375 121.113 107.526 121.329C106.621 121.554 105.675 121.324 105.296 120.678L103.629 122.148L103.43 121.832L105.154 120.307C105.116 120.099 105.119 119.936 105.149 119.778L102.536 118.66L102.65 118.287L105.213 119.347C105.495 118.756 106.216 118.338 106.954 118.152C107.869 117.921 108.824 118.162 109.195 118.826L110.147 118.886C109.506 118.3 109.07 117.454 108.903 117.127C108.132 117.133 107.285 116.248 106.818 115.063C106.428 114.072 106.345 112.975 106.621 112.233L104.992 110.989L105.173 110.657L106.792 111.894C106.939 111.372 107.372 111.43 107.372 111.43L107.293 108.896L107.629 108.88L107.705 111.383C108.465 111.409 109.291 112.283 109.749 113.447C110.268 114.767 110.244 116.277 109.552 116.876C110.044 117.799 111.133 118.554 111.503 118.818C114.011 120.592 129.544 129.765 133.668 132.009C131.202 130.395 119.357 122.039 118.578 119.039C117.883 119.246 115.025 119.101 114.289 118.769C113.715 118.51 111.429 117.503 112.035 116.279C112.114 116.113 112.092 116.03 112.055 115.958L111.759 115.595C111.475 115.26 111.253 114.798 111.652 113.904C112.007 113.017 111.426 111.764 111.924 110.781C112.504 109.694 113.098 106.66 113.347 105.304C113.347 105.304 114.537 107.109 115.535 107.358C116.282 107.397 116.799 108.12 117.355 108.6C117.651 108.854 118.135 108.058 118.194 108.896C118.194 108.896 118.286 110.058 118.689 110.058C119.265 110.104 119.751 110.296 119.701 111.082L119.684 111.536C119.692 111.577 119.714 111.653 119.92 111.678C121.052 111.847 119.986 114.026 120.332 114.588C121.123 115.654 120.292 117.07 119.419 118.437C122.261 123.533 136.364 131.109 138.71 132.647L131.982 123.362C131.498 123.575 130.729 123.878 129.971 124.041C128.808 124.293 127.323 124.358 127.073 123.038C126.903 122.089 126.657 121.928 125.991 121.681C125.61 121.518 125.51 121.204 125.551 120.722C125.691 119.477 124.099 118.753 125.242 117.158C125.319 117.031 125.308 116.422 125.308 116.422C125.264 116.106 125.223 115.706 125.459 115.198C126.072 114.041 126.504 112.682 126.898 111.404L127.266 111.764C127.592 112.057 128.322 112.612 128.712 112.337C129.577 111.723 130.203 113.458 130.392 113.219C130.696 112.879 130.972 112.926 131.217 113.31L131.561 113.93C131.743 114.233 131.966 114.487 132.301 114.516C132.86 114.531 133.366 114.684 133.272 115.473C133.272 115.473 133.053 116.025 133.456 116.046C134.135 116.147 133.931 117.13 133.837 117.638C133.837 117.638 133.521 118.699 133.804 118.896C135.098 119.586 134.369 121.821 132.84 122.906L139.665 131.342C139.665 131.342 137.689 128.17 136.647 123.689C135.512 123.271 134.809 120.4 135.374 119.044L134.654 117.42L134.949 117.236L135.591 118.681C135.817 118.326 136.325 118.336 136.463 118.37L136.989 116.754L137.302 116.897L136.774 118.515C137.86 119.262 138.443 122.247 137.652 123.341C138.511 127.322 146.453 139.239 146.453 139.239C146.1 138.005 143.636 128.668 143.636 128.668C143.321 128.707 141.713 128.507 141.479 128.375C141.198 128.217 141.06 127.893 141.373 127.558C141.457 127.371 140.241 127.255 140.241 127.255C139.985 127.193 139.249 127.001 139.61 126.495C139.858 126.191 139.753 125.878 139.262 125.714C138.817 125.455 138.141 125.032 138.559 124.013C138.763 123.559 138.259 123.23 138.259 123.23C137.972 122.807 137.878 122.255 138.535 121.243C138.673 121.01 138.616 120.792 138.36 120.416C138.149 120.11 137.867 119.674 138.364 119.148C138.898 118.479 138.693 117.664 138.439 116.987C138.439 116.987 141.016 117.293 142.655 117.61C143.494 117.817 143.524 119.27 144.9 119.225C145.857 119.174 145.949 119.498 146.076 120.421C146.161 120.94 146.372 121.313 146.724 121.658C147.035 121.972 147.092 122.304 146.985 122.74C146.985 122.74 146.488 123.933 146.849 124.936C146.939 125.216 146.803 125.387 146.654 125.473C146.654 125.473 145.688 125.727 145.793 126.464C145.894 127.4 145.583 128.02 144.781 128.419C145.835 132.631 147.436 135.473 147.436 135.473C147.508 133.588 147.723 127.929 147.754 126.324C147.826 122.851 144.635 113.764 139.847 112.529C137.773 114.837 136.964 115.161 135.891 114.721C134.816 114.295 133.171 114.762 132.704 113.061C132.518 112.322 130.847 112.586 130.646 110.683C130.543 109.466 129.761 108.514 129.067 107.723C129.664 107.864 131.325 108.315 131.29 106.836C131.29 106.279 131.417 105.988 132.295 106.04C132.777 106.074 133.296 106.108 133.732 105.573C133.907 105.35 134.078 105.2 134.33 105.33C134.636 105.49 134.98 105.643 135.826 105.382C136.266 105.236 136.551 105.516 136.811 105.872C137.269 106.536 137.821 107.153 138.679 107.132C139.654 107.132 140.037 110.032 140.151 111.497C144.466 112.941 147.182 116.78 147.182 116.78C144.7 109.204 140.351 105.138 134.533 104.871C131.495 104.78 128.118 104.658 125.65 104.793C124.52 104.834 123.03 104.684 121.848 104.38C121 105.433 118.374 104.943 117.682 103.683L115.555 104.282L115.478 103.895L117.544 103.315C117.511 103.167 117.463 102.35 117.96 102.08L116.587 100.939L116.779 100.615L118.297 101.878C119.53 101.325 121.834 102.096 122.104 103.408C122.104 103.408 123.801 103.605 126.134 103.372C125.731 103.05 123.714 101.852 122.975 99.8549C121.797 100.106 120.472 96.8672 121.95 95L120.886 92.9952L121.169 92.7851L122.222 94.7639C122.351 94.6809 123.059 94.6602 123.243 94.7769L123.917 92.8889L124.224 93.0419L123.521 95.0181C124.723 96.6183 124.149 98.7216 123.821 99.2454C123.821 99.2454 125.818 103.198 130.843 102.944C134.106 102.817 136.522 103.26 137.646 103.527L134.912 100.884C133.605 101.826 131.314 102.277 130.19 101.764C129.91 101.634 129.673 101.369 129.682 101.014C129.551 100.796 128.723 100.532 128.723 100.532C128.066 100.221 127.728 100.127 127.914 99.4322C128.055 98.955 127.102 98.2833 127.102 98.2833C126.782 98.0084 126.589 97.6582 126.78 97.1681C126.885 96.7427 126.624 96.3252 126.624 96.3252C126.491 96.0321 126.331 95.6379 126.662 95.2152C127.38 94.4216 126.605 93.4101 126.605 93.4101C126.438 93.0237 126.34 92.6036 126.727 92.3079C127.332 91.8178 127.209 89.424 127.157 88.6537C127.739 89.1232 129.314 90.2824 130.039 89.647C130.335 89.4084 130.944 90.3369 130.944 90.3369C131.259 90.6092 131.633 90.757 132.109 90.2539C132.483 89.8675 132.667 90.3421 132.764 90.6766C133.079 91.4832 133.287 91.963 134.014 91.8281C135.118 91.5662 134.866 94.2115 135.256 94.2115C136.281 94.1467 136.222 95.0985 136.242 95.9076C136.255 96.2344 136.292 96.5871 136.61 96.6986C137.416 97.1006 136.148 99.2558 135.655 100.083C137.608 101.458 144.799 106.722 147.25 111.258C146.045 102.498 141.752 96.7791 140.099 95.3008C139.52 95.4201 138.789 95.2126 138.147 94.7588C137.297 94.1519 136.699 93.1741 136.75 92.3416L135.42 92.2016L135.451 91.8074L136.826 91.9526C136.826 91.9526 136.947 91.4495 137.383 91.2887L137 89.2139L137.326 89.1309L137.703 91.1668C138.287 91.032 139.039 91.2368 139.696 91.7036C140.624 92.365 141.253 93.4724 141.06 94.349L141.857 95.3137L142 93.4828C141.036 92.7281 141.119 88.9416 143.275 88.3814L142.821 85.6531L143.147 85.5753L143.632 88.4255C143.772 88.4722 143.897 88.5526 144.004 88.6589L145.723 87.2896L145.912 87.6189L144.227 88.9598C145.077 91.2342 143.899 93.3272 143.053 93.6461C143.053 93.6461 142.863 95.4486 142.918 96.0996C142.931 97.1162 147.355 100.825 149.201 112.866L149.747 98.7605C148.945 98.6463 147.791 98.5115 147.591 98.3455C147.311 98.1121 147.112 97.6297 146.886 96.5794C146.827 96.3589 146.091 95.0414 146.091 95.0414C145.85 94.6187 145.482 93.9496 145.719 93.4205C145.863 93.0367 145.515 92.6736 145.331 92.4168C145.173 92.186 145.04 91.8956 145.248 91.6206C146.096 90.7078 146.131 89.5537 146.131 89.5537C146.188 89.0376 146.299 88.729 147.206 88.2388C148.319 87.6449 148.479 86.2522 148.479 86.2522C148.592 85.8502 148.741 85.4534 149.153 85.3886C150.8 85.1318 151.508 83 151.508 83C151.488 83.3501 152.642 84.193 152.719 84.2423C153.586 84.8621 153.588 85.2719 153.558 85.6739C153.52 86.1977 153.969 86.4208 154.309 86.6231C155.36 87.2792 155.305 87.6786 155.001 88.1376C155.001 88.1376 154.539 88.6019 155.327 89.3488C156.499 90.4795 155.599 90.713 155.656 91.3665C155.673 91.5688 155.781 91.8774 156.114 92.3494C156.703 93.3168 155.881 94.2453 155.406 94.9221L155.244 95.1789C155.266 97.2952 152.456 98.3481 150.864 98.7423V112.337C151.216 111.557 151.84 110.208 152.611 108.665C153.823 106.237 155.411 103.317 156.887 101.388C158.116 99.8445 158.483 98.4129 158.477 96.46C157.857 96.084 157.476 94.9766 157.493 93.8199C157.507 93.0159 157.708 92.2483 158.039 91.7348L157.279 89.8571L157.581 89.6859L158.286 91.4261C158.617 91.0475 159.197 91.1253 159.287 91.159L159.949 88.9779L160.264 89.1102L159.59 91.338C160.126 91.7814 160.45 92.8111 160.435 93.8796C160.417 95.0492 159.997 96.1514 159.357 96.4886C159.357 96.4886 159.452 98.138 159.305 98.9861C159.305 98.9861 159.916 99.1832 161.585 96.4626C161.335 95.682 161.714 94.5513 162.415 93.7188C163 93.0263 163.76 92.601 164.377 92.6477L165.245 90.1865L165.554 90.3395L164.712 92.7255C164.855 92.7851 164.984 92.8785 165.094 93.0082C165.216 93.1534 165.299 93.3246 165.348 93.5139L166.988 93.1404L167.052 93.5295L165.402 93.9055C165.424 94.6291 165.067 95.5031 164.496 96.1825C163.812 96.9917 162.89 97.4352 162.233 97.1888C162.043 97.5882 161.346 99.3596 159.756 100.135C158.212 100.646 151.981 111.271 151.757 118.346C155.516 111.173 162.665 105.822 164.336 104.344C163.854 103.4 163.576 102.085 164.132 101.095C164.715 100.099 163.427 98.2625 165.148 98.2625C165.545 98.2599 165.424 97.3911 165.424 97.3911C165.54 95.7131 166.596 96.2811 167.021 95.6405C167.387 94.4735 167.987 94.2115 168.81 94.5357C169.176 94.7302 169.689 94.1363 169.689 94.1363C170.028 93.8407 170.444 93.5917 171.06 94.1104C172.002 94.8936 174.555 93.4724 175.451 92.9174C175.451 92.9174 175.254 94.1182 175.221 95.0077C175.188 95.9413 175.272 96.8283 175.594 97.1369C175.972 97.5104 175.988 97.9072 175.784 98.3792C175.784 98.3792 175.138 99.344 175.41 100.534C176.443 101.696 174.934 101.844 174.934 101.844C174.527 101.862 174.069 101.909 174.019 103.022C173.971 103.647 173.649 103.813 173.197 103.81C173.197 103.81 172.131 103.429 172.08 104.956C172.104 105.597 171.64 105.389 171.123 105.249C170.764 105.148 170.37 105.13 170.041 105.812C169.343 107.104 167.516 106.769 165.823 105.656C165.448 105.397 165.177 105.205 164.988 105.055C163.433 106.442 160.343 109.274 157.616 112.249C155.687 114.303 154.004 116.941 152.798 119.674C156.865 115.758 162.128 115.027 163.661 115.136C163.758 113.248 164.568 112.22 165.619 111.471C167.956 109.028 175.909 109.072 176.209 109.069L177.138 107.796C176.901 107.015 177.278 105.895 177.974 105.068C178.677 104.235 179.637 103.787 180.296 104.087L181.619 101.253L181.912 101.445L180.585 104.287C180.585 104.287 180.872 104.705 180.92 104.912L183.375 104.352L183.439 104.741L180.962 105.306C180.966 106.02 180.614 106.87 180.055 107.532C179.365 108.348 178.432 108.795 177.773 108.53L177.293 109.316L179.166 109.79C179.748 108.369 182.841 108.452 183.312 109.936L185.213 109.197L185.318 109.573L183.371 110.356C183.369 110.462 183.356 110.566 183.332 110.664L185.701 111.715L185.585 112.086L183.18 111.02C182.491 112.117 179.954 112.07 179.216 110.947C173.576 109.676 170.425 110.685 168.537 111.45C168.683 111.559 168.834 111.697 168.986 111.868C169.316 112.233 169.535 112.293 170.317 111.837C170.793 111.528 171.34 111.251 171.868 112.319C172.288 113.198 173.916 112.215 173.791 114.233C173.741 115.034 174.595 115.2 175.079 115.317C176.27 115.46 176.428 115.955 176.001 116.588C175.302 117.783 176.327 119.109 177.135 119.723C177.135 119.723 174.993 119.2 174.728 119.97C174.446 120.66 173.835 120.727 173.278 120.699L172.67 120.644C171.824 120.558 171.027 120.514 170.521 121.233C170.162 121.744 169.781 121.544 169.446 121.199C169.025 120.743 168.672 120.089 168.217 121.025C167.893 121.684 167.387 121.088 167.139 120.745C166.252 119.246 166.353 119.804 166.34 120.037C166.309 120.911 165.619 120.66 165.249 120.237C164.145 118.974 163.698 116.858 163.578 116.308C159.449 116.502 153.726 118.997 152.876 124.296C152.403 127.117 151.72 132.346 152.399 135.427C152.399 135.427 153.181 132.95 155.117 130.027C154.464 129.241 153.227 126.609 154.937 126.715C155.008 126.715 155.043 126.741 155.067 126.731C155.001 126.568 154.929 126.459 154.835 126.329C154.629 126.062 154.099 125.447 154.035 125.068C154.035 125.068 154.046 124.386 154.734 124.493C155.275 124.526 155.275 124.176 155.203 123.702C155.086 122.944 154.386 121.124 155.805 121.495C156.808 121.705 157.04 120.291 157.04 120.291C157.274 119.713 157.671 119.703 158.153 119.936C158.724 120.429 159.782 118.94 159.782 118.94C160.104 118.559 160.448 118.414 160.785 118.945C161.541 120.227 163.256 118.756 163.961 118.121C163.961 118.121 163.506 119.796 163.348 120.779C163.269 121.274 163.23 121.718 163.269 121.98C163.298 122.177 163.328 122.19 163.482 122.086C164.007 121.834 164.242 122.073 163.992 122.677C163.742 123.214 163.355 124.075 163.521 124.145C163.771 124.257 163.946 124.348 164.049 124.428C164.603 124.791 163.893 125.056 163.407 125.123C162.835 125.255 162.375 125.406 162.897 126.145C163.188 126.568 163.42 127.071 162.932 127.405C162.932 127.405 161.769 127.722 162.082 129.008C162.31 129.944 161.307 129.719 160.915 129.623L160.218 129.47C161.134 131.365 157.811 130.987 155.811 130.499C153.334 134.898 153.087 139.548 152.997 140.186C154.248 138.277 156.103 135.818 157.837 134.667C158.83 133.961 160.244 133.772 161.37 133.484C162.395 133.22 163.212 132.875 163.585 132.125C162.831 131.163 163.609 128.736 164.656 128.038L164.428 125.613L164.761 125.569L164.977 127.882C165.192 127.823 165.411 127.838 165.626 127.958L166.703 126.186L166.975 126.417L165.908 128.191C166.819 129.293 165.613 132.444 164.318 132.488C163.707 133.694 162.684 134.483 161.447 134.763C160.577 134.918 159.968 135.173 160.141 135.274C162.673 135.966 166.546 135.173 168.661 132.698C167.472 131.684 166.73 130.772 166.618 130.458C166.454 129.999 166.699 129.732 167.157 129.732C167.457 129.721 167.328 129.423 167.262 129.21C167.017 128.482 166.515 127.301 167.689 127.301C168.134 127.276 168.14 127.042 168.046 126.643L167.912 126.171C167.667 125.39 167.533 124.62 168.548 124.781C169.242 124.858 169.43 124.231 169.562 123.65C169.739 123.116 170.081 123.059 170.525 123.261C171.051 123.481 171.355 123.087 171.673 122.62L171.901 122.293C172.783 121.145 172.956 123.453 173.537 122.14C173.638 121.915 173.712 121.648 173.765 121.432L173.839 121.069L174.172 121.106C174.172 121.106 174.172 122.091 174.293 122.989C174.323 123.212 174.481 124.534 174.912 124.22C175.329 123.971 175.62 124.106 175.543 124.692L175.392 125.445C175.37 125.561 175.283 126 175.42 126.049C175.653 126.134 175.823 126.22 175.929 126.319C176.706 126.674 175.418 127.317 175.418 127.317C174.943 127.633 174.413 128.033 174.965 128.627C175.738 129.459 174.584 129.566 174.584 129.566C174.214 129.576 173.918 129.617 174.163 130.458C174.321 131.174 173.717 131.371 173.281 131.485C173.281 131.485 172.67 131.578 172.733 131.721C173.723 133.502 169.746 133.116 169.555 133.093C168.335 135.087 166.633 135.829 166.633 135.829C169.991 135.365 173.646 133.827 176.176 131.132C177.092 130.224 180.905 124.516 180.905 124.516C180.243 124.096 179.713 123.523 179.267 123.082C178.857 122.675 178.476 122.239 178.327 121.889C178.108 121.381 178.382 121.088 178.91 121.088C179.264 121.088 179.179 120.911 179.058 120.595C178.736 119.806 178.156 118.645 179.512 118.613C180.296 118.574 180.02 117.973 179.832 117.42C179.556 116.603 179.38 115.797 180.561 115.958C181.128 116.01 181.415 115.971 181.268 114.905C181.246 114.212 181.744 114.28 182.153 114.433C182.839 114.684 183.18 114.238 183.489 113.751C184.015 112.742 184.322 112.853 184.698 113.318C185.566 114.479 186.613 111.632 186.613 111.632C186.613 111.632 186.691 112.581 186.729 113.351C186.744 113.688 186.775 114.627 187.274 114.311C187.962 113.74 187.964 114.526 187.964 114.526C187.986 114.656 187.76 115.986 187.76 115.986C187.727 116.16 187.607 116.793 187.811 116.863C188.084 116.943 188.277 117.018 188.402 117.107C188.402 117.107 189.173 117.428 187.979 118.121C187.445 118.486 187.121 118.738 187.655 119.474C187.995 119.946 188.31 120.393 187.603 120.673C187.327 120.792 186.994 120.94 187.278 121.892C187.517 122.618 186.788 122.952 186.365 123.147C186.365 123.147 185.629 123.479 185.734 123.642C186.867 125.455 182.144 125.05 181.783 124.934C181.279 126.025 178.458 130.937 177.701 131.949C178.277 131.669 179.159 131.199 180.158 130.634C182.164 129.503 189.033 124.355 190.091 122.9C189.727 121.479 191.468 118.987 192.69 119.264L193.989 116.826L194.272 117.037L194.184 117.205L193.01 119.41L193.113 119.498C193.262 119.64 193.361 119.817 193.418 120.011L195.63 119.669L195.674 120.061L193.479 120.403C193.531 121.951 191.718 124.262 190.586 123.593C190.259 123.982 184.9 130.442 178.563 133.554C179.385 133.583 184.711 134.078 186.757 133.57C186.941 130.214 187.585 128.668 188.531 129.789C189.004 130.512 188.794 126.425 190.279 127.942C191.124 128.806 191.138 127.234 191.771 126.995C192.06 126.889 192.347 127.102 192.653 127.556C193.148 128.318 193.613 128.144 194.283 127.709C195.468 127.195 195.062 129.21 196.057 128.647L196.769 128.17C197.257 127.885 197.625 127.997 197.811 128.697C198.1 129.641 199.743 129.132 199.743 129.132L199.336 129.589C199.11 129.851 197.38 131.876 198.159 132.128C198.505 132.307 198.523 132.704 198.523 132.704C198.407 133.01 197.798 133.298 197.575 133.414C197.575 133.414 196.311 134.117 196.394 134.293C196.499 134.537 196.679 134.955 196.672 135.248C196.793 135.647 196.471 135.626 196.471 135.626C194.624 135.224 194.771 136.967 194.458 137.006C193.959 137.289 193.225 136.005 192.322 137.686C191.676 138.886 190.329 136.744 190.123 136.934C189.766 138.573 187.657 136.918 186.91 134.695L177.744 135.772C179.321 136.047 184.142 137.193 190.717 140.043C191.81 139.229 194.427 140.526 194.408 142.04L196.582 142.315L196.547 142.709L194.342 142.429C194.272 142.644 194.16 142.81 194.018 142.937L195.647 145.264L195.389 145.515L193.715 143.124C192.561 143.614 190.389 142.486 190.268 141.13C187.451 140.144 180.048 137.634 176.078 137.061C174.89 136.908 171.914 136.679 170.845 138.049C176.859 139.312 179.49 141.604 180.416 142.227C181.225 141.2 183.246 139.078 184.223 140.603C184.707 140.692 185.955 139.698 186.51 140.821C186.899 141.778 187.574 141.7 187.574 141.7C187.986 141.77 188.157 142.289 188.268 142.699C188.599 143.666 189.65 144.029 189.65 144.029C190.194 144.289 190.684 144.61 190.279 145.676C190.121 146.138 190.038 146.366 190.419 146.592C190.419 146.592 191.173 146.714 191.354 148.044C191.431 148.648 192.174 149.932 192.174 149.932C192.174 149.932 191.435 149.699 190.616 149.592C189.753 149.483 188.958 149.538 188.702 149.948C188.531 150.23 188.319 150.298 188.045 150.277C187.513 150.22 187.217 150.189 186.724 150.575C186.323 150.941 185.995 151.198 185.224 150.5C184.858 150.147 184.389 149.725 183.334 149.937C182.964 150.002 183.027 149.447 183.027 149.447C182.994 149.328 182.859 149.133 181.831 149.439C181.176 149.553 180.999 148.908 180.876 148.311C180.876 148.311 180.638 147.307 180.37 147.279C179.431 147.082 179.405 145.824 179.512 144.994C179.512 144.994 179.68 144.097 179.805 143.249C179.501 143.067 179.253 142.893 178.899 142.694C177.742 142.04 176.362 141.33 175.414 141.065C172.987 140.282 172.405 140.551 171.553 140.481C173.191 141.84 175.258 143.627 176.527 145.378C177.565 146.833 178.384 148.643 179.893 149.514C180.169 149.66 182.905 150.91 183.954 151.39C184.937 150.969 186.832 151.815 187.377 152.896L188.936 152.621L188.985 153.013L187.506 153.275C187.541 153.457 187.616 153.89 187.256 154.19L188.384 155.5L188.15 155.783L186.959 154.401C185.785 154.935 183.246 153.597 183.367 152.219L180.69 151.076L181.952 152.852C183.003 152.533 184.628 154.341 184.639 155.679L186.131 156.639L185.973 156.986L184.584 156.094C184.541 156.239 184.416 156.631 183.932 156.781L184.07 158.791L183.737 158.822L183.599 156.807C182.488 156.706 180.99 154.782 181.216 153.565L179.797 151.683L180.484 154.598C181.577 155.282 181.579 158.464 180.568 159.338L181.093 161.491L180.773 161.6L180.261 159.515C180.173 159.546 179.891 159.624 179.602 159.46L178.454 161.361L178.182 161.133L179.323 159.237C178.415 158.236 178.537 155.192 179.624 154.577C179.481 153.949 179.24 153.049 178.866 152.053C178.156 150.165 176.932 147.725 174.88 145.518C173.859 144.408 172.405 142.994 171.079 142.302C172.376 144.146 172.648 146.581 172.755 147.51C174.126 147.829 175.999 148.863 175.403 150.347C175.348 150.484 175.491 150.591 175.589 150.593C176.211 150.58 177.078 150.51 176.757 151.742C176.544 153.018 177.707 153.2 177.707 153.2C177.955 153.469 177.606 153.721 177.436 153.825C176.993 154.159 176.905 154.616 176.943 155.179L177 155.71C177.083 156.403 177.146 157.196 176.08 157.204C175.447 157.165 175.418 157.391 175.453 157.982L175.471 158.42C175.466 159.038 175.232 159.419 174.691 159.577C173.607 159.906 172.354 161.745 171.717 162.793C171.717 162.793 171.535 161.382 171.327 160.581C171.22 160.174 171.099 159.839 170.977 159.668C170.891 159.549 170.849 159.528 170.74 159.691C170.471 160.088 170.212 159.979 170.199 159.536C170.179 158.96 170.354 157.912 170.125 157.406C170.046 157.235 169.91 157.113 169.544 157.277C168.778 157.58 168.721 157.326 168.721 157.326C168.484 157.259 168.843 156.091 168.843 156.091C169.095 155.319 169.198 154.782 168.291 154.756C168.114 154.753 167.728 154.605 167.728 154.605C167.433 154.455 167.871 153.833 167.871 153.833C168.101 153.462 168.276 153.119 167.89 152.715C167.284 152.066 168.212 151.519 168.587 151.239C169.005 151.003 168.256 150.324 168.515 149.491C168.712 148.858 169.492 148.14 171.809 147.46C171.546 145.845 170.56 144.561 169.524 143.542C168.083 142.102 165.77 140.79 163.83 140.134C164.196 140.502 165.978 141.529 164.539 144.374C165.304 146.314 163.03 149.403 161.692 148.928L160.779 151.307L160.474 151.143L161.377 148.793C161.377 148.793 161.053 148.557 160.926 148.215L158.996 149.468L158.834 149.12L160.825 147.829C160.547 146.714 161.683 143.399 163.72 143.627C164.062 142.629 163.576 141.903 162.754 141.457C160.928 140.44 154.804 139.26 154.171 148.809C153.972 151.812 153.258 162.051 154.789 164.095C154.957 164.367 156.12 163.366 156.12 163.366C157.493 162.949 158.159 166.307 157.336 166.802C156.479 167.085 155.912 167.453 155.538 167.868L143.678 167.874" fill="#474747"/>
<path d="M156.131 165.335C155.881 164.474 155.943 163.668 156.269 163.535C156.593 163.403 157.062 163.992 157.312 164.853C157.563 165.714 157.502 166.52 157.176 166.655C156.849 166.788 156.383 166.196 156.131 165.335Z" fill="white"/>
<path d="M140.437 172.896C140.882 172.144 141.578 171.812 141.992 172.155C142.404 172.497 142.38 173.384 141.935 174.139C141.491 174.888 140.794 175.22 140.38 174.878C139.969 174.535 139.993 173.648 140.437 172.896Z" fill="white"/>
<path d="M126.771 157.157L126.769 156.88C126.767 155.936 127.268 155.557 128.065 155.451L128.149 155.098L128.111 154.774C128.065 154.328 128.05 153.664 128.74 153.516C128.876 153.498 129.182 153.493 129.132 153.249C129.022 152.888 129.09 153.114 128.966 152.704C128.845 152.199 129.042 151.861 129.45 151.644C130.091 151.231 128.92 150.803 129.18 150.121C129.211 150.033 129.511 149.53 129.511 149.53C130.08 148.57 130.321 147.536 127.859 146.314C127.908 146.143 126.898 149.112 126.898 149.112L127.579 150.554C127.719 151.187 127.297 150.77 127.297 150.77L126.666 149.748L126.166 151.885L127.349 154.336C127.485 154.808 127.064 154.543 127.064 154.543L126.042 152.707L125.621 155.593C125.621 155.593 125.341 156.107 125.288 155.536C125.341 154.901 125.604 152.149 125.604 152.149L123.606 152.912C123.606 152.912 123.067 152.982 123.492 152.538C124.035 152.271 125.693 151.496 125.693 151.496L126.175 149.553L123.56 150.394C123.56 150.394 122.883 150.505 123.468 150.012C123.956 149.857 126.261 149.006 126.261 149.006C126.449 148.282 127.183 146.14 127.183 146.14C126.37 145.954 124.476 145.668 124.088 146.812C123.902 147.336 123.453 147.276 123.453 147.276C123.17 147.305 122.818 147.255 122.728 147.681C122.64 148.158 122.086 148.661 122.086 148.661C121.878 148.939 121.692 149.333 121.782 150.178C121.902 151.223 121.436 152.022 121.436 152.022C121.497 152.173 121.685 152.258 122.115 152.396C123.098 152.694 122.98 153.783 122.844 154.515C122.815 154.655 122.684 155.223 122.677 155.438C123.326 155.202 124.145 156.146 124.062 157.157C123.983 157.782 125.209 158.742 125.584 159.03C125.671 158.283 125.954 157.142 126.771 157.157" fill="white"/>
<path d="M177.108 153.319C176.694 153.122 176.148 152.705 176.44 151.62C176.661 150.767 176.015 150.977 175.585 150.985C175.163 150.977 174.869 150.767 175.099 150.173C175.585 148.967 173.406 148.135 172.734 147.93C172.802 148.467 172.92 150.293 172.97 150.575L175.143 152.619C175.761 153.384 174.933 152.928 174.933 152.928L172.97 151.257L173.095 153.345L174.438 155.633C174.725 156.258 174.175 155.876 174.175 155.876L173.06 154.403L172.495 158.529C172.357 159.282 172.125 159.095 172.162 158.478C172.272 157.3 172.545 154.582 172.545 154.582L171.093 156.094C170.596 156.437 170.868 155.801 170.868 155.801L172.558 153.846L172.477 151.255L170.9 152.798C170.344 153.283 170.679 152.5 170.679 152.5L172.44 150.596C172.44 150.596 172.125 148.402 172.061 147.93C168.883 148.477 168.669 150.067 169.08 150.617C169.385 151.011 169.026 151.364 168.774 151.563C168.774 151.563 167.867 152.15 168.114 152.414C168.73 153.062 168.362 153.706 168.143 154.061C168.143 154.061 167.83 154.385 168.296 154.357C169.472 154.388 169.45 155.298 169.113 156.328C168.756 157.15 169.181 157.004 169.429 156.901C170.465 156.439 170.598 157.585 170.576 158.452L170.532 159.365C171.126 158.638 171.533 160.028 171.647 160.459C171.77 160.931 171.862 161.444 171.921 161.8C172.556 160.856 173.629 159.486 174.611 159.188C175.001 159.074 175.134 158.846 175.139 158.41C175.049 157.451 175.086 156.74 176.089 156.805C176.786 156.797 176.755 156.465 176.667 155.762L176.61 155.205C176.562 154.484 176.713 153.898 177.267 153.477C177.267 153.477 177.427 153.363 177.108 153.319" fill="white"/>
<path d="M161.475 148.396C161.972 148.809 162.988 148.365 163.731 147.11C164.473 145.857 164.478 144.574 163.981 144.161C163.481 143.749 162.465 144.192 161.723 145.448C160.982 146.703 160.978 147.984 161.475 148.396Z" fill="white"/>
<path d="M179.985 159.158C180.456 159.168 180.977 158.326 180.997 157.029C181.014 155.732 180.519 154.869 180.049 154.858C179.578 154.85 179.054 155.691 179.037 156.987C179.017 158.284 179.514 159.148 179.985 159.158" fill="white"/>
<path d="M184.134 156.208C184.436 155.85 184.307 154.904 183.591 154.055C182.873 153.205 182.073 153.052 181.771 153.412C181.469 153.77 181.598 154.717 182.314 155.567C183.032 156.415 183.832 156.569 184.134 156.208" fill="white"/>
<path d="M187.16 153.68C187.301 153.247 186.806 152.43 185.752 151.953C184.701 151.473 183.868 151.688 183.728 152.121C183.588 152.554 184.085 153.369 185.137 153.849C186.19 154.326 187.02 154.113 187.16 153.68Z" fill="white"/>
<path d="M191.521 149.354C191.302 149.066 191.094 148.659 191.026 148.104C190.963 147.66 190.825 147.315 190.501 147.087L190.271 146.942C189.887 146.716 189.655 146.444 189.973 145.518C190.251 144.782 190.021 144.631 189.526 144.395L189.112 144.193C188.571 143.91 188.161 143.519 187.953 142.823C187.899 142.626 187.774 142.134 187.526 142.09L187.353 142.084C187.007 142.092 186.639 142.038 186.214 141.005C185.752 140.067 184.278 141.493 183.904 140.801C183.1 139.506 181.107 141.97 180.599 142.639C181.146 143.067 182.693 144.068 183.047 144.268L186.087 143.425C186.847 143.324 186.177 143.806 186.177 143.806L183.477 144.592L185.551 145.879L187.688 145.222C188.416 145.025 188.037 145.414 187.721 145.539C187.257 145.689 185.908 146.109 185.908 146.109L188.286 147.717C188.913 148.119 188.626 148.329 188.186 148.112C187.467 147.681 184.911 146.109 184.911 146.109L185.008 148.195C185.019 148.895 184.675 148.218 184.675 148.218L184.521 145.829L182.403 144.468L182.649 146.877C182.693 147.686 182.318 146.924 182.318 146.924L182.011 144.19L180.27 143.197C180.156 143.451 179.896 145.16 179.896 145.16C179.819 145.754 179.72 146.737 180.415 146.885C180.846 146.929 181.013 147.38 181.111 147.798L181.201 148.215C181.273 148.568 181.354 149.12 181.766 149.048C182.062 148.96 183.288 148.529 183.361 149.408C184.513 149.32 185.038 149.808 185.437 150.191L185.697 150.43C186.004 150.669 186.247 150.508 186.53 150.251C187.088 149.81 187.456 149.813 188.067 149.878L188.223 149.875C188.297 149.862 188.363 149.826 188.431 149.712C188.963 148.858 190.709 149.17 191.521 149.354" fill="white"/>
<path d="M194.028 142.284C194.197 141.763 193.709 140.894 192.686 140.43C191.663 139.963 190.809 140.222 190.64 140.741C190.471 141.262 190.962 142.131 191.983 142.595C193.006 143.06 193.86 142.803 194.028 142.284" fill="white"/>
<path d="M198.773 129.695C198.307 129.815 197.764 129.695 197.497 128.819C197.374 128.36 197.221 128.342 196.916 128.521L196.577 128.749C194.77 130.043 195.302 127.685 194.4 128.074L194.095 128.235C193.637 128.495 193.035 128.79 192.391 127.797C191.627 126.666 191.62 128.168 190.983 128.549C190.702 128.715 190.394 128.606 190.05 128.222C189.504 127.597 189.43 128.365 189.325 128.897L189.207 129.475C189.097 129.973 188.832 130.676 188.298 130.066C187.435 129.044 187.132 132.761 187.073 133.78C187.073 133.78 188.225 133.772 190.584 133.173L191.524 130.053C191.71 129.239 191.846 130.16 191.846 130.16L191.057 133.137L192.006 132.836L193.668 131.991L193.955 130.38C194.115 129.392 194.286 130.437 194.286 130.437L194.036 131.806L195.762 130.94C196.441 130.66 196.246 131.132 195.902 131.319C195.488 131.555 192.612 133.163 192.612 133.163L193.688 134.135C194.194 134.685 193.804 134.696 193.502 134.462C193.278 134.283 191.89 133.337 191.89 133.337L190.115 133.936L191.379 135.318C191.789 135.769 191.167 135.621 191.167 135.621L189.511 134.141L187.224 134.537C187.386 134.916 187.717 135.645 188.006 136.049C188.241 136.329 189.566 137.883 189.774 136.897C189.923 136.254 190.433 136.607 190.702 136.835C190.702 136.835 191.763 138.059 192.034 137.478C192.566 136.35 193.195 136.298 193.692 136.441C193.751 136.457 194.257 136.672 194.314 136.643C194.678 135.243 196.191 135.289 196.27 135.276C196.52 135.243 196.189 134.685 196.099 134.475C195.843 133.925 196.623 133.495 196.929 133.324C196.929 133.324 197.676 132.974 197.93 132.776C198.287 132.603 197.908 132.4 198.062 132.501C196.868 132.115 198.386 130.18 198.773 129.695" fill="white"/>
<path d="M192.903 119.804C192.537 119.454 191.687 119.737 190.999 120.746C190.309 121.752 190.252 122.794 190.618 123.145C190.984 123.497 191.834 123.212 192.521 122.206C193.211 121.197 193.268 120.154 192.903 119.804Z" fill="white"/>
<path d="M186.389 112.715C186.021 113.46 185.241 114.627 184.451 113.587C184.229 113.312 184.076 113.333 183.758 113.986C183.441 114.489 182.963 115.146 182.052 114.811C181.864 114.741 181.54 114.57 181.632 115.213C181.687 115.763 181.643 116.453 180.528 116.352C179.713 116.243 179.943 116.686 180.142 117.272C180.412 118.063 180.642 118.955 179.523 119.007C178.78 119.025 178.955 119.435 179.179 119.977L179.365 120.434C179.56 120.952 179.584 121.484 178.909 121.484C177.819 121.484 180.491 123.681 181.279 124.306C181.827 123.522 182.567 121.665 182.742 121.227L181.314 118.507C181.071 117.822 181.54 118.346 181.54 118.346L182.926 120.854L184.094 118.782L183.084 117.296C182.677 116.678 183.217 117.06 183.217 117.06L184.275 118.507L185.719 115.337C186.089 114.663 185.931 115.501 185.931 115.501L184.573 118.626L185.776 118.317C186.507 118.201 186.258 118.476 185.872 118.595C185.616 118.649 184.416 118.997 184.416 118.997L183.382 120.986L185.287 120.33C186.01 120.174 185.379 120.711 185.379 120.711L183.108 121.411L181.75 124.505C181.75 124.505 181.866 124.666 182.981 124.689C184.109 124.736 184.9 124.71 185.324 124.557C185.657 124.438 185.73 124.3 185.467 123.88C185.16 123.403 185.585 123.102 185.887 122.947C185.887 122.947 187.101 122.441 186.965 122.031C186.604 120.82 187.088 120.473 187.486 120.301C187.486 120.301 187.789 120.174 187.427 119.765C186.641 118.878 187.083 118.276 187.813 117.778L188.154 117.539C188.172 117.394 187.994 117.324 187.725 117.246C187.241 117.08 187.357 116.323 187.431 115.903C187.431 115.903 187.841 114.323 187.425 114.663C186.402 115.312 186.369 113.4 186.389 112.715" fill="white"/>
<path d="M165.483 128.309C165.067 128.078 164.327 128.563 163.887 129.684C163.447 130.799 163.609 131.784 164.025 132.015C164.443 132.246 165.183 131.759 165.624 130.641C166.064 129.523 165.902 128.54 165.483 128.309" fill="white"/>
<path d="M134.874 151.676C135.483 151.637 136.052 150.548 135.984 149.02C135.916 147.487 135.253 146.476 134.646 146.512C134.039 146.551 133.47 147.64 133.538 149.17C133.606 150.701 134.267 151.715 134.874 151.676" fill="white"/>
<path d="M112.199 151.738C112.326 152.153 113.062 152.392 113.995 151.99C114.926 151.588 115.362 150.846 115.235 150.431C115.106 150.016 114.372 149.78 113.439 150.18C112.506 150.584 112.072 151.324 112.199 151.738Z" fill="white"/>
<path d="M115.326 156.042C115.761 156.25 116.53 155.64 116.97 154.354C117.408 153.068 117.214 151.996 116.775 151.786C116.34 151.579 115.571 152.188 115.131 153.475C114.693 154.761 114.888 155.832 115.326 156.042Z" fill="white"/>
<path d="M120.353 156.148C120.916 155.879 121.155 154.628 120.671 153.21C120.187 151.789 119.282 151.086 118.717 151.356C118.154 151.625 117.915 152.875 118.399 154.297C118.883 155.715 119.788 156.418 120.353 156.148" fill="white"/>
<path d="M101.86 139.403C102.19 140.054 103.303 140.147 104.431 139.343C105.559 138.542 106.012 137.333 105.682 136.682C105.351 136.031 104.238 135.94 103.11 136.742C101.982 137.546 101.529 138.752 101.86 139.403" fill="white"/>
<path d="M107.342 111.859C106.761 112.181 106.566 113.483 107.123 114.894C107.679 116.304 108.645 116.966 109.225 116.644C109.808 116.323 110.001 115.023 109.444 113.612C108.888 112.199 107.922 111.538 107.342 111.859" fill="white"/>
<path d="M105.474 120.183C105.579 120.77 106.398 121.205 107.456 120.938C108.512 120.671 109.112 119.88 109.007 119.294C108.899 118.705 108.08 118.272 107.024 118.537C105.967 118.804 105.369 119.595 105.474 120.183" fill="white"/>
<path d="M136.116 118.757C135.645 118.897 135.324 119.953 135.613 121.327C135.902 122.699 136.607 123.454 137.076 123.314C137.547 123.177 137.869 122.118 137.579 120.746C137.29 119.372 136.585 118.62 136.116 118.757" fill="white"/>
<path d="M117.859 102.906C117.776 103.472 118.459 104.25 119.638 104.496C120.816 104.742 121.681 104.286 121.767 103.721C121.85 103.158 121.167 102.377 119.988 102.131C118.81 101.887 117.943 102.341 117.859 102.906" fill="white"/>
<path d="M122.669 95.0087C122.104 95.0554 121.589 96.0072 121.668 97.3272C121.745 98.6447 122.369 99.5057 122.934 99.4565C123.499 99.4098 124.014 98.458 123.935 97.1405C123.856 95.8204 123.234 94.962 122.669 95.0087Z" fill="white"/>
<path d="M137.183 91.992C136.883 92.5807 137.289 93.6829 138.32 94.4143C139.352 95.1482 140.361 95.0523 140.659 94.4635C140.959 93.8748 140.556 92.7752 139.525 92.0412C138.493 91.3073 137.481 91.4032 137.183 91.992Z" fill="white"/>
<path d="M143.54 88.8032C142.999 88.6217 142.226 89.3478 141.902 90.6913C141.575 92.0347 141.908 93.1369 142.447 93.3184C142.986 93.5026 143.761 92.7764 144.085 91.433C144.409 90.0896 144.079 88.9874 143.54 88.8032Z" fill="white"/>
<path d="M158.998 91.4975C158.438 91.4871 157.848 92.426 157.829 93.8212C157.809 95.2191 158.37 96.1813 158.93 96.1943C159.491 96.2046 160.08 95.2658 160.1 93.8679C160.122 92.4726 159.561 91.5105 158.998 91.4975Z" fill="white"/>
<path d="M180.417 104.634C180.02 104.162 179.045 104.354 178.211 105.342C177.377 106.33 177.217 107.484 177.613 107.954C178.009 108.426 178.984 108.234 179.819 107.246C180.653 106.258 180.813 105.103 180.417 104.634" fill="white"/>
<path d="M183.036 110.346C183.044 109.788 182.332 109.168 181.237 109.147C180.144 109.124 179.413 109.713 179.406 110.27C179.398 110.828 180.109 111.445 181.205 111.469C182.3 111.492 183.029 110.903 183.036 110.346Z" fill="white"/>
<path d="M164.857 93.287C164.461 92.8176 163.486 93.0095 162.651 93.9976C161.817 94.9858 161.657 96.1398 162.053 96.6092C162.45 97.0787 163.425 96.8867 164.259 95.9012C165.094 94.9131 165.253 93.759 164.857 93.287Z" fill="white"/>
<path d="M173.879 122.213C173.198 123.761 172.6 122.366 172.317 122.384C172.124 122.397 171.513 124.129 170.412 123.629C170.136 123.507 169.978 123.476 169.873 123.792C169.652 124.653 169.452 125.276 168.51 125.172C168.138 125.112 167.994 125.128 168.094 125.579C168.186 125.898 168.278 126.217 168.37 126.536C168.519 127.185 168.375 127.657 167.698 127.696C166.877 127.662 167.575 129.07 167.575 129.07C167.72 129.537 167.772 130.102 167.163 130.126C166.318 130.126 168.283 131.993 169.019 132.54C169.019 132.54 169.566 131.518 170.249 129.983L169.884 127.294C169.779 126.3 170.197 127.382 170.197 127.382L170.477 129.415L171.198 127.768L170.466 125.999C170.208 125.151 170.576 125.501 170.692 125.8C170.85 126.16 171.386 127.306 171.386 127.306L172.836 124.257C173.522 123.206 173.053 124.34 173.053 124.34L171.818 127.296L173.701 126.497C174.35 126.256 174.08 126.671 173.833 126.783C173.587 126.884 171.66 127.698 171.66 127.698L170.85 129.526L172.392 129.023C173.149 128.868 172.523 129.355 172.523 129.355L170.694 129.921L169.514 132.703C169.967 132.877 171.452 132.862 172.218 132.597C172.591 132.467 172.641 132.296 172.457 131.97C172.218 131.49 172.589 131.274 172.893 131.181C172.893 131.181 173.929 130.953 173.844 130.572C173.482 129.34 174.117 129.179 174.575 129.166L174.86 129.161L174.715 128.889C174.045 127.996 174.591 127.413 175.254 126.969C175.254 126.969 176.209 126.515 175.324 126.425C174.921 126.285 174.998 125.709 175.066 125.356C175.066 125.356 175.372 124.35 175.075 124.563C174.113 125.263 173.922 122.828 173.879 122.213" fill="white"/>
<path d="M163.343 119.126C162.548 119.699 161.212 120.353 160.513 119.173C160.319 118.864 160.084 119.067 159.758 119.549C159.392 120.029 158.853 120.69 158.028 120.299C157.712 120.146 157.412 120.195 157.263 120.563C157.031 121.409 156.79 122.047 155.745 121.878C155.233 121.746 155.209 121.951 155.283 122.417C155.415 123.232 156.085 124.967 154.723 124.884C154.51 124.881 154.414 124.915 154.372 124.943C154.433 125.301 154.896 125.815 155.086 126.064C155.345 126.417 155.684 127.096 154.931 127.106C153.763 127.031 154.893 129.373 155.43 129.887C155.43 129.887 157.528 126.608 157.6 126.481L157.246 124.3C157.309 123.403 157.576 124.241 157.576 124.241L157.863 126.134L158.877 124.617L159.3 121.702C159.594 120.851 159.631 121.759 159.631 121.759L159.346 123.976L161.392 120.968C162.134 120.242 161.646 121.224 161.646 121.224L159.548 124.339L161.6 123.579C162.469 123.323 162.154 123.732 161.694 123.901C161.365 124.031 159.096 125.003 159.096 125.003L158.174 126.341L159.994 125.903C160.763 125.789 160.073 126.289 160.073 126.289L157.868 126.756L155.78 130.097C157.706 130.631 159.142 130.538 159.62 130.408C160.043 130.294 160.156 130.071 159.929 129.627C159.602 128.976 160.321 129.064 160.581 129.127C160.581 129.127 161.512 129.345 161.67 129.316C162.104 129.236 160.989 127.84 162.763 127.057C163.019 126.883 162.783 126.603 162.638 126.393C161.92 125.369 162.531 124.918 163.341 124.728L163.702 124.65L163.405 124.51C162.927 124.308 163.172 123.644 163.321 123.294C163.582 122.729 163.448 123.019 163.691 122.495C163.229 122.703 162.997 122.451 162.938 122.041C162.835 121.32 163.17 119.84 163.343 119.126" fill="white"/>
<path d="M165.468 119.938C165.604 120.117 165.99 120.475 166.005 120.013C166.051 119.259 166.36 119.046 166.807 119.632L167.396 120.488C167.483 120.61 167.794 121.097 167.928 120.825C168.456 119.741 168.999 120.179 169.389 120.599C169.389 120.599 170.053 121.292 170.265 120.978C171.034 119.832 173.292 120.301 173.292 120.301C173.697 120.322 174.214 120.319 174.422 119.808C174.689 119.035 176.187 119.295 176.187 119.295L175.94 118.96C175.5 118.299 175.158 117.337 175.734 116.351C175.986 115.975 175.815 115.931 175.487 115.83L175.011 115.705C174.332 115.54 173.388 115.283 173.458 114.204C173.559 112.557 172.135 113.683 171.577 112.516C171.194 111.737 170.905 111.909 170.477 112.184L170.123 112.407C169.619 112.681 169.187 112.632 168.756 112.155C167.626 110.884 166.182 111.686 165.387 112.342C164.097 113.405 164.073 114.925 164.021 115.433C165.037 115.597 167.503 115.923 167.915 115.957L170.188 114.365C171.216 113.89 170.364 114.702 170.364 114.702L168.681 116.18L171.176 116.976L172.79 116.022C173.647 115.622 172.889 116.242 172.889 116.242L171.713 117.14L174.405 118.084C175.138 118.439 174.302 118.317 174.302 118.317L171.805 117.684L172.495 118.587C173.125 119.399 172.289 118.719 172.289 118.719L171.213 117.456L168.681 116.707L169.645 118.097C170.171 118.844 169.389 118.351 169.389 118.351L167.893 116.53L164.001 116.024C164.001 116.024 164.358 118.449 165.468 119.938" fill="white"/>
<path d="M165.152 104.695C165.152 104.695 165.102 104.702 165.989 105.309C167.717 106.448 169.237 106.562 169.754 105.605C170.185 104.71 170.761 104.739 171.199 104.861L171.486 104.954L171.685 105.003C171.766 103.587 172.314 103.403 172.853 103.403L173.199 103.411C173.473 103.414 173.654 103.388 173.685 102.991C173.749 101.58 174.432 101.471 174.918 101.445C174.918 101.445 175.617 101.427 175.109 100.706C174.725 99.7515 175.054 99.0591 175.315 98.5482C175.595 98.0113 175.634 97.6897 175.38 97.4408C174.682 96.7717 174.877 94.6191 175.001 93.6284C174.005 94.1912 171.843 95.2415 170.866 94.4324C170.415 94.0537 170.165 94.2093 169.887 94.4531C169.887 94.4531 169.254 95.1637 168.702 94.9096C168.045 94.6502 167.815 94.9148 167.622 95.2597L167.285 95.8821C167.147 96.0896 166.963 96.2711 166.687 96.3126C165.901 96.4319 165.794 96.9169 165.759 97.42C165.735 97.9258 165.783 98.6856 165.141 98.6571C164.155 98.6571 164.622 99.4222 164.644 100.275C164.653 100.613 164.607 100.976 164.407 101.315C163.774 102.441 164.401 103.683 164.65 104.116L166.249 102.9L166.766 98.4367C167.06 96.9584 167.099 98.4652 167.099 98.4652L166.797 102.591L168.733 100.794L169.276 97.0803C169.62 95.6279 169.607 97.127 169.607 97.127L169.359 100.27L172.883 97.2592C174.143 96.3697 173.078 97.5808 173.078 97.5808L169.662 100.636L172.472 101.188C173.672 101.476 172.43 101.583 172.43 101.583L169.221 101.227L167.029 103.084L170.47 103.123C171.764 103.209 170.474 103.517 170.474 103.517L166.328 103.613L165.152 104.695" fill="white"/>
<path d="M151.612 83.6902C151.053 84.6186 150.197 85.6223 149.2 85.7779C148.946 85.8194 148.686 86.7919 148.686 86.7919C148.51 87.404 148.223 88.1379 147.345 88.5996C146.901 88.8382 146.53 88.999 146.462 89.6032C146.462 89.6032 146.36 90.9519 145.501 91.8803L145.591 92.1656C145.876 92.5598 146.241 92.9981 146.02 93.592C145.862 93.9421 146.217 94.549 146.37 94.8187C146.37 94.8187 147.135 96.1932 147.209 96.4681C147.439 97.534 147.619 97.8816 147.785 98.0216C147.972 98.1746 149.941 98.3847 149.941 98.3847L149.967 96.2762L147.483 94.2066C146.515 93.522 147.615 93.9862 147.615 93.9862L150.019 95.7186L150.096 93.6464L148.197 91.9036C147.273 91.2008 148.241 91.5717 148.241 91.5717L150.175 93.12L150.593 87.4247C150.672 86.4963 150.865 87.4325 150.865 87.4325L150.593 93.1511L153.316 91.442C154.227 90.8611 153.489 91.7791 153.489 91.7791L150.62 93.6153L150.541 95.7186L152.685 94.6683C154.06 94.0173 153.024 94.7902 153.024 94.7902L150.549 96.1647C150.506 96.7404 150.62 97.7571 150.593 98.4106C151.789 98.1435 154.923 97.1787 154.866 95.3088C154.866 94.6086 156.452 93.579 155.852 92.5909C155.333 91.8595 155.138 91.3979 155.543 90.5654C155.679 90.1634 155.241 89.7718 155.116 89.6499C154.761 89.2998 154.31 88.763 154.575 88.1717C154.575 88.1717 154.884 87.6945 154.853 87.5933C154.818 87.487 154.667 87.2925 154.157 86.9735C153.664 86.6804 153.171 86.3718 153.226 85.6379L153.232 85.4226C153.208 85.0543 152.764 84.7327 152.554 84.5823C152.015 84.2322 151.743 83.9365 151.612 83.6902" fill="white"/>
<path d="M130.158 90.0284C129.429 90.5782 128.202 89.8806 127.536 89.4163C127.561 90.2878 127.55 92.1187 126.912 92.6348C126.494 92.8708 127.063 93.5814 127.063 93.5814C127.289 94.0949 127.519 94.7848 126.901 95.4902C126.739 95.6977 126.787 95.8429 126.921 96.136C126.921 96.136 127.302 96.678 127.087 97.3186C126.969 97.6272 127.107 97.7932 127.3 97.9618L127.854 98.3923C128.183 98.6776 128.384 99.0407 128.233 99.5567C128.126 99.9587 128.686 100.195 128.908 100.293C128.908 100.293 129.762 100.662 129.832 100.719C129.968 100.882 129.992 100.957 129.992 101.032C129.954 101.502 131.201 101.585 131.391 101.59C133.603 101.663 134.753 100.485 134.753 100.485L133.603 99.1859L130.108 98.8799C129.341 98.5972 130.152 98.5661 130.152 98.5661L133.31 98.8021L131.396 96.4576L129.194 96.7195C128.296 96.6158 129.159 96.4316 129.159 96.4316L131.223 96.0919L129.245 93.5503C128.846 92.8708 129.49 93.2806 129.49 93.2806L131.328 95.6147L131.444 94.1624C131.564 93.3039 131.779 94.1857 131.779 94.1857L131.742 96.04L133.358 98.1044L133.459 94.2635C133.577 93.4907 133.794 94.2661 133.794 94.2661L133.785 98.5375C133.995 98.7009 134.745 99.4686 135.34 100.018C135.717 99.3882 136.343 98.2626 136.512 97.5157C136.593 97.163 136.536 97.0878 136.497 97.067C136.032 96.9037 135.929 96.4187 135.908 95.9259C135.894 95.3294 136.028 94.5566 135.266 94.6033C134.412 94.6033 134.819 92.0383 134.074 92.2147C133.126 92.3936 132.754 91.7401 132.563 91.1825L132.447 90.8013C132.414 90.6845 132.405 90.5652 132.379 90.5082C131.702 91.2136 131.146 91.0009 130.747 90.6534L130.485 90.3915L130.279 90.1529L130.158 90.0284" fill="white"/>
<path d="M130.015 108.3L130.297 108.733C130.593 109.225 130.917 109.91 130.978 110.636C131.156 112.327 132.757 111.886 133.024 112.942C133.403 114.324 135.074 113.979 135.998 114.342C137.332 115.333 139.584 112.192 139.584 112.192L136.975 110.968L135.013 112.016C134.489 112.187 134.921 111.785 134.921 111.785L136.542 110.823L135.471 110.437L133.512 111.121C132.674 111.243 133.431 110.854 133.431 110.854L135.013 110.268L131.616 109.091C131.066 108.86 131.686 108.891 131.686 108.891L135.236 110.019L134.505 108.188C134.321 107.605 134.673 108.069 134.673 108.069L135.576 110.035L136.927 110.587L136.351 107.778C136.189 107.018 136.515 107.729 136.515 107.729L137.249 110.67C137.963 110.896 138.975 111.331 139.772 111.593C139.733 111.023 139.45 107.524 138.684 107.524C137.68 107.55 137.172 106.982 136.807 106.476L136.559 106.131C136.386 105.895 136.209 105.665 135.913 105.763C135.008 106.041 134.594 105.908 134.336 105.768L134.198 105.691C134.165 105.675 134.115 105.696 134.113 105.696L133.975 105.841C133.609 106.292 133.166 106.448 132.66 106.45L132.275 106.432L131.96 106.422C131.716 106.43 131.624 106.495 131.624 106.829C131.653 108.022 130.799 108.331 130.015 108.3" fill="white"/>
<path d="M105.562 150.168L105.961 149.994C106.487 149.794 107.196 149.67 107.689 150.173C107.724 150.206 107.748 150.227 107.851 150.134L108.276 149.649C108.629 149.249 109.144 148.814 109.919 149.146C110.324 149.327 110.572 149.447 110.95 149.185L111.205 149.011C111.71 148.692 112.234 148.617 112.801 148.549L112.779 148.401C112.665 147.514 113.988 147.527 114.304 147.514C115.193 147.476 114.621 145.896 115.127 145.113C115.797 144.125 115.758 143.762 115.287 142.864C115.245 142.784 114.468 141.557 114.468 141.557L113.336 142.714L113.298 145.733C113.187 146.635 113.029 145.676 113.029 145.676C113.042 145.419 112.95 143.043 112.95 143.043L111.984 143.819L111.546 146.71C111.356 147.717 111.332 146.542 111.332 146.542L111.566 144.19L108.478 146.923C107.567 147.47 108.274 146.609 108.274 146.609L111.43 143.684L109.203 143.497C108.219 143.323 109.24 143.23 109.24 143.23L111.866 143.233L112.582 142.667L110.598 141.726C109.735 141.404 110.703 141.495 110.703 141.495L112.873 142.333L114.05 141.093C113.2 140.369 111.27 139.016 110.311 140.03C110.239 140.095 109.776 140.203 109.776 140.203C109.236 140.261 108.377 140.222 108.158 140.974C107.88 142.208 106.999 142.413 106.999 142.413C106.769 142.525 106.736 143.012 106.719 143.23C106.669 143.777 106.566 144.283 106.294 144.732C105.869 145.401 105.841 145.608 105.959 146.56C106.011 147.053 106.06 147.551 105.779 147.961C105.571 148.347 105.602 148.871 105.617 149.133C105.657 149.579 105.626 149.913 105.562 150.168" fill="white"/>
<path d="M102.63 125.365C103.105 125.842 104.167 126.993 103.771 127.818C103.506 128.383 104.183 128.658 104.505 128.814C104.897 129.001 105.885 129.322 105.885 129.973C105.874 130.344 105.942 130.419 106.211 130.432C106.896 130.458 107.65 130.588 108.003 131.838C108.062 132.009 108.568 131.718 108.675 131.687C109.163 131.537 109.768 131.589 110.379 132.65C110.622 133.065 110.955 132.634 111.167 132.414C111.167 132.414 112.089 131.374 112.56 131.82C114.094 132.302 115.009 129.553 114.989 129.283C114.84 129.26 112.979 128.863 112.979 128.863L110.545 130.507C109.866 130.723 110.377 130.165 110.377 130.165L112.455 128.65L110.769 128.215L108.191 129.696C107.698 129.856 108.022 129.353 108.022 129.353L110.221 127.966L106.003 126.851C105.258 126.519 106.095 126.469 106.095 126.469L110.304 127.618L109.823 125.235C109.685 124.625 110.12 125.056 110.12 125.056L110.769 127.717L112.646 128.171L112.208 125.735C112.166 124.996 112.53 125.632 112.53 125.632L113.134 128.246C113.134 128.246 114.884 128.687 115.138 128.718C115.149 127.914 115.103 126.073 114.31 124.908C113.883 124.283 113.568 125.829 113.036 125.123C112.637 124.594 112.475 123.793 112.475 123.793C112.365 123.521 112.192 123.098 111.87 123.261C111.021 123.754 110.556 123.453 110.223 123.142C110.223 123.142 109.866 122.551 109.601 122.994C109.42 123.222 108.789 123.878 107.558 123.243C106.708 122.872 106.491 124.187 105.449 123.915C105.057 123.897 104.708 123.951 104.531 124.35C104.117 125.523 102.63 125.365 102.63 125.365" fill="white"/>
<path d="M119.062 118.245C120.807 116.121 120.422 115.278 120.076 114.834C119.609 114.082 120.538 112.166 119.879 112.067C119.474 112.013 119.318 111.764 119.344 111.32L119.366 111.045C119.399 110.526 119.057 110.48 118.676 110.449C118.068 110.449 117.888 109.647 117.842 109.074C117.848 108.861 117.483 109.346 117.126 108.999C116.81 108.675 115.976 107.871 115.52 107.746C114.806 107.713 113.994 106.795 113.525 106.177C113.269 107.479 112.75 109.966 112.211 110.983C111.795 111.802 112.353 113.073 111.95 114.077C111.626 114.801 111.806 115.083 111.996 115.311L112.171 115.509C112.415 115.789 112.511 116.071 112.327 116.471C111.92 117.29 114.081 118.245 114.408 118.395C115.555 118.909 117.824 118.727 118.545 118.652C118.05 117.907 117.465 116.792 117.266 116.486L114.522 115.433C113.862 115.021 114.618 115.145 114.618 115.145L117.029 116.019C117.029 116.019 116.35 114.72 116.017 113.885C115.827 113.823 114.129 113.172 114.129 113.172C113.267 112.679 114.265 112.892 114.265 112.892L115.879 113.421L114.677 110.078C114.495 109.118 114.964 109.984 114.964 109.984L116.615 114.007L116.729 111.229C116.953 110.265 116.977 111.286 116.977 111.286L116.913 114.65C117.292 115.371 117.735 116.268 117.735 116.268L118.479 114.022C118.725 113.301 118.821 113.696 118.718 114.098C118.598 114.52 117.997 116.639 117.997 116.639L119.062 118.245" fill="white"/>
<path d="M133.675 119.258C133.263 119.068 133.353 118.428 133.419 118.036L133.508 117.546C133.55 117.331 133.765 116.488 133.416 116.436C132.687 116.301 132.941 115.412 132.941 115.412C133 114.916 132.635 114.916 132.286 114.906C131.842 114.87 131.533 114.561 131.29 114.154L130.95 113.544C130.83 113.355 130.777 113.327 130.624 113.5C130.365 113.806 130.065 113.513 129.875 113.298C129.658 113.049 129.231 112.434 128.881 112.673C128.318 113.065 127.498 112.466 127.047 112.064L126.684 113.137C126.423 113.874 126.077 114.771 125.746 115.394C125.565 115.785 125.6 116.063 125.639 116.353C125.639 116.353 125.838 116.981 125.505 117.396C124.533 118.755 126.044 119.341 125.884 120.765C125.858 121.063 125.88 121.208 126.105 121.304C126.883 121.592 127.207 121.877 127.402 122.951C127.731 124.686 131.182 123.327 131.982 122.987C131.171 121.685 130.755 120.733 130.543 120.448L128.129 119.992C127.459 119.797 128.138 119.738 128.138 119.738L130.282 119.922C130.048 119.333 129.551 118.158 129.551 118.158L127.816 117.741C127.067 117.507 127.851 117.414 127.851 117.414L129.393 117.694L128.217 114.566C128.035 113.793 128.453 114.444 128.453 114.444C128.453 114.444 129.831 118.259 130.282 118.931C130.276 118.29 130.361 115.681 130.361 115.681C130.466 114.628 130.674 115.606 130.674 115.606L130.712 119.732C131.119 120.542 131.638 121.304 131.638 121.304L132.442 118.648C132.713 117.909 132.661 118.747 132.661 118.747C132.635 118.9 131.945 121.662 131.945 121.662L132.556 122.676C134.124 121.532 134.468 119.678 133.675 119.258" fill="white"/>
<path d="M138.948 117.446C139.102 118.136 139.034 118.883 138.596 119.43C138.331 119.713 138.412 119.863 138.618 120.167C139.141 120.893 139.027 121.1 138.804 121.476C138.206 122.4 138.361 122.747 138.519 122.98C139.1 123.559 139.058 123.779 138.854 124.199C138.589 124.845 138.922 125.076 139.408 125.359C140.278 125.776 140.256 126.259 139.86 126.749C139.669 126.972 141.161 127.122 141.489 127.174C142.214 127.348 141.342 127.838 141.623 128.017C142.076 128.274 143.41 128.263 143.918 128.269C143.625 127.223 143.316 126.292 143.316 126.292L141.377 124.394C140.847 124.002 141.055 123.759 141.395 124.093C141.772 124.43 143.094 125.517 143.094 125.517L142.337 123.598L140.133 122.942C139.566 122.483 140.238 122.566 140.238 122.566L142.153 123.134C141.579 121.557 140.245 119.731 140.245 119.731C139.906 119.018 140.44 119.534 140.44 119.534C140.44 119.534 141.686 120.812 142.624 123.009C142.783 122.451 142.994 120.641 142.994 120.641C143.226 119.915 143.309 120.543 143.224 120.942C143.099 121.79 142.845 123.51 142.845 123.51C142.845 123.51 143.309 124.63 143.565 125.302C143.747 124.837 144.676 122.586 144.676 122.586C145.055 121.928 145.035 122.462 144.908 122.763C144.746 123.149 143.793 125.976 143.793 125.976C144.192 127.148 144.367 128.141 144.367 128.141C145.05 127.963 145.565 127.478 145.462 126.521C145.421 125.302 146.623 125.302 146.535 125.076C146.229 124.109 146.415 123.258 146.662 122.628C146.732 122.345 146.717 122.171 146.509 121.961C146.097 121.559 145.848 121.105 145.747 120.496C145.64 119.731 145.677 119.578 144.91 119.622C143.386 119.669 143.213 118.151 142.593 117.998C141.294 117.747 139.588 117.526 138.948 117.446Z" fill="white"/>
<path d="M163.536 115.556C157.706 115.605 153.715 119.435 152.035 120.797C153.958 113.813 163.197 106.289 164.736 104.915L164.482 104.541C162.651 106.082 159.486 109.046 157.864 110.618C155.115 113.325 152.885 116.702 151.221 120.434C151.264 111.02 157.997 100.311 159.723 99.7406C160.862 99.2557 161.979 97.1135 161.979 97.1135L161.705 96.8152C161.705 96.8152 160.61 98.6825 160.084 98.9341C159.346 99.5072 158.948 99.4061 158.948 99.4061C158.948 99.4061 159.18 98.5088 159.053 96.5403L158.779 96.5637C158.801 98.3843 158.475 100.034 157.195 101.642C154.909 104.629 152.267 110.089 150.592 113.94L150.528 98.7837L150.044 98.807L149.376 116.004C149.376 116.004 148.446 106.883 144.615 99.7562C144.26 99.0949 142.663 96.8878 142.593 96.0916C142.582 95.5548 142.604 94.7327 142.74 93.6875C142.552 93.7238 142.298 93.5993 142.298 93.5993L142.098 96.0294L140.931 94.6471C140.826 94.9816 140.447 95.1321 140.447 95.1321C140.946 95.5678 142.707 97.1731 144.632 101.183C146.531 105.026 147.475 109.326 147.957 113.673C145.918 108.478 142.97 106.235 135.479 100.379L135.184 100.651L138.679 104.142C138.679 104.142 135.451 103.146 130.919 103.325C126.517 103.571 124.41 100.848 123.652 99.5332L123.24 99.7458C124.191 101.849 127.086 103.646 127.086 103.646C124.438 104.017 122.178 103.724 122.178 103.724L122.082 103.955C123.203 104.287 124.375 104.411 125.507 104.37C127.982 104.235 131.561 104.37 134.605 104.461C140.576 104.733 145.982 109.847 147.834 118.123C147.841 118.154 143.982 113.138 140.11 111.792C140.004 112.163 140.004 112.218 140.004 112.218C144.236 113.538 148.093 120.53 148.152 126.318C148.113 128.256 147.786 136.664 147.786 136.664C146.172 134.262 144.534 129.114 144.446 128.528L144.087 128.629C144.087 128.629 147.48 141.379 147.392 141.29C147.392 141.29 138.53 128.951 137.394 123.569C137.269 123.717 137.05 123.637 137.05 123.637C137.626 127.034 140.666 132.387 141.702 134.34L132.617 123.045L132.279 123.196L140.239 134.042C140.239 134.042 121.125 123.383 119.188 118.647C119.125 118.821 118.81 118.971 118.81 118.971C121.208 124.08 140.782 136.192 140.782 136.192C140.782 136.192 132.069 131.855 124.375 127.076C117.679 123.066 112.276 119.734 111.402 119.147C110.822 118.758 109.757 117.75 109.378 116.977L109.148 117.101C109.315 117.392 110.117 118.67 110.846 119.168C110.824 119.184 109.37 119.158 109.37 119.158L109.381 119.555C110.217 119.339 111.363 119.653 112.938 120.74C115.57 122.592 131.66 132.854 132.604 133.533C132.604 133.533 125.888 130.976 115.491 128.933L115.413 129.332C115.476 129.42 128.155 131.256 136.763 137.377C136.763 137.377 134.369 136.277 130.175 135.245C125.974 134.213 119.769 133.357 113.862 134.208C111.402 134.586 108.448 135.411 106.117 136.742L106.137 137.089C112.62 133.401 123.061 134.947 123.061 134.947C123.061 134.947 119.44 135.644 114.368 140.865L114.725 141.215C117.272 138.7 121.256 136.329 124.546 135.886C127.376 135.561 132.017 137.265 134.741 138.375C134.741 138.375 132.437 138.241 130.702 138.531C128.963 138.821 126.613 139.47 124.182 140.896C122.426 141.939 121.006 143.601 119.931 145.173C118.849 146.75 118.12 148.223 117.741 148.85C117.268 149.6 116.328 149.859 115.526 150.111L115.632 150.386L117.119 149.872L116.67 151.376L117.062 151.532L117.668 149.934L118.24 151.234C118.389 151.034 118.661 150.936 118.661 150.936C118.661 150.936 118.269 150.251 118.128 149.781C117.824 148.337 121.876 143.534 125.939 141.306C130.076 139.127 132.393 139.618 132.426 139.625L132.93 139.734C131.568 140.512 130.054 141.194 127.522 145.699L127.987 145.899C131.206 140.167 135.819 141.415 135.863 141.43L136.355 141.594C136.355 141.594 134.069 142.362 134.406 146.174L134.89 146.148C134.927 144.843 135.219 143.427 136.132 142.59C138.011 140.85 143.32 142.03 144.591 149.283C145.204 152.87 145.18 158.926 144.904 164.079C144.628 169.24 143.964 173.921 143.964 173.921L142.473 172.653C142.473 172.653 142.944 174.448 141.089 175.19C141.794 175.485 143.761 176.323 143.859 179.679C144.015 184.708 142.03 188.284 136.384 188.839C134.135 189.088 131.261 188.468 130.372 187.973C128.716 187.049 127.457 186.681 125.509 186.86C121.576 187.254 119.55 192.864 116.048 193.543C112.911 194.288 109.832 194.028 109.832 194.028C109.825 194.039 110.78 194.301 112.493 195.03C118.19 196.824 122.704 192.203 124.725 191.502C126.929 190.737 130.269 190.405 133.456 192.553C137.113 195.05 141.86 193.782 144.996 191.266C144.996 191.266 144.992 194.386 143.233 196.329C140.519 199.314 136.434 195.393 132.358 198.681C128.909 201.371 129.553 206.283 129.951 207.852C130.08 207.348 130.133 206.13 130.477 204.688C131.381 201.007 134.879 200.216 137.534 200.416C143.283 200.849 144.851 199.859 147.175 196.173C147.403 197.825 148.187 200.559 149.035 201.84C150.89 204.643 148.332 206.591 146.42 207.787C147.221 207.735 148.218 207.291 148.905 206.946C152.835 204.866 154.563 201.155 152.119 197.877C150.923 196.241 150.793 194.721 151.578 192.864C152.548 194.625 154.042 196.658 155.621 197.755C157.003 198.71 158.869 198.868 162.417 198.868C165.273 198.868 165.523 201.734 165.567 204.343L165.889 203.365C168.578 194.773 156.53 192.392 156.407 192.369C156.407 192.369 157.798 192.42 159.598 192.472C161.407 192.522 164.134 191.824 166.6 190.82C169.316 189.809 172.772 190.439 176.115 192.988C181.054 196.648 184.341 196.267 186.726 194.967C187.966 194.293 189.107 193.606 189.968 192.356C188.625 192.89 184.913 194.22 179.514 191.007C177.041 189.521 175.074 187.358 173.191 186.199C171.327 185.05 169.605 184.469 167.649 185.167C164.546 186.181 163.081 187.151 161.53 187.54C159.955 187.934 158.076 188.31 156.615 187.664C154.828 186.894 154.028 184.114 153.897 181.165C153.763 178.19 154.149 174.225 154.263 171.631C154.423 167.313 156.234 166.984 156.849 166.74C156.289 166.647 155.634 165.487 155.792 164.11C155.505 164.419 154.915 164.868 154.576 164.634C154.456 164.484 152.605 162.29 153.479 149.097C154.14 139.109 161.061 140.025 162.96 141.08C163.961 141.625 164.515 142.582 164.079 143.801L164.384 144.055C164.715 142.997 166.04 141.153 161.431 139.185C161.517 138.912 166.874 140.261 169.802 143.225C171.373 144.771 171.962 146.298 172.166 147.408L172.595 147.414C172.293 144.379 170.339 141.586 170.339 141.586C170.339 141.586 172.339 142.131 175.168 145.212C177.81 148.052 178.923 150.559 179.974 154.424L180.167 154.473L179.148 150.124L181.448 153.251L181.722 152.979L179.7 150.189L183.448 151.882L183.699 151.558C182.878 151.184 180.147 149.945 179.849 149.787C178.276 148.882 177.413 147.128 176.336 145.622C174.906 143.645 172.291 141.472 170.438 139.994C170.438 139.994 172.128 139.721 175.26 140.567C176.934 141.034 178.489 141.944 180.059 142.935L180.289 142.486C179.433 141.993 175.512 139.146 170.376 138.355C171.134 136.031 175.414 136.555 176.178 136.651C180.169 137.229 187.556 139.721 190.329 140.691L190.478 140.292C183.132 137.201 175.723 135.681 175.723 135.681L186.858 134.306L186.796 133.979C185.566 134.078 184.013 134.122 182.565 134.125C180.129 134.13 177.302 133.788 177.302 133.788C177.302 133.788 184.668 130.247 190.432 123.422C190.393 123.419 190.266 123.219 190.266 123.219C186.858 126.261 181.89 131.046 177.048 132.592C178.333 130.507 181.454 125.185 181.606 124.853L181.196 124.604C181.196 124.604 177.405 130.476 176.459 131.415C172.229 135.922 166.051 136.28 166.048 136.28C166.048 136.28 165.409 136.329 165.886 135.982C167.599 134.947 168.48 134.143 169.281 132.976L168.942 132.851C166.462 135.795 162.456 136.423 159.83 135.595C158.895 135.333 160.104 134.685 161.42 134.423C162.529 134.171 163.536 133.5 164.047 132.364L163.873 132.278C163.011 134.148 159.675 133.852 158.067 134.994C156.015 136.358 153.851 139.509 152.476 141.781C152.476 141.781 152.876 139.203 153.027 137.722C153.317 135.271 154.431 132.517 155.667 130.338L155.369 130.172C153.012 133.925 152.918 135.17 152.434 136.417C151.159 133.194 152.298 126.064 152.611 124.205C153.573 118.214 158.967 116.528 163.536 115.955C163.556 115.929 163.495 115.805 163.536 115.556" fill="white"/>
<path d="M168.324 111.179C172.882 109.327 177.786 110.248 179.153 110.673C179.153 110.673 178.986 110.398 179.092 110.123C178.248 109.825 176.785 109.56 176.785 109.56L177.554 108.354L177.302 108.129L176.312 109.426C176.312 109.426 169.704 109.127 166.04 111.495C167.326 110.945 167.897 111.065 168.324 111.179Z" fill="white"/>
</g>
<defs>
<clipPath id="clip0">
<rect width="300" height="300" fill="white"/>
</clipPath>
</defs>
</svg>
